<?xml version="1.0" encoding="UTF-8"?>
<!DOCTYPE xmeml>
<xmeml version="4">
	<sequence MZ.EditLine="227741177664000" MZ.Sequence.AudioTimeDisplayFormat="200" MZ.Sequence.EditingModeGUID="35d109db-457b-43c1-9452-9cb7be9f121c" MZ.Sequence.PreviewFrameSizeHeight="1080" MZ.Sequence.PreviewFrameSizeWidth="1920" MZ.Sequence.PreviewRenderingClassID="1297106761" MZ.Sequence.PreviewRenderingPresetCodec="1297107278" MZ.Sequence.PreviewRenderingPresetPath="EncoderPresets/SequencePreview/35d109db-457b-43c1-9452-9cb7be9f121c/I-Frame Only MPEG.epr" MZ.Sequence.PreviewUseMaxBitDepth="false" MZ.Sequence.PreviewUseMaxRenderQuality="false" MZ.Sequence.VideoTimeDisplayFormat="110" MZ.WorkInPoint="0" MZ.WorkOutPoint="15235011792000" Monitor.ProgramZoomIn="52972920000" Monitor.ProgramZoomOut="561438789912000" TL.SQAVDividerPosition="0.5" TL.SQAudioVisibleBase="0" TL.SQHeaderWidth="236" TL.SQHideShyTracks="0" TL.SQTimePerPixel="2.9334548103688238" TL.SQVideoVisibleBase="0" TL.SQVisibleBaseTime="0" explodedTracks="true" id="sequence-5">
		<rate>
			<timebase>24</timebase>
			<ntsc>TRUE</ntsc>
		</rate>
		<name>chrissy_love - synced</name>
		<duration>55871</duration>
		<media>
			<video>
				<format>
					<samplecharacteristics>
						<rate>
							<timebase>24</timebase>
							<ntsc>TRUE</ntsc>
						</rate>
						<codec>
						<name>Apple ProRes 422</name>
							<appspecificdata>
							<appname>Final Cut Pro</appname>
								<appmanufacturer>Apple Inc.</appmanufacturer>
								<appversion>7.0</appversion>
								<data>
								<qtcodec>
									<codecname>Apple ProRes 422</codecname>
										<codectypename>Apple ProRes 422</codectypename>
										<codectypecode>apcn</codectypecode>
										<codecvendorcode>appl</codecvendorcode>
										<spatialquality>1024</spatialquality>
										<temporalquality>0</temporalquality>
										<keyframerate>0</keyframerate>
										<datarate>0</datarate>
									</qtcodec>
								</data>
							</appspecificdata>
						</codec>
						<width>1920</width>
						<height>1080</height>
						<anamorphic>FALSE</anamorphic>
						<pixelaspectratio>square</pixelaspectratio>
						<fielddominance>none</fielddominance>
					</samplecharacteristics>
				</format>
				<track>
					<clipitem id="clipitem-S3-V1-1">
						<name>wiblo_1_2002-09-12_1410_C0017.mov</name>
						<enabled>TRUE</enabled>
						<duration>21079</duration>
						<rate>
							<timebase>24</timebase>
							<ntsc>TRUE</ntsc>
						</rate>
						<start>2466</start>
						<end>23545</end>
						<in>0</in>
						<out>21079</out>
						<file id="file-82">
							<name>wiblo_1_2002-09-12_1410_C0017.mov</name>
							<pathurl>/Volumes/tiesta/01_Footage/lilongwe/lilongwe 1/wiblo_1_2002-09-12_1410_C0017.mov</pathurl>
							<rate>
								<timebase>24</timebase>
								<ntsc>TRUE</ntsc>
							</rate>
							<duration>21079</duration>
							<timecode>
								<string>14:10:40:00</string>
								<displayformat>NDF</displayformat>
								<frame>1224960</frame>
								<rate>
									<timebase>24</timebase>
									<ntsc>TRUE</ntsc>
								</rate>
							</timecode>
							<media>
								<video>
									<samplecharacteristics>
										<rate>
											<timebase>24</timebase>
											<ntsc>TRUE</ntsc>
										</rate>
										<width>1920</width>
										<height>1080</height>
										<anamorphic>FALSE</anamorphic>
										<pixelaspectratio>square</pixelaspectratio>
										<fielddominance>none</fielddominance>
									</samplecharacteristics>
								</video>
								<audio>
									<samplecharacteristics>
										<depth>16</depth>
										<samplerate>48000</samplerate>
									</samplecharacteristics>
									<channelcount>2</channelcount>
								</audio>
							</media>
						</file>
						<link>
							<linkclipref>clipitem-S3-V1-1</linkclipref>
							<mediatype>video</mediatype>
							<trackindex>1</trackindex>
							<clipindex>1</clipindex>
						</link>
						<link>
							<linkclipref>clipitem-S3-A1-1</linkclipref>
							<mediatype>audio</mediatype>
							<trackindex>1</trackindex>
							<clipindex>1</clipindex>
							<groupindex>1</groupindex>
						</link>
						<link>
							<linkclipref>clipitem-S3-A2-1</linkclipref>
							<mediatype>audio</mediatype>
							<trackindex>2</trackindex>
							<clipindex>1</clipindex>
							<groupindex>1</groupindex>
						</link>
					</clipitem>
					<enabled>TRUE</enabled>
					<locked>FALSE</locked>
				</track>
				<track>
					<clipitem id="clipitem-S3-V2-1">
						<name>julian_1_2021-11-02_1017_C0112.mov</name>
						<enabled>TRUE</enabled>
						<duration>68</duration>
						<rate>
							<timebase>24</timebase>
							<ntsc>TRUE</ntsc>
						</rate>
						<start>0</start>
						<end>68</end>
						<in>0</in>
						<out>68</out>
						<file id="file-107">
							<name>julian_1_2021-11-02_1017_C0112.mov</name>
							<pathurl>/Volumes/tiesta/01_Footage/lilongwe/lilongwe 1/julian_1_2021-11-02_1017_C0112.mov</pathurl>
							<rate>
								<timebase>24</timebase>
								<ntsc>TRUE</ntsc>
							</rate>
							<duration>68</duration>
							<timecode>
								<string>10:17:40:00</string>
								<displayformat>NDF</displayformat>
								<frame>889440</frame>
								<rate>
									<timebase>24</timebase>
									<ntsc>TRUE</ntsc>
								</rate>
							</timecode>
							<media>
								<video>
									<samplecharacteristics>
										<rate>
											<timebase>24</timebase>
											<ntsc>TRUE</ntsc>
										</rate>
										<width>1920</width>
										<height>1080</height>
										<anamorphic>FALSE</anamorphic>
										<pixelaspectratio>square</pixelaspectratio>
										<fielddominance>none</fielddominance>
									</samplecharacteristics>
								</video>
								<audio>
									<samplecharacteristics>
										<depth>16</depth>
										<samplerate>48000</samplerate>
									</samplecharacteristics>
									<channelcount>2</channelcount>
								</audio>
							</media>
						</file>
						<link>
							<linkclipref>clipitem-S3-V2-1</linkclipref>
							<mediatype>video</mediatype>
							<trackindex>2</trackindex>
							<clipindex>1</clipindex>
						</link>
						<link>
							<linkclipref>clipitem-S3-A3-1</linkclipref>
							<mediatype>audio</mediatype>
							<trackindex>3</trackindex>
							<clipindex>1</clipindex>
							<groupindex>1</groupindex>
						</link>
						<link>
							<linkclipref>clipitem-S3-A4-1</linkclipref>
							<mediatype>audio</mediatype>
							<trackindex>4</trackindex>
							<clipindex>1</clipindex>
							<groupindex>1</groupindex>
						</link>
						<labels>
							<label2>Rose</label2>
						</labels>
					</clipitem>
					<clipitem id="clipitem-S3-V2-2">
						<name>julian_1_2021-11-02_1018_C0114.mov</name>
						<enabled>TRUE</enabled>
						<duration>116</duration>
						<rate>
							<timebase>24</timebase>
							<ntsc>TRUE</ntsc>
						</rate>
						<start>68</start>
						<end>183</end>
						<in>1</in>
						<out>116</out>
						<file id="file-108">
							<name>julian_1_2021-11-02_1018_C0114.mov</name>
							<pathurl>/Volumes/tiesta/01_Footage/lilongwe/lilongwe 1/julian_1_2021-11-02_1018_C0114.mov</pathurl>
							<rate>
								<timebase>24</timebase>
								<ntsc>TRUE</ntsc>
							</rate>
							<duration>116</duration>
							<timecode>
								<string>10:18:08:00</string>
								<displayformat>NDF</displayformat>
								<frame>890112</frame>
								<rate>
									<timebase>24</timebase>
									<ntsc>TRUE</ntsc>
								</rate>
							</timecode>
							<media>
								<video>
									<samplecharacteristics>
										<rate>
											<timebase>24</timebase>
											<ntsc>TRUE</ntsc>
										</rate>
										<width>1920</width>
										<height>1080</height>
										<anamorphic>FALSE</anamorphic>
										<pixelaspectratio>square</pixelaspectratio>
										<fielddominance>none</fielddominance>
									</samplecharacteristics>
								</video>
								<audio>
									<samplecharacteristics>
										<depth>16</depth>
										<samplerate>48000</samplerate>
									</samplecharacteristics>
									<channelcount>2</channelcount>
								</audio>
							</media>
						</file>
						<link>
							<linkclipref>clipitem-S3-V2-2</linkclipref>
							<mediatype>video</mediatype>
							<trackindex>2</trackindex>
							<clipindex>2</clipindex>
						</link>
						<link>
							<linkclipref>clipitem-S3-A3-2</linkclipref>
							<mediatype>audio</mediatype>
							<trackindex>3</trackindex>
							<clipindex>2</clipindex>
							<groupindex>1</groupindex>
						</link>
						<link>
							<linkclipref>clipitem-S3-A4-2</linkclipref>
							<mediatype>audio</mediatype>
							<trackindex>4</trackindex>
							<clipindex>2</clipindex>
							<groupindex>1</groupindex>
						</link>
						<labels>
							<label2>Rose</label2>
						</labels>
					</clipitem>
					<clipitem id="clipitem-S3-V2-3">
						<name>julian_1_2021-11-02_1018_C0115.mov</name>
						<enabled>TRUE</enabled>
						<duration>91</duration>
						<rate>
							<timebase>24</timebase>
							<ntsc>TRUE</ntsc>
						</rate>
						<start>183</start>
						<end>273</end>
						<in>1</in>
						<out>91</out>
						<file id="file-109">
							<name>julian_1_2021-11-02_1018_C0115.mov</name>
							<pathurl>/Volumes/tiesta/01_Footage/lilongwe/lilongwe 1/julian_1_2021-11-02_1018_C0115.mov</pathurl>
							<rate>
								<timebase>24</timebase>
								<ntsc>TRUE</ntsc>
							</rate>
							<duration>91</duration>
							<timecode>
								<string>10:18:24:00</string>
								<displayformat>NDF</displayformat>
								<frame>890496</frame>
								<rate>
									<timebase>24</timebase>
									<ntsc>TRUE</ntsc>
								</rate>
							</timecode>
							<media>
								<video>
									<samplecharacteristics>
										<rate>
											<timebase>24</timebase>
											<ntsc>TRUE</ntsc>
										</rate>
										<width>1920</width>
										<height>1080</height>
										<anamorphic>FALSE</anamorphic>
										<pixelaspectratio>square</pixelaspectratio>
										<fielddominance>none</fielddominance>
									</samplecharacteristics>
								</video>
								<audio>
									<samplecharacteristics>
										<depth>16</depth>
										<samplerate>48000</samplerate>
									</samplecharacteristics>
									<channelcount>2</channelcount>
								</audio>
							</media>
						</file>
						<link>
							<linkclipref>clipitem-S3-V2-3</linkclipref>
							<mediatype>video</mediatype>
							<trackindex>2</trackindex>
							<clipindex>3</clipindex>
						</link>
						<link>
							<linkclipref>clipitem-S3-A3-3</linkclipref>
							<mediatype>audio</mediatype>
							<trackindex>3</trackindex>
							<clipindex>3</clipindex>
							<groupindex>1</groupindex>
						</link>
						<link>
							<linkclipref>clipitem-S3-A4-3</linkclipref>
							<mediatype>audio</mediatype>
							<trackindex>4</trackindex>
							<clipindex>3</clipindex>
							<groupindex>1</groupindex>
						</link>
						<labels>
							<label2>Rose</label2>
						</labels>
					</clipitem>
					<clipitem id="clipitem-S3-V2-4">
						<name>julian_1_2021-11-02_1024_C0129.mov</name>
						<enabled>TRUE</enabled>
						<duration>77</duration>
						<rate>
							<timebase>24</timebase>
							<ntsc>TRUE</ntsc>
						</rate>
						<start>273</start>
						<end>349</end>
						<in>1</in>
						<out>77</out>
						<file id="file-110">
							<name>julian_1_2021-11-02_1024_C0129.mov</name>
							<pathurl>/Volumes/tiesta/01_Footage/lilongwe/lilongwe 1/julian_1_2021-11-02_1024_C0129.mov</pathurl>
							<rate>
								<timebase>24</timebase>
								<ntsc>TRUE</ntsc>
							</rate>
							<duration>77</duration>
							<timecode>
								<string>10:24:54:00</string>
								<displayformat>NDF</displayformat>
								<frame>899856</frame>
								<rate>
									<timebase>24</timebase>
									<ntsc>TRUE</ntsc>
								</rate>
							</timecode>
							<media>
								<video>
									<samplecharacteristics>
										<rate>
											<timebase>24</timebase>
											<ntsc>TRUE</ntsc>
										</rate>
										<width>1920</width>
										<height>1080</height>
										<anamorphic>FALSE</anamorphic>
										<pixelaspectratio>square</pixelaspectratio>
										<fielddominance>none</fielddominance>
									</samplecharacteristics>
								</video>
								<audio>
									<samplecharacteristics>
										<depth>16</depth>
										<samplerate>48000</samplerate>
									</samplecharacteristics>
									<channelcount>2</channelcount>
								</audio>
							</media>
						</file>
						<link>
							<linkclipref>clipitem-S3-V2-4</linkclipref>
							<mediatype>video</mediatype>
							<trackindex>2</trackindex>
							<clipindex>4</clipindex>
						</link>
						<link>
							<linkclipref>clipitem-S3-A3-4</linkclipref>
							<mediatype>audio</mediatype>
							<trackindex>3</trackindex>
							<clipindex>4</clipindex>
							<groupindex>1</groupindex>
						</link>
						<link>
							<linkclipref>clipitem-S3-A4-4</linkclipref>
							<mediatype>audio</mediatype>
							<trackindex>4</trackindex>
							<clipindex>4</clipindex>
							<groupindex>1</groupindex>
						</link>
						<labels>
							<label2>Rose</label2>
						</labels>
					</clipitem>
					<clipitem id="clipitem-S3-V2-5">
						<name>julian_1_2021-11-02_1025_C0130.mov</name>
						<enabled>TRUE</enabled>
						<duration>135</duration>
						<rate>
							<timebase>24</timebase>
							<ntsc>TRUE</ntsc>
						</rate>
						<start>349</start>
						<end>483</end>
						<in>1</in>
						<out>135</out>
						<file id="file-111">
							<name>julian_1_2021-11-02_1025_C0130.mov</name>
							<pathurl>/Volumes/tiesta/01_Footage/lilongwe/lilongwe 1/julian_1_2021-11-02_1025_C0130.mov</pathurl>
							<rate>
								<timebase>24</timebase>
								<ntsc>TRUE</ntsc>
							</rate>
							<duration>135</duration>
							<timecode>
								<string>10:25:08:00</string>
								<displayformat>NDF</displayformat>
								<frame>900192</frame>
								<rate>
									<timebase>24</timebase>
									<ntsc>TRUE</ntsc>
								</rate>
							</timecode>
							<media>
								<video>
									<samplecharacteristics>
										<rate>
											<timebase>24</timebase>
											<ntsc>TRUE</ntsc>
										</rate>
										<width>1920</width>
										<height>1080</height>
										<anamorphic>FALSE</anamorphic>
										<pixelaspectratio>square</pixelaspectratio>
										<fielddominance>none</fielddominance>
									</samplecharacteristics>
								</video>
								<audio>
									<samplecharacteristics>
										<depth>16</depth>
										<samplerate>48000</samplerate>
									</samplecharacteristics>
									<channelcount>2</channelcount>
								</audio>
							</media>
						</file>
						<link>
							<linkclipref>clipitem-S3-V2-5</linkclipref>
							<mediatype>video</mediatype>
							<trackindex>2</trackindex>
							<clipindex>5</clipindex>
						</link>
						<link>
							<linkclipref>clipitem-S3-A3-5</linkclipref>
							<mediatype>audio</mediatype>
							<trackindex>3</trackindex>
							<clipindex>5</clipindex>
							<groupindex>1</groupindex>
						</link>
						<link>
							<linkclipref>clipitem-S3-A4-5</linkclipref>
							<mediatype>audio</mediatype>
							<trackindex>4</trackindex>
							<clipindex>5</clipindex>
							<groupindex>1</groupindex>
						</link>
						<labels>
							<label2>Rose</label2>
						</labels>
					</clipitem>
					<clipitem id="clipitem-S3-V2-6">
						<name>julian_1_2021-11-02_1106_C0135.mov</name>
						<enabled>TRUE</enabled>
						<duration>279</duration>
						<rate>
							<timebase>24</timebase>
							<ntsc>TRUE</ntsc>
						</rate>
						<start>483</start>
						<end>761</end>
						<in>1</in>
						<out>279</out>
						<file id="file-112">
							<name>julian_1_2021-11-02_1106_C0135.mov</name>
							<pathurl>/Volumes/tiesta/01_Footage/lilongwe/lilongwe 1/julian_1_2021-11-02_1106_C0135.mov</pathurl>
							<rate>
								<timebase>24</timebase>
								<ntsc>TRUE</ntsc>
							</rate>
							<duration>279</duration>
							<timecode>
								<string>11:06:33:00</string>
								<displayformat>NDF</displayformat>
								<frame>959832</frame>
								<rate>
									<timebase>24</timebase>
									<ntsc>TRUE</ntsc>
								</rate>
							</timecode>
							<media>
								<video>
									<samplecharacteristics>
										<rate>
											<timebase>24</timebase>
											<ntsc>TRUE</ntsc>
										</rate>
										<width>1920</width>
										<height>1080</height>
										<anamorphic>FALSE</anamorphic>
										<pixelaspectratio>square</pixelaspectratio>
										<fielddominance>none</fielddominance>
									</samplecharacteristics>
								</video>
								<audio>
									<samplecharacteristics>
										<depth>16</depth>
										<samplerate>48000</samplerate>
									</samplecharacteristics>
									<channelcount>2</channelcount>
								</audio>
							</media>
						</file>
						<link>
							<linkclipref>clipitem-S3-V2-6</linkclipref>
							<mediatype>video</mediatype>
							<trackindex>2</trackindex>
							<clipindex>6</clipindex>
						</link>
						<link>
							<linkclipref>clipitem-S3-A3-6</linkclipref>
							<mediatype>audio</mediatype>
							<trackindex>3</trackindex>
							<clipindex>6</clipindex>
							<groupindex>1</groupindex>
						</link>
						<link>
							<linkclipref>clipitem-S3-A4-6</linkclipref>
							<mediatype>audio</mediatype>
							<trackindex>4</trackindex>
							<clipindex>6</clipindex>
							<groupindex>1</groupindex>
						</link>
						<labels>
							<label2>Rose</label2>
						</labels>
					</clipitem>
					<clipitem id="clipitem-S3-V2-7">
						<name>julian_1_2021-11-02_1106_C0136.mov</name>
						<enabled>TRUE</enabled>
						<duration>506</duration>
						<rate>
							<timebase>24</timebase>
							<ntsc>TRUE</ntsc>
						</rate>
						<start>761</start>
						<end>1266</end>
						<in>1</in>
						<out>506</out>
						<file id="file-113">
							<name>julian_1_2021-11-02_1106_C0136.mov</name>
							<pathurl>/Volumes/tiesta/01_Footage/lilongwe/lilongwe 1/julian_1_2021-11-02_1106_C0136.mov</pathurl>
							<rate>
								<timebase>24</timebase>
								<ntsc>TRUE</ntsc>
							</rate>
							<duration>506</duration>
							<timecode>
								<string>11:06:47:00</string>
								<displayformat>NDF</displayformat>
								<frame>960168</frame>
								<rate>
									<timebase>24</timebase>
									<ntsc>TRUE</ntsc>
								</rate>
							</timecode>
							<media>
								<video>
									<samplecharacteristics>
										<rate>
											<timebase>24</timebase>
											<ntsc>TRUE</ntsc>
										</rate>
										<width>1920</width>
										<height>1080</height>
										<anamorphic>FALSE</anamorphic>
										<pixelaspectratio>square</pixelaspectratio>
										<fielddominance>none</fielddominance>
									</samplecharacteristics>
								</video>
								<audio>
									<samplecharacteristics>
										<depth>16</depth>
										<samplerate>48000</samplerate>
									</samplecharacteristics>
									<channelcount>2</channelcount>
								</audio>
							</media>
						</file>
						<link>
							<linkclipref>clipitem-S3-V2-7</linkclipref>
							<mediatype>video</mediatype>
							<trackindex>2</trackindex>
							<clipindex>7</clipindex>
						</link>
						<link>
							<linkclipref>clipitem-S3-A3-7</linkclipref>
							<mediatype>audio</mediatype>
							<trackindex>3</trackindex>
							<clipindex>7</clipindex>
							<groupindex>1</groupindex>
						</link>
						<link>
							<linkclipref>clipitem-S3-A4-7</linkclipref>
							<mediatype>audio</mediatype>
							<trackindex>4</trackindex>
							<clipindex>7</clipindex>
							<groupindex>1</groupindex>
						</link>
						<labels>
							<label2>Rose</label2>
						</labels>
					</clipitem>
					<clipitem id="clipitem-S3-V2-8">
						<name>julian_1_2021-11-02_1107_C0137.mov</name>
						<enabled>TRUE</enabled>
						<duration>421</duration>
						<rate>
							<timebase>24</timebase>
							<ntsc>TRUE</ntsc>
						</rate>
						<start>1266</start>
						<end>1686</end>
						<in>1</in>
						<out>421</out>
						<file id="file-114">
							<name>julian_1_2021-11-02_1107_C0137.mov</name>
							<pathurl>/Volumes/tiesta/01_Footage/lilongwe/lilongwe 1/julian_1_2021-11-02_1107_C0137.mov</pathurl>
							<rate>
								<timebase>24</timebase>
								<ntsc>TRUE</ntsc>
							</rate>
							<duration>421</duration>
							<timecode>
								<string>11:07:09:00</string>
								<displayformat>NDF</displayformat>
								<frame>960696</frame>
								<rate>
									<timebase>24</timebase>
									<ntsc>TRUE</ntsc>
								</rate>
							</timecode>
							<media>
								<video>
									<samplecharacteristics>
										<rate>
											<timebase>24</timebase>
											<ntsc>TRUE</ntsc>
										</rate>
										<width>1920</width>
										<height>1080</height>
										<anamorphic>FALSE</anamorphic>
										<pixelaspectratio>square</pixelaspectratio>
										<fielddominance>none</fielddominance>
									</samplecharacteristics>
								</video>
								<audio>
									<samplecharacteristics>
										<depth>16</depth>
										<samplerate>48000</samplerate>
									</samplecharacteristics>
									<channelcount>2</channelcount>
								</audio>
							</media>
						</file>
						<link>
							<linkclipref>clipitem-S3-V2-8</linkclipref>
							<mediatype>video</mediatype>
							<trackindex>2</trackindex>
							<clipindex>8</clipindex>
						</link>
						<link>
							<linkclipref>clipitem-S3-A3-8</linkclipref>
							<mediatype>audio</mediatype>
							<trackindex>3</trackindex>
							<clipindex>8</clipindex>
							<groupindex>1</groupindex>
						</link>
						<link>
							<linkclipref>clipitem-S3-A4-8</linkclipref>
							<mediatype>audio</mediatype>
							<trackindex>4</trackindex>
							<clipindex>8</clipindex>
							<groupindex>1</groupindex>
						</link>
						<labels>
							<label2>Rose</label2>
						</labels>
					</clipitem>
					<clipitem id="clipitem-S3-V2-9">
						<name>julian_1_2021-11-02_1108_C0138.mov</name>
						<enabled>TRUE</enabled>
						<duration>78</duration>
						<rate>
							<timebase>24</timebase>
							<ntsc>TRUE</ntsc>
						</rate>
						<start>1686</start>
						<end>1763</end>
						<in>1</in>
						<out>78</out>
						<file id="file-115">
							<name>julian_1_2021-11-02_1108_C0138.mov</name>
							<pathurl>/Volumes/tiesta/01_Footage/lilongwe/lilongwe 1/julian_1_2021-11-02_1108_C0138.mov</pathurl>
							<rate>
								<timebase>24</timebase>
								<ntsc>TRUE</ntsc>
							</rate>
							<duration>78</duration>
							<timecode>
								<string>11:08:09:00</string>
								<displayformat>NDF</displayformat>
								<frame>962136</frame>
								<rate>
									<timebase>24</timebase>
									<ntsc>TRUE</ntsc>
								</rate>
							</timecode>
							<media>
								<video>
									<samplecharacteristics>
										<rate>
											<timebase>24</timebase>
											<ntsc>TRUE</ntsc>
										</rate>
										<width>1920</width>
										<height>1080</height>
										<anamorphic>FALSE</anamorphic>
										<pixelaspectratio>square</pixelaspectratio>
										<fielddominance>none</fielddominance>
									</samplecharacteristics>
								</video>
								<audio>
									<samplecharacteristics>
										<depth>16</depth>
										<samplerate>48000</samplerate>
									</samplecharacteristics>
									<channelcount>2</channelcount>
								</audio>
							</media>
						</file>
						<link>
							<linkclipref>clipitem-S3-V2-9</linkclipref>
							<mediatype>video</mediatype>
							<trackindex>2</trackindex>
							<clipindex>9</clipindex>
						</link>
						<link>
							<linkclipref>clipitem-S3-A3-9</linkclipref>
							<mediatype>audio</mediatype>
							<trackindex>3</trackindex>
							<clipindex>9</clipindex>
							<groupindex>1</groupindex>
						</link>
						<link>
							<linkclipref>clipitem-S3-A4-9</linkclipref>
							<mediatype>audio</mediatype>
							<trackindex>4</trackindex>
							<clipindex>9</clipindex>
							<groupindex>1</groupindex>
						</link>
						<labels>
							<label2>Rose</label2>
						</labels>
					</clipitem>
					<clipitem id="clipitem-S3-V2-10">
						<name>julian_1_2021-11-03_0642_C0178.mov</name>
						<enabled>TRUE</enabled>
						<duration>207</duration>
						<rate>
							<timebase>24</timebase>
							<ntsc>TRUE</ntsc>
						</rate>
						<start>1763</start>
						<end>1969</end>
						<in>1</in>
						<out>207</out>
						<file id="file-116">
							<name>julian_1_2021-11-03_0642_C0178.mov</name>
							<pathurl>/Volumes/tiesta/01_Footage/lilongwe/lilongwe 1/julian_1_2021-11-03_0642_C0178.mov</pathurl>
							<rate>
								<timebase>24</timebase>
								<ntsc>TRUE</ntsc>
							</rate>
							<duration>207</duration>
							<timecode>
								<string>06:42:22:00</string>
								<displayformat>NDF</displayformat>
								<frame>579408</frame>
								<rate>
									<timebase>24</timebase>
									<ntsc>TRUE</ntsc>
								</rate>
							</timecode>
							<media>
								<video>
									<samplecharacteristics>
										<rate>
											<timebase>24</timebase>
											<ntsc>TRUE</ntsc>
										</rate>
										<width>1920</width>
										<height>1080</height>
										<anamorphic>FALSE</anamorphic>
										<pixelaspectratio>square</pixelaspectratio>
										<fielddominance>none</fielddominance>
									</samplecharacteristics>
								</video>
								<audio>
									<samplecharacteristics>
										<depth>16</depth>
										<samplerate>48000</samplerate>
									</samplecharacteristics>
									<channelcount>2</channelcount>
								</audio>
							</media>
						</file>
						<link>
							<linkclipref>clipitem-S3-V2-10</linkclipref>
							<mediatype>video</mediatype>
							<trackindex>2</trackindex>
							<clipindex>10</clipindex>
						</link>
						<link>
							<linkclipref>clipitem-S3-A3-10</linkclipref>
							<mediatype>audio</mediatype>
							<trackindex>3</trackindex>
							<clipindex>10</clipindex>
							<groupindex>1</groupindex>
						</link>
						<link>
							<linkclipref>clipitem-S3-A4-10</linkclipref>
							<mediatype>audio</mediatype>
							<trackindex>4</trackindex>
							<clipindex>10</clipindex>
							<groupindex>1</groupindex>
						</link>
						<labels>
							<label2>Rose</label2>
						</labels>
					</clipitem>
					<clipitem id="clipitem-S3-V2-11">
						<name>julian_1_2021-11-03_0642_C0179.mov</name>
						<enabled>TRUE</enabled>
						<duration>182</duration>
						<rate>
							<timebase>24</timebase>
							<ntsc>TRUE</ntsc>
						</rate>
						<start>1969</start>
						<end>2150</end>
						<in>1</in>
						<out>182</out>
						<file id="file-117">
							<name>julian_1_2021-11-03_0642_C0179.mov</name>
							<pathurl>/Volumes/tiesta/01_Footage/lilongwe/lilongwe 1/julian_1_2021-11-03_0642_C0179.mov</pathurl>
							<rate>
								<timebase>24</timebase>
								<ntsc>TRUE</ntsc>
							</rate>
							<duration>182</duration>
							<timecode>
								<string>06:42:41:00</string>
								<displayformat>NDF</displayformat>
								<frame>579864</frame>
								<rate>
									<timebase>24</timebase>
									<ntsc>TRUE</ntsc>
								</rate>
							</timecode>
							<media>
								<video>
									<samplecharacteristics>
										<rate>
											<timebase>24</timebase>
											<ntsc>TRUE</ntsc>
										</rate>
										<width>1920</width>
										<height>1080</height>
										<anamorphic>FALSE</anamorphic>
										<pixelaspectratio>square</pixelaspectratio>
										<fielddominance>none</fielddominance>
									</samplecharacteristics>
								</video>
								<audio>
									<samplecharacteristics>
										<depth>16</depth>
										<samplerate>48000</samplerate>
									</samplecharacteristics>
									<channelcount>2</channelcount>
								</audio>
							</media>
						</file>
						<link>
							<linkclipref>clipitem-S3-V2-11</linkclipref>
							<mediatype>video</mediatype>
							<trackindex>2</trackindex>
							<clipindex>11</clipindex>
						</link>
						<link>
							<linkclipref>clipitem-S3-A3-11</linkclipref>
							<mediatype>audio</mediatype>
							<trackindex>3</trackindex>
							<clipindex>11</clipindex>
							<groupindex>1</groupindex>
						</link>
						<link>
							<linkclipref>clipitem-S3-A4-11</linkclipref>
							<mediatype>audio</mediatype>
							<trackindex>4</trackindex>
							<clipindex>11</clipindex>
							<groupindex>1</groupindex>
						</link>
						<labels>
							<label2>Rose</label2>
						</labels>
					</clipitem>
					<clipitem id="clipitem-S3-V2-12">
						<name>julian_1_2021-11-03_1040_C0004.mov</name>
						<enabled>TRUE</enabled>
						<duration>292</duration>
						<rate>
							<timebase>24</timebase>
							<ntsc>TRUE</ntsc>
						</rate>
						<start>6568</start>
						<end>6860</end>
						<in>0</in>
						<out>292</out>
						<file id="file-83">
							<name>julian_1_2021-11-03_1040_C0004.mov</name>
							<pathurl>/Volumes/tiesta/01_Footage/lilongwe/lilongwe 1/julian_1_2021-11-03_1040_C0004.mov</pathurl>
							<rate>
								<timebase>24</timebase>
								<ntsc>TRUE</ntsc>
							</rate>
							<duration>292</duration>
							<timecode>
								<string>10:40:04:00</string>
								<displayformat>NDF</displayformat>
								<frame>921696</frame>
								<rate>
									<timebase>24</timebase>
									<ntsc>TRUE</ntsc>
								</rate>
							</timecode>
							<media>
								<video>
									<samplecharacteristics>
										<rate>
											<timebase>24</timebase>
											<ntsc>TRUE</ntsc>
										</rate>
										<width>1920</width>
										<height>1080</height>
										<anamorphic>FALSE</anamorphic>
										<pixelaspectratio>square</pixelaspectratio>
										<fielddominance>none</fielddominance>
									</samplecharacteristics>
								</video>
								<audio>
									<samplecharacteristics>
										<depth>16</depth>
										<samplerate>48000</samplerate>
									</samplecharacteristics>
									<channelcount>2</channelcount>
								</audio>
							</media>
						</file>
						<link>
							<linkclipref>clipitem-S3-V2-12</linkclipref>
							<mediatype>video</mediatype>
							<trackindex>2</trackindex>
							<clipindex>12</clipindex>
						</link>
						<link>
							<linkclipref>clipitem-S3-A3-12</linkclipref>
							<mediatype>audio</mediatype>
							<trackindex>3</trackindex>
							<clipindex>12</clipindex>
							<groupindex>1</groupindex>
						</link>
						<link>
							<linkclipref>clipitem-S3-A4-12</linkclipref>
							<mediatype>audio</mediatype>
							<trackindex>4</trackindex>
							<clipindex>12</clipindex>
							<groupindex>1</groupindex>
						</link>
					</clipitem>
					<clipitem id="clipitem-S3-V2-13">
						<name>julian_1_2021-11-03_1040_C0005.mov</name>
						<enabled>TRUE</enabled>
						<duration>318</duration>
						<rate>
							<timebase>24</timebase>
							<ntsc>TRUE</ntsc>
						</rate>
						<start>7276</start>
						<end>7594</end>
						<in>0</in>
						<out>318</out>
						<file id="file-84">
							<name>julian_1_2021-11-03_1040_C0005.mov</name>
							<pathurl>/Volumes/tiesta/01_Footage/lilongwe/lilongwe 1/julian_1_2021-11-03_1040_C0005.mov</pathurl>
							<rate>
								<timebase>24</timebase>
								<ntsc>TRUE</ntsc>
							</rate>
							<duration>318</duration>
							<timecode>
								<string>10:40:33:00</string>
								<displayformat>NDF</displayformat>
								<frame>922392</frame>
								<rate>
									<timebase>24</timebase>
									<ntsc>TRUE</ntsc>
								</rate>
							</timecode>
							<media>
								<video>
									<samplecharacteristics>
										<rate>
											<timebase>24</timebase>
											<ntsc>TRUE</ntsc>
										</rate>
										<width>1920</width>
										<height>1080</height>
										<anamorphic>FALSE</anamorphic>
										<pixelaspectratio>square</pixelaspectratio>
										<fielddominance>none</fielddominance>
									</samplecharacteristics>
								</video>
								<audio>
									<samplecharacteristics>
										<depth>16</depth>
										<samplerate>48000</samplerate>
									</samplecharacteristics>
									<channelcount>2</channelcount>
								</audio>
							</media>
						</file>
						<link>
							<linkclipref>clipitem-S3-V2-13</linkclipref>
							<mediatype>video</mediatype>
							<trackindex>2</trackindex>
							<clipindex>13</clipindex>
						</link>
						<link>
							<linkclipref>clipitem-S3-A3-13</linkclipref>
							<mediatype>audio</mediatype>
							<trackindex>3</trackindex>
							<clipindex>13</clipindex>
							<groupindex>1</groupindex>
						</link>
						<link>
							<linkclipref>clipitem-S3-A4-13</linkclipref>
							<mediatype>audio</mediatype>
							<trackindex>4</trackindex>
							<clipindex>13</clipindex>
							<groupindex>1</groupindex>
						</link>
					</clipitem>
					<clipitem id="clipitem-S3-V2-14">
						<name>julian_1_2021-11-03_1040_C0006.mov</name>
						<enabled>TRUE</enabled>
						<duration>404</duration>
						<rate>
							<timebase>24</timebase>
							<ntsc>TRUE</ntsc>
						</rate>
						<start>7890</start>
						<end>8294</end>
						<in>0</in>
						<out>404</out>
						<file id="file-85">
							<name>julian_1_2021-11-03_1040_C0006.mov</name>
							<pathurl>/Volumes/tiesta/01_Footage/lilongwe/lilongwe 1/julian_1_2021-11-03_1040_C0006.mov</pathurl>
							<rate>
								<timebase>24</timebase>
								<ntsc>TRUE</ntsc>
							</rate>
							<duration>404</duration>
							<timecode>
								<string>10:40:59:00</string>
								<displayformat>NDF</displayformat>
								<frame>923016</frame>
								<rate>
									<timebase>24</timebase>
									<ntsc>TRUE</ntsc>
								</rate>
							</timecode>
							<media>
								<video>
									<samplecharacteristics>
										<rate>
											<timebase>24</timebase>
											<ntsc>TRUE</ntsc>
										</rate>
										<width>1920</width>
										<height>1080</height>
										<anamorphic>FALSE</anamorphic>
										<pixelaspectratio>square</pixelaspectratio>
										<fielddominance>none</fielddominance>
									</samplecharacteristics>
								</video>
								<audio>
									<samplecharacteristics>
										<depth>16</depth>
										<samplerate>48000</samplerate>
									</samplecharacteristics>
									<channelcount>2</channelcount>
								</audio>
							</media>
						</file>
						<link>
							<linkclipref>clipitem-S3-V2-14</linkclipref>
							<mediatype>video</mediatype>
							<trackindex>2</trackindex>
							<clipindex>14</clipindex>
						</link>
						<link>
							<linkclipref>clipitem-S3-A3-14</linkclipref>
							<mediatype>audio</mediatype>
							<trackindex>3</trackindex>
							<clipindex>14</clipindex>
							<groupindex>1</groupindex>
						</link>
						<link>
							<linkclipref>clipitem-S3-A4-14</linkclipref>
							<mediatype>audio</mediatype>
							<trackindex>4</trackindex>
							<clipindex>14</clipindex>
							<groupindex>1</groupindex>
						</link>
					</clipitem>
					<clipitem id="clipitem-S3-V2-15">
						<name>julian_1_2021-11-03_1041_C0007.mov</name>
						<enabled>TRUE</enabled>
						<duration>471</duration>
						<rate>
							<timebase>24</timebase>
							<ntsc>TRUE</ntsc>
						</rate>
						<start>9134</start>
						<end>9605</end>
						<in>0</in>
						<out>471</out>
						<file id="file-86">
							<name>julian_1_2021-11-03_1041_C0007.mov</name>
							<pathurl>/Volumes/tiesta/01_Footage/lilongwe/lilongwe 1/julian_1_2021-11-03_1041_C0007.mov</pathurl>
							<rate>
								<timebase>24</timebase>
								<ntsc>TRUE</ntsc>
							</rate>
							<duration>471</duration>
							<timecode>
								<string>10:41:50:00</string>
								<displayformat>NDF</displayformat>
								<frame>924240</frame>
								<rate>
									<timebase>24</timebase>
									<ntsc>TRUE</ntsc>
								</rate>
							</timecode>
							<media>
								<video>
									<samplecharacteristics>
										<rate>
											<timebase>24</timebase>
											<ntsc>TRUE</ntsc>
										</rate>
										<width>1920</width>
										<height>1080</height>
										<anamorphic>FALSE</anamorphic>
										<pixelaspectratio>square</pixelaspectratio>
										<fielddominance>none</fielddominance>
									</samplecharacteristics>
								</video>
								<audio>
									<samplecharacteristics>
										<depth>16</depth>
										<samplerate>48000</samplerate>
									</samplecharacteristics>
									<channelcount>2</channelcount>
								</audio>
							</media>
						</file>
						<link>
							<linkclipref>clipitem-S3-V2-15</linkclipref>
							<mediatype>video</mediatype>
							<trackindex>2</trackindex>
							<clipindex>15</clipindex>
						</link>
						<link>
							<linkclipref>clipitem-S3-A3-15</linkclipref>
							<mediatype>audio</mediatype>
							<trackindex>3</trackindex>
							<clipindex>15</clipindex>
							<groupindex>1</groupindex>
						</link>
						<link>
							<linkclipref>clipitem-S3-A4-15</linkclipref>
							<mediatype>audio</mediatype>
							<trackindex>4</trackindex>
							<clipindex>15</clipindex>
							<groupindex>1</groupindex>
						</link>
					</clipitem>
					<clipitem id="clipitem-S3-V2-16">
						<name>julian_1_2021-11-03_1042_C0008.mov</name>
						<enabled>TRUE</enabled>
						<duration>1135</duration>
						<rate>
							<timebase>24</timebase>
							<ntsc>TRUE</ntsc>
						</rate>
						<start>10387</start>
						<end>11522</end>
						<in>0</in>
						<out>1135</out>
						<file id="file-87">
							<name>julian_1_2021-11-03_1042_C0008.mov</name>
							<pathurl>/Volumes/tiesta/01_Footage/lilongwe/lilongwe 1/julian_1_2021-11-03_1042_C0008.mov</pathurl>
							<rate>
								<timebase>24</timebase>
								<ntsc>TRUE</ntsc>
							</rate>
							<duration>1135</duration>
							<timecode>
								<string>10:42:43:00</string>
								<displayformat>NDF</displayformat>
								<frame>925512</frame>
								<rate>
									<timebase>24</timebase>
									<ntsc>TRUE</ntsc>
								</rate>
							</timecode>
							<media>
								<video>
									<samplecharacteristics>
										<rate>
											<timebase>24</timebase>
											<ntsc>TRUE</ntsc>
										</rate>
										<width>1920</width>
										<height>1080</height>
										<anamorphic>FALSE</anamorphic>
										<pixelaspectratio>square</pixelaspectratio>
										<fielddominance>none</fielddominance>
									</samplecharacteristics>
								</video>
								<audio>
									<samplecharacteristics>
										<depth>16</depth>
										<samplerate>48000</samplerate>
									</samplecharacteristics>
									<channelcount>2</channelcount>
								</audio>
							</media>
						</file>
						<link>
							<linkclipref>clipitem-S3-V2-16</linkclipref>
							<mediatype>video</mediatype>
							<trackindex>2</trackindex>
							<clipindex>16</clipindex>
						</link>
						<link>
							<linkclipref>clipitem-S3-A3-16</linkclipref>
							<mediatype>audio</mediatype>
							<trackindex>3</trackindex>
							<clipindex>16</clipindex>
							<groupindex>1</groupindex>
						</link>
						<link>
							<linkclipref>clipitem-S3-A4-16</linkclipref>
							<mediatype>audio</mediatype>
							<trackindex>4</trackindex>
							<clipindex>16</clipindex>
							<groupindex>1</groupindex>
						</link>
					</clipitem>
					<clipitem id="clipitem-S3-V2-17">
						<name>julian_1_2021-11-03_1043_C0009.mov</name>
						<enabled>TRUE</enabled>
						<duration>2523</duration>
						<rate>
							<timebase>24</timebase>
							<ntsc>TRUE</ntsc>
						</rate>
						<start>12130</start>
						<end>14653</end>
						<in>0</in>
						<out>2523</out>
						<file id="file-88">
							<name>julian_1_2021-11-03_1043_C0009.mov</name>
							<pathurl>/Volumes/tiesta/01_Footage/lilongwe/lilongwe 1/julian_1_2021-11-03_1043_C0009.mov</pathurl>
							<rate>
								<timebase>24</timebase>
								<ntsc>TRUE</ntsc>
							</rate>
							<duration>2523</duration>
							<timecode>
								<string>10:43:56:00</string>
								<displayformat>NDF</displayformat>
								<frame>927264</frame>
								<rate>
									<timebase>24</timebase>
									<ntsc>TRUE</ntsc>
								</rate>
							</timecode>
							<media>
								<video>
									<samplecharacteristics>
										<rate>
											<timebase>24</timebase>
											<ntsc>TRUE</ntsc>
										</rate>
										<width>1920</width>
										<height>1080</height>
										<anamorphic>FALSE</anamorphic>
										<pixelaspectratio>square</pixelaspectratio>
										<fielddominance>none</fielddominance>
									</samplecharacteristics>
								</video>
								<audio>
									<samplecharacteristics>
										<depth>16</depth>
										<samplerate>48000</samplerate>
									</samplecharacteristics>
									<channelcount>2</channelcount>
								</audio>
							</media>
						</file>
						<link>
							<linkclipref>clipitem-S3-V2-17</linkclipref>
							<mediatype>video</mediatype>
							<trackindex>2</trackindex>
							<clipindex>17</clipindex>
						</link>
						<link>
							<linkclipref>clipitem-S3-A3-17</linkclipref>
							<mediatype>audio</mediatype>
							<trackindex>3</trackindex>
							<clipindex>17</clipindex>
							<groupindex>1</groupindex>
						</link>
						<link>
							<linkclipref>clipitem-S3-A4-17</linkclipref>
							<mediatype>audio</mediatype>
							<trackindex>4</trackindex>
							<clipindex>17</clipindex>
							<groupindex>1</groupindex>
						</link>
					</clipitem>
					<clipitem id="clipitem-S3-V2-18">
						<name>julian_1_2021-11-03_1045_C0010.mov</name>
						<enabled>TRUE</enabled>
						<duration>888</duration>
						<rate>
							<timebase>24</timebase>
							<ntsc>TRUE</ntsc>
						</rate>
						<start>14986</start>
						<end>15874</end>
						<in>0</in>
						<out>888</out>
						<file id="file-89">
							<name>julian_1_2021-11-03_1045_C0010.mov</name>
							<pathurl>/Volumes/tiesta/01_Footage/lilongwe/lilongwe 1/julian_1_2021-11-03_1045_C0010.mov</pathurl>
							<rate>
								<timebase>24</timebase>
								<ntsc>TRUE</ntsc>
							</rate>
							<duration>888</duration>
							<timecode>
								<string>10:45:55:00</string>
								<displayformat>NDF</displayformat>
								<frame>930120</frame>
								<rate>
									<timebase>24</timebase>
									<ntsc>TRUE</ntsc>
								</rate>
							</timecode>
							<media>
								<video>
									<samplecharacteristics>
										<rate>
											<timebase>24</timebase>
											<ntsc>TRUE</ntsc>
										</rate>
										<width>1920</width>
										<height>1080</height>
										<anamorphic>FALSE</anamorphic>
										<pixelaspectratio>square</pixelaspectratio>
										<fielddominance>none</fielddominance>
									</samplecharacteristics>
								</video>
								<audio>
									<samplecharacteristics>
										<depth>16</depth>
										<samplerate>48000</samplerate>
									</samplecharacteristics>
									<channelcount>2</channelcount>
								</audio>
							</media>
						</file>
						<link>
							<linkclipref>clipitem-S3-V2-18</linkclipref>
							<mediatype>video</mediatype>
							<trackindex>2</trackindex>
							<clipindex>18</clipindex>
						</link>
						<link>
							<linkclipref>clipitem-S3-A3-18</linkclipref>
							<mediatype>audio</mediatype>
							<trackindex>3</trackindex>
							<clipindex>18</clipindex>
							<groupindex>1</groupindex>
						</link>
						<link>
							<linkclipref>clipitem-S3-A4-18</linkclipref>
							<mediatype>audio</mediatype>
							<trackindex>4</trackindex>
							<clipindex>18</clipindex>
							<groupindex>1</groupindex>
						</link>
					</clipitem>
					<clipitem id="clipitem-S3-V2-19">
						<name>julian_1_2021-11-03_1046_C0011.mov</name>
						<enabled>TRUE</enabled>
						<duration>571</duration>
						<rate>
							<timebase>24</timebase>
							<ntsc>TRUE</ntsc>
						</rate>
						<start>15929</start>
						<end>16500</end>
						<in>0</in>
						<out>571</out>
						<file id="file-90">
							<name>julian_1_2021-11-03_1046_C0011.mov</name>
							<pathurl>/Volumes/tiesta/01_Footage/lilongwe/lilongwe 1/julian_1_2021-11-03_1046_C0011.mov</pathurl>
							<rate>
								<timebase>24</timebase>
								<ntsc>TRUE</ntsc>
							</rate>
							<duration>571</duration>
							<timecode>
								<string>10:46:34:00</string>
								<displayformat>NDF</displayformat>
								<frame>931056</frame>
								<rate>
									<timebase>24</timebase>
									<ntsc>TRUE</ntsc>
								</rate>
							</timecode>
							<media>
								<video>
									<samplecharacteristics>
										<rate>
											<timebase>24</timebase>
											<ntsc>TRUE</ntsc>
										</rate>
										<width>1920</width>
										<height>1080</height>
										<anamorphic>FALSE</anamorphic>
										<pixelaspectratio>square</pixelaspectratio>
										<fielddominance>none</fielddominance>
									</samplecharacteristics>
								</video>
								<audio>
									<samplecharacteristics>
										<depth>16</depth>
										<samplerate>48000</samplerate>
									</samplecharacteristics>
									<channelcount>2</channelcount>
								</audio>
							</media>
						</file>
						<link>
							<linkclipref>clipitem-S3-V2-19</linkclipref>
							<mediatype>video</mediatype>
							<trackindex>2</trackindex>
							<clipindex>19</clipindex>
						</link>
						<link>
							<linkclipref>clipitem-S3-A3-19</linkclipref>
							<mediatype>audio</mediatype>
							<trackindex>3</trackindex>
							<clipindex>19</clipindex>
							<groupindex>1</groupindex>
						</link>
						<link>
							<linkclipref>clipitem-S3-A4-19</linkclipref>
							<mediatype>audio</mediatype>
							<trackindex>4</trackindex>
							<clipindex>19</clipindex>
							<groupindex>1</groupindex>
						</link>
					</clipitem>
					<clipitem id="clipitem-S3-V2-20">
						<name>julian_1_2021-11-03_1047_C0012.mov</name>
						<enabled>TRUE</enabled>
						<duration>5635</duration>
						<rate>
							<timebase>24</timebase>
							<ntsc>TRUE</ntsc>
						</rate>
						<start>17068</start>
						<end>22703</end>
						<in>0</in>
						<out>5635</out>
						<file id="file-91">
							<name>julian_1_2021-11-03_1047_C0012.mov</name>
							<pathurl>/Volumes/tiesta/01_Footage/lilongwe/lilongwe 1/julian_1_2021-11-03_1047_C0012.mov</pathurl>
							<rate>
								<timebase>24</timebase>
								<ntsc>TRUE</ntsc>
							</rate>
							<duration>5635</duration>
							<timecode>
								<string>10:47:21:00</string>
								<displayformat>NDF</displayformat>
								<frame>932184</frame>
								<rate>
									<timebase>24</timebase>
									<ntsc>TRUE</ntsc>
								</rate>
							</timecode>
							<media>
								<video>
									<samplecharacteristics>
										<rate>
											<timebase>24</timebase>
											<ntsc>TRUE</ntsc>
										</rate>
										<width>1920</width>
										<height>1080</height>
										<anamorphic>FALSE</anamorphic>
										<pixelaspectratio>square</pixelaspectratio>
										<fielddominance>none</fielddominance>
									</samplecharacteristics>
								</video>
								<audio>
									<samplecharacteristics>
										<depth>16</depth>
										<samplerate>48000</samplerate>
									</samplecharacteristics>
									<channelcount>2</channelcount>
								</audio>
							</media>
						</file>
						<link>
							<linkclipref>clipitem-S3-V2-20</linkclipref>
							<mediatype>video</mediatype>
							<trackindex>2</trackindex>
							<clipindex>20</clipindex>
						</link>
						<link>
							<linkclipref>clipitem-S3-A3-20</linkclipref>
							<mediatype>audio</mediatype>
							<trackindex>3</trackindex>
							<clipindex>20</clipindex>
							<groupindex>1</groupindex>
						</link>
						<link>
							<linkclipref>clipitem-S3-A4-20</linkclipref>
							<mediatype>audio</mediatype>
							<trackindex>4</trackindex>
							<clipindex>20</clipindex>
							<groupindex>1</groupindex>
						</link>
					</clipitem>
					<clipitem id="clipitem-S3-V2-21">
						<name>julian_1_2021-11-03_1051_C0013.mov</name>
						<enabled>TRUE</enabled>
						<duration>107</duration>
						<rate>
							<timebase>24</timebase>
							<ntsc>TRUE</ntsc>
						</rate>
						<start>23156</start>
						<end>23263</end>
						<in>0</in>
						<out>107</out>
						<file id="file-92">
							<name>julian_1_2021-11-03_1051_C0013.mov</name>
							<pathurl>/Volumes/tiesta/01_Footage/lilongwe/lilongwe 1/julian_1_2021-11-03_1051_C0013.mov</pathurl>
							<rate>
								<timebase>24</timebase>
								<ntsc>TRUE</ntsc>
							</rate>
							<duration>107</duration>
							<timecode>
								<string>10:51:35:00</string>
								<displayformat>NDF</displayformat>
								<frame>938280</frame>
								<rate>
									<timebase>24</timebase>
									<ntsc>TRUE</ntsc>
								</rate>
							</timecode>
							<media>
								<video>
									<samplecharacteristics>
										<rate>
											<timebase>24</timebase>
											<ntsc>TRUE</ntsc>
										</rate>
										<width>1920</width>
										<height>1080</height>
										<anamorphic>FALSE</anamorphic>
										<pixelaspectratio>square</pixelaspectratio>
										<fielddominance>none</fielddominance>
									</samplecharacteristics>
								</video>
								<audio>
									<samplecharacteristics>
										<depth>16</depth>
										<samplerate>48000</samplerate>
									</samplecharacteristics>
									<channelcount>2</channelcount>
								</audio>
							</media>
						</file>
						<link>
							<linkclipref>clipitem-S3-V2-21</linkclipref>
							<mediatype>video</mediatype>
							<trackindex>2</trackindex>
							<clipindex>21</clipindex>
						</link>
						<link>
							<linkclipref>clipitem-S3-A3-21</linkclipref>
							<mediatype>audio</mediatype>
							<trackindex>3</trackindex>
							<clipindex>21</clipindex>
							<groupindex>1</groupindex>
						</link>
						<link>
							<linkclipref>clipitem-S3-A4-21</linkclipref>
							<mediatype>audio</mediatype>
							<trackindex>4</trackindex>
							<clipindex>21</clipindex>
							<groupindex>1</groupindex>
						</link>
					</clipitem>
					<clipitem id="clipitem-S3-V2-22">
						<name>julian_1_2021-11-03_1051_C0014.mov</name>
						<enabled>TRUE</enabled>
						<duration>3534</duration>
						<rate>
							<timebase>24</timebase>
							<ntsc>TRUE</ntsc>
						</rate>
						<start>23442</start>
						<end>26976</end>
						<in>0</in>
						<out>3534</out>
						<file id="file-93">
							<name>julian_1_2021-11-03_1051_C0014.mov</name>
							<pathurl>/Volumes/tiesta/01_Footage/lilongwe/lilongwe 1/julian_1_2021-11-03_1051_C0014.mov</pathurl>
							<rate>
								<timebase>24</timebase>
								<ntsc>TRUE</ntsc>
							</rate>
							<duration>3534</duration>
							<timecode>
								<string>10:51:47:00</string>
								<displayformat>NDF</displayformat>
								<frame>938568</frame>
								<rate>
									<timebase>24</timebase>
									<ntsc>TRUE</ntsc>
								</rate>
							</timecode>
							<media>
								<video>
									<samplecharacteristics>
										<rate>
											<timebase>24</timebase>
											<ntsc>TRUE</ntsc>
										</rate>
										<width>1920</width>
										<height>1080</height>
										<anamorphic>FALSE</anamorphic>
										<pixelaspectratio>square</pixelaspectratio>
										<fielddominance>none</fielddominance>
									</samplecharacteristics>
								</video>
								<audio>
									<samplecharacteristics>
										<depth>16</depth>
										<samplerate>48000</samplerate>
									</samplecharacteristics>
									<channelcount>2</channelcount>
								</audio>
							</media>
						</file>
						<link>
							<linkclipref>clipitem-S3-V2-22</linkclipref>
							<mediatype>video</mediatype>
							<trackindex>2</trackindex>
							<clipindex>22</clipindex>
						</link>
						<link>
							<linkclipref>clipitem-S3-A3-22</linkclipref>
							<mediatype>audio</mediatype>
							<trackindex>3</trackindex>
							<clipindex>22</clipindex>
							<groupindex>1</groupindex>
						</link>
						<link>
							<linkclipref>clipitem-S3-A4-22</linkclipref>
							<mediatype>audio</mediatype>
							<trackindex>4</trackindex>
							<clipindex>22</clipindex>
							<groupindex>1</groupindex>
						</link>
					</clipitem>
					<clipitem id="clipitem-S3-V2-23">
						<name>julian_1_2021-11-03_1054_C0015.mov</name>
						<enabled>TRUE</enabled>
						<duration>5001</duration>
						<rate>
							<timebase>24</timebase>
							<ntsc>TRUE</ntsc>
						</rate>
						<start>27422</start>
						<end>32423</end>
						<in>0</in>
						<out>5001</out>
						<file id="file-94">
							<name>julian_1_2021-11-03_1054_C0015.mov</name>
							<pathurl>/Volumes/tiesta/01_Footage/lilongwe/lilongwe 1/julian_1_2021-11-03_1054_C0015.mov</pathurl>
							<rate>
								<timebase>24</timebase>
								<ntsc>TRUE</ntsc>
							</rate>
							<duration>5001</duration>
							<timecode>
								<string>10:54:33:00</string>
								<displayformat>NDF</displayformat>
								<frame>942552</frame>
								<rate>
									<timebase>24</timebase>
									<ntsc>TRUE</ntsc>
								</rate>
							</timecode>
							<media>
								<video>
									<samplecharacteristics>
										<rate>
											<timebase>24</timebase>
											<ntsc>TRUE</ntsc>
										</rate>
										<width>1920</width>
										<height>1080</height>
										<anamorphic>FALSE</anamorphic>
										<pixelaspectratio>square</pixelaspectratio>
										<fielddominance>none</fielddominance>
									</samplecharacteristics>
								</video>
								<audio>
									<samplecharacteristics>
										<depth>16</depth>
										<samplerate>48000</samplerate>
									</samplecharacteristics>
									<channelcount>2</channelcount>
								</audio>
							</media>
						</file>
						<link>
							<linkclipref>clipitem-S3-V2-23</linkclipref>
							<mediatype>video</mediatype>
							<trackindex>2</trackindex>
							<clipindex>23</clipindex>
						</link>
						<link>
							<linkclipref>clipitem-S3-A3-23</linkclipref>
							<mediatype>audio</mediatype>
							<trackindex>3</trackindex>
							<clipindex>23</clipindex>
							<groupindex>1</groupindex>
						</link>
						<link>
							<linkclipref>clipitem-S3-A4-23</linkclipref>
							<mediatype>audio</mediatype>
							<trackindex>4</trackindex>
							<clipindex>23</clipindex>
							<groupindex>1</groupindex>
						</link>
					</clipitem>
					<clipitem id="clipitem-S3-V2-24">
						<name>julian_1_2021-11-03_1058_C0016.mov</name>
						<enabled>TRUE</enabled>
						<duration>309</duration>
						<rate>
							<timebase>24</timebase>
							<ntsc>TRUE</ntsc>
						</rate>
						<start>33544</start>
						<end>33853</end>
						<in>0</in>
						<out>309</out>
						<file id="file-95">
							<name>julian_1_2021-11-03_1058_C0016.mov</name>
							<pathurl>/Volumes/tiesta/01_Footage/lilongwe/lilongwe 1/julian_1_2021-11-03_1058_C0016.mov</pathurl>
							<rate>
								<timebase>24</timebase>
								<ntsc>TRUE</ntsc>
							</rate>
							<duration>309</duration>
							<timecode>
								<string>10:58:49:00</string>
								<displayformat>NDF</displayformat>
								<frame>948696</frame>
								<rate>
									<timebase>24</timebase>
									<ntsc>TRUE</ntsc>
								</rate>
							</timecode>
							<media>
								<video>
									<samplecharacteristics>
										<rate>
											<timebase>24</timebase>
											<ntsc>TRUE</ntsc>
										</rate>
										<width>1920</width>
										<height>1080</height>
										<anamorphic>FALSE</anamorphic>
										<pixelaspectratio>square</pixelaspectratio>
										<fielddominance>none</fielddominance>
									</samplecharacteristics>
								</video>
								<audio>
									<samplecharacteristics>
										<depth>16</depth>
										<samplerate>48000</samplerate>
									</samplecharacteristics>
									<channelcount>2</channelcount>
								</audio>
							</media>
						</file>
						<link>
							<linkclipref>clipitem-S3-V2-24</linkclipref>
							<mediatype>video</mediatype>
							<trackindex>2</trackindex>
							<clipindex>24</clipindex>
						</link>
						<link>
							<linkclipref>clipitem-S3-A3-24</linkclipref>
							<mediatype>audio</mediatype>
							<trackindex>3</trackindex>
							<clipindex>24</clipindex>
							<groupindex>1</groupindex>
						</link>
						<link>
							<linkclipref>clipitem-S3-A4-24</linkclipref>
							<mediatype>audio</mediatype>
							<trackindex>4</trackindex>
							<clipindex>24</clipindex>
							<groupindex>1</groupindex>
						</link>
					</clipitem>
					<clipitem id="clipitem-S3-V2-25">
						<name>julian_1_2021-11-03_1059_C0017.mov</name>
						<enabled>TRUE</enabled>
						<duration>1101</duration>
						<rate>
							<timebase>24</timebase>
							<ntsc>TRUE</ntsc>
						</rate>
						<start>34483</start>
						<end>35584</end>
						<in>0</in>
						<out>1101</out>
						<file id="file-96">
							<name>julian_1_2021-11-03_1059_C0017.mov</name>
							<pathurl>/Volumes/tiesta/01_Footage/lilongwe/lilongwe 1/julian_1_2021-11-03_1059_C0017.mov</pathurl>
							<rate>
								<timebase>24</timebase>
								<ntsc>TRUE</ntsc>
							</rate>
							<duration>1101</duration>
							<timecode>
								<string>10:59:28:00</string>
								<displayformat>NDF</displayformat>
								<frame>949632</frame>
								<rate>
									<timebase>24</timebase>
									<ntsc>TRUE</ntsc>
								</rate>
							</timecode>
							<media>
								<video>
									<samplecharacteristics>
										<rate>
											<timebase>24</timebase>
											<ntsc>TRUE</ntsc>
										</rate>
										<width>1920</width>
										<height>1080</height>
										<anamorphic>FALSE</anamorphic>
										<pixelaspectratio>square</pixelaspectratio>
										<fielddominance>none</fielddominance>
									</samplecharacteristics>
								</video>
								<audio>
									<samplecharacteristics>
										<depth>16</depth>
										<samplerate>48000</samplerate>
									</samplecharacteristics>
									<channelcount>2</channelcount>
								</audio>
							</media>
						</file>
						<link>
							<linkclipref>clipitem-S3-V2-25</linkclipref>
							<mediatype>video</mediatype>
							<trackindex>2</trackindex>
							<clipindex>25</clipindex>
						</link>
						<link>
							<linkclipref>clipitem-S3-A3-25</linkclipref>
							<mediatype>audio</mediatype>
							<trackindex>3</trackindex>
							<clipindex>25</clipindex>
							<groupindex>1</groupindex>
						</link>
						<link>
							<linkclipref>clipitem-S3-A4-25</linkclipref>
							<mediatype>audio</mediatype>
							<trackindex>4</trackindex>
							<clipindex>25</clipindex>
							<groupindex>1</groupindex>
						</link>
					</clipitem>
					<clipitem id="clipitem-S3-V2-26">
						<name>julian_1_2021-11-03_1100_C0018.mov</name>
						<enabled>TRUE</enabled>
						<duration>4359</duration>
						<rate>
							<timebase>24</timebase>
							<ntsc>TRUE</ntsc>
						</rate>
						<start>36582</start>
						<end>40941</end>
						<in>0</in>
						<out>4359</out>
						<file id="file-97">
							<name>julian_1_2021-11-03_1100_C0018.mov</name>
							<pathurl>/Volumes/tiesta/01_Footage/lilongwe/lilongwe 1/julian_1_2021-11-03_1100_C0018.mov</pathurl>
							<rate>
								<timebase>24</timebase>
								<ntsc>TRUE</ntsc>
							</rate>
							<duration>4359</duration>
							<timecode>
								<string>11:00:55:00</string>
								<displayformat>NDF</displayformat>
								<frame>951720</frame>
								<rate>
									<timebase>24</timebase>
									<ntsc>TRUE</ntsc>
								</rate>
							</timecode>
							<media>
								<video>
									<samplecharacteristics>
										<rate>
											<timebase>24</timebase>
											<ntsc>TRUE</ntsc>
										</rate>
										<width>1920</width>
										<height>1080</height>
										<anamorphic>FALSE</anamorphic>
										<pixelaspectratio>square</pixelaspectratio>
										<fielddominance>none</fielddominance>
									</samplecharacteristics>
								</video>
								<audio>
									<samplecharacteristics>
										<depth>16</depth>
										<samplerate>48000</samplerate>
									</samplecharacteristics>
									<channelcount>2</channelcount>
								</audio>
							</media>
						</file>
						<link>
							<linkclipref>clipitem-S3-V2-26</linkclipref>
							<mediatype>video</mediatype>
							<trackindex>2</trackindex>
							<clipindex>26</clipindex>
						</link>
						<link>
							<linkclipref>clipitem-S3-A3-26</linkclipref>
							<mediatype>audio</mediatype>
							<trackindex>3</trackindex>
							<clipindex>26</clipindex>
							<groupindex>1</groupindex>
						</link>
						<link>
							<linkclipref>clipitem-S3-A4-26</linkclipref>
							<mediatype>audio</mediatype>
							<trackindex>4</trackindex>
							<clipindex>26</clipindex>
							<groupindex>1</groupindex>
						</link>
					</clipitem>
					<clipitem id="clipitem-S3-V2-27">
						<name>julian_1_2021-11-03_1104_C0019.mov</name>
						<enabled>TRUE</enabled>
						<duration>282</duration>
						<rate>
							<timebase>24</timebase>
							<ntsc>TRUE</ntsc>
						</rate>
						<start>41454</start>
						<end>41736</end>
						<in>0</in>
						<out>282</out>
						<file id="file-98">
							<name>julian_1_2021-11-03_1104_C0019.mov</name>
							<pathurl>/Volumes/tiesta/01_Footage/lilongwe/lilongwe 1/julian_1_2021-11-03_1104_C0019.mov</pathurl>
							<rate>
								<timebase>24</timebase>
								<ntsc>TRUE</ntsc>
							</rate>
							<duration>282</duration>
							<timecode>
								<string>11:04:19:00</string>
								<displayformat>NDF</displayformat>
								<frame>956616</frame>
								<rate>
									<timebase>24</timebase>
									<ntsc>TRUE</ntsc>
								</rate>
							</timecode>
							<media>
								<video>
									<samplecharacteristics>
										<rate>
											<timebase>24</timebase>
											<ntsc>TRUE</ntsc>
										</rate>
										<width>1920</width>
										<height>1080</height>
										<anamorphic>FALSE</anamorphic>
										<pixelaspectratio>square</pixelaspectratio>
										<fielddominance>none</fielddominance>
									</samplecharacteristics>
								</video>
								<audio>
									<samplecharacteristics>
										<depth>16</depth>
										<samplerate>48000</samplerate>
									</samplecharacteristics>
									<channelcount>2</channelcount>
								</audio>
							</media>
						</file>
						<link>
							<linkclipref>clipitem-S3-V2-27</linkclipref>
							<mediatype>video</mediatype>
							<trackindex>2</trackindex>
							<clipindex>27</clipindex>
						</link>
						<link>
							<linkclipref>clipitem-S3-A3-27</linkclipref>
							<mediatype>audio</mediatype>
							<trackindex>3</trackindex>
							<clipindex>27</clipindex>
							<groupindex>1</groupindex>
						</link>
						<link>
							<linkclipref>clipitem-S3-A4-27</linkclipref>
							<mediatype>audio</mediatype>
							<trackindex>4</trackindex>
							<clipindex>27</clipindex>
							<groupindex>1</groupindex>
						</link>
					</clipitem>
					<clipitem id="clipitem-S3-V2-28">
						<name>julian_1_2021-11-03_1105_C0020.mov</name>
						<enabled>TRUE</enabled>
						<duration>1115</duration>
						<rate>
							<timebase>24</timebase>
							<ntsc>TRUE</ntsc>
						</rate>
						<start>42792</start>
						<end>43907</end>
						<in>0</in>
						<out>1115</out>
						<file id="file-99">
							<name>julian_1_2021-11-03_1105_C0020.mov</name>
							<pathurl>/Volumes/tiesta/01_Footage/lilongwe/lilongwe 1/julian_1_2021-11-03_1105_C0020.mov</pathurl>
							<rate>
								<timebase>24</timebase>
								<ntsc>TRUE</ntsc>
							</rate>
							<duration>1115</duration>
							<timecode>
								<string>11:05:14:00</string>
								<displayformat>NDF</displayformat>
								<frame>957936</frame>
								<rate>
									<timebase>24</timebase>
									<ntsc>TRUE</ntsc>
								</rate>
							</timecode>
							<media>
								<video>
									<samplecharacteristics>
										<rate>
											<timebase>24</timebase>
											<ntsc>TRUE</ntsc>
										</rate>
										<width>1920</width>
										<height>1080</height>
										<anamorphic>FALSE</anamorphic>
										<pixelaspectratio>square</pixelaspectratio>
										<fielddominance>none</fielddominance>
									</samplecharacteristics>
								</video>
								<audio>
									<samplecharacteristics>
										<depth>16</depth>
										<samplerate>48000</samplerate>
									</samplecharacteristics>
									<channelcount>2</channelcount>
								</audio>
							</media>
						</file>
						<link>
							<linkclipref>clipitem-S3-V2-28</linkclipref>
							<mediatype>video</mediatype>
							<trackindex>2</trackindex>
							<clipindex>28</clipindex>
						</link>
						<link>
							<linkclipref>clipitem-S3-A3-28</linkclipref>
							<mediatype>audio</mediatype>
							<trackindex>3</trackindex>
							<clipindex>28</clipindex>
							<groupindex>1</groupindex>
						</link>
						<link>
							<linkclipref>clipitem-S3-A4-28</linkclipref>
							<mediatype>audio</mediatype>
							<trackindex>4</trackindex>
							<clipindex>28</clipindex>
							<groupindex>1</groupindex>
						</link>
					</clipitem>
					<clipitem id="clipitem-S3-V2-29">
						<name>julian_1_2021-11-03_1106_C0021.mov</name>
						<enabled>TRUE</enabled>
						<duration>192</duration>
						<rate>
							<timebase>24</timebase>
							<ntsc>TRUE</ntsc>
						</rate>
						<start>44649</start>
						<end>44841</end>
						<in>0</in>
						<out>192</out>
						<file id="file-100">
							<name>julian_1_2021-11-03_1106_C0021.mov</name>
							<pathurl>/Volumes/tiesta/01_Footage/lilongwe/lilongwe 1/julian_1_2021-11-03_1106_C0021.mov</pathurl>
							<rate>
								<timebase>24</timebase>
								<ntsc>TRUE</ntsc>
							</rate>
							<duration>192</duration>
							<timecode>
								<string>11:06:32:00</string>
								<displayformat>NDF</displayformat>
								<frame>959808</frame>
								<rate>
									<timebase>24</timebase>
									<ntsc>TRUE</ntsc>
								</rate>
							</timecode>
							<media>
								<video>
									<samplecharacteristics>
										<rate>
											<timebase>24</timebase>
											<ntsc>TRUE</ntsc>
										</rate>
										<width>1920</width>
										<height>1080</height>
										<anamorphic>FALSE</anamorphic>
										<pixelaspectratio>square</pixelaspectratio>
										<fielddominance>none</fielddominance>
									</samplecharacteristics>
								</video>
								<audio>
									<samplecharacteristics>
										<depth>16</depth>
										<samplerate>48000</samplerate>
									</samplecharacteristics>
									<channelcount>2</channelcount>
								</audio>
							</media>
						</file>
						<link>
							<linkclipref>clipitem-S3-V2-29</linkclipref>
							<mediatype>video</mediatype>
							<trackindex>2</trackindex>
							<clipindex>29</clipindex>
						</link>
						<link>
							<linkclipref>clipitem-S3-A3-29</linkclipref>
							<mediatype>audio</mediatype>
							<trackindex>3</trackindex>
							<clipindex>29</clipindex>
							<groupindex>1</groupindex>
						</link>
						<link>
							<linkclipref>clipitem-S3-A4-29</linkclipref>
							<mediatype>audio</mediatype>
							<trackindex>4</trackindex>
							<clipindex>29</clipindex>
							<groupindex>1</groupindex>
						</link>
					</clipitem>
					<clipitem id="clipitem-S3-V2-30">
						<name>julian_1_2021-11-03_1106_C0022.mov</name>
						<enabled>TRUE</enabled>
						<duration>504</duration>
						<rate>
							<timebase>24</timebase>
							<ntsc>TRUE</ntsc>
						</rate>
						<start>45236</start>
						<end>45740</end>
						<in>0</in>
						<out>504</out>
						<file id="file-101">
							<name>julian_1_2021-11-03_1106_C0022.mov</name>
							<pathurl>/Volumes/tiesta/01_Footage/lilongwe/lilongwe 1/julian_1_2021-11-03_1106_C0022.mov</pathurl>
							<rate>
								<timebase>24</timebase>
								<ntsc>TRUE</ntsc>
							</rate>
							<duration>504</duration>
							<timecode>
								<string>11:06:56:00</string>
								<displayformat>NDF</displayformat>
								<frame>960384</frame>
								<rate>
									<timebase>24</timebase>
									<ntsc>TRUE</ntsc>
								</rate>
							</timecode>
							<media>
								<video>
									<samplecharacteristics>
										<rate>
											<timebase>24</timebase>
											<ntsc>TRUE</ntsc>
										</rate>
										<width>1920</width>
										<height>1080</height>
										<anamorphic>FALSE</anamorphic>
										<pixelaspectratio>square</pixelaspectratio>
										<fielddominance>none</fielddominance>
									</samplecharacteristics>
								</video>
								<audio>
									<samplecharacteristics>
										<depth>16</depth>
										<samplerate>48000</samplerate>
									</samplecharacteristics>
									<channelcount>2</channelcount>
								</audio>
							</media>
						</file>
						<link>
							<linkclipref>clipitem-S3-V2-30</linkclipref>
							<mediatype>video</mediatype>
							<trackindex>2</trackindex>
							<clipindex>30</clipindex>
						</link>
						<link>
							<linkclipref>clipitem-S3-A3-30</linkclipref>
							<mediatype>audio</mediatype>
							<trackindex>3</trackindex>
							<clipindex>30</clipindex>
							<groupindex>1</groupindex>
						</link>
						<link>
							<linkclipref>clipitem-S3-A4-30</linkclipref>
							<mediatype>audio</mediatype>
							<trackindex>4</trackindex>
							<clipindex>30</clipindex>
							<groupindex>1</groupindex>
						</link>
					</clipitem>
					<clipitem id="clipitem-S3-V2-31">
						<name>julian_1_2021-11-03_1108_C0023.mov</name>
						<enabled>TRUE</enabled>
						<duration>840</duration>
						<rate>
							<timebase>24</timebase>
							<ntsc>TRUE</ntsc>
						</rate>
						<start>47799</start>
						<end>48639</end>
						<in>0</in>
						<out>840</out>
						<file id="file-102">
							<name>julian_1_2021-11-03_1108_C0023.mov</name>
							<pathurl>/Volumes/tiesta/01_Footage/lilongwe/lilongwe 1/julian_1_2021-11-03_1108_C0023.mov</pathurl>
							<rate>
								<timebase>24</timebase>
								<ntsc>TRUE</ntsc>
							</rate>
							<duration>840</duration>
							<timecode>
								<string>11:08:43:00</string>
								<displayformat>NDF</displayformat>
								<frame>962952</frame>
								<rate>
									<timebase>24</timebase>
									<ntsc>TRUE</ntsc>
								</rate>
							</timecode>
							<media>
								<video>
									<samplecharacteristics>
										<rate>
											<timebase>24</timebase>
											<ntsc>TRUE</ntsc>
										</rate>
										<width>1920</width>
										<height>1080</height>
										<anamorphic>FALSE</anamorphic>
										<pixelaspectratio>square</pixelaspectratio>
										<fielddominance>none</fielddominance>
									</samplecharacteristics>
								</video>
								<audio>
									<samplecharacteristics>
										<depth>16</depth>
										<samplerate>48000</samplerate>
									</samplecharacteristics>
									<channelcount>2</channelcount>
								</audio>
							</media>
						</file>
						<link>
							<linkclipref>clipitem-S3-V2-31</linkclipref>
							<mediatype>video</mediatype>
							<trackindex>2</trackindex>
							<clipindex>31</clipindex>
						</link>
						<link>
							<linkclipref>clipitem-S3-A3-31</linkclipref>
							<mediatype>audio</mediatype>
							<trackindex>3</trackindex>
							<clipindex>31</clipindex>
							<groupindex>1</groupindex>
						</link>
						<link>
							<linkclipref>clipitem-S3-A4-31</linkclipref>
							<mediatype>audio</mediatype>
							<trackindex>4</trackindex>
							<clipindex>31</clipindex>
							<groupindex>1</groupindex>
						</link>
					</clipitem>
					<clipitem id="clipitem-S3-V2-32">
						<name>julian_1_2021-11-03_1109_C0024.mov</name>
						<enabled>TRUE</enabled>
						<duration>1022</duration>
						<rate>
							<timebase>24</timebase>
							<ntsc>TRUE</ntsc>
						</rate>
						<start>49367</start>
						<end>50389</end>
						<in>0</in>
						<out>1022</out>
						<file id="file-103">
							<name>julian_1_2021-11-03_1109_C0024.mov</name>
							<pathurl>/Volumes/tiesta/01_Footage/lilongwe/lilongwe 1/julian_1_2021-11-03_1109_C0024.mov</pathurl>
							<rate>
								<timebase>24</timebase>
								<ntsc>TRUE</ntsc>
							</rate>
							<duration>1022</duration>
							<timecode>
								<string>11:09:48:00</string>
								<displayformat>NDF</displayformat>
								<frame>964512</frame>
								<rate>
									<timebase>24</timebase>
									<ntsc>TRUE</ntsc>
								</rate>
							</timecode>
							<media>
								<video>
									<samplecharacteristics>
										<rate>
											<timebase>24</timebase>
											<ntsc>TRUE</ntsc>
										</rate>
										<width>1920</width>
										<height>1080</height>
										<anamorphic>FALSE</anamorphic>
										<pixelaspectratio>square</pixelaspectratio>
										<fielddominance>none</fielddominance>
									</samplecharacteristics>
								</video>
								<audio>
									<samplecharacteristics>
										<depth>16</depth>
										<samplerate>48000</samplerate>
									</samplecharacteristics>
									<channelcount>2</channelcount>
								</audio>
							</media>
						</file>
						<link>
							<linkclipref>clipitem-S3-V2-32</linkclipref>
							<mediatype>video</mediatype>
							<trackindex>2</trackindex>
							<clipindex>32</clipindex>
						</link>
						<link>
							<linkclipref>clipitem-S3-A3-32</linkclipref>
							<mediatype>audio</mediatype>
							<trackindex>3</trackindex>
							<clipindex>32</clipindex>
							<groupindex>1</groupindex>
						</link>
						<link>
							<linkclipref>clipitem-S3-A4-32</linkclipref>
							<mediatype>audio</mediatype>
							<trackindex>4</trackindex>
							<clipindex>32</clipindex>
							<groupindex>1</groupindex>
						</link>
					</clipitem>
					<clipitem id="clipitem-S3-V2-33">
						<name>julian_1_2021-11-03_1112_C0025.mov</name>
						<enabled>TRUE</enabled>
						<duration>413</duration>
						<rate>
							<timebase>24</timebase>
							<ntsc>TRUE</ntsc>
						</rate>
						<start>52620</start>
						<end>53033</end>
						<in>0</in>
						<out>413</out>
						<file id="file-104">
							<name>julian_1_2021-11-03_1112_C0025.mov</name>
							<pathurl>/Volumes/tiesta/01_Footage/lilongwe/lilongwe 1/julian_1_2021-11-03_1112_C0025.mov</pathurl>
							<rate>
								<timebase>24</timebase>
								<ntsc>TRUE</ntsc>
							</rate>
							<duration>413</duration>
							<timecode>
								<string>11:12:04:00</string>
								<displayformat>NDF</displayformat>
								<frame>967776</frame>
								<rate>
									<timebase>24</timebase>
									<ntsc>TRUE</ntsc>
								</rate>
							</timecode>
							<media>
								<video>
									<samplecharacteristics>
										<rate>
											<timebase>24</timebase>
											<ntsc>TRUE</ntsc>
										</rate>
										<width>1920</width>
										<height>1080</height>
										<anamorphic>FALSE</anamorphic>
										<pixelaspectratio>square</pixelaspectratio>
										<fielddominance>none</fielddominance>
									</samplecharacteristics>
								</video>
								<audio>
									<samplecharacteristics>
										<depth>16</depth>
										<samplerate>48000</samplerate>
									</samplecharacteristics>
									<channelcount>2</channelcount>
								</audio>
							</media>
						</file>
						<link>
							<linkclipref>clipitem-S3-V2-33</linkclipref>
							<mediatype>video</mediatype>
							<trackindex>2</trackindex>
							<clipindex>33</clipindex>
						</link>
						<link>
							<linkclipref>clipitem-S3-A3-33</linkclipref>
							<mediatype>audio</mediatype>
							<trackindex>3</trackindex>
							<clipindex>33</clipindex>
							<groupindex>1</groupindex>
						</link>
						<link>
							<linkclipref>clipitem-S3-A4-33</linkclipref>
							<mediatype>audio</mediatype>
							<trackindex>4</trackindex>
							<clipindex>33</clipindex>
							<groupindex>1</groupindex>
						</link>
					</clipitem>
					<clipitem id="clipitem-S3-V2-34">
						<name>julian_1_2021-11-03_1145_C0027.mov</name>
						<enabled>TRUE</enabled>
						<duration>304</duration>
						<rate>
							<timebase>24</timebase>
							<ntsc>TRUE</ntsc>
						</rate>
						<start>55056</start>
						<end>55360</end>
						<in>0</in>
						<out>304</out>
						<file id="file-105">
							<name>julian_1_2021-11-03_1145_C0027.mov</name>
							<pathurl>/Volumes/tiesta/01_Footage/lilongwe/lilongwe 1/julian_1_2021-11-03_1145_C0027.mov</pathurl>
							<rate>
								<timebase>24</timebase>
								<ntsc>TRUE</ntsc>
							</rate>
							<duration>304</duration>
							<timecode>
								<string>11:45:13:00</string>
								<displayformat>NDF</displayformat>
								<frame>1015512</frame>
								<rate>
									<timebase>24</timebase>
									<ntsc>TRUE</ntsc>
								</rate>
							</timecode>
							<media>
								<video>
									<samplecharacteristics>
										<rate>
											<timebase>24</timebase>
											<ntsc>TRUE</ntsc>
										</rate>
										<width>1920</width>
										<height>1080</height>
										<anamorphic>FALSE</anamorphic>
										<pixelaspectratio>square</pixelaspectratio>
										<fielddominance>none</fielddominance>
									</samplecharacteristics>
								</video>
								<audio>
									<samplecharacteristics>
										<depth>16</depth>
										<samplerate>48000</samplerate>
									</samplecharacteristics>
									<channelcount>2</channelcount>
								</audio>
							</media>
						</file>
						<link>
							<linkclipref>clipitem-S3-V2-34</linkclipref>
							<mediatype>video</mediatype>
							<trackindex>2</trackindex>
							<clipindex>34</clipindex>
						</link>
						<link>
							<linkclipref>clipitem-S3-A3-34</linkclipref>
							<mediatype>audio</mediatype>
							<trackindex>3</trackindex>
							<clipindex>34</clipindex>
							<groupindex>1</groupindex>
						</link>
						<link>
							<linkclipref>clipitem-S3-A4-34</linkclipref>
							<mediatype>audio</mediatype>
							<trackindex>4</trackindex>
							<clipindex>34</clipindex>
							<groupindex>1</groupindex>
						</link>
						<labels>
							<label2>Rose</label2>
						</labels>
					</clipitem>
					<clipitem id="clipitem-S3-V2-35">
						<name>julian_1_2021-11-03_1147_C0031.mov</name>
						<enabled>TRUE</enabled>
						<duration>512</duration>
						<rate>
							<timebase>24</timebase>
							<ntsc>TRUE</ntsc>
						</rate>
						<start>55360</start>
						<end>55871</end>
						<in>1</in>
						<out>512</out>
						<file id="file-106">
							<name>julian_1_2021-11-03_1147_C0031.mov</name>
							<pathurl>/Volumes/tiesta/01_Footage/lilongwe/lilongwe 1/julian_1_2021-11-03_1147_C0031.mov</pathurl>
							<rate>
								<timebase>24</timebase>
								<ntsc>TRUE</ntsc>
							</rate>
							<duration>512</duration>
							<timecode>
								<string>11:47:53:00</string>
								<displayformat>NDF</displayformat>
								<frame>1019352</frame>
								<rate>
									<timebase>24</timebase>
									<ntsc>TRUE</ntsc>
								</rate>
							</timecode>
							<media>
								<video>
									<samplecharacteristics>
										<rate>
											<timebase>24</timebase>
											<ntsc>TRUE</ntsc>
										</rate>
										<width>1920</width>
										<height>1080</height>
										<anamorphic>FALSE</anamorphic>
										<pixelaspectratio>square</pixelaspectratio>
										<fielddominance>none</fielddominance>
									</samplecharacteristics>
								</video>
								<audio>
									<samplecharacteristics>
										<depth>16</depth>
										<samplerate>48000</samplerate>
									</samplecharacteristics>
									<channelcount>2</channelcount>
								</audio>
							</media>
						</file>
						<link>
							<linkclipref>clipitem-S3-V2-35</linkclipref>
							<mediatype>video</mediatype>
							<trackindex>2</trackindex>
							<clipindex>35</clipindex>
						</link>
						<link>
							<linkclipref>clipitem-S3-A3-35</linkclipref>
							<mediatype>audio</mediatype>
							<trackindex>3</trackindex>
							<clipindex>35</clipindex>
							<groupindex>1</groupindex>
						</link>
						<link>
							<linkclipref>clipitem-S3-A4-35</linkclipref>
							<mediatype>audio</mediatype>
							<trackindex>4</trackindex>
							<clipindex>35</clipindex>
							<groupindex>1</groupindex>
						</link>
						<labels>
							<label2>Rose</label2>
						</labels>
					</clipitem>
					<enabled>TRUE</enabled>
					<locked>FALSE</locked>
				</track>
			</video>
			<audio>
				<format>
					<samplecharacteristics>
						<depth>16</depth>
						<samplerate>48000</samplerate>
					</samplecharacteristics>
				</format>
				<outputs>
				<group>
					<index>1</index>
						<numchannels>1</numchannels>
						<downmix>0</downmix>
						<channel>
						<index>1</index>
						</channel>
					</group>
					<group>
					<index>2</index>
						<numchannels>1</numchannels>
						<downmix>0</downmix>
						<channel>
						<index>2</index>
						</channel>
					</group>
				</outputs>
				<track currentExplodedTrackIndex="0" totalExplodedTrackCount="2" premiereTrackType="Stereo">
					<clipitem id="clipitem-S3-A1-1" premiereChannelType="stereo">
						<name>wiblo_1_2002-09-12_1410_C0017.mov</name>
						<enabled>TRUE</enabled>
						<duration>21079</duration>
						<rate>
							<timebase>24</timebase>
							<ntsc>TRUE</ntsc>
						</rate>
						<start>2466</start>
						<end>23545</end>
						<in>0</in>
						<out>21079</out>
						<file id="file-82"/>
						<sourcetrack>
							<mediatype>audio</mediatype>
							<trackindex>1</trackindex>
						</sourcetrack>
						<link>
							<linkclipref>clipitem-S3-A1-1</linkclipref>
							<mediatype>audio</mediatype>
							<trackindex>1</trackindex>
							<clipindex>1</clipindex>
							<groupindex>1</groupindex>
						</link>
						<link>
							<linkclipref>clipitem-S3-A2-1</linkclipref>
							<mediatype>audio</mediatype>
							<trackindex>2</trackindex>
							<clipindex>1</clipindex>
							<groupindex>1</groupindex>
						</link>
						<link>
							<linkclipref>clipitem-S3-V1-1</linkclipref>
							<mediatype>video</mediatype>
							<trackindex>1</trackindex>
							<clipindex>1</clipindex>
						</link>
					</clipitem>
					<enabled>TRUE</enabled>
					<locked>FALSE</locked>
					<outputchannelindex>1</outputchannelindex>
				</track>
				<track currentExplodedTrackIndex="1" totalExplodedTrackCount="2" premiereTrackType="Stereo">
					<clipitem id="clipitem-S3-A2-1" premiereChannelType="stereo">
						<name>wiblo_1_2002-09-12_1410_C0017.mov</name>
						<enabled>TRUE</enabled>
						<duration>21079</duration>
						<rate>
							<timebase>24</timebase>
							<ntsc>TRUE</ntsc>
						</rate>
						<start>2466</start>
						<end>23545</end>
						<in>0</in>
						<out>21079</out>
						<file id="file-82"/>
						<sourcetrack>
							<mediatype>audio</mediatype>
							<trackindex>2</trackindex>
						</sourcetrack>
						<link>
							<linkclipref>clipitem-S3-A1-1</linkclipref>
							<mediatype>audio</mediatype>
							<trackindex>1</trackindex>
							<clipindex>1</clipindex>
							<groupindex>1</groupindex>
						</link>
						<link>
							<linkclipref>clipitem-S3-A2-1</linkclipref>
							<mediatype>audio</mediatype>
							<trackindex>2</trackindex>
							<clipindex>1</clipindex>
							<groupindex>1</groupindex>
						</link>
						<link>
							<linkclipref>clipitem-S3-V1-1</linkclipref>
							<mediatype>video</mediatype>
							<trackindex>1</trackindex>
							<clipindex>1</clipindex>
						</link>
					</clipitem>
					<enabled>TRUE</enabled>
					<locked>FALSE</locked>
					<outputchannelindex>2</outputchannelindex>
				</track>
				<track currentExplodedTrackIndex="0" totalExplodedTrackCount="2" premiereTrackType="Stereo">
					<clipitem id="clipitem-S3-A3-1" premiereChannelType="stereo">
						<name>julian_1_2021-11-02_1017_C0112.mov</name>
						<enabled>TRUE</enabled>
						<duration>68</duration>
						<rate>
							<timebase>24</timebase>
							<ntsc>TRUE</ntsc>
						</rate>
						<start>0</start>
						<end>68</end>
						<in>0</in>
						<out>68</out>
						<file id="file-107"/>
						<sourcetrack>
							<mediatype>audio</mediatype>
							<trackindex>1</trackindex>
						</sourcetrack>
						<link>
							<linkclipref>clipitem-S3-A3-1</linkclipref>
							<mediatype>audio</mediatype>
							<trackindex>3</trackindex>
							<clipindex>1</clipindex>
							<groupindex>1</groupindex>
						</link>
						<link>
							<linkclipref>clipitem-S3-A4-1</linkclipref>
							<mediatype>audio</mediatype>
							<trackindex>4</trackindex>
							<clipindex>1</clipindex>
							<groupindex>1</groupindex>
						</link>
						<link>
							<linkclipref>clipitem-S3-V2-1</linkclipref>
							<mediatype>video</mediatype>
							<trackindex>2</trackindex>
							<clipindex>1</clipindex>
						</link>
						<labels>
							<label2>Rose</label2>
						</labels>
					</clipitem>
					<clipitem id="clipitem-S3-A3-2" premiereChannelType="stereo">
						<name>julian_1_2021-11-02_1018_C0114.mov</name>
						<enabled>TRUE</enabled>
						<duration>116</duration>
						<rate>
							<timebase>24</timebase>
							<ntsc>TRUE</ntsc>
						</rate>
						<start>68</start>
						<end>183</end>
						<in>1</in>
						<out>116</out>
						<file id="file-108"/>
						<sourcetrack>
							<mediatype>audio</mediatype>
							<trackindex>1</trackindex>
						</sourcetrack>
						<link>
							<linkclipref>clipitem-S3-A3-2</linkclipref>
							<mediatype>audio</mediatype>
							<trackindex>3</trackindex>
							<clipindex>2</clipindex>
							<groupindex>1</groupindex>
						</link>
						<link>
							<linkclipref>clipitem-S3-A4-2</linkclipref>
							<mediatype>audio</mediatype>
							<trackindex>4</trackindex>
							<clipindex>2</clipindex>
							<groupindex>1</groupindex>
						</link>
						<link>
							<linkclipref>clipitem-S3-V2-2</linkclipref>
							<mediatype>video</mediatype>
							<trackindex>2</trackindex>
							<clipindex>2</clipindex>
						</link>
						<labels>
							<label2>Rose</label2>
						</labels>
					</clipitem>
					<clipitem id="clipitem-S3-A3-3" premiereChannelType="stereo">
						<name>julian_1_2021-11-02_1018_C0115.mov</name>
						<enabled>TRUE</enabled>
						<duration>91</duration>
						<rate>
							<timebase>24</timebase>
							<ntsc>TRUE</ntsc>
						</rate>
						<start>183</start>
						<end>273</end>
						<in>1</in>
						<out>91</out>
						<file id="file-109"/>
						<sourcetrack>
							<mediatype>audio</mediatype>
							<trackindex>1</trackindex>
						</sourcetrack>
						<link>
							<linkclipref>clipitem-S3-A3-3</linkclipref>
							<mediatype>audio</mediatype>
							<trackindex>3</trackindex>
							<clipindex>3</clipindex>
							<groupindex>1</groupindex>
						</link>
						<link>
							<linkclipref>clipitem-S3-A4-3</linkclipref>
							<mediatype>audio</mediatype>
							<trackindex>4</trackindex>
							<clipindex>3</clipindex>
							<groupindex>1</groupindex>
						</link>
						<link>
							<linkclipref>clipitem-S3-V2-3</linkclipref>
							<mediatype>video</mediatype>
							<trackindex>2</trackindex>
							<clipindex>3</clipindex>
						</link>
						<labels>
							<label2>Rose</label2>
						</labels>
					</clipitem>
					<clipitem id="clipitem-S3-A3-4" premiereChannelType="stereo">
						<name>julian_1_2021-11-02_1024_C0129.mov</name>
						<enabled>TRUE</enabled>
						<duration>77</duration>
						<rate>
							<timebase>24</timebase>
							<ntsc>TRUE</ntsc>
						</rate>
						<start>273</start>
						<end>349</end>
						<in>1</in>
						<out>77</out>
						<file id="file-110"/>
						<sourcetrack>
							<mediatype>audio</mediatype>
							<trackindex>1</trackindex>
						</sourcetrack>
						<link>
							<linkclipref>clipitem-S3-A3-4</linkclipref>
							<mediatype>audio</mediatype>
							<trackindex>3</trackindex>
							<clipindex>4</clipindex>
							<groupindex>1</groupindex>
						</link>
						<link>
							<linkclipref>clipitem-S3-A4-4</linkclipref>
							<mediatype>audio</mediatype>
							<trackindex>4</trackindex>
							<clipindex>4</clipindex>
							<groupindex>1</groupindex>
						</link>
						<link>
							<linkclipref>clipitem-S3-V2-4</linkclipref>
							<mediatype>video</mediatype>
							<trackindex>2</trackindex>
							<clipindex>4</clipindex>
						</link>
						<labels>
							<label2>Rose</label2>
						</labels>
					</clipitem>
					<clipitem id="clipitem-S3-A3-5" premiereChannelType="stereo">
						<name>julian_1_2021-11-02_1025_C0130.mov</name>
						<enabled>TRUE</enabled>
						<duration>135</duration>
						<rate>
							<timebase>24</timebase>
							<ntsc>TRUE</ntsc>
						</rate>
						<start>349</start>
						<end>483</end>
						<in>1</in>
						<out>135</out>
						<file id="file-111"/>
						<sourcetrack>
							<mediatype>audio</mediatype>
							<trackindex>1</trackindex>
						</sourcetrack>
						<link>
							<linkclipref>clipitem-S3-A3-5</linkclipref>
							<mediatype>audio</mediatype>
							<trackindex>3</trackindex>
							<clipindex>5</clipindex>
							<groupindex>1</groupindex>
						</link>
						<link>
							<linkclipref>clipitem-S3-A4-5</linkclipref>
							<mediatype>audio</mediatype>
							<trackindex>4</trackindex>
							<clipindex>5</clipindex>
							<groupindex>1</groupindex>
						</link>
						<link>
							<linkclipref>clipitem-S3-V2-5</linkclipref>
							<mediatype>video</mediatype>
							<trackindex>2</trackindex>
							<clipindex>5</clipindex>
						</link>
						<labels>
							<label2>Rose</label2>
						</labels>
					</clipitem>
					<clipitem id="clipitem-S3-A3-6" premiereChannelType="stereo">
						<name>julian_1_2021-11-02_1106_C0135.mov</name>
						<enabled>TRUE</enabled>
						<duration>279</duration>
						<rate>
							<timebase>24</timebase>
							<ntsc>TRUE</ntsc>
						</rate>
						<start>483</start>
						<end>761</end>
						<in>1</in>
						<out>279</out>
						<file id="file-112"/>
						<sourcetrack>
							<mediatype>audio</mediatype>
							<trackindex>1</trackindex>
						</sourcetrack>
						<link>
							<linkclipref>clipitem-S3-A3-6</linkclipref>
							<mediatype>audio</mediatype>
							<trackindex>3</trackindex>
							<clipindex>6</clipindex>
							<groupindex>1</groupindex>
						</link>
						<link>
							<linkclipref>clipitem-S3-A4-6</linkclipref>
							<mediatype>audio</mediatype>
							<trackindex>4</trackindex>
							<clipindex>6</clipindex>
							<groupindex>1</groupindex>
						</link>
						<link>
							<linkclipref>clipitem-S3-V2-6</linkclipref>
							<mediatype>video</mediatype>
							<trackindex>2</trackindex>
							<clipindex>6</clipindex>
						</link>
						<labels>
							<label2>Rose</label2>
						</labels>
					</clipitem>
					<clipitem id="clipitem-S3-A3-7" premiereChannelType="stereo">
						<name>julian_1_2021-11-02_1106_C0136.mov</name>
						<enabled>TRUE</enabled>
						<duration>506</duration>
						<rate>
							<timebase>24</timebase>
							<ntsc>TRUE</ntsc>
						</rate>
						<start>761</start>
						<end>1266</end>
						<in>1</in>
						<out>506</out>
						<file id="file-113"/>
						<sourcetrack>
							<mediatype>audio</mediatype>
							<trackindex>1</trackindex>
						</sourcetrack>
						<link>
							<linkclipref>clipitem-S3-A3-7</linkclipref>
							<mediatype>audio</mediatype>
							<trackindex>3</trackindex>
							<clipindex>7</clipindex>
							<groupindex>1</groupindex>
						</link>
						<link>
							<linkclipref>clipitem-S3-A4-7</linkclipref>
							<mediatype>audio</mediatype>
							<trackindex>4</trackindex>
							<clipindex>7</clipindex>
							<groupindex>1</groupindex>
						</link>
						<link>
							<linkclipref>clipitem-S3-V2-7</linkclipref>
							<mediatype>video</mediatype>
							<trackindex>2</trackindex>
							<clipindex>7</clipindex>
						</link>
						<labels>
							<label2>Rose</label2>
						</labels>
					</clipitem>
					<clipitem id="clipitem-S3-A3-8" premiereChannelType="stereo">
						<name>julian_1_2021-11-02_1107_C0137.mov</name>
						<enabled>TRUE</enabled>
						<duration>421</duration>
						<rate>
							<timebase>24</timebase>
							<ntsc>TRUE</ntsc>
						</rate>
						<start>1266</start>
						<end>1686</end>
						<in>1</in>
						<out>421</out>
						<file id="file-114"/>
						<sourcetrack>
							<mediatype>audio</mediatype>
							<trackindex>1</trackindex>
						</sourcetrack>
						<link>
							<linkclipref>clipitem-S3-A3-8</linkclipref>
							<mediatype>audio</mediatype>
							<trackindex>3</trackindex>
							<clipindex>8</clipindex>
							<groupindex>1</groupindex>
						</link>
						<link>
							<linkclipref>clipitem-S3-A4-8</linkclipref>
							<mediatype>audio</mediatype>
							<trackindex>4</trackindex>
							<clipindex>8</clipindex>
							<groupindex>1</groupindex>
						</link>
						<link>
							<linkclipref>clipitem-S3-V2-8</linkclipref>
							<mediatype>video</mediatype>
							<trackindex>2</trackindex>
							<clipindex>8</clipindex>
						</link>
						<labels>
							<label2>Rose</label2>
						</labels>
					</clipitem>
					<clipitem id="clipitem-S3-A3-9" premiereChannelType="stereo">
						<name>julian_1_2021-11-02_1108_C0138.mov</name>
						<enabled>TRUE</enabled>
						<duration>78</duration>
						<rate>
							<timebase>24</timebase>
							<ntsc>TRUE</ntsc>
						</rate>
						<start>1686</start>
						<end>1763</end>
						<in>1</in>
						<out>78</out>
						<file id="file-115"/>
						<sourcetrack>
							<mediatype>audio</mediatype>
							<trackindex>1</trackindex>
						</sourcetrack>
						<link>
							<linkclipref>clipitem-S3-A3-9</linkclipref>
							<mediatype>audio</mediatype>
							<trackindex>3</trackindex>
							<clipindex>9</clipindex>
							<groupindex>1</groupindex>
						</link>
						<link>
							<linkclipref>clipitem-S3-A4-9</linkclipref>
							<mediatype>audio</mediatype>
							<trackindex>4</trackindex>
							<clipindex>9</clipindex>
							<groupindex>1</groupindex>
						</link>
						<link>
							<linkclipref>clipitem-S3-V2-9</linkclipref>
							<mediatype>video</mediatype>
							<trackindex>2</trackindex>
							<clipindex>9</clipindex>
						</link>
						<labels>
							<label2>Rose</label2>
						</labels>
					</clipitem>
					<clipitem id="clipitem-S3-A3-10" premiereChannelType="stereo">
						<name>julian_1_2021-11-03_0642_C0178.mov</name>
						<enabled>TRUE</enabled>
						<duration>207</duration>
						<rate>
							<timebase>24</timebase>
							<ntsc>TRUE</ntsc>
						</rate>
						<start>1763</start>
						<end>1969</end>
						<in>1</in>
						<out>207</out>
						<file id="file-116"/>
						<sourcetrack>
							<mediatype>audio</mediatype>
							<trackindex>1</trackindex>
						</sourcetrack>
						<link>
							<linkclipref>clipitem-S3-A3-10</linkclipref>
							<mediatype>audio</mediatype>
							<trackindex>3</trackindex>
							<clipindex>10</clipindex>
							<groupindex>1</groupindex>
						</link>
						<link>
							<linkclipref>clipitem-S3-A4-10</linkclipref>
							<mediatype>audio</mediatype>
							<trackindex>4</trackindex>
							<clipindex>10</clipindex>
							<groupindex>1</groupindex>
						</link>
						<link>
							<linkclipref>clipitem-S3-V2-10</linkclipref>
							<mediatype>video</mediatype>
							<trackindex>2</trackindex>
							<clipindex>10</clipindex>
						</link>
						<labels>
							<label2>Rose</label2>
						</labels>
					</clipitem>
					<clipitem id="clipitem-S3-A3-11" premiereChannelType="stereo">
						<name>julian_1_2021-11-03_0642_C0179.mov</name>
						<enabled>TRUE</enabled>
						<duration>182</duration>
						<rate>
							<timebase>24</timebase>
							<ntsc>TRUE</ntsc>
						</rate>
						<start>1969</start>
						<end>2150</end>
						<in>1</in>
						<out>182</out>
						<file id="file-117"/>
						<sourcetrack>
							<mediatype>audio</mediatype>
							<trackindex>1</trackindex>
						</sourcetrack>
						<link>
							<linkclipref>clipitem-S3-A3-11</linkclipref>
							<mediatype>audio</mediatype>
							<trackindex>3</trackindex>
							<clipindex>11</clipindex>
							<groupindex>1</groupindex>
						</link>
						<link>
							<linkclipref>clipitem-S3-A4-11</linkclipref>
							<mediatype>audio</mediatype>
							<trackindex>4</trackindex>
							<clipindex>11</clipindex>
							<groupindex>1</groupindex>
						</link>
						<link>
							<linkclipref>clipitem-S3-V2-11</linkclipref>
							<mediatype>video</mediatype>
							<trackindex>2</trackindex>
							<clipindex>11</clipindex>
						</link>
						<labels>
							<label2>Rose</label2>
						</labels>
					</clipitem>
					<clipitem id="clipitem-S3-A3-12" premiereChannelType="stereo">
						<name>julian_1_2021-11-03_1040_C0004.mov</name>
						<enabled>TRUE</enabled>
						<duration>292</duration>
						<rate>
							<timebase>24</timebase>
							<ntsc>TRUE</ntsc>
						</rate>
						<start>6568</start>
						<end>6860</end>
						<in>0</in>
						<out>292</out>
						<file id="file-83"/>
						<sourcetrack>
							<mediatype>audio</mediatype>
							<trackindex>1</trackindex>
						</sourcetrack>
						<link>
							<linkclipref>clipitem-S3-A3-12</linkclipref>
							<mediatype>audio</mediatype>
							<trackindex>3</trackindex>
							<clipindex>12</clipindex>
							<groupindex>1</groupindex>
						</link>
						<link>
							<linkclipref>clipitem-S3-A4-12</linkclipref>
							<mediatype>audio</mediatype>
							<trackindex>4</trackindex>
							<clipindex>12</clipindex>
							<groupindex>1</groupindex>
						</link>
						<link>
							<linkclipref>clipitem-S3-V2-12</linkclipref>
							<mediatype>video</mediatype>
							<trackindex>2</trackindex>
							<clipindex>12</clipindex>
						</link>
					</clipitem>
					<clipitem id="clipitem-S3-A3-13" premiereChannelType="stereo">
						<name>julian_1_2021-11-03_1040_C0005.mov</name>
						<enabled>TRUE</enabled>
						<duration>318</duration>
						<rate>
							<timebase>24</timebase>
							<ntsc>TRUE</ntsc>
						</rate>
						<start>7276</start>
						<end>7594</end>
						<in>0</in>
						<out>318</out>
						<file id="file-84"/>
						<sourcetrack>
							<mediatype>audio</mediatype>
							<trackindex>1</trackindex>
						</sourcetrack>
						<link>
							<linkclipref>clipitem-S3-A3-13</linkclipref>
							<mediatype>audio</mediatype>
							<trackindex>3</trackindex>
							<clipindex>13</clipindex>
							<groupindex>1</groupindex>
						</link>
						<link>
							<linkclipref>clipitem-S3-A4-13</linkclipref>
							<mediatype>audio</mediatype>
							<trackindex>4</trackindex>
							<clipindex>13</clipindex>
							<groupindex>1</groupindex>
						</link>
						<link>
							<linkclipref>clipitem-S3-V2-13</linkclipref>
							<mediatype>video</mediatype>
							<trackindex>2</trackindex>
							<clipindex>13</clipindex>
						</link>
					</clipitem>
					<clipitem id="clipitem-S3-A3-14" premiereChannelType="stereo">
						<name>julian_1_2021-11-03_1040_C0006.mov</name>
						<enabled>TRUE</enabled>
						<duration>404</duration>
						<rate>
							<timebase>24</timebase>
							<ntsc>TRUE</ntsc>
						</rate>
						<start>7890</start>
						<end>8294</end>
						<in>0</in>
						<out>404</out>
						<file id="file-85"/>
						<sourcetrack>
							<mediatype>audio</mediatype>
							<trackindex>1</trackindex>
						</sourcetrack>
						<link>
							<linkclipref>clipitem-S3-A3-14</linkclipref>
							<mediatype>audio</mediatype>
							<trackindex>3</trackindex>
							<clipindex>14</clipindex>
							<groupindex>1</groupindex>
						</link>
						<link>
							<linkclipref>clipitem-S3-A4-14</linkclipref>
							<mediatype>audio</mediatype>
							<trackindex>4</trackindex>
							<clipindex>14</clipindex>
							<groupindex>1</groupindex>
						</link>
						<link>
							<linkclipref>clipitem-S3-V2-14</linkclipref>
							<mediatype>video</mediatype>
							<trackindex>2</trackindex>
							<clipindex>14</clipindex>
						</link>
					</clipitem>
					<clipitem id="clipitem-S3-A3-15" premiereChannelType="stereo">
						<name>julian_1_2021-11-03_1041_C0007.mov</name>
						<enabled>TRUE</enabled>
						<duration>471</duration>
						<rate>
							<timebase>24</timebase>
							<ntsc>TRUE</ntsc>
						</rate>
						<start>9134</start>
						<end>9605</end>
						<in>0</in>
						<out>471</out>
						<file id="file-86"/>
						<sourcetrack>
							<mediatype>audio</mediatype>
							<trackindex>1</trackindex>
						</sourcetrack>
						<link>
							<linkclipref>clipitem-S3-A3-15</linkclipref>
							<mediatype>audio</mediatype>
							<trackindex>3</trackindex>
							<clipindex>15</clipindex>
							<groupindex>1</groupindex>
						</link>
						<link>
							<linkclipref>clipitem-S3-A4-15</linkclipref>
							<mediatype>audio</mediatype>
							<trackindex>4</trackindex>
							<clipindex>15</clipindex>
							<groupindex>1</groupindex>
						</link>
						<link>
							<linkclipref>clipitem-S3-V2-15</linkclipref>
							<mediatype>video</mediatype>
							<trackindex>2</trackindex>
							<clipindex>15</clipindex>
						</link>
					</clipitem>
					<clipitem id="clipitem-S3-A3-16" premiereChannelType="stereo">
						<name>julian_1_2021-11-03_1042_C0008.mov</name>
						<enabled>TRUE</enabled>
						<duration>1135</duration>
						<rate>
							<timebase>24</timebase>
							<ntsc>TRUE</ntsc>
						</rate>
						<start>10387</start>
						<end>11522</end>
						<in>0</in>
						<out>1135</out>
						<file id="file-87"/>
						<sourcetrack>
							<mediatype>audio</mediatype>
							<trackindex>1</trackindex>
						</sourcetrack>
						<link>
							<linkclipref>clipitem-S3-A3-16</linkclipref>
							<mediatype>audio</mediatype>
							<trackindex>3</trackindex>
							<clipindex>16</clipindex>
							<groupindex>1</groupindex>
						</link>
						<link>
							<linkclipref>clipitem-S3-A4-16</linkclipref>
							<mediatype>audio</mediatype>
							<trackindex>4</trackindex>
							<clipindex>16</clipindex>
							<groupindex>1</groupindex>
						</link>
						<link>
							<linkclipref>clipitem-S3-V2-16</linkclipref>
							<mediatype>video</mediatype>
							<trackindex>2</trackindex>
							<clipindex>16</clipindex>
						</link>
					</clipitem>
					<clipitem id="clipitem-S3-A3-17" premiereChannelType="stereo">
						<name>julian_1_2021-11-03_1043_C0009.mov</name>
						<enabled>TRUE</enabled>
						<duration>2523</duration>
						<rate>
							<timebase>24</timebase>
							<ntsc>TRUE</ntsc>
						</rate>
						<start>12130</start>
						<end>14653</end>
						<in>0</in>
						<out>2523</out>
						<file id="file-88"/>
						<sourcetrack>
							<mediatype>audio</mediatype>
							<trackindex>1</trackindex>
						</sourcetrack>
						<link>
							<linkclipref>clipitem-S3-A3-17</linkclipref>
							<mediatype>audio</mediatype>
							<trackindex>3</trackindex>
							<clipindex>17</clipindex>
							<groupindex>1</groupindex>
						</link>
						<link>
							<linkclipref>clipitem-S3-A4-17</linkclipref>
							<mediatype>audio</mediatype>
							<trackindex>4</trackindex>
							<clipindex>17</clipindex>
							<groupindex>1</groupindex>
						</link>
						<link>
							<linkclipref>clipitem-S3-V2-17</linkclipref>
							<mediatype>video</mediatype>
							<trackindex>2</trackindex>
							<clipindex>17</clipindex>
						</link>
					</clipitem>
					<clipitem id="clipitem-S3-A3-18" premiereChannelType="stereo">
						<name>julian_1_2021-11-03_1045_C0010.mov</name>
						<enabled>TRUE</enabled>
						<duration>888</duration>
						<rate>
							<timebase>24</timebase>
							<ntsc>TRUE</ntsc>
						</rate>
						<start>14986</start>
						<end>15874</end>
						<in>0</in>
						<out>888</out>
						<file id="file-89"/>
						<sourcetrack>
							<mediatype>audio</mediatype>
							<trackindex>1</trackindex>
						</sourcetrack>
						<link>
							<linkclipref>clipitem-S3-A3-18</linkclipref>
							<mediatype>audio</mediatype>
							<trackindex>3</trackindex>
							<clipindex>18</clipindex>
							<groupindex>1</groupindex>
						</link>
						<link>
							<linkclipref>clipitem-S3-A4-18</linkclipref>
							<mediatype>audio</mediatype>
							<trackindex>4</trackindex>
							<clipindex>18</clipindex>
							<groupindex>1</groupindex>
						</link>
						<link>
							<linkclipref>clipitem-S3-V2-18</linkclipref>
							<mediatype>video</mediatype>
							<trackindex>2</trackindex>
							<clipindex>18</clipindex>
						</link>
					</clipitem>
					<clipitem id="clipitem-S3-A3-19" premiereChannelType="stereo">
						<name>julian_1_2021-11-03_1046_C0011.mov</name>
						<enabled>TRUE</enabled>
						<duration>571</duration>
						<rate>
							<timebase>24</timebase>
							<ntsc>TRUE</ntsc>
						</rate>
						<start>15929</start>
						<end>16500</end>
						<in>0</in>
						<out>571</out>
						<file id="file-90"/>
						<sourcetrack>
							<mediatype>audio</mediatype>
							<trackindex>1</trackindex>
						</sourcetrack>
						<link>
							<linkclipref>clipitem-S3-A3-19</linkclipref>
							<mediatype>audio</mediatype>
							<trackindex>3</trackindex>
							<clipindex>19</clipindex>
							<groupindex>1</groupindex>
						</link>
						<link>
							<linkclipref>clipitem-S3-A4-19</linkclipref>
							<mediatype>audio</mediatype>
							<trackindex>4</trackindex>
							<clipindex>19</clipindex>
							<groupindex>1</groupindex>
						</link>
						<link>
							<linkclipref>clipitem-S3-V2-19</linkclipref>
							<mediatype>video</mediatype>
							<trackindex>2</trackindex>
							<clipindex>19</clipindex>
						</link>
					</clipitem>
					<clipitem id="clipitem-S3-A3-20" premiereChannelType="stereo">
						<name>julian_1_2021-11-03_1047_C0012.mov</name>
						<enabled>TRUE</enabled>
						<duration>5635</duration>
						<rate>
							<timebase>24</timebase>
							<ntsc>TRUE</ntsc>
						</rate>
						<start>17068</start>
						<end>22703</end>
						<in>0</in>
						<out>5635</out>
						<file id="file-91"/>
						<sourcetrack>
							<mediatype>audio</mediatype>
							<trackindex>1</trackindex>
						</sourcetrack>
						<link>
							<linkclipref>clipitem-S3-A3-20</linkclipref>
							<mediatype>audio</mediatype>
							<trackindex>3</trackindex>
							<clipindex>20</clipindex>
							<groupindex>1</groupindex>
						</link>
						<link>
							<linkclipref>clipitem-S3-A4-20</linkclipref>
							<mediatype>audio</mediatype>
							<trackindex>4</trackindex>
							<clipindex>20</clipindex>
							<groupindex>1</groupindex>
						</link>
						<link>
							<linkclipref>clipitem-S3-V2-20</linkclipref>
							<mediatype>video</mediatype>
							<trackindex>2</trackindex>
							<clipindex>20</clipindex>
						</link>
					</clipitem>
					<clipitem id="clipitem-S3-A3-21" premiereChannelType="stereo">
						<name>julian_1_2021-11-03_1051_C0013.mov</name>
						<enabled>TRUE</enabled>
						<duration>107</duration>
						<rate>
							<timebase>24</timebase>
							<ntsc>TRUE</ntsc>
						</rate>
						<start>23156</start>
						<end>23263</end>
						<in>0</in>
						<out>107</out>
						<file id="file-92"/>
						<sourcetrack>
							<mediatype>audio</mediatype>
							<trackindex>1</trackindex>
						</sourcetrack>
						<link>
							<linkclipref>clipitem-S3-A3-21</linkclipref>
							<mediatype>audio</mediatype>
							<trackindex>3</trackindex>
							<clipindex>21</clipindex>
							<groupindex>1</groupindex>
						</link>
						<link>
							<linkclipref>clipitem-S3-A4-21</linkclipref>
							<mediatype>audio</mediatype>
							<trackindex>4</trackindex>
							<clipindex>21</clipindex>
							<groupindex>1</groupindex>
						</link>
						<link>
							<linkclipref>clipitem-S3-V2-21</linkclipref>
							<mediatype>video</mediatype>
							<trackindex>2</trackindex>
							<clipindex>21</clipindex>
						</link>
					</clipitem>
					<clipitem id="clipitem-S3-A3-22" premiereChannelType="stereo">
						<name>julian_1_2021-11-03_1051_C0014.mov</name>
						<enabled>TRUE</enabled>
						<duration>3534</duration>
						<rate>
							<timebase>24</timebase>
							<ntsc>TRUE</ntsc>
						</rate>
						<start>23442</start>
						<end>26976</end>
						<in>0</in>
						<out>3534</out>
						<file id="file-93"/>
						<sourcetrack>
							<mediatype>audio</mediatype>
							<trackindex>1</trackindex>
						</sourcetrack>
						<link>
							<linkclipref>clipitem-S3-A3-22</linkclipref>
							<mediatype>audio</mediatype>
							<trackindex>3</trackindex>
							<clipindex>22</clipindex>
							<groupindex>1</groupindex>
						</link>
						<link>
							<linkclipref>clipitem-S3-A4-22</linkclipref>
							<mediatype>audio</mediatype>
							<trackindex>4</trackindex>
							<clipindex>22</clipindex>
							<groupindex>1</groupindex>
						</link>
						<link>
							<linkclipref>clipitem-S3-V2-22</linkclipref>
							<mediatype>video</mediatype>
							<trackindex>2</trackindex>
							<clipindex>22</clipindex>
						</link>
					</clipitem>
					<clipitem id="clipitem-S3-A3-23" premiereChannelType="stereo">
						<name>julian_1_2021-11-03_1054_C0015.mov</name>
						<enabled>TRUE</enabled>
						<duration>5001</duration>
						<rate>
							<timebase>24</timebase>
							<ntsc>TRUE</ntsc>
						</rate>
						<start>27422</start>
						<end>32423</end>
						<in>0</in>
						<out>5001</out>
						<file id="file-94"/>
						<sourcetrack>
							<mediatype>audio</mediatype>
							<trackindex>1</trackindex>
						</sourcetrack>
						<link>
							<linkclipref>clipitem-S3-A3-23</linkclipref>
							<mediatype>audio</mediatype>
							<trackindex>3</trackindex>
							<clipindex>23</clipindex>
							<groupindex>1</groupindex>
						</link>
						<link>
							<linkclipref>clipitem-S3-A4-23</linkclipref>
							<mediatype>audio</mediatype>
							<trackindex>4</trackindex>
							<clipindex>23</clipindex>
							<groupindex>1</groupindex>
						</link>
						<link>
							<linkclipref>clipitem-S3-V2-23</linkclipref>
							<mediatype>video</mediatype>
							<trackindex>2</trackindex>
							<clipindex>23</clipindex>
						</link>
					</clipitem>
					<clipitem id="clipitem-S3-A3-24" premiereChannelType="stereo">
						<name>julian_1_2021-11-03_1058_C0016.mov</name>
						<enabled>TRUE</enabled>
						<duration>309</duration>
						<rate>
							<timebase>24</timebase>
							<ntsc>TRUE</ntsc>
						</rate>
						<start>33544</start>
						<end>33853</end>
						<in>0</in>
						<out>309</out>
						<file id="file-95"/>
						<sourcetrack>
							<mediatype>audio</mediatype>
							<trackindex>1</trackindex>
						</sourcetrack>
						<link>
							<linkclipref>clipitem-S3-A3-24</linkclipref>
							<mediatype>audio</mediatype>
							<trackindex>3</trackindex>
							<clipindex>24</clipindex>
							<groupindex>1</groupindex>
						</link>
						<link>
							<linkclipref>clipitem-S3-A4-24</linkclipref>
							<mediatype>audio</mediatype>
							<trackindex>4</trackindex>
							<clipindex>24</clipindex>
							<groupindex>1</groupindex>
						</link>
						<link>
							<linkclipref>clipitem-S3-V2-24</linkclipref>
							<mediatype>video</mediatype>
							<trackindex>2</trackindex>
							<clipindex>24</clipindex>
						</link>
					</clipitem>
					<clipitem id="clipitem-S3-A3-25" premiereChannelType="stereo">
						<name>julian_1_2021-11-03_1059_C0017.mov</name>
						<enabled>TRUE</enabled>
						<duration>1101</duration>
						<rate>
							<timebase>24</timebase>
							<ntsc>TRUE</ntsc>
						</rate>
						<start>34483</start>
						<end>35584</end>
						<in>0</in>
						<out>1101</out>
						<file id="file-96"/>
						<sourcetrack>
							<mediatype>audio</mediatype>
							<trackindex>1</trackindex>
						</sourcetrack>
						<link>
							<linkclipref>clipitem-S3-A3-25</linkclipref>
							<mediatype>audio</mediatype>
							<trackindex>3</trackindex>
							<clipindex>25</clipindex>
							<groupindex>1</groupindex>
						</link>
						<link>
							<linkclipref>clipitem-S3-A4-25</linkclipref>
							<mediatype>audio</mediatype>
							<trackindex>4</trackindex>
							<clipindex>25</clipindex>
							<groupindex>1</groupindex>
						</link>
						<link>
							<linkclipref>clipitem-S3-V2-25</linkclipref>
							<mediatype>video</mediatype>
							<trackindex>2</trackindex>
							<clipindex>25</clipindex>
						</link>
					</clipitem>
					<clipitem id="clipitem-S3-A3-26" premiereChannelType="stereo">
						<name>julian_1_2021-11-03_1100_C0018.mov</name>
						<enabled>TRUE</enabled>
						<duration>4359</duration>
						<rate>
							<timebase>24</timebase>
							<ntsc>TRUE</ntsc>
						</rate>
						<start>36582</start>
						<end>40941</end>
						<in>0</in>
						<out>4359</out>
						<file id="file-97"/>
						<sourcetrack>
							<mediatype>audio</mediatype>
							<trackindex>1</trackindex>
						</sourcetrack>
						<link>
							<linkclipref>clipitem-S3-A3-26</linkclipref>
							<mediatype>audio</mediatype>
							<trackindex>3</trackindex>
							<clipindex>26</clipindex>
							<groupindex>1</groupindex>
						</link>
						<link>
							<linkclipref>clipitem-S3-A4-26</linkclipref>
							<mediatype>audio</mediatype>
							<trackindex>4</trackindex>
							<clipindex>26</clipindex>
							<groupindex>1</groupindex>
						</link>
						<link>
							<linkclipref>clipitem-S3-V2-26</linkclipref>
							<mediatype>video</mediatype>
							<trackindex>2</trackindex>
							<clipindex>26</clipindex>
						</link>
					</clipitem>
					<clipitem id="clipitem-S3-A3-27" premiereChannelType="stereo">
						<name>julian_1_2021-11-03_1104_C0019.mov</name>
						<enabled>TRUE</enabled>
						<duration>282</duration>
						<rate>
							<timebase>24</timebase>
							<ntsc>TRUE</ntsc>
						</rate>
						<start>41454</start>
						<end>41736</end>
						<in>0</in>
						<out>282</out>
						<file id="file-98"/>
						<sourcetrack>
							<mediatype>audio</mediatype>
							<trackindex>1</trackindex>
						</sourcetrack>
						<link>
							<linkclipref>clipitem-S3-A3-27</linkclipref>
							<mediatype>audio</mediatype>
							<trackindex>3</trackindex>
							<clipindex>27</clipindex>
							<groupindex>1</groupindex>
						</link>
						<link>
							<linkclipref>clipitem-S3-A4-27</linkclipref>
							<mediatype>audio</mediatype>
							<trackindex>4</trackindex>
							<clipindex>27</clipindex>
							<groupindex>1</groupindex>
						</link>
						<link>
							<linkclipref>clipitem-S3-V2-27</linkclipref>
							<mediatype>video</mediatype>
							<trackindex>2</trackindex>
							<clipindex>27</clipindex>
						</link>
					</clipitem>
					<clipitem id="clipitem-S3-A3-28" premiereChannelType="stereo">
						<name>julian_1_2021-11-03_1105_C0020.mov</name>
						<enabled>TRUE</enabled>
						<duration>1115</duration>
						<rate>
							<timebase>24</timebase>
							<ntsc>TRUE</ntsc>
						</rate>
						<start>42792</start>
						<end>43907</end>
						<in>0</in>
						<out>1115</out>
						<file id="file-99"/>
						<sourcetrack>
							<mediatype>audio</mediatype>
							<trackindex>1</trackindex>
						</sourcetrack>
						<link>
							<linkclipref>clipitem-S3-A3-28</linkclipref>
							<mediatype>audio</mediatype>
							<trackindex>3</trackindex>
							<clipindex>28</clipindex>
							<groupindex>1</groupindex>
						</link>
						<link>
							<linkclipref>clipitem-S3-A4-28</linkclipref>
							<mediatype>audio</mediatype>
							<trackindex>4</trackindex>
							<clipindex>28</clipindex>
							<groupindex>1</groupindex>
						</link>
						<link>
							<linkclipref>clipitem-S3-V2-28</linkclipref>
							<mediatype>video</mediatype>
							<trackindex>2</trackindex>
							<clipindex>28</clipindex>
						</link>
					</clipitem>
					<clipitem id="clipitem-S3-A3-29" premiereChannelType="stereo">
						<name>julian_1_2021-11-03_1106_C0021.mov</name>
						<enabled>TRUE</enabled>
						<duration>192</duration>
						<rate>
							<timebase>24</timebase>
							<ntsc>TRUE</ntsc>
						</rate>
						<start>44649</start>
						<end>44841</end>
						<in>0</in>
						<out>192</out>
						<file id="file-100"/>
						<sourcetrack>
							<mediatype>audio</mediatype>
							<trackindex>1</trackindex>
						</sourcetrack>
						<link>
							<linkclipref>clipitem-S3-A3-29</linkclipref>
							<mediatype>audio</mediatype>
							<trackindex>3</trackindex>
							<clipindex>29</clipindex>
							<groupindex>1</groupindex>
						</link>
						<link>
							<linkclipref>clipitem-S3-A4-29</linkclipref>
							<mediatype>audio</mediatype>
							<trackindex>4</trackindex>
							<clipindex>29</clipindex>
							<groupindex>1</groupindex>
						</link>
						<link>
							<linkclipref>clipitem-S3-V2-29</linkclipref>
							<mediatype>video</mediatype>
							<trackindex>2</trackindex>
							<clipindex>29</clipindex>
						</link>
					</clipitem>
					<clipitem id="clipitem-S3-A3-30" premiereChannelType="stereo">
						<name>julian_1_2021-11-03_1106_C0022.mov</name>
						<enabled>TRUE</enabled>
						<duration>504</duration>
						<rate>
							<timebase>24</timebase>
							<ntsc>TRUE</ntsc>
						</rate>
						<start>45236</start>
						<end>45740</end>
						<in>0</in>
						<out>504</out>
						<file id="file-101"/>
						<sourcetrack>
							<mediatype>audio</mediatype>
							<trackindex>1</trackindex>
						</sourcetrack>
						<link>
							<linkclipref>clipitem-S3-A3-30</linkclipref>
							<mediatype>audio</mediatype>
							<trackindex>3</trackindex>
							<clipindex>30</clipindex>
							<groupindex>1</groupindex>
						</link>
						<link>
							<linkclipref>clipitem-S3-A4-30</linkclipref>
							<mediatype>audio</mediatype>
							<trackindex>4</trackindex>
							<clipindex>30</clipindex>
							<groupindex>1</groupindex>
						</link>
						<link>
							<linkclipref>clipitem-S3-V2-30</linkclipref>
							<mediatype>video</mediatype>
							<trackindex>2</trackindex>
							<clipindex>30</clipindex>
						</link>
					</clipitem>
					<clipitem id="clipitem-S3-A3-31" premiereChannelType="stereo">
						<name>julian_1_2021-11-03_1108_C0023.mov</name>
						<enabled>TRUE</enabled>
						<duration>840</duration>
						<rate>
							<timebase>24</timebase>
							<ntsc>TRUE</ntsc>
						</rate>
						<start>47799</start>
						<end>48639</end>
						<in>0</in>
						<out>840</out>
						<file id="file-102"/>
						<sourcetrack>
							<mediatype>audio</mediatype>
							<trackindex>1</trackindex>
						</sourcetrack>
						<link>
							<linkclipref>clipitem-S3-A3-31</linkclipref>
							<mediatype>audio</mediatype>
							<trackindex>3</trackindex>
							<clipindex>31</clipindex>
							<groupindex>1</groupindex>
						</link>
						<link>
							<linkclipref>clipitem-S3-A4-31</linkclipref>
							<mediatype>audio</mediatype>
							<trackindex>4</trackindex>
							<clipindex>31</clipindex>
							<groupindex>1</groupindex>
						</link>
						<link>
							<linkclipref>clipitem-S3-V2-31</linkclipref>
							<mediatype>video</mediatype>
							<trackindex>2</trackindex>
							<clipindex>31</clipindex>
						</link>
					</clipitem>
					<clipitem id="clipitem-S3-A3-32" premiereChannelType="stereo">
						<name>julian_1_2021-11-03_1109_C0024.mov</name>
						<enabled>TRUE</enabled>
						<duration>1022</duration>
						<rate>
							<timebase>24</timebase>
							<ntsc>TRUE</ntsc>
						</rate>
						<start>49367</start>
						<end>50389</end>
						<in>0</in>
						<out>1022</out>
						<file id="file-103"/>
						<sourcetrack>
							<mediatype>audio</mediatype>
							<trackindex>1</trackindex>
						</sourcetrack>
						<link>
							<linkclipref>clipitem-S3-A3-32</linkclipref>
							<mediatype>audio</mediatype>
							<trackindex>3</trackindex>
							<clipindex>32</clipindex>
							<groupindex>1</groupindex>
						</link>
						<link>
							<linkclipref>clipitem-S3-A4-32</linkclipref>
							<mediatype>audio</mediatype>
							<trackindex>4</trackindex>
							<clipindex>32</clipindex>
							<groupindex>1</groupindex>
						</link>
						<link>
							<linkclipref>clipitem-S3-V2-32</linkclipref>
							<mediatype>video</mediatype>
							<trackindex>2</trackindex>
							<clipindex>32</clipindex>
						</link>
					</clipitem>
					<clipitem id="clipitem-S3-A3-33" premiereChannelType="stereo">
						<name>julian_1_2021-11-03_1112_C0025.mov</name>
						<enabled>TRUE</enabled>
						<duration>413</duration>
						<rate>
							<timebase>24</timebase>
							<ntsc>TRUE</ntsc>
						</rate>
						<start>52620</start>
						<end>53033</end>
						<in>0</in>
						<out>413</out>
						<file id="file-104"/>
						<sourcetrack>
							<mediatype>audio</mediatype>
							<trackindex>1</trackindex>
						</sourcetrack>
						<link>
							<linkclipref>clipitem-S3-A3-33</linkclipref>
							<mediatype>audio</mediatype>
							<trackindex>3</trackindex>
							<clipindex>33</clipindex>
							<groupindex>1</groupindex>
						</link>
						<link>
							<linkclipref>clipitem-S3-A4-33</linkclipref>
							<mediatype>audio</mediatype>
							<trackindex>4</trackindex>
							<clipindex>33</clipindex>
							<groupindex>1</groupindex>
						</link>
						<link>
							<linkclipref>clipitem-S3-V2-33</linkclipref>
							<mediatype>video</mediatype>
							<trackindex>2</trackindex>
							<clipindex>33</clipindex>
						</link>
					</clipitem>
					<clipitem id="clipitem-S3-A3-34" premiereChannelType="stereo">
						<name>julian_1_2021-11-03_1145_C0027.mov</name>
						<enabled>TRUE</enabled>
						<duration>304</duration>
						<rate>
							<timebase>24</timebase>
							<ntsc>TRUE</ntsc>
						</rate>
						<start>55056</start>
						<end>55360</end>
						<in>0</in>
						<out>304</out>
						<file id="file-105"/>
						<sourcetrack>
							<mediatype>audio</mediatype>
							<trackindex>1</trackindex>
						</sourcetrack>
						<link>
							<linkclipref>clipitem-S3-A3-34</linkclipref>
							<mediatype>audio</mediatype>
							<trackindex>3</trackindex>
							<clipindex>34</clipindex>
							<groupindex>1</groupindex>
						</link>
						<link>
							<linkclipref>clipitem-S3-A4-34</linkclipref>
							<mediatype>audio</mediatype>
							<trackindex>4</trackindex>
							<clipindex>34</clipindex>
							<groupindex>1</groupindex>
						</link>
						<link>
							<linkclipref>clipitem-S3-V2-34</linkclipref>
							<mediatype>video</mediatype>
							<trackindex>2</trackindex>
							<clipindex>34</clipindex>
						</link>
						<labels>
							<label2>Rose</label2>
						</labels>
					</clipitem>
					<clipitem id="clipitem-S3-A3-35" premiereChannelType="stereo">
						<name>julian_1_2021-11-03_1147_C0031.mov</name>
						<enabled>TRUE</enabled>
						<duration>512</duration>
						<rate>
							<timebase>24</timebase>
							<ntsc>TRUE</ntsc>
						</rate>
						<start>55360</start>
						<end>55871</end>
						<in>1</in>
						<out>512</out>
						<file id="file-106"/>
						<sourcetrack>
							<mediatype>audio</mediatype>
							<trackindex>1</trackindex>
						</sourcetrack>
						<link>
							<linkclipref>clipitem-S3-A3-35</linkclipref>
							<mediatype>audio</mediatype>
							<trackindex>3</trackindex>
							<clipindex>35</clipindex>
							<groupindex>1</groupindex>
						</link>
						<link>
							<linkclipref>clipitem-S3-A4-35</linkclipref>
							<mediatype>audio</mediatype>
							<trackindex>4</trackindex>
							<clipindex>35</clipindex>
							<groupindex>1</groupindex>
						</link>
						<link>
							<linkclipref>clipitem-S3-V2-35</linkclipref>
							<mediatype>video</mediatype>
							<trackindex>2</trackindex>
							<clipindex>35</clipindex>
						</link>
						<labels>
							<label2>Rose</label2>
						</labels>
					</clipitem>
					<enabled>TRUE</enabled>
					<locked>FALSE</locked>
					<outputchannelindex>1</outputchannelindex>
				</track>
				<track currentExplodedTrackIndex="1" totalExplodedTrackCount="2" premiereTrackType="Stereo">
					<clipitem id="clipitem-S3-A4-1" premiereChannelType="stereo">
						<name>julian_1_2021-11-02_1017_C0112.mov</name>
						<enabled>TRUE</enabled>
						<duration>68</duration>
						<rate>
							<timebase>24</timebase>
							<ntsc>TRUE</ntsc>
						</rate>
						<start>0</start>
						<end>68</end>
						<in>0</in>
						<out>68</out>
						<file id="file-107"/>
						<sourcetrack>
							<mediatype>audio</mediatype>
							<trackindex>2</trackindex>
						</sourcetrack>
						<link>
							<linkclipref>clipitem-S3-A3-1</linkclipref>
							<mediatype>audio</mediatype>
							<trackindex>3</trackindex>
							<clipindex>1</clipindex>
							<groupindex>1</groupindex>
						</link>
						<link>
							<linkclipref>clipitem-S3-A4-1</linkclipref>
							<mediatype>audio</mediatype>
							<trackindex>4</trackindex>
							<clipindex>1</clipindex>
							<groupindex>1</groupindex>
						</link>
						<link>
							<linkclipref>clipitem-S3-V2-1</linkclipref>
							<mediatype>video</mediatype>
							<trackindex>2</trackindex>
							<clipindex>1</clipindex>
						</link>
						<labels>
							<label2>Rose</label2>
						</labels>
					</clipitem>
					<clipitem id="clipitem-S3-A4-2" premiereChannelType="stereo">
						<name>julian_1_2021-11-02_1018_C0114.mov</name>
						<enabled>TRUE</enabled>
						<duration>116</duration>
						<rate>
							<timebase>24</timebase>
							<ntsc>TRUE</ntsc>
						</rate>
						<start>68</start>
						<end>183</end>
						<in>1</in>
						<out>116</out>
						<file id="file-108"/>
						<sourcetrack>
							<mediatype>audio</mediatype>
							<trackindex>2</trackindex>
						</sourcetrack>
						<link>
							<linkclipref>clipitem-S3-A3-2</linkclipref>
							<mediatype>audio</mediatype>
							<trackindex>3</trackindex>
							<clipindex>2</clipindex>
							<groupindex>1</groupindex>
						</link>
						<link>
							<linkclipref>clipitem-S3-A4-2</linkclipref>
							<mediatype>audio</mediatype>
							<trackindex>4</trackindex>
							<clipindex>2</clipindex>
							<groupindex>1</groupindex>
						</link>
						<link>
							<linkclipref>clipitem-S3-V2-2</linkclipref>
							<mediatype>video</mediatype>
							<trackindex>2</trackindex>
							<clipindex>2</clipindex>
						</link>
						<labels>
							<label2>Rose</label2>
						</labels>
					</clipitem>
					<clipitem id="clipitem-S3-A4-3" premiereChannelType="stereo">
						<name>julian_1_2021-11-02_1018_C0115.mov</name>
						<enabled>TRUE</enabled>
						<duration>91</duration>
						<rate>
							<timebase>24</timebase>
							<ntsc>TRUE</ntsc>
						</rate>
						<start>183</start>
						<end>273</end>
						<in>1</in>
						<out>91</out>
						<file id="file-109"/>
						<sourcetrack>
							<mediatype>audio</mediatype>
							<trackindex>2</trackindex>
						</sourcetrack>
						<link>
							<linkclipref>clipitem-S3-A3-3</linkclipref>
							<mediatype>audio</mediatype>
							<trackindex>3</trackindex>
							<clipindex>3</clipindex>
							<groupindex>1</groupindex>
						</link>
						<link>
							<linkclipref>clipitem-S3-A4-3</linkclipref>
							<mediatype>audio</mediatype>
							<trackindex>4</trackindex>
							<clipindex>3</clipindex>
							<groupindex>1</groupindex>
						</link>
						<link>
							<linkclipref>clipitem-S3-V2-3</linkclipref>
							<mediatype>video</mediatype>
							<trackindex>2</trackindex>
							<clipindex>3</clipindex>
						</link>
						<labels>
							<label2>Rose</label2>
						</labels>
					</clipitem>
					<clipitem id="clipitem-S3-A4-4" premiereChannelType="stereo">
						<name>julian_1_2021-11-02_1024_C0129.mov</name>
						<enabled>TRUE</enabled>
						<duration>77</duration>
						<rate>
							<timebase>24</timebase>
							<ntsc>TRUE</ntsc>
						</rate>
						<start>273</start>
						<end>349</end>
						<in>1</in>
						<out>77</out>
						<file id="file-110"/>
						<sourcetrack>
							<mediatype>audio</mediatype>
							<trackindex>2</trackindex>
						</sourcetrack>
						<link>
							<linkclipref>clipitem-S3-A3-4</linkclipref>
							<mediatype>audio</mediatype>
							<trackindex>3</trackindex>
							<clipindex>4</clipindex>
							<groupindex>1</groupindex>
						</link>
						<link>
							<linkclipref>clipitem-S3-A4-4</linkclipref>
							<mediatype>audio</mediatype>
							<trackindex>4</trackindex>
							<clipindex>4</clipindex>
							<groupindex>1</groupindex>
						</link>
						<link>
							<linkclipref>clipitem-S3-V2-4</linkclipref>
							<mediatype>video</mediatype>
							<trackindex>2</trackindex>
							<clipindex>4</clipindex>
						</link>
						<labels>
							<label2>Rose</label2>
						</labels>
					</clipitem>
					<clipitem id="clipitem-S3-A4-5" premiereChannelType="stereo">
						<name>julian_1_2021-11-02_1025_C0130.mov</name>
						<enabled>TRUE</enabled>
						<duration>135</duration>
						<rate>
							<timebase>24</timebase>
							<ntsc>TRUE</ntsc>
						</rate>
						<start>349</start>
						<end>483</end>
						<in>1</in>
						<out>135</out>
						<file id="file-111"/>
						<sourcetrack>
							<mediatype>audio</mediatype>
							<trackindex>2</trackindex>
						</sourcetrack>
						<link>
							<linkclipref>clipitem-S3-A3-5</linkclipref>
							<mediatype>audio</mediatype>
							<trackindex>3</trackindex>
							<clipindex>5</clipindex>
							<groupindex>1</groupindex>
						</link>
						<link>
							<linkclipref>clipitem-S3-A4-5</linkclipref>
							<mediatype>audio</mediatype>
							<trackindex>4</trackindex>
							<clipindex>5</clipindex>
							<groupindex>1</groupindex>
						</link>
						<link>
							<linkclipref>clipitem-S3-V2-5</linkclipref>
							<mediatype>video</mediatype>
							<trackindex>2</trackindex>
							<clipindex>5</clipindex>
						</link>
						<labels>
							<label2>Rose</label2>
						</labels>
					</clipitem>
					<clipitem id="clipitem-S3-A4-6" premiereChannelType="stereo">
						<name>julian_1_2021-11-02_1106_C0135.mov</name>
						<enabled>TRUE</enabled>
						<duration>279</duration>
						<rate>
							<timebase>24</timebase>
							<ntsc>TRUE</ntsc>
						</rate>
						<start>483</start>
						<end>761</end>
						<in>1</in>
						<out>279</out>
						<file id="file-112"/>
						<sourcetrack>
							<mediatype>audio</mediatype>
							<trackindex>2</trackindex>
						</sourcetrack>
						<link>
							<linkclipref>clipitem-S3-A3-6</linkclipref>
							<mediatype>audio</mediatype>
							<trackindex>3</trackindex>
							<clipindex>6</clipindex>
							<groupindex>1</groupindex>
						</link>
						<link>
							<linkclipref>clipitem-S3-A4-6</linkclipref>
							<mediatype>audio</mediatype>
							<trackindex>4</trackindex>
							<clipindex>6</clipindex>
							<groupindex>1</groupindex>
						</link>
						<link>
							<linkclipref>clipitem-S3-V2-6</linkclipref>
							<mediatype>video</mediatype>
							<trackindex>2</trackindex>
							<clipindex>6</clipindex>
						</link>
						<labels>
							<label2>Rose</label2>
						</labels>
					</clipitem>
					<clipitem id="clipitem-S3-A4-7" premiereChannelType="stereo">
						<name>julian_1_2021-11-02_1106_C0136.mov</name>
						<enabled>TRUE</enabled>
						<duration>506</duration>
						<rate>
							<timebase>24</timebase>
							<ntsc>TRUE</ntsc>
						</rate>
						<start>761</start>
						<end>1266</end>
						<in>1</in>
						<out>506</out>
						<file id="file-113"/>
						<sourcetrack>
							<mediatype>audio</mediatype>
							<trackindex>2</trackindex>
						</sourcetrack>
						<link>
							<linkclipref>clipitem-S3-A3-7</linkclipref>
							<mediatype>audio</mediatype>
							<trackindex>3</trackindex>
							<clipindex>7</clipindex>
							<groupindex>1</groupindex>
						</link>
						<link>
							<linkclipref>clipitem-S3-A4-7</linkclipref>
							<mediatype>audio</mediatype>
							<trackindex>4</trackindex>
							<clipindex>7</clipindex>
							<groupindex>1</groupindex>
						</link>
						<link>
							<linkclipref>clipitem-S3-V2-7</linkclipref>
							<mediatype>video</mediatype>
							<trackindex>2</trackindex>
							<clipindex>7</clipindex>
						</link>
						<labels>
							<label2>Rose</label2>
						</labels>
					</clipitem>
					<clipitem id="clipitem-S3-A4-8" premiereChannelType="stereo">
						<name>julian_1_2021-11-02_1107_C0137.mov</name>
						<enabled>TRUE</enabled>
						<duration>421</duration>
						<rate>
							<timebase>24</timebase>
							<ntsc>TRUE</ntsc>
						</rate>
						<start>1266</start>
						<end>1686</end>
						<in>1</in>
						<out>421</out>
						<file id="file-114"/>
						<sourcetrack>
							<mediatype>audio</mediatype>
							<trackindex>2</trackindex>
						</sourcetrack>
						<link>
							<linkclipref>clipitem-S3-A3-8</linkclipref>
							<mediatype>audio</mediatype>
							<trackindex>3</trackindex>
							<clipindex>8</clipindex>
							<groupindex>1</groupindex>
						</link>
						<link>
							<linkclipref>clipitem-S3-A4-8</linkclipref>
							<mediatype>audio</mediatype>
							<trackindex>4</trackindex>
							<clipindex>8</clipindex>
							<groupindex>1</groupindex>
						</link>
						<link>
							<linkclipref>clipitem-S3-V2-8</linkclipref>
							<mediatype>video</mediatype>
							<trackindex>2</trackindex>
							<clipindex>8</clipindex>
						</link>
						<labels>
							<label2>Rose</label2>
						</labels>
					</clipitem>
					<clipitem id="clipitem-S3-A4-9" premiereChannelType="stereo">
						<name>julian_1_2021-11-02_1108_C0138.mov</name>
						<enabled>TRUE</enabled>
						<duration>78</duration>
						<rate>
							<timebase>24</timebase>
							<ntsc>TRUE</ntsc>
						</rate>
						<start>1686</start>
						<end>1763</end>
						<in>1</in>
						<out>78</out>
						<file id="file-115"/>
						<sourcetrack>
							<mediatype>audio</mediatype>
							<trackindex>2</trackindex>
						</sourcetrack>
						<link>
							<linkclipref>clipitem-S3-A3-9</linkclipref>
							<mediatype>audio</mediatype>
							<trackindex>3</trackindex>
							<clipindex>9</clipindex>
							<groupindex>1</groupindex>
						</link>
						<link>
							<linkclipref>clipitem-S3-A4-9</linkclipref>
							<mediatype>audio</mediatype>
							<trackindex>4</trackindex>
							<clipindex>9</clipindex>
							<groupindex>1</groupindex>
						</link>
						<link>
							<linkclipref>clipitem-S3-V2-9</linkclipref>
							<mediatype>video</mediatype>
							<trackindex>2</trackindex>
							<clipindex>9</clipindex>
						</link>
						<labels>
							<label2>Rose</label2>
						</labels>
					</clipitem>
					<clipitem id="clipitem-S3-A4-10" premiereChannelType="stereo">
						<name>julian_1_2021-11-03_0642_C0178.mov</name>
						<enabled>TRUE</enabled>
						<duration>207</duration>
						<rate>
							<timebase>24</timebase>
							<ntsc>TRUE</ntsc>
						</rate>
						<start>1763</start>
						<end>1969</end>
						<in>1</in>
						<out>207</out>
						<file id="file-116"/>
						<sourcetrack>
							<mediatype>audio</mediatype>
							<trackindex>2</trackindex>
						</sourcetrack>
						<link>
							<linkclipref>clipitem-S3-A3-10</linkclipref>
							<mediatype>audio</mediatype>
							<trackindex>3</trackindex>
							<clipindex>10</clipindex>
							<groupindex>1</groupindex>
						</link>
						<link>
							<linkclipref>clipitem-S3-A4-10</linkclipref>
							<mediatype>audio</mediatype>
							<trackindex>4</trackindex>
							<clipindex>10</clipindex>
							<groupindex>1</groupindex>
						</link>
						<link>
							<linkclipref>clipitem-S3-V2-10</linkclipref>
							<mediatype>video</mediatype>
							<trackindex>2</trackindex>
							<clipindex>10</clipindex>
						</link>
						<labels>
							<label2>Rose</label2>
						</labels>
					</clipitem>
					<clipitem id="clipitem-S3-A4-11" premiereChannelType="stereo">
						<name>julian_1_2021-11-03_0642_C0179.mov</name>
						<enabled>TRUE</enabled>
						<duration>182</duration>
						<rate>
							<timebase>24</timebase>
							<ntsc>TRUE</ntsc>
						</rate>
						<start>1969</start>
						<end>2150</end>
						<in>1</in>
						<out>182</out>
						<file id="file-117"/>
						<sourcetrack>
							<mediatype>audio</mediatype>
							<trackindex>2</trackindex>
						</sourcetrack>
						<link>
							<linkclipref>clipitem-S3-A3-11</linkclipref>
							<mediatype>audio</mediatype>
							<trackindex>3</trackindex>
							<clipindex>11</clipindex>
							<groupindex>1</groupindex>
						</link>
						<link>
							<linkclipref>clipitem-S3-A4-11</linkclipref>
							<mediatype>audio</mediatype>
							<trackindex>4</trackindex>
							<clipindex>11</clipindex>
							<groupindex>1</groupindex>
						</link>
						<link>
							<linkclipref>clipitem-S3-V2-11</linkclipref>
							<mediatype>video</mediatype>
							<trackindex>2</trackindex>
							<clipindex>11</clipindex>
						</link>
						<labels>
							<label2>Rose</label2>
						</labels>
					</clipitem>
					<clipitem id="clipitem-S3-A4-12" premiereChannelType="stereo">
						<name>julian_1_2021-11-03_1040_C0004.mov</name>
						<enabled>TRUE</enabled>
						<duration>292</duration>
						<rate>
							<timebase>24</timebase>
							<ntsc>TRUE</ntsc>
						</rate>
						<start>6568</start>
						<end>6860</end>
						<in>0</in>
						<out>292</out>
						<file id="file-83"/>
						<sourcetrack>
							<mediatype>audio</mediatype>
							<trackindex>2</trackindex>
						</sourcetrack>
						<link>
							<linkclipref>clipitem-S3-A3-12</linkclipref>
							<mediatype>audio</mediatype>
							<trackindex>3</trackindex>
							<clipindex>12</clipindex>
							<groupindex>1</groupindex>
						</link>
						<link>
							<linkclipref>clipitem-S3-A4-12</linkclipref>
							<mediatype>audio</mediatype>
							<trackindex>4</trackindex>
							<clipindex>12</clipindex>
							<groupindex>1</groupindex>
						</link>
						<link>
							<linkclipref>clipitem-S3-V2-12</linkclipref>
							<mediatype>video</mediatype>
							<trackindex>2</trackindex>
							<clipindex>12</clipindex>
						</link>
					</clipitem>
					<clipitem id="clipitem-S3-A4-13" premiereChannelType="stereo">
						<name>julian_1_2021-11-03_1040_C0005.mov</name>
						<enabled>TRUE</enabled>
						<duration>318</duration>
						<rate>
							<timebase>24</timebase>
							<ntsc>TRUE</ntsc>
						</rate>
						<start>7276</start>
						<end>7594</end>
						<in>0</in>
						<out>318</out>
						<file id="file-84"/>
						<sourcetrack>
							<mediatype>audio</mediatype>
							<trackindex>2</trackindex>
						</sourcetrack>
						<link>
							<linkclipref>clipitem-S3-A3-13</linkclipref>
							<mediatype>audio</mediatype>
							<trackindex>3</trackindex>
							<clipindex>13</clipindex>
							<groupindex>1</groupindex>
						</link>
						<link>
							<linkclipref>clipitem-S3-A4-13</linkclipref>
							<mediatype>audio</mediatype>
							<trackindex>4</trackindex>
							<clipindex>13</clipindex>
							<groupindex>1</groupindex>
						</link>
						<link>
							<linkclipref>clipitem-S3-V2-13</linkclipref>
							<mediatype>video</mediatype>
							<trackindex>2</trackindex>
							<clipindex>13</clipindex>
						</link>
					</clipitem>
					<clipitem id="clipitem-S3-A4-14" premiereChannelType="stereo">
						<name>julian_1_2021-11-03_1040_C0006.mov</name>
						<enabled>TRUE</enabled>
						<duration>404</duration>
						<rate>
							<timebase>24</timebase>
							<ntsc>TRUE</ntsc>
						</rate>
						<start>7890</start>
						<end>8294</end>
						<in>0</in>
						<out>404</out>
						<file id="file-85"/>
						<sourcetrack>
							<mediatype>audio</mediatype>
							<trackindex>2</trackindex>
						</sourcetrack>
						<link>
							<linkclipref>clipitem-S3-A3-14</linkclipref>
							<mediatype>audio</mediatype>
							<trackindex>3</trackindex>
							<clipindex>14</clipindex>
							<groupindex>1</groupindex>
						</link>
						<link>
							<linkclipref>clipitem-S3-A4-14</linkclipref>
							<mediatype>audio</mediatype>
							<trackindex>4</trackindex>
							<clipindex>14</clipindex>
							<groupindex>1</groupindex>
						</link>
						<link>
							<linkclipref>clipitem-S3-V2-14</linkclipref>
							<mediatype>video</mediatype>
							<trackindex>2</trackindex>
							<clipindex>14</clipindex>
						</link>
					</clipitem>
					<clipitem id="clipitem-S3-A4-15" premiereChannelType="stereo">
						<name>julian_1_2021-11-03_1041_C0007.mov</name>
						<enabled>TRUE</enabled>
						<duration>471</duration>
						<rate>
							<timebase>24</timebase>
							<ntsc>TRUE</ntsc>
						</rate>
						<start>9134</start>
						<end>9605</end>
						<in>0</in>
						<out>471</out>
						<file id="file-86"/>
						<sourcetrack>
							<mediatype>audio</mediatype>
							<trackindex>2</trackindex>
						</sourcetrack>
						<link>
							<linkclipref>clipitem-S3-A3-15</linkclipref>
							<mediatype>audio</mediatype>
							<trackindex>3</trackindex>
							<clipindex>15</clipindex>
							<groupindex>1</groupindex>
						</link>
						<link>
							<linkclipref>clipitem-S3-A4-15</linkclipref>
							<mediatype>audio</mediatype>
							<trackindex>4</trackindex>
							<clipindex>15</clipindex>
							<groupindex>1</groupindex>
						</link>
						<link>
							<linkclipref>clipitem-S3-V2-15</linkclipref>
							<mediatype>video</mediatype>
							<trackindex>2</trackindex>
							<clipindex>15</clipindex>
						</link>
					</clipitem>
					<clipitem id="clipitem-S3-A4-16" premiereChannelType="stereo">
						<name>julian_1_2021-11-03_1042_C0008.mov</name>
						<enabled>TRUE</enabled>
						<duration>1135</duration>
						<rate>
							<timebase>24</timebase>
							<ntsc>TRUE</ntsc>
						</rate>
						<start>10387</start>
						<end>11522</end>
						<in>0</in>
						<out>1135</out>
						<file id="file-87"/>
						<sourcetrack>
							<mediatype>audio</mediatype>
							<trackindex>2</trackindex>
						</sourcetrack>
						<link>
							<linkclipref>clipitem-S3-A3-16</linkclipref>
							<mediatype>audio</mediatype>
							<trackindex>3</trackindex>
							<clipindex>16</clipindex>
							<groupindex>1</groupindex>
						</link>
						<link>
							<linkclipref>clipitem-S3-A4-16</linkclipref>
							<mediatype>audio</mediatype>
							<trackindex>4</trackindex>
							<clipindex>16</clipindex>
							<groupindex>1</groupindex>
						</link>
						<link>
							<linkclipref>clipitem-S3-V2-16</linkclipref>
							<mediatype>video</mediatype>
							<trackindex>2</trackindex>
							<clipindex>16</clipindex>
						</link>
					</clipitem>
					<clipitem id="clipitem-S3-A4-17" premiereChannelType="stereo">
						<name>julian_1_2021-11-03_1043_C0009.mov</name>
						<enabled>TRUE</enabled>
						<duration>2523</duration>
						<rate>
							<timebase>24</timebase>
							<ntsc>TRUE</ntsc>
						</rate>
						<start>12130</start>
						<end>14653</end>
						<in>0</in>
						<out>2523</out>
						<file id="file-88"/>
						<sourcetrack>
							<mediatype>audio</mediatype>
							<trackindex>2</trackindex>
						</sourcetrack>
						<link>
							<linkclipref>clipitem-S3-A3-17</linkclipref>
							<mediatype>audio</mediatype>
							<trackindex>3</trackindex>
							<clipindex>17</clipindex>
							<groupindex>1</groupindex>
						</link>
						<link>
							<linkclipref>clipitem-S3-A4-17</linkclipref>
							<mediatype>audio</mediatype>
							<trackindex>4</trackindex>
							<clipindex>17</clipindex>
							<groupindex>1</groupindex>
						</link>
						<link>
							<linkclipref>clipitem-S3-V2-17</linkclipref>
							<mediatype>video</mediatype>
							<trackindex>2</trackindex>
							<clipindex>17</clipindex>
						</link>
					</clipitem>
					<clipitem id="clipitem-S3-A4-18" premiereChannelType="stereo">
						<name>julian_1_2021-11-03_1045_C0010.mov</name>
						<enabled>TRUE</enabled>
						<duration>888</duration>
						<rate>
							<timebase>24</timebase>
							<ntsc>TRUE</ntsc>
						</rate>
						<start>14986</start>
						<end>15874</end>
						<in>0</in>
						<out>888</out>
						<file id="file-89"/>
						<sourcetrack>
							<mediatype>audio</mediatype>
							<trackindex>2</trackindex>
						</sourcetrack>
						<link>
							<linkclipref>clipitem-S3-A3-18</linkclipref>
							<mediatype>audio</mediatype>
							<trackindex>3</trackindex>
							<clipindex>18</clipindex>
							<groupindex>1</groupindex>
						</link>
						<link>
							<linkclipref>clipitem-S3-A4-18</linkclipref>
							<mediatype>audio</mediatype>
							<trackindex>4</trackindex>
							<clipindex>18</clipindex>
							<groupindex>1</groupindex>
						</link>
						<link>
							<linkclipref>clipitem-S3-V2-18</linkclipref>
							<mediatype>video</mediatype>
							<trackindex>2</trackindex>
							<clipindex>18</clipindex>
						</link>
					</clipitem>
					<clipitem id="clipitem-S3-A4-19" premiereChannelType="stereo">
						<name>julian_1_2021-11-03_1046_C0011.mov</name>
						<enabled>TRUE</enabled>
						<duration>571</duration>
						<rate>
							<timebase>24</timebase>
							<ntsc>TRUE</ntsc>
						</rate>
						<start>15929</start>
						<end>16500</end>
						<in>0</in>
						<out>571</out>
						<file id="file-90"/>
						<sourcetrack>
							<mediatype>audio</mediatype>
							<trackindex>2</trackindex>
						</sourcetrack>
						<link>
							<linkclipref>clipitem-S3-A3-19</linkclipref>
							<mediatype>audio</mediatype>
							<trackindex>3</trackindex>
							<clipindex>19</clipindex>
							<groupindex>1</groupindex>
						</link>
						<link>
							<linkclipref>clipitem-S3-A4-19</linkclipref>
							<mediatype>audio</mediatype>
							<trackindex>4</trackindex>
							<clipindex>19</clipindex>
							<groupindex>1</groupindex>
						</link>
						<link>
							<linkclipref>clipitem-S3-V2-19</linkclipref>
							<mediatype>video</mediatype>
							<trackindex>2</trackindex>
							<clipindex>19</clipindex>
						</link>
					</clipitem>
					<clipitem id="clipitem-S3-A4-20" premiereChannelType="stereo">
						<name>julian_1_2021-11-03_1047_C0012.mov</name>
						<enabled>TRUE</enabled>
						<duration>5635</duration>
						<rate>
							<timebase>24</timebase>
							<ntsc>TRUE</ntsc>
						</rate>
						<start>17068</start>
						<end>22703</end>
						<in>0</in>
						<out>5635</out>
						<file id="file-91"/>
						<sourcetrack>
							<mediatype>audio</mediatype>
							<trackindex>2</trackindex>
						</sourcetrack>
						<link>
							<linkclipref>clipitem-S3-A3-20</linkclipref>
							<mediatype>audio</mediatype>
							<trackindex>3</trackindex>
							<clipindex>20</clipindex>
							<groupindex>1</groupindex>
						</link>
						<link>
							<linkclipref>clipitem-S3-A4-20</linkclipref>
							<mediatype>audio</mediatype>
							<trackindex>4</trackindex>
							<clipindex>20</clipindex>
							<groupindex>1</groupindex>
						</link>
						<link>
							<linkclipref>clipitem-S3-V2-20</linkclipref>
							<mediatype>video</mediatype>
							<trackindex>2</trackindex>
							<clipindex>20</clipindex>
						</link>
					</clipitem>
					<clipitem id="clipitem-S3-A4-21" premiereChannelType="stereo">
						<name>julian_1_2021-11-03_1051_C0013.mov</name>
						<enabled>TRUE</enabled>
						<duration>107</duration>
						<rate>
							<timebase>24</timebase>
							<ntsc>TRUE</ntsc>
						</rate>
						<start>23156</start>
						<end>23263</end>
						<in>0</in>
						<out>107</out>
						<file id="file-92"/>
						<sourcetrack>
							<mediatype>audio</mediatype>
							<trackindex>2</trackindex>
						</sourcetrack>
						<link>
							<linkclipref>clipitem-S3-A3-21</linkclipref>
							<mediatype>audio</mediatype>
							<trackindex>3</trackindex>
							<clipindex>21</clipindex>
							<groupindex>1</groupindex>
						</link>
						<link>
							<linkclipref>clipitem-S3-A4-21</linkclipref>
							<mediatype>audio</mediatype>
							<trackindex>4</trackindex>
							<clipindex>21</clipindex>
							<groupindex>1</groupindex>
						</link>
						<link>
							<linkclipref>clipitem-S3-V2-21</linkclipref>
							<mediatype>video</mediatype>
							<trackindex>2</trackindex>
							<clipindex>21</clipindex>
						</link>
					</clipitem>
					<clipitem id="clipitem-S3-A4-22" premiereChannelType="stereo">
						<name>julian_1_2021-11-03_1051_C0014.mov</name>
						<enabled>TRUE</enabled>
						<duration>3534</duration>
						<rate>
							<timebase>24</timebase>
							<ntsc>TRUE</ntsc>
						</rate>
						<start>23442</start>
						<end>26976</end>
						<in>0</in>
						<out>3534</out>
						<file id="file-93"/>
						<sourcetrack>
							<mediatype>audio</mediatype>
							<trackindex>2</trackindex>
						</sourcetrack>
						<link>
							<linkclipref>clipitem-S3-A3-22</linkclipref>
							<mediatype>audio</mediatype>
							<trackindex>3</trackindex>
							<clipindex>22</clipindex>
							<groupindex>1</groupindex>
						</link>
						<link>
							<linkclipref>clipitem-S3-A4-22</linkclipref>
							<mediatype>audio</mediatype>
							<trackindex>4</trackindex>
							<clipindex>22</clipindex>
							<groupindex>1</groupindex>
						</link>
						<link>
							<linkclipref>clipitem-S3-V2-22</linkclipref>
							<mediatype>video</mediatype>
							<trackindex>2</trackindex>
							<clipindex>22</clipindex>
						</link>
					</clipitem>
					<clipitem id="clipitem-S3-A4-23" premiereChannelType="stereo">
						<name>julian_1_2021-11-03_1054_C0015.mov</name>
						<enabled>TRUE</enabled>
						<duration>5001</duration>
						<rate>
							<timebase>24</timebase>
							<ntsc>TRUE</ntsc>
						</rate>
						<start>27422</start>
						<end>32423</end>
						<in>0</in>
						<out>5001</out>
						<file id="file-94"/>
						<sourcetrack>
							<mediatype>audio</mediatype>
							<trackindex>2</trackindex>
						</sourcetrack>
						<link>
							<linkclipref>clipitem-S3-A3-23</linkclipref>
							<mediatype>audio</mediatype>
							<trackindex>3</trackindex>
							<clipindex>23</clipindex>
							<groupindex>1</groupindex>
						</link>
						<link>
							<linkclipref>clipitem-S3-A4-23</linkclipref>
							<mediatype>audio</mediatype>
							<trackindex>4</trackindex>
							<clipindex>23</clipindex>
							<groupindex>1</groupindex>
						</link>
						<link>
							<linkclipref>clipitem-S3-V2-23</linkclipref>
							<mediatype>video</mediatype>
							<trackindex>2</trackindex>
							<clipindex>23</clipindex>
						</link>
					</clipitem>
					<clipitem id="clipitem-S3-A4-24" premiereChannelType="stereo">
						<name>julian_1_2021-11-03_1058_C0016.mov</name>
						<enabled>TRUE</enabled>
						<duration>309</duration>
						<rate>
							<timebase>24</timebase>
							<ntsc>TRUE</ntsc>
						</rate>
						<start>33544</start>
						<end>33853</end>
						<in>0</in>
						<out>309</out>
						<file id="file-95"/>
						<sourcetrack>
							<mediatype>audio</mediatype>
							<trackindex>2</trackindex>
						</sourcetrack>
						<link>
							<linkclipref>clipitem-S3-A3-24</linkclipref>
							<mediatype>audio</mediatype>
							<trackindex>3</trackindex>
							<clipindex>24</clipindex>
							<groupindex>1</groupindex>
						</link>
						<link>
							<linkclipref>clipitem-S3-A4-24</linkclipref>
							<mediatype>audio</mediatype>
							<trackindex>4</trackindex>
							<clipindex>24</clipindex>
							<groupindex>1</groupindex>
						</link>
						<link>
							<linkclipref>clipitem-S3-V2-24</linkclipref>
							<mediatype>video</mediatype>
							<trackindex>2</trackindex>
							<clipindex>24</clipindex>
						</link>
					</clipitem>
					<clipitem id="clipitem-S3-A4-25" premiereChannelType="stereo">
						<name>julian_1_2021-11-03_1059_C0017.mov</name>
						<enabled>TRUE</enabled>
						<duration>1101</duration>
						<rate>
							<timebase>24</timebase>
							<ntsc>TRUE</ntsc>
						</rate>
						<start>34483</start>
						<end>35584</end>
						<in>0</in>
						<out>1101</out>
						<file id="file-96"/>
						<sourcetrack>
							<mediatype>audio</mediatype>
							<trackindex>2</trackindex>
						</sourcetrack>
						<link>
							<linkclipref>clipitem-S3-A3-25</linkclipref>
							<mediatype>audio</mediatype>
							<trackindex>3</trackindex>
							<clipindex>25</clipindex>
							<groupindex>1</groupindex>
						</link>
						<link>
							<linkclipref>clipitem-S3-A4-25</linkclipref>
							<mediatype>audio</mediatype>
							<trackindex>4</trackindex>
							<clipindex>25</clipindex>
							<groupindex>1</groupindex>
						</link>
						<link>
							<linkclipref>clipitem-S3-V2-25</linkclipref>
							<mediatype>video</mediatype>
							<trackindex>2</trackindex>
							<clipindex>25</clipindex>
						</link>
					</clipitem>
					<clipitem id="clipitem-S3-A4-26" premiereChannelType="stereo">
						<name>julian_1_2021-11-03_1100_C0018.mov</name>
						<enabled>TRUE</enabled>
						<duration>4359</duration>
						<rate>
							<timebase>24</timebase>
							<ntsc>TRUE</ntsc>
						</rate>
						<start>36582</start>
						<end>40941</end>
						<in>0</in>
						<out>4359</out>
						<file id="file-97"/>
						<sourcetrack>
							<mediatype>audio</mediatype>
							<trackindex>2</trackindex>
						</sourcetrack>
						<link>
							<linkclipref>clipitem-S3-A3-26</linkclipref>
							<mediatype>audio</mediatype>
							<trackindex>3</trackindex>
							<clipindex>26</clipindex>
							<groupindex>1</groupindex>
						</link>
						<link>
							<linkclipref>clipitem-S3-A4-26</linkclipref>
							<mediatype>audio</mediatype>
							<trackindex>4</trackindex>
							<clipindex>26</clipindex>
							<groupindex>1</groupindex>
						</link>
						<link>
							<linkclipref>clipitem-S3-V2-26</linkclipref>
							<mediatype>video</mediatype>
							<trackindex>2</trackindex>
							<clipindex>26</clipindex>
						</link>
					</clipitem>
					<clipitem id="clipitem-S3-A4-27" premiereChannelType="stereo">
						<name>julian_1_2021-11-03_1104_C0019.mov</name>
						<enabled>TRUE</enabled>
						<duration>282</duration>
						<rate>
							<timebase>24</timebase>
							<ntsc>TRUE</ntsc>
						</rate>
						<start>41454</start>
						<end>41736</end>
						<in>0</in>
						<out>282</out>
						<file id="file-98"/>
						<sourcetrack>
							<mediatype>audio</mediatype>
							<trackindex>2</trackindex>
						</sourcetrack>
						<link>
							<linkclipref>clipitem-S3-A3-27</linkclipref>
							<mediatype>audio</mediatype>
							<trackindex>3</trackindex>
							<clipindex>27</clipindex>
							<groupindex>1</groupindex>
						</link>
						<link>
							<linkclipref>clipitem-S3-A4-27</linkclipref>
							<mediatype>audio</mediatype>
							<trackindex>4</trackindex>
							<clipindex>27</clipindex>
							<groupindex>1</groupindex>
						</link>
						<link>
							<linkclipref>clipitem-S3-V2-27</linkclipref>
							<mediatype>video</mediatype>
							<trackindex>2</trackindex>
							<clipindex>27</clipindex>
						</link>
					</clipitem>
					<clipitem id="clipitem-S3-A4-28" premiereChannelType="stereo">
						<name>julian_1_2021-11-03_1105_C0020.mov</name>
						<enabled>TRUE</enabled>
						<duration>1115</duration>
						<rate>
							<timebase>24</timebase>
							<ntsc>TRUE</ntsc>
						</rate>
						<start>42792</start>
						<end>43907</end>
						<in>0</in>
						<out>1115</out>
						<file id="file-99"/>
						<sourcetrack>
							<mediatype>audio</mediatype>
							<trackindex>2</trackindex>
						</sourcetrack>
						<link>
							<linkclipref>clipitem-S3-A3-28</linkclipref>
							<mediatype>audio</mediatype>
							<trackindex>3</trackindex>
							<clipindex>28</clipindex>
							<groupindex>1</groupindex>
						</link>
						<link>
							<linkclipref>clipitem-S3-A4-28</linkclipref>
							<mediatype>audio</mediatype>
							<trackindex>4</trackindex>
							<clipindex>28</clipindex>
							<groupindex>1</groupindex>
						</link>
						<link>
							<linkclipref>clipitem-S3-V2-28</linkclipref>
							<mediatype>video</mediatype>
							<trackindex>2</trackindex>
							<clipindex>28</clipindex>
						</link>
					</clipitem>
					<clipitem id="clipitem-S3-A4-29" premiereChannelType="stereo">
						<name>julian_1_2021-11-03_1106_C0021.mov</name>
						<enabled>TRUE</enabled>
						<duration>192</duration>
						<rate>
							<timebase>24</timebase>
							<ntsc>TRUE</ntsc>
						</rate>
						<start>44649</start>
						<end>44841</end>
						<in>0</in>
						<out>192</out>
						<file id="file-100"/>
						<sourcetrack>
							<mediatype>audio</mediatype>
							<trackindex>2</trackindex>
						</sourcetrack>
						<link>
							<linkclipref>clipitem-S3-A3-29</linkclipref>
							<mediatype>audio</mediatype>
							<trackindex>3</trackindex>
							<clipindex>29</clipindex>
							<groupindex>1</groupindex>
						</link>
						<link>
							<linkclipref>clipitem-S3-A4-29</linkclipref>
							<mediatype>audio</mediatype>
							<trackindex>4</trackindex>
							<clipindex>29</clipindex>
							<groupindex>1</groupindex>
						</link>
						<link>
							<linkclipref>clipitem-S3-V2-29</linkclipref>
							<mediatype>video</mediatype>
							<trackindex>2</trackindex>
							<clipindex>29</clipindex>
						</link>
					</clipitem>
					<clipitem id="clipitem-S3-A4-30" premiereChannelType="stereo">
						<name>julian_1_2021-11-03_1106_C0022.mov</name>
						<enabled>TRUE</enabled>
						<duration>504</duration>
						<rate>
							<timebase>24</timebase>
							<ntsc>TRUE</ntsc>
						</rate>
						<start>45236</start>
						<end>45740</end>
						<in>0</in>
						<out>504</out>
						<file id="file-101"/>
						<sourcetrack>
							<mediatype>audio</mediatype>
							<trackindex>2</trackindex>
						</sourcetrack>
						<link>
							<linkclipref>clipitem-S3-A3-30</linkclipref>
							<mediatype>audio</mediatype>
							<trackindex>3</trackindex>
							<clipindex>30</clipindex>
							<groupindex>1</groupindex>
						</link>
						<link>
							<linkclipref>clipitem-S3-A4-30</linkclipref>
							<mediatype>audio</mediatype>
							<trackindex>4</trackindex>
							<clipindex>30</clipindex>
							<groupindex>1</groupindex>
						</link>
						<link>
							<linkclipref>clipitem-S3-V2-30</linkclipref>
							<mediatype>video</mediatype>
							<trackindex>2</trackindex>
							<clipindex>30</clipindex>
						</link>
					</clipitem>
					<clipitem id="clipitem-S3-A4-31" premiereChannelType="stereo">
						<name>julian_1_2021-11-03_1108_C0023.mov</name>
						<enabled>TRUE</enabled>
						<duration>840</duration>
						<rate>
							<timebase>24</timebase>
							<ntsc>TRUE</ntsc>
						</rate>
						<start>47799</start>
						<end>48639</end>
						<in>0</in>
						<out>840</out>
						<file id="file-102"/>
						<sourcetrack>
							<mediatype>audio</mediatype>
							<trackindex>2</trackindex>
						</sourcetrack>
						<link>
							<linkclipref>clipitem-S3-A3-31</linkclipref>
							<mediatype>audio</mediatype>
							<trackindex>3</trackindex>
							<clipindex>31</clipindex>
							<groupindex>1</groupindex>
						</link>
						<link>
							<linkclipref>clipitem-S3-A4-31</linkclipref>
							<mediatype>audio</mediatype>
							<trackindex>4</trackindex>
							<clipindex>31</clipindex>
							<groupindex>1</groupindex>
						</link>
						<link>
							<linkclipref>clipitem-S3-V2-31</linkclipref>
							<mediatype>video</mediatype>
							<trackindex>2</trackindex>
							<clipindex>31</clipindex>
						</link>
					</clipitem>
					<clipitem id="clipitem-S3-A4-32" premiereChannelType="stereo">
						<name>julian_1_2021-11-03_1109_C0024.mov</name>
						<enabled>TRUE</enabled>
						<duration>1022</duration>
						<rate>
							<timebase>24</timebase>
							<ntsc>TRUE</ntsc>
						</rate>
						<start>49367</start>
						<end>50389</end>
						<in>0</in>
						<out>1022</out>
						<file id="file-103"/>
						<sourcetrack>
							<mediatype>audio</mediatype>
							<trackindex>2</trackindex>
						</sourcetrack>
						<link>
							<linkclipref>clipitem-S3-A3-32</linkclipref>
							<mediatype>audio</mediatype>
							<trackindex>3</trackindex>
							<clipindex>32</clipindex>
							<groupindex>1</groupindex>
						</link>
						<link>
							<linkclipref>clipitem-S3-A4-32</linkclipref>
							<mediatype>audio</mediatype>
							<trackindex>4</trackindex>
							<clipindex>32</clipindex>
							<groupindex>1</groupindex>
						</link>
						<link>
							<linkclipref>clipitem-S3-V2-32</linkclipref>
							<mediatype>video</mediatype>
							<trackindex>2</trackindex>
							<clipindex>32</clipindex>
						</link>
					</clipitem>
					<clipitem id="clipitem-S3-A4-33" premiereChannelType="stereo">
						<name>julian_1_2021-11-03_1112_C0025.mov</name>
						<enabled>TRUE</enabled>
						<duration>413</duration>
						<rate>
							<timebase>24</timebase>
							<ntsc>TRUE</ntsc>
						</rate>
						<start>52620</start>
						<end>53033</end>
						<in>0</in>
						<out>413</out>
						<file id="file-104"/>
						<sourcetrack>
							<mediatype>audio</mediatype>
							<trackindex>2</trackindex>
						</sourcetrack>
						<link>
							<linkclipref>clipitem-S3-A3-33</linkclipref>
							<mediatype>audio</mediatype>
							<trackindex>3</trackindex>
							<clipindex>33</clipindex>
							<groupindex>1</groupindex>
						</link>
						<link>
							<linkclipref>clipitem-S3-A4-33</linkclipref>
							<mediatype>audio</mediatype>
							<trackindex>4</trackindex>
							<clipindex>33</clipindex>
							<groupindex>1</groupindex>
						</link>
						<link>
							<linkclipref>clipitem-S3-V2-33</linkclipref>
							<mediatype>video</mediatype>
							<trackindex>2</trackindex>
							<clipindex>33</clipindex>
						</link>
					</clipitem>
					<clipitem id="clipitem-S3-A4-34" premiereChannelType="stereo">
						<name>julian_1_2021-11-03_1145_C0027.mov</name>
						<enabled>TRUE</enabled>
						<duration>304</duration>
						<rate>
							<timebase>24</timebase>
							<ntsc>TRUE</ntsc>
						</rate>
						<start>55056</start>
						<end>55360</end>
						<in>0</in>
						<out>304</out>
						<file id="file-105"/>
						<sourcetrack>
							<mediatype>audio</mediatype>
							<trackindex>2</trackindex>
						</sourcetrack>
						<link>
							<linkclipref>clipitem-S3-A3-34</linkclipref>
							<mediatype>audio</mediatype>
							<trackindex>3</trackindex>
							<clipindex>34</clipindex>
							<groupindex>1</groupindex>
						</link>
						<link>
							<linkclipref>clipitem-S3-A4-34</linkclipref>
							<mediatype>audio</mediatype>
							<trackindex>4</trackindex>
							<clipindex>34</clipindex>
							<groupindex>1</groupindex>
						</link>
						<link>
							<linkclipref>clipitem-S3-V2-34</linkclipref>
							<mediatype>video</mediatype>
							<trackindex>2</trackindex>
							<clipindex>34</clipindex>
						</link>
						<labels>
							<label2>Rose</label2>
						</labels>
					</clipitem>
					<clipitem id="clipitem-S3-A4-35" premiereChannelType="stereo">
						<name>julian_1_2021-11-03_1147_C0031.mov</name>
						<enabled>TRUE</enabled>
						<duration>512</duration>
						<rate>
							<timebase>24</timebase>
							<ntsc>TRUE</ntsc>
						</rate>
						<start>55360</start>
						<end>55871</end>
						<in>1</in>
						<out>512</out>
						<file id="file-106"/>
						<sourcetrack>
							<mediatype>audio</mediatype>
							<trackindex>2</trackindex>
						</sourcetrack>
						<link>
							<linkclipref>clipitem-S3-A3-35</linkclipref>
							<mediatype>audio</mediatype>
							<trackindex>3</trackindex>
							<clipindex>35</clipindex>
							<groupindex>1</groupindex>
						</link>
						<link>
							<linkclipref>clipitem-S3-A4-35</linkclipref>
							<mediatype>audio</mediatype>
							<trackindex>4</trackindex>
							<clipindex>35</clipindex>
							<groupindex>1</groupindex>
						</link>
						<link>
							<linkclipref>clipitem-S3-V2-35</linkclipref>
							<mediatype>video</mediatype>
							<trackindex>2</trackindex>
							<clipindex>35</clipindex>
						</link>
						<labels>
							<label2>Rose</label2>
						</labels>
					</clipitem>
					<enabled>TRUE</enabled>
					<locked>FALSE</locked>
					<outputchannelindex>2</outputchannelindex>
				</track>
				<track currentExplodedTrackIndex="0" totalExplodedTrackCount="2" premiereTrackType="Stereo">
					<clipitem id="clipitem-S3-A5-1" premiereChannelType="stereo">
						<name>Chrissy.Love 1.24.WAV</name>
						<enabled>TRUE</enabled>
						<duration>52907</duration>
						<rate>
							<timebase>24</timebase>
							<ntsc>TRUE</ntsc>
						</rate>
						<start>2149</start>
						<end>55056</end>
						<in>0</in>
						<out>52907</out>
						<file id="file-118">
							<name>Chrissy.Love 1.24.WAV</name>
							<pathurl>/Volumes/tiesta/03_Audio/Lilongwe/Chrissy.Love 1.24.WAV</pathurl>
							<rate>
								<timebase>24</timebase>
								<ntsc>TRUE</ntsc>
							</rate>
							<duration>52907</duration>
							<timecode>
								<string>08:25:53:15</string>
								<displayformat>NDF</displayformat>
								<frame>728487</frame>
								<rate>
									<timebase>24</timebase>
									<ntsc>TRUE</ntsc>
								</rate>
							</timecode>
							<media>
								<audio>
									<samplecharacteristics>
										<depth>16</depth>
										<samplerate>48000</samplerate>
									</samplecharacteristics>
									<channelcount>2</channelcount>
								</audio>
							</media>
						</file>
						<sourcetrack>
							<mediatype>audio</mediatype>
							<trackindex>1</trackindex>
						</sourcetrack>
						<link>
							<linkclipref>clipitem-S3-A5-1</linkclipref>
							<mediatype>audio</mediatype>
							<trackindex>5</trackindex>
							<clipindex>1</clipindex>
							<groupindex>1</groupindex>
						</link>
						<link>
							<linkclipref>clipitem-S3-A6-1</linkclipref>
							<mediatype>audio</mediatype>
							<trackindex>6</trackindex>
							<clipindex>1</clipindex>
							<groupindex>1</groupindex>
						</link>
						<labels>
							<label2>Caribbean</label2>
						</labels>
					</clipitem>
					<enabled>TRUE</enabled>
					<locked>FALSE</locked>
					<outputchannelindex>1</outputchannelindex>
				</track>
				<track currentExplodedTrackIndex="1" totalExplodedTrackCount="2" premiereTrackType="Stereo">
					<clipitem id="clipitem-S3-A6-1" premiereChannelType="stereo">
						<name>Chrissy.Love 1.24.WAV</name>
						<enabled>TRUE</enabled>
						<duration>52907</duration>
						<rate>
							<timebase>24</timebase>
							<ntsc>TRUE</ntsc>
						</rate>
						<start>2149</start>
						<end>55056</end>
						<in>0</in>
						<out>52907</out>
						<file id="file-118"/>
						<sourcetrack>
							<mediatype>audio</mediatype>
							<trackindex>2</trackindex>
						</sourcetrack>
						<link>
							<linkclipref>clipitem-S3-A5-1</linkclipref>
							<mediatype>audio</mediatype>
							<trackindex>5</trackindex>
							<clipindex>1</clipindex>
							<groupindex>1</groupindex>
						</link>
						<link>
							<linkclipref>clipitem-S3-A6-1</linkclipref>
							<mediatype>audio</mediatype>
							<trackindex>6</trackindex>
							<clipindex>1</clipindex>
							<groupindex>1</groupindex>
						</link>
						<labels>
							<label2>Caribbean</label2>
						</labels>
					</clipitem>
					<enabled>TRUE</enabled>
					<locked>FALSE</locked>
					<outputchannelindex>2</outputchannelindex>
				</track>
			</audio>
		</media>
	</sequence>
</xmeml>
