<?xml version="1.0" encoding="UTF-8"?>
<!DOCTYPE xmeml>
<xmeml version="4">
	<sequence MZ.EditLine="61385019696000" MZ.Sequence.AudioTimeDisplayFormat="200" MZ.Sequence.EditingModeGUID="35d109db-457b-43c1-9452-9cb7be9f121c" MZ.Sequence.PreviewFrameSizeHeight="1080" MZ.Sequence.PreviewFrameSizeWidth="1920" MZ.Sequence.PreviewRenderingClassID="1297106761" MZ.Sequence.PreviewRenderingPresetCodec="1297107278" MZ.Sequence.PreviewRenderingPresetPath="EncoderPresets/SequencePreview/35d109db-457b-43c1-9452-9cb7be9f121c/I-Frame Only MPEG.epr" MZ.Sequence.PreviewUseMaxBitDepth="false" MZ.Sequence.PreviewUseMaxRenderQuality="false" MZ.Sequence.VideoTimeDisplayFormat="110" MZ.WorkInPoint="0" MZ.WorkOutPoint="15235011792000" Monitor.ProgramZoomIn="0" Monitor.ProgramZoomOut="142274668536000" TL.SQAVDividerPosition="0.5" TL.SQAudioVisibleBase="0" TL.SQHeaderWidth="236" TL.SQHideShyTracks="0" TL.SQTimePerPixel="3.1382523051496172" TL.SQVideoVisibleBase="0" TL.SQVisibleBaseTime="0" explodedTracks="true" id="sequence-11">
		<rate>
			<timebase>24</timebase>
			<ntsc>TRUE</ntsc>
		</rate>
		<name>masetho 1 - synced</name>
		<duration>119763</duration>
		<media>
			<video>
				<format>
					<samplecharacteristics>
						<rate>
							<timebase>24</timebase>
							<ntsc>TRUE</ntsc>
						</rate>
						<codec>
						<name>Apple ProRes 422</name>
							<appspecificdata>
							<appname>Final Cut Pro</appname>
								<appmanufacturer>Apple Inc.</appmanufacturer>
								<appversion>7.0</appversion>
								<data>
								<qtcodec>
									<codecname>Apple ProRes 422</codecname>
										<codectypename>Apple ProRes 422</codectypename>
										<codectypecode>apcn</codectypecode>
										<codecvendorcode>appl</codecvendorcode>
										<spatialquality>1024</spatialquality>
										<temporalquality>0</temporalquality>
										<keyframerate>0</keyframerate>
										<datarate>0</datarate>
									</qtcodec>
								</data>
							</appspecificdata>
						</codec>
						<width>1920</width>
						<height>1080</height>
						<anamorphic>FALSE</anamorphic>
						<pixelaspectratio>square</pixelaspectratio>
						<fielddominance>none</fielddominance>
					</samplecharacteristics>
				</format>
				<track>
					<clipitem id="clipitem-S3-V1-1">
						<name>wiblo_1_2002-11-02_0332_C0095.mov</name>
						<enabled>TRUE</enabled>
						<duration>31557</duration>
						<rate>
							<timebase>24</timebase>
							<ntsc>TRUE</ntsc>
						</rate>
						<start>8712</start>
						<end>40269</end>
						<in>0</in>
						<out>31557</out>
						<file id="file-244">
							<name>wiblo_1_2002-11-02_0332_C0095.mov</name>
							<pathurl>/Volumes/tiesta/01_Footage/semonkong/Semonkong 3/wiblo_1_2002-11-02_0332_C0095.mov</pathurl>
							<rate>
								<timebase>24</timebase>
								<ntsc>TRUE</ntsc>
							</rate>
							<duration>31557</duration>
							<timecode>
								<string>03:32:38:00</string>
								<displayformat>NDF</displayformat>
								<frame>306192</frame>
								<rate>
									<timebase>24</timebase>
									<ntsc>TRUE</ntsc>
								</rate>
							</timecode>
							<media>
								<video>
									<samplecharacteristics>
										<rate>
											<timebase>24</timebase>
											<ntsc>TRUE</ntsc>
										</rate>
										<width>1920</width>
										<height>1080</height>
										<anamorphic>FALSE</anamorphic>
										<pixelaspectratio>square</pixelaspectratio>
										<fielddominance>none</fielddominance>
									</samplecharacteristics>
								</video>
								<audio>
									<samplecharacteristics>
										<depth>16</depth>
										<samplerate>48000</samplerate>
									</samplecharacteristics>
									<channelcount>2</channelcount>
								</audio>
							</media>
						</file>
						<link>
							<linkclipref>clipitem-S3-V1-1</linkclipref>
							<mediatype>video</mediatype>
							<trackindex>1</trackindex>
							<clipindex>1</clipindex>
						</link>
						<link>
							<linkclipref>clipitem-S3-A1-1</linkclipref>
							<mediatype>audio</mediatype>
							<trackindex>1</trackindex>
							<clipindex>1</clipindex>
							<groupindex>1</groupindex>
						</link>
						<link>
							<linkclipref>clipitem-S3-A2-1</linkclipref>
							<mediatype>audio</mediatype>
							<trackindex>2</trackindex>
							<clipindex>1</clipindex>
							<groupindex>1</groupindex>
						</link>
					</clipitem>
					<clipitem id="clipitem-S3-V1-2">
						<name>wiblo_1_2002-11-02_0438_C0001.mov</name>
						<enabled>TRUE</enabled>
						<duration>54366</duration>
						<rate>
							<timebase>24</timebase>
							<ntsc>TRUE</ntsc>
						</rate>
						<start>58925</start>
						<end>113291</end>
						<in>0</in>
						<out>54366</out>
						<file id="file-245">
							<name>wiblo_1_2002-11-02_0438_C0001.mov</name>
							<pathurl>/Volumes/tiesta/01_Footage/semonkong/Semonkong 3/wiblo_1_2002-11-02_0438_C0001.mov</pathurl>
							<rate>
								<timebase>24</timebase>
								<ntsc>TRUE</ntsc>
							</rate>
							<duration>54366</duration>
							<timecode>
								<string>04:38:33:00</string>
								<displayformat>NDF</displayformat>
								<frame>401112</frame>
								<rate>
									<timebase>24</timebase>
									<ntsc>TRUE</ntsc>
								</rate>
							</timecode>
							<media>
								<video>
									<samplecharacteristics>
										<rate>
											<timebase>24</timebase>
											<ntsc>TRUE</ntsc>
										</rate>
										<width>1920</width>
										<height>1080</height>
										<anamorphic>FALSE</anamorphic>
										<pixelaspectratio>square</pixelaspectratio>
										<fielddominance>none</fielddominance>
									</samplecharacteristics>
								</video>
								<audio>
									<samplecharacteristics>
										<depth>16</depth>
										<samplerate>48000</samplerate>
									</samplecharacteristics>
									<channelcount>2</channelcount>
								</audio>
							</media>
						</file>
						<link>
							<linkclipref>clipitem-S3-V1-2</linkclipref>
							<mediatype>video</mediatype>
							<trackindex>1</trackindex>
							<clipindex>2</clipindex>
						</link>
						<link>
							<linkclipref>clipitem-S3-A1-2</linkclipref>
							<mediatype>audio</mediatype>
							<trackindex>1</trackindex>
							<clipindex>2</clipindex>
							<groupindex>1</groupindex>
						</link>
						<link>
							<linkclipref>clipitem-S3-A2-2</linkclipref>
							<mediatype>audio</mediatype>
							<trackindex>2</trackindex>
							<clipindex>2</clipindex>
							<groupindex>1</groupindex>
						</link>
					</clipitem>
					<enabled>TRUE</enabled>
					<locked>FALSE</locked>
				</track>
				<track>
					<clipitem id="clipitem-S3-V2-1">
						<name>julian_1_2021-11-30_0912_C0002.mov</name>
						<enabled>TRUE</enabled>
						<duration>3405</duration>
						<rate>
							<timebase>24</timebase>
							<ntsc>TRUE</ntsc>
						</rate>
						<start>26818</start>
						<end>30223</end>
						<in>0</in>
						<out>3405</out>
						<file id="file-246">
							<name>julian_1_2021-11-30_0912_C0002.mov</name>
							<pathurl>/Volumes/tiesta/01_Footage/semonkong/Semonkong 3/julian_1_2021-11-30_0912_C0002.mov</pathurl>
							<rate>
								<timebase>24</timebase>
								<ntsc>TRUE</ntsc>
							</rate>
							<duration>3405</duration>
							<timecode>
								<string>09:12:41:00</string>
								<displayformat>NDF</displayformat>
								<frame>795864</frame>
								<rate>
									<timebase>24</timebase>
									<ntsc>TRUE</ntsc>
								</rate>
							</timecode>
							<media>
								<video>
									<samplecharacteristics>
										<rate>
											<timebase>24</timebase>
											<ntsc>TRUE</ntsc>
										</rate>
										<width>1920</width>
										<height>1080</height>
										<anamorphic>FALSE</anamorphic>
										<pixelaspectratio>square</pixelaspectratio>
										<fielddominance>none</fielddominance>
									</samplecharacteristics>
								</video>
								<audio>
									<samplecharacteristics>
										<depth>16</depth>
										<samplerate>48000</samplerate>
									</samplecharacteristics>
									<channelcount>2</channelcount>
								</audio>
							</media>
						</file>
						<link>
							<linkclipref>clipitem-S3-V2-1</linkclipref>
							<mediatype>video</mediatype>
							<trackindex>2</trackindex>
							<clipindex>1</clipindex>
						</link>
						<link>
							<linkclipref>clipitem-S3-A3-1</linkclipref>
							<mediatype>audio</mediatype>
							<trackindex>3</trackindex>
							<clipindex>1</clipindex>
							<groupindex>1</groupindex>
						</link>
						<link>
							<linkclipref>clipitem-S3-A4-1</linkclipref>
							<mediatype>audio</mediatype>
							<trackindex>4</trackindex>
							<clipindex>1</clipindex>
							<groupindex>1</groupindex>
						</link>
					</clipitem>
					<clipitem id="clipitem-S3-V2-2">
						<name>julian_1_2021-11-30_0916_C0003.mov</name>
						<enabled>TRUE</enabled>
						<duration>3110</duration>
						<rate>
							<timebase>24</timebase>
							<ntsc>TRUE</ntsc>
						</rate>
						<start>31625</start>
						<end>34735</end>
						<in>0</in>
						<out>3110</out>
						<file id="file-247">
							<name>julian_1_2021-11-30_0916_C0003.mov</name>
							<pathurl>/Volumes/tiesta/01_Footage/semonkong/Semonkong 3/julian_1_2021-11-30_0916_C0003.mov</pathurl>
							<rate>
								<timebase>24</timebase>
								<ntsc>TRUE</ntsc>
							</rate>
							<duration>3110</duration>
							<timecode>
								<string>09:16:02:00</string>
								<displayformat>NDF</displayformat>
								<frame>800688</frame>
								<rate>
									<timebase>24</timebase>
									<ntsc>TRUE</ntsc>
								</rate>
							</timecode>
							<media>
								<video>
									<samplecharacteristics>
										<rate>
											<timebase>24</timebase>
											<ntsc>TRUE</ntsc>
										</rate>
										<width>1920</width>
										<height>1080</height>
										<anamorphic>FALSE</anamorphic>
										<pixelaspectratio>square</pixelaspectratio>
										<fielddominance>none</fielddominance>
									</samplecharacteristics>
								</video>
								<audio>
									<samplecharacteristics>
										<depth>16</depth>
										<samplerate>48000</samplerate>
									</samplecharacteristics>
									<channelcount>2</channelcount>
								</audio>
							</media>
						</file>
						<link>
							<linkclipref>clipitem-S3-V2-2</linkclipref>
							<mediatype>video</mediatype>
							<trackindex>2</trackindex>
							<clipindex>2</clipindex>
						</link>
						<link>
							<linkclipref>clipitem-S3-A3-2</linkclipref>
							<mediatype>audio</mediatype>
							<trackindex>3</trackindex>
							<clipindex>2</clipindex>
							<groupindex>1</groupindex>
						</link>
						<link>
							<linkclipref>clipitem-S3-A4-2</linkclipref>
							<mediatype>audio</mediatype>
							<trackindex>4</trackindex>
							<clipindex>2</clipindex>
							<groupindex>1</groupindex>
						</link>
					</clipitem>
					<clipitem id="clipitem-S3-V2-3">
						<name>julian_1_2021-11-30_1007_C0004.mov</name>
						<enabled>TRUE</enabled>
						<duration>598</duration>
						<rate>
							<timebase>24</timebase>
							<ntsc>TRUE</ntsc>
						</rate>
						<start>61437</start>
						<end>62035</end>
						<in>0</in>
						<out>598</out>
						<file id="file-248">
							<name>julian_1_2021-11-30_1007_C0004.mov</name>
							<pathurl>/Volumes/tiesta/01_Footage/semonkong/Semonkong 3/julian_1_2021-11-30_1007_C0004.mov</pathurl>
							<rate>
								<timebase>24</timebase>
								<ntsc>TRUE</ntsc>
							</rate>
							<duration>598</duration>
							<timecode>
								<string>10:07:46:00</string>
								<displayformat>NDF</displayformat>
								<frame>875184</frame>
								<rate>
									<timebase>24</timebase>
									<ntsc>TRUE</ntsc>
								</rate>
							</timecode>
							<media>
								<video>
									<samplecharacteristics>
										<rate>
											<timebase>24</timebase>
											<ntsc>TRUE</ntsc>
										</rate>
										<width>1920</width>
										<height>1080</height>
										<anamorphic>FALSE</anamorphic>
										<pixelaspectratio>square</pixelaspectratio>
										<fielddominance>none</fielddominance>
									</samplecharacteristics>
								</video>
								<audio>
									<samplecharacteristics>
										<depth>16</depth>
										<samplerate>48000</samplerate>
									</samplecharacteristics>
									<channelcount>2</channelcount>
								</audio>
							</media>
						</file>
						<link>
							<linkclipref>clipitem-S3-V2-3</linkclipref>
							<mediatype>video</mediatype>
							<trackindex>2</trackindex>
							<clipindex>3</clipindex>
						</link>
						<link>
							<linkclipref>clipitem-S3-A3-3</linkclipref>
							<mediatype>audio</mediatype>
							<trackindex>3</trackindex>
							<clipindex>3</clipindex>
							<groupindex>1</groupindex>
						</link>
						<link>
							<linkclipref>clipitem-S3-A4-3</linkclipref>
							<mediatype>audio</mediatype>
							<trackindex>4</trackindex>
							<clipindex>3</clipindex>
							<groupindex>1</groupindex>
						</link>
					</clipitem>
					<clipitem id="clipitem-S3-V2-4">
						<name>julian_1_2021-11-30_1008_C0005.mov</name>
						<enabled>TRUE</enabled>
						<duration>893</duration>
						<rate>
							<timebase>24</timebase>
							<ntsc>TRUE</ntsc>
						</rate>
						<start>62633</start>
						<end>63526</end>
						<in>0</in>
						<out>893</out>
						<file id="file-249">
							<name>julian_1_2021-11-30_1008_C0005.mov</name>
							<pathurl>/Volumes/tiesta/01_Footage/semonkong/Semonkong 3/julian_1_2021-11-30_1008_C0005.mov</pathurl>
							<rate>
								<timebase>24</timebase>
								<ntsc>TRUE</ntsc>
							</rate>
							<duration>893</duration>
							<timecode>
								<string>10:08:36:00</string>
								<displayformat>NDF</displayformat>
								<frame>876384</frame>
								<rate>
									<timebase>24</timebase>
									<ntsc>TRUE</ntsc>
								</rate>
							</timecode>
							<media>
								<video>
									<samplecharacteristics>
										<rate>
											<timebase>24</timebase>
											<ntsc>TRUE</ntsc>
										</rate>
										<width>1920</width>
										<height>1080</height>
										<anamorphic>FALSE</anamorphic>
										<pixelaspectratio>square</pixelaspectratio>
										<fielddominance>none</fielddominance>
									</samplecharacteristics>
								</video>
								<audio>
									<samplecharacteristics>
										<depth>16</depth>
										<samplerate>48000</samplerate>
									</samplecharacteristics>
									<channelcount>2</channelcount>
								</audio>
							</media>
						</file>
						<link>
							<linkclipref>clipitem-S3-V2-4</linkclipref>
							<mediatype>video</mediatype>
							<trackindex>2</trackindex>
							<clipindex>4</clipindex>
						</link>
						<link>
							<linkclipref>clipitem-S3-A3-4</linkclipref>
							<mediatype>audio</mediatype>
							<trackindex>3</trackindex>
							<clipindex>4</clipindex>
							<groupindex>1</groupindex>
						</link>
						<link>
							<linkclipref>clipitem-S3-A4-4</linkclipref>
							<mediatype>audio</mediatype>
							<trackindex>4</trackindex>
							<clipindex>4</clipindex>
							<groupindex>1</groupindex>
						</link>
					</clipitem>
					<clipitem id="clipitem-S3-V2-5">
						<name>julian_1_2021-11-30_1009_C0006.mov</name>
						<enabled>TRUE</enabled>
						<duration>3991</duration>
						<rate>
							<timebase>24</timebase>
							<ntsc>TRUE</ntsc>
						</rate>
						<start>64475</start>
						<end>68466</end>
						<in>0</in>
						<out>3991</out>
						<file id="file-250">
							<name>julian_1_2021-11-30_1009_C0006.mov</name>
							<pathurl>/Volumes/tiesta/01_Footage/semonkong/Semonkong 3/julian_1_2021-11-30_1009_C0006.mov</pathurl>
							<rate>
								<timebase>24</timebase>
								<ntsc>TRUE</ntsc>
							</rate>
							<duration>3991</duration>
							<timecode>
								<string>10:09:53:00</string>
								<displayformat>NDF</displayformat>
								<frame>878232</frame>
								<rate>
									<timebase>24</timebase>
									<ntsc>TRUE</ntsc>
								</rate>
							</timecode>
							<media>
								<video>
									<samplecharacteristics>
										<rate>
											<timebase>24</timebase>
											<ntsc>TRUE</ntsc>
										</rate>
										<width>1920</width>
										<height>1080</height>
										<anamorphic>FALSE</anamorphic>
										<pixelaspectratio>square</pixelaspectratio>
										<fielddominance>none</fielddominance>
									</samplecharacteristics>
								</video>
								<audio>
									<samplecharacteristics>
										<depth>16</depth>
										<samplerate>48000</samplerate>
									</samplecharacteristics>
									<channelcount>2</channelcount>
								</audio>
							</media>
						</file>
						<link>
							<linkclipref>clipitem-S3-V2-5</linkclipref>
							<mediatype>video</mediatype>
							<trackindex>2</trackindex>
							<clipindex>5</clipindex>
						</link>
						<link>
							<linkclipref>clipitem-S3-A3-5</linkclipref>
							<mediatype>audio</mediatype>
							<trackindex>3</trackindex>
							<clipindex>5</clipindex>
							<groupindex>1</groupindex>
						</link>
						<link>
							<linkclipref>clipitem-S3-A4-5</linkclipref>
							<mediatype>audio</mediatype>
							<trackindex>4</trackindex>
							<clipindex>5</clipindex>
							<groupindex>1</groupindex>
						</link>
					</clipitem>
					<clipitem id="clipitem-S3-V2-6">
						<name>julian_1_2021-11-30_1013_C0007.mov</name>
						<enabled>TRUE</enabled>
						<duration>467</duration>
						<rate>
							<timebase>24</timebase>
							<ntsc>TRUE</ntsc>
						</rate>
						<start>69075</start>
						<end>69542</end>
						<in>0</in>
						<out>467</out>
						<file id="file-251">
							<name>julian_1_2021-11-30_1013_C0007.mov</name>
							<pathurl>/Volumes/tiesta/01_Footage/semonkong/Semonkong 3/julian_1_2021-11-30_1013_C0007.mov</pathurl>
							<rate>
								<timebase>24</timebase>
								<ntsc>TRUE</ntsc>
							</rate>
							<duration>467</duration>
							<timecode>
								<string>10:13:04:00</string>
								<displayformat>NDF</displayformat>
								<frame>882816</frame>
								<rate>
									<timebase>24</timebase>
									<ntsc>TRUE</ntsc>
								</rate>
							</timecode>
							<media>
								<video>
									<samplecharacteristics>
										<rate>
											<timebase>24</timebase>
											<ntsc>TRUE</ntsc>
										</rate>
										<width>1920</width>
										<height>1080</height>
										<anamorphic>FALSE</anamorphic>
										<pixelaspectratio>square</pixelaspectratio>
										<fielddominance>none</fielddominance>
									</samplecharacteristics>
								</video>
								<audio>
									<samplecharacteristics>
										<depth>16</depth>
										<samplerate>48000</samplerate>
									</samplecharacteristics>
									<channelcount>2</channelcount>
								</audio>
							</media>
						</file>
						<link>
							<linkclipref>clipitem-S3-V2-6</linkclipref>
							<mediatype>video</mediatype>
							<trackindex>2</trackindex>
							<clipindex>6</clipindex>
						</link>
						<link>
							<linkclipref>clipitem-S3-A3-6</linkclipref>
							<mediatype>audio</mediatype>
							<trackindex>3</trackindex>
							<clipindex>6</clipindex>
							<groupindex>1</groupindex>
						</link>
						<link>
							<linkclipref>clipitem-S3-A4-6</linkclipref>
							<mediatype>audio</mediatype>
							<trackindex>4</trackindex>
							<clipindex>6</clipindex>
							<groupindex>1</groupindex>
						</link>
					</clipitem>
					<clipitem id="clipitem-S3-V2-7">
						<name>julian_1_2021-11-30_1013_C0008.mov</name>
						<enabled>TRUE</enabled>
						<duration>1879</duration>
						<rate>
							<timebase>24</timebase>
							<ntsc>TRUE</ntsc>
						</rate>
						<start>70306</start>
						<end>72185</end>
						<in>0</in>
						<out>1879</out>
						<file id="file-252">
							<name>julian_1_2021-11-30_1013_C0008.mov</name>
							<pathurl>/Volumes/tiesta/01_Footage/semonkong/Semonkong 3/julian_1_2021-11-30_1013_C0008.mov</pathurl>
							<rate>
								<timebase>24</timebase>
								<ntsc>TRUE</ntsc>
							</rate>
							<duration>1879</duration>
							<timecode>
								<string>10:13:56:00</string>
								<displayformat>NDF</displayformat>
								<frame>884064</frame>
								<rate>
									<timebase>24</timebase>
									<ntsc>TRUE</ntsc>
								</rate>
							</timecode>
							<media>
								<video>
									<samplecharacteristics>
										<rate>
											<timebase>24</timebase>
											<ntsc>TRUE</ntsc>
										</rate>
										<width>1920</width>
										<height>1080</height>
										<anamorphic>FALSE</anamorphic>
										<pixelaspectratio>square</pixelaspectratio>
										<fielddominance>none</fielddominance>
									</samplecharacteristics>
								</video>
								<audio>
									<samplecharacteristics>
										<depth>16</depth>
										<samplerate>48000</samplerate>
									</samplecharacteristics>
									<channelcount>2</channelcount>
								</audio>
							</media>
						</file>
						<link>
							<linkclipref>clipitem-S3-V2-7</linkclipref>
							<mediatype>video</mediatype>
							<trackindex>2</trackindex>
							<clipindex>7</clipindex>
						</link>
						<link>
							<linkclipref>clipitem-S3-A3-7</linkclipref>
							<mediatype>audio</mediatype>
							<trackindex>3</trackindex>
							<clipindex>7</clipindex>
							<groupindex>1</groupindex>
						</link>
						<link>
							<linkclipref>clipitem-S3-A4-7</linkclipref>
							<mediatype>audio</mediatype>
							<trackindex>4</trackindex>
							<clipindex>7</clipindex>
							<groupindex>1</groupindex>
						</link>
					</clipitem>
					<clipitem id="clipitem-S3-V2-8">
						<name>julian_1_2021-11-30_1016_C0009.mov</name>
						<enabled>TRUE</enabled>
						<duration>4783</duration>
						<rate>
							<timebase>24</timebase>
							<ntsc>TRUE</ntsc>
						</rate>
						<start>74325</start>
						<end>79108</end>
						<in>0</in>
						<out>4783</out>
						<file id="file-253">
							<name>julian_1_2021-11-30_1016_C0009.mov</name>
							<pathurl>/Volumes/tiesta/01_Footage/semonkong/Semonkong 3/julian_1_2021-11-30_1016_C0009.mov</pathurl>
							<rate>
								<timebase>24</timebase>
								<ntsc>TRUE</ntsc>
							</rate>
							<duration>4783</duration>
							<timecode>
								<string>10:16:43:00</string>
								<displayformat>NDF</displayformat>
								<frame>888072</frame>
								<rate>
									<timebase>24</timebase>
									<ntsc>TRUE</ntsc>
								</rate>
							</timecode>
							<media>
								<video>
									<samplecharacteristics>
										<rate>
											<timebase>24</timebase>
											<ntsc>TRUE</ntsc>
										</rate>
										<width>1920</width>
										<height>1080</height>
										<anamorphic>FALSE</anamorphic>
										<pixelaspectratio>square</pixelaspectratio>
										<fielddominance>none</fielddominance>
									</samplecharacteristics>
								</video>
								<audio>
									<samplecharacteristics>
										<depth>16</depth>
										<samplerate>48000</samplerate>
									</samplecharacteristics>
									<channelcount>2</channelcount>
								</audio>
							</media>
						</file>
						<link>
							<linkclipref>clipitem-S3-V2-8</linkclipref>
							<mediatype>video</mediatype>
							<trackindex>2</trackindex>
							<clipindex>8</clipindex>
						</link>
						<link>
							<linkclipref>clipitem-S3-A3-8</linkclipref>
							<mediatype>audio</mediatype>
							<trackindex>3</trackindex>
							<clipindex>8</clipindex>
							<groupindex>1</groupindex>
						</link>
						<link>
							<linkclipref>clipitem-S3-A4-8</linkclipref>
							<mediatype>audio</mediatype>
							<trackindex>4</trackindex>
							<clipindex>8</clipindex>
							<groupindex>1</groupindex>
						</link>
					</clipitem>
					<clipitem id="clipitem-S3-V2-9">
						<name>julian_1_2021-11-30_1020_C0010.mov</name>
						<enabled>TRUE</enabled>
						<duration>2158</duration>
						<rate>
							<timebase>24</timebase>
							<ntsc>TRUE</ntsc>
						</rate>
						<start>79910</start>
						<end>82068</end>
						<in>0</in>
						<out>2158</out>
						<file id="file-254">
							<name>julian_1_2021-11-30_1020_C0010.mov</name>
							<pathurl>/Volumes/tiesta/01_Footage/semonkong/Semonkong 3/julian_1_2021-11-30_1020_C0010.mov</pathurl>
							<rate>
								<timebase>24</timebase>
								<ntsc>TRUE</ntsc>
							</rate>
							<duration>2158</duration>
							<timecode>
								<string>10:20:36:00</string>
								<displayformat>NDF</displayformat>
								<frame>893664</frame>
								<rate>
									<timebase>24</timebase>
									<ntsc>TRUE</ntsc>
								</rate>
							</timecode>
							<media>
								<video>
									<samplecharacteristics>
										<rate>
											<timebase>24</timebase>
											<ntsc>TRUE</ntsc>
										</rate>
										<width>1920</width>
										<height>1080</height>
										<anamorphic>FALSE</anamorphic>
										<pixelaspectratio>square</pixelaspectratio>
										<fielddominance>none</fielddominance>
									</samplecharacteristics>
								</video>
								<audio>
									<samplecharacteristics>
										<depth>16</depth>
										<samplerate>48000</samplerate>
									</samplecharacteristics>
									<channelcount>2</channelcount>
								</audio>
							</media>
						</file>
						<link>
							<linkclipref>clipitem-S3-V2-9</linkclipref>
							<mediatype>video</mediatype>
							<trackindex>2</trackindex>
							<clipindex>9</clipindex>
						</link>
						<link>
							<linkclipref>clipitem-S3-A3-9</linkclipref>
							<mediatype>audio</mediatype>
							<trackindex>3</trackindex>
							<clipindex>9</clipindex>
							<groupindex>1</groupindex>
						</link>
						<link>
							<linkclipref>clipitem-S3-A4-9</linkclipref>
							<mediatype>audio</mediatype>
							<trackindex>4</trackindex>
							<clipindex>9</clipindex>
							<groupindex>1</groupindex>
						</link>
					</clipitem>
					<clipitem id="clipitem-S3-V2-10">
						<name>julian_1_2021-11-30_1023_C0011.mov</name>
						<enabled>TRUE</enabled>
						<duration>799</duration>
						<rate>
							<timebase>24</timebase>
							<ntsc>TRUE</ntsc>
						</rate>
						<start>83431</start>
						<end>84230</end>
						<in>0</in>
						<out>799</out>
						<file id="file-255">
							<name>julian_1_2021-11-30_1023_C0011.mov</name>
							<pathurl>/Volumes/tiesta/01_Footage/semonkong/Semonkong 3/julian_1_2021-11-30_1023_C0011.mov</pathurl>
							<rate>
								<timebase>24</timebase>
								<ntsc>TRUE</ntsc>
							</rate>
							<duration>799</duration>
							<timecode>
								<string>10:23:03:00</string>
								<displayformat>NDF</displayformat>
								<frame>897192</frame>
								<rate>
									<timebase>24</timebase>
									<ntsc>TRUE</ntsc>
								</rate>
							</timecode>
							<media>
								<video>
									<samplecharacteristics>
										<rate>
											<timebase>24</timebase>
											<ntsc>TRUE</ntsc>
										</rate>
										<width>1920</width>
										<height>1080</height>
										<anamorphic>FALSE</anamorphic>
										<pixelaspectratio>square</pixelaspectratio>
										<fielddominance>none</fielddominance>
									</samplecharacteristics>
								</video>
								<audio>
									<samplecharacteristics>
										<depth>16</depth>
										<samplerate>48000</samplerate>
									</samplecharacteristics>
									<channelcount>2</channelcount>
								</audio>
							</media>
						</file>
						<link>
							<linkclipref>clipitem-S3-V2-10</linkclipref>
							<mediatype>video</mediatype>
							<trackindex>2</trackindex>
							<clipindex>10</clipindex>
						</link>
						<link>
							<linkclipref>clipitem-S3-A3-10</linkclipref>
							<mediatype>audio</mediatype>
							<trackindex>3</trackindex>
							<clipindex>10</clipindex>
							<groupindex>1</groupindex>
						</link>
						<link>
							<linkclipref>clipitem-S3-A4-10</linkclipref>
							<mediatype>audio</mediatype>
							<trackindex>4</trackindex>
							<clipindex>10</clipindex>
							<groupindex>1</groupindex>
						</link>
					</clipitem>
					<clipitem id="clipitem-S3-V2-11">
						<name>julian_1_2021-11-30_1025_C0012.mov</name>
						<enabled>TRUE</enabled>
						<duration>4991</duration>
						<rate>
							<timebase>24</timebase>
							<ntsc>TRUE</ntsc>
						</rate>
						<start>87347</start>
						<end>92338</end>
						<in>0</in>
						<out>4991</out>
						<file id="file-256">
							<name>julian_1_2021-11-30_1025_C0012.mov</name>
							<pathurl>/Volumes/tiesta/01_Footage/semonkong/Semonkong 3/julian_1_2021-11-30_1025_C0012.mov</pathurl>
							<rate>
								<timebase>24</timebase>
								<ntsc>TRUE</ntsc>
							</rate>
							<duration>4991</duration>
							<timecode>
								<string>10:25:47:00</string>
								<displayformat>NDF</displayformat>
								<frame>901128</frame>
								<rate>
									<timebase>24</timebase>
									<ntsc>TRUE</ntsc>
								</rate>
							</timecode>
							<media>
								<video>
									<samplecharacteristics>
										<rate>
											<timebase>24</timebase>
											<ntsc>TRUE</ntsc>
										</rate>
										<width>1920</width>
										<height>1080</height>
										<anamorphic>FALSE</anamorphic>
										<pixelaspectratio>square</pixelaspectratio>
										<fielddominance>none</fielddominance>
									</samplecharacteristics>
								</video>
								<audio>
									<samplecharacteristics>
										<depth>16</depth>
										<samplerate>48000</samplerate>
									</samplecharacteristics>
									<channelcount>2</channelcount>
								</audio>
							</media>
						</file>
						<link>
							<linkclipref>clipitem-S3-V2-11</linkclipref>
							<mediatype>video</mediatype>
							<trackindex>2</trackindex>
							<clipindex>11</clipindex>
						</link>
						<link>
							<linkclipref>clipitem-S3-A3-11</linkclipref>
							<mediatype>audio</mediatype>
							<trackindex>3</trackindex>
							<clipindex>11</clipindex>
							<groupindex>1</groupindex>
						</link>
						<link>
							<linkclipref>clipitem-S3-A4-11</linkclipref>
							<mediatype>audio</mediatype>
							<trackindex>4</trackindex>
							<clipindex>11</clipindex>
							<groupindex>1</groupindex>
						</link>
					</clipitem>
					<clipitem id="clipitem-S3-V2-12">
						<name>julian_1_2021-11-30_1032_C0013.mov</name>
						<enabled>TRUE</enabled>
						<duration>1447</duration>
						<rate>
							<timebase>24</timebase>
							<ntsc>TRUE</ntsc>
						</rate>
						<start>97239</start>
						<end>98686</end>
						<in>0</in>
						<out>1447</out>
						<file id="file-257">
							<name>julian_1_2021-11-30_1032_C0013.mov</name>
							<pathurl>/Volumes/tiesta/01_Footage/semonkong/Semonkong 3/julian_1_2021-11-30_1032_C0013.mov</pathurl>
							<rate>
								<timebase>24</timebase>
								<ntsc>TRUE</ntsc>
							</rate>
							<duration>1447</duration>
							<timecode>
								<string>10:32:39:00</string>
								<displayformat>NDF</displayformat>
								<frame>911016</frame>
								<rate>
									<timebase>24</timebase>
									<ntsc>TRUE</ntsc>
								</rate>
							</timecode>
							<media>
								<video>
									<samplecharacteristics>
										<rate>
											<timebase>24</timebase>
											<ntsc>TRUE</ntsc>
										</rate>
										<width>1920</width>
										<height>1080</height>
										<anamorphic>FALSE</anamorphic>
										<pixelaspectratio>square</pixelaspectratio>
										<fielddominance>none</fielddominance>
									</samplecharacteristics>
								</video>
								<audio>
									<samplecharacteristics>
										<depth>16</depth>
										<samplerate>48000</samplerate>
									</samplecharacteristics>
									<channelcount>2</channelcount>
								</audio>
							</media>
						</file>
						<link>
							<linkclipref>clipitem-S3-V2-12</linkclipref>
							<mediatype>video</mediatype>
							<trackindex>2</trackindex>
							<clipindex>12</clipindex>
						</link>
						<link>
							<linkclipref>clipitem-S3-A3-12</linkclipref>
							<mediatype>audio</mediatype>
							<trackindex>3</trackindex>
							<clipindex>12</clipindex>
							<groupindex>1</groupindex>
						</link>
						<link>
							<linkclipref>clipitem-S3-A4-12</linkclipref>
							<mediatype>audio</mediatype>
							<trackindex>4</trackindex>
							<clipindex>12</clipindex>
							<groupindex>1</groupindex>
						</link>
					</clipitem>
					<clipitem id="clipitem-S3-V2-13">
						<name>julian_1_2021-11-30_1035_C0014.mov</name>
						<enabled>TRUE</enabled>
						<duration>3350</duration>
						<rate>
							<timebase>24</timebase>
							<ntsc>TRUE</ntsc>
						</rate>
						<start>101174</start>
						<end>104524</end>
						<in>0</in>
						<out>3350</out>
						<file id="file-258">
							<name>julian_1_2021-11-30_1035_C0014.mov</name>
							<pathurl>/Volumes/tiesta/01_Footage/semonkong/Semonkong 3/julian_1_2021-11-30_1035_C0014.mov</pathurl>
							<rate>
								<timebase>24</timebase>
								<ntsc>TRUE</ntsc>
							</rate>
							<duration>3350</duration>
							<timecode>
								<string>10:35:23:00</string>
								<displayformat>NDF</displayformat>
								<frame>914952</frame>
								<rate>
									<timebase>24</timebase>
									<ntsc>TRUE</ntsc>
								</rate>
							</timecode>
							<media>
								<video>
									<samplecharacteristics>
										<rate>
											<timebase>24</timebase>
											<ntsc>TRUE</ntsc>
										</rate>
										<width>1920</width>
										<height>1080</height>
										<anamorphic>FALSE</anamorphic>
										<pixelaspectratio>square</pixelaspectratio>
										<fielddominance>none</fielddominance>
									</samplecharacteristics>
								</video>
								<audio>
									<samplecharacteristics>
										<depth>16</depth>
										<samplerate>48000</samplerate>
									</samplecharacteristics>
									<channelcount>2</channelcount>
								</audio>
							</media>
						</file>
						<link>
							<linkclipref>clipitem-S3-V2-13</linkclipref>
							<mediatype>video</mediatype>
							<trackindex>2</trackindex>
							<clipindex>13</clipindex>
						</link>
						<link>
							<linkclipref>clipitem-S3-A3-13</linkclipref>
							<mediatype>audio</mediatype>
							<trackindex>3</trackindex>
							<clipindex>13</clipindex>
							<groupindex>1</groupindex>
						</link>
						<link>
							<linkclipref>clipitem-S3-A4-13</linkclipref>
							<mediatype>audio</mediatype>
							<trackindex>4</trackindex>
							<clipindex>13</clipindex>
							<groupindex>1</groupindex>
						</link>
					</clipitem>
					<clipitem id="clipitem-S3-V2-14">
						<name>julian_1_2021-11-30_1042_C0015.mov</name>
						<enabled>TRUE</enabled>
						<duration>5353</duration>
						<rate>
							<timebase>24</timebase>
							<ntsc>TRUE</ntsc>
						</rate>
						<start>111179</start>
						<end>116532</end>
						<in>0</in>
						<out>5353</out>
						<file id="file-259">
							<name>julian_1_2021-11-30_1042_C0015.mov</name>
							<pathurl>/Volumes/tiesta/01_Footage/semonkong/Semonkong 3/julian_1_2021-11-30_1042_C0015.mov</pathurl>
							<rate>
								<timebase>24</timebase>
								<ntsc>TRUE</ntsc>
							</rate>
							<duration>5353</duration>
							<timecode>
								<string>10:42:20:00</string>
								<displayformat>NDF</displayformat>
								<frame>924960</frame>
								<rate>
									<timebase>24</timebase>
									<ntsc>TRUE</ntsc>
								</rate>
							</timecode>
							<media>
								<video>
									<samplecharacteristics>
										<rate>
											<timebase>24</timebase>
											<ntsc>TRUE</ntsc>
										</rate>
										<width>1920</width>
										<height>1080</height>
										<anamorphic>FALSE</anamorphic>
										<pixelaspectratio>square</pixelaspectratio>
										<fielddominance>none</fielddominance>
									</samplecharacteristics>
								</video>
								<audio>
									<samplecharacteristics>
										<depth>16</depth>
										<samplerate>48000</samplerate>
									</samplecharacteristics>
									<channelcount>2</channelcount>
								</audio>
							</media>
						</file>
						<link>
							<linkclipref>clipitem-S3-V2-14</linkclipref>
							<mediatype>video</mediatype>
							<trackindex>2</trackindex>
							<clipindex>14</clipindex>
						</link>
						<link>
							<linkclipref>clipitem-S3-A3-14</linkclipref>
							<mediatype>audio</mediatype>
							<trackindex>3</trackindex>
							<clipindex>14</clipindex>
							<groupindex>1</groupindex>
						</link>
						<link>
							<linkclipref>clipitem-S3-A4-14</linkclipref>
							<mediatype>audio</mediatype>
							<trackindex>4</trackindex>
							<clipindex>14</clipindex>
							<groupindex>1</groupindex>
						</link>
					</clipitem>
					<enabled>TRUE</enabled>
					<locked>FALSE</locked>
				</track>
			</video>
			<audio>
				<format>
					<samplecharacteristics>
						<depth>16</depth>
						<samplerate>48000</samplerate>
					</samplecharacteristics>
				</format>
				<outputs>
				<group>
					<index>1</index>
						<numchannels>1</numchannels>
						<downmix>0</downmix>
						<channel>
						<index>1</index>
						</channel>
					</group>
					<group>
					<index>2</index>
						<numchannels>1</numchannels>
						<downmix>0</downmix>
						<channel>
						<index>2</index>
						</channel>
					</group>
				</outputs>
				<track currentExplodedTrackIndex="0" totalExplodedTrackCount="2" premiereTrackType="Stereo">
					<clipitem id="clipitem-S3-A1-1" premiereChannelType="stereo">
						<name>wiblo_1_2002-11-02_0332_C0095.mov</name>
						<enabled>TRUE</enabled>
						<duration>31557</duration>
						<rate>
							<timebase>24</timebase>
							<ntsc>TRUE</ntsc>
						</rate>
						<start>8712</start>
						<end>40269</end>
						<in>0</in>
						<out>31557</out>
						<file id="file-244"/>
						<sourcetrack>
							<mediatype>audio</mediatype>
							<trackindex>1</trackindex>
						</sourcetrack>
						<link>
							<linkclipref>clipitem-S3-A1-1</linkclipref>
							<mediatype>audio</mediatype>
							<trackindex>1</trackindex>
							<clipindex>1</clipindex>
							<groupindex>1</groupindex>
						</link>
						<link>
							<linkclipref>clipitem-S3-A2-1</linkclipref>
							<mediatype>audio</mediatype>
							<trackindex>2</trackindex>
							<clipindex>1</clipindex>
							<groupindex>1</groupindex>
						</link>
						<link>
							<linkclipref>clipitem-S3-V1-1</linkclipref>
							<mediatype>video</mediatype>
							<trackindex>1</trackindex>
							<clipindex>1</clipindex>
						</link>
					</clipitem>
					<clipitem id="clipitem-S3-A1-2" premiereChannelType="stereo">
						<name>wiblo_1_2002-11-02_0438_C0001.mov</name>
						<enabled>TRUE</enabled>
						<duration>54366</duration>
						<rate>
							<timebase>24</timebase>
							<ntsc>TRUE</ntsc>
						</rate>
						<start>58925</start>
						<end>113291</end>
						<in>0</in>
						<out>54366</out>
						<file id="file-245"/>
						<sourcetrack>
							<mediatype>audio</mediatype>
							<trackindex>1</trackindex>
						</sourcetrack>
						<link>
							<linkclipref>clipitem-S3-A1-2</linkclipref>
							<mediatype>audio</mediatype>
							<trackindex>1</trackindex>
							<clipindex>2</clipindex>
							<groupindex>1</groupindex>
						</link>
						<link>
							<linkclipref>clipitem-S3-A2-2</linkclipref>
							<mediatype>audio</mediatype>
							<trackindex>2</trackindex>
							<clipindex>2</clipindex>
							<groupindex>1</groupindex>
						</link>
						<link>
							<linkclipref>clipitem-S3-V1-2</linkclipref>
							<mediatype>video</mediatype>
							<trackindex>1</trackindex>
							<clipindex>2</clipindex>
						</link>
					</clipitem>
					<enabled>TRUE</enabled>
					<locked>FALSE</locked>
					<outputchannelindex>1</outputchannelindex>
				</track>
				<track currentExplodedTrackIndex="1" totalExplodedTrackCount="2" premiereTrackType="Stereo">
					<clipitem id="clipitem-S3-A2-1" premiereChannelType="stereo">
						<name>wiblo_1_2002-11-02_0332_C0095.mov</name>
						<enabled>TRUE</enabled>
						<duration>31557</duration>
						<rate>
							<timebase>24</timebase>
							<ntsc>TRUE</ntsc>
						</rate>
						<start>8712</start>
						<end>40269</end>
						<in>0</in>
						<out>31557</out>
						<file id="file-244"/>
						<sourcetrack>
							<mediatype>audio</mediatype>
							<trackindex>2</trackindex>
						</sourcetrack>
						<link>
							<linkclipref>clipitem-S3-A1-1</linkclipref>
							<mediatype>audio</mediatype>
							<trackindex>1</trackindex>
							<clipindex>1</clipindex>
							<groupindex>1</groupindex>
						</link>
						<link>
							<linkclipref>clipitem-S3-A2-1</linkclipref>
							<mediatype>audio</mediatype>
							<trackindex>2</trackindex>
							<clipindex>1</clipindex>
							<groupindex>1</groupindex>
						</link>
						<link>
							<linkclipref>clipitem-S3-V1-1</linkclipref>
							<mediatype>video</mediatype>
							<trackindex>1</trackindex>
							<clipindex>1</clipindex>
						</link>
					</clipitem>
					<clipitem id="clipitem-S3-A2-2" premiereChannelType="stereo">
						<name>wiblo_1_2002-11-02_0438_C0001.mov</name>
						<enabled>TRUE</enabled>
						<duration>54366</duration>
						<rate>
							<timebase>24</timebase>
							<ntsc>TRUE</ntsc>
						</rate>
						<start>58925</start>
						<end>113291</end>
						<in>0</in>
						<out>54366</out>
						<file id="file-245"/>
						<sourcetrack>
							<mediatype>audio</mediatype>
							<trackindex>2</trackindex>
						</sourcetrack>
						<link>
							<linkclipref>clipitem-S3-A1-2</linkclipref>
							<mediatype>audio</mediatype>
							<trackindex>1</trackindex>
							<clipindex>2</clipindex>
							<groupindex>1</groupindex>
						</link>
						<link>
							<linkclipref>clipitem-S3-A2-2</linkclipref>
							<mediatype>audio</mediatype>
							<trackindex>2</trackindex>
							<clipindex>2</clipindex>
							<groupindex>1</groupindex>
						</link>
						<link>
							<linkclipref>clipitem-S3-V1-2</linkclipref>
							<mediatype>video</mediatype>
							<trackindex>1</trackindex>
							<clipindex>2</clipindex>
						</link>
					</clipitem>
					<enabled>TRUE</enabled>
					<locked>FALSE</locked>
					<outputchannelindex>2</outputchannelindex>
				</track>
				<track currentExplodedTrackIndex="0" totalExplodedTrackCount="2" premiereTrackType="Stereo">
					<clipitem id="clipitem-S3-A3-1" premiereChannelType="stereo">
						<name>julian_1_2021-11-30_0912_C0002.mov</name>
						<enabled>TRUE</enabled>
						<duration>3405</duration>
						<rate>
							<timebase>24</timebase>
							<ntsc>TRUE</ntsc>
						</rate>
						<start>26818</start>
						<end>30223</end>
						<in>0</in>
						<out>3405</out>
						<file id="file-246"/>
						<sourcetrack>
							<mediatype>audio</mediatype>
							<trackindex>1</trackindex>
						</sourcetrack>
						<link>
							<linkclipref>clipitem-S3-A3-1</linkclipref>
							<mediatype>audio</mediatype>
							<trackindex>3</trackindex>
							<clipindex>1</clipindex>
							<groupindex>1</groupindex>
						</link>
						<link>
							<linkclipref>clipitem-S3-A4-1</linkclipref>
							<mediatype>audio</mediatype>
							<trackindex>4</trackindex>
							<clipindex>1</clipindex>
							<groupindex>1</groupindex>
						</link>
						<link>
							<linkclipref>clipitem-S3-V2-1</linkclipref>
							<mediatype>video</mediatype>
							<trackindex>2</trackindex>
							<clipindex>1</clipindex>
						</link>
					</clipitem>
					<clipitem id="clipitem-S3-A3-2" premiereChannelType="stereo">
						<name>julian_1_2021-11-30_0916_C0003.mov</name>
						<enabled>TRUE</enabled>
						<duration>3110</duration>
						<rate>
							<timebase>24</timebase>
							<ntsc>TRUE</ntsc>
						</rate>
						<start>31625</start>
						<end>34735</end>
						<in>0</in>
						<out>3110</out>
						<file id="file-247"/>
						<sourcetrack>
							<mediatype>audio</mediatype>
							<trackindex>1</trackindex>
						</sourcetrack>
						<link>
							<linkclipref>clipitem-S3-A3-2</linkclipref>
							<mediatype>audio</mediatype>
							<trackindex>3</trackindex>
							<clipindex>2</clipindex>
							<groupindex>1</groupindex>
						</link>
						<link>
							<linkclipref>clipitem-S3-A4-2</linkclipref>
							<mediatype>audio</mediatype>
							<trackindex>4</trackindex>
							<clipindex>2</clipindex>
							<groupindex>1</groupindex>
						</link>
						<link>
							<linkclipref>clipitem-S3-V2-2</linkclipref>
							<mediatype>video</mediatype>
							<trackindex>2</trackindex>
							<clipindex>2</clipindex>
						</link>
					</clipitem>
					<clipitem id="clipitem-S3-A3-3" premiereChannelType="stereo">
						<name>julian_1_2021-11-30_1007_C0004.mov</name>
						<enabled>TRUE</enabled>
						<duration>598</duration>
						<rate>
							<timebase>24</timebase>
							<ntsc>TRUE</ntsc>
						</rate>
						<start>61437</start>
						<end>62035</end>
						<in>0</in>
						<out>598</out>
						<file id="file-248"/>
						<sourcetrack>
							<mediatype>audio</mediatype>
							<trackindex>1</trackindex>
						</sourcetrack>
						<link>
							<linkclipref>clipitem-S3-A3-3</linkclipref>
							<mediatype>audio</mediatype>
							<trackindex>3</trackindex>
							<clipindex>3</clipindex>
							<groupindex>1</groupindex>
						</link>
						<link>
							<linkclipref>clipitem-S3-A4-3</linkclipref>
							<mediatype>audio</mediatype>
							<trackindex>4</trackindex>
							<clipindex>3</clipindex>
							<groupindex>1</groupindex>
						</link>
						<link>
							<linkclipref>clipitem-S3-V2-3</linkclipref>
							<mediatype>video</mediatype>
							<trackindex>2</trackindex>
							<clipindex>3</clipindex>
						</link>
					</clipitem>
					<clipitem id="clipitem-S3-A3-4" premiereChannelType="stereo">
						<name>julian_1_2021-11-30_1008_C0005.mov</name>
						<enabled>TRUE</enabled>
						<duration>893</duration>
						<rate>
							<timebase>24</timebase>
							<ntsc>TRUE</ntsc>
						</rate>
						<start>62633</start>
						<end>63526</end>
						<in>0</in>
						<out>893</out>
						<file id="file-249"/>
						<sourcetrack>
							<mediatype>audio</mediatype>
							<trackindex>1</trackindex>
						</sourcetrack>
						<link>
							<linkclipref>clipitem-S3-A3-4</linkclipref>
							<mediatype>audio</mediatype>
							<trackindex>3</trackindex>
							<clipindex>4</clipindex>
							<groupindex>1</groupindex>
						</link>
						<link>
							<linkclipref>clipitem-S3-A4-4</linkclipref>
							<mediatype>audio</mediatype>
							<trackindex>4</trackindex>
							<clipindex>4</clipindex>
							<groupindex>1</groupindex>
						</link>
						<link>
							<linkclipref>clipitem-S3-V2-4</linkclipref>
							<mediatype>video</mediatype>
							<trackindex>2</trackindex>
							<clipindex>4</clipindex>
						</link>
					</clipitem>
					<clipitem id="clipitem-S3-A3-5" premiereChannelType="stereo">
						<name>julian_1_2021-11-30_1009_C0006.mov</name>
						<enabled>TRUE</enabled>
						<duration>3991</duration>
						<rate>
							<timebase>24</timebase>
							<ntsc>TRUE</ntsc>
						</rate>
						<start>64475</start>
						<end>68466</end>
						<in>0</in>
						<out>3991</out>
						<file id="file-250"/>
						<sourcetrack>
							<mediatype>audio</mediatype>
							<trackindex>1</trackindex>
						</sourcetrack>
						<link>
							<linkclipref>clipitem-S3-A3-5</linkclipref>
							<mediatype>audio</mediatype>
							<trackindex>3</trackindex>
							<clipindex>5</clipindex>
							<groupindex>1</groupindex>
						</link>
						<link>
							<linkclipref>clipitem-S3-A4-5</linkclipref>
							<mediatype>audio</mediatype>
							<trackindex>4</trackindex>
							<clipindex>5</clipindex>
							<groupindex>1</groupindex>
						</link>
						<link>
							<linkclipref>clipitem-S3-V2-5</linkclipref>
							<mediatype>video</mediatype>
							<trackindex>2</trackindex>
							<clipindex>5</clipindex>
						</link>
					</clipitem>
					<clipitem id="clipitem-S3-A3-6" premiereChannelType="stereo">
						<name>julian_1_2021-11-30_1013_C0007.mov</name>
						<enabled>TRUE</enabled>
						<duration>467</duration>
						<rate>
							<timebase>24</timebase>
							<ntsc>TRUE</ntsc>
						</rate>
						<start>69075</start>
						<end>69542</end>
						<in>0</in>
						<out>467</out>
						<file id="file-251"/>
						<sourcetrack>
							<mediatype>audio</mediatype>
							<trackindex>1</trackindex>
						</sourcetrack>
						<link>
							<linkclipref>clipitem-S3-A3-6</linkclipref>
							<mediatype>audio</mediatype>
							<trackindex>3</trackindex>
							<clipindex>6</clipindex>
							<groupindex>1</groupindex>
						</link>
						<link>
							<linkclipref>clipitem-S3-A4-6</linkclipref>
							<mediatype>audio</mediatype>
							<trackindex>4</trackindex>
							<clipindex>6</clipindex>
							<groupindex>1</groupindex>
						</link>
						<link>
							<linkclipref>clipitem-S3-V2-6</linkclipref>
							<mediatype>video</mediatype>
							<trackindex>2</trackindex>
							<clipindex>6</clipindex>
						</link>
					</clipitem>
					<clipitem id="clipitem-S3-A3-7" premiereChannelType="stereo">
						<name>julian_1_2021-11-30_1013_C0008.mov</name>
						<enabled>TRUE</enabled>
						<duration>1879</duration>
						<rate>
							<timebase>24</timebase>
							<ntsc>TRUE</ntsc>
						</rate>
						<start>70306</start>
						<end>72185</end>
						<in>0</in>
						<out>1879</out>
						<file id="file-252"/>
						<sourcetrack>
							<mediatype>audio</mediatype>
							<trackindex>1</trackindex>
						</sourcetrack>
						<link>
							<linkclipref>clipitem-S3-A3-7</linkclipref>
							<mediatype>audio</mediatype>
							<trackindex>3</trackindex>
							<clipindex>7</clipindex>
							<groupindex>1</groupindex>
						</link>
						<link>
							<linkclipref>clipitem-S3-A4-7</linkclipref>
							<mediatype>audio</mediatype>
							<trackindex>4</trackindex>
							<clipindex>7</clipindex>
							<groupindex>1</groupindex>
						</link>
						<link>
							<linkclipref>clipitem-S3-V2-7</linkclipref>
							<mediatype>video</mediatype>
							<trackindex>2</trackindex>
							<clipindex>7</clipindex>
						</link>
					</clipitem>
					<clipitem id="clipitem-S3-A3-8" premiereChannelType="stereo">
						<name>julian_1_2021-11-30_1016_C0009.mov</name>
						<enabled>TRUE</enabled>
						<duration>4783</duration>
						<rate>
							<timebase>24</timebase>
							<ntsc>TRUE</ntsc>
						</rate>
						<start>74325</start>
						<end>79108</end>
						<in>0</in>
						<out>4783</out>
						<file id="file-253"/>
						<sourcetrack>
							<mediatype>audio</mediatype>
							<trackindex>1</trackindex>
						</sourcetrack>
						<link>
							<linkclipref>clipitem-S3-A3-8</linkclipref>
							<mediatype>audio</mediatype>
							<trackindex>3</trackindex>
							<clipindex>8</clipindex>
							<groupindex>1</groupindex>
						</link>
						<link>
							<linkclipref>clipitem-S3-A4-8</linkclipref>
							<mediatype>audio</mediatype>
							<trackindex>4</trackindex>
							<clipindex>8</clipindex>
							<groupindex>1</groupindex>
						</link>
						<link>
							<linkclipref>clipitem-S3-V2-8</linkclipref>
							<mediatype>video</mediatype>
							<trackindex>2</trackindex>
							<clipindex>8</clipindex>
						</link>
					</clipitem>
					<clipitem id="clipitem-S3-A3-9" premiereChannelType="stereo">
						<name>julian_1_2021-11-30_1020_C0010.mov</name>
						<enabled>TRUE</enabled>
						<duration>2158</duration>
						<rate>
							<timebase>24</timebase>
							<ntsc>TRUE</ntsc>
						</rate>
						<start>79910</start>
						<end>82068</end>
						<in>0</in>
						<out>2158</out>
						<file id="file-254"/>
						<sourcetrack>
							<mediatype>audio</mediatype>
							<trackindex>1</trackindex>
						</sourcetrack>
						<link>
							<linkclipref>clipitem-S3-A3-9</linkclipref>
							<mediatype>audio</mediatype>
							<trackindex>3</trackindex>
							<clipindex>9</clipindex>
							<groupindex>1</groupindex>
						</link>
						<link>
							<linkclipref>clipitem-S3-A4-9</linkclipref>
							<mediatype>audio</mediatype>
							<trackindex>4</trackindex>
							<clipindex>9</clipindex>
							<groupindex>1</groupindex>
						</link>
						<link>
							<linkclipref>clipitem-S3-V2-9</linkclipref>
							<mediatype>video</mediatype>
							<trackindex>2</trackindex>
							<clipindex>9</clipindex>
						</link>
					</clipitem>
					<clipitem id="clipitem-S3-A3-10" premiereChannelType="stereo">
						<name>julian_1_2021-11-30_1023_C0011.mov</name>
						<enabled>TRUE</enabled>
						<duration>799</duration>
						<rate>
							<timebase>24</timebase>
							<ntsc>TRUE</ntsc>
						</rate>
						<start>83431</start>
						<end>84230</end>
						<in>0</in>
						<out>799</out>
						<file id="file-255"/>
						<sourcetrack>
							<mediatype>audio</mediatype>
							<trackindex>1</trackindex>
						</sourcetrack>
						<link>
							<linkclipref>clipitem-S3-A3-10</linkclipref>
							<mediatype>audio</mediatype>
							<trackindex>3</trackindex>
							<clipindex>10</clipindex>
							<groupindex>1</groupindex>
						</link>
						<link>
							<linkclipref>clipitem-S3-A4-10</linkclipref>
							<mediatype>audio</mediatype>
							<trackindex>4</trackindex>
							<clipindex>10</clipindex>
							<groupindex>1</groupindex>
						</link>
						<link>
							<linkclipref>clipitem-S3-V2-10</linkclipref>
							<mediatype>video</mediatype>
							<trackindex>2</trackindex>
							<clipindex>10</clipindex>
						</link>
					</clipitem>
					<clipitem id="clipitem-S3-A3-11" premiereChannelType="stereo">
						<name>julian_1_2021-11-30_1025_C0012.mov</name>
						<enabled>TRUE</enabled>
						<duration>4991</duration>
						<rate>
							<timebase>24</timebase>
							<ntsc>TRUE</ntsc>
						</rate>
						<start>87347</start>
						<end>92338</end>
						<in>0</in>
						<out>4991</out>
						<file id="file-256"/>
						<sourcetrack>
							<mediatype>audio</mediatype>
							<trackindex>1</trackindex>
						</sourcetrack>
						<link>
							<linkclipref>clipitem-S3-A3-11</linkclipref>
							<mediatype>audio</mediatype>
							<trackindex>3</trackindex>
							<clipindex>11</clipindex>
							<groupindex>1</groupindex>
						</link>
						<link>
							<linkclipref>clipitem-S3-A4-11</linkclipref>
							<mediatype>audio</mediatype>
							<trackindex>4</trackindex>
							<clipindex>11</clipindex>
							<groupindex>1</groupindex>
						</link>
						<link>
							<linkclipref>clipitem-S3-V2-11</linkclipref>
							<mediatype>video</mediatype>
							<trackindex>2</trackindex>
							<clipindex>11</clipindex>
						</link>
					</clipitem>
					<clipitem id="clipitem-S3-A3-12" premiereChannelType="stereo">
						<name>julian_1_2021-11-30_1032_C0013.mov</name>
						<enabled>TRUE</enabled>
						<duration>1447</duration>
						<rate>
							<timebase>24</timebase>
							<ntsc>TRUE</ntsc>
						</rate>
						<start>97239</start>
						<end>98686</end>
						<in>0</in>
						<out>1447</out>
						<file id="file-257"/>
						<sourcetrack>
							<mediatype>audio</mediatype>
							<trackindex>1</trackindex>
						</sourcetrack>
						<link>
							<linkclipref>clipitem-S3-A3-12</linkclipref>
							<mediatype>audio</mediatype>
							<trackindex>3</trackindex>
							<clipindex>12</clipindex>
							<groupindex>1</groupindex>
						</link>
						<link>
							<linkclipref>clipitem-S3-A4-12</linkclipref>
							<mediatype>audio</mediatype>
							<trackindex>4</trackindex>
							<clipindex>12</clipindex>
							<groupindex>1</groupindex>
						</link>
						<link>
							<linkclipref>clipitem-S3-V2-12</linkclipref>
							<mediatype>video</mediatype>
							<trackindex>2</trackindex>
							<clipindex>12</clipindex>
						</link>
					</clipitem>
					<clipitem id="clipitem-S3-A3-13" premiereChannelType="stereo">
						<name>julian_1_2021-11-30_1035_C0014.mov</name>
						<enabled>TRUE</enabled>
						<duration>3350</duration>
						<rate>
							<timebase>24</timebase>
							<ntsc>TRUE</ntsc>
						</rate>
						<start>101174</start>
						<end>104524</end>
						<in>0</in>
						<out>3350</out>
						<file id="file-258"/>
						<sourcetrack>
							<mediatype>audio</mediatype>
							<trackindex>1</trackindex>
						</sourcetrack>
						<link>
							<linkclipref>clipitem-S3-A3-13</linkclipref>
							<mediatype>audio</mediatype>
							<trackindex>3</trackindex>
							<clipindex>13</clipindex>
							<groupindex>1</groupindex>
						</link>
						<link>
							<linkclipref>clipitem-S3-A4-13</linkclipref>
							<mediatype>audio</mediatype>
							<trackindex>4</trackindex>
							<clipindex>13</clipindex>
							<groupindex>1</groupindex>
						</link>
						<link>
							<linkclipref>clipitem-S3-V2-13</linkclipref>
							<mediatype>video</mediatype>
							<trackindex>2</trackindex>
							<clipindex>13</clipindex>
						</link>
					</clipitem>
					<clipitem id="clipitem-S3-A3-14" premiereChannelType="stereo">
						<name>julian_1_2021-11-30_1042_C0015.mov</name>
						<enabled>TRUE</enabled>
						<duration>5353</duration>
						<rate>
							<timebase>24</timebase>
							<ntsc>TRUE</ntsc>
						</rate>
						<start>111179</start>
						<end>116532</end>
						<in>0</in>
						<out>5353</out>
						<file id="file-259"/>
						<sourcetrack>
							<mediatype>audio</mediatype>
							<trackindex>1</trackindex>
						</sourcetrack>
						<link>
							<linkclipref>clipitem-S3-A3-14</linkclipref>
							<mediatype>audio</mediatype>
							<trackindex>3</trackindex>
							<clipindex>14</clipindex>
							<groupindex>1</groupindex>
						</link>
						<link>
							<linkclipref>clipitem-S3-A4-14</linkclipref>
							<mediatype>audio</mediatype>
							<trackindex>4</trackindex>
							<clipindex>14</clipindex>
							<groupindex>1</groupindex>
						</link>
						<link>
							<linkclipref>clipitem-S3-V2-14</linkclipref>
							<mediatype>video</mediatype>
							<trackindex>2</trackindex>
							<clipindex>14</clipindex>
						</link>
					</clipitem>
					<enabled>TRUE</enabled>
					<locked>FALSE</locked>
					<outputchannelindex>1</outputchannelindex>
				</track>
				<track currentExplodedTrackIndex="1" totalExplodedTrackCount="2" premiereTrackType="Stereo">
					<clipitem id="clipitem-S3-A4-1" premiereChannelType="stereo">
						<name>julian_1_2021-11-30_0912_C0002.mov</name>
						<enabled>TRUE</enabled>
						<duration>3405</duration>
						<rate>
							<timebase>24</timebase>
							<ntsc>TRUE</ntsc>
						</rate>
						<start>26818</start>
						<end>30223</end>
						<in>0</in>
						<out>3405</out>
						<file id="file-246"/>
						<sourcetrack>
							<mediatype>audio</mediatype>
							<trackindex>2</trackindex>
						</sourcetrack>
						<link>
							<linkclipref>clipitem-S3-A3-1</linkclipref>
							<mediatype>audio</mediatype>
							<trackindex>3</trackindex>
							<clipindex>1</clipindex>
							<groupindex>1</groupindex>
						</link>
						<link>
							<linkclipref>clipitem-S3-A4-1</linkclipref>
							<mediatype>audio</mediatype>
							<trackindex>4</trackindex>
							<clipindex>1</clipindex>
							<groupindex>1</groupindex>
						</link>
						<link>
							<linkclipref>clipitem-S3-V2-1</linkclipref>
							<mediatype>video</mediatype>
							<trackindex>2</trackindex>
							<clipindex>1</clipindex>
						</link>
					</clipitem>
					<clipitem id="clipitem-S3-A4-2" premiereChannelType="stereo">
						<name>julian_1_2021-11-30_0916_C0003.mov</name>
						<enabled>TRUE</enabled>
						<duration>3110</duration>
						<rate>
							<timebase>24</timebase>
							<ntsc>TRUE</ntsc>
						</rate>
						<start>31625</start>
						<end>34735</end>
						<in>0</in>
						<out>3110</out>
						<file id="file-247"/>
						<sourcetrack>
							<mediatype>audio</mediatype>
							<trackindex>2</trackindex>
						</sourcetrack>
						<link>
							<linkclipref>clipitem-S3-A3-2</linkclipref>
							<mediatype>audio</mediatype>
							<trackindex>3</trackindex>
							<clipindex>2</clipindex>
							<groupindex>1</groupindex>
						</link>
						<link>
							<linkclipref>clipitem-S3-A4-2</linkclipref>
							<mediatype>audio</mediatype>
							<trackindex>4</trackindex>
							<clipindex>2</clipindex>
							<groupindex>1</groupindex>
						</link>
						<link>
							<linkclipref>clipitem-S3-V2-2</linkclipref>
							<mediatype>video</mediatype>
							<trackindex>2</trackindex>
							<clipindex>2</clipindex>
						</link>
					</clipitem>
					<clipitem id="clipitem-S3-A4-3" premiereChannelType="stereo">
						<name>julian_1_2021-11-30_1007_C0004.mov</name>
						<enabled>TRUE</enabled>
						<duration>598</duration>
						<rate>
							<timebase>24</timebase>
							<ntsc>TRUE</ntsc>
						</rate>
						<start>61437</start>
						<end>62035</end>
						<in>0</in>
						<out>598</out>
						<file id="file-248"/>
						<sourcetrack>
							<mediatype>audio</mediatype>
							<trackindex>2</trackindex>
						</sourcetrack>
						<link>
							<linkclipref>clipitem-S3-A3-3</linkclipref>
							<mediatype>audio</mediatype>
							<trackindex>3</trackindex>
							<clipindex>3</clipindex>
							<groupindex>1</groupindex>
						</link>
						<link>
							<linkclipref>clipitem-S3-A4-3</linkclipref>
							<mediatype>audio</mediatype>
							<trackindex>4</trackindex>
							<clipindex>3</clipindex>
							<groupindex>1</groupindex>
						</link>
						<link>
							<linkclipref>clipitem-S3-V2-3</linkclipref>
							<mediatype>video</mediatype>
							<trackindex>2</trackindex>
							<clipindex>3</clipindex>
						</link>
					</clipitem>
					<clipitem id="clipitem-S3-A4-4" premiereChannelType="stereo">
						<name>julian_1_2021-11-30_1008_C0005.mov</name>
						<enabled>TRUE</enabled>
						<duration>893</duration>
						<rate>
							<timebase>24</timebase>
							<ntsc>TRUE</ntsc>
						</rate>
						<start>62633</start>
						<end>63526</end>
						<in>0</in>
						<out>893</out>
						<file id="file-249"/>
						<sourcetrack>
							<mediatype>audio</mediatype>
							<trackindex>2</trackindex>
						</sourcetrack>
						<link>
							<linkclipref>clipitem-S3-A3-4</linkclipref>
							<mediatype>audio</mediatype>
							<trackindex>3</trackindex>
							<clipindex>4</clipindex>
							<groupindex>1</groupindex>
						</link>
						<link>
							<linkclipref>clipitem-S3-A4-4</linkclipref>
							<mediatype>audio</mediatype>
							<trackindex>4</trackindex>
							<clipindex>4</clipindex>
							<groupindex>1</groupindex>
						</link>
						<link>
							<linkclipref>clipitem-S3-V2-4</linkclipref>
							<mediatype>video</mediatype>
							<trackindex>2</trackindex>
							<clipindex>4</clipindex>
						</link>
					</clipitem>
					<clipitem id="clipitem-S3-A4-5" premiereChannelType="stereo">
						<name>julian_1_2021-11-30_1009_C0006.mov</name>
						<enabled>TRUE</enabled>
						<duration>3991</duration>
						<rate>
							<timebase>24</timebase>
							<ntsc>TRUE</ntsc>
						</rate>
						<start>64475</start>
						<end>68466</end>
						<in>0</in>
						<out>3991</out>
						<file id="file-250"/>
						<sourcetrack>
							<mediatype>audio</mediatype>
							<trackindex>2</trackindex>
						</sourcetrack>
						<link>
							<linkclipref>clipitem-S3-A3-5</linkclipref>
							<mediatype>audio</mediatype>
							<trackindex>3</trackindex>
							<clipindex>5</clipindex>
							<groupindex>1</groupindex>
						</link>
						<link>
							<linkclipref>clipitem-S3-A4-5</linkclipref>
							<mediatype>audio</mediatype>
							<trackindex>4</trackindex>
							<clipindex>5</clipindex>
							<groupindex>1</groupindex>
						</link>
						<link>
							<linkclipref>clipitem-S3-V2-5</linkclipref>
							<mediatype>video</mediatype>
							<trackindex>2</trackindex>
							<clipindex>5</clipindex>
						</link>
					</clipitem>
					<clipitem id="clipitem-S3-A4-6" premiereChannelType="stereo">
						<name>julian_1_2021-11-30_1013_C0007.mov</name>
						<enabled>TRUE</enabled>
						<duration>467</duration>
						<rate>
							<timebase>24</timebase>
							<ntsc>TRUE</ntsc>
						</rate>
						<start>69075</start>
						<end>69542</end>
						<in>0</in>
						<out>467</out>
						<file id="file-251"/>
						<sourcetrack>
							<mediatype>audio</mediatype>
							<trackindex>2</trackindex>
						</sourcetrack>
						<link>
							<linkclipref>clipitem-S3-A3-6</linkclipref>
							<mediatype>audio</mediatype>
							<trackindex>3</trackindex>
							<clipindex>6</clipindex>
							<groupindex>1</groupindex>
						</link>
						<link>
							<linkclipref>clipitem-S3-A4-6</linkclipref>
							<mediatype>audio</mediatype>
							<trackindex>4</trackindex>
							<clipindex>6</clipindex>
							<groupindex>1</groupindex>
						</link>
						<link>
							<linkclipref>clipitem-S3-V2-6</linkclipref>
							<mediatype>video</mediatype>
							<trackindex>2</trackindex>
							<clipindex>6</clipindex>
						</link>
					</clipitem>
					<clipitem id="clipitem-S3-A4-7" premiereChannelType="stereo">
						<name>julian_1_2021-11-30_1013_C0008.mov</name>
						<enabled>TRUE</enabled>
						<duration>1879</duration>
						<rate>
							<timebase>24</timebase>
							<ntsc>TRUE</ntsc>
						</rate>
						<start>70306</start>
						<end>72185</end>
						<in>0</in>
						<out>1879</out>
						<file id="file-252"/>
						<sourcetrack>
							<mediatype>audio</mediatype>
							<trackindex>2</trackindex>
						</sourcetrack>
						<link>
							<linkclipref>clipitem-S3-A3-7</linkclipref>
							<mediatype>audio</mediatype>
							<trackindex>3</trackindex>
							<clipindex>7</clipindex>
							<groupindex>1</groupindex>
						</link>
						<link>
							<linkclipref>clipitem-S3-A4-7</linkclipref>
							<mediatype>audio</mediatype>
							<trackindex>4</trackindex>
							<clipindex>7</clipindex>
							<groupindex>1</groupindex>
						</link>
						<link>
							<linkclipref>clipitem-S3-V2-7</linkclipref>
							<mediatype>video</mediatype>
							<trackindex>2</trackindex>
							<clipindex>7</clipindex>
						</link>
					</clipitem>
					<clipitem id="clipitem-S3-A4-8" premiereChannelType="stereo">
						<name>julian_1_2021-11-30_1016_C0009.mov</name>
						<enabled>TRUE</enabled>
						<duration>4783</duration>
						<rate>
							<timebase>24</timebase>
							<ntsc>TRUE</ntsc>
						</rate>
						<start>74325</start>
						<end>79108</end>
						<in>0</in>
						<out>4783</out>
						<file id="file-253"/>
						<sourcetrack>
							<mediatype>audio</mediatype>
							<trackindex>2</trackindex>
						</sourcetrack>
						<link>
							<linkclipref>clipitem-S3-A3-8</linkclipref>
							<mediatype>audio</mediatype>
							<trackindex>3</trackindex>
							<clipindex>8</clipindex>
							<groupindex>1</groupindex>
						</link>
						<link>
							<linkclipref>clipitem-S3-A4-8</linkclipref>
							<mediatype>audio</mediatype>
							<trackindex>4</trackindex>
							<clipindex>8</clipindex>
							<groupindex>1</groupindex>
						</link>
						<link>
							<linkclipref>clipitem-S3-V2-8</linkclipref>
							<mediatype>video</mediatype>
							<trackindex>2</trackindex>
							<clipindex>8</clipindex>
						</link>
					</clipitem>
					<clipitem id="clipitem-S3-A4-9" premiereChannelType="stereo">
						<name>julian_1_2021-11-30_1020_C0010.mov</name>
						<enabled>TRUE</enabled>
						<duration>2158</duration>
						<rate>
							<timebase>24</timebase>
							<ntsc>TRUE</ntsc>
						</rate>
						<start>79910</start>
						<end>82068</end>
						<in>0</in>
						<out>2158</out>
						<file id="file-254"/>
						<sourcetrack>
							<mediatype>audio</mediatype>
							<trackindex>2</trackindex>
						</sourcetrack>
						<link>
							<linkclipref>clipitem-S3-A3-9</linkclipref>
							<mediatype>audio</mediatype>
							<trackindex>3</trackindex>
							<clipindex>9</clipindex>
							<groupindex>1</groupindex>
						</link>
						<link>
							<linkclipref>clipitem-S3-A4-9</linkclipref>
							<mediatype>audio</mediatype>
							<trackindex>4</trackindex>
							<clipindex>9</clipindex>
							<groupindex>1</groupindex>
						</link>
						<link>
							<linkclipref>clipitem-S3-V2-9</linkclipref>
							<mediatype>video</mediatype>
							<trackindex>2</trackindex>
							<clipindex>9</clipindex>
						</link>
					</clipitem>
					<clipitem id="clipitem-S3-A4-10" premiereChannelType="stereo">
						<name>julian_1_2021-11-30_1023_C0011.mov</name>
						<enabled>TRUE</enabled>
						<duration>799</duration>
						<rate>
							<timebase>24</timebase>
							<ntsc>TRUE</ntsc>
						</rate>
						<start>83431</start>
						<end>84230</end>
						<in>0</in>
						<out>799</out>
						<file id="file-255"/>
						<sourcetrack>
							<mediatype>audio</mediatype>
							<trackindex>2</trackindex>
						</sourcetrack>
						<link>
							<linkclipref>clipitem-S3-A3-10</linkclipref>
							<mediatype>audio</mediatype>
							<trackindex>3</trackindex>
							<clipindex>10</clipindex>
							<groupindex>1</groupindex>
						</link>
						<link>
							<linkclipref>clipitem-S3-A4-10</linkclipref>
							<mediatype>audio</mediatype>
							<trackindex>4</trackindex>
							<clipindex>10</clipindex>
							<groupindex>1</groupindex>
						</link>
						<link>
							<linkclipref>clipitem-S3-V2-10</linkclipref>
							<mediatype>video</mediatype>
							<trackindex>2</trackindex>
							<clipindex>10</clipindex>
						</link>
					</clipitem>
					<clipitem id="clipitem-S3-A4-11" premiereChannelType="stereo">
						<name>julian_1_2021-11-30_1025_C0012.mov</name>
						<enabled>TRUE</enabled>
						<duration>4991</duration>
						<rate>
							<timebase>24</timebase>
							<ntsc>TRUE</ntsc>
						</rate>
						<start>87347</start>
						<end>92338</end>
						<in>0</in>
						<out>4991</out>
						<file id="file-256"/>
						<sourcetrack>
							<mediatype>audio</mediatype>
							<trackindex>2</trackindex>
						</sourcetrack>
						<link>
							<linkclipref>clipitem-S3-A3-11</linkclipref>
							<mediatype>audio</mediatype>
							<trackindex>3</trackindex>
							<clipindex>11</clipindex>
							<groupindex>1</groupindex>
						</link>
						<link>
							<linkclipref>clipitem-S3-A4-11</linkclipref>
							<mediatype>audio</mediatype>
							<trackindex>4</trackindex>
							<clipindex>11</clipindex>
							<groupindex>1</groupindex>
						</link>
						<link>
							<linkclipref>clipitem-S3-V2-11</linkclipref>
							<mediatype>video</mediatype>
							<trackindex>2</trackindex>
							<clipindex>11</clipindex>
						</link>
					</clipitem>
					<clipitem id="clipitem-S3-A4-12" premiereChannelType="stereo">
						<name>julian_1_2021-11-30_1032_C0013.mov</name>
						<enabled>TRUE</enabled>
						<duration>1447</duration>
						<rate>
							<timebase>24</timebase>
							<ntsc>TRUE</ntsc>
						</rate>
						<start>97239</start>
						<end>98686</end>
						<in>0</in>
						<out>1447</out>
						<file id="file-257"/>
						<sourcetrack>
							<mediatype>audio</mediatype>
							<trackindex>2</trackindex>
						</sourcetrack>
						<link>
							<linkclipref>clipitem-S3-A3-12</linkclipref>
							<mediatype>audio</mediatype>
							<trackindex>3</trackindex>
							<clipindex>12</clipindex>
							<groupindex>1</groupindex>
						</link>
						<link>
							<linkclipref>clipitem-S3-A4-12</linkclipref>
							<mediatype>audio</mediatype>
							<trackindex>4</trackindex>
							<clipindex>12</clipindex>
							<groupindex>1</groupindex>
						</link>
						<link>
							<linkclipref>clipitem-S3-V2-12</linkclipref>
							<mediatype>video</mediatype>
							<trackindex>2</trackindex>
							<clipindex>12</clipindex>
						</link>
					</clipitem>
					<clipitem id="clipitem-S3-A4-13" premiereChannelType="stereo">
						<name>julian_1_2021-11-30_1035_C0014.mov</name>
						<enabled>TRUE</enabled>
						<duration>3350</duration>
						<rate>
							<timebase>24</timebase>
							<ntsc>TRUE</ntsc>
						</rate>
						<start>101174</start>
						<end>104524</end>
						<in>0</in>
						<out>3350</out>
						<file id="file-258"/>
						<sourcetrack>
							<mediatype>audio</mediatype>
							<trackindex>2</trackindex>
						</sourcetrack>
						<link>
							<linkclipref>clipitem-S3-A3-13</linkclipref>
							<mediatype>audio</mediatype>
							<trackindex>3</trackindex>
							<clipindex>13</clipindex>
							<groupindex>1</groupindex>
						</link>
						<link>
							<linkclipref>clipitem-S3-A4-13</linkclipref>
							<mediatype>audio</mediatype>
							<trackindex>4</trackindex>
							<clipindex>13</clipindex>
							<groupindex>1</groupindex>
						</link>
						<link>
							<linkclipref>clipitem-S3-V2-13</linkclipref>
							<mediatype>video</mediatype>
							<trackindex>2</trackindex>
							<clipindex>13</clipindex>
						</link>
					</clipitem>
					<clipitem id="clipitem-S3-A4-14" premiereChannelType="stereo">
						<name>julian_1_2021-11-30_1042_C0015.mov</name>
						<enabled>TRUE</enabled>
						<duration>5353</duration>
						<rate>
							<timebase>24</timebase>
							<ntsc>TRUE</ntsc>
						</rate>
						<start>111179</start>
						<end>116532</end>
						<in>0</in>
						<out>5353</out>
						<file id="file-259"/>
						<sourcetrack>
							<mediatype>audio</mediatype>
							<trackindex>2</trackindex>
						</sourcetrack>
						<link>
							<linkclipref>clipitem-S3-A3-14</linkclipref>
							<mediatype>audio</mediatype>
							<trackindex>3</trackindex>
							<clipindex>14</clipindex>
							<groupindex>1</groupindex>
						</link>
						<link>
							<linkclipref>clipitem-S3-A4-14</linkclipref>
							<mediatype>audio</mediatype>
							<trackindex>4</trackindex>
							<clipindex>14</clipindex>
							<groupindex>1</groupindex>
						</link>
						<link>
							<linkclipref>clipitem-S3-V2-14</linkclipref>
							<mediatype>video</mediatype>
							<trackindex>2</trackindex>
							<clipindex>14</clipindex>
						</link>
					</clipitem>
					<enabled>TRUE</enabled>
					<locked>FALSE</locked>
					<outputchannelindex>2</outputchannelindex>
				</track>
				<track currentExplodedTrackIndex="0" totalExplodedTrackCount="2" premiereTrackType="Stereo">
					<clipitem id="clipitem-S3-A5-1" premiereChannelType="stereo">
						<name>Me MaSetho1.WAV</name>
						<enabled>TRUE</enabled>
						<duration>57697</duration>
						<rate>
							<timebase>24</timebase>
							<ntsc>TRUE</ntsc>
						</rate>
						<start>0</start>
						<end>57697</end>
						<in>0</in>
						<out>57697</out>
						<file id="file-260">
							<name>Me MaSetho1.WAV</name>
							<pathurl>/Volumes/tiesta/03_Audio/semonkong/Semonkong 3/Me MaSetho1.WAV</pathurl>
							<rate>
								<timebase>24</timebase>
								<ntsc>TRUE</ntsc>
							</rate>
							<duration>57697</duration>
							<timecode>
								<string>06:46:51:14</string>
								<displayformat>NDF</displayformat>
								<frame>585878</frame>
								<rate>
									<timebase>24</timebase>
									<ntsc>TRUE</ntsc>
								</rate>
							</timecode>
							<media>
								<audio>
									<samplecharacteristics>
										<depth>16</depth>
										<samplerate>48000</samplerate>
									</samplecharacteristics>
									<channelcount>2</channelcount>
								</audio>
							</media>
						</file>
						<sourcetrack>
							<mediatype>audio</mediatype>
							<trackindex>1</trackindex>
						</sourcetrack>
						<link>
							<linkclipref>clipitem-S3-A5-1</linkclipref>
							<mediatype>audio</mediatype>
							<trackindex>5</trackindex>
							<clipindex>1</clipindex>
							<groupindex>1</groupindex>
						</link>
						<link>
							<linkclipref>clipitem-S3-A6-1</linkclipref>
							<mediatype>audio</mediatype>
							<trackindex>6</trackindex>
							<clipindex>1</clipindex>
							<groupindex>1</groupindex>
						</link>
						<labels>
							<label2>Caribbean</label2>
						</labels>
					</clipitem>
					<clipitem id="clipitem-S3-A5-2" premiereChannelType="stereo">
						<name>Me MaSetho2.WAV</name>
						<enabled>TRUE</enabled>
						<duration>62066</duration>
						<rate>
							<timebase>24</timebase>
							<ntsc>TRUE</ntsc>
						</rate>
						<start>57697</start>
						<end>119763</end>
						<in>0</in>
						<out>62066</out>
						<file id="file-261">
							<name>Me MaSetho2.WAV</name>
							<pathurl>/Volumes/tiesta/03_Audio/semonkong/Semonkong 3/Me MaSetho2.WAV</pathurl>
							<rate>
								<timebase>24</timebase>
								<ntsc>TRUE</ntsc>
							</rate>
							<duration>62066</duration>
							<timecode>
								<string>07:57:54:07</string>
								<displayformat>NDF</displayformat>
								<frame>688183</frame>
								<rate>
									<timebase>24</timebase>
									<ntsc>TRUE</ntsc>
								</rate>
							</timecode>
							<media>
								<audio>
									<samplecharacteristics>
										<depth>16</depth>
										<samplerate>48000</samplerate>
									</samplecharacteristics>
									<channelcount>2</channelcount>
								</audio>
							</media>
						</file>
						<sourcetrack>
							<mediatype>audio</mediatype>
							<trackindex>1</trackindex>
						</sourcetrack>
						<link>
							<linkclipref>clipitem-S3-A5-2</linkclipref>
							<mediatype>audio</mediatype>
							<trackindex>5</trackindex>
							<clipindex>2</clipindex>
							<groupindex>1</groupindex>
						</link>
						<link>
							<linkclipref>clipitem-S3-A6-2</linkclipref>
							<mediatype>audio</mediatype>
							<trackindex>6</trackindex>
							<clipindex>2</clipindex>
							<groupindex>1</groupindex>
						</link>
						<labels>
							<label2>Caribbean</label2>
						</labels>
					</clipitem>
					<enabled>TRUE</enabled>
					<locked>FALSE</locked>
					<outputchannelindex>1</outputchannelindex>
				</track>
				<track currentExplodedTrackIndex="1" totalExplodedTrackCount="2" premiereTrackType="Stereo">
					<clipitem id="clipitem-S3-A6-1" premiereChannelType="stereo">
						<name>Me MaSetho1.WAV</name>
						<enabled>TRUE</enabled>
						<duration>57697</duration>
						<rate>
							<timebase>24</timebase>
							<ntsc>TRUE</ntsc>
						</rate>
						<start>0</start>
						<end>57697</end>
						<in>0</in>
						<out>57697</out>
						<file id="file-260"/>
						<sourcetrack>
							<mediatype>audio</mediatype>
							<trackindex>2</trackindex>
						</sourcetrack>
						<link>
							<linkclipref>clipitem-S3-A5-1</linkclipref>
							<mediatype>audio</mediatype>
							<trackindex>5</trackindex>
							<clipindex>1</clipindex>
							<groupindex>1</groupindex>
						</link>
						<link>
							<linkclipref>clipitem-S3-A6-1</linkclipref>
							<mediatype>audio</mediatype>
							<trackindex>6</trackindex>
							<clipindex>1</clipindex>
							<groupindex>1</groupindex>
						</link>
						<labels>
							<label2>Caribbean</label2>
						</labels>
					</clipitem>
					<clipitem id="clipitem-S3-A6-2" premiereChannelType="stereo">
						<name>Me MaSetho2.WAV</name>
						<enabled>TRUE</enabled>
						<duration>62066</duration>
						<rate>
							<timebase>24</timebase>
							<ntsc>TRUE</ntsc>
						</rate>
						<start>57697</start>
						<end>119763</end>
						<in>0</in>
						<out>62066</out>
						<file id="file-261"/>
						<sourcetrack>
							<mediatype>audio</mediatype>
							<trackindex>2</trackindex>
						</sourcetrack>
						<link>
							<linkclipref>clipitem-S3-A5-2</linkclipref>
							<mediatype>audio</mediatype>
							<trackindex>5</trackindex>
							<clipindex>2</clipindex>
							<groupindex>1</groupindex>
						</link>
						<link>
							<linkclipref>clipitem-S3-A6-2</linkclipref>
							<mediatype>audio</mediatype>
							<trackindex>6</trackindex>
							<clipindex>2</clipindex>
							<groupindex>1</groupindex>
						</link>
						<labels>
							<label2>Caribbean</label2>
						</labels>
					</clipitem>
					<enabled>TRUE</enabled>
					<locked>FALSE</locked>
					<outputchannelindex>2</outputchannelindex>
				</track>
			</audio>
		</media>
	</sequence>
</xmeml>
