<?xml version="1.0" encoding="UTF-8"?>
<!DOCTYPE xmeml>
<xmeml version="4">
	<sequence MZ.EditLine="156471411096000" MZ.Sequence.AudioTimeDisplayFormat="200" MZ.Sequence.EditingModeGUID="35d109db-457b-43c1-9452-9cb7be9f121c" MZ.Sequence.PreviewFrameSizeHeight="1080" MZ.Sequence.PreviewFrameSizeWidth="1920" MZ.Sequence.PreviewRenderingClassID="1297106761" MZ.Sequence.PreviewRenderingPresetCodec="1297107278" MZ.Sequence.PreviewRenderingPresetPath="EncoderPresets/SequencePreview/35d109db-457b-43c1-9452-9cb7be9f121c/I-Frame Only MPEG.epr" MZ.Sequence.PreviewUseMaxBitDepth="false" MZ.Sequence.PreviewUseMaxRenderQuality="false" MZ.Sequence.VideoTimeDisplayFormat="110" MZ.WorkInPoint="0" MZ.WorkOutPoint="15235011792000" Monitor.ProgramZoomIn="0" Monitor.ProgramZoomOut="537473840904000" TL.SQAVDividerPosition="0.5" TL.SQAudioVisibleBase="0" TL.SQDataTrackViewControlState="0" TL.SQHeaderWidth="236" TL.SQHideShyTracks="0" TL.SQTimePerPixel="2.834974382393876" TL.SQVideoVisibleBase="0" TL.SQVisibleBaseTime="0" explodedTracks="true" id="sequence-12">
		<rate>
			<timebase>24</timebase>
			<ntsc>TRUE</ntsc>
		</rate>
		<name>mats'ele - synced</name>
		<duration>50074</duration>
		<media>
			<video>
				<format>
					<samplecharacteristics>
						<rate>
							<timebase>24</timebase>
							<ntsc>TRUE</ntsc>
						</rate>
						<codec>
						<name>Apple ProRes 422</name>
							<appspecificdata>
							<appname>Final Cut Pro</appname>
								<appmanufacturer>Apple Inc.</appmanufacturer>
								<appversion>7.0</appversion>
								<data>
								<qtcodec>
									<codecname>Apple ProRes 422</codecname>
										<codectypename>Apple ProRes 422</codectypename>
										<codectypecode>apcn</codectypecode>
										<codecvendorcode>appl</codecvendorcode>
										<spatialquality>1024</spatialquality>
										<temporalquality>0</temporalquality>
										<keyframerate>0</keyframerate>
										<datarate>0</datarate>
									</qtcodec>
								</data>
							</appspecificdata>
						</codec>
						<width>1920</width>
						<height>1080</height>
						<anamorphic>FALSE</anamorphic>
						<pixelaspectratio>square</pixelaspectratio>
						<fielddominance>none</fielddominance>
					</samplecharacteristics>
				</format>
				<track>
					<clipitem id="clipitem-S3-V1-1">
						<name>wiblo_1_2002-11-01_1409_C0010.mov</name>
						<enabled>TRUE</enabled>
						<duration>42987</duration>
						<rate>
							<timebase>24</timebase>
							<ntsc>TRUE</ntsc>
						</rate>
						<start>6380</start>
						<end>49367</end>
						<in>0</in>
						<out>42987</out>
						<file id="file-262">
							<name>wiblo_1_2002-11-01_1409_C0010.mov</name>
							<pathurl>/Volumes/tiesta/01_Footage/ha dinizulu/Ha Dinizulu 2/wiblo_1_2002-11-01_1409_C0010.mov</pathurl>
							<rate>
								<timebase>24</timebase>
								<ntsc>TRUE</ntsc>
							</rate>
							<duration>42987</duration>
							<timecode>
								<string>14:09:17:00</string>
								<displayformat>NDF</displayformat>
								<frame>1222968</frame>
								<rate>
									<timebase>24</timebase>
									<ntsc>TRUE</ntsc>
								</rate>
							</timecode>
							<media>
								<video>
									<samplecharacteristics>
										<rate>
											<timebase>24</timebase>
											<ntsc>TRUE</ntsc>
										</rate>
										<width>1920</width>
										<height>1080</height>
										<anamorphic>FALSE</anamorphic>
										<pixelaspectratio>square</pixelaspectratio>
										<fielddominance>none</fielddominance>
									</samplecharacteristics>
								</video>
								<audio>
									<samplecharacteristics>
										<depth>16</depth>
										<samplerate>48000</samplerate>
									</samplecharacteristics>
									<channelcount>2</channelcount>
								</audio>
							</media>
						</file>
						<link>
							<linkclipref>clipitem-S3-V1-1</linkclipref>
							<mediatype>video</mediatype>
							<trackindex>1</trackindex>
							<clipindex>1</clipindex>
						</link>
						<link>
							<linkclipref>clipitem-S3-A1-1</linkclipref>
							<mediatype>audio</mediatype>
							<trackindex>1</trackindex>
							<clipindex>1</clipindex>
							<groupindex>1</groupindex>
						</link>
						<link>
							<linkclipref>clipitem-S3-A2-1</linkclipref>
							<mediatype>audio</mediatype>
							<trackindex>2</trackindex>
							<clipindex>1</clipindex>
							<groupindex>1</groupindex>
						</link>
					</clipitem>
					<enabled>TRUE</enabled>
					<locked>FALSE</locked>
				</track>
				<track>
					<clipitem id="clipitem-S3-V2-1">
						<name>julian_1_2021-11-28_1247_C0022.mov</name>
						<enabled>TRUE</enabled>
						<duration>177</duration>
						<rate>
							<timebase>24</timebase>
							<ntsc>TRUE</ntsc>
						</rate>
						<start>8304</start>
						<end>8481</end>
						<in>0</in>
						<out>177</out>
						<file id="file-263">
							<name>julian_1_2021-11-28_1247_C0022.mov</name>
							<pathurl>/Volumes/tiesta/01_Footage/ha dinizulu/Ha Dinizulu 2/julian_1_2021-11-28_1247_C0022.mov</pathurl>
							<rate>
								<timebase>24</timebase>
								<ntsc>TRUE</ntsc>
							</rate>
							<duration>177</duration>
							<timecode>
								<string>12:47:39:00</string>
								<displayformat>NDF</displayformat>
								<frame>1105416</frame>
								<rate>
									<timebase>24</timebase>
									<ntsc>TRUE</ntsc>
								</rate>
							</timecode>
							<media>
								<video>
									<samplecharacteristics>
										<rate>
											<timebase>24</timebase>
											<ntsc>TRUE</ntsc>
										</rate>
										<width>1920</width>
										<height>1080</height>
										<anamorphic>FALSE</anamorphic>
										<pixelaspectratio>square</pixelaspectratio>
										<fielddominance>none</fielddominance>
									</samplecharacteristics>
								</video>
								<audio>
									<samplecharacteristics>
										<depth>16</depth>
										<samplerate>48000</samplerate>
									</samplecharacteristics>
									<channelcount>2</channelcount>
								</audio>
							</media>
						</file>
						<link>
							<linkclipref>clipitem-S3-V2-1</linkclipref>
							<mediatype>video</mediatype>
							<trackindex>2</trackindex>
							<clipindex>1</clipindex>
						</link>
						<link>
							<linkclipref>clipitem-S3-A3-1</linkclipref>
							<mediatype>audio</mediatype>
							<trackindex>3</trackindex>
							<clipindex>1</clipindex>
							<groupindex>1</groupindex>
						</link>
						<link>
							<linkclipref>clipitem-S3-A4-1</linkclipref>
							<mediatype>audio</mediatype>
							<trackindex>4</trackindex>
							<clipindex>1</clipindex>
							<groupindex>1</groupindex>
						</link>
					</clipitem>
					<clipitem id="clipitem-S3-V2-2">
						<name>julian_1_2021-11-28_1248_C0023.mov</name>
						<enabled>TRUE</enabled>
						<duration>133</duration>
						<rate>
							<timebase>24</timebase>
							<ntsc>TRUE</ntsc>
						</rate>
						<start>9766</start>
						<end>9899</end>
						<in>0</in>
						<out>133</out>
						<file id="file-264">
							<name>julian_1_2021-11-28_1248_C0023.mov</name>
							<pathurl>/Volumes/tiesta/01_Footage/ha dinizulu/Ha Dinizulu 2/julian_1_2021-11-28_1248_C0023.mov</pathurl>
							<rate>
								<timebase>24</timebase>
								<ntsc>TRUE</ntsc>
							</rate>
							<duration>133</duration>
							<timecode>
								<string>12:48:40:00</string>
								<displayformat>NDF</displayformat>
								<frame>1106880</frame>
								<rate>
									<timebase>24</timebase>
									<ntsc>TRUE</ntsc>
								</rate>
							</timecode>
							<media>
								<video>
									<samplecharacteristics>
										<rate>
											<timebase>24</timebase>
											<ntsc>TRUE</ntsc>
										</rate>
										<width>1920</width>
										<height>1080</height>
										<anamorphic>FALSE</anamorphic>
										<pixelaspectratio>square</pixelaspectratio>
										<fielddominance>none</fielddominance>
									</samplecharacteristics>
								</video>
								<audio>
									<samplecharacteristics>
										<depth>16</depth>
										<samplerate>48000</samplerate>
									</samplecharacteristics>
									<channelcount>2</channelcount>
								</audio>
							</media>
						</file>
						<link>
							<linkclipref>clipitem-S3-V2-2</linkclipref>
							<mediatype>video</mediatype>
							<trackindex>2</trackindex>
							<clipindex>2</clipindex>
						</link>
						<link>
							<linkclipref>clipitem-S3-A3-2</linkclipref>
							<mediatype>audio</mediatype>
							<trackindex>3</trackindex>
							<clipindex>2</clipindex>
							<groupindex>1</groupindex>
						</link>
						<link>
							<linkclipref>clipitem-S3-A4-2</linkclipref>
							<mediatype>audio</mediatype>
							<trackindex>4</trackindex>
							<clipindex>2</clipindex>
							<groupindex>1</groupindex>
						</link>
					</clipitem>
					<clipitem id="clipitem-S3-V2-3">
						<name>julian_1_2021-11-28_1250_C0024.mov</name>
						<enabled>TRUE</enabled>
						<duration>798</duration>
						<rate>
							<timebase>24</timebase>
							<ntsc>TRUE</ntsc>
						</rate>
						<start>12228</start>
						<end>13026</end>
						<in>0</in>
						<out>798</out>
						<file id="file-265">
							<name>julian_1_2021-11-28_1250_C0024.mov</name>
							<pathurl>/Volumes/tiesta/01_Footage/ha dinizulu/Ha Dinizulu 2/julian_1_2021-11-28_1250_C0024.mov</pathurl>
							<rate>
								<timebase>24</timebase>
								<ntsc>TRUE</ntsc>
							</rate>
							<duration>798</duration>
							<timecode>
								<string>12:50:23:00</string>
								<displayformat>NDF</displayformat>
								<frame>1109352</frame>
								<rate>
									<timebase>24</timebase>
									<ntsc>TRUE</ntsc>
								</rate>
							</timecode>
							<media>
								<video>
									<samplecharacteristics>
										<rate>
											<timebase>24</timebase>
											<ntsc>TRUE</ntsc>
										</rate>
										<width>1920</width>
										<height>1080</height>
										<anamorphic>FALSE</anamorphic>
										<pixelaspectratio>square</pixelaspectratio>
										<fielddominance>none</fielddominance>
									</samplecharacteristics>
								</video>
								<audio>
									<samplecharacteristics>
										<depth>16</depth>
										<samplerate>48000</samplerate>
									</samplecharacteristics>
									<channelcount>2</channelcount>
								</audio>
							</media>
						</file>
						<link>
							<linkclipref>clipitem-S3-V2-3</linkclipref>
							<mediatype>video</mediatype>
							<trackindex>2</trackindex>
							<clipindex>3</clipindex>
						</link>
						<link>
							<linkclipref>clipitem-S3-A3-3</linkclipref>
							<mediatype>audio</mediatype>
							<trackindex>3</trackindex>
							<clipindex>3</clipindex>
							<groupindex>1</groupindex>
						</link>
						<link>
							<linkclipref>clipitem-S3-A4-3</linkclipref>
							<mediatype>audio</mediatype>
							<trackindex>4</trackindex>
							<clipindex>3</clipindex>
							<groupindex>1</groupindex>
						</link>
					</clipitem>
					<clipitem id="clipitem-S3-V2-4">
						<name>julian_1_2021-11-28_1251_C0025.mov</name>
						<enabled>TRUE</enabled>
						<duration>324</duration>
						<rate>
							<timebase>24</timebase>
							<ntsc>TRUE</ntsc>
						</rate>
						<start>13426</start>
						<end>13750</end>
						<in>0</in>
						<out>324</out>
						<file id="file-266">
							<name>julian_1_2021-11-28_1251_C0025.mov</name>
							<pathurl>/Volumes/tiesta/01_Footage/ha dinizulu/Ha Dinizulu 2/julian_1_2021-11-28_1251_C0025.mov</pathurl>
							<rate>
								<timebase>24</timebase>
								<ntsc>TRUE</ntsc>
							</rate>
							<duration>324</duration>
							<timecode>
								<string>12:51:13:00</string>
								<displayformat>NDF</displayformat>
								<frame>1110552</frame>
								<rate>
									<timebase>24</timebase>
									<ntsc>TRUE</ntsc>
								</rate>
							</timecode>
							<media>
								<video>
									<samplecharacteristics>
										<rate>
											<timebase>24</timebase>
											<ntsc>TRUE</ntsc>
										</rate>
										<width>1920</width>
										<height>1080</height>
										<anamorphic>FALSE</anamorphic>
										<pixelaspectratio>square</pixelaspectratio>
										<fielddominance>none</fielddominance>
									</samplecharacteristics>
								</video>
								<audio>
									<samplecharacteristics>
										<depth>16</depth>
										<samplerate>48000</samplerate>
									</samplecharacteristics>
									<channelcount>2</channelcount>
								</audio>
							</media>
						</file>
						<link>
							<linkclipref>clipitem-S3-V2-4</linkclipref>
							<mediatype>video</mediatype>
							<trackindex>2</trackindex>
							<clipindex>4</clipindex>
						</link>
						<link>
							<linkclipref>clipitem-S3-A3-4</linkclipref>
							<mediatype>audio</mediatype>
							<trackindex>3</trackindex>
							<clipindex>4</clipindex>
							<groupindex>1</groupindex>
						</link>
						<link>
							<linkclipref>clipitem-S3-A4-4</linkclipref>
							<mediatype>audio</mediatype>
							<trackindex>4</trackindex>
							<clipindex>4</clipindex>
							<groupindex>1</groupindex>
						</link>
					</clipitem>
					<clipitem id="clipitem-S3-V2-5">
						<name>julian_1_2021-11-28_1251_C0026.mov</name>
						<enabled>TRUE</enabled>
						<duration>622</duration>
						<rate>
							<timebase>24</timebase>
							<ntsc>TRUE</ntsc>
						</rate>
						<start>14472</start>
						<end>15094</end>
						<in>0</in>
						<out>622</out>
						<file id="file-267">
							<name>julian_1_2021-11-28_1251_C0026.mov</name>
							<pathurl>/Volumes/tiesta/01_Footage/ha dinizulu/Ha Dinizulu 2/julian_1_2021-11-28_1251_C0026.mov</pathurl>
							<rate>
								<timebase>24</timebase>
								<ntsc>TRUE</ntsc>
							</rate>
							<duration>622</duration>
							<timecode>
								<string>12:51:57:00</string>
								<displayformat>NDF</displayformat>
								<frame>1111608</frame>
								<rate>
									<timebase>24</timebase>
									<ntsc>TRUE</ntsc>
								</rate>
							</timecode>
							<media>
								<video>
									<samplecharacteristics>
										<rate>
											<timebase>24</timebase>
											<ntsc>TRUE</ntsc>
										</rate>
										<width>1920</width>
										<height>1080</height>
										<anamorphic>FALSE</anamorphic>
										<pixelaspectratio>square</pixelaspectratio>
										<fielddominance>none</fielddominance>
									</samplecharacteristics>
								</video>
								<audio>
									<samplecharacteristics>
										<depth>16</depth>
										<samplerate>48000</samplerate>
									</samplecharacteristics>
									<channelcount>2</channelcount>
								</audio>
							</media>
						</file>
						<link>
							<linkclipref>clipitem-S3-V2-5</linkclipref>
							<mediatype>video</mediatype>
							<trackindex>2</trackindex>
							<clipindex>5</clipindex>
						</link>
						<link>
							<linkclipref>clipitem-S3-A3-5</linkclipref>
							<mediatype>audio</mediatype>
							<trackindex>3</trackindex>
							<clipindex>5</clipindex>
							<groupindex>1</groupindex>
						</link>
						<link>
							<linkclipref>clipitem-S3-A4-5</linkclipref>
							<mediatype>audio</mediatype>
							<trackindex>4</trackindex>
							<clipindex>5</clipindex>
							<groupindex>1</groupindex>
						</link>
					</clipitem>
					<clipitem id="clipitem-S3-V2-6">
						<name>julian_1_2021-11-28_1252_C0027.mov</name>
						<enabled>TRUE</enabled>
						<duration>407</duration>
						<rate>
							<timebase>24</timebase>
							<ntsc>TRUE</ntsc>
						</rate>
						<start>15412</start>
						<end>15819</end>
						<in>0</in>
						<out>407</out>
						<file id="file-268">
							<name>julian_1_2021-11-28_1252_C0027.mov</name>
							<pathurl>/Volumes/tiesta/01_Footage/ha dinizulu/Ha Dinizulu 2/julian_1_2021-11-28_1252_C0027.mov</pathurl>
							<rate>
								<timebase>24</timebase>
								<ntsc>TRUE</ntsc>
							</rate>
							<duration>407</duration>
							<timecode>
								<string>12:52:36:00</string>
								<displayformat>NDF</displayformat>
								<frame>1112544</frame>
								<rate>
									<timebase>24</timebase>
									<ntsc>TRUE</ntsc>
								</rate>
							</timecode>
							<media>
								<video>
									<samplecharacteristics>
										<rate>
											<timebase>24</timebase>
											<ntsc>TRUE</ntsc>
										</rate>
										<width>1920</width>
										<height>1080</height>
										<anamorphic>FALSE</anamorphic>
										<pixelaspectratio>square</pixelaspectratio>
										<fielddominance>none</fielddominance>
									</samplecharacteristics>
								</video>
								<audio>
									<samplecharacteristics>
										<depth>16</depth>
										<samplerate>48000</samplerate>
									</samplecharacteristics>
									<channelcount>2</channelcount>
								</audio>
							</media>
						</file>
						<link>
							<linkclipref>clipitem-S3-V2-6</linkclipref>
							<mediatype>video</mediatype>
							<trackindex>2</trackindex>
							<clipindex>6</clipindex>
						</link>
						<link>
							<linkclipref>clipitem-S3-A3-6</linkclipref>
							<mediatype>audio</mediatype>
							<trackindex>3</trackindex>
							<clipindex>6</clipindex>
							<groupindex>1</groupindex>
						</link>
						<link>
							<linkclipref>clipitem-S3-A4-6</linkclipref>
							<mediatype>audio</mediatype>
							<trackindex>4</trackindex>
							<clipindex>6</clipindex>
							<groupindex>1</groupindex>
						</link>
					</clipitem>
					<clipitem id="clipitem-S3-V2-7">
						<name>julian_1_2021-11-28_1253_C0028.mov</name>
						<enabled>TRUE</enabled>
						<duration>200</duration>
						<rate>
							<timebase>24</timebase>
							<ntsc>TRUE</ntsc>
						</rate>
						<start>16480</start>
						<end>16680</end>
						<in>0</in>
						<out>200</out>
						<file id="file-269">
							<name>julian_1_2021-11-28_1253_C0028.mov</name>
							<pathurl>/Volumes/tiesta/01_Footage/ha dinizulu/Ha Dinizulu 2/julian_1_2021-11-28_1253_C0028.mov</pathurl>
							<rate>
								<timebase>24</timebase>
								<ntsc>TRUE</ntsc>
							</rate>
							<duration>200</duration>
							<timecode>
								<string>12:53:20:00</string>
								<displayformat>NDF</displayformat>
								<frame>1113600</frame>
								<rate>
									<timebase>24</timebase>
									<ntsc>TRUE</ntsc>
								</rate>
							</timecode>
							<media>
								<video>
									<samplecharacteristics>
										<rate>
											<timebase>24</timebase>
											<ntsc>TRUE</ntsc>
										</rate>
										<width>1920</width>
										<height>1080</height>
										<anamorphic>FALSE</anamorphic>
										<pixelaspectratio>square</pixelaspectratio>
										<fielddominance>none</fielddominance>
									</samplecharacteristics>
								</video>
								<audio>
									<samplecharacteristics>
										<depth>16</depth>
										<samplerate>48000</samplerate>
									</samplecharacteristics>
									<channelcount>2</channelcount>
								</audio>
							</media>
						</file>
						<link>
							<linkclipref>clipitem-S3-V2-7</linkclipref>
							<mediatype>video</mediatype>
							<trackindex>2</trackindex>
							<clipindex>7</clipindex>
						</link>
						<link>
							<linkclipref>clipitem-S3-A3-7</linkclipref>
							<mediatype>audio</mediatype>
							<trackindex>3</trackindex>
							<clipindex>7</clipindex>
							<groupindex>1</groupindex>
						</link>
						<link>
							<linkclipref>clipitem-S3-A4-7</linkclipref>
							<mediatype>audio</mediatype>
							<trackindex>4</trackindex>
							<clipindex>7</clipindex>
							<groupindex>1</groupindex>
						</link>
					</clipitem>
					<clipitem id="clipitem-S3-V2-8">
						<name>julian_1_2021-11-28_1253_C0029.mov</name>
						<enabled>TRUE</enabled>
						<duration>78</duration>
						<rate>
							<timebase>24</timebase>
							<ntsc>TRUE</ntsc>
						</rate>
						<start>17305</start>
						<end>17383</end>
						<in>0</in>
						<out>78</out>
						<file id="file-270">
							<name>julian_1_2021-11-28_1253_C0029.mov</name>
							<pathurl>/Volumes/tiesta/01_Footage/ha dinizulu/Ha Dinizulu 2/julian_1_2021-11-28_1253_C0029.mov</pathurl>
							<rate>
								<timebase>24</timebase>
								<ntsc>TRUE</ntsc>
							</rate>
							<duration>78</duration>
							<timecode>
								<string>12:53:55:00</string>
								<displayformat>NDF</displayformat>
								<frame>1114440</frame>
								<rate>
									<timebase>24</timebase>
									<ntsc>TRUE</ntsc>
								</rate>
							</timecode>
							<media>
								<video>
									<samplecharacteristics>
										<rate>
											<timebase>24</timebase>
											<ntsc>TRUE</ntsc>
										</rate>
										<width>1920</width>
										<height>1080</height>
										<anamorphic>FALSE</anamorphic>
										<pixelaspectratio>square</pixelaspectratio>
										<fielddominance>none</fielddominance>
									</samplecharacteristics>
								</video>
								<audio>
									<samplecharacteristics>
										<depth>16</depth>
										<samplerate>48000</samplerate>
									</samplecharacteristics>
									<channelcount>2</channelcount>
								</audio>
							</media>
						</file>
						<link>
							<linkclipref>clipitem-S3-V2-8</linkclipref>
							<mediatype>video</mediatype>
							<trackindex>2</trackindex>
							<clipindex>8</clipindex>
						</link>
						<link>
							<linkclipref>clipitem-S3-A3-8</linkclipref>
							<mediatype>audio</mediatype>
							<trackindex>3</trackindex>
							<clipindex>8</clipindex>
							<groupindex>1</groupindex>
						</link>
						<link>
							<linkclipref>clipitem-S3-A4-8</linkclipref>
							<mediatype>audio</mediatype>
							<trackindex>4</trackindex>
							<clipindex>8</clipindex>
							<groupindex>1</groupindex>
						</link>
					</clipitem>
					<clipitem id="clipitem-S3-V2-9">
						<name>julian_1_2021-11-28_1254_C0030.mov</name>
						<enabled>TRUE</enabled>
						<duration>29</duration>
						<rate>
							<timebase>24</timebase>
							<ntsc>TRUE</ntsc>
						</rate>
						<start>17794</start>
						<end>17823</end>
						<in>0</in>
						<out>29</out>
						<file id="file-271">
							<name>julian_1_2021-11-28_1254_C0030.mov</name>
							<pathurl>/Volumes/tiesta/01_Footage/ha dinizulu/Ha Dinizulu 2/julian_1_2021-11-28_1254_C0030.mov</pathurl>
							<rate>
								<timebase>24</timebase>
								<ntsc>TRUE</ntsc>
							</rate>
							<duration>29</duration>
							<timecode>
								<string>12:54:15:00</string>
								<displayformat>NDF</displayformat>
								<frame>1114920</frame>
								<rate>
									<timebase>24</timebase>
									<ntsc>TRUE</ntsc>
								</rate>
							</timecode>
							<media>
								<video>
									<samplecharacteristics>
										<rate>
											<timebase>24</timebase>
											<ntsc>TRUE</ntsc>
										</rate>
										<width>1920</width>
										<height>1080</height>
										<anamorphic>FALSE</anamorphic>
										<pixelaspectratio>square</pixelaspectratio>
										<fielddominance>none</fielddominance>
									</samplecharacteristics>
								</video>
								<audio>
									<samplecharacteristics>
										<depth>16</depth>
										<samplerate>48000</samplerate>
									</samplecharacteristics>
									<channelcount>2</channelcount>
								</audio>
							</media>
						</file>
						<link>
							<linkclipref>clipitem-S3-V2-9</linkclipref>
							<mediatype>video</mediatype>
							<trackindex>2</trackindex>
							<clipindex>9</clipindex>
						</link>
						<link>
							<linkclipref>clipitem-S3-A3-9</linkclipref>
							<mediatype>audio</mediatype>
							<trackindex>3</trackindex>
							<clipindex>9</clipindex>
							<groupindex>1</groupindex>
						</link>
						<link>
							<linkclipref>clipitem-S3-A4-9</linkclipref>
							<mediatype>audio</mediatype>
							<trackindex>4</trackindex>
							<clipindex>9</clipindex>
							<groupindex>1</groupindex>
						</link>
						<labels>
							<label2>Rose</label2>
						</labels>
					</clipitem>
					<clipitem id="clipitem-S3-V2-10">
						<name>julian_1_2021-11-28_1254_C0031.mov</name>
						<enabled>TRUE</enabled>
						<duration>148</duration>
						<rate>
							<timebase>24</timebase>
							<ntsc>TRUE</ntsc>
						</rate>
						<start>17962</start>
						<end>18110</end>
						<in>0</in>
						<out>148</out>
						<file id="file-272">
							<name>julian_1_2021-11-28_1254_C0031.mov</name>
							<pathurl>/Volumes/tiesta/01_Footage/ha dinizulu/Ha Dinizulu 2/julian_1_2021-11-28_1254_C0031.mov</pathurl>
							<rate>
								<timebase>24</timebase>
								<ntsc>TRUE</ntsc>
							</rate>
							<duration>148</duration>
							<timecode>
								<string>12:54:22:00</string>
								<displayformat>NDF</displayformat>
								<frame>1115088</frame>
								<rate>
									<timebase>24</timebase>
									<ntsc>TRUE</ntsc>
								</rate>
							</timecode>
							<media>
								<video>
									<samplecharacteristics>
										<rate>
											<timebase>24</timebase>
											<ntsc>TRUE</ntsc>
										</rate>
										<width>1920</width>
										<height>1080</height>
										<anamorphic>FALSE</anamorphic>
										<pixelaspectratio>square</pixelaspectratio>
										<fielddominance>none</fielddominance>
									</samplecharacteristics>
								</video>
								<audio>
									<samplecharacteristics>
										<depth>16</depth>
										<samplerate>48000</samplerate>
									</samplecharacteristics>
									<channelcount>2</channelcount>
								</audio>
							</media>
						</file>
						<link>
							<linkclipref>clipitem-S3-V2-10</linkclipref>
							<mediatype>video</mediatype>
							<trackindex>2</trackindex>
							<clipindex>10</clipindex>
						</link>
						<link>
							<linkclipref>clipitem-S3-A3-10</linkclipref>
							<mediatype>audio</mediatype>
							<trackindex>3</trackindex>
							<clipindex>10</clipindex>
							<groupindex>1</groupindex>
						</link>
						<link>
							<linkclipref>clipitem-S3-A4-10</linkclipref>
							<mediatype>audio</mediatype>
							<trackindex>4</trackindex>
							<clipindex>10</clipindex>
							<groupindex>1</groupindex>
						</link>
					</clipitem>
					<clipitem id="clipitem-S3-V2-11">
						<name>julian_1_2021-11-28_1255_C0032.mov</name>
						<enabled>TRUE</enabled>
						<duration>187</duration>
						<rate>
							<timebase>24</timebase>
							<ntsc>TRUE</ntsc>
						</rate>
						<start>19771</start>
						<end>19958</end>
						<in>0</in>
						<out>187</out>
						<file id="file-273">
							<name>julian_1_2021-11-28_1255_C0032.mov</name>
							<pathurl>/Volumes/tiesta/01_Footage/ha dinizulu/Ha Dinizulu 2/julian_1_2021-11-28_1255_C0032.mov</pathurl>
							<rate>
								<timebase>24</timebase>
								<ntsc>TRUE</ntsc>
							</rate>
							<duration>187</duration>
							<timecode>
								<string>12:55:37:00</string>
								<displayformat>NDF</displayformat>
								<frame>1116888</frame>
								<rate>
									<timebase>24</timebase>
									<ntsc>TRUE</ntsc>
								</rate>
							</timecode>
							<media>
								<video>
									<samplecharacteristics>
										<rate>
											<timebase>24</timebase>
											<ntsc>TRUE</ntsc>
										</rate>
										<width>1920</width>
										<height>1080</height>
										<anamorphic>FALSE</anamorphic>
										<pixelaspectratio>square</pixelaspectratio>
										<fielddominance>none</fielddominance>
									</samplecharacteristics>
								</video>
								<audio>
									<samplecharacteristics>
										<depth>16</depth>
										<samplerate>48000</samplerate>
									</samplecharacteristics>
									<channelcount>2</channelcount>
								</audio>
							</media>
						</file>
						<link>
							<linkclipref>clipitem-S3-V2-11</linkclipref>
							<mediatype>video</mediatype>
							<trackindex>2</trackindex>
							<clipindex>11</clipindex>
						</link>
						<link>
							<linkclipref>clipitem-S3-A3-11</linkclipref>
							<mediatype>audio</mediatype>
							<trackindex>3</trackindex>
							<clipindex>11</clipindex>
							<groupindex>1</groupindex>
						</link>
						<link>
							<linkclipref>clipitem-S3-A4-11</linkclipref>
							<mediatype>audio</mediatype>
							<trackindex>4</trackindex>
							<clipindex>11</clipindex>
							<groupindex>1</groupindex>
						</link>
					</clipitem>
					<clipitem id="clipitem-S3-V2-12">
						<name>julian_1_2021-11-28_1256_C0033.mov</name>
						<enabled>TRUE</enabled>
						<duration>551</duration>
						<rate>
							<timebase>24</timebase>
							<ntsc>TRUE</ntsc>
						</rate>
						<start>21236</start>
						<end>21787</end>
						<in>0</in>
						<out>551</out>
						<file id="file-274">
							<name>julian_1_2021-11-28_1256_C0033.mov</name>
							<pathurl>/Volumes/tiesta/01_Footage/ha dinizulu/Ha Dinizulu 2/julian_1_2021-11-28_1256_C0033.mov</pathurl>
							<rate>
								<timebase>24</timebase>
								<ntsc>TRUE</ntsc>
							</rate>
							<duration>551</duration>
							<timecode>
								<string>12:56:39:00</string>
								<displayformat>NDF</displayformat>
								<frame>1118376</frame>
								<rate>
									<timebase>24</timebase>
									<ntsc>TRUE</ntsc>
								</rate>
							</timecode>
							<media>
								<video>
									<samplecharacteristics>
										<rate>
											<timebase>24</timebase>
											<ntsc>TRUE</ntsc>
										</rate>
										<width>1920</width>
										<height>1080</height>
										<anamorphic>FALSE</anamorphic>
										<pixelaspectratio>square</pixelaspectratio>
										<fielddominance>none</fielddominance>
									</samplecharacteristics>
								</video>
								<audio>
									<samplecharacteristics>
										<depth>16</depth>
										<samplerate>48000</samplerate>
									</samplecharacteristics>
									<channelcount>2</channelcount>
								</audio>
							</media>
						</file>
						<link>
							<linkclipref>clipitem-S3-V2-12</linkclipref>
							<mediatype>video</mediatype>
							<trackindex>2</trackindex>
							<clipindex>12</clipindex>
						</link>
						<link>
							<linkclipref>clipitem-S3-A3-12</linkclipref>
							<mediatype>audio</mediatype>
							<trackindex>3</trackindex>
							<clipindex>12</clipindex>
							<groupindex>1</groupindex>
						</link>
						<link>
							<linkclipref>clipitem-S3-A4-12</linkclipref>
							<mediatype>audio</mediatype>
							<trackindex>4</trackindex>
							<clipindex>12</clipindex>
							<groupindex>1</groupindex>
						</link>
					</clipitem>
					<clipitem id="clipitem-S3-V2-13">
						<name>julian_1_2021-11-28_1257_C0034.mov</name>
						<enabled>TRUE</enabled>
						<duration>700</duration>
						<rate>
							<timebase>24</timebase>
							<ntsc>TRUE</ntsc>
						</rate>
						<start>22271</start>
						<end>22971</end>
						<in>0</in>
						<out>700</out>
						<file id="file-275">
							<name>julian_1_2021-11-28_1257_C0034.mov</name>
							<pathurl>/Volumes/tiesta/01_Footage/ha dinizulu/Ha Dinizulu 2/julian_1_2021-11-28_1257_C0034.mov</pathurl>
							<rate>
								<timebase>24</timebase>
								<ntsc>TRUE</ntsc>
							</rate>
							<duration>700</duration>
							<timecode>
								<string>12:57:22:00</string>
								<displayformat>NDF</displayformat>
								<frame>1119408</frame>
								<rate>
									<timebase>24</timebase>
									<ntsc>TRUE</ntsc>
								</rate>
							</timecode>
							<media>
								<video>
									<samplecharacteristics>
										<rate>
											<timebase>24</timebase>
											<ntsc>TRUE</ntsc>
										</rate>
										<width>1920</width>
										<height>1080</height>
										<anamorphic>FALSE</anamorphic>
										<pixelaspectratio>square</pixelaspectratio>
										<fielddominance>none</fielddominance>
									</samplecharacteristics>
								</video>
								<audio>
									<samplecharacteristics>
										<depth>16</depth>
										<samplerate>48000</samplerate>
									</samplecharacteristics>
									<channelcount>2</channelcount>
								</audio>
							</media>
						</file>
						<link>
							<linkclipref>clipitem-S3-V2-13</linkclipref>
							<mediatype>video</mediatype>
							<trackindex>2</trackindex>
							<clipindex>13</clipindex>
						</link>
						<link>
							<linkclipref>clipitem-S3-A3-13</linkclipref>
							<mediatype>audio</mediatype>
							<trackindex>3</trackindex>
							<clipindex>13</clipindex>
							<groupindex>1</groupindex>
						</link>
						<link>
							<linkclipref>clipitem-S3-A4-13</linkclipref>
							<mediatype>audio</mediatype>
							<trackindex>4</trackindex>
							<clipindex>13</clipindex>
							<groupindex>1</groupindex>
						</link>
					</clipitem>
					<clipitem id="clipitem-S3-V2-14">
						<name>julian_1_2021-11-28_1259_C0035.mov</name>
						<enabled>TRUE</enabled>
						<duration>360</duration>
						<rate>
							<timebase>24</timebase>
							<ntsc>TRUE</ntsc>
						</rate>
						<start>24936</start>
						<end>25296</end>
						<in>0</in>
						<out>360</out>
						<file id="file-276">
							<name>julian_1_2021-11-28_1259_C0035.mov</name>
							<pathurl>/Volumes/tiesta/01_Footage/ha dinizulu/Ha Dinizulu 2/julian_1_2021-11-28_1259_C0035.mov</pathurl>
							<rate>
								<timebase>24</timebase>
								<ntsc>TRUE</ntsc>
							</rate>
							<duration>360</duration>
							<timecode>
								<string>12:59:13:00</string>
								<displayformat>NDF</displayformat>
								<frame>1122072</frame>
								<rate>
									<timebase>24</timebase>
									<ntsc>TRUE</ntsc>
								</rate>
							</timecode>
							<media>
								<video>
									<samplecharacteristics>
										<rate>
											<timebase>24</timebase>
											<ntsc>TRUE</ntsc>
										</rate>
										<width>1920</width>
										<height>1080</height>
										<anamorphic>FALSE</anamorphic>
										<pixelaspectratio>square</pixelaspectratio>
										<fielddominance>none</fielddominance>
									</samplecharacteristics>
								</video>
								<audio>
									<samplecharacteristics>
										<depth>16</depth>
										<samplerate>48000</samplerate>
									</samplecharacteristics>
									<channelcount>2</channelcount>
								</audio>
							</media>
						</file>
						<link>
							<linkclipref>clipitem-S3-V2-14</linkclipref>
							<mediatype>video</mediatype>
							<trackindex>2</trackindex>
							<clipindex>14</clipindex>
						</link>
						<link>
							<linkclipref>clipitem-S3-A3-14</linkclipref>
							<mediatype>audio</mediatype>
							<trackindex>3</trackindex>
							<clipindex>14</clipindex>
							<groupindex>1</groupindex>
						</link>
						<link>
							<linkclipref>clipitem-S3-A4-14</linkclipref>
							<mediatype>audio</mediatype>
							<trackindex>4</trackindex>
							<clipindex>14</clipindex>
							<groupindex>1</groupindex>
						</link>
					</clipitem>
					<clipitem id="clipitem-S3-V2-15">
						<name>julian_1_2021-11-28_1259_C0036.mov</name>
						<enabled>TRUE</enabled>
						<duration>2111</duration>
						<rate>
							<timebase>24</timebase>
							<ntsc>TRUE</ntsc>
						</rate>
						<start>25849</start>
						<end>27960</end>
						<in>0</in>
						<out>2111</out>
						<file id="file-277">
							<name>julian_1_2021-11-28_1259_C0036.mov</name>
							<pathurl>/Volumes/tiesta/01_Footage/ha dinizulu/Ha Dinizulu 2/julian_1_2021-11-28_1259_C0036.mov</pathurl>
							<rate>
								<timebase>24</timebase>
								<ntsc>TRUE</ntsc>
							</rate>
							<duration>2111</duration>
							<timecode>
								<string>12:59:51:00</string>
								<displayformat>NDF</displayformat>
								<frame>1122984</frame>
								<rate>
									<timebase>24</timebase>
									<ntsc>TRUE</ntsc>
								</rate>
							</timecode>
							<media>
								<video>
									<samplecharacteristics>
										<rate>
											<timebase>24</timebase>
											<ntsc>TRUE</ntsc>
										</rate>
										<width>1920</width>
										<height>1080</height>
										<anamorphic>FALSE</anamorphic>
										<pixelaspectratio>square</pixelaspectratio>
										<fielddominance>none</fielddominance>
									</samplecharacteristics>
								</video>
								<audio>
									<samplecharacteristics>
										<depth>16</depth>
										<samplerate>48000</samplerate>
									</samplecharacteristics>
									<channelcount>2</channelcount>
								</audio>
							</media>
						</file>
						<link>
							<linkclipref>clipitem-S3-V2-15</linkclipref>
							<mediatype>video</mediatype>
							<trackindex>2</trackindex>
							<clipindex>15</clipindex>
						</link>
						<link>
							<linkclipref>clipitem-S3-A3-15</linkclipref>
							<mediatype>audio</mediatype>
							<trackindex>3</trackindex>
							<clipindex>15</clipindex>
							<groupindex>1</groupindex>
						</link>
						<link>
							<linkclipref>clipitem-S3-A4-15</linkclipref>
							<mediatype>audio</mediatype>
							<trackindex>4</trackindex>
							<clipindex>15</clipindex>
							<groupindex>1</groupindex>
						</link>
					</clipitem>
					<clipitem id="clipitem-S3-V2-16">
						<name>julian_1_2021-11-28_1301_C0037.mov</name>
						<enabled>TRUE</enabled>
						<duration>507</duration>
						<rate>
							<timebase>24</timebase>
							<ntsc>TRUE</ntsc>
						</rate>
						<start>28740</start>
						<end>29247</end>
						<in>0</in>
						<out>507</out>
						<file id="file-278">
							<name>julian_1_2021-11-28_1301_C0037.mov</name>
							<pathurl>/Volumes/tiesta/01_Footage/ha dinizulu/Ha Dinizulu 2/julian_1_2021-11-28_1301_C0037.mov</pathurl>
							<rate>
								<timebase>24</timebase>
								<ntsc>TRUE</ntsc>
							</rate>
							<duration>507</duration>
							<timecode>
								<string>13:01:51:00</string>
								<displayformat>NDF</displayformat>
								<frame>1125864</frame>
								<rate>
									<timebase>24</timebase>
									<ntsc>TRUE</ntsc>
								</rate>
							</timecode>
							<media>
								<video>
									<samplecharacteristics>
										<rate>
											<timebase>24</timebase>
											<ntsc>TRUE</ntsc>
										</rate>
										<width>1920</width>
										<height>1080</height>
										<anamorphic>FALSE</anamorphic>
										<pixelaspectratio>square</pixelaspectratio>
										<fielddominance>none</fielddominance>
									</samplecharacteristics>
								</video>
								<audio>
									<samplecharacteristics>
										<depth>16</depth>
										<samplerate>48000</samplerate>
									</samplecharacteristics>
									<channelcount>2</channelcount>
								</audio>
							</media>
						</file>
						<link>
							<linkclipref>clipitem-S3-V2-16</linkclipref>
							<mediatype>video</mediatype>
							<trackindex>2</trackindex>
							<clipindex>16</clipindex>
						</link>
						<link>
							<linkclipref>clipitem-S3-A3-16</linkclipref>
							<mediatype>audio</mediatype>
							<trackindex>3</trackindex>
							<clipindex>16</clipindex>
							<groupindex>1</groupindex>
						</link>
						<link>
							<linkclipref>clipitem-S3-A4-16</linkclipref>
							<mediatype>audio</mediatype>
							<trackindex>4</trackindex>
							<clipindex>16</clipindex>
							<groupindex>1</groupindex>
						</link>
					</clipitem>
					<clipitem id="clipitem-S3-V2-17">
						<name>julian_1_2021-11-28_1302_C0038.mov</name>
						<enabled>TRUE</enabled>
						<duration>489</duration>
						<rate>
							<timebase>24</timebase>
							<ntsc>TRUE</ntsc>
						</rate>
						<start>29643</start>
						<end>30132</end>
						<in>0</in>
						<out>489</out>
						<file id="file-279">
							<name>julian_1_2021-11-28_1302_C0038.mov</name>
							<pathurl>/Volumes/tiesta/01_Footage/ha dinizulu/Ha Dinizulu 2/julian_1_2021-11-28_1302_C0038.mov</pathurl>
							<rate>
								<timebase>24</timebase>
								<ntsc>TRUE</ntsc>
							</rate>
							<duration>489</duration>
							<timecode>
								<string>13:02:29:00</string>
								<displayformat>NDF</displayformat>
								<frame>1126776</frame>
								<rate>
									<timebase>24</timebase>
									<ntsc>TRUE</ntsc>
								</rate>
							</timecode>
							<media>
								<video>
									<samplecharacteristics>
										<rate>
											<timebase>24</timebase>
											<ntsc>TRUE</ntsc>
										</rate>
										<width>1920</width>
										<height>1080</height>
										<anamorphic>FALSE</anamorphic>
										<pixelaspectratio>square</pixelaspectratio>
										<fielddominance>none</fielddominance>
									</samplecharacteristics>
								</video>
								<audio>
									<samplecharacteristics>
										<depth>16</depth>
										<samplerate>48000</samplerate>
									</samplecharacteristics>
									<channelcount>2</channelcount>
								</audio>
							</media>
						</file>
						<link>
							<linkclipref>clipitem-S3-V2-17</linkclipref>
							<mediatype>video</mediatype>
							<trackindex>2</trackindex>
							<clipindex>17</clipindex>
						</link>
						<link>
							<linkclipref>clipitem-S3-A3-17</linkclipref>
							<mediatype>audio</mediatype>
							<trackindex>3</trackindex>
							<clipindex>17</clipindex>
							<groupindex>1</groupindex>
						</link>
						<link>
							<linkclipref>clipitem-S3-A4-17</linkclipref>
							<mediatype>audio</mediatype>
							<trackindex>4</trackindex>
							<clipindex>17</clipindex>
							<groupindex>1</groupindex>
						</link>
					</clipitem>
					<clipitem id="clipitem-S3-V2-18">
						<name>julian_1_2021-11-28_1303_C0039.mov</name>
						<enabled>TRUE</enabled>
						<duration>652</duration>
						<rate>
							<timebase>24</timebase>
							<ntsc>TRUE</ntsc>
						</rate>
						<start>30614</start>
						<end>31266</end>
						<in>0</in>
						<out>652</out>
						<file id="file-280">
							<name>julian_1_2021-11-28_1303_C0039.mov</name>
							<pathurl>/Volumes/tiesta/01_Footage/ha dinizulu/Ha Dinizulu 2/julian_1_2021-11-28_1303_C0039.mov</pathurl>
							<rate>
								<timebase>24</timebase>
								<ntsc>TRUE</ntsc>
							</rate>
							<duration>652</duration>
							<timecode>
								<string>13:03:10:00</string>
								<displayformat>NDF</displayformat>
								<frame>1127760</frame>
								<rate>
									<timebase>24</timebase>
									<ntsc>TRUE</ntsc>
								</rate>
							</timecode>
							<media>
								<video>
									<samplecharacteristics>
										<rate>
											<timebase>24</timebase>
											<ntsc>TRUE</ntsc>
										</rate>
										<width>1920</width>
										<height>1080</height>
										<anamorphic>FALSE</anamorphic>
										<pixelaspectratio>square</pixelaspectratio>
										<fielddominance>none</fielddominance>
									</samplecharacteristics>
								</video>
								<audio>
									<samplecharacteristics>
										<depth>16</depth>
										<samplerate>48000</samplerate>
									</samplecharacteristics>
									<channelcount>2</channelcount>
								</audio>
							</media>
						</file>
						<link>
							<linkclipref>clipitem-S3-V2-18</linkclipref>
							<mediatype>video</mediatype>
							<trackindex>2</trackindex>
							<clipindex>18</clipindex>
						</link>
						<link>
							<linkclipref>clipitem-S3-A3-18</linkclipref>
							<mediatype>audio</mediatype>
							<trackindex>3</trackindex>
							<clipindex>18</clipindex>
							<groupindex>1</groupindex>
						</link>
						<link>
							<linkclipref>clipitem-S3-A4-18</linkclipref>
							<mediatype>audio</mediatype>
							<trackindex>4</trackindex>
							<clipindex>18</clipindex>
							<groupindex>1</groupindex>
						</link>
					</clipitem>
					<clipitem id="clipitem-S3-V2-19">
						<name>julian_1_2021-11-28_1303_C0040.mov</name>
						<enabled>TRUE</enabled>
						<duration>429</duration>
						<rate>
							<timebase>24</timebase>
							<ntsc>TRUE</ntsc>
						</rate>
						<start>31638</start>
						<end>32067</end>
						<in>0</in>
						<out>429</out>
						<file id="file-281">
							<name>julian_1_2021-11-28_1303_C0040.mov</name>
							<pathurl>/Volumes/tiesta/01_Footage/ha dinizulu/Ha Dinizulu 2/julian_1_2021-11-28_1303_C0040.mov</pathurl>
							<rate>
								<timebase>24</timebase>
								<ntsc>TRUE</ntsc>
							</rate>
							<duration>429</duration>
							<timecode>
								<string>13:03:52:00</string>
								<displayformat>NDF</displayformat>
								<frame>1128768</frame>
								<rate>
									<timebase>24</timebase>
									<ntsc>TRUE</ntsc>
								</rate>
							</timecode>
							<media>
								<video>
									<samplecharacteristics>
										<rate>
											<timebase>24</timebase>
											<ntsc>TRUE</ntsc>
										</rate>
										<width>1920</width>
										<height>1080</height>
										<anamorphic>FALSE</anamorphic>
										<pixelaspectratio>square</pixelaspectratio>
										<fielddominance>none</fielddominance>
									</samplecharacteristics>
								</video>
								<audio>
									<samplecharacteristics>
										<depth>16</depth>
										<samplerate>48000</samplerate>
									</samplecharacteristics>
									<channelcount>2</channelcount>
								</audio>
							</media>
						</file>
						<link>
							<linkclipref>clipitem-S3-V2-19</linkclipref>
							<mediatype>video</mediatype>
							<trackindex>2</trackindex>
							<clipindex>19</clipindex>
						</link>
						<link>
							<linkclipref>clipitem-S3-A3-19</linkclipref>
							<mediatype>audio</mediatype>
							<trackindex>3</trackindex>
							<clipindex>19</clipindex>
							<groupindex>1</groupindex>
						</link>
						<link>
							<linkclipref>clipitem-S3-A4-19</linkclipref>
							<mediatype>audio</mediatype>
							<trackindex>4</trackindex>
							<clipindex>19</clipindex>
							<groupindex>1</groupindex>
						</link>
					</clipitem>
					<clipitem id="clipitem-S3-V2-20">
						<name>julian_1_2021-11-28_1304_C0041.mov</name>
						<enabled>TRUE</enabled>
						<duration>337</duration>
						<rate>
							<timebase>24</timebase>
							<ntsc>TRUE</ntsc>
						</rate>
						<start>32716</start>
						<end>33053</end>
						<in>0</in>
						<out>337</out>
						<file id="file-282">
							<name>julian_1_2021-11-28_1304_C0041.mov</name>
							<pathurl>/Volumes/tiesta/01_Footage/ha dinizulu/Ha Dinizulu 2/julian_1_2021-11-28_1304_C0041.mov</pathurl>
							<rate>
								<timebase>24</timebase>
								<ntsc>TRUE</ntsc>
							</rate>
							<duration>337</duration>
							<timecode>
								<string>13:04:38:00</string>
								<displayformat>NDF</displayformat>
								<frame>1129872</frame>
								<rate>
									<timebase>24</timebase>
									<ntsc>TRUE</ntsc>
								</rate>
							</timecode>
							<media>
								<video>
									<samplecharacteristics>
										<rate>
											<timebase>24</timebase>
											<ntsc>TRUE</ntsc>
										</rate>
										<width>1920</width>
										<height>1080</height>
										<anamorphic>FALSE</anamorphic>
										<pixelaspectratio>square</pixelaspectratio>
										<fielddominance>none</fielddominance>
									</samplecharacteristics>
								</video>
								<audio>
									<samplecharacteristics>
										<depth>16</depth>
										<samplerate>48000</samplerate>
									</samplecharacteristics>
									<channelcount>2</channelcount>
								</audio>
							</media>
						</file>
						<link>
							<linkclipref>clipitem-S3-V2-20</linkclipref>
							<mediatype>video</mediatype>
							<trackindex>2</trackindex>
							<clipindex>20</clipindex>
						</link>
						<link>
							<linkclipref>clipitem-S3-A3-20</linkclipref>
							<mediatype>audio</mediatype>
							<trackindex>3</trackindex>
							<clipindex>20</clipindex>
							<groupindex>1</groupindex>
						</link>
						<link>
							<linkclipref>clipitem-S3-A4-20</linkclipref>
							<mediatype>audio</mediatype>
							<trackindex>4</trackindex>
							<clipindex>20</clipindex>
							<groupindex>1</groupindex>
						</link>
					</clipitem>
					<clipitem id="clipitem-S3-V2-21">
						<name>julian_1_2021-11-28_1305_C0042.mov</name>
						<enabled>TRUE</enabled>
						<duration>691</duration>
						<rate>
							<timebase>24</timebase>
							<ntsc>TRUE</ntsc>
						</rate>
						<start>33351</start>
						<end>34042</end>
						<in>0</in>
						<out>691</out>
						<file id="file-283">
							<name>julian_1_2021-11-28_1305_C0042.mov</name>
							<pathurl>/Volumes/tiesta/01_Footage/ha dinizulu/Ha Dinizulu 2/julian_1_2021-11-28_1305_C0042.mov</pathurl>
							<rate>
								<timebase>24</timebase>
								<ntsc>TRUE</ntsc>
							</rate>
							<duration>691</duration>
							<timecode>
								<string>13:05:04:00</string>
								<displayformat>NDF</displayformat>
								<frame>1130496</frame>
								<rate>
									<timebase>24</timebase>
									<ntsc>TRUE</ntsc>
								</rate>
							</timecode>
							<media>
								<video>
									<samplecharacteristics>
										<rate>
											<timebase>24</timebase>
											<ntsc>TRUE</ntsc>
										</rate>
										<width>1920</width>
										<height>1080</height>
										<anamorphic>FALSE</anamorphic>
										<pixelaspectratio>square</pixelaspectratio>
										<fielddominance>none</fielddominance>
									</samplecharacteristics>
								</video>
								<audio>
									<samplecharacteristics>
										<depth>16</depth>
										<samplerate>48000</samplerate>
									</samplecharacteristics>
									<channelcount>2</channelcount>
								</audio>
							</media>
						</file>
						<link>
							<linkclipref>clipitem-S3-V2-21</linkclipref>
							<mediatype>video</mediatype>
							<trackindex>2</trackindex>
							<clipindex>21</clipindex>
						</link>
						<link>
							<linkclipref>clipitem-S3-A3-21</linkclipref>
							<mediatype>audio</mediatype>
							<trackindex>3</trackindex>
							<clipindex>21</clipindex>
							<groupindex>1</groupindex>
						</link>
						<link>
							<linkclipref>clipitem-S3-A4-21</linkclipref>
							<mediatype>audio</mediatype>
							<trackindex>4</trackindex>
							<clipindex>21</clipindex>
							<groupindex>1</groupindex>
						</link>
					</clipitem>
					<clipitem id="clipitem-S3-V2-22">
						<name>julian_1_2021-11-28_1305_C0043.mov</name>
						<enabled>TRUE</enabled>
						<duration>923</duration>
						<rate>
							<timebase>24</timebase>
							<ntsc>TRUE</ntsc>
						</rate>
						<start>34269</start>
						<end>35192</end>
						<in>0</in>
						<out>923</out>
						<file id="file-284">
							<name>julian_1_2021-11-28_1305_C0043.mov</name>
							<pathurl>/Volumes/tiesta/01_Footage/ha dinizulu/Ha Dinizulu 2/julian_1_2021-11-28_1305_C0043.mov</pathurl>
							<rate>
								<timebase>24</timebase>
								<ntsc>TRUE</ntsc>
							</rate>
							<duration>923</duration>
							<timecode>
								<string>13:05:42:00</string>
								<displayformat>NDF</displayformat>
								<frame>1131408</frame>
								<rate>
									<timebase>24</timebase>
									<ntsc>TRUE</ntsc>
								</rate>
							</timecode>
							<media>
								<video>
									<samplecharacteristics>
										<rate>
											<timebase>24</timebase>
											<ntsc>TRUE</ntsc>
										</rate>
										<width>1920</width>
										<height>1080</height>
										<anamorphic>FALSE</anamorphic>
										<pixelaspectratio>square</pixelaspectratio>
										<fielddominance>none</fielddominance>
									</samplecharacteristics>
								</video>
								<audio>
									<samplecharacteristics>
										<depth>16</depth>
										<samplerate>48000</samplerate>
									</samplecharacteristics>
									<channelcount>2</channelcount>
								</audio>
							</media>
						</file>
						<link>
							<linkclipref>clipitem-S3-V2-22</linkclipref>
							<mediatype>video</mediatype>
							<trackindex>2</trackindex>
							<clipindex>22</clipindex>
						</link>
						<link>
							<linkclipref>clipitem-S3-A3-22</linkclipref>
							<mediatype>audio</mediatype>
							<trackindex>3</trackindex>
							<clipindex>22</clipindex>
							<groupindex>1</groupindex>
						</link>
						<link>
							<linkclipref>clipitem-S3-A4-22</linkclipref>
							<mediatype>audio</mediatype>
							<trackindex>4</trackindex>
							<clipindex>22</clipindex>
							<groupindex>1</groupindex>
						</link>
					</clipitem>
					<clipitem id="clipitem-S3-V2-23">
						<name>julian_1_2021-11-28_1306_C0044.mov</name>
						<enabled>TRUE</enabled>
						<duration>1044</duration>
						<rate>
							<timebase>24</timebase>
							<ntsc>TRUE</ntsc>
						</rate>
						<start>35360</start>
						<end>36404</end>
						<in>0</in>
						<out>1044</out>
						<file id="file-285">
							<name>julian_1_2021-11-28_1306_C0044.mov</name>
							<pathurl>/Volumes/tiesta/01_Footage/ha dinizulu/Ha Dinizulu 2/julian_1_2021-11-28_1306_C0044.mov</pathurl>
							<rate>
								<timebase>24</timebase>
								<ntsc>TRUE</ntsc>
							</rate>
							<duration>1044</duration>
							<timecode>
								<string>13:06:28:00</string>
								<displayformat>NDF</displayformat>
								<frame>1132512</frame>
								<rate>
									<timebase>24</timebase>
									<ntsc>TRUE</ntsc>
								</rate>
							</timecode>
							<media>
								<video>
									<samplecharacteristics>
										<rate>
											<timebase>24</timebase>
											<ntsc>TRUE</ntsc>
										</rate>
										<width>1920</width>
										<height>1080</height>
										<anamorphic>FALSE</anamorphic>
										<pixelaspectratio>square</pixelaspectratio>
										<fielddominance>none</fielddominance>
									</samplecharacteristics>
								</video>
								<audio>
									<samplecharacteristics>
										<depth>16</depth>
										<samplerate>48000</samplerate>
									</samplecharacteristics>
									<channelcount>2</channelcount>
								</audio>
							</media>
						</file>
						<link>
							<linkclipref>clipitem-S3-V2-23</linkclipref>
							<mediatype>video</mediatype>
							<trackindex>2</trackindex>
							<clipindex>23</clipindex>
						</link>
						<link>
							<linkclipref>clipitem-S3-A3-23</linkclipref>
							<mediatype>audio</mediatype>
							<trackindex>3</trackindex>
							<clipindex>23</clipindex>
							<groupindex>1</groupindex>
						</link>
						<link>
							<linkclipref>clipitem-S3-A4-23</linkclipref>
							<mediatype>audio</mediatype>
							<trackindex>4</trackindex>
							<clipindex>23</clipindex>
							<groupindex>1</groupindex>
						</link>
					</clipitem>
					<clipitem id="clipitem-S3-V2-24">
						<name>julian_1_2021-11-28_1307_C0045.mov</name>
						<enabled>TRUE</enabled>
						<duration>1047</duration>
						<rate>
							<timebase>24</timebase>
							<ntsc>TRUE</ntsc>
						</rate>
						<start>36685</start>
						<end>37732</end>
						<in>0</in>
						<out>1047</out>
						<file id="file-286">
							<name>julian_1_2021-11-28_1307_C0045.mov</name>
							<pathurl>/Volumes/tiesta/01_Footage/ha dinizulu/Ha Dinizulu 2/julian_1_2021-11-28_1307_C0045.mov</pathurl>
							<rate>
								<timebase>24</timebase>
								<ntsc>TRUE</ntsc>
							</rate>
							<duration>1047</duration>
							<timecode>
								<string>13:07:23:00</string>
								<displayformat>NDF</displayformat>
								<frame>1133832</frame>
								<rate>
									<timebase>24</timebase>
									<ntsc>TRUE</ntsc>
								</rate>
							</timecode>
							<media>
								<video>
									<samplecharacteristics>
										<rate>
											<timebase>24</timebase>
											<ntsc>TRUE</ntsc>
										</rate>
										<width>1920</width>
										<height>1080</height>
										<anamorphic>FALSE</anamorphic>
										<pixelaspectratio>square</pixelaspectratio>
										<fielddominance>none</fielddominance>
									</samplecharacteristics>
								</video>
								<audio>
									<samplecharacteristics>
										<depth>16</depth>
										<samplerate>48000</samplerate>
									</samplecharacteristics>
									<channelcount>2</channelcount>
								</audio>
							</media>
						</file>
						<link>
							<linkclipref>clipitem-S3-V2-24</linkclipref>
							<mediatype>video</mediatype>
							<trackindex>2</trackindex>
							<clipindex>24</clipindex>
						</link>
						<link>
							<linkclipref>clipitem-S3-A3-24</linkclipref>
							<mediatype>audio</mediatype>
							<trackindex>3</trackindex>
							<clipindex>24</clipindex>
							<groupindex>1</groupindex>
						</link>
						<link>
							<linkclipref>clipitem-S3-A4-24</linkclipref>
							<mediatype>audio</mediatype>
							<trackindex>4</trackindex>
							<clipindex>24</clipindex>
							<groupindex>1</groupindex>
						</link>
					</clipitem>
					<clipitem id="clipitem-S3-V2-25">
						<name>julian_1_2021-11-28_1308_C0046.mov</name>
						<enabled>TRUE</enabled>
						<duration>387</duration>
						<rate>
							<timebase>24</timebase>
							<ntsc>TRUE</ntsc>
						</rate>
						<start>38236</start>
						<end>38623</end>
						<in>0</in>
						<out>387</out>
						<file id="file-287">
							<name>julian_1_2021-11-28_1308_C0046.mov</name>
							<pathurl>/Volumes/tiesta/01_Footage/ha dinizulu/Ha Dinizulu 2/julian_1_2021-11-28_1308_C0046.mov</pathurl>
							<rate>
								<timebase>24</timebase>
								<ntsc>TRUE</ntsc>
							</rate>
							<duration>387</duration>
							<timecode>
								<string>13:08:28:00</string>
								<displayformat>NDF</displayformat>
								<frame>1135392</frame>
								<rate>
									<timebase>24</timebase>
									<ntsc>TRUE</ntsc>
								</rate>
							</timecode>
							<media>
								<video>
									<samplecharacteristics>
										<rate>
											<timebase>24</timebase>
											<ntsc>TRUE</ntsc>
										</rate>
										<width>1920</width>
										<height>1080</height>
										<anamorphic>FALSE</anamorphic>
										<pixelaspectratio>square</pixelaspectratio>
										<fielddominance>none</fielddominance>
									</samplecharacteristics>
								</video>
								<audio>
									<samplecharacteristics>
										<depth>16</depth>
										<samplerate>48000</samplerate>
									</samplecharacteristics>
									<channelcount>2</channelcount>
								</audio>
							</media>
						</file>
						<link>
							<linkclipref>clipitem-S3-V2-25</linkclipref>
							<mediatype>video</mediatype>
							<trackindex>2</trackindex>
							<clipindex>25</clipindex>
						</link>
						<link>
							<linkclipref>clipitem-S3-A3-25</linkclipref>
							<mediatype>audio</mediatype>
							<trackindex>3</trackindex>
							<clipindex>25</clipindex>
							<groupindex>1</groupindex>
						</link>
						<link>
							<linkclipref>clipitem-S3-A4-25</linkclipref>
							<mediatype>audio</mediatype>
							<trackindex>4</trackindex>
							<clipindex>25</clipindex>
							<groupindex>1</groupindex>
						</link>
					</clipitem>
					<clipitem id="clipitem-S3-V2-26">
						<name>julian_1_2021-11-28_1309_C0047.mov</name>
						<enabled>TRUE</enabled>
						<duration>757</duration>
						<rate>
							<timebase>24</timebase>
							<ntsc>TRUE</ntsc>
						</rate>
						<start>39740</start>
						<end>40497</end>
						<in>0</in>
						<out>757</out>
						<file id="file-288">
							<name>julian_1_2021-11-28_1309_C0047.mov</name>
							<pathurl>/Volumes/tiesta/01_Footage/ha dinizulu/Ha Dinizulu 2/julian_1_2021-11-28_1309_C0047.mov</pathurl>
							<rate>
								<timebase>24</timebase>
								<ntsc>TRUE</ntsc>
							</rate>
							<duration>757</duration>
							<timecode>
								<string>13:09:30:00</string>
								<displayformat>NDF</displayformat>
								<frame>1136880</frame>
								<rate>
									<timebase>24</timebase>
									<ntsc>TRUE</ntsc>
								</rate>
							</timecode>
							<media>
								<video>
									<samplecharacteristics>
										<rate>
											<timebase>24</timebase>
											<ntsc>TRUE</ntsc>
										</rate>
										<width>1920</width>
										<height>1080</height>
										<anamorphic>FALSE</anamorphic>
										<pixelaspectratio>square</pixelaspectratio>
										<fielddominance>none</fielddominance>
									</samplecharacteristics>
								</video>
								<audio>
									<samplecharacteristics>
										<depth>16</depth>
										<samplerate>48000</samplerate>
									</samplecharacteristics>
									<channelcount>2</channelcount>
								</audio>
							</media>
						</file>
						<link>
							<linkclipref>clipitem-S3-V2-26</linkclipref>
							<mediatype>video</mediatype>
							<trackindex>2</trackindex>
							<clipindex>26</clipindex>
						</link>
						<link>
							<linkclipref>clipitem-S3-A3-26</linkclipref>
							<mediatype>audio</mediatype>
							<trackindex>3</trackindex>
							<clipindex>26</clipindex>
							<groupindex>1</groupindex>
						</link>
						<link>
							<linkclipref>clipitem-S3-A4-26</linkclipref>
							<mediatype>audio</mediatype>
							<trackindex>4</trackindex>
							<clipindex>26</clipindex>
							<groupindex>1</groupindex>
						</link>
					</clipitem>
					<clipitem id="clipitem-S3-V2-27">
						<name>julian_1_2021-11-28_1312_C0048.mov</name>
						<enabled>TRUE</enabled>
						<duration>1154</duration>
						<rate>
							<timebase>24</timebase>
							<ntsc>TRUE</ntsc>
						</rate>
						<start>44445</start>
						<end>45599</end>
						<in>0</in>
						<out>1154</out>
						<file id="file-289">
							<name>julian_1_2021-11-28_1312_C0048.mov</name>
							<pathurl>/Volumes/tiesta/01_Footage/ha dinizulu/Ha Dinizulu 2/julian_1_2021-11-28_1312_C0048.mov</pathurl>
							<rate>
								<timebase>24</timebase>
								<ntsc>TRUE</ntsc>
							</rate>
							<duration>1154</duration>
							<timecode>
								<string>13:12:46:00</string>
								<displayformat>NDF</displayformat>
								<frame>1141584</frame>
								<rate>
									<timebase>24</timebase>
									<ntsc>TRUE</ntsc>
								</rate>
							</timecode>
							<media>
								<video>
									<samplecharacteristics>
										<rate>
											<timebase>24</timebase>
											<ntsc>TRUE</ntsc>
										</rate>
										<width>1920</width>
										<height>1080</height>
										<anamorphic>FALSE</anamorphic>
										<pixelaspectratio>square</pixelaspectratio>
										<fielddominance>none</fielddominance>
									</samplecharacteristics>
								</video>
								<audio>
									<samplecharacteristics>
										<depth>16</depth>
										<samplerate>48000</samplerate>
									</samplecharacteristics>
									<channelcount>2</channelcount>
								</audio>
							</media>
						</file>
						<link>
							<linkclipref>clipitem-S3-V2-27</linkclipref>
							<mediatype>video</mediatype>
							<trackindex>2</trackindex>
							<clipindex>27</clipindex>
						</link>
						<link>
							<linkclipref>clipitem-S3-A3-27</linkclipref>
							<mediatype>audio</mediatype>
							<trackindex>3</trackindex>
							<clipindex>27</clipindex>
							<groupindex>1</groupindex>
						</link>
						<link>
							<linkclipref>clipitem-S3-A4-27</linkclipref>
							<mediatype>audio</mediatype>
							<trackindex>4</trackindex>
							<clipindex>27</clipindex>
							<groupindex>1</groupindex>
						</link>
					</clipitem>
					<clipitem id="clipitem-S3-V2-28">
						<name>julian_1_2021-11-28_1314_C0049.mov</name>
						<enabled>TRUE</enabled>
						<duration>1264</duration>
						<rate>
							<timebase>24</timebase>
							<ntsc>TRUE</ntsc>
						</rate>
						<start>46254</start>
						<end>47518</end>
						<in>0</in>
						<out>1264</out>
						<file id="file-290">
							<name>julian_1_2021-11-28_1314_C0049.mov</name>
							<pathurl>/Volumes/tiesta/01_Footage/ha dinizulu/Ha Dinizulu 2/julian_1_2021-11-28_1314_C0049.mov</pathurl>
							<rate>
								<timebase>24</timebase>
								<ntsc>TRUE</ntsc>
							</rate>
							<duration>1264</duration>
							<timecode>
								<string>13:14:02:00</string>
								<displayformat>NDF</displayformat>
								<frame>1143408</frame>
								<rate>
									<timebase>24</timebase>
									<ntsc>TRUE</ntsc>
								</rate>
							</timecode>
							<media>
								<video>
									<samplecharacteristics>
										<rate>
											<timebase>24</timebase>
											<ntsc>TRUE</ntsc>
										</rate>
										<width>1920</width>
										<height>1080</height>
										<anamorphic>FALSE</anamorphic>
										<pixelaspectratio>square</pixelaspectratio>
										<fielddominance>none</fielddominance>
									</samplecharacteristics>
								</video>
								<audio>
									<samplecharacteristics>
										<depth>16</depth>
										<samplerate>48000</samplerate>
									</samplecharacteristics>
									<channelcount>2</channelcount>
								</audio>
							</media>
						</file>
						<link>
							<linkclipref>clipitem-S3-V2-28</linkclipref>
							<mediatype>video</mediatype>
							<trackindex>2</trackindex>
							<clipindex>28</clipindex>
						</link>
						<link>
							<linkclipref>clipitem-S3-A3-28</linkclipref>
							<mediatype>audio</mediatype>
							<trackindex>3</trackindex>
							<clipindex>28</clipindex>
							<groupindex>1</groupindex>
						</link>
						<link>
							<linkclipref>clipitem-S3-A4-28</linkclipref>
							<mediatype>audio</mediatype>
							<trackindex>4</trackindex>
							<clipindex>28</clipindex>
							<groupindex>1</groupindex>
						</link>
					</clipitem>
					<enabled>TRUE</enabled>
					<locked>FALSE</locked>
				</track>
			</video>
			<audio>
				<format>
					<samplecharacteristics>
						<depth>16</depth>
						<samplerate>48000</samplerate>
					</samplecharacteristics>
				</format>
				<outputs>
				<group>
					<index>1</index>
						<numchannels>1</numchannels>
						<downmix>0</downmix>
						<channel>
						<index>1</index>
						</channel>
					</group>
					<group>
					<index>2</index>
						<numchannels>1</numchannels>
						<downmix>0</downmix>
						<channel>
						<index>2</index>
						</channel>
					</group>
				</outputs>
				<track currentExplodedTrackIndex="0" totalExplodedTrackCount="2" premiereTrackType="Stereo">
					<clipitem id="clipitem-S3-A1-1" premiereChannelType="stereo">
						<name>wiblo_1_2002-11-01_1409_C0010.mov</name>
						<enabled>TRUE</enabled>
						<duration>42987</duration>
						<rate>
							<timebase>24</timebase>
							<ntsc>TRUE</ntsc>
						</rate>
						<start>6380</start>
						<end>49367</end>
						<in>0</in>
						<out>42987</out>
						<file id="file-262"/>
						<sourcetrack>
							<mediatype>audio</mediatype>
							<trackindex>1</trackindex>
						</sourcetrack>
						<link>
							<linkclipref>clipitem-S3-A1-1</linkclipref>
							<mediatype>audio</mediatype>
							<trackindex>1</trackindex>
							<clipindex>1</clipindex>
							<groupindex>1</groupindex>
						</link>
						<link>
							<linkclipref>clipitem-S3-A2-1</linkclipref>
							<mediatype>audio</mediatype>
							<trackindex>2</trackindex>
							<clipindex>1</clipindex>
							<groupindex>1</groupindex>
						</link>
						<link>
							<linkclipref>clipitem-S3-V1-1</linkclipref>
							<mediatype>video</mediatype>
							<trackindex>1</trackindex>
							<clipindex>1</clipindex>
						</link>
					</clipitem>
					<enabled>TRUE</enabled>
					<locked>FALSE</locked>
					<outputchannelindex>1</outputchannelindex>
				</track>
				<track currentExplodedTrackIndex="1" totalExplodedTrackCount="2" premiereTrackType="Stereo">
					<clipitem id="clipitem-S3-A2-1" premiereChannelType="stereo">
						<name>wiblo_1_2002-11-01_1409_C0010.mov</name>
						<enabled>TRUE</enabled>
						<duration>42987</duration>
						<rate>
							<timebase>24</timebase>
							<ntsc>TRUE</ntsc>
						</rate>
						<start>6380</start>
						<end>49367</end>
						<in>0</in>
						<out>42987</out>
						<file id="file-262"/>
						<sourcetrack>
							<mediatype>audio</mediatype>
							<trackindex>2</trackindex>
						</sourcetrack>
						<link>
							<linkclipref>clipitem-S3-A1-1</linkclipref>
							<mediatype>audio</mediatype>
							<trackindex>1</trackindex>
							<clipindex>1</clipindex>
							<groupindex>1</groupindex>
						</link>
						<link>
							<linkclipref>clipitem-S3-A2-1</linkclipref>
							<mediatype>audio</mediatype>
							<trackindex>2</trackindex>
							<clipindex>1</clipindex>
							<groupindex>1</groupindex>
						</link>
						<link>
							<linkclipref>clipitem-S3-V1-1</linkclipref>
							<mediatype>video</mediatype>
							<trackindex>1</trackindex>
							<clipindex>1</clipindex>
						</link>
					</clipitem>
					<enabled>TRUE</enabled>
					<locked>FALSE</locked>
					<outputchannelindex>2</outputchannelindex>
				</track>
				<track currentExplodedTrackIndex="0" totalExplodedTrackCount="2" premiereTrackType="Stereo">
					<clipitem id="clipitem-S3-A3-1" premiereChannelType="stereo">
						<name>julian_1_2021-11-28_1247_C0022.mov</name>
						<enabled>TRUE</enabled>
						<duration>177</duration>
						<rate>
							<timebase>24</timebase>
							<ntsc>TRUE</ntsc>
						</rate>
						<start>8304</start>
						<end>8481</end>
						<in>0</in>
						<out>177</out>
						<file id="file-263"/>
						<sourcetrack>
							<mediatype>audio</mediatype>
							<trackindex>1</trackindex>
						</sourcetrack>
						<link>
							<linkclipref>clipitem-S3-A3-1</linkclipref>
							<mediatype>audio</mediatype>
							<trackindex>3</trackindex>
							<clipindex>1</clipindex>
							<groupindex>1</groupindex>
						</link>
						<link>
							<linkclipref>clipitem-S3-A4-1</linkclipref>
							<mediatype>audio</mediatype>
							<trackindex>4</trackindex>
							<clipindex>1</clipindex>
							<groupindex>1</groupindex>
						</link>
						<link>
							<linkclipref>clipitem-S3-V2-1</linkclipref>
							<mediatype>video</mediatype>
							<trackindex>2</trackindex>
							<clipindex>1</clipindex>
						</link>
					</clipitem>
					<clipitem id="clipitem-S3-A3-2" premiereChannelType="stereo">
						<name>julian_1_2021-11-28_1248_C0023.mov</name>
						<enabled>TRUE</enabled>
						<duration>133</duration>
						<rate>
							<timebase>24</timebase>
							<ntsc>TRUE</ntsc>
						</rate>
						<start>9766</start>
						<end>9899</end>
						<in>0</in>
						<out>133</out>
						<file id="file-264"/>
						<sourcetrack>
							<mediatype>audio</mediatype>
							<trackindex>1</trackindex>
						</sourcetrack>
						<link>
							<linkclipref>clipitem-S3-A3-2</linkclipref>
							<mediatype>audio</mediatype>
							<trackindex>3</trackindex>
							<clipindex>2</clipindex>
							<groupindex>1</groupindex>
						</link>
						<link>
							<linkclipref>clipitem-S3-A4-2</linkclipref>
							<mediatype>audio</mediatype>
							<trackindex>4</trackindex>
							<clipindex>2</clipindex>
							<groupindex>1</groupindex>
						</link>
						<link>
							<linkclipref>clipitem-S3-V2-2</linkclipref>
							<mediatype>video</mediatype>
							<trackindex>2</trackindex>
							<clipindex>2</clipindex>
						</link>
					</clipitem>
					<clipitem id="clipitem-S3-A3-3" premiereChannelType="stereo">
						<name>julian_1_2021-11-28_1250_C0024.mov</name>
						<enabled>TRUE</enabled>
						<duration>798</duration>
						<rate>
							<timebase>24</timebase>
							<ntsc>TRUE</ntsc>
						</rate>
						<start>12228</start>
						<end>13026</end>
						<in>0</in>
						<out>798</out>
						<file id="file-265"/>
						<sourcetrack>
							<mediatype>audio</mediatype>
							<trackindex>1</trackindex>
						</sourcetrack>
						<link>
							<linkclipref>clipitem-S3-A3-3</linkclipref>
							<mediatype>audio</mediatype>
							<trackindex>3</trackindex>
							<clipindex>3</clipindex>
							<groupindex>1</groupindex>
						</link>
						<link>
							<linkclipref>clipitem-S3-A4-3</linkclipref>
							<mediatype>audio</mediatype>
							<trackindex>4</trackindex>
							<clipindex>3</clipindex>
							<groupindex>1</groupindex>
						</link>
						<link>
							<linkclipref>clipitem-S3-V2-3</linkclipref>
							<mediatype>video</mediatype>
							<trackindex>2</trackindex>
							<clipindex>3</clipindex>
						</link>
					</clipitem>
					<clipitem id="clipitem-S3-A3-4" premiereChannelType="stereo">
						<name>julian_1_2021-11-28_1251_C0025.mov</name>
						<enabled>TRUE</enabled>
						<duration>324</duration>
						<rate>
							<timebase>24</timebase>
							<ntsc>TRUE</ntsc>
						</rate>
						<start>13426</start>
						<end>13750</end>
						<in>0</in>
						<out>324</out>
						<file id="file-266"/>
						<sourcetrack>
							<mediatype>audio</mediatype>
							<trackindex>1</trackindex>
						</sourcetrack>
						<link>
							<linkclipref>clipitem-S3-A3-4</linkclipref>
							<mediatype>audio</mediatype>
							<trackindex>3</trackindex>
							<clipindex>4</clipindex>
							<groupindex>1</groupindex>
						</link>
						<link>
							<linkclipref>clipitem-S3-A4-4</linkclipref>
							<mediatype>audio</mediatype>
							<trackindex>4</trackindex>
							<clipindex>4</clipindex>
							<groupindex>1</groupindex>
						</link>
						<link>
							<linkclipref>clipitem-S3-V2-4</linkclipref>
							<mediatype>video</mediatype>
							<trackindex>2</trackindex>
							<clipindex>4</clipindex>
						</link>
					</clipitem>
					<clipitem id="clipitem-S3-A3-5" premiereChannelType="stereo">
						<name>julian_1_2021-11-28_1251_C0026.mov</name>
						<enabled>TRUE</enabled>
						<duration>622</duration>
						<rate>
							<timebase>24</timebase>
							<ntsc>TRUE</ntsc>
						</rate>
						<start>14472</start>
						<end>15094</end>
						<in>0</in>
						<out>622</out>
						<file id="file-267"/>
						<sourcetrack>
							<mediatype>audio</mediatype>
							<trackindex>1</trackindex>
						</sourcetrack>
						<link>
							<linkclipref>clipitem-S3-A3-5</linkclipref>
							<mediatype>audio</mediatype>
							<trackindex>3</trackindex>
							<clipindex>5</clipindex>
							<groupindex>1</groupindex>
						</link>
						<link>
							<linkclipref>clipitem-S3-A4-5</linkclipref>
							<mediatype>audio</mediatype>
							<trackindex>4</trackindex>
							<clipindex>5</clipindex>
							<groupindex>1</groupindex>
						</link>
						<link>
							<linkclipref>clipitem-S3-V2-5</linkclipref>
							<mediatype>video</mediatype>
							<trackindex>2</trackindex>
							<clipindex>5</clipindex>
						</link>
					</clipitem>
					<clipitem id="clipitem-S3-A3-6" premiereChannelType="stereo">
						<name>julian_1_2021-11-28_1252_C0027.mov</name>
						<enabled>TRUE</enabled>
						<duration>407</duration>
						<rate>
							<timebase>24</timebase>
							<ntsc>TRUE</ntsc>
						</rate>
						<start>15412</start>
						<end>15819</end>
						<in>0</in>
						<out>407</out>
						<file id="file-268"/>
						<sourcetrack>
							<mediatype>audio</mediatype>
							<trackindex>1</trackindex>
						</sourcetrack>
						<link>
							<linkclipref>clipitem-S3-A3-6</linkclipref>
							<mediatype>audio</mediatype>
							<trackindex>3</trackindex>
							<clipindex>6</clipindex>
							<groupindex>1</groupindex>
						</link>
						<link>
							<linkclipref>clipitem-S3-A4-6</linkclipref>
							<mediatype>audio</mediatype>
							<trackindex>4</trackindex>
							<clipindex>6</clipindex>
							<groupindex>1</groupindex>
						</link>
						<link>
							<linkclipref>clipitem-S3-V2-6</linkclipref>
							<mediatype>video</mediatype>
							<trackindex>2</trackindex>
							<clipindex>6</clipindex>
						</link>
					</clipitem>
					<clipitem id="clipitem-S3-A3-7" premiereChannelType="stereo">
						<name>julian_1_2021-11-28_1253_C0028.mov</name>
						<enabled>TRUE</enabled>
						<duration>200</duration>
						<rate>
							<timebase>24</timebase>
							<ntsc>TRUE</ntsc>
						</rate>
						<start>16480</start>
						<end>16680</end>
						<in>0</in>
						<out>200</out>
						<file id="file-269"/>
						<sourcetrack>
							<mediatype>audio</mediatype>
							<trackindex>1</trackindex>
						</sourcetrack>
						<link>
							<linkclipref>clipitem-S3-A3-7</linkclipref>
							<mediatype>audio</mediatype>
							<trackindex>3</trackindex>
							<clipindex>7</clipindex>
							<groupindex>1</groupindex>
						</link>
						<link>
							<linkclipref>clipitem-S3-A4-7</linkclipref>
							<mediatype>audio</mediatype>
							<trackindex>4</trackindex>
							<clipindex>7</clipindex>
							<groupindex>1</groupindex>
						</link>
						<link>
							<linkclipref>clipitem-S3-V2-7</linkclipref>
							<mediatype>video</mediatype>
							<trackindex>2</trackindex>
							<clipindex>7</clipindex>
						</link>
					</clipitem>
					<clipitem id="clipitem-S3-A3-8" premiereChannelType="stereo">
						<name>julian_1_2021-11-28_1253_C0029.mov</name>
						<enabled>TRUE</enabled>
						<duration>78</duration>
						<rate>
							<timebase>24</timebase>
							<ntsc>TRUE</ntsc>
						</rate>
						<start>17305</start>
						<end>17383</end>
						<in>0</in>
						<out>78</out>
						<file id="file-270"/>
						<sourcetrack>
							<mediatype>audio</mediatype>
							<trackindex>1</trackindex>
						</sourcetrack>
						<link>
							<linkclipref>clipitem-S3-A3-8</linkclipref>
							<mediatype>audio</mediatype>
							<trackindex>3</trackindex>
							<clipindex>8</clipindex>
							<groupindex>1</groupindex>
						</link>
						<link>
							<linkclipref>clipitem-S3-A4-8</linkclipref>
							<mediatype>audio</mediatype>
							<trackindex>4</trackindex>
							<clipindex>8</clipindex>
							<groupindex>1</groupindex>
						</link>
						<link>
							<linkclipref>clipitem-S3-V2-8</linkclipref>
							<mediatype>video</mediatype>
							<trackindex>2</trackindex>
							<clipindex>8</clipindex>
						</link>
					</clipitem>
					<clipitem id="clipitem-S3-A3-9" premiereChannelType="stereo">
						<name>julian_1_2021-11-28_1254_C0030.mov</name>
						<enabled>TRUE</enabled>
						<duration>29</duration>
						<rate>
							<timebase>24</timebase>
							<ntsc>TRUE</ntsc>
						</rate>
						<start>17794</start>
						<end>17823</end>
						<in>0</in>
						<out>29</out>
						<file id="file-271"/>
						<sourcetrack>
							<mediatype>audio</mediatype>
							<trackindex>1</trackindex>
						</sourcetrack>
						<link>
							<linkclipref>clipitem-S3-A3-9</linkclipref>
							<mediatype>audio</mediatype>
							<trackindex>3</trackindex>
							<clipindex>9</clipindex>
							<groupindex>1</groupindex>
						</link>
						<link>
							<linkclipref>clipitem-S3-A4-9</linkclipref>
							<mediatype>audio</mediatype>
							<trackindex>4</trackindex>
							<clipindex>9</clipindex>
							<groupindex>1</groupindex>
						</link>
						<link>
							<linkclipref>clipitem-S3-V2-9</linkclipref>
							<mediatype>video</mediatype>
							<trackindex>2</trackindex>
							<clipindex>9</clipindex>
						</link>
						<labels>
							<label2>Rose</label2>
						</labels>
					</clipitem>
					<clipitem id="clipitem-S3-A3-10" premiereChannelType="stereo">
						<name>julian_1_2021-11-28_1254_C0031.mov</name>
						<enabled>TRUE</enabled>
						<duration>148</duration>
						<rate>
							<timebase>24</timebase>
							<ntsc>TRUE</ntsc>
						</rate>
						<start>17962</start>
						<end>18110</end>
						<in>0</in>
						<out>148</out>
						<file id="file-272"/>
						<sourcetrack>
							<mediatype>audio</mediatype>
							<trackindex>1</trackindex>
						</sourcetrack>
						<link>
							<linkclipref>clipitem-S3-A3-10</linkclipref>
							<mediatype>audio</mediatype>
							<trackindex>3</trackindex>
							<clipindex>10</clipindex>
							<groupindex>1</groupindex>
						</link>
						<link>
							<linkclipref>clipitem-S3-A4-10</linkclipref>
							<mediatype>audio</mediatype>
							<trackindex>4</trackindex>
							<clipindex>10</clipindex>
							<groupindex>1</groupindex>
						</link>
						<link>
							<linkclipref>clipitem-S3-V2-10</linkclipref>
							<mediatype>video</mediatype>
							<trackindex>2</trackindex>
							<clipindex>10</clipindex>
						</link>
					</clipitem>
					<clipitem id="clipitem-S3-A3-11" premiereChannelType="stereo">
						<name>julian_1_2021-11-28_1255_C0032.mov</name>
						<enabled>TRUE</enabled>
						<duration>187</duration>
						<rate>
							<timebase>24</timebase>
							<ntsc>TRUE</ntsc>
						</rate>
						<start>19771</start>
						<end>19958</end>
						<in>0</in>
						<out>187</out>
						<file id="file-273"/>
						<sourcetrack>
							<mediatype>audio</mediatype>
							<trackindex>1</trackindex>
						</sourcetrack>
						<link>
							<linkclipref>clipitem-S3-A3-11</linkclipref>
							<mediatype>audio</mediatype>
							<trackindex>3</trackindex>
							<clipindex>11</clipindex>
							<groupindex>1</groupindex>
						</link>
						<link>
							<linkclipref>clipitem-S3-A4-11</linkclipref>
							<mediatype>audio</mediatype>
							<trackindex>4</trackindex>
							<clipindex>11</clipindex>
							<groupindex>1</groupindex>
						</link>
						<link>
							<linkclipref>clipitem-S3-V2-11</linkclipref>
							<mediatype>video</mediatype>
							<trackindex>2</trackindex>
							<clipindex>11</clipindex>
						</link>
					</clipitem>
					<clipitem id="clipitem-S3-A3-12" premiereChannelType="stereo">
						<name>julian_1_2021-11-28_1256_C0033.mov</name>
						<enabled>TRUE</enabled>
						<duration>551</duration>
						<rate>
							<timebase>24</timebase>
							<ntsc>TRUE</ntsc>
						</rate>
						<start>21236</start>
						<end>21787</end>
						<in>0</in>
						<out>551</out>
						<file id="file-274"/>
						<sourcetrack>
							<mediatype>audio</mediatype>
							<trackindex>1</trackindex>
						</sourcetrack>
						<link>
							<linkclipref>clipitem-S3-A3-12</linkclipref>
							<mediatype>audio</mediatype>
							<trackindex>3</trackindex>
							<clipindex>12</clipindex>
							<groupindex>1</groupindex>
						</link>
						<link>
							<linkclipref>clipitem-S3-A4-12</linkclipref>
							<mediatype>audio</mediatype>
							<trackindex>4</trackindex>
							<clipindex>12</clipindex>
							<groupindex>1</groupindex>
						</link>
						<link>
							<linkclipref>clipitem-S3-V2-12</linkclipref>
							<mediatype>video</mediatype>
							<trackindex>2</trackindex>
							<clipindex>12</clipindex>
						</link>
					</clipitem>
					<clipitem id="clipitem-S3-A3-13" premiereChannelType="stereo">
						<name>julian_1_2021-11-28_1257_C0034.mov</name>
						<enabled>TRUE</enabled>
						<duration>700</duration>
						<rate>
							<timebase>24</timebase>
							<ntsc>TRUE</ntsc>
						</rate>
						<start>22271</start>
						<end>22971</end>
						<in>0</in>
						<out>700</out>
						<file id="file-275"/>
						<sourcetrack>
							<mediatype>audio</mediatype>
							<trackindex>1</trackindex>
						</sourcetrack>
						<link>
							<linkclipref>clipitem-S3-A3-13</linkclipref>
							<mediatype>audio</mediatype>
							<trackindex>3</trackindex>
							<clipindex>13</clipindex>
							<groupindex>1</groupindex>
						</link>
						<link>
							<linkclipref>clipitem-S3-A4-13</linkclipref>
							<mediatype>audio</mediatype>
							<trackindex>4</trackindex>
							<clipindex>13</clipindex>
							<groupindex>1</groupindex>
						</link>
						<link>
							<linkclipref>clipitem-S3-V2-13</linkclipref>
							<mediatype>video</mediatype>
							<trackindex>2</trackindex>
							<clipindex>13</clipindex>
						</link>
					</clipitem>
					<clipitem id="clipitem-S3-A3-14" premiereChannelType="stereo">
						<name>julian_1_2021-11-28_1259_C0035.mov</name>
						<enabled>TRUE</enabled>
						<duration>360</duration>
						<rate>
							<timebase>24</timebase>
							<ntsc>TRUE</ntsc>
						</rate>
						<start>24936</start>
						<end>25296</end>
						<in>0</in>
						<out>360</out>
						<file id="file-276"/>
						<sourcetrack>
							<mediatype>audio</mediatype>
							<trackindex>1</trackindex>
						</sourcetrack>
						<link>
							<linkclipref>clipitem-S3-A3-14</linkclipref>
							<mediatype>audio</mediatype>
							<trackindex>3</trackindex>
							<clipindex>14</clipindex>
							<groupindex>1</groupindex>
						</link>
						<link>
							<linkclipref>clipitem-S3-A4-14</linkclipref>
							<mediatype>audio</mediatype>
							<trackindex>4</trackindex>
							<clipindex>14</clipindex>
							<groupindex>1</groupindex>
						</link>
						<link>
							<linkclipref>clipitem-S3-V2-14</linkclipref>
							<mediatype>video</mediatype>
							<trackindex>2</trackindex>
							<clipindex>14</clipindex>
						</link>
					</clipitem>
					<clipitem id="clipitem-S3-A3-15" premiereChannelType="stereo">
						<name>julian_1_2021-11-28_1259_C0036.mov</name>
						<enabled>TRUE</enabled>
						<duration>2111</duration>
						<rate>
							<timebase>24</timebase>
							<ntsc>TRUE</ntsc>
						</rate>
						<start>25849</start>
						<end>27960</end>
						<in>0</in>
						<out>2111</out>
						<file id="file-277"/>
						<sourcetrack>
							<mediatype>audio</mediatype>
							<trackindex>1</trackindex>
						</sourcetrack>
						<link>
							<linkclipref>clipitem-S3-A3-15</linkclipref>
							<mediatype>audio</mediatype>
							<trackindex>3</trackindex>
							<clipindex>15</clipindex>
							<groupindex>1</groupindex>
						</link>
						<link>
							<linkclipref>clipitem-S3-A4-15</linkclipref>
							<mediatype>audio</mediatype>
							<trackindex>4</trackindex>
							<clipindex>15</clipindex>
							<groupindex>1</groupindex>
						</link>
						<link>
							<linkclipref>clipitem-S3-V2-15</linkclipref>
							<mediatype>video</mediatype>
							<trackindex>2</trackindex>
							<clipindex>15</clipindex>
						</link>
					</clipitem>
					<clipitem id="clipitem-S3-A3-16" premiereChannelType="stereo">
						<name>julian_1_2021-11-28_1301_C0037.mov</name>
						<enabled>TRUE</enabled>
						<duration>507</duration>
						<rate>
							<timebase>24</timebase>
							<ntsc>TRUE</ntsc>
						</rate>
						<start>28740</start>
						<end>29247</end>
						<in>0</in>
						<out>507</out>
						<file id="file-278"/>
						<sourcetrack>
							<mediatype>audio</mediatype>
							<trackindex>1</trackindex>
						</sourcetrack>
						<link>
							<linkclipref>clipitem-S3-A3-16</linkclipref>
							<mediatype>audio</mediatype>
							<trackindex>3</trackindex>
							<clipindex>16</clipindex>
							<groupindex>1</groupindex>
						</link>
						<link>
							<linkclipref>clipitem-S3-A4-16</linkclipref>
							<mediatype>audio</mediatype>
							<trackindex>4</trackindex>
							<clipindex>16</clipindex>
							<groupindex>1</groupindex>
						</link>
						<link>
							<linkclipref>clipitem-S3-V2-16</linkclipref>
							<mediatype>video</mediatype>
							<trackindex>2</trackindex>
							<clipindex>16</clipindex>
						</link>
					</clipitem>
					<clipitem id="clipitem-S3-A3-17" premiereChannelType="stereo">
						<name>julian_1_2021-11-28_1302_C0038.mov</name>
						<enabled>TRUE</enabled>
						<duration>489</duration>
						<rate>
							<timebase>24</timebase>
							<ntsc>TRUE</ntsc>
						</rate>
						<start>29643</start>
						<end>30132</end>
						<in>0</in>
						<out>489</out>
						<file id="file-279"/>
						<sourcetrack>
							<mediatype>audio</mediatype>
							<trackindex>1</trackindex>
						</sourcetrack>
						<link>
							<linkclipref>clipitem-S3-A3-17</linkclipref>
							<mediatype>audio</mediatype>
							<trackindex>3</trackindex>
							<clipindex>17</clipindex>
							<groupindex>1</groupindex>
						</link>
						<link>
							<linkclipref>clipitem-S3-A4-17</linkclipref>
							<mediatype>audio</mediatype>
							<trackindex>4</trackindex>
							<clipindex>17</clipindex>
							<groupindex>1</groupindex>
						</link>
						<link>
							<linkclipref>clipitem-S3-V2-17</linkclipref>
							<mediatype>video</mediatype>
							<trackindex>2</trackindex>
							<clipindex>17</clipindex>
						</link>
					</clipitem>
					<clipitem id="clipitem-S3-A3-18" premiereChannelType="stereo">
						<name>julian_1_2021-11-28_1303_C0039.mov</name>
						<enabled>TRUE</enabled>
						<duration>652</duration>
						<rate>
							<timebase>24</timebase>
							<ntsc>TRUE</ntsc>
						</rate>
						<start>30614</start>
						<end>31266</end>
						<in>0</in>
						<out>652</out>
						<file id="file-280"/>
						<sourcetrack>
							<mediatype>audio</mediatype>
							<trackindex>1</trackindex>
						</sourcetrack>
						<link>
							<linkclipref>clipitem-S3-A3-18</linkclipref>
							<mediatype>audio</mediatype>
							<trackindex>3</trackindex>
							<clipindex>18</clipindex>
							<groupindex>1</groupindex>
						</link>
						<link>
							<linkclipref>clipitem-S3-A4-18</linkclipref>
							<mediatype>audio</mediatype>
							<trackindex>4</trackindex>
							<clipindex>18</clipindex>
							<groupindex>1</groupindex>
						</link>
						<link>
							<linkclipref>clipitem-S3-V2-18</linkclipref>
							<mediatype>video</mediatype>
							<trackindex>2</trackindex>
							<clipindex>18</clipindex>
						</link>
					</clipitem>
					<clipitem id="clipitem-S3-A3-19" premiereChannelType="stereo">
						<name>julian_1_2021-11-28_1303_C0040.mov</name>
						<enabled>TRUE</enabled>
						<duration>429</duration>
						<rate>
							<timebase>24</timebase>
							<ntsc>TRUE</ntsc>
						</rate>
						<start>31638</start>
						<end>32067</end>
						<in>0</in>
						<out>429</out>
						<file id="file-281"/>
						<sourcetrack>
							<mediatype>audio</mediatype>
							<trackindex>1</trackindex>
						</sourcetrack>
						<link>
							<linkclipref>clipitem-S3-A3-19</linkclipref>
							<mediatype>audio</mediatype>
							<trackindex>3</trackindex>
							<clipindex>19</clipindex>
							<groupindex>1</groupindex>
						</link>
						<link>
							<linkclipref>clipitem-S3-A4-19</linkclipref>
							<mediatype>audio</mediatype>
							<trackindex>4</trackindex>
							<clipindex>19</clipindex>
							<groupindex>1</groupindex>
						</link>
						<link>
							<linkclipref>clipitem-S3-V2-19</linkclipref>
							<mediatype>video</mediatype>
							<trackindex>2</trackindex>
							<clipindex>19</clipindex>
						</link>
					</clipitem>
					<clipitem id="clipitem-S3-A3-20" premiereChannelType="stereo">
						<name>julian_1_2021-11-28_1304_C0041.mov</name>
						<enabled>TRUE</enabled>
						<duration>337</duration>
						<rate>
							<timebase>24</timebase>
							<ntsc>TRUE</ntsc>
						</rate>
						<start>32716</start>
						<end>33053</end>
						<in>0</in>
						<out>337</out>
						<file id="file-282"/>
						<sourcetrack>
							<mediatype>audio</mediatype>
							<trackindex>1</trackindex>
						</sourcetrack>
						<link>
							<linkclipref>clipitem-S3-A3-20</linkclipref>
							<mediatype>audio</mediatype>
							<trackindex>3</trackindex>
							<clipindex>20</clipindex>
							<groupindex>1</groupindex>
						</link>
						<link>
							<linkclipref>clipitem-S3-A4-20</linkclipref>
							<mediatype>audio</mediatype>
							<trackindex>4</trackindex>
							<clipindex>20</clipindex>
							<groupindex>1</groupindex>
						</link>
						<link>
							<linkclipref>clipitem-S3-V2-20</linkclipref>
							<mediatype>video</mediatype>
							<trackindex>2</trackindex>
							<clipindex>20</clipindex>
						</link>
					</clipitem>
					<clipitem id="clipitem-S3-A3-21" premiereChannelType="stereo">
						<name>julian_1_2021-11-28_1305_C0042.mov</name>
						<enabled>TRUE</enabled>
						<duration>691</duration>
						<rate>
							<timebase>24</timebase>
							<ntsc>TRUE</ntsc>
						</rate>
						<start>33351</start>
						<end>34042</end>
						<in>0</in>
						<out>691</out>
						<file id="file-283"/>
						<sourcetrack>
							<mediatype>audio</mediatype>
							<trackindex>1</trackindex>
						</sourcetrack>
						<link>
							<linkclipref>clipitem-S3-A3-21</linkclipref>
							<mediatype>audio</mediatype>
							<trackindex>3</trackindex>
							<clipindex>21</clipindex>
							<groupindex>1</groupindex>
						</link>
						<link>
							<linkclipref>clipitem-S3-A4-21</linkclipref>
							<mediatype>audio</mediatype>
							<trackindex>4</trackindex>
							<clipindex>21</clipindex>
							<groupindex>1</groupindex>
						</link>
						<link>
							<linkclipref>clipitem-S3-V2-21</linkclipref>
							<mediatype>video</mediatype>
							<trackindex>2</trackindex>
							<clipindex>21</clipindex>
						</link>
					</clipitem>
					<clipitem id="clipitem-S3-A3-22" premiereChannelType="stereo">
						<name>julian_1_2021-11-28_1305_C0043.mov</name>
						<enabled>TRUE</enabled>
						<duration>923</duration>
						<rate>
							<timebase>24</timebase>
							<ntsc>TRUE</ntsc>
						</rate>
						<start>34269</start>
						<end>35192</end>
						<in>0</in>
						<out>923</out>
						<file id="file-284"/>
						<sourcetrack>
							<mediatype>audio</mediatype>
							<trackindex>1</trackindex>
						</sourcetrack>
						<link>
							<linkclipref>clipitem-S3-A3-22</linkclipref>
							<mediatype>audio</mediatype>
							<trackindex>3</trackindex>
							<clipindex>22</clipindex>
							<groupindex>1</groupindex>
						</link>
						<link>
							<linkclipref>clipitem-S3-A4-22</linkclipref>
							<mediatype>audio</mediatype>
							<trackindex>4</trackindex>
							<clipindex>22</clipindex>
							<groupindex>1</groupindex>
						</link>
						<link>
							<linkclipref>clipitem-S3-V2-22</linkclipref>
							<mediatype>video</mediatype>
							<trackindex>2</trackindex>
							<clipindex>22</clipindex>
						</link>
					</clipitem>
					<clipitem id="clipitem-S3-A3-23" premiereChannelType="stereo">
						<name>julian_1_2021-11-28_1306_C0044.mov</name>
						<enabled>TRUE</enabled>
						<duration>1044</duration>
						<rate>
							<timebase>24</timebase>
							<ntsc>TRUE</ntsc>
						</rate>
						<start>35360</start>
						<end>36404</end>
						<in>0</in>
						<out>1044</out>
						<file id="file-285"/>
						<sourcetrack>
							<mediatype>audio</mediatype>
							<trackindex>1</trackindex>
						</sourcetrack>
						<link>
							<linkclipref>clipitem-S3-A3-23</linkclipref>
							<mediatype>audio</mediatype>
							<trackindex>3</trackindex>
							<clipindex>23</clipindex>
							<groupindex>1</groupindex>
						</link>
						<link>
							<linkclipref>clipitem-S3-A4-23</linkclipref>
							<mediatype>audio</mediatype>
							<trackindex>4</trackindex>
							<clipindex>23</clipindex>
							<groupindex>1</groupindex>
						</link>
						<link>
							<linkclipref>clipitem-S3-V2-23</linkclipref>
							<mediatype>video</mediatype>
							<trackindex>2</trackindex>
							<clipindex>23</clipindex>
						</link>
					</clipitem>
					<clipitem id="clipitem-S3-A3-24" premiereChannelType="stereo">
						<name>julian_1_2021-11-28_1307_C0045.mov</name>
						<enabled>TRUE</enabled>
						<duration>1047</duration>
						<rate>
							<timebase>24</timebase>
							<ntsc>TRUE</ntsc>
						</rate>
						<start>36685</start>
						<end>37732</end>
						<in>0</in>
						<out>1047</out>
						<file id="file-286"/>
						<sourcetrack>
							<mediatype>audio</mediatype>
							<trackindex>1</trackindex>
						</sourcetrack>
						<link>
							<linkclipref>clipitem-S3-A3-24</linkclipref>
							<mediatype>audio</mediatype>
							<trackindex>3</trackindex>
							<clipindex>24</clipindex>
							<groupindex>1</groupindex>
						</link>
						<link>
							<linkclipref>clipitem-S3-A4-24</linkclipref>
							<mediatype>audio</mediatype>
							<trackindex>4</trackindex>
							<clipindex>24</clipindex>
							<groupindex>1</groupindex>
						</link>
						<link>
							<linkclipref>clipitem-S3-V2-24</linkclipref>
							<mediatype>video</mediatype>
							<trackindex>2</trackindex>
							<clipindex>24</clipindex>
						</link>
					</clipitem>
					<clipitem id="clipitem-S3-A3-25" premiereChannelType="stereo">
						<name>julian_1_2021-11-28_1308_C0046.mov</name>
						<enabled>TRUE</enabled>
						<duration>387</duration>
						<rate>
							<timebase>24</timebase>
							<ntsc>TRUE</ntsc>
						</rate>
						<start>38236</start>
						<end>38623</end>
						<in>0</in>
						<out>387</out>
						<file id="file-287"/>
						<sourcetrack>
							<mediatype>audio</mediatype>
							<trackindex>1</trackindex>
						</sourcetrack>
						<link>
							<linkclipref>clipitem-S3-A3-25</linkclipref>
							<mediatype>audio</mediatype>
							<trackindex>3</trackindex>
							<clipindex>25</clipindex>
							<groupindex>1</groupindex>
						</link>
						<link>
							<linkclipref>clipitem-S3-A4-25</linkclipref>
							<mediatype>audio</mediatype>
							<trackindex>4</trackindex>
							<clipindex>25</clipindex>
							<groupindex>1</groupindex>
						</link>
						<link>
							<linkclipref>clipitem-S3-V2-25</linkclipref>
							<mediatype>video</mediatype>
							<trackindex>2</trackindex>
							<clipindex>25</clipindex>
						</link>
					</clipitem>
					<clipitem id="clipitem-S3-A3-26" premiereChannelType="stereo">
						<name>julian_1_2021-11-28_1309_C0047.mov</name>
						<enabled>TRUE</enabled>
						<duration>757</duration>
						<rate>
							<timebase>24</timebase>
							<ntsc>TRUE</ntsc>
						</rate>
						<start>39740</start>
						<end>40497</end>
						<in>0</in>
						<out>757</out>
						<file id="file-288"/>
						<sourcetrack>
							<mediatype>audio</mediatype>
							<trackindex>1</trackindex>
						</sourcetrack>
						<link>
							<linkclipref>clipitem-S3-A3-26</linkclipref>
							<mediatype>audio</mediatype>
							<trackindex>3</trackindex>
							<clipindex>26</clipindex>
							<groupindex>1</groupindex>
						</link>
						<link>
							<linkclipref>clipitem-S3-A4-26</linkclipref>
							<mediatype>audio</mediatype>
							<trackindex>4</trackindex>
							<clipindex>26</clipindex>
							<groupindex>1</groupindex>
						</link>
						<link>
							<linkclipref>clipitem-S3-V2-26</linkclipref>
							<mediatype>video</mediatype>
							<trackindex>2</trackindex>
							<clipindex>26</clipindex>
						</link>
					</clipitem>
					<clipitem id="clipitem-S3-A3-27" premiereChannelType="stereo">
						<name>julian_1_2021-11-28_1312_C0048.mov</name>
						<enabled>TRUE</enabled>
						<duration>1154</duration>
						<rate>
							<timebase>24</timebase>
							<ntsc>TRUE</ntsc>
						</rate>
						<start>44445</start>
						<end>45599</end>
						<in>0</in>
						<out>1154</out>
						<file id="file-289"/>
						<sourcetrack>
							<mediatype>audio</mediatype>
							<trackindex>1</trackindex>
						</sourcetrack>
						<link>
							<linkclipref>clipitem-S3-A3-27</linkclipref>
							<mediatype>audio</mediatype>
							<trackindex>3</trackindex>
							<clipindex>27</clipindex>
							<groupindex>1</groupindex>
						</link>
						<link>
							<linkclipref>clipitem-S3-A4-27</linkclipref>
							<mediatype>audio</mediatype>
							<trackindex>4</trackindex>
							<clipindex>27</clipindex>
							<groupindex>1</groupindex>
						</link>
						<link>
							<linkclipref>clipitem-S3-V2-27</linkclipref>
							<mediatype>video</mediatype>
							<trackindex>2</trackindex>
							<clipindex>27</clipindex>
						</link>
					</clipitem>
					<clipitem id="clipitem-S3-A3-28" premiereChannelType="stereo">
						<name>julian_1_2021-11-28_1314_C0049.mov</name>
						<enabled>TRUE</enabled>
						<duration>1264</duration>
						<rate>
							<timebase>24</timebase>
							<ntsc>TRUE</ntsc>
						</rate>
						<start>46254</start>
						<end>47518</end>
						<in>0</in>
						<out>1264</out>
						<file id="file-290"/>
						<sourcetrack>
							<mediatype>audio</mediatype>
							<trackindex>1</trackindex>
						</sourcetrack>
						<link>
							<linkclipref>clipitem-S3-A3-28</linkclipref>
							<mediatype>audio</mediatype>
							<trackindex>3</trackindex>
							<clipindex>28</clipindex>
							<groupindex>1</groupindex>
						</link>
						<link>
							<linkclipref>clipitem-S3-A4-28</linkclipref>
							<mediatype>audio</mediatype>
							<trackindex>4</trackindex>
							<clipindex>28</clipindex>
							<groupindex>1</groupindex>
						</link>
						<link>
							<linkclipref>clipitem-S3-V2-28</linkclipref>
							<mediatype>video</mediatype>
							<trackindex>2</trackindex>
							<clipindex>28</clipindex>
						</link>
					</clipitem>
					<enabled>TRUE</enabled>
					<locked>FALSE</locked>
					<outputchannelindex>1</outputchannelindex>
				</track>
				<track currentExplodedTrackIndex="1" totalExplodedTrackCount="2" premiereTrackType="Stereo">
					<clipitem id="clipitem-S3-A4-1" premiereChannelType="stereo">
						<name>julian_1_2021-11-28_1247_C0022.mov</name>
						<enabled>TRUE</enabled>
						<duration>177</duration>
						<rate>
							<timebase>24</timebase>
							<ntsc>TRUE</ntsc>
						</rate>
						<start>8304</start>
						<end>8481</end>
						<in>0</in>
						<out>177</out>
						<file id="file-263"/>
						<sourcetrack>
							<mediatype>audio</mediatype>
							<trackindex>2</trackindex>
						</sourcetrack>
						<link>
							<linkclipref>clipitem-S3-A3-1</linkclipref>
							<mediatype>audio</mediatype>
							<trackindex>3</trackindex>
							<clipindex>1</clipindex>
							<groupindex>1</groupindex>
						</link>
						<link>
							<linkclipref>clipitem-S3-A4-1</linkclipref>
							<mediatype>audio</mediatype>
							<trackindex>4</trackindex>
							<clipindex>1</clipindex>
							<groupindex>1</groupindex>
						</link>
						<link>
							<linkclipref>clipitem-S3-V2-1</linkclipref>
							<mediatype>video</mediatype>
							<trackindex>2</trackindex>
							<clipindex>1</clipindex>
						</link>
					</clipitem>
					<clipitem id="clipitem-S3-A4-2" premiereChannelType="stereo">
						<name>julian_1_2021-11-28_1248_C0023.mov</name>
						<enabled>TRUE</enabled>
						<duration>133</duration>
						<rate>
							<timebase>24</timebase>
							<ntsc>TRUE</ntsc>
						</rate>
						<start>9766</start>
						<end>9899</end>
						<in>0</in>
						<out>133</out>
						<file id="file-264"/>
						<sourcetrack>
							<mediatype>audio</mediatype>
							<trackindex>2</trackindex>
						</sourcetrack>
						<link>
							<linkclipref>clipitem-S3-A3-2</linkclipref>
							<mediatype>audio</mediatype>
							<trackindex>3</trackindex>
							<clipindex>2</clipindex>
							<groupindex>1</groupindex>
						</link>
						<link>
							<linkclipref>clipitem-S3-A4-2</linkclipref>
							<mediatype>audio</mediatype>
							<trackindex>4</trackindex>
							<clipindex>2</clipindex>
							<groupindex>1</groupindex>
						</link>
						<link>
							<linkclipref>clipitem-S3-V2-2</linkclipref>
							<mediatype>video</mediatype>
							<trackindex>2</trackindex>
							<clipindex>2</clipindex>
						</link>
					</clipitem>
					<clipitem id="clipitem-S3-A4-3" premiereChannelType="stereo">
						<name>julian_1_2021-11-28_1250_C0024.mov</name>
						<enabled>TRUE</enabled>
						<duration>798</duration>
						<rate>
							<timebase>24</timebase>
							<ntsc>TRUE</ntsc>
						</rate>
						<start>12228</start>
						<end>13026</end>
						<in>0</in>
						<out>798</out>
						<file id="file-265"/>
						<sourcetrack>
							<mediatype>audio</mediatype>
							<trackindex>2</trackindex>
						</sourcetrack>
						<link>
							<linkclipref>clipitem-S3-A3-3</linkclipref>
							<mediatype>audio</mediatype>
							<trackindex>3</trackindex>
							<clipindex>3</clipindex>
							<groupindex>1</groupindex>
						</link>
						<link>
							<linkclipref>clipitem-S3-A4-3</linkclipref>
							<mediatype>audio</mediatype>
							<trackindex>4</trackindex>
							<clipindex>3</clipindex>
							<groupindex>1</groupindex>
						</link>
						<link>
							<linkclipref>clipitem-S3-V2-3</linkclipref>
							<mediatype>video</mediatype>
							<trackindex>2</trackindex>
							<clipindex>3</clipindex>
						</link>
					</clipitem>
					<clipitem id="clipitem-S3-A4-4" premiereChannelType="stereo">
						<name>julian_1_2021-11-28_1251_C0025.mov</name>
						<enabled>TRUE</enabled>
						<duration>324</duration>
						<rate>
							<timebase>24</timebase>
							<ntsc>TRUE</ntsc>
						</rate>
						<start>13426</start>
						<end>13750</end>
						<in>0</in>
						<out>324</out>
						<file id="file-266"/>
						<sourcetrack>
							<mediatype>audio</mediatype>
							<trackindex>2</trackindex>
						</sourcetrack>
						<link>
							<linkclipref>clipitem-S3-A3-4</linkclipref>
							<mediatype>audio</mediatype>
							<trackindex>3</trackindex>
							<clipindex>4</clipindex>
							<groupindex>1</groupindex>
						</link>
						<link>
							<linkclipref>clipitem-S3-A4-4</linkclipref>
							<mediatype>audio</mediatype>
							<trackindex>4</trackindex>
							<clipindex>4</clipindex>
							<groupindex>1</groupindex>
						</link>
						<link>
							<linkclipref>clipitem-S3-V2-4</linkclipref>
							<mediatype>video</mediatype>
							<trackindex>2</trackindex>
							<clipindex>4</clipindex>
						</link>
					</clipitem>
					<clipitem id="clipitem-S3-A4-5" premiereChannelType="stereo">
						<name>julian_1_2021-11-28_1251_C0026.mov</name>
						<enabled>TRUE</enabled>
						<duration>622</duration>
						<rate>
							<timebase>24</timebase>
							<ntsc>TRUE</ntsc>
						</rate>
						<start>14472</start>
						<end>15094</end>
						<in>0</in>
						<out>622</out>
						<file id="file-267"/>
						<sourcetrack>
							<mediatype>audio</mediatype>
							<trackindex>2</trackindex>
						</sourcetrack>
						<link>
							<linkclipref>clipitem-S3-A3-5</linkclipref>
							<mediatype>audio</mediatype>
							<trackindex>3</trackindex>
							<clipindex>5</clipindex>
							<groupindex>1</groupindex>
						</link>
						<link>
							<linkclipref>clipitem-S3-A4-5</linkclipref>
							<mediatype>audio</mediatype>
							<trackindex>4</trackindex>
							<clipindex>5</clipindex>
							<groupindex>1</groupindex>
						</link>
						<link>
							<linkclipref>clipitem-S3-V2-5</linkclipref>
							<mediatype>video</mediatype>
							<trackindex>2</trackindex>
							<clipindex>5</clipindex>
						</link>
					</clipitem>
					<clipitem id="clipitem-S3-A4-6" premiereChannelType="stereo">
						<name>julian_1_2021-11-28_1252_C0027.mov</name>
						<enabled>TRUE</enabled>
						<duration>407</duration>
						<rate>
							<timebase>24</timebase>
							<ntsc>TRUE</ntsc>
						</rate>
						<start>15412</start>
						<end>15819</end>
						<in>0</in>
						<out>407</out>
						<file id="file-268"/>
						<sourcetrack>
							<mediatype>audio</mediatype>
							<trackindex>2</trackindex>
						</sourcetrack>
						<link>
							<linkclipref>clipitem-S3-A3-6</linkclipref>
							<mediatype>audio</mediatype>
							<trackindex>3</trackindex>
							<clipindex>6</clipindex>
							<groupindex>1</groupindex>
						</link>
						<link>
							<linkclipref>clipitem-S3-A4-6</linkclipref>
							<mediatype>audio</mediatype>
							<trackindex>4</trackindex>
							<clipindex>6</clipindex>
							<groupindex>1</groupindex>
						</link>
						<link>
							<linkclipref>clipitem-S3-V2-6</linkclipref>
							<mediatype>video</mediatype>
							<trackindex>2</trackindex>
							<clipindex>6</clipindex>
						</link>
					</clipitem>
					<clipitem id="clipitem-S3-A4-7" premiereChannelType="stereo">
						<name>julian_1_2021-11-28_1253_C0028.mov</name>
						<enabled>TRUE</enabled>
						<duration>200</duration>
						<rate>
							<timebase>24</timebase>
							<ntsc>TRUE</ntsc>
						</rate>
						<start>16480</start>
						<end>16680</end>
						<in>0</in>
						<out>200</out>
						<file id="file-269"/>
						<sourcetrack>
							<mediatype>audio</mediatype>
							<trackindex>2</trackindex>
						</sourcetrack>
						<link>
							<linkclipref>clipitem-S3-A3-7</linkclipref>
							<mediatype>audio</mediatype>
							<trackindex>3</trackindex>
							<clipindex>7</clipindex>
							<groupindex>1</groupindex>
						</link>
						<link>
							<linkclipref>clipitem-S3-A4-7</linkclipref>
							<mediatype>audio</mediatype>
							<trackindex>4</trackindex>
							<clipindex>7</clipindex>
							<groupindex>1</groupindex>
						</link>
						<link>
							<linkclipref>clipitem-S3-V2-7</linkclipref>
							<mediatype>video</mediatype>
							<trackindex>2</trackindex>
							<clipindex>7</clipindex>
						</link>
					</clipitem>
					<clipitem id="clipitem-S3-A4-8" premiereChannelType="stereo">
						<name>julian_1_2021-11-28_1253_C0029.mov</name>
						<enabled>TRUE</enabled>
						<duration>78</duration>
						<rate>
							<timebase>24</timebase>
							<ntsc>TRUE</ntsc>
						</rate>
						<start>17305</start>
						<end>17383</end>
						<in>0</in>
						<out>78</out>
						<file id="file-270"/>
						<sourcetrack>
							<mediatype>audio</mediatype>
							<trackindex>2</trackindex>
						</sourcetrack>
						<link>
							<linkclipref>clipitem-S3-A3-8</linkclipref>
							<mediatype>audio</mediatype>
							<trackindex>3</trackindex>
							<clipindex>8</clipindex>
							<groupindex>1</groupindex>
						</link>
						<link>
							<linkclipref>clipitem-S3-A4-8</linkclipref>
							<mediatype>audio</mediatype>
							<trackindex>4</trackindex>
							<clipindex>8</clipindex>
							<groupindex>1</groupindex>
						</link>
						<link>
							<linkclipref>clipitem-S3-V2-8</linkclipref>
							<mediatype>video</mediatype>
							<trackindex>2</trackindex>
							<clipindex>8</clipindex>
						</link>
					</clipitem>
					<clipitem id="clipitem-S3-A4-9" premiereChannelType="stereo">
						<name>julian_1_2021-11-28_1254_C0030.mov</name>
						<enabled>TRUE</enabled>
						<duration>29</duration>
						<rate>
							<timebase>24</timebase>
							<ntsc>TRUE</ntsc>
						</rate>
						<start>17794</start>
						<end>17823</end>
						<in>0</in>
						<out>29</out>
						<file id="file-271"/>
						<sourcetrack>
							<mediatype>audio</mediatype>
							<trackindex>2</trackindex>
						</sourcetrack>
						<link>
							<linkclipref>clipitem-S3-A3-9</linkclipref>
							<mediatype>audio</mediatype>
							<trackindex>3</trackindex>
							<clipindex>9</clipindex>
							<groupindex>1</groupindex>
						</link>
						<link>
							<linkclipref>clipitem-S3-A4-9</linkclipref>
							<mediatype>audio</mediatype>
							<trackindex>4</trackindex>
							<clipindex>9</clipindex>
							<groupindex>1</groupindex>
						</link>
						<link>
							<linkclipref>clipitem-S3-V2-9</linkclipref>
							<mediatype>video</mediatype>
							<trackindex>2</trackindex>
							<clipindex>9</clipindex>
						</link>
						<labels>
							<label2>Rose</label2>
						</labels>
					</clipitem>
					<clipitem id="clipitem-S3-A4-10" premiereChannelType="stereo">
						<name>julian_1_2021-11-28_1254_C0031.mov</name>
						<enabled>TRUE</enabled>
						<duration>148</duration>
						<rate>
							<timebase>24</timebase>
							<ntsc>TRUE</ntsc>
						</rate>
						<start>17962</start>
						<end>18110</end>
						<in>0</in>
						<out>148</out>
						<file id="file-272"/>
						<sourcetrack>
							<mediatype>audio</mediatype>
							<trackindex>2</trackindex>
						</sourcetrack>
						<link>
							<linkclipref>clipitem-S3-A3-10</linkclipref>
							<mediatype>audio</mediatype>
							<trackindex>3</trackindex>
							<clipindex>10</clipindex>
							<groupindex>1</groupindex>
						</link>
						<link>
							<linkclipref>clipitem-S3-A4-10</linkclipref>
							<mediatype>audio</mediatype>
							<trackindex>4</trackindex>
							<clipindex>10</clipindex>
							<groupindex>1</groupindex>
						</link>
						<link>
							<linkclipref>clipitem-S3-V2-10</linkclipref>
							<mediatype>video</mediatype>
							<trackindex>2</trackindex>
							<clipindex>10</clipindex>
						</link>
					</clipitem>
					<clipitem id="clipitem-S3-A4-11" premiereChannelType="stereo">
						<name>julian_1_2021-11-28_1255_C0032.mov</name>
						<enabled>TRUE</enabled>
						<duration>187</duration>
						<rate>
							<timebase>24</timebase>
							<ntsc>TRUE</ntsc>
						</rate>
						<start>19771</start>
						<end>19958</end>
						<in>0</in>
						<out>187</out>
						<file id="file-273"/>
						<sourcetrack>
							<mediatype>audio</mediatype>
							<trackindex>2</trackindex>
						</sourcetrack>
						<link>
							<linkclipref>clipitem-S3-A3-11</linkclipref>
							<mediatype>audio</mediatype>
							<trackindex>3</trackindex>
							<clipindex>11</clipindex>
							<groupindex>1</groupindex>
						</link>
						<link>
							<linkclipref>clipitem-S3-A4-11</linkclipref>
							<mediatype>audio</mediatype>
							<trackindex>4</trackindex>
							<clipindex>11</clipindex>
							<groupindex>1</groupindex>
						</link>
						<link>
							<linkclipref>clipitem-S3-V2-11</linkclipref>
							<mediatype>video</mediatype>
							<trackindex>2</trackindex>
							<clipindex>11</clipindex>
						</link>
					</clipitem>
					<clipitem id="clipitem-S3-A4-12" premiereChannelType="stereo">
						<name>julian_1_2021-11-28_1256_C0033.mov</name>
						<enabled>TRUE</enabled>
						<duration>551</duration>
						<rate>
							<timebase>24</timebase>
							<ntsc>TRUE</ntsc>
						</rate>
						<start>21236</start>
						<end>21787</end>
						<in>0</in>
						<out>551</out>
						<file id="file-274"/>
						<sourcetrack>
							<mediatype>audio</mediatype>
							<trackindex>2</trackindex>
						</sourcetrack>
						<link>
							<linkclipref>clipitem-S3-A3-12</linkclipref>
							<mediatype>audio</mediatype>
							<trackindex>3</trackindex>
							<clipindex>12</clipindex>
							<groupindex>1</groupindex>
						</link>
						<link>
							<linkclipref>clipitem-S3-A4-12</linkclipref>
							<mediatype>audio</mediatype>
							<trackindex>4</trackindex>
							<clipindex>12</clipindex>
							<groupindex>1</groupindex>
						</link>
						<link>
							<linkclipref>clipitem-S3-V2-12</linkclipref>
							<mediatype>video</mediatype>
							<trackindex>2</trackindex>
							<clipindex>12</clipindex>
						</link>
					</clipitem>
					<clipitem id="clipitem-S3-A4-13" premiereChannelType="stereo">
						<name>julian_1_2021-11-28_1257_C0034.mov</name>
						<enabled>TRUE</enabled>
						<duration>700</duration>
						<rate>
							<timebase>24</timebase>
							<ntsc>TRUE</ntsc>
						</rate>
						<start>22271</start>
						<end>22971</end>
						<in>0</in>
						<out>700</out>
						<file id="file-275"/>
						<sourcetrack>
							<mediatype>audio</mediatype>
							<trackindex>2</trackindex>
						</sourcetrack>
						<link>
							<linkclipref>clipitem-S3-A3-13</linkclipref>
							<mediatype>audio</mediatype>
							<trackindex>3</trackindex>
							<clipindex>13</clipindex>
							<groupindex>1</groupindex>
						</link>
						<link>
							<linkclipref>clipitem-S3-A4-13</linkclipref>
							<mediatype>audio</mediatype>
							<trackindex>4</trackindex>
							<clipindex>13</clipindex>
							<groupindex>1</groupindex>
						</link>
						<link>
							<linkclipref>clipitem-S3-V2-13</linkclipref>
							<mediatype>video</mediatype>
							<trackindex>2</trackindex>
							<clipindex>13</clipindex>
						</link>
					</clipitem>
					<clipitem id="clipitem-S3-A4-14" premiereChannelType="stereo">
						<name>julian_1_2021-11-28_1259_C0035.mov</name>
						<enabled>TRUE</enabled>
						<duration>360</duration>
						<rate>
							<timebase>24</timebase>
							<ntsc>TRUE</ntsc>
						</rate>
						<start>24936</start>
						<end>25296</end>
						<in>0</in>
						<out>360</out>
						<file id="file-276"/>
						<sourcetrack>
							<mediatype>audio</mediatype>
							<trackindex>2</trackindex>
						</sourcetrack>
						<link>
							<linkclipref>clipitem-S3-A3-14</linkclipref>
							<mediatype>audio</mediatype>
							<trackindex>3</trackindex>
							<clipindex>14</clipindex>
							<groupindex>1</groupindex>
						</link>
						<link>
							<linkclipref>clipitem-S3-A4-14</linkclipref>
							<mediatype>audio</mediatype>
							<trackindex>4</trackindex>
							<clipindex>14</clipindex>
							<groupindex>1</groupindex>
						</link>
						<link>
							<linkclipref>clipitem-S3-V2-14</linkclipref>
							<mediatype>video</mediatype>
							<trackindex>2</trackindex>
							<clipindex>14</clipindex>
						</link>
					</clipitem>
					<clipitem id="clipitem-S3-A4-15" premiereChannelType="stereo">
						<name>julian_1_2021-11-28_1259_C0036.mov</name>
						<enabled>TRUE</enabled>
						<duration>2111</duration>
						<rate>
							<timebase>24</timebase>
							<ntsc>TRUE</ntsc>
						</rate>
						<start>25849</start>
						<end>27960</end>
						<in>0</in>
						<out>2111</out>
						<file id="file-277"/>
						<sourcetrack>
							<mediatype>audio</mediatype>
							<trackindex>2</trackindex>
						</sourcetrack>
						<link>
							<linkclipref>clipitem-S3-A3-15</linkclipref>
							<mediatype>audio</mediatype>
							<trackindex>3</trackindex>
							<clipindex>15</clipindex>
							<groupindex>1</groupindex>
						</link>
						<link>
							<linkclipref>clipitem-S3-A4-15</linkclipref>
							<mediatype>audio</mediatype>
							<trackindex>4</trackindex>
							<clipindex>15</clipindex>
							<groupindex>1</groupindex>
						</link>
						<link>
							<linkclipref>clipitem-S3-V2-15</linkclipref>
							<mediatype>video</mediatype>
							<trackindex>2</trackindex>
							<clipindex>15</clipindex>
						</link>
					</clipitem>
					<clipitem id="clipitem-S3-A4-16" premiereChannelType="stereo">
						<name>julian_1_2021-11-28_1301_C0037.mov</name>
						<enabled>TRUE</enabled>
						<duration>507</duration>
						<rate>
							<timebase>24</timebase>
							<ntsc>TRUE</ntsc>
						</rate>
						<start>28740</start>
						<end>29247</end>
						<in>0</in>
						<out>507</out>
						<file id="file-278"/>
						<sourcetrack>
							<mediatype>audio</mediatype>
							<trackindex>2</trackindex>
						</sourcetrack>
						<link>
							<linkclipref>clipitem-S3-A3-16</linkclipref>
							<mediatype>audio</mediatype>
							<trackindex>3</trackindex>
							<clipindex>16</clipindex>
							<groupindex>1</groupindex>
						</link>
						<link>
							<linkclipref>clipitem-S3-A4-16</linkclipref>
							<mediatype>audio</mediatype>
							<trackindex>4</trackindex>
							<clipindex>16</clipindex>
							<groupindex>1</groupindex>
						</link>
						<link>
							<linkclipref>clipitem-S3-V2-16</linkclipref>
							<mediatype>video</mediatype>
							<trackindex>2</trackindex>
							<clipindex>16</clipindex>
						</link>
					</clipitem>
					<clipitem id="clipitem-S3-A4-17" premiereChannelType="stereo">
						<name>julian_1_2021-11-28_1302_C0038.mov</name>
						<enabled>TRUE</enabled>
						<duration>489</duration>
						<rate>
							<timebase>24</timebase>
							<ntsc>TRUE</ntsc>
						</rate>
						<start>29643</start>
						<end>30132</end>
						<in>0</in>
						<out>489</out>
						<file id="file-279"/>
						<sourcetrack>
							<mediatype>audio</mediatype>
							<trackindex>2</trackindex>
						</sourcetrack>
						<link>
							<linkclipref>clipitem-S3-A3-17</linkclipref>
							<mediatype>audio</mediatype>
							<trackindex>3</trackindex>
							<clipindex>17</clipindex>
							<groupindex>1</groupindex>
						</link>
						<link>
							<linkclipref>clipitem-S3-A4-17</linkclipref>
							<mediatype>audio</mediatype>
							<trackindex>4</trackindex>
							<clipindex>17</clipindex>
							<groupindex>1</groupindex>
						</link>
						<link>
							<linkclipref>clipitem-S3-V2-17</linkclipref>
							<mediatype>video</mediatype>
							<trackindex>2</trackindex>
							<clipindex>17</clipindex>
						</link>
					</clipitem>
					<clipitem id="clipitem-S3-A4-18" premiereChannelType="stereo">
						<name>julian_1_2021-11-28_1303_C0039.mov</name>
						<enabled>TRUE</enabled>
						<duration>652</duration>
						<rate>
							<timebase>24</timebase>
							<ntsc>TRUE</ntsc>
						</rate>
						<start>30614</start>
						<end>31266</end>
						<in>0</in>
						<out>652</out>
						<file id="file-280"/>
						<sourcetrack>
							<mediatype>audio</mediatype>
							<trackindex>2</trackindex>
						</sourcetrack>
						<link>
							<linkclipref>clipitem-S3-A3-18</linkclipref>
							<mediatype>audio</mediatype>
							<trackindex>3</trackindex>
							<clipindex>18</clipindex>
							<groupindex>1</groupindex>
						</link>
						<link>
							<linkclipref>clipitem-S3-A4-18</linkclipref>
							<mediatype>audio</mediatype>
							<trackindex>4</trackindex>
							<clipindex>18</clipindex>
							<groupindex>1</groupindex>
						</link>
						<link>
							<linkclipref>clipitem-S3-V2-18</linkclipref>
							<mediatype>video</mediatype>
							<trackindex>2</trackindex>
							<clipindex>18</clipindex>
						</link>
					</clipitem>
					<clipitem id="clipitem-S3-A4-19" premiereChannelType="stereo">
						<name>julian_1_2021-11-28_1303_C0040.mov</name>
						<enabled>TRUE</enabled>
						<duration>429</duration>
						<rate>
							<timebase>24</timebase>
							<ntsc>TRUE</ntsc>
						</rate>
						<start>31638</start>
						<end>32067</end>
						<in>0</in>
						<out>429</out>
						<file id="file-281"/>
						<sourcetrack>
							<mediatype>audio</mediatype>
							<trackindex>2</trackindex>
						</sourcetrack>
						<link>
							<linkclipref>clipitem-S3-A3-19</linkclipref>
							<mediatype>audio</mediatype>
							<trackindex>3</trackindex>
							<clipindex>19</clipindex>
							<groupindex>1</groupindex>
						</link>
						<link>
							<linkclipref>clipitem-S3-A4-19</linkclipref>
							<mediatype>audio</mediatype>
							<trackindex>4</trackindex>
							<clipindex>19</clipindex>
							<groupindex>1</groupindex>
						</link>
						<link>
							<linkclipref>clipitem-S3-V2-19</linkclipref>
							<mediatype>video</mediatype>
							<trackindex>2</trackindex>
							<clipindex>19</clipindex>
						</link>
					</clipitem>
					<clipitem id="clipitem-S3-A4-20" premiereChannelType="stereo">
						<name>julian_1_2021-11-28_1304_C0041.mov</name>
						<enabled>TRUE</enabled>
						<duration>337</duration>
						<rate>
							<timebase>24</timebase>
							<ntsc>TRUE</ntsc>
						</rate>
						<start>32716</start>
						<end>33053</end>
						<in>0</in>
						<out>337</out>
						<file id="file-282"/>
						<sourcetrack>
							<mediatype>audio</mediatype>
							<trackindex>2</trackindex>
						</sourcetrack>
						<link>
							<linkclipref>clipitem-S3-A3-20</linkclipref>
							<mediatype>audio</mediatype>
							<trackindex>3</trackindex>
							<clipindex>20</clipindex>
							<groupindex>1</groupindex>
						</link>
						<link>
							<linkclipref>clipitem-S3-A4-20</linkclipref>
							<mediatype>audio</mediatype>
							<trackindex>4</trackindex>
							<clipindex>20</clipindex>
							<groupindex>1</groupindex>
						</link>
						<link>
							<linkclipref>clipitem-S3-V2-20</linkclipref>
							<mediatype>video</mediatype>
							<trackindex>2</trackindex>
							<clipindex>20</clipindex>
						</link>
					</clipitem>
					<clipitem id="clipitem-S3-A4-21" premiereChannelType="stereo">
						<name>julian_1_2021-11-28_1305_C0042.mov</name>
						<enabled>TRUE</enabled>
						<duration>691</duration>
						<rate>
							<timebase>24</timebase>
							<ntsc>TRUE</ntsc>
						</rate>
						<start>33351</start>
						<end>34042</end>
						<in>0</in>
						<out>691</out>
						<file id="file-283"/>
						<sourcetrack>
							<mediatype>audio</mediatype>
							<trackindex>2</trackindex>
						</sourcetrack>
						<link>
							<linkclipref>clipitem-S3-A3-21</linkclipref>
							<mediatype>audio</mediatype>
							<trackindex>3</trackindex>
							<clipindex>21</clipindex>
							<groupindex>1</groupindex>
						</link>
						<link>
							<linkclipref>clipitem-S3-A4-21</linkclipref>
							<mediatype>audio</mediatype>
							<trackindex>4</trackindex>
							<clipindex>21</clipindex>
							<groupindex>1</groupindex>
						</link>
						<link>
							<linkclipref>clipitem-S3-V2-21</linkclipref>
							<mediatype>video</mediatype>
							<trackindex>2</trackindex>
							<clipindex>21</clipindex>
						</link>
					</clipitem>
					<clipitem id="clipitem-S3-A4-22" premiereChannelType="stereo">
						<name>julian_1_2021-11-28_1305_C0043.mov</name>
						<enabled>TRUE</enabled>
						<duration>923</duration>
						<rate>
							<timebase>24</timebase>
							<ntsc>TRUE</ntsc>
						</rate>
						<start>34269</start>
						<end>35192</end>
						<in>0</in>
						<out>923</out>
						<file id="file-284"/>
						<sourcetrack>
							<mediatype>audio</mediatype>
							<trackindex>2</trackindex>
						</sourcetrack>
						<link>
							<linkclipref>clipitem-S3-A3-22</linkclipref>
							<mediatype>audio</mediatype>
							<trackindex>3</trackindex>
							<clipindex>22</clipindex>
							<groupindex>1</groupindex>
						</link>
						<link>
							<linkclipref>clipitem-S3-A4-22</linkclipref>
							<mediatype>audio</mediatype>
							<trackindex>4</trackindex>
							<clipindex>22</clipindex>
							<groupindex>1</groupindex>
						</link>
						<link>
							<linkclipref>clipitem-S3-V2-22</linkclipref>
							<mediatype>video</mediatype>
							<trackindex>2</trackindex>
							<clipindex>22</clipindex>
						</link>
					</clipitem>
					<clipitem id="clipitem-S3-A4-23" premiereChannelType="stereo">
						<name>julian_1_2021-11-28_1306_C0044.mov</name>
						<enabled>TRUE</enabled>
						<duration>1044</duration>
						<rate>
							<timebase>24</timebase>
							<ntsc>TRUE</ntsc>
						</rate>
						<start>35360</start>
						<end>36404</end>
						<in>0</in>
						<out>1044</out>
						<file id="file-285"/>
						<sourcetrack>
							<mediatype>audio</mediatype>
							<trackindex>2</trackindex>
						</sourcetrack>
						<link>
							<linkclipref>clipitem-S3-A3-23</linkclipref>
							<mediatype>audio</mediatype>
							<trackindex>3</trackindex>
							<clipindex>23</clipindex>
							<groupindex>1</groupindex>
						</link>
						<link>
							<linkclipref>clipitem-S3-A4-23</linkclipref>
							<mediatype>audio</mediatype>
							<trackindex>4</trackindex>
							<clipindex>23</clipindex>
							<groupindex>1</groupindex>
						</link>
						<link>
							<linkclipref>clipitem-S3-V2-23</linkclipref>
							<mediatype>video</mediatype>
							<trackindex>2</trackindex>
							<clipindex>23</clipindex>
						</link>
					</clipitem>
					<clipitem id="clipitem-S3-A4-24" premiereChannelType="stereo">
						<name>julian_1_2021-11-28_1307_C0045.mov</name>
						<enabled>TRUE</enabled>
						<duration>1047</duration>
						<rate>
							<timebase>24</timebase>
							<ntsc>TRUE</ntsc>
						</rate>
						<start>36685</start>
						<end>37732</end>
						<in>0</in>
						<out>1047</out>
						<file id="file-286"/>
						<sourcetrack>
							<mediatype>audio</mediatype>
							<trackindex>2</trackindex>
						</sourcetrack>
						<link>
							<linkclipref>clipitem-S3-A3-24</linkclipref>
							<mediatype>audio</mediatype>
							<trackindex>3</trackindex>
							<clipindex>24</clipindex>
							<groupindex>1</groupindex>
						</link>
						<link>
							<linkclipref>clipitem-S3-A4-24</linkclipref>
							<mediatype>audio</mediatype>
							<trackindex>4</trackindex>
							<clipindex>24</clipindex>
							<groupindex>1</groupindex>
						</link>
						<link>
							<linkclipref>clipitem-S3-V2-24</linkclipref>
							<mediatype>video</mediatype>
							<trackindex>2</trackindex>
							<clipindex>24</clipindex>
						</link>
					</clipitem>
					<clipitem id="clipitem-S3-A4-25" premiereChannelType="stereo">
						<name>julian_1_2021-11-28_1308_C0046.mov</name>
						<enabled>TRUE</enabled>
						<duration>387</duration>
						<rate>
							<timebase>24</timebase>
							<ntsc>TRUE</ntsc>
						</rate>
						<start>38236</start>
						<end>38623</end>
						<in>0</in>
						<out>387</out>
						<file id="file-287"/>
						<sourcetrack>
							<mediatype>audio</mediatype>
							<trackindex>2</trackindex>
						</sourcetrack>
						<link>
							<linkclipref>clipitem-S3-A3-25</linkclipref>
							<mediatype>audio</mediatype>
							<trackindex>3</trackindex>
							<clipindex>25</clipindex>
							<groupindex>1</groupindex>
						</link>
						<link>
							<linkclipref>clipitem-S3-A4-25</linkclipref>
							<mediatype>audio</mediatype>
							<trackindex>4</trackindex>
							<clipindex>25</clipindex>
							<groupindex>1</groupindex>
						</link>
						<link>
							<linkclipref>clipitem-S3-V2-25</linkclipref>
							<mediatype>video</mediatype>
							<trackindex>2</trackindex>
							<clipindex>25</clipindex>
						</link>
					</clipitem>
					<clipitem id="clipitem-S3-A4-26" premiereChannelType="stereo">
						<name>julian_1_2021-11-28_1309_C0047.mov</name>
						<enabled>TRUE</enabled>
						<duration>757</duration>
						<rate>
							<timebase>24</timebase>
							<ntsc>TRUE</ntsc>
						</rate>
						<start>39740</start>
						<end>40497</end>
						<in>0</in>
						<out>757</out>
						<file id="file-288"/>
						<sourcetrack>
							<mediatype>audio</mediatype>
							<trackindex>2</trackindex>
						</sourcetrack>
						<link>
							<linkclipref>clipitem-S3-A3-26</linkclipref>
							<mediatype>audio</mediatype>
							<trackindex>3</trackindex>
							<clipindex>26</clipindex>
							<groupindex>1</groupindex>
						</link>
						<link>
							<linkclipref>clipitem-S3-A4-26</linkclipref>
							<mediatype>audio</mediatype>
							<trackindex>4</trackindex>
							<clipindex>26</clipindex>
							<groupindex>1</groupindex>
						</link>
						<link>
							<linkclipref>clipitem-S3-V2-26</linkclipref>
							<mediatype>video</mediatype>
							<trackindex>2</trackindex>
							<clipindex>26</clipindex>
						</link>
					</clipitem>
					<clipitem id="clipitem-S3-A4-27" premiereChannelType="stereo">
						<name>julian_1_2021-11-28_1312_C0048.mov</name>
						<enabled>TRUE</enabled>
						<duration>1154</duration>
						<rate>
							<timebase>24</timebase>
							<ntsc>TRUE</ntsc>
						</rate>
						<start>44445</start>
						<end>45599</end>
						<in>0</in>
						<out>1154</out>
						<file id="file-289"/>
						<sourcetrack>
							<mediatype>audio</mediatype>
							<trackindex>2</trackindex>
						</sourcetrack>
						<link>
							<linkclipref>clipitem-S3-A3-27</linkclipref>
							<mediatype>audio</mediatype>
							<trackindex>3</trackindex>
							<clipindex>27</clipindex>
							<groupindex>1</groupindex>
						</link>
						<link>
							<linkclipref>clipitem-S3-A4-27</linkclipref>
							<mediatype>audio</mediatype>
							<trackindex>4</trackindex>
							<clipindex>27</clipindex>
							<groupindex>1</groupindex>
						</link>
						<link>
							<linkclipref>clipitem-S3-V2-27</linkclipref>
							<mediatype>video</mediatype>
							<trackindex>2</trackindex>
							<clipindex>27</clipindex>
						</link>
					</clipitem>
					<clipitem id="clipitem-S3-A4-28" premiereChannelType="stereo">
						<name>julian_1_2021-11-28_1314_C0049.mov</name>
						<enabled>TRUE</enabled>
						<duration>1264</duration>
						<rate>
							<timebase>24</timebase>
							<ntsc>TRUE</ntsc>
						</rate>
						<start>46254</start>
						<end>47518</end>
						<in>0</in>
						<out>1264</out>
						<file id="file-290"/>
						<sourcetrack>
							<mediatype>audio</mediatype>
							<trackindex>2</trackindex>
						</sourcetrack>
						<link>
							<linkclipref>clipitem-S3-A3-28</linkclipref>
							<mediatype>audio</mediatype>
							<trackindex>3</trackindex>
							<clipindex>28</clipindex>
							<groupindex>1</groupindex>
						</link>
						<link>
							<linkclipref>clipitem-S3-A4-28</linkclipref>
							<mediatype>audio</mediatype>
							<trackindex>4</trackindex>
							<clipindex>28</clipindex>
							<groupindex>1</groupindex>
						</link>
						<link>
							<linkclipref>clipitem-S3-V2-28</linkclipref>
							<mediatype>video</mediatype>
							<trackindex>2</trackindex>
							<clipindex>28</clipindex>
						</link>
					</clipitem>
					<enabled>TRUE</enabled>
					<locked>FALSE</locked>
					<outputchannelindex>2</outputchannelindex>
				</track>
				<track currentExplodedTrackIndex="0" totalExplodedTrackCount="2" premiereTrackType="Stereo">
					<clipitem id="clipitem-S3-A5-1" premiereChannelType="stereo">
						<name>Grandma Interview.WAV</name>
						<enabled>TRUE</enabled>
						<duration>50074</duration>
						<rate>
							<timebase>24</timebase>
							<ntsc>TRUE</ntsc>
						</rate>
						<start>0</start>
						<end>50074</end>
						<in>0</in>
						<out>50074</out>
						<file id="file-291">
							<name>Grandma Interview.WAV</name>
							<pathurl>/Volumes/tiesta/03_Audio/Ha Dinizulu/ha dinizulu 2/Grandma Interview.WAV</pathurl>
							<rate>
								<timebase>24</timebase>
								<ntsc>TRUE</ntsc>
							</rate>
							<duration>50074</duration>
							<timecode>
								<string>16:43:56:18</string>
								<displayformat>NDF</displayformat>
								<frame>1445682</frame>
								<rate>
									<timebase>24</timebase>
									<ntsc>TRUE</ntsc>
								</rate>
							</timecode>
							<media>
								<audio>
									<samplecharacteristics>
										<depth>16</depth>
										<samplerate>48000</samplerate>
									</samplecharacteristics>
									<channelcount>2</channelcount>
								</audio>
							</media>
						</file>
						<sourcetrack>
							<mediatype>audio</mediatype>
							<trackindex>1</trackindex>
						</sourcetrack>
						<link>
							<linkclipref>clipitem-S3-A5-1</linkclipref>
							<mediatype>audio</mediatype>
							<trackindex>5</trackindex>
							<clipindex>1</clipindex>
							<groupindex>1</groupindex>
						</link>
						<link>
							<linkclipref>clipitem-S3-A6-1</linkclipref>
							<mediatype>audio</mediatype>
							<trackindex>6</trackindex>
							<clipindex>1</clipindex>
							<groupindex>1</groupindex>
						</link>
						<labels>
							<label2>Caribbean</label2>
						</labels>
					</clipitem>
					<enabled>TRUE</enabled>
					<locked>FALSE</locked>
					<outputchannelindex>1</outputchannelindex>
				</track>
				<track currentExplodedTrackIndex="1" totalExplodedTrackCount="2" premiereTrackType="Stereo">
					<clipitem id="clipitem-S3-A6-1" premiereChannelType="stereo">
						<name>Grandma Interview.WAV</name>
						<enabled>TRUE</enabled>
						<duration>50074</duration>
						<rate>
							<timebase>24</timebase>
							<ntsc>TRUE</ntsc>
						</rate>
						<start>0</start>
						<end>50074</end>
						<in>0</in>
						<out>50074</out>
						<file id="file-291"/>
						<sourcetrack>
							<mediatype>audio</mediatype>
							<trackindex>2</trackindex>
						</sourcetrack>
						<link>
							<linkclipref>clipitem-S3-A5-1</linkclipref>
							<mediatype>audio</mediatype>
							<trackindex>5</trackindex>
							<clipindex>1</clipindex>
							<groupindex>1</groupindex>
						</link>
						<link>
							<linkclipref>clipitem-S3-A6-1</linkclipref>
							<mediatype>audio</mediatype>
							<trackindex>6</trackindex>
							<clipindex>1</clipindex>
							<groupindex>1</groupindex>
						</link>
						<labels>
							<label2>Caribbean</label2>
						</labels>
					</clipitem>
					<enabled>TRUE</enabled>
					<locked>FALSE</locked>
					<outputchannelindex>2</outputchannelindex>
				</track>
			</audio>
		</media>
	</sequence>
</xmeml>
