<?xml version="1.0" encoding="UTF-8"?>
<!DOCTYPE xmeml>
<xmeml version="4">
	<sequence MZ.EditLine="534253087368000" MZ.Sequence.AudioTimeDisplayFormat="200" MZ.Sequence.EditingModeGUID="35d109db-457b-43c1-9452-9cb7be9f121c" MZ.Sequence.PreviewFrameSizeHeight="1080" MZ.Sequence.PreviewFrameSizeWidth="1920" MZ.Sequence.PreviewRenderingClassID="1297106761" MZ.Sequence.PreviewRenderingPresetCodec="1297107278" MZ.Sequence.PreviewRenderingPresetPath="EncoderPresets/SequencePreview/35d109db-457b-43c1-9452-9cb7be9f121c/I-Frame Only MPEG.epr" MZ.Sequence.PreviewUseMaxBitDepth="false" MZ.Sequence.PreviewUseMaxRenderQuality="false" MZ.Sequence.VideoTimeDisplayFormat="110" MZ.WorkInPoint="0" MZ.WorkOutPoint="15235011792000" Monitor.ProgramZoomIn="256929256584000" Monitor.ProgramZoomOut="528807471192000" TL.SQAVDividerPosition="0.5" TL.SQAudioVisibleBase="0" TL.SQHeaderWidth="236" TL.SQHideShyTracks="0" TL.SQTimePerPixel="2.7993612125956853" TL.SQVideoVisibleBase="0" TL.SQVisibleBaseTime="0" explodedTracks="true" id="sequence-18">
		<rate>
			<timebase>24</timebase>
			<ntsc>TRUE</ntsc>
		</rate>
		<name>ross - synced</name>
		<duration>49830</duration>
		<media>
			<video>
				<format>
					<samplecharacteristics>
						<rate>
							<timebase>24</timebase>
							<ntsc>TRUE</ntsc>
						</rate>
						<codec>
						<name>Apple ProRes 422</name>
							<appspecificdata>
							<appname>Final Cut Pro</appname>
								<appmanufacturer>Apple Inc.</appmanufacturer>
								<appversion>7.0</appversion>
								<data>
								<qtcodec>
									<codecname>Apple ProRes 422</codecname>
										<codectypename>Apple ProRes 422</codectypename>
										<codectypecode>apcn</codectypecode>
										<codecvendorcode>appl</codecvendorcode>
										<spatialquality>1024</spatialquality>
										<temporalquality>0</temporalquality>
										<keyframerate>0</keyframerate>
										<datarate>0</datarate>
									</qtcodec>
								</data>
							</appspecificdata>
						</codec>
						<width>1920</width>
						<height>1080</height>
						<anamorphic>FALSE</anamorphic>
						<pixelaspectratio>square</pixelaspectratio>
						<fielddominance>none</fielddominance>
					</samplecharacteristics>
				</format>
				<track>
					<clipitem id="clipitem-S3-V1-1">
						<name>wiblo_1_2002-09-23_2048_C0001.mov</name>
						<enabled>TRUE</enabled>
						<duration>38602</duration>
						<rate>
							<timebase>24</timebase>
							<ntsc>TRUE</ntsc>
						</rate>
						<start>10943</start>
						<end>49545</end>
						<in>0</in>
						<out>38602</out>
						<file id="file-403">
							<name>wiblo_1_2002-09-23_2048_C0001.mov</name>
							<pathurl>/Volumes/tiesta/01_Footage/blantyre/wiblo_1_2002-09-23_2048_C0001.mov</pathurl>
							<rate>
								<timebase>24</timebase>
								<ntsc>TRUE</ntsc>
							</rate>
							<duration>38602</duration>
							<timecode>
								<string>20:48:23:00</string>
								<displayformat>NDF</displayformat>
								<frame>1797672</frame>
								<rate>
									<timebase>24</timebase>
									<ntsc>TRUE</ntsc>
								</rate>
							</timecode>
							<media>
								<video>
									<samplecharacteristics>
										<rate>
											<timebase>24</timebase>
											<ntsc>TRUE</ntsc>
										</rate>
										<width>1920</width>
										<height>1080</height>
										<anamorphic>FALSE</anamorphic>
										<pixelaspectratio>square</pixelaspectratio>
										<fielddominance>none</fielddominance>
									</samplecharacteristics>
								</video>
								<audio>
									<samplecharacteristics>
										<depth>16</depth>
										<samplerate>48000</samplerate>
									</samplecharacteristics>
									<channelcount>2</channelcount>
								</audio>
							</media>
						</file>
						<link>
							<linkclipref>clipitem-S3-V1-1</linkclipref>
							<mediatype>video</mediatype>
							<trackindex>1</trackindex>
							<clipindex>1</clipindex>
						</link>
						<link>
							<linkclipref>clipitem-S3-A1-1</linkclipref>
							<mediatype>audio</mediatype>
							<trackindex>1</trackindex>
							<clipindex>1</clipindex>
							<groupindex>1</groupindex>
						</link>
						<link>
							<linkclipref>clipitem-S3-A2-1</linkclipref>
							<mediatype>audio</mediatype>
							<trackindex>2</trackindex>
							<clipindex>1</clipindex>
							<groupindex>1</groupindex>
						</link>
					</clipitem>
					<enabled>TRUE</enabled>
					<locked>FALSE</locked>
				</track>
				<track>
					<clipitem id="clipitem-S3-V2-1">
						<name>julian_1_2021-11-06_1350_C0000.mov</name>
						<enabled>TRUE</enabled>
						<duration>3794</duration>
						<rate>
							<timebase>24</timebase>
							<ntsc>TRUE</ntsc>
						</rate>
						<start>12474</start>
						<end>16268</end>
						<in>0</in>
						<out>3794</out>
						<file id="file-404">
							<name>julian_1_2021-11-06_1350_C0000.mov</name>
							<pathurl>/Volumes/tiesta/01_Footage/blantyre/julian_1_2021-11-06_1350_C0000.mov</pathurl>
							<rate>
								<timebase>24</timebase>
								<ntsc>TRUE</ntsc>
							</rate>
							<duration>3794</duration>
							<timecode>
								<string>13:50:18:00</string>
								<displayformat>NDF</displayformat>
								<frame>1195632</frame>
								<rate>
									<timebase>24</timebase>
									<ntsc>TRUE</ntsc>
								</rate>
							</timecode>
							<media>
								<video>
									<samplecharacteristics>
										<rate>
											<timebase>24</timebase>
											<ntsc>TRUE</ntsc>
										</rate>
										<width>1920</width>
										<height>1080</height>
										<anamorphic>FALSE</anamorphic>
										<pixelaspectratio>square</pixelaspectratio>
										<fielddominance>none</fielddominance>
									</samplecharacteristics>
								</video>
								<audio>
									<samplecharacteristics>
										<depth>16</depth>
										<samplerate>48000</samplerate>
									</samplecharacteristics>
									<channelcount>2</channelcount>
								</audio>
							</media>
						</file>
						<link>
							<linkclipref>clipitem-S3-V2-1</linkclipref>
							<mediatype>video</mediatype>
							<trackindex>2</trackindex>
							<clipindex>1</clipindex>
						</link>
						<link>
							<linkclipref>clipitem-S3-A3-1</linkclipref>
							<mediatype>audio</mediatype>
							<trackindex>3</trackindex>
							<clipindex>1</clipindex>
							<groupindex>1</groupindex>
						</link>
						<link>
							<linkclipref>clipitem-S3-A4-1</linkclipref>
							<mediatype>audio</mediatype>
							<trackindex>4</trackindex>
							<clipindex>1</clipindex>
							<groupindex>1</groupindex>
						</link>
						<labels>
							<label2>Iris</label2>
						</labels>
					</clipitem>
					<clipitem id="clipitem-S3-V2-2">
						<name>julian_1_2021-11-06_1353_C0001.mov</name>
						<enabled>TRUE</enabled>
						<duration>1885</duration>
						<rate>
							<timebase>24</timebase>
							<ntsc>TRUE</ntsc>
						</rate>
						<start>16488</start>
						<end>18373</end>
						<in>0</in>
						<out>1885</out>
						<file id="file-405">
							<name>julian_1_2021-11-06_1353_C0001.mov</name>
							<pathurl>/Volumes/tiesta/01_Footage/blantyre/julian_1_2021-11-06_1353_C0001.mov</pathurl>
							<rate>
								<timebase>24</timebase>
								<ntsc>TRUE</ntsc>
							</rate>
							<duration>1885</duration>
							<timecode>
								<string>13:53:06:00</string>
								<displayformat>NDF</displayformat>
								<frame>1199664</frame>
								<rate>
									<timebase>24</timebase>
									<ntsc>TRUE</ntsc>
								</rate>
							</timecode>
							<media>
								<video>
									<samplecharacteristics>
										<rate>
											<timebase>24</timebase>
											<ntsc>TRUE</ntsc>
										</rate>
										<width>1920</width>
										<height>1080</height>
										<anamorphic>FALSE</anamorphic>
										<pixelaspectratio>square</pixelaspectratio>
										<fielddominance>none</fielddominance>
									</samplecharacteristics>
								</video>
								<audio>
									<samplecharacteristics>
										<depth>16</depth>
										<samplerate>48000</samplerate>
									</samplecharacteristics>
									<channelcount>2</channelcount>
								</audio>
							</media>
						</file>
						<link>
							<linkclipref>clipitem-S3-V2-2</linkclipref>
							<mediatype>video</mediatype>
							<trackindex>2</trackindex>
							<clipindex>2</clipindex>
						</link>
						<link>
							<linkclipref>clipitem-S3-A3-2</linkclipref>
							<mediatype>audio</mediatype>
							<trackindex>3</trackindex>
							<clipindex>2</clipindex>
							<groupindex>1</groupindex>
						</link>
						<link>
							<linkclipref>clipitem-S3-A4-2</linkclipref>
							<mediatype>audio</mediatype>
							<trackindex>4</trackindex>
							<clipindex>2</clipindex>
							<groupindex>1</groupindex>
						</link>
						<labels>
							<label2>Iris</label2>
						</labels>
					</clipitem>
					<clipitem id="clipitem-S3-V2-3">
						<name>julian_1_2021-11-06_1354_C0002.mov</name>
						<enabled>TRUE</enabled>
						<duration>1730</duration>
						<rate>
							<timebase>24</timebase>
							<ntsc>TRUE</ntsc>
						</rate>
						<start>18561</start>
						<end>20291</end>
						<in>0</in>
						<out>1730</out>
						<file id="file-406">
							<name>julian_1_2021-11-06_1354_C0002.mov</name>
							<pathurl>/Volumes/tiesta/01_Footage/blantyre/julian_1_2021-11-06_1354_C0002.mov</pathurl>
							<rate>
								<timebase>24</timebase>
								<ntsc>TRUE</ntsc>
							</rate>
							<duration>1730</duration>
							<timecode>
								<string>13:54:32:00</string>
								<displayformat>NDF</displayformat>
								<frame>1201728</frame>
								<rate>
									<timebase>24</timebase>
									<ntsc>TRUE</ntsc>
								</rate>
							</timecode>
							<media>
								<video>
									<samplecharacteristics>
										<rate>
											<timebase>24</timebase>
											<ntsc>TRUE</ntsc>
										</rate>
										<width>1920</width>
										<height>1080</height>
										<anamorphic>FALSE</anamorphic>
										<pixelaspectratio>square</pixelaspectratio>
										<fielddominance>none</fielddominance>
									</samplecharacteristics>
								</video>
								<audio>
									<samplecharacteristics>
										<depth>16</depth>
										<samplerate>48000</samplerate>
									</samplecharacteristics>
									<channelcount>2</channelcount>
								</audio>
							</media>
						</file>
						<link>
							<linkclipref>clipitem-S3-V2-3</linkclipref>
							<mediatype>video</mediatype>
							<trackindex>2</trackindex>
							<clipindex>3</clipindex>
						</link>
						<link>
							<linkclipref>clipitem-S3-A3-3</linkclipref>
							<mediatype>audio</mediatype>
							<trackindex>3</trackindex>
							<clipindex>3</clipindex>
							<groupindex>1</groupindex>
						</link>
						<link>
							<linkclipref>clipitem-S3-A4-3</linkclipref>
							<mediatype>audio</mediatype>
							<trackindex>4</trackindex>
							<clipindex>3</clipindex>
							<groupindex>1</groupindex>
						</link>
						<labels>
							<label2>Iris</label2>
						</labels>
					</clipitem>
					<clipitem id="clipitem-S3-V2-4">
						<name>julian_1_2021-11-06_1356_C0003.mov</name>
						<enabled>TRUE</enabled>
						<duration>371</duration>
						<rate>
							<timebase>24</timebase>
							<ntsc>TRUE</ntsc>
						</rate>
						<start>20689</start>
						<end>21060</end>
						<in>0</in>
						<out>371</out>
						<file id="file-407">
							<name>julian_1_2021-11-06_1356_C0003.mov</name>
							<pathurl>/Volumes/tiesta/01_Footage/blantyre/julian_1_2021-11-06_1356_C0003.mov</pathurl>
							<rate>
								<timebase>24</timebase>
								<ntsc>TRUE</ntsc>
							</rate>
							<duration>371</duration>
							<timecode>
								<string>13:56:01:00</string>
								<displayformat>NDF</displayformat>
								<frame>1203864</frame>
								<rate>
									<timebase>24</timebase>
									<ntsc>TRUE</ntsc>
								</rate>
							</timecode>
							<media>
								<video>
									<samplecharacteristics>
										<rate>
											<timebase>24</timebase>
											<ntsc>TRUE</ntsc>
										</rate>
										<width>1920</width>
										<height>1080</height>
										<anamorphic>FALSE</anamorphic>
										<pixelaspectratio>square</pixelaspectratio>
										<fielddominance>none</fielddominance>
									</samplecharacteristics>
								</video>
								<audio>
									<samplecharacteristics>
										<depth>16</depth>
										<samplerate>48000</samplerate>
									</samplecharacteristics>
									<channelcount>2</channelcount>
								</audio>
							</media>
						</file>
						<link>
							<linkclipref>clipitem-S3-V2-4</linkclipref>
							<mediatype>video</mediatype>
							<trackindex>2</trackindex>
							<clipindex>4</clipindex>
						</link>
						<link>
							<linkclipref>clipitem-S3-A3-4</linkclipref>
							<mediatype>audio</mediatype>
							<trackindex>3</trackindex>
							<clipindex>4</clipindex>
							<groupindex>1</groupindex>
						</link>
						<link>
							<linkclipref>clipitem-S3-A4-4</linkclipref>
							<mediatype>audio</mediatype>
							<trackindex>4</trackindex>
							<clipindex>4</clipindex>
							<groupindex>1</groupindex>
						</link>
						<labels>
							<label2>Iris</label2>
						</labels>
					</clipitem>
					<clipitem id="clipitem-S3-V2-5">
						<name>julian_1_2021-11-06_1356_C0004.mov</name>
						<enabled>TRUE</enabled>
						<duration>2373</duration>
						<rate>
							<timebase>24</timebase>
							<ntsc>TRUE</ntsc>
						</rate>
						<start>21945</start>
						<end>24318</end>
						<in>0</in>
						<out>2373</out>
						<file id="file-408">
							<name>julian_1_2021-11-06_1356_C0004.mov</name>
							<pathurl>/Volumes/tiesta/01_Footage/blantyre/julian_1_2021-11-06_1356_C0004.mov</pathurl>
							<rate>
								<timebase>24</timebase>
								<ntsc>TRUE</ntsc>
							</rate>
							<duration>2373</duration>
							<timecode>
								<string>13:56:54:00</string>
								<displayformat>NDF</displayformat>
								<frame>1205136</frame>
								<rate>
									<timebase>24</timebase>
									<ntsc>TRUE</ntsc>
								</rate>
							</timecode>
							<media>
								<video>
									<samplecharacteristics>
										<rate>
											<timebase>24</timebase>
											<ntsc>TRUE</ntsc>
										</rate>
										<width>1920</width>
										<height>1080</height>
										<anamorphic>FALSE</anamorphic>
										<pixelaspectratio>square</pixelaspectratio>
										<fielddominance>none</fielddominance>
									</samplecharacteristics>
								</video>
								<audio>
									<samplecharacteristics>
										<depth>16</depth>
										<samplerate>48000</samplerate>
									</samplecharacteristics>
									<channelcount>2</channelcount>
								</audio>
							</media>
						</file>
						<link>
							<linkclipref>clipitem-S3-V2-5</linkclipref>
							<mediatype>video</mediatype>
							<trackindex>2</trackindex>
							<clipindex>5</clipindex>
						</link>
						<link>
							<linkclipref>clipitem-S3-A3-5</linkclipref>
							<mediatype>audio</mediatype>
							<trackindex>3</trackindex>
							<clipindex>5</clipindex>
							<groupindex>1</groupindex>
						</link>
						<link>
							<linkclipref>clipitem-S3-A4-5</linkclipref>
							<mediatype>audio</mediatype>
							<trackindex>4</trackindex>
							<clipindex>5</clipindex>
							<groupindex>1</groupindex>
						</link>
						<labels>
							<label2>Iris</label2>
						</labels>
					</clipitem>
					<clipitem id="clipitem-S3-V2-6">
						<name>julian_1_2021-11-06_1400_C0005.mov</name>
						<enabled>TRUE</enabled>
						<duration>86</duration>
						<rate>
							<timebase>24</timebase>
							<ntsc>TRUE</ntsc>
						</rate>
						<start>26532</start>
						<end>26618</end>
						<in>0</in>
						<out>86</out>
						<file id="file-409">
							<name>julian_1_2021-11-06_1400_C0005.mov</name>
							<pathurl>/Volumes/tiesta/01_Footage/blantyre/julian_1_2021-11-06_1400_C0005.mov</pathurl>
							<rate>
								<timebase>24</timebase>
								<ntsc>TRUE</ntsc>
							</rate>
							<duration>86</duration>
							<timecode>
								<string>14:00:05:00</string>
								<displayformat>NDF</displayformat>
								<frame>1209720</frame>
								<rate>
									<timebase>24</timebase>
									<ntsc>TRUE</ntsc>
								</rate>
							</timecode>
							<media>
								<video>
									<samplecharacteristics>
										<rate>
											<timebase>24</timebase>
											<ntsc>TRUE</ntsc>
										</rate>
										<width>1920</width>
										<height>1080</height>
										<anamorphic>FALSE</anamorphic>
										<pixelaspectratio>square</pixelaspectratio>
										<fielddominance>none</fielddominance>
									</samplecharacteristics>
								</video>
								<audio>
									<samplecharacteristics>
										<depth>16</depth>
										<samplerate>48000</samplerate>
									</samplecharacteristics>
									<channelcount>2</channelcount>
								</audio>
							</media>
						</file>
						<link>
							<linkclipref>clipitem-S3-V2-6</linkclipref>
							<mediatype>video</mediatype>
							<trackindex>2</trackindex>
							<clipindex>6</clipindex>
						</link>
						<link>
							<linkclipref>clipitem-S3-A3-6</linkclipref>
							<mediatype>audio</mediatype>
							<trackindex>3</trackindex>
							<clipindex>6</clipindex>
							<groupindex>1</groupindex>
						</link>
						<link>
							<linkclipref>clipitem-S3-A4-6</linkclipref>
							<mediatype>audio</mediatype>
							<trackindex>4</trackindex>
							<clipindex>6</clipindex>
							<groupindex>1</groupindex>
						</link>
						<labels>
							<label2>Iris</label2>
						</labels>
					</clipitem>
					<clipitem id="clipitem-S3-V2-7">
						<name>julian_1_2021-11-06_1400_C0006.mov</name>
						<enabled>TRUE</enabled>
						<duration>309</duration>
						<rate>
							<timebase>24</timebase>
							<ntsc>TRUE</ntsc>
						</rate>
						<start>27004</start>
						<end>27313</end>
						<in>0</in>
						<out>309</out>
						<file id="file-410">
							<name>julian_1_2021-11-06_1400_C0006.mov</name>
							<pathurl>/Volumes/tiesta/01_Footage/blantyre/julian_1_2021-11-06_1400_C0006.mov</pathurl>
							<rate>
								<timebase>24</timebase>
								<ntsc>TRUE</ntsc>
							</rate>
							<duration>309</duration>
							<timecode>
								<string>14:00:25:00</string>
								<displayformat>NDF</displayformat>
								<frame>1210200</frame>
								<rate>
									<timebase>24</timebase>
									<ntsc>TRUE</ntsc>
								</rate>
							</timecode>
							<media>
								<video>
									<samplecharacteristics>
										<rate>
											<timebase>24</timebase>
											<ntsc>TRUE</ntsc>
										</rate>
										<width>1920</width>
										<height>1080</height>
										<anamorphic>FALSE</anamorphic>
										<pixelaspectratio>square</pixelaspectratio>
										<fielddominance>none</fielddominance>
									</samplecharacteristics>
								</video>
								<audio>
									<samplecharacteristics>
										<depth>16</depth>
										<samplerate>48000</samplerate>
									</samplecharacteristics>
									<channelcount>2</channelcount>
								</audio>
							</media>
						</file>
						<link>
							<linkclipref>clipitem-S3-V2-7</linkclipref>
							<mediatype>video</mediatype>
							<trackindex>2</trackindex>
							<clipindex>7</clipindex>
						</link>
						<link>
							<linkclipref>clipitem-S3-A3-7</linkclipref>
							<mediatype>audio</mediatype>
							<trackindex>3</trackindex>
							<clipindex>7</clipindex>
							<groupindex>1</groupindex>
						</link>
						<link>
							<linkclipref>clipitem-S3-A4-7</linkclipref>
							<mediatype>audio</mediatype>
							<trackindex>4</trackindex>
							<clipindex>7</clipindex>
							<groupindex>1</groupindex>
						</link>
						<labels>
							<label2>Iris</label2>
						</labels>
					</clipitem>
					<clipitem id="clipitem-S3-V2-8">
						<name>julian_1_2021-11-06_1400_C0007.mov</name>
						<enabled>TRUE</enabled>
						<duration>3062</duration>
						<rate>
							<timebase>24</timebase>
							<ntsc>TRUE</ntsc>
						</rate>
						<start>27427</start>
						<end>30489</end>
						<in>0</in>
						<out>3062</out>
						<file id="file-411">
							<name>julian_1_2021-11-06_1400_C0007.mov</name>
							<pathurl>/Volumes/tiesta/01_Footage/blantyre/julian_1_2021-11-06_1400_C0007.mov</pathurl>
							<rate>
								<timebase>24</timebase>
								<ntsc>TRUE</ntsc>
							</rate>
							<duration>3062</duration>
							<timecode>
								<string>14:00:42:00</string>
								<displayformat>NDF</displayformat>
								<frame>1210608</frame>
								<rate>
									<timebase>24</timebase>
									<ntsc>TRUE</ntsc>
								</rate>
							</timecode>
							<media>
								<video>
									<samplecharacteristics>
										<rate>
											<timebase>24</timebase>
											<ntsc>TRUE</ntsc>
										</rate>
										<width>1920</width>
										<height>1080</height>
										<anamorphic>FALSE</anamorphic>
										<pixelaspectratio>square</pixelaspectratio>
										<fielddominance>none</fielddominance>
									</samplecharacteristics>
								</video>
								<audio>
									<samplecharacteristics>
										<depth>16</depth>
										<samplerate>48000</samplerate>
									</samplecharacteristics>
									<channelcount>2</channelcount>
								</audio>
							</media>
						</file>
						<link>
							<linkclipref>clipitem-S3-V2-8</linkclipref>
							<mediatype>video</mediatype>
							<trackindex>2</trackindex>
							<clipindex>8</clipindex>
						</link>
						<link>
							<linkclipref>clipitem-S3-A3-8</linkclipref>
							<mediatype>audio</mediatype>
							<trackindex>3</trackindex>
							<clipindex>8</clipindex>
							<groupindex>1</groupindex>
						</link>
						<link>
							<linkclipref>clipitem-S3-A4-8</linkclipref>
							<mediatype>audio</mediatype>
							<trackindex>4</trackindex>
							<clipindex>8</clipindex>
							<groupindex>1</groupindex>
						</link>
						<labels>
							<label2>Iris</label2>
						</labels>
					</clipitem>
					<clipitem id="clipitem-S3-V2-9">
						<name>julian_1_2021-11-06_1403_C0008.mov</name>
						<enabled>TRUE</enabled>
						<duration>230</duration>
						<rate>
							<timebase>24</timebase>
							<ntsc>TRUE</ntsc>
						</rate>
						<start>31534</start>
						<end>31764</end>
						<in>0</in>
						<out>230</out>
						<file id="file-412">
							<name>julian_1_2021-11-06_1403_C0008.mov</name>
							<pathurl>/Volumes/tiesta/01_Footage/blantyre/julian_1_2021-11-06_1403_C0008.mov</pathurl>
							<rate>
								<timebase>24</timebase>
								<ntsc>TRUE</ntsc>
							</rate>
							<duration>230</duration>
							<timecode>
								<string>14:03:33:00</string>
								<displayformat>NDF</displayformat>
								<frame>1214712</frame>
								<rate>
									<timebase>24</timebase>
									<ntsc>TRUE</ntsc>
								</rate>
							</timecode>
							<media>
								<video>
									<samplecharacteristics>
										<rate>
											<timebase>24</timebase>
											<ntsc>TRUE</ntsc>
										</rate>
										<width>1920</width>
										<height>1080</height>
										<anamorphic>FALSE</anamorphic>
										<pixelaspectratio>square</pixelaspectratio>
										<fielddominance>none</fielddominance>
									</samplecharacteristics>
								</video>
								<audio>
									<samplecharacteristics>
										<depth>16</depth>
										<samplerate>48000</samplerate>
									</samplecharacteristics>
									<channelcount>2</channelcount>
								</audio>
							</media>
						</file>
						<link>
							<linkclipref>clipitem-S3-V2-9</linkclipref>
							<mediatype>video</mediatype>
							<trackindex>2</trackindex>
							<clipindex>9</clipindex>
						</link>
						<link>
							<linkclipref>clipitem-S3-A3-9</linkclipref>
							<mediatype>audio</mediatype>
							<trackindex>3</trackindex>
							<clipindex>9</clipindex>
							<groupindex>1</groupindex>
						</link>
						<link>
							<linkclipref>clipitem-S3-A4-9</linkclipref>
							<mediatype>audio</mediatype>
							<trackindex>4</trackindex>
							<clipindex>9</clipindex>
							<groupindex>1</groupindex>
						</link>
						<labels>
							<label2>Iris</label2>
						</labels>
					</clipitem>
					<clipitem id="clipitem-S3-V2-10">
						<name>julian_1_2021-11-06_1404_C0009.mov</name>
						<enabled>TRUE</enabled>
						<duration>2051</duration>
						<rate>
							<timebase>24</timebase>
							<ntsc>TRUE</ntsc>
						</rate>
						<start>32988</start>
						<end>35039</end>
						<in>0</in>
						<out>2051</out>
						<file id="file-413">
							<name>julian_1_2021-11-06_1404_C0009.mov</name>
							<pathurl>/Volumes/tiesta/01_Footage/blantyre/julian_1_2021-11-06_1404_C0009.mov</pathurl>
							<rate>
								<timebase>24</timebase>
								<ntsc>TRUE</ntsc>
							</rate>
							<duration>2051</duration>
							<timecode>
								<string>14:04:34:00</string>
								<displayformat>NDF</displayformat>
								<frame>1216176</frame>
								<rate>
									<timebase>24</timebase>
									<ntsc>TRUE</ntsc>
								</rate>
							</timecode>
							<media>
								<video>
									<samplecharacteristics>
										<rate>
											<timebase>24</timebase>
											<ntsc>TRUE</ntsc>
										</rate>
										<width>1920</width>
										<height>1080</height>
										<anamorphic>FALSE</anamorphic>
										<pixelaspectratio>square</pixelaspectratio>
										<fielddominance>none</fielddominance>
									</samplecharacteristics>
								</video>
								<audio>
									<samplecharacteristics>
										<depth>16</depth>
										<samplerate>48000</samplerate>
									</samplecharacteristics>
									<channelcount>2</channelcount>
								</audio>
							</media>
						</file>
						<link>
							<linkclipref>clipitem-S3-V2-10</linkclipref>
							<mediatype>video</mediatype>
							<trackindex>2</trackindex>
							<clipindex>10</clipindex>
						</link>
						<link>
							<linkclipref>clipitem-S3-A3-10</linkclipref>
							<mediatype>audio</mediatype>
							<trackindex>3</trackindex>
							<clipindex>10</clipindex>
							<groupindex>1</groupindex>
						</link>
						<link>
							<linkclipref>clipitem-S3-A4-10</linkclipref>
							<mediatype>audio</mediatype>
							<trackindex>4</trackindex>
							<clipindex>10</clipindex>
							<groupindex>1</groupindex>
						</link>
						<labels>
							<label2>Iris</label2>
						</labels>
					</clipitem>
					<clipitem id="clipitem-S3-V2-11">
						<name>julian_1_2021-11-06_1406_C0010.mov</name>
						<enabled>TRUE</enabled>
						<duration>3605</duration>
						<rate>
							<timebase>24</timebase>
							<ntsc>TRUE</ntsc>
						</rate>
						<start>35529</start>
						<end>39134</end>
						<in>0</in>
						<out>3605</out>
						<file id="file-414">
							<name>julian_1_2021-11-06_1406_C0010.mov</name>
							<pathurl>/Volumes/tiesta/01_Footage/blantyre/julian_1_2021-11-06_1406_C0010.mov</pathurl>
							<rate>
								<timebase>24</timebase>
								<ntsc>TRUE</ntsc>
							</rate>
							<duration>3605</duration>
							<timecode>
								<string>14:06:20:00</string>
								<displayformat>NDF</displayformat>
								<frame>1218720</frame>
								<rate>
									<timebase>24</timebase>
									<ntsc>TRUE</ntsc>
								</rate>
							</timecode>
							<media>
								<video>
									<samplecharacteristics>
										<rate>
											<timebase>24</timebase>
											<ntsc>TRUE</ntsc>
										</rate>
										<width>1920</width>
										<height>1080</height>
										<anamorphic>FALSE</anamorphic>
										<pixelaspectratio>square</pixelaspectratio>
										<fielddominance>none</fielddominance>
									</samplecharacteristics>
								</video>
								<audio>
									<samplecharacteristics>
										<depth>16</depth>
										<samplerate>48000</samplerate>
									</samplecharacteristics>
									<channelcount>2</channelcount>
								</audio>
							</media>
						</file>
						<link>
							<linkclipref>clipitem-S3-V2-11</linkclipref>
							<mediatype>video</mediatype>
							<trackindex>2</trackindex>
							<clipindex>11</clipindex>
						</link>
						<link>
							<linkclipref>clipitem-S3-A3-11</linkclipref>
							<mediatype>audio</mediatype>
							<trackindex>3</trackindex>
							<clipindex>11</clipindex>
							<groupindex>1</groupindex>
						</link>
						<link>
							<linkclipref>clipitem-S3-A4-11</linkclipref>
							<mediatype>audio</mediatype>
							<trackindex>4</trackindex>
							<clipindex>11</clipindex>
							<groupindex>1</groupindex>
						</link>
						<labels>
							<label2>Iris</label2>
						</labels>
					</clipitem>
					<clipitem id="clipitem-S3-V2-12">
						<name>julian_1_2021-11-06_1409_C0011.mov</name>
						<enabled>TRUE</enabled>
						<duration>3146</duration>
						<rate>
							<timebase>24</timebase>
							<ntsc>TRUE</ntsc>
						</rate>
						<start>39949</start>
						<end>43095</end>
						<in>0</in>
						<out>3146</out>
						<file id="file-415">
							<name>julian_1_2021-11-06_1409_C0011.mov</name>
							<pathurl>/Volumes/tiesta/01_Footage/blantyre/julian_1_2021-11-06_1409_C0011.mov</pathurl>
							<rate>
								<timebase>24</timebase>
								<ntsc>TRUE</ntsc>
							</rate>
							<duration>3146</duration>
							<timecode>
								<string>14:09:24:00</string>
								<displayformat>NDF</displayformat>
								<frame>1223136</frame>
								<rate>
									<timebase>24</timebase>
									<ntsc>TRUE</ntsc>
								</rate>
							</timecode>
							<media>
								<video>
									<samplecharacteristics>
										<rate>
											<timebase>24</timebase>
											<ntsc>TRUE</ntsc>
										</rate>
										<width>1920</width>
										<height>1080</height>
										<anamorphic>FALSE</anamorphic>
										<pixelaspectratio>square</pixelaspectratio>
										<fielddominance>none</fielddominance>
									</samplecharacteristics>
								</video>
								<audio>
									<samplecharacteristics>
										<depth>16</depth>
										<samplerate>48000</samplerate>
									</samplecharacteristics>
									<channelcount>2</channelcount>
								</audio>
							</media>
						</file>
						<link>
							<linkclipref>clipitem-S3-V2-12</linkclipref>
							<mediatype>video</mediatype>
							<trackindex>2</trackindex>
							<clipindex>12</clipindex>
						</link>
						<link>
							<linkclipref>clipitem-S3-A3-12</linkclipref>
							<mediatype>audio</mediatype>
							<trackindex>3</trackindex>
							<clipindex>12</clipindex>
							<groupindex>1</groupindex>
						</link>
						<link>
							<linkclipref>clipitem-S3-A4-12</linkclipref>
							<mediatype>audio</mediatype>
							<trackindex>4</trackindex>
							<clipindex>12</clipindex>
							<groupindex>1</groupindex>
						</link>
						<labels>
							<label2>Iris</label2>
						</labels>
					</clipitem>
					<clipitem id="clipitem-S3-V2-13">
						<name>julian_1_2021-11-06_1411_C0012.mov</name>
						<enabled>TRUE</enabled>
						<duration>1373</duration>
						<rate>
							<timebase>24</timebase>
							<ntsc>TRUE</ntsc>
						</rate>
						<start>43358</start>
						<end>44731</end>
						<in>0</in>
						<out>1373</out>
						<file id="file-416">
							<name>julian_1_2021-11-06_1411_C0012.mov</name>
							<pathurl>/Volumes/tiesta/01_Footage/blantyre/julian_1_2021-11-06_1411_C0012.mov</pathurl>
							<rate>
								<timebase>24</timebase>
								<ntsc>TRUE</ntsc>
							</rate>
							<duration>1373</duration>
							<timecode>
								<string>14:11:46:00</string>
								<displayformat>NDF</displayformat>
								<frame>1226544</frame>
								<rate>
									<timebase>24</timebase>
									<ntsc>TRUE</ntsc>
								</rate>
							</timecode>
							<media>
								<video>
									<samplecharacteristics>
										<rate>
											<timebase>24</timebase>
											<ntsc>TRUE</ntsc>
										</rate>
										<width>1920</width>
										<height>1080</height>
										<anamorphic>FALSE</anamorphic>
										<pixelaspectratio>square</pixelaspectratio>
										<fielddominance>none</fielddominance>
									</samplecharacteristics>
								</video>
								<audio>
									<samplecharacteristics>
										<depth>16</depth>
										<samplerate>48000</samplerate>
									</samplecharacteristics>
									<channelcount>2</channelcount>
								</audio>
							</media>
						</file>
						<link>
							<linkclipref>clipitem-S3-V2-13</linkclipref>
							<mediatype>video</mediatype>
							<trackindex>2</trackindex>
							<clipindex>13</clipindex>
						</link>
						<link>
							<linkclipref>clipitem-S3-A3-13</linkclipref>
							<mediatype>audio</mediatype>
							<trackindex>3</trackindex>
							<clipindex>13</clipindex>
							<groupindex>1</groupindex>
						</link>
						<link>
							<linkclipref>clipitem-S3-A4-13</linkclipref>
							<mediatype>audio</mediatype>
							<trackindex>4</trackindex>
							<clipindex>13</clipindex>
							<groupindex>1</groupindex>
						</link>
						<labels>
							<label2>Iris</label2>
						</labels>
					</clipitem>
					<clipitem id="clipitem-S3-V2-14">
						<name>julian_1_2021-11-06_1412_C0013.mov</name>
						<enabled>TRUE</enabled>
						<duration>4243</duration>
						<rate>
							<timebase>24</timebase>
							<ntsc>TRUE</ntsc>
						</rate>
						<start>44819</start>
						<end>49062</end>
						<in>0</in>
						<out>4243</out>
						<file id="file-417">
							<name>julian_1_2021-11-06_1412_C0013.mov</name>
							<pathurl>/Volumes/tiesta/01_Footage/blantyre/julian_1_2021-11-06_1412_C0013.mov</pathurl>
							<rate>
								<timebase>24</timebase>
								<ntsc>TRUE</ntsc>
							</rate>
							<duration>4243</duration>
							<timecode>
								<string>14:12:48:00</string>
								<displayformat>NDF</displayformat>
								<frame>1228032</frame>
								<rate>
									<timebase>24</timebase>
									<ntsc>TRUE</ntsc>
								</rate>
							</timecode>
							<media>
								<video>
									<samplecharacteristics>
										<rate>
											<timebase>24</timebase>
											<ntsc>TRUE</ntsc>
										</rate>
										<width>1920</width>
										<height>1080</height>
										<anamorphic>FALSE</anamorphic>
										<pixelaspectratio>square</pixelaspectratio>
										<fielddominance>none</fielddominance>
									</samplecharacteristics>
								</video>
								<audio>
									<samplecharacteristics>
										<depth>16</depth>
										<samplerate>48000</samplerate>
									</samplecharacteristics>
									<channelcount>2</channelcount>
								</audio>
							</media>
						</file>
						<link>
							<linkclipref>clipitem-S3-V2-14</linkclipref>
							<mediatype>video</mediatype>
							<trackindex>2</trackindex>
							<clipindex>14</clipindex>
						</link>
						<link>
							<linkclipref>clipitem-S3-A3-14</linkclipref>
							<mediatype>audio</mediatype>
							<trackindex>3</trackindex>
							<clipindex>14</clipindex>
							<groupindex>1</groupindex>
						</link>
						<link>
							<linkclipref>clipitem-S3-A4-14</linkclipref>
							<mediatype>audio</mediatype>
							<trackindex>4</trackindex>
							<clipindex>14</clipindex>
							<groupindex>1</groupindex>
						</link>
						<labels>
							<label2>Iris</label2>
						</labels>
					</clipitem>
					<enabled>TRUE</enabled>
					<locked>FALSE</locked>
				</track>
			</video>
			<audio>
				<format>
					<samplecharacteristics>
						<depth>16</depth>
						<samplerate>48000</samplerate>
					</samplecharacteristics>
				</format>
				<outputs>
				<group>
					<index>1</index>
						<numchannels>1</numchannels>
						<downmix>0</downmix>
						<channel>
						<index>1</index>
						</channel>
					</group>
					<group>
					<index>2</index>
						<numchannels>1</numchannels>
						<downmix>0</downmix>
						<channel>
						<index>2</index>
						</channel>
					</group>
				</outputs>
				<track currentExplodedTrackIndex="0" totalExplodedTrackCount="2" premiereTrackType="Stereo">
					<clipitem id="clipitem-S3-A1-1" premiereChannelType="stereo">
						<name>wiblo_1_2002-09-23_2048_C0001.mov</name>
						<enabled>TRUE</enabled>
						<duration>38602</duration>
						<rate>
							<timebase>24</timebase>
							<ntsc>TRUE</ntsc>
						</rate>
						<start>10943</start>
						<end>49545</end>
						<in>0</in>
						<out>38602</out>
						<file id="file-403"/>
						<sourcetrack>
							<mediatype>audio</mediatype>
							<trackindex>1</trackindex>
						</sourcetrack>
						<link>
							<linkclipref>clipitem-S3-A1-1</linkclipref>
							<mediatype>audio</mediatype>
							<trackindex>1</trackindex>
							<clipindex>1</clipindex>
							<groupindex>1</groupindex>
						</link>
						<link>
							<linkclipref>clipitem-S3-A2-1</linkclipref>
							<mediatype>audio</mediatype>
							<trackindex>2</trackindex>
							<clipindex>1</clipindex>
							<groupindex>1</groupindex>
						</link>
						<link>
							<linkclipref>clipitem-S3-V1-1</linkclipref>
							<mediatype>video</mediatype>
							<trackindex>1</trackindex>
							<clipindex>1</clipindex>
						</link>
					</clipitem>
					<enabled>TRUE</enabled>
					<locked>FALSE</locked>
					<outputchannelindex>1</outputchannelindex>
				</track>
				<track currentExplodedTrackIndex="1" totalExplodedTrackCount="2" premiereTrackType="Stereo">
					<clipitem id="clipitem-S3-A2-1" premiereChannelType="stereo">
						<name>wiblo_1_2002-09-23_2048_C0001.mov</name>
						<enabled>TRUE</enabled>
						<duration>38602</duration>
						<rate>
							<timebase>24</timebase>
							<ntsc>TRUE</ntsc>
						</rate>
						<start>10943</start>
						<end>49545</end>
						<in>0</in>
						<out>38602</out>
						<file id="file-403"/>
						<sourcetrack>
							<mediatype>audio</mediatype>
							<trackindex>2</trackindex>
						</sourcetrack>
						<link>
							<linkclipref>clipitem-S3-A1-1</linkclipref>
							<mediatype>audio</mediatype>
							<trackindex>1</trackindex>
							<clipindex>1</clipindex>
							<groupindex>1</groupindex>
						</link>
						<link>
							<linkclipref>clipitem-S3-A2-1</linkclipref>
							<mediatype>audio</mediatype>
							<trackindex>2</trackindex>
							<clipindex>1</clipindex>
							<groupindex>1</groupindex>
						</link>
						<link>
							<linkclipref>clipitem-S3-V1-1</linkclipref>
							<mediatype>video</mediatype>
							<trackindex>1</trackindex>
							<clipindex>1</clipindex>
						</link>
					</clipitem>
					<enabled>TRUE</enabled>
					<locked>FALSE</locked>
					<outputchannelindex>2</outputchannelindex>
				</track>
				<track currentExplodedTrackIndex="0" totalExplodedTrackCount="2" premiereTrackType="Stereo">
					<clipitem id="clipitem-S3-A3-1" premiereChannelType="stereo">
						<name>julian_1_2021-11-06_1350_C0000.mov</name>
						<enabled>TRUE</enabled>
						<duration>3794</duration>
						<rate>
							<timebase>24</timebase>
							<ntsc>TRUE</ntsc>
						</rate>
						<start>12474</start>
						<end>16268</end>
						<in>0</in>
						<out>3794</out>
						<file id="file-404"/>
						<sourcetrack>
							<mediatype>audio</mediatype>
							<trackindex>1</trackindex>
						</sourcetrack>
						<link>
							<linkclipref>clipitem-S3-A3-1</linkclipref>
							<mediatype>audio</mediatype>
							<trackindex>3</trackindex>
							<clipindex>1</clipindex>
							<groupindex>1</groupindex>
						</link>
						<link>
							<linkclipref>clipitem-S3-A4-1</linkclipref>
							<mediatype>audio</mediatype>
							<trackindex>4</trackindex>
							<clipindex>1</clipindex>
							<groupindex>1</groupindex>
						</link>
						<link>
							<linkclipref>clipitem-S3-V2-1</linkclipref>
							<mediatype>video</mediatype>
							<trackindex>2</trackindex>
							<clipindex>1</clipindex>
						</link>
						<labels>
							<label2>Iris</label2>
						</labels>
					</clipitem>
					<clipitem id="clipitem-S3-A3-2" premiereChannelType="stereo">
						<name>julian_1_2021-11-06_1353_C0001.mov</name>
						<enabled>TRUE</enabled>
						<duration>1885</duration>
						<rate>
							<timebase>24</timebase>
							<ntsc>TRUE</ntsc>
						</rate>
						<start>16488</start>
						<end>18373</end>
						<in>0</in>
						<out>1885</out>
						<file id="file-405"/>
						<sourcetrack>
							<mediatype>audio</mediatype>
							<trackindex>1</trackindex>
						</sourcetrack>
						<link>
							<linkclipref>clipitem-S3-A3-2</linkclipref>
							<mediatype>audio</mediatype>
							<trackindex>3</trackindex>
							<clipindex>2</clipindex>
							<groupindex>1</groupindex>
						</link>
						<link>
							<linkclipref>clipitem-S3-A4-2</linkclipref>
							<mediatype>audio</mediatype>
							<trackindex>4</trackindex>
							<clipindex>2</clipindex>
							<groupindex>1</groupindex>
						</link>
						<link>
							<linkclipref>clipitem-S3-V2-2</linkclipref>
							<mediatype>video</mediatype>
							<trackindex>2</trackindex>
							<clipindex>2</clipindex>
						</link>
						<labels>
							<label2>Iris</label2>
						</labels>
					</clipitem>
					<clipitem id="clipitem-S3-A3-3" premiereChannelType="stereo">
						<name>julian_1_2021-11-06_1354_C0002.mov</name>
						<enabled>TRUE</enabled>
						<duration>1730</duration>
						<rate>
							<timebase>24</timebase>
							<ntsc>TRUE</ntsc>
						</rate>
						<start>18561</start>
						<end>20291</end>
						<in>0</in>
						<out>1730</out>
						<file id="file-406"/>
						<sourcetrack>
							<mediatype>audio</mediatype>
							<trackindex>1</trackindex>
						</sourcetrack>
						<link>
							<linkclipref>clipitem-S3-A3-3</linkclipref>
							<mediatype>audio</mediatype>
							<trackindex>3</trackindex>
							<clipindex>3</clipindex>
							<groupindex>1</groupindex>
						</link>
						<link>
							<linkclipref>clipitem-S3-A4-3</linkclipref>
							<mediatype>audio</mediatype>
							<trackindex>4</trackindex>
							<clipindex>3</clipindex>
							<groupindex>1</groupindex>
						</link>
						<link>
							<linkclipref>clipitem-S3-V2-3</linkclipref>
							<mediatype>video</mediatype>
							<trackindex>2</trackindex>
							<clipindex>3</clipindex>
						</link>
						<labels>
							<label2>Iris</label2>
						</labels>
					</clipitem>
					<clipitem id="clipitem-S3-A3-4" premiereChannelType="stereo">
						<name>julian_1_2021-11-06_1356_C0003.mov</name>
						<enabled>TRUE</enabled>
						<duration>371</duration>
						<rate>
							<timebase>24</timebase>
							<ntsc>TRUE</ntsc>
						</rate>
						<start>20689</start>
						<end>21060</end>
						<in>0</in>
						<out>371</out>
						<file id="file-407"/>
						<sourcetrack>
							<mediatype>audio</mediatype>
							<trackindex>1</trackindex>
						</sourcetrack>
						<link>
							<linkclipref>clipitem-S3-A3-4</linkclipref>
							<mediatype>audio</mediatype>
							<trackindex>3</trackindex>
							<clipindex>4</clipindex>
							<groupindex>1</groupindex>
						</link>
						<link>
							<linkclipref>clipitem-S3-A4-4</linkclipref>
							<mediatype>audio</mediatype>
							<trackindex>4</trackindex>
							<clipindex>4</clipindex>
							<groupindex>1</groupindex>
						</link>
						<link>
							<linkclipref>clipitem-S3-V2-4</linkclipref>
							<mediatype>video</mediatype>
							<trackindex>2</trackindex>
							<clipindex>4</clipindex>
						</link>
						<labels>
							<label2>Iris</label2>
						</labels>
					</clipitem>
					<clipitem id="clipitem-S3-A3-5" premiereChannelType="stereo">
						<name>julian_1_2021-11-06_1356_C0004.mov</name>
						<enabled>TRUE</enabled>
						<duration>2373</duration>
						<rate>
							<timebase>24</timebase>
							<ntsc>TRUE</ntsc>
						</rate>
						<start>21945</start>
						<end>24318</end>
						<in>0</in>
						<out>2373</out>
						<file id="file-408"/>
						<sourcetrack>
							<mediatype>audio</mediatype>
							<trackindex>1</trackindex>
						</sourcetrack>
						<link>
							<linkclipref>clipitem-S3-A3-5</linkclipref>
							<mediatype>audio</mediatype>
							<trackindex>3</trackindex>
							<clipindex>5</clipindex>
							<groupindex>1</groupindex>
						</link>
						<link>
							<linkclipref>clipitem-S3-A4-5</linkclipref>
							<mediatype>audio</mediatype>
							<trackindex>4</trackindex>
							<clipindex>5</clipindex>
							<groupindex>1</groupindex>
						</link>
						<link>
							<linkclipref>clipitem-S3-V2-5</linkclipref>
							<mediatype>video</mediatype>
							<trackindex>2</trackindex>
							<clipindex>5</clipindex>
						</link>
						<labels>
							<label2>Iris</label2>
						</labels>
					</clipitem>
					<clipitem id="clipitem-S3-A3-6" premiereChannelType="stereo">
						<name>julian_1_2021-11-06_1400_C0005.mov</name>
						<enabled>TRUE</enabled>
						<duration>86</duration>
						<rate>
							<timebase>24</timebase>
							<ntsc>TRUE</ntsc>
						</rate>
						<start>26532</start>
						<end>26618</end>
						<in>0</in>
						<out>86</out>
						<file id="file-409"/>
						<sourcetrack>
							<mediatype>audio</mediatype>
							<trackindex>1</trackindex>
						</sourcetrack>
						<link>
							<linkclipref>clipitem-S3-A3-6</linkclipref>
							<mediatype>audio</mediatype>
							<trackindex>3</trackindex>
							<clipindex>6</clipindex>
							<groupindex>1</groupindex>
						</link>
						<link>
							<linkclipref>clipitem-S3-A4-6</linkclipref>
							<mediatype>audio</mediatype>
							<trackindex>4</trackindex>
							<clipindex>6</clipindex>
							<groupindex>1</groupindex>
						</link>
						<link>
							<linkclipref>clipitem-S3-V2-6</linkclipref>
							<mediatype>video</mediatype>
							<trackindex>2</trackindex>
							<clipindex>6</clipindex>
						</link>
						<labels>
							<label2>Iris</label2>
						</labels>
					</clipitem>
					<clipitem id="clipitem-S3-A3-7" premiereChannelType="stereo">
						<name>julian_1_2021-11-06_1400_C0006.mov</name>
						<enabled>TRUE</enabled>
						<duration>309</duration>
						<rate>
							<timebase>24</timebase>
							<ntsc>TRUE</ntsc>
						</rate>
						<start>27004</start>
						<end>27313</end>
						<in>0</in>
						<out>309</out>
						<file id="file-410"/>
						<sourcetrack>
							<mediatype>audio</mediatype>
							<trackindex>1</trackindex>
						</sourcetrack>
						<link>
							<linkclipref>clipitem-S3-A3-7</linkclipref>
							<mediatype>audio</mediatype>
							<trackindex>3</trackindex>
							<clipindex>7</clipindex>
							<groupindex>1</groupindex>
						</link>
						<link>
							<linkclipref>clipitem-S3-A4-7</linkclipref>
							<mediatype>audio</mediatype>
							<trackindex>4</trackindex>
							<clipindex>7</clipindex>
							<groupindex>1</groupindex>
						</link>
						<link>
							<linkclipref>clipitem-S3-V2-7</linkclipref>
							<mediatype>video</mediatype>
							<trackindex>2</trackindex>
							<clipindex>7</clipindex>
						</link>
						<labels>
							<label2>Iris</label2>
						</labels>
					</clipitem>
					<clipitem id="clipitem-S3-A3-8" premiereChannelType="stereo">
						<name>julian_1_2021-11-06_1400_C0007.mov</name>
						<enabled>TRUE</enabled>
						<duration>3062</duration>
						<rate>
							<timebase>24</timebase>
							<ntsc>TRUE</ntsc>
						</rate>
						<start>27427</start>
						<end>30489</end>
						<in>0</in>
						<out>3062</out>
						<file id="file-411"/>
						<sourcetrack>
							<mediatype>audio</mediatype>
							<trackindex>1</trackindex>
						</sourcetrack>
						<link>
							<linkclipref>clipitem-S3-A3-8</linkclipref>
							<mediatype>audio</mediatype>
							<trackindex>3</trackindex>
							<clipindex>8</clipindex>
							<groupindex>1</groupindex>
						</link>
						<link>
							<linkclipref>clipitem-S3-A4-8</linkclipref>
							<mediatype>audio</mediatype>
							<trackindex>4</trackindex>
							<clipindex>8</clipindex>
							<groupindex>1</groupindex>
						</link>
						<link>
							<linkclipref>clipitem-S3-V2-8</linkclipref>
							<mediatype>video</mediatype>
							<trackindex>2</trackindex>
							<clipindex>8</clipindex>
						</link>
						<labels>
							<label2>Iris</label2>
						</labels>
					</clipitem>
					<clipitem id="clipitem-S3-A3-9" premiereChannelType="stereo">
						<name>julian_1_2021-11-06_1403_C0008.mov</name>
						<enabled>TRUE</enabled>
						<duration>230</duration>
						<rate>
							<timebase>24</timebase>
							<ntsc>TRUE</ntsc>
						</rate>
						<start>31534</start>
						<end>31764</end>
						<in>0</in>
						<out>230</out>
						<file id="file-412"/>
						<sourcetrack>
							<mediatype>audio</mediatype>
							<trackindex>1</trackindex>
						</sourcetrack>
						<link>
							<linkclipref>clipitem-S3-A3-9</linkclipref>
							<mediatype>audio</mediatype>
							<trackindex>3</trackindex>
							<clipindex>9</clipindex>
							<groupindex>1</groupindex>
						</link>
						<link>
							<linkclipref>clipitem-S3-A4-9</linkclipref>
							<mediatype>audio</mediatype>
							<trackindex>4</trackindex>
							<clipindex>9</clipindex>
							<groupindex>1</groupindex>
						</link>
						<link>
							<linkclipref>clipitem-S3-V2-9</linkclipref>
							<mediatype>video</mediatype>
							<trackindex>2</trackindex>
							<clipindex>9</clipindex>
						</link>
						<labels>
							<label2>Iris</label2>
						</labels>
					</clipitem>
					<clipitem id="clipitem-S3-A3-10" premiereChannelType="stereo">
						<name>julian_1_2021-11-06_1404_C0009.mov</name>
						<enabled>TRUE</enabled>
						<duration>2051</duration>
						<rate>
							<timebase>24</timebase>
							<ntsc>TRUE</ntsc>
						</rate>
						<start>32988</start>
						<end>35039</end>
						<in>0</in>
						<out>2051</out>
						<file id="file-413"/>
						<sourcetrack>
							<mediatype>audio</mediatype>
							<trackindex>1</trackindex>
						</sourcetrack>
						<link>
							<linkclipref>clipitem-S3-A3-10</linkclipref>
							<mediatype>audio</mediatype>
							<trackindex>3</trackindex>
							<clipindex>10</clipindex>
							<groupindex>1</groupindex>
						</link>
						<link>
							<linkclipref>clipitem-S3-A4-10</linkclipref>
							<mediatype>audio</mediatype>
							<trackindex>4</trackindex>
							<clipindex>10</clipindex>
							<groupindex>1</groupindex>
						</link>
						<link>
							<linkclipref>clipitem-S3-V2-10</linkclipref>
							<mediatype>video</mediatype>
							<trackindex>2</trackindex>
							<clipindex>10</clipindex>
						</link>
						<labels>
							<label2>Iris</label2>
						</labels>
					</clipitem>
					<clipitem id="clipitem-S3-A3-11" premiereChannelType="stereo">
						<name>julian_1_2021-11-06_1406_C0010.mov</name>
						<enabled>TRUE</enabled>
						<duration>3605</duration>
						<rate>
							<timebase>24</timebase>
							<ntsc>TRUE</ntsc>
						</rate>
						<start>35529</start>
						<end>39134</end>
						<in>0</in>
						<out>3605</out>
						<file id="file-414"/>
						<sourcetrack>
							<mediatype>audio</mediatype>
							<trackindex>1</trackindex>
						</sourcetrack>
						<link>
							<linkclipref>clipitem-S3-A3-11</linkclipref>
							<mediatype>audio</mediatype>
							<trackindex>3</trackindex>
							<clipindex>11</clipindex>
							<groupindex>1</groupindex>
						</link>
						<link>
							<linkclipref>clipitem-S3-A4-11</linkclipref>
							<mediatype>audio</mediatype>
							<trackindex>4</trackindex>
							<clipindex>11</clipindex>
							<groupindex>1</groupindex>
						</link>
						<link>
							<linkclipref>clipitem-S3-V2-11</linkclipref>
							<mediatype>video</mediatype>
							<trackindex>2</trackindex>
							<clipindex>11</clipindex>
						</link>
						<labels>
							<label2>Iris</label2>
						</labels>
					</clipitem>
					<clipitem id="clipitem-S3-A3-12" premiereChannelType="stereo">
						<name>julian_1_2021-11-06_1409_C0011.mov</name>
						<enabled>TRUE</enabled>
						<duration>3146</duration>
						<rate>
							<timebase>24</timebase>
							<ntsc>TRUE</ntsc>
						</rate>
						<start>39949</start>
						<end>43095</end>
						<in>0</in>
						<out>3146</out>
						<file id="file-415"/>
						<sourcetrack>
							<mediatype>audio</mediatype>
							<trackindex>1</trackindex>
						</sourcetrack>
						<link>
							<linkclipref>clipitem-S3-A3-12</linkclipref>
							<mediatype>audio</mediatype>
							<trackindex>3</trackindex>
							<clipindex>12</clipindex>
							<groupindex>1</groupindex>
						</link>
						<link>
							<linkclipref>clipitem-S3-A4-12</linkclipref>
							<mediatype>audio</mediatype>
							<trackindex>4</trackindex>
							<clipindex>12</clipindex>
							<groupindex>1</groupindex>
						</link>
						<link>
							<linkclipref>clipitem-S3-V2-12</linkclipref>
							<mediatype>video</mediatype>
							<trackindex>2</trackindex>
							<clipindex>12</clipindex>
						</link>
						<labels>
							<label2>Iris</label2>
						</labels>
					</clipitem>
					<clipitem id="clipitem-S3-A3-13" premiereChannelType="stereo">
						<name>julian_1_2021-11-06_1411_C0012.mov</name>
						<enabled>TRUE</enabled>
						<duration>1373</duration>
						<rate>
							<timebase>24</timebase>
							<ntsc>TRUE</ntsc>
						</rate>
						<start>43358</start>
						<end>44731</end>
						<in>0</in>
						<out>1373</out>
						<file id="file-416"/>
						<sourcetrack>
							<mediatype>audio</mediatype>
							<trackindex>1</trackindex>
						</sourcetrack>
						<link>
							<linkclipref>clipitem-S3-A3-13</linkclipref>
							<mediatype>audio</mediatype>
							<trackindex>3</trackindex>
							<clipindex>13</clipindex>
							<groupindex>1</groupindex>
						</link>
						<link>
							<linkclipref>clipitem-S3-A4-13</linkclipref>
							<mediatype>audio</mediatype>
							<trackindex>4</trackindex>
							<clipindex>13</clipindex>
							<groupindex>1</groupindex>
						</link>
						<link>
							<linkclipref>clipitem-S3-V2-13</linkclipref>
							<mediatype>video</mediatype>
							<trackindex>2</trackindex>
							<clipindex>13</clipindex>
						</link>
						<labels>
							<label2>Iris</label2>
						</labels>
					</clipitem>
					<clipitem id="clipitem-S3-A3-14" premiereChannelType="stereo">
						<name>julian_1_2021-11-06_1412_C0013.mov</name>
						<enabled>TRUE</enabled>
						<duration>4243</duration>
						<rate>
							<timebase>24</timebase>
							<ntsc>TRUE</ntsc>
						</rate>
						<start>44819</start>
						<end>49062</end>
						<in>0</in>
						<out>4243</out>
						<file id="file-417"/>
						<sourcetrack>
							<mediatype>audio</mediatype>
							<trackindex>1</trackindex>
						</sourcetrack>
						<link>
							<linkclipref>clipitem-S3-A3-14</linkclipref>
							<mediatype>audio</mediatype>
							<trackindex>3</trackindex>
							<clipindex>14</clipindex>
							<groupindex>1</groupindex>
						</link>
						<link>
							<linkclipref>clipitem-S3-A4-14</linkclipref>
							<mediatype>audio</mediatype>
							<trackindex>4</trackindex>
							<clipindex>14</clipindex>
							<groupindex>1</groupindex>
						</link>
						<link>
							<linkclipref>clipitem-S3-V2-14</linkclipref>
							<mediatype>video</mediatype>
							<trackindex>2</trackindex>
							<clipindex>14</clipindex>
						</link>
						<labels>
							<label2>Iris</label2>
						</labels>
					</clipitem>
					<enabled>TRUE</enabled>
					<locked>FALSE</locked>
					<outputchannelindex>1</outputchannelindex>
				</track>
				<track currentExplodedTrackIndex="1" totalExplodedTrackCount="2" premiereTrackType="Stereo">
					<clipitem id="clipitem-S3-A4-1" premiereChannelType="stereo">
						<name>julian_1_2021-11-06_1350_C0000.mov</name>
						<enabled>TRUE</enabled>
						<duration>3794</duration>
						<rate>
							<timebase>24</timebase>
							<ntsc>TRUE</ntsc>
						</rate>
						<start>12474</start>
						<end>16268</end>
						<in>0</in>
						<out>3794</out>
						<file id="file-404"/>
						<sourcetrack>
							<mediatype>audio</mediatype>
							<trackindex>2</trackindex>
						</sourcetrack>
						<link>
							<linkclipref>clipitem-S3-A3-1</linkclipref>
							<mediatype>audio</mediatype>
							<trackindex>3</trackindex>
							<clipindex>1</clipindex>
							<groupindex>1</groupindex>
						</link>
						<link>
							<linkclipref>clipitem-S3-A4-1</linkclipref>
							<mediatype>audio</mediatype>
							<trackindex>4</trackindex>
							<clipindex>1</clipindex>
							<groupindex>1</groupindex>
						</link>
						<link>
							<linkclipref>clipitem-S3-V2-1</linkclipref>
							<mediatype>video</mediatype>
							<trackindex>2</trackindex>
							<clipindex>1</clipindex>
						</link>
						<labels>
							<label2>Iris</label2>
						</labels>
					</clipitem>
					<clipitem id="clipitem-S3-A4-2" premiereChannelType="stereo">
						<name>julian_1_2021-11-06_1353_C0001.mov</name>
						<enabled>TRUE</enabled>
						<duration>1885</duration>
						<rate>
							<timebase>24</timebase>
							<ntsc>TRUE</ntsc>
						</rate>
						<start>16488</start>
						<end>18373</end>
						<in>0</in>
						<out>1885</out>
						<file id="file-405"/>
						<sourcetrack>
							<mediatype>audio</mediatype>
							<trackindex>2</trackindex>
						</sourcetrack>
						<link>
							<linkclipref>clipitem-S3-A3-2</linkclipref>
							<mediatype>audio</mediatype>
							<trackindex>3</trackindex>
							<clipindex>2</clipindex>
							<groupindex>1</groupindex>
						</link>
						<link>
							<linkclipref>clipitem-S3-A4-2</linkclipref>
							<mediatype>audio</mediatype>
							<trackindex>4</trackindex>
							<clipindex>2</clipindex>
							<groupindex>1</groupindex>
						</link>
						<link>
							<linkclipref>clipitem-S3-V2-2</linkclipref>
							<mediatype>video</mediatype>
							<trackindex>2</trackindex>
							<clipindex>2</clipindex>
						</link>
						<labels>
							<label2>Iris</label2>
						</labels>
					</clipitem>
					<clipitem id="clipitem-S3-A4-3" premiereChannelType="stereo">
						<name>julian_1_2021-11-06_1354_C0002.mov</name>
						<enabled>TRUE</enabled>
						<duration>1730</duration>
						<rate>
							<timebase>24</timebase>
							<ntsc>TRUE</ntsc>
						</rate>
						<start>18561</start>
						<end>20291</end>
						<in>0</in>
						<out>1730</out>
						<file id="file-406"/>
						<sourcetrack>
							<mediatype>audio</mediatype>
							<trackindex>2</trackindex>
						</sourcetrack>
						<link>
							<linkclipref>clipitem-S3-A3-3</linkclipref>
							<mediatype>audio</mediatype>
							<trackindex>3</trackindex>
							<clipindex>3</clipindex>
							<groupindex>1</groupindex>
						</link>
						<link>
							<linkclipref>clipitem-S3-A4-3</linkclipref>
							<mediatype>audio</mediatype>
							<trackindex>4</trackindex>
							<clipindex>3</clipindex>
							<groupindex>1</groupindex>
						</link>
						<link>
							<linkclipref>clipitem-S3-V2-3</linkclipref>
							<mediatype>video</mediatype>
							<trackindex>2</trackindex>
							<clipindex>3</clipindex>
						</link>
						<labels>
							<label2>Iris</label2>
						</labels>
					</clipitem>
					<clipitem id="clipitem-S3-A4-4" premiereChannelType="stereo">
						<name>julian_1_2021-11-06_1356_C0003.mov</name>
						<enabled>TRUE</enabled>
						<duration>371</duration>
						<rate>
							<timebase>24</timebase>
							<ntsc>TRUE</ntsc>
						</rate>
						<start>20689</start>
						<end>21060</end>
						<in>0</in>
						<out>371</out>
						<file id="file-407"/>
						<sourcetrack>
							<mediatype>audio</mediatype>
							<trackindex>2</trackindex>
						</sourcetrack>
						<link>
							<linkclipref>clipitem-S3-A3-4</linkclipref>
							<mediatype>audio</mediatype>
							<trackindex>3</trackindex>
							<clipindex>4</clipindex>
							<groupindex>1</groupindex>
						</link>
						<link>
							<linkclipref>clipitem-S3-A4-4</linkclipref>
							<mediatype>audio</mediatype>
							<trackindex>4</trackindex>
							<clipindex>4</clipindex>
							<groupindex>1</groupindex>
						</link>
						<link>
							<linkclipref>clipitem-S3-V2-4</linkclipref>
							<mediatype>video</mediatype>
							<trackindex>2</trackindex>
							<clipindex>4</clipindex>
						</link>
						<labels>
							<label2>Iris</label2>
						</labels>
					</clipitem>
					<clipitem id="clipitem-S3-A4-5" premiereChannelType="stereo">
						<name>julian_1_2021-11-06_1356_C0004.mov</name>
						<enabled>TRUE</enabled>
						<duration>2373</duration>
						<rate>
							<timebase>24</timebase>
							<ntsc>TRUE</ntsc>
						</rate>
						<start>21945</start>
						<end>24318</end>
						<in>0</in>
						<out>2373</out>
						<file id="file-408"/>
						<sourcetrack>
							<mediatype>audio</mediatype>
							<trackindex>2</trackindex>
						</sourcetrack>
						<link>
							<linkclipref>clipitem-S3-A3-5</linkclipref>
							<mediatype>audio</mediatype>
							<trackindex>3</trackindex>
							<clipindex>5</clipindex>
							<groupindex>1</groupindex>
						</link>
						<link>
							<linkclipref>clipitem-S3-A4-5</linkclipref>
							<mediatype>audio</mediatype>
							<trackindex>4</trackindex>
							<clipindex>5</clipindex>
							<groupindex>1</groupindex>
						</link>
						<link>
							<linkclipref>clipitem-S3-V2-5</linkclipref>
							<mediatype>video</mediatype>
							<trackindex>2</trackindex>
							<clipindex>5</clipindex>
						</link>
						<labels>
							<label2>Iris</label2>
						</labels>
					</clipitem>
					<clipitem id="clipitem-S3-A4-6" premiereChannelType="stereo">
						<name>julian_1_2021-11-06_1400_C0005.mov</name>
						<enabled>TRUE</enabled>
						<duration>86</duration>
						<rate>
							<timebase>24</timebase>
							<ntsc>TRUE</ntsc>
						</rate>
						<start>26532</start>
						<end>26618</end>
						<in>0</in>
						<out>86</out>
						<file id="file-409"/>
						<sourcetrack>
							<mediatype>audio</mediatype>
							<trackindex>2</trackindex>
						</sourcetrack>
						<link>
							<linkclipref>clipitem-S3-A3-6</linkclipref>
							<mediatype>audio</mediatype>
							<trackindex>3</trackindex>
							<clipindex>6</clipindex>
							<groupindex>1</groupindex>
						</link>
						<link>
							<linkclipref>clipitem-S3-A4-6</linkclipref>
							<mediatype>audio</mediatype>
							<trackindex>4</trackindex>
							<clipindex>6</clipindex>
							<groupindex>1</groupindex>
						</link>
						<link>
							<linkclipref>clipitem-S3-V2-6</linkclipref>
							<mediatype>video</mediatype>
							<trackindex>2</trackindex>
							<clipindex>6</clipindex>
						</link>
						<labels>
							<label2>Iris</label2>
						</labels>
					</clipitem>
					<clipitem id="clipitem-S3-A4-7" premiereChannelType="stereo">
						<name>julian_1_2021-11-06_1400_C0006.mov</name>
						<enabled>TRUE</enabled>
						<duration>309</duration>
						<rate>
							<timebase>24</timebase>
							<ntsc>TRUE</ntsc>
						</rate>
						<start>27004</start>
						<end>27313</end>
						<in>0</in>
						<out>309</out>
						<file id="file-410"/>
						<sourcetrack>
							<mediatype>audio</mediatype>
							<trackindex>2</trackindex>
						</sourcetrack>
						<link>
							<linkclipref>clipitem-S3-A3-7</linkclipref>
							<mediatype>audio</mediatype>
							<trackindex>3</trackindex>
							<clipindex>7</clipindex>
							<groupindex>1</groupindex>
						</link>
						<link>
							<linkclipref>clipitem-S3-A4-7</linkclipref>
							<mediatype>audio</mediatype>
							<trackindex>4</trackindex>
							<clipindex>7</clipindex>
							<groupindex>1</groupindex>
						</link>
						<link>
							<linkclipref>clipitem-S3-V2-7</linkclipref>
							<mediatype>video</mediatype>
							<trackindex>2</trackindex>
							<clipindex>7</clipindex>
						</link>
						<labels>
							<label2>Iris</label2>
						</labels>
					</clipitem>
					<clipitem id="clipitem-S3-A4-8" premiereChannelType="stereo">
						<name>julian_1_2021-11-06_1400_C0007.mov</name>
						<enabled>TRUE</enabled>
						<duration>3062</duration>
						<rate>
							<timebase>24</timebase>
							<ntsc>TRUE</ntsc>
						</rate>
						<start>27427</start>
						<end>30489</end>
						<in>0</in>
						<out>3062</out>
						<file id="file-411"/>
						<sourcetrack>
							<mediatype>audio</mediatype>
							<trackindex>2</trackindex>
						</sourcetrack>
						<link>
							<linkclipref>clipitem-S3-A3-8</linkclipref>
							<mediatype>audio</mediatype>
							<trackindex>3</trackindex>
							<clipindex>8</clipindex>
							<groupindex>1</groupindex>
						</link>
						<link>
							<linkclipref>clipitem-S3-A4-8</linkclipref>
							<mediatype>audio</mediatype>
							<trackindex>4</trackindex>
							<clipindex>8</clipindex>
							<groupindex>1</groupindex>
						</link>
						<link>
							<linkclipref>clipitem-S3-V2-8</linkclipref>
							<mediatype>video</mediatype>
							<trackindex>2</trackindex>
							<clipindex>8</clipindex>
						</link>
						<labels>
							<label2>Iris</label2>
						</labels>
					</clipitem>
					<clipitem id="clipitem-S3-A4-9" premiereChannelType="stereo">
						<name>julian_1_2021-11-06_1403_C0008.mov</name>
						<enabled>TRUE</enabled>
						<duration>230</duration>
						<rate>
							<timebase>24</timebase>
							<ntsc>TRUE</ntsc>
						</rate>
						<start>31534</start>
						<end>31764</end>
						<in>0</in>
						<out>230</out>
						<file id="file-412"/>
						<sourcetrack>
							<mediatype>audio</mediatype>
							<trackindex>2</trackindex>
						</sourcetrack>
						<link>
							<linkclipref>clipitem-S3-A3-9</linkclipref>
							<mediatype>audio</mediatype>
							<trackindex>3</trackindex>
							<clipindex>9</clipindex>
							<groupindex>1</groupindex>
						</link>
						<link>
							<linkclipref>clipitem-S3-A4-9</linkclipref>
							<mediatype>audio</mediatype>
							<trackindex>4</trackindex>
							<clipindex>9</clipindex>
							<groupindex>1</groupindex>
						</link>
						<link>
							<linkclipref>clipitem-S3-V2-9</linkclipref>
							<mediatype>video</mediatype>
							<trackindex>2</trackindex>
							<clipindex>9</clipindex>
						</link>
						<labels>
							<label2>Iris</label2>
						</labels>
					</clipitem>
					<clipitem id="clipitem-S3-A4-10" premiereChannelType="stereo">
						<name>julian_1_2021-11-06_1404_C0009.mov</name>
						<enabled>TRUE</enabled>
						<duration>2051</duration>
						<rate>
							<timebase>24</timebase>
							<ntsc>TRUE</ntsc>
						</rate>
						<start>32988</start>
						<end>35039</end>
						<in>0</in>
						<out>2051</out>
						<file id="file-413"/>
						<sourcetrack>
							<mediatype>audio</mediatype>
							<trackindex>2</trackindex>
						</sourcetrack>
						<link>
							<linkclipref>clipitem-S3-A3-10</linkclipref>
							<mediatype>audio</mediatype>
							<trackindex>3</trackindex>
							<clipindex>10</clipindex>
							<groupindex>1</groupindex>
						</link>
						<link>
							<linkclipref>clipitem-S3-A4-10</linkclipref>
							<mediatype>audio</mediatype>
							<trackindex>4</trackindex>
							<clipindex>10</clipindex>
							<groupindex>1</groupindex>
						</link>
						<link>
							<linkclipref>clipitem-S3-V2-10</linkclipref>
							<mediatype>video</mediatype>
							<trackindex>2</trackindex>
							<clipindex>10</clipindex>
						</link>
						<labels>
							<label2>Iris</label2>
						</labels>
					</clipitem>
					<clipitem id="clipitem-S3-A4-11" premiereChannelType="stereo">
						<name>julian_1_2021-11-06_1406_C0010.mov</name>
						<enabled>TRUE</enabled>
						<duration>3605</duration>
						<rate>
							<timebase>24</timebase>
							<ntsc>TRUE</ntsc>
						</rate>
						<start>35529</start>
						<end>39134</end>
						<in>0</in>
						<out>3605</out>
						<file id="file-414"/>
						<sourcetrack>
							<mediatype>audio</mediatype>
							<trackindex>2</trackindex>
						</sourcetrack>
						<link>
							<linkclipref>clipitem-S3-A3-11</linkclipref>
							<mediatype>audio</mediatype>
							<trackindex>3</trackindex>
							<clipindex>11</clipindex>
							<groupindex>1</groupindex>
						</link>
						<link>
							<linkclipref>clipitem-S3-A4-11</linkclipref>
							<mediatype>audio</mediatype>
							<trackindex>4</trackindex>
							<clipindex>11</clipindex>
							<groupindex>1</groupindex>
						</link>
						<link>
							<linkclipref>clipitem-S3-V2-11</linkclipref>
							<mediatype>video</mediatype>
							<trackindex>2</trackindex>
							<clipindex>11</clipindex>
						</link>
						<labels>
							<label2>Iris</label2>
						</labels>
					</clipitem>
					<clipitem id="clipitem-S3-A4-12" premiereChannelType="stereo">
						<name>julian_1_2021-11-06_1409_C0011.mov</name>
						<enabled>TRUE</enabled>
						<duration>3146</duration>
						<rate>
							<timebase>24</timebase>
							<ntsc>TRUE</ntsc>
						</rate>
						<start>39949</start>
						<end>43095</end>
						<in>0</in>
						<out>3146</out>
						<file id="file-415"/>
						<sourcetrack>
							<mediatype>audio</mediatype>
							<trackindex>2</trackindex>
						</sourcetrack>
						<link>
							<linkclipref>clipitem-S3-A3-12</linkclipref>
							<mediatype>audio</mediatype>
							<trackindex>3</trackindex>
							<clipindex>12</clipindex>
							<groupindex>1</groupindex>
						</link>
						<link>
							<linkclipref>clipitem-S3-A4-12</linkclipref>
							<mediatype>audio</mediatype>
							<trackindex>4</trackindex>
							<clipindex>12</clipindex>
							<groupindex>1</groupindex>
						</link>
						<link>
							<linkclipref>clipitem-S3-V2-12</linkclipref>
							<mediatype>video</mediatype>
							<trackindex>2</trackindex>
							<clipindex>12</clipindex>
						</link>
						<labels>
							<label2>Iris</label2>
						</labels>
					</clipitem>
					<clipitem id="clipitem-S3-A4-13" premiereChannelType="stereo">
						<name>julian_1_2021-11-06_1411_C0012.mov</name>
						<enabled>TRUE</enabled>
						<duration>1373</duration>
						<rate>
							<timebase>24</timebase>
							<ntsc>TRUE</ntsc>
						</rate>
						<start>43358</start>
						<end>44731</end>
						<in>0</in>
						<out>1373</out>
						<file id="file-416"/>
						<sourcetrack>
							<mediatype>audio</mediatype>
							<trackindex>2</trackindex>
						</sourcetrack>
						<link>
							<linkclipref>clipitem-S3-A3-13</linkclipref>
							<mediatype>audio</mediatype>
							<trackindex>3</trackindex>
							<clipindex>13</clipindex>
							<groupindex>1</groupindex>
						</link>
						<link>
							<linkclipref>clipitem-S3-A4-13</linkclipref>
							<mediatype>audio</mediatype>
							<trackindex>4</trackindex>
							<clipindex>13</clipindex>
							<groupindex>1</groupindex>
						</link>
						<link>
							<linkclipref>clipitem-S3-V2-13</linkclipref>
							<mediatype>video</mediatype>
							<trackindex>2</trackindex>
							<clipindex>13</clipindex>
						</link>
						<labels>
							<label2>Iris</label2>
						</labels>
					</clipitem>
					<clipitem id="clipitem-S3-A4-14" premiereChannelType="stereo">
						<name>julian_1_2021-11-06_1412_C0013.mov</name>
						<enabled>TRUE</enabled>
						<duration>4243</duration>
						<rate>
							<timebase>24</timebase>
							<ntsc>TRUE</ntsc>
						</rate>
						<start>44819</start>
						<end>49062</end>
						<in>0</in>
						<out>4243</out>
						<file id="file-417"/>
						<sourcetrack>
							<mediatype>audio</mediatype>
							<trackindex>2</trackindex>
						</sourcetrack>
						<link>
							<linkclipref>clipitem-S3-A3-14</linkclipref>
							<mediatype>audio</mediatype>
							<trackindex>3</trackindex>
							<clipindex>14</clipindex>
							<groupindex>1</groupindex>
						</link>
						<link>
							<linkclipref>clipitem-S3-A4-14</linkclipref>
							<mediatype>audio</mediatype>
							<trackindex>4</trackindex>
							<clipindex>14</clipindex>
							<groupindex>1</groupindex>
						</link>
						<link>
							<linkclipref>clipitem-S3-V2-14</linkclipref>
							<mediatype>video</mediatype>
							<trackindex>2</trackindex>
							<clipindex>14</clipindex>
						</link>
						<labels>
							<label2>Iris</label2>
						</labels>
					</clipitem>
					<enabled>TRUE</enabled>
					<locked>FALSE</locked>
					<outputchannelindex>2</outputchannelindex>
				</track>
				<track currentExplodedTrackIndex="0" totalExplodedTrackCount="2" premiereTrackType="Stereo">
					<clipitem id="clipitem-S3-A5-1" premiereChannelType="stereo">
						<name>Ross 1.27.WAV</name>
						<enabled>TRUE</enabled>
						<duration>49830</duration>
						<rate>
							<timebase>24</timebase>
							<ntsc>TRUE</ntsc>
						</rate>
						<start>0</start>
						<end>49830</end>
						<in>0</in>
						<out>49830</out>
						<file id="file-418">
							<name>Ross 1.27.WAV</name>
							<pathurl>/Volumes/tiesta/03_Audio/Lilongwe/Ross 1.27.WAV</pathurl>
							<rate>
								<timebase>24</timebase>
								<ntsc>TRUE</ntsc>
							</rate>
							<duration>49830</duration>
							<timecode>
								<string>11:30:48:13</string>
								<displayformat>NDF</displayformat>
								<frame>994765</frame>
								<rate>
									<timebase>24</timebase>
									<ntsc>TRUE</ntsc>
								</rate>
							</timecode>
							<media>
								<audio>
									<samplecharacteristics>
										<depth>16</depth>
										<samplerate>48000</samplerate>
									</samplecharacteristics>
									<channelcount>2</channelcount>
								</audio>
							</media>
						</file>
						<sourcetrack>
							<mediatype>audio</mediatype>
							<trackindex>1</trackindex>
						</sourcetrack>
						<link>
							<linkclipref>clipitem-S3-A5-1</linkclipref>
							<mediatype>audio</mediatype>
							<trackindex>5</trackindex>
							<clipindex>1</clipindex>
							<groupindex>1</groupindex>
						</link>
						<link>
							<linkclipref>clipitem-S3-A6-1</linkclipref>
							<mediatype>audio</mediatype>
							<trackindex>6</trackindex>
							<clipindex>1</clipindex>
							<groupindex>1</groupindex>
						</link>
						<labels>
							<label2>Caribbean</label2>
						</labels>
					</clipitem>
					<enabled>TRUE</enabled>
					<locked>FALSE</locked>
					<outputchannelindex>1</outputchannelindex>
				</track>
				<track currentExplodedTrackIndex="1" totalExplodedTrackCount="2" premiereTrackType="Stereo">
					<clipitem id="clipitem-S3-A6-1" premiereChannelType="stereo">
						<name>Ross 1.27.WAV</name>
						<enabled>TRUE</enabled>
						<duration>49830</duration>
						<rate>
							<timebase>24</timebase>
							<ntsc>TRUE</ntsc>
						</rate>
						<start>0</start>
						<end>49830</end>
						<in>0</in>
						<out>49830</out>
						<file id="file-418"/>
						<sourcetrack>
							<mediatype>audio</mediatype>
							<trackindex>2</trackindex>
						</sourcetrack>
						<link>
							<linkclipref>clipitem-S3-A5-1</linkclipref>
							<mediatype>audio</mediatype>
							<trackindex>5</trackindex>
							<clipindex>1</clipindex>
							<groupindex>1</groupindex>
						</link>
						<link>
							<linkclipref>clipitem-S3-A6-1</linkclipref>
							<mediatype>audio</mediatype>
							<trackindex>6</trackindex>
							<clipindex>1</clipindex>
							<groupindex>1</groupindex>
						</link>
						<labels>
							<label2>Caribbean</label2>
						</labels>
					</clipitem>
					<enabled>TRUE</enabled>
					<locked>FALSE</locked>
					<outputchannelindex>2</outputchannelindex>
				</track>
			</audio>
		</media>
	</sequence>
</xmeml>
