<xmeml version="4"><sequence id="sequence-2" TL_SQAudioVisibleBase="0" TL_SQVideoVisibleBase="0" TL_SQVisibleBaseTime="0" TL_SQAVDividerPosition="0.5" TL_SQHideShyTracks="0" TL_SQHeaderWidth="236" TL_SQDataTrackViewControlState="0" Monitor_ProgramZoomOut="340011984312000" Monitor_ProgramZoomIn="0" TL_SQTimePerPixel="1.6034289012958367" MZ_EditLine="333083126376000" MZ_Sequence_PreviewFrameSizeHeight="1080" MZ_Sequence_PreviewFrameSizeWidth="1920" MZ_Sequence_AudioTimeDisplayFormat="200" MZ_Sequence_PreviewUseMaxRenderQuality="false" MZ_Sequence_PreviewUseMaxBitDepth="false" MZ_Sequence_VideoTimeDisplayFormat="110" MZ_WorkOutPoint="15235011792000" MZ_WorkInPoint="0" MZ_ZeroPoint="0" explodedTracks="true"><uuid>50e61931-251f-4069-8193-a3fbad7f93ff</uuid><duration>31533</duration><rate><timebase>24</timebase><ntsc>TRUE</ntsc></rate><name>../06_Export XMLs/Wayuu/magalys-test</name><media><audio><numOutputChannels>2</numOutputChannels><format><samplecharacteristics><depth>16</depth><samplerate>48000</samplerate></samplecharacteristics></format><outputs><group><index>1</index><numchannels>1</numchannels><downmix>0</downmix><channel><index>1</index></channel></group><group><index>2</index><numchannels>1</numchannels><downmix>0</downmix><channel><index>2</index></channel></group></outputs><track TL_SQTrackAudioKeyframeStyle="0" TL_SQTrackShy="0" TL_SQTrackExpandedHeight="25" TL_SQTrackExpanded="0" MZ_TrackTargeted="1" PannerCurrentValue="0.5" PannerIsInverted="true" PannerStartKeyframe="-91445760000000000,0.5,0,0,0,0,0,0" PannerName="Balance" currentExplodedTrackIndex="0" totalExplodedTrackCount="2" premiereTrackType="Stereo"><clipitem id="clipitem-7c5a980f4b644c37b41a1c8122c7abf3" premiereChannelType="stereo">
						<masterclipid>masterclip-508</masterclipid>
						<name>magalys electrico - clip.mp3</name>
						<enabled>TRUE</enabled>
						<duration>51215</duration>
						<rate>
							<timebase>24</timebase>
							<ntsc>TRUE</ntsc>
						</rate>
						<start>38472</start>
						<end>39168</end>
						<in>3330</in>
						<out>4026</out>
						<pproTicksIn>35562240000000</pproTicksIn>
						<pproTicksOut>42928704000000</pproTicksOut>
						<file id="file-508">
							<name>magalys electrico - clip.mp3</name>
							<pathurl>file://localhost/Volumes/aqua/03_Interviews/Wayuu/Audio/Clipped/magalys%20electrico%20-%20clip.mp3</pathurl>
							<rate>
								<timebase>30</timebase>
								<ntsc>TRUE</ntsc>
							</rate>
							<duration>51215</duration>
							<timecode>
								<rate>
									<timebase>30</timebase>
									<ntsc>TRUE</ntsc>
								</rate>
								<string>00;00;00;00</string>
								<frame>0</frame>
								<displayformat>DF</displayformat>
							</timecode>
							<media>
								<audio>
									<samplecharacteristics>
										<depth>16</depth>
										<samplerate>48000</samplerate>
									</samplecharacteristics>
									<channelcount>2</channelcount>
								</audio>
							</media>
						</file>
						<sourcetrack>
							<mediatype>audio</mediatype>
							<trackindex>1</trackindex>
						</sourcetrack>
						<filter>
							<effect>
								<name>Audio Levels</name>
								<effectid>audiolevels</effectid>
								<effectcategory>audiolevels</effectcategory>
								<effecttype>audiolevels</effecttype>
								<mediatype>audio</mediatype>
								<pproBypass>false</pproBypass>
								<parameter authoringApp="PremierePro">
									<parameterid>level</parameterid>
									<name>Level</name>
									<valuemin>0</valuemin>
									<valuemax>3.98109</valuemax>
									<value>1</value>
								</parameter>
							</effect>
						</filter>
						<link>
							<linkclipref>clipitem-7c5a980f4b644c37b41a1c8122c7abf3</linkclipref>
							<mediatype>audio</mediatype>
							<trackindex>1</trackindex>
							<clipindex>1</clipindex>
							<groupindex>1</groupindex>
						</link>
						<link>
							<linkclipref>clipitem-a06480a805674099b9163dbc2189e310</linkclipref>
							<mediatype>audio</mediatype>
							<trackindex>2</trackindex>
							<clipindex>1</clipindex>
							<groupindex>1</groupindex>
						</link>
						<logginginfo>
							<description />
							<scene />
							<shottake />
							<lognote />
							<good />
							<originalvideofilename />
							<originalaudiofilename />
						</logginginfo>
						<colorinfo>
							<lut />
							<lut1 />
							<asc_sop />
							<asc_sat />
							<lut2 />
						</colorinfo>
						<labels>
							<label2>Caribbean</label2>
						</labels>
					</clipitem>
					<clipitem id="clipitem-7c5a980f4b644c37b41a1c8122c7abf3" premiereChannelType="stereo">
						<masterclipid>masterclip-508</masterclipid>
						<name>magalys electrico - clip.mp3</name>
						<enabled>TRUE</enabled>
						<duration>51215</duration>
						<rate>
							<timebase>24</timebase>
							<ntsc>TRUE</ntsc>
						</rate>
						<start>39168</start>
						<end>39840</end>
						<in>11322</in>
						<out>11994</out>
						<pproTicksIn>120149568000000</pproTicksIn>
						<pproTicksOut>127262016000000</pproTicksOut>
						<file id="file-508">
							<name>magalys electrico - clip.mp3</name>
							<pathurl>file://localhost/Volumes/aqua/03_Interviews/Wayuu/Audio/Clipped/magalys%20electrico%20-%20clip.mp3</pathurl>
							<rate>
								<timebase>30</timebase>
								<ntsc>TRUE</ntsc>
							</rate>
							<duration>51215</duration>
							<timecode>
								<rate>
									<timebase>30</timebase>
									<ntsc>TRUE</ntsc>
								</rate>
								<string>00;00;00;00</string>
								<frame>0</frame>
								<displayformat>DF</displayformat>
							</timecode>
							<media>
								<audio>
									<samplecharacteristics>
										<depth>16</depth>
										<samplerate>48000</samplerate>
									</samplecharacteristics>
									<channelcount>2</channelcount>
								</audio>
							</media>
						</file>
						<sourcetrack>
							<mediatype>audio</mediatype>
							<trackindex>1</trackindex>
						</sourcetrack>
						<filter>
							<effect>
								<name>Audio Levels</name>
								<effectid>audiolevels</effectid>
								<effectcategory>audiolevels</effectcategory>
								<effecttype>audiolevels</effecttype>
								<mediatype>audio</mediatype>
								<pproBypass>false</pproBypass>
								<parameter authoringApp="PremierePro">
									<parameterid>level</parameterid>
									<name>Level</name>
									<valuemin>0</valuemin>
									<valuemax>3.98109</valuemax>
									<value>1</value>
								</parameter>
							</effect>
						</filter>
						<link>
							<linkclipref>clipitem-7c5a980f4b644c37b41a1c8122c7abf3</linkclipref>
							<mediatype>audio</mediatype>
							<trackindex>1</trackindex>
							<clipindex>1</clipindex>
							<groupindex>1</groupindex>
						</link>
						<link>
							<linkclipref>clipitem-a06480a805674099b9163dbc2189e310</linkclipref>
							<mediatype>audio</mediatype>
							<trackindex>2</trackindex>
							<clipindex>1</clipindex>
							<groupindex>1</groupindex>
						</link>
						<logginginfo>
							<description />
							<scene />
							<shottake />
							<lognote />
							<good />
							<originalvideofilename />
							<originalaudiofilename />
						</logginginfo>
						<colorinfo>
							<lut />
							<lut1 />
							<asc_sop />
							<asc_sat />
							<lut2 />
						</colorinfo>
						<labels>
							<label2>Caribbean</label2>
						</labels>
					</clipitem>
					<clipitem id="clipitem-331" premiereChannelType="mono">
						<masterclipid>masterclip-267</masterclipid>
						<name>Magalys y neko - walunka.m4a</name>
						<enabled>TRUE</enabled>
						<duration>39773</duration>
						<rate>
							<timebase>24</timebase>
							<ntsc>TRUE</ntsc>
						</rate>
						<start>39840</start>
						<end>40824</end>
						<in>6497</in>
						<out>7481</out>
						<pproTicksIn>254016000000</pproTicksIn>
						<pproTicksOut>10668672000000</pproTicksOut>
						<file id="file-267">
							<name>Magalys y neko - walunka.m4a</name>
							<pathurl>file://localhost/Users/ben/Downloads/Magalys%20y%20neko%20-%20walunka.m4a</pathurl>
							<rate>
								<timebase>30</timebase>
								<ntsc>TRUE</ntsc>
							</rate>
							<duration>39773</duration>
							<timecode>
								<rate>
									<timebase>30</timebase>
									<ntsc>TRUE</ntsc>
								</rate>
								<string>00;00;00;00</string>
								<frame>0</frame>
								<displayformat>DF</displayformat>
							</timecode>
							<media>
								<audio>
									<samplecharacteristics>
										<depth>16</depth>
										<samplerate>48000</samplerate>
									</samplecharacteristics>
									<channelcount>1</channelcount>
									<audiochannel>
										<sourcechannel>1</sourcechannel>
									</audiochannel>
								</audio>
							</media>
						</file>
						<sourcetrack>
							<mediatype>audio</mediatype>
							<trackindex>1</trackindex>
						</sourcetrack>
						<filter>
							<effect>
								<name>Audio Levels</name>
								<effectid>audiolevels</effectid>
								<effectcategory>audiolevels</effectcategory>
								<effecttype>audiolevels</effecttype>
								<mediatype>audio</mediatype>
								<pproBypass>false</pproBypass>
								<parameter authoringApp="PremierePro">
									<parameterid>level</parameterid>
									<name>Level</name>
									<valuemin>0</valuemin>
									<valuemax>3.98109</valuemax>
									<value>2.23872</value>
								</parameter>
							</effect>
						</filter>
						<logginginfo>
							<description />
							<scene />
							<shottake />
							<lognote />
							<good />
							<originalvideofilename />
							<originalaudiofilename />
						</logginginfo>
						<colorinfo>
							<lut />
							<lut1 />
							<asc_sop />
							<asc_sat />
							<lut2 />
						</colorinfo>
						<labels>
							<label2>Caribbean</label2>
						</labels>
					</clipitem>
					<clipitem id="clipitem-332" premiereChannelType="mono">
						<masterclipid>masterclip-268</masterclipid>
						<name>walunka - clip (enhanced).wav</name>
						<enabled>TRUE</enabled>
						<duration>31656</duration>
						<rate>
							<timebase>24</timebase>
							<ntsc>TRUE</ntsc>
						</rate>
						<start>39840</start>
						<end>40824</end>
						<in>25</in>
						<out>1009</out>
						<pproTicksIn>254016000000</pproTicksIn>
						<pproTicksOut>10668672000000</pproTicksOut>
						<file id="file-268">
							<name>walunka - clip (enhanced).wav</name>
							<pathurl>file://localhost/Users/ben/Downloads/walunka%20-%20clip%20(enhanced).wav</pathurl>
							<rate>
								<timebase>30</timebase>
								<ntsc>TRUE</ntsc>
							</rate>
							<duration>31656</duration>
							<timecode>
								<rate>
									<timebase>30</timebase>
									<ntsc>TRUE</ntsc>
								</rate>
								<string>00;00;00;00</string>
								<frame>0</frame>
								<displayformat>DF</displayformat>
							</timecode>
							<media>
								<audio>
									<samplecharacteristics>
										<depth>16</depth>
										<samplerate>48000</samplerate>
									</samplecharacteristics>
									<channelcount>1</channelcount>
									<audiochannel>
										<sourcechannel>1</sourcechannel>
									</audiochannel>
								</audio>
							</media>
						</file>
						<sourcetrack>
							<mediatype>audio</mediatype>
							<trackindex>1</trackindex>
						</sourcetrack>
						<filter>
							<effect>
								<name>Audio Levels</name>
								<effectid>audiolevels</effectid>
								<effectcategory>audiolevels</effectcategory>
								<effecttype>audiolevels</effecttype>
								<mediatype>audio</mediatype>
								<pproBypass>false</pproBypass>
								<parameter authoringApp="PremierePro">
									<parameterid>level</parameterid>
									<name>Level</name>
									<valuemin>0</valuemin>
									<valuemax>3.98109</valuemax>
									<value>0.177828</value>
								</parameter>
							</effect>
						</filter>
						<logginginfo>
							<description />
							<scene />
							<shottake />
							<lognote />
							<good />
							<originalvideofilename />
							<originalaudiofilename />
						</logginginfo>
						<colorinfo>
							<lut />
							<lut1 />
							<asc_sop />
							<asc_sat />
							<lut2 />
						</colorinfo>
						<labels>
							<label2>Caribbean</label2>
						</labels>
					</clipitem>
					<clipitem id="clipitem-331" premiereChannelType="mono">
						<masterclipid>masterclip-267</masterclipid>
						<name>Magalys y neko - walunka.m4a</name>
						<enabled>TRUE</enabled>
						<duration>39773</duration>
						<rate>
							<timebase>24</timebase>
							<ntsc>TRUE</ntsc>
						</rate>
						<start>40824</start>
						<end>41664</end>
						<in>15761</in>
						<out>16601</out>
						<pproTicksIn>98304192000000</pproTicksIn>
						<pproTicksOut>107194752000000</pproTicksOut>
						<file id="file-267">
							<name>Magalys y neko - walunka.m4a</name>
							<pathurl>file://localhost/Users/ben/Downloads/Magalys%20y%20neko%20-%20walunka.m4a</pathurl>
							<rate>
								<timebase>30</timebase>
								<ntsc>TRUE</ntsc>
							</rate>
							<duration>39773</duration>
							<timecode>
								<rate>
									<timebase>30</timebase>
									<ntsc>TRUE</ntsc>
								</rate>
								<string>00;00;00;00</string>
								<frame>0</frame>
								<displayformat>DF</displayformat>
							</timecode>
							<media>
								<audio>
									<samplecharacteristics>
										<depth>16</depth>
										<samplerate>48000</samplerate>
									</samplecharacteristics>
									<channelcount>1</channelcount>
									<audiochannel>
										<sourcechannel>1</sourcechannel>
									</audiochannel>
								</audio>
							</media>
						</file>
						<sourcetrack>
							<mediatype>audio</mediatype>
							<trackindex>1</trackindex>
						</sourcetrack>
						<filter>
							<effect>
								<name>Audio Levels</name>
								<effectid>audiolevels</effectid>
								<effectcategory>audiolevels</effectcategory>
								<effecttype>audiolevels</effecttype>
								<mediatype>audio</mediatype>
								<pproBypass>false</pproBypass>
								<parameter authoringApp="PremierePro">
									<parameterid>level</parameterid>
									<name>Level</name>
									<valuemin>0</valuemin>
									<valuemax>3.98109</valuemax>
									<value>2.23872</value>
								</parameter>
							</effect>
						</filter>
						<logginginfo>
							<description />
							<scene />
							<shottake />
							<lognote />
							<good />
							<originalvideofilename />
							<originalaudiofilename />
						</logginginfo>
						<colorinfo>
							<lut />
							<lut1 />
							<asc_sop />
							<asc_sat />
							<lut2 />
						</colorinfo>
						<labels>
							<label2>Caribbean</label2>
						</labels>
					</clipitem>
					<clipitem id="clipitem-332" premiereChannelType="mono">
						<masterclipid>masterclip-268</masterclipid>
						<name>walunka - clip (enhanced).wav</name>
						<enabled>TRUE</enabled>
						<duration>31656</duration>
						<rate>
							<timebase>24</timebase>
							<ntsc>TRUE</ntsc>
						</rate>
						<start>40824</start>
						<end>41664</end>
						<in>9289</in>
						<out>10129</out>
						<pproTicksIn>98304192000000</pproTicksIn>
						<pproTicksOut>107194752000000</pproTicksOut>
						<file id="file-268">
							<name>walunka - clip (enhanced).wav</name>
							<pathurl>file://localhost/Users/ben/Downloads/walunka%20-%20clip%20(enhanced).wav</pathurl>
							<rate>
								<timebase>30</timebase>
								<ntsc>TRUE</ntsc>
							</rate>
							<duration>31656</duration>
							<timecode>
								<rate>
									<timebase>30</timebase>
									<ntsc>TRUE</ntsc>
								</rate>
								<string>00;00;00;00</string>
								<frame>0</frame>
								<displayformat>DF</displayformat>
							</timecode>
							<media>
								<audio>
									<samplecharacteristics>
										<depth>16</depth>
										<samplerate>48000</samplerate>
									</samplecharacteristics>
									<channelcount>1</channelcount>
									<audiochannel>
										<sourcechannel>1</sourcechannel>
									</audiochannel>
								</audio>
							</media>
						</file>
						<sourcetrack>
							<mediatype>audio</mediatype>
							<trackindex>1</trackindex>
						</sourcetrack>
						<filter>
							<effect>
								<name>Audio Levels</name>
								<effectid>audiolevels</effectid>
								<effectcategory>audiolevels</effectcategory>
								<effecttype>audiolevels</effecttype>
								<mediatype>audio</mediatype>
								<pproBypass>false</pproBypass>
								<parameter authoringApp="PremierePro">
									<parameterid>level</parameterid>
									<name>Level</name>
									<valuemin>0</valuemin>
									<valuemax>3.98109</valuemax>
									<value>0.177828</value>
								</parameter>
							</effect>
						</filter>
						<logginginfo>
							<description />
							<scene />
							<shottake />
							<lognote />
							<good />
							<originalvideofilename />
							<originalaudiofilename />
						</logginginfo>
						<colorinfo>
							<lut />
							<lut1 />
							<asc_sop />
							<asc_sat />
							<lut2 />
						</colorinfo>
						<labels>
							<label2>Caribbean</label2>
						</labels>
					</clipitem>
					<clipitem id="clipitem-b1c9119ec2fc4c7d8be0d30a13cb9880" premiereChannelType="stereo">
						<masterclipid>masterclip-747</masterclipid>
						<name>magalys polanco hammock - clip.mp3</name>
						<enabled>TRUE</enabled>
						<duration>90946</duration>
						<rate>
							<timebase>24</timebase>
							<ntsc>TRUE</ntsc>
						</rate>
						<start>41664</start>
						<end>43032</end>
						<in>5808</in>
						<out>7176</out>
						<pproTicksIn>61471872000000</pproTicksIn>
						<pproTicksOut>75950784000000</pproTicksOut>
						<file id="file-747">
							<name>magalys polanco hammock - clip.mp3</name>
							<pathurl>file://localhost/Volumes/aqua/00_Footage/4)%20Wayuu/sony/nazareth/../../../../03_Interviews/Wayuu/Audio/Clipped/magalys%20polanco%20hammock%20-%20clip.mp3</pathurl>
							<rate>
								<timebase>30</timebase>
								<ntsc>TRUE</ntsc>
							</rate>
							<duration>90946</duration>
							<timecode>
								<rate>
									<timebase>30</timebase>
									<ntsc>TRUE</ntsc>
								</rate>
								<string>00;00;00;00</string>
								<frame>0</frame>
								<displayformat>DF</displayformat>
							</timecode>
							<media>
								<audio>
									<samplecharacteristics>
										<depth>16</depth>
										<samplerate>48000</samplerate>
									</samplecharacteristics>
									<channelcount>2</channelcount>
								</audio>
							</media>
						</file>
						<sourcetrack>
							<mediatype>audio</mediatype>
							<trackindex>1</trackindex>
						</sourcetrack>
						<filter>
							<effect>
								<name>Audio Levels</name>
								<effectid>audiolevels</effectid>
								<effectcategory>audiolevels</effectcategory>
								<effecttype>audiolevels</effecttype>
								<mediatype>audio</mediatype>
								<pproBypass>false</pproBypass>
								<parameter authoringApp="PremierePro">
									<parameterid>level</parameterid>
									<name>Level</name>
									<valuemin>0</valuemin>
									<valuemax>3.98109</valuemax>
									<value>2.76452</value>
									<keyframe>
										<when>0</when>
										<value>0</value>
									</keyframe>
									<keyframe>
										<when>100</when>
										<value>0.445905</value>
									</keyframe>
									<keyframe>
										<when>186</when>
										<value>2.76452</value>
									</keyframe>
								</parameter>
							</effect>
						</filter>
						<filter>
							<effect>
								<name>High Pass Filter</name>
								<effectid>{61756678, 48506173, 4b657947}</effectid>
								<effecttype>filter</effecttype>
								<mediatype>audio</mediatype>
								<pproBypass>false</pproBypass>
								<parameter authoringApp="PremierePro">
									<parameterid>Frequency</parameterid>
									<name>Frequency</name>
									<valuemin>10</valuemin>
									<valuemax>20000</valuemax>
									<value>400.002</value>
								</parameter>
							</effect>
						</filter>
						<link>
							<linkclipref>clipitem-b1c9119ec2fc4c7d8be0d30a13cb9880</linkclipref>
							<mediatype>audio</mediatype>
							<trackindex>1</trackindex>
							<clipindex>1</clipindex>
							<groupindex>1</groupindex>
						</link>
						<link>
							<linkclipref>clipitem-29b1aeffc155434997697dc513110111</linkclipref>
							<mediatype>audio</mediatype>
							<trackindex>2</trackindex>
							<clipindex>1</clipindex>
							<groupindex>1</groupindex>
						</link>
						<logginginfo>
							<description />
							<scene />
							<shottake />
							<lognote />
							<good />
							<originalvideofilename />
							<originalaudiofilename />
						</logginginfo>
						<colorinfo>
							<lut />
							<lut1 />
							<asc_sop />
							<asc_sat />
							<lut2 />
						</colorinfo>
						<labels>
							<label2>Caribbean</label2>
						</labels>
					</clipitem>
					<clipitem id="clipitem-5e7578f1fc9441e2b7c2a1e8d9e04be2" premiereChannelType="mono">
						<masterclipid>masterclip-748</masterclipid>
						<name>magalys polanco hammock - clip (enhanced).wav</name>
						<enabled>TRUE</enabled>
						<duration>90935</duration>
						<rate>
							<timebase>24</timebase>
							<ntsc>TRUE</ntsc>
						</rate>
						<start>41664</start>
						<end>43032</end>
						<in>5808</in>
						<out>7176</out>
						<pproTicksIn>61471872000000</pproTicksIn>
						<pproTicksOut>75950784000000</pproTicksOut>
						<file id="file-748">
							<name>magalys polanco hammock - clip (enhanced).wav</name>
							<pathurl>file://localhost/Users/ben/Downloads/magalys%20polanco%20hammock%20-%20clip%20(enhanced).wav</pathurl>
							<rate>
								<timebase>30</timebase>
								<ntsc>TRUE</ntsc>
							</rate>
							<duration>90935</duration>
							<timecode>
								<rate>
									<timebase>30</timebase>
									<ntsc>TRUE</ntsc>
								</rate>
								<string>00;00;00;00</string>
								<frame>0</frame>
								<displayformat>DF</displayformat>
							</timecode>
							<media>
								<audio>
									<samplecharacteristics>
										<depth>16</depth>
										<samplerate>48000</samplerate>
									</samplecharacteristics>
									<channelcount>1</channelcount>
									<audiochannel>
										<sourcechannel>1</sourcechannel>
									</audiochannel>
								</audio>
							</media>
						</file>
						<sourcetrack>
							<mediatype>audio</mediatype>
							<trackindex>1</trackindex>
						</sourcetrack>
						<filter>
							<effect>
								<name>Audio Levels</name>
								<effectid>audiolevels</effectid>
								<effectcategory>audiolevels</effectcategory>
								<effecttype>audiolevels</effecttype>
								<mediatype>audio</mediatype>
								<pproBypass>false</pproBypass>
								<parameter authoringApp="PremierePro">
									<parameterid>level</parameterid>
									<name>Level</name>
									<valuemin>0</valuemin>
									<valuemax>3.98109</valuemax>
									<value>0.708363</value>
									<keyframe>
										<when>204</when>
										<value>0.446684</value>
									</keyframe>
									<keyframe>
										<when>269</when>
										<value>0.751789</value>
									</keyframe>
									<keyframe>
										<when>52394</when>
										<value>0.422761</value>
									</keyframe>
									<keyframe>
										<when>53817</when>
										<value>0.768299</value>
									</keyframe>
									<keyframe>
										<when>55315</when>
										<value>0.474346</value>
									</keyframe>
								</parameter>
							</effect>
						</filter>
						<logginginfo>
							<description />
							<scene />
							<shottake />
							<lognote />
							<good />
							<originalvideofilename />
							<originalaudiofilename />
						</logginginfo>
						<colorinfo>
							<lut />
							<lut1 />
							<asc_sop />
							<asc_sat />
							<lut2 />
						</colorinfo>
						<labels>
							<label2>Caribbean</label2>
						</labels>
					</clipitem>
					<clipitem id="clipitem-b1c9119ec2fc4c7d8be0d30a13cb9880" premiereChannelType="stereo">
						<masterclipid>masterclip-747</masterclipid>
						<name>magalys polanco hammock - clip.mp3</name>
						<enabled>TRUE</enabled>
						<duration>90946</duration>
						<rate>
							<timebase>24</timebase>
							<ntsc>TRUE</ntsc>
						</rate>
						<start>43032</start>
						<end>43968</end>
						<in>39312</in>
						<out>40248</out>
						<pproTicksIn>416078208000000</pproTicksIn>
						<pproTicksOut>425984832000000</pproTicksOut>
						<file id="file-747">
							<name>magalys polanco hammock - clip.mp3</name>
							<pathurl>file://localhost/Volumes/aqua/00_Footage/4)%20Wayuu/sony/nazareth/../../../../03_Interviews/Wayuu/Audio/Clipped/magalys%20polanco%20hammock%20-%20clip.mp3</pathurl>
							<rate>
								<timebase>30</timebase>
								<ntsc>TRUE</ntsc>
							</rate>
							<duration>90946</duration>
							<timecode>
								<rate>
									<timebase>30</timebase>
									<ntsc>TRUE</ntsc>
								</rate>
								<string>00;00;00;00</string>
								<frame>0</frame>
								<displayformat>DF</displayformat>
							</timecode>
							<media>
								<audio>
									<samplecharacteristics>
										<depth>16</depth>
										<samplerate>48000</samplerate>
									</samplecharacteristics>
									<channelcount>2</channelcount>
								</audio>
							</media>
						</file>
						<sourcetrack>
							<mediatype>audio</mediatype>
							<trackindex>1</trackindex>
						</sourcetrack>
						<filter>
							<effect>
								<name>Audio Levels</name>
								<effectid>audiolevels</effectid>
								<effectcategory>audiolevels</effectcategory>
								<effecttype>audiolevels</effecttype>
								<mediatype>audio</mediatype>
								<pproBypass>false</pproBypass>
								<parameter authoringApp="PremierePro">
									<parameterid>level</parameterid>
									<name>Level</name>
									<valuemin>0</valuemin>
									<valuemax>3.98109</valuemax>
									<value>2.76452</value>
									<keyframe>
										<when>0</when>
										<value>0</value>
									</keyframe>
									<keyframe>
										<when>100</when>
										<value>0.445905</value>
									</keyframe>
									<keyframe>
										<when>186</when>
										<value>2.76452</value>
									</keyframe>
								</parameter>
							</effect>
						</filter>
						<filter>
							<effect>
								<name>High Pass Filter</name>
								<effectid>{61756678, 48506173, 4b657947}</effectid>
								<effecttype>filter</effecttype>
								<mediatype>audio</mediatype>
								<pproBypass>false</pproBypass>
								<parameter authoringApp="PremierePro">
									<parameterid>Frequency</parameterid>
									<name>Frequency</name>
									<valuemin>10</valuemin>
									<valuemax>20000</valuemax>
									<value>400.002</value>
								</parameter>
							</effect>
						</filter>
						<link>
							<linkclipref>clipitem-b1c9119ec2fc4c7d8be0d30a13cb9880</linkclipref>
							<mediatype>audio</mediatype>
							<trackindex>1</trackindex>
							<clipindex>1</clipindex>
							<groupindex>1</groupindex>
						</link>
						<link>
							<linkclipref>clipitem-29b1aeffc155434997697dc513110111</linkclipref>
							<mediatype>audio</mediatype>
							<trackindex>2</trackindex>
							<clipindex>1</clipindex>
							<groupindex>1</groupindex>
						</link>
						<logginginfo>
							<description />
							<scene />
							<shottake />
							<lognote />
							<good />
							<originalvideofilename />
							<originalaudiofilename />
						</logginginfo>
						<colorinfo>
							<lut />
							<lut1 />
							<asc_sop />
							<asc_sat />
							<lut2 />
						</colorinfo>
						<labels>
							<label2>Caribbean</label2>
						</labels>
					</clipitem>
					<clipitem id="clipitem-5e7578f1fc9441e2b7c2a1e8d9e04be2" premiereChannelType="mono">
						<masterclipid>masterclip-748</masterclipid>
						<name>magalys polanco hammock - clip (enhanced).wav</name>
						<enabled>TRUE</enabled>
						<duration>90935</duration>
						<rate>
							<timebase>24</timebase>
							<ntsc>TRUE</ntsc>
						</rate>
						<start>43032</start>
						<end>43968</end>
						<in>39312</in>
						<out>40248</out>
						<pproTicksIn>416078208000000</pproTicksIn>
						<pproTicksOut>425984832000000</pproTicksOut>
						<file id="file-748">
							<name>magalys polanco hammock - clip (enhanced).wav</name>
							<pathurl>file://localhost/Users/ben/Downloads/magalys%20polanco%20hammock%20-%20clip%20(enhanced).wav</pathurl>
							<rate>
								<timebase>30</timebase>
								<ntsc>TRUE</ntsc>
							</rate>
							<duration>90935</duration>
							<timecode>
								<rate>
									<timebase>30</timebase>
									<ntsc>TRUE</ntsc>
								</rate>
								<string>00;00;00;00</string>
								<frame>0</frame>
								<displayformat>DF</displayformat>
							</timecode>
							<media>
								<audio>
									<samplecharacteristics>
										<depth>16</depth>
										<samplerate>48000</samplerate>
									</samplecharacteristics>
									<channelcount>1</channelcount>
									<audiochannel>
										<sourcechannel>1</sourcechannel>
									</audiochannel>
								</audio>
							</media>
						</file>
						<sourcetrack>
							<mediatype>audio</mediatype>
							<trackindex>1</trackindex>
						</sourcetrack>
						<filter>
							<effect>
								<name>Audio Levels</name>
								<effectid>audiolevels</effectid>
								<effectcategory>audiolevels</effectcategory>
								<effecttype>audiolevels</effecttype>
								<mediatype>audio</mediatype>
								<pproBypass>false</pproBypass>
								<parameter authoringApp="PremierePro">
									<parameterid>level</parameterid>
									<name>Level</name>
									<valuemin>0</valuemin>
									<valuemax>3.98109</valuemax>
									<value>0.708363</value>
									<keyframe>
										<when>204</when>
										<value>0.446684</value>
									</keyframe>
									<keyframe>
										<when>269</when>
										<value>0.751789</value>
									</keyframe>
									<keyframe>
										<when>52394</when>
										<value>0.422761</value>
									</keyframe>
									<keyframe>
										<when>53817</when>
										<value>0.768299</value>
									</keyframe>
									<keyframe>
										<when>55315</when>
										<value>0.474346</value>
									</keyframe>
								</parameter>
							</effect>
						</filter>
						<logginginfo>
							<description />
							<scene />
							<shottake />
							<lognote />
							<good />
							<originalvideofilename />
							<originalaudiofilename />
						</logginginfo>
						<colorinfo>
							<lut />
							<lut1 />
							<asc_sop />
							<asc_sat />
							<lut2 />
						</colorinfo>
						<labels>
							<label2>Caribbean</label2>
						</labels>
					</clipitem>
					</track><track TL_SQTrackAudioKeyframeStyle="0" TL_SQTrackShy="0" TL_SQTrackExpandedHeight="25" TL_SQTrackExpanded="0" MZ_TrackTargeted="1" PannerCurrentValue="0.5" PannerIsInverted="true" PannerStartKeyframe="-91445760000000000,0.5,0,0,0,0,0,0" PannerName="Balance" currentExplodedTrackIndex="1" totalExplodedTrackCount="2" premiereTrackType="Stereo"><clipitem id="clipitem-a06480a805674099b9163dbc2189e310" premiereChannelType="stereo">
						<masterclipid>masterclip-508</masterclipid>
						<name>magalys electrico - clip.mp3</name>
						<enabled>TRUE</enabled>
						<duration>51215</duration>
						<rate>
							<timebase>24</timebase>
							<ntsc>TRUE</ntsc>
						</rate>
						<start>38472</start>
						<end>39168</end>
						<in>3330</in>
						<out>4026</out>
						<pproTicksIn>35562240000000</pproTicksIn>
						<pproTicksOut>42928704000000</pproTicksOut>
						<file id="file-508" />
						<sourcetrack>
							<mediatype>audio</mediatype>
							<trackindex>2</trackindex>
						</sourcetrack>
						<filter>
							<effect>
								<name>Audio Levels</name>
								<effectid>audiolevels</effectid>
								<effectcategory>audiolevels</effectcategory>
								<effecttype>audiolevels</effecttype>
								<mediatype>audio</mediatype>
								<pproBypass>false</pproBypass>
								<parameter authoringApp="PremierePro">
									<parameterid>level</parameterid>
									<name>Level</name>
									<valuemin>0</valuemin>
									<valuemax>3.98109</valuemax>
									<value>1</value>
								</parameter>
							</effect>
						</filter>
						<link>
							<linkclipref>clipitem-7c5a980f4b644c37b41a1c8122c7abf3</linkclipref>
							<mediatype>audio</mediatype>
							<trackindex>1</trackindex>
							<clipindex>1</clipindex>
							<groupindex>1</groupindex>
						</link>
						<link>
							<linkclipref>clipitem-a06480a805674099b9163dbc2189e310</linkclipref>
							<mediatype>audio</mediatype>
							<trackindex>2</trackindex>
							<clipindex>1</clipindex>
							<groupindex>1</groupindex>
						</link>
						<logginginfo>
							<description />
							<scene />
							<shottake />
							<lognote />
							<good />
							<originalvideofilename />
							<originalaudiofilename />
						</logginginfo>
						<colorinfo>
							<lut />
							<lut1 />
							<asc_sop />
							<asc_sat />
							<lut2 />
						</colorinfo>
						<labels>
							<label2>Caribbean</label2>
						</labels>
					</clipitem>
					<clipitem id="clipitem-a06480a805674099b9163dbc2189e310" premiereChannelType="stereo">
						<masterclipid>masterclip-508</masterclipid>
						<name>magalys electrico - clip.mp3</name>
						<enabled>TRUE</enabled>
						<duration>51215</duration>
						<rate>
							<timebase>24</timebase>
							<ntsc>TRUE</ntsc>
						</rate>
						<start>39168</start>
						<end>39840</end>
						<in>11322</in>
						<out>11994</out>
						<pproTicksIn>120149568000000</pproTicksIn>
						<pproTicksOut>127262016000000</pproTicksOut>
						<file id="file-508" />
						<sourcetrack>
							<mediatype>audio</mediatype>
							<trackindex>2</trackindex>
						</sourcetrack>
						<filter>
							<effect>
								<name>Audio Levels</name>
								<effectid>audiolevels</effectid>
								<effectcategory>audiolevels</effectcategory>
								<effecttype>audiolevels</effecttype>
								<mediatype>audio</mediatype>
								<pproBypass>false</pproBypass>
								<parameter authoringApp="PremierePro">
									<parameterid>level</parameterid>
									<name>Level</name>
									<valuemin>0</valuemin>
									<valuemax>3.98109</valuemax>
									<value>1</value>
								</parameter>
							</effect>
						</filter>
						<link>
							<linkclipref>clipitem-7c5a980f4b644c37b41a1c8122c7abf3</linkclipref>
							<mediatype>audio</mediatype>
							<trackindex>1</trackindex>
							<clipindex>1</clipindex>
							<groupindex>1</groupindex>
						</link>
						<link>
							<linkclipref>clipitem-a06480a805674099b9163dbc2189e310</linkclipref>
							<mediatype>audio</mediatype>
							<trackindex>2</trackindex>
							<clipindex>1</clipindex>
							<groupindex>1</groupindex>
						</link>
						<logginginfo>
							<description />
							<scene />
							<shottake />
							<lognote />
							<good />
							<originalvideofilename />
							<originalaudiofilename />
						</logginginfo>
						<colorinfo>
							<lut />
							<lut1 />
							<asc_sop />
							<asc_sat />
							<lut2 />
						</colorinfo>
						<labels>
							<label2>Caribbean</label2>
						</labels>
					</clipitem>
					<clipitem id="clipitem-29b1aeffc155434997697dc513110111" premiereChannelType="stereo">
						<masterclipid>masterclip-747</masterclipid>
						<name>magalys polanco hammock - clip.mp3</name>
						<enabled>TRUE</enabled>
						<duration>90946</duration>
						<rate>
							<timebase>24</timebase>
							<ntsc>TRUE</ntsc>
						</rate>
						<start>41664</start>
						<end>43032</end>
						<in>5808</in>
						<out>7176</out>
						<pproTicksIn>61471872000000</pproTicksIn>
						<pproTicksOut>75950784000000</pproTicksOut>
						<file id="file-747" />
						<sourcetrack>
							<mediatype>audio</mediatype>
							<trackindex>2</trackindex>
						</sourcetrack>
						<filter>
							<effect>
								<name>Audio Levels</name>
								<effectid>audiolevels</effectid>
								<effectcategory>audiolevels</effectcategory>
								<effecttype>audiolevels</effecttype>
								<mediatype>audio</mediatype>
								<pproBypass>false</pproBypass>
								<parameter authoringApp="PremierePro">
									<parameterid>level</parameterid>
									<name>Level</name>
									<valuemin>0</valuemin>
									<valuemax>3.98109</valuemax>
									<value>2.76452</value>
									<keyframe>
										<when>0</when>
										<value>0</value>
									</keyframe>
									<keyframe>
										<when>100</when>
										<value>0.445905</value>
									</keyframe>
									<keyframe>
										<when>186</when>
										<value>2.76452</value>
									</keyframe>
								</parameter>
							</effect>
						</filter>
						<filter>
							<effect>
								<name>High Pass Filter</name>
								<effectid>{61756678, 48506173, 4b657947}</effectid>
								<effecttype>filter</effecttype>
								<mediatype>audio</mediatype>
								<pproBypass>false</pproBypass>
								<parameter authoringApp="PremierePro">
									<parameterid>Frequency</parameterid>
									<name>Frequency</name>
									<valuemin>10</valuemin>
									<valuemax>20000</valuemax>
									<value>400.002</value>
								</parameter>
							</effect>
						</filter>
						<link>
							<linkclipref>clipitem-b1c9119ec2fc4c7d8be0d30a13cb9880</linkclipref>
							<mediatype>audio</mediatype>
							<trackindex>1</trackindex>
							<clipindex>1</clipindex>
							<groupindex>1</groupindex>
						</link>
						<link>
							<linkclipref>clipitem-29b1aeffc155434997697dc513110111</linkclipref>
							<mediatype>audio</mediatype>
							<trackindex>2</trackindex>
							<clipindex>1</clipindex>
							<groupindex>1</groupindex>
						</link>
						<logginginfo>
							<description />
							<scene />
							<shottake />
							<lognote />
							<good />
							<originalvideofilename />
							<originalaudiofilename />
						</logginginfo>
						<colorinfo>
							<lut />
							<lut1 />
							<asc_sop />
							<asc_sat />
							<lut2 />
						</colorinfo>
						<labels>
							<label2>Caribbean</label2>
						</labels>
					</clipitem>
					<clipitem id="clipitem-29b1aeffc155434997697dc513110111" premiereChannelType="stereo">
						<masterclipid>masterclip-747</masterclipid>
						<name>magalys polanco hammock - clip.mp3</name>
						<enabled>TRUE</enabled>
						<duration>90946</duration>
						<rate>
							<timebase>24</timebase>
							<ntsc>TRUE</ntsc>
						</rate>
						<start>43032</start>
						<end>43968</end>
						<in>39312</in>
						<out>40248</out>
						<pproTicksIn>416078208000000</pproTicksIn>
						<pproTicksOut>425984832000000</pproTicksOut>
						<file id="file-747" />
						<sourcetrack>
							<mediatype>audio</mediatype>
							<trackindex>2</trackindex>
						</sourcetrack>
						<filter>
							<effect>
								<name>Audio Levels</name>
								<effectid>audiolevels</effectid>
								<effectcategory>audiolevels</effectcategory>
								<effecttype>audiolevels</effecttype>
								<mediatype>audio</mediatype>
								<pproBypass>false</pproBypass>
								<parameter authoringApp="PremierePro">
									<parameterid>level</parameterid>
									<name>Level</name>
									<valuemin>0</valuemin>
									<valuemax>3.98109</valuemax>
									<value>2.76452</value>
									<keyframe>
										<when>0</when>
										<value>0</value>
									</keyframe>
									<keyframe>
										<when>100</when>
										<value>0.445905</value>
									</keyframe>
									<keyframe>
										<when>186</when>
										<value>2.76452</value>
									</keyframe>
								</parameter>
							</effect>
						</filter>
						<filter>
							<effect>
								<name>High Pass Filter</name>
								<effectid>{61756678, 48506173, 4b657947}</effectid>
								<effecttype>filter</effecttype>
								<mediatype>audio</mediatype>
								<pproBypass>false</pproBypass>
								<parameter authoringApp="PremierePro">
									<parameterid>Frequency</parameterid>
									<name>Frequency</name>
									<valuemin>10</valuemin>
									<valuemax>20000</valuemax>
									<value>400.002</value>
								</parameter>
							</effect>
						</filter>
						<link>
							<linkclipref>clipitem-b1c9119ec2fc4c7d8be0d30a13cb9880</linkclipref>
							<mediatype>audio</mediatype>
							<trackindex>1</trackindex>
							<clipindex>1</clipindex>
							<groupindex>1</groupindex>
						</link>
						<link>
							<linkclipref>clipitem-29b1aeffc155434997697dc513110111</linkclipref>
							<mediatype>audio</mediatype>
							<trackindex>2</trackindex>
							<clipindex>1</clipindex>
							<groupindex>1</groupindex>
						</link>
						<logginginfo>
							<description />
							<scene />
							<shottake />
							<lognote />
							<good />
							<originalvideofilename />
							<originalaudiofilename />
						</logginginfo>
						<colorinfo>
							<lut />
							<lut1 />
							<asc_sop />
							<asc_sat />
							<lut2 />
						</colorinfo>
						<labels>
							<label2>Caribbean</label2>
						</labels>
					</clipitem>
					</track></audio></media><timecode><rate><timebase>24</timebase><ntsc>TRUE</ntsc></rate><string>00:00:00:00</string><frame>0</frame><displayformat>NDF</displayformat></timecode><labels><label2>Forest</label2></labels></sequence></xmeml>