<?xml version="1.0" encoding="UTF-8"?>
<!DOCTYPE xmeml>
<xmeml version="4">
	<sequence id="sequence-3" TL.SQAudioVisibleBase="0" TL.SQVideoVisibleBase="0" TL.SQVisibleBaseTime="0" TL.SQAVDividerPosition="0.5" TL.SQHideShyTracks="0" TL.SQHeaderWidth="236" TL.SQDataTrackViewControlState="1" Monitor.ProgramZoomOut="862536867192000" Monitor.ProgramZoomIn="0" TL.SQTimePerPixel="1.6348611054282598" MZ.EditLine="61459181784000" MZ.Sequence.PreviewFrameSizeHeight="1080" MZ.Sequence.PreviewFrameSizeWidth="1920" MZ.Sequence.AudioTimeDisplayFormat="200" MZ.Sequence.PreviewRenderingClassID="1061109567" MZ.Sequence.PreviewRenderingPresetCodec="1634755443" MZ.Sequence.PreviewRenderingPresetPath="EncoderPresets/SequencePreview/35d109db-457b-43c1-9452-9cb7be9f121c/QuickTime.epr" MZ.Sequence.PreviewUseMaxRenderQuality="false" MZ.Sequence.PreviewUseMaxBitDepth="false" MZ.Sequence.EditingModeGUID="35d109db-457b-43c1-9452-9cb7be9f121c" MZ.Sequence.VideoTimeDisplayFormat="110" MZ.WorkOutPoint="1063494936504000" MZ.WorkInPoint="0" MZ.ZeroPoint="0" explodedTracks="true">
		<uuid>60574c5b-5f3b-490b-9018-cfca6b75bde7</uuid>
		<duration>81413</duration>
		<rate>
			<timebase>24</timebase>
			<ntsc>TRUE</ntsc>
		</rate>
		<name>Magalys Hammock</name>
		<media>
			<video>
				<format>
					<samplecharacteristics>
						<rate>
							<timebase>24</timebase>
							<ntsc>TRUE</ntsc>
						</rate>
						<codec>
							<name>Apple ProRes 422</name>
							<appspecificdata>
								<appname>Final Cut Pro</appname>
								<appmanufacturer>Apple Inc.</appmanufacturer>
								<appversion>7.0</appversion>
								<data>
									<qtcodec>
										<codecname>Apple ProRes 422</codecname>
										<codectypename>Apple ProRes 422</codectypename>
										<codectypecode>apcn</codectypecode>
										<codecvendorcode>appl</codecvendorcode>
										<spatialquality>1024</spatialquality>
										<temporalquality>0</temporalquality>
										<keyframerate>0</keyframerate>
										<datarate>0</datarate>
									</qtcodec>
								</data>
							</appspecificdata>
						</codec>
						<width>1920</width>
						<height>1080</height>
						<anamorphic>FALSE</anamorphic>
						<pixelaspectratio>square</pixelaspectratio>
						<fielddominance>none</fielddominance>
						<colordepth>24</colordepth>
					</samplecharacteristics>
				</format>
				<track TL.SQTrackShy="0" TL.SQTrackExpandedHeight="25" TL.SQTrackExpanded="0" MZ.TrackTargeted="1">
					<clipitem id="clipitem-117">
						<masterclipid>masterclip-103</masterclipid>
						<name>C0581.MP4</name>
						<enabled>TRUE</enabled>
						<duration>74112</duration>
						<rate>
							<timebase>24</timebase>
							<ntsc>TRUE</ntsc>
						</rate>
						<start>0</start>
						<end>72765</end>
						<in>1208</in>
						<out>73973</out>
						<pproTicksIn>12798257472000</pproTicksIn>
						<pproTicksOut>783713162232000</pproTicksOut>
						<alphatype>none</alphatype>
						<pixelaspectratio>square</pixelaspectratio>
						<anamorphic>FALSE</anamorphic>
						<file id="file-103">
							<name>C0581.MP4</name>
							<pathurl>file://localhost/Volumes/aqua/00_Footage/4)%20Wayuu/sony/nazareth/C0581.MP4</pathurl>
							<rate>
								<timebase>24</timebase>
								<ntsc>TRUE</ntsc>
							</rate>
							<duration>74112</duration>
							<timecode>
								<rate>
									<timebase>24</timebase>
									<ntsc>TRUE</ntsc>
								</rate>
								<string>07:05:34:04</string>
								<frame>612820</frame>
								<displayformat>NDF</displayformat>
							</timecode>
							<media>
								<video>
									<samplecharacteristics>
										<rate>
											<timebase>24</timebase>
											<ntsc>TRUE</ntsc>
										</rate>
										<width>1920</width>
										<height>1080</height>
										<anamorphic>FALSE</anamorphic>
										<pixelaspectratio>square</pixelaspectratio>
										<fielddominance>none</fielddominance>
									</samplecharacteristics>
								</video>
								<audio>
									<samplecharacteristics>
										<depth>16</depth>
										<samplerate>48000</samplerate>
									</samplecharacteristics>
									<channelcount>2</channelcount>
								</audio>
							</media>
						</file>
						<logginginfo>
							<description></description>
							<scene></scene>
							<shottake></shottake>
							<lognote></lognote>
							<good></good>
							<originalvideofilename></originalvideofilename>
							<originalaudiofilename></originalaudiofilename>
						</logginginfo>
						<colorinfo>
							<lut></lut>
							<lut1></lut1>
							<asc_sop></asc_sop>
							<asc_sat></asc_sat>
							<lut2></lut2>
						</colorinfo>
						<labels>
							<label2>Iris</label2>
						</labels>
					</clipitem>
					<clipitem id="clipitem-118">
						<masterclipid>masterclip-104</masterclipid>
						<name>C0580.MP4</name>
						<enabled>TRUE</enabled>
						<duration>5448</duration>
						<rate>
							<timebase>24</timebase>
							<ntsc>TRUE</ntsc>
						</rate>
						<start>74509</start>
						<end>77244</end>
						<in>0</in>
						<out>2735</out>
						<pproTicksIn>0</pproTicksIn>
						<pproTicksOut>28976187240000</pproTicksOut>
						<alphatype>none</alphatype>
						<pixelaspectratio>square</pixelaspectratio>
						<anamorphic>FALSE</anamorphic>
						<file id="file-104">
							<name>C0580.MP4</name>
							<pathurl>file://localhost/Volumes/aqua/00_Footage/4)%20Wayuu/sony/nazareth/C0580.MP4</pathurl>
							<rate>
								<timebase>24</timebase>
								<ntsc>TRUE</ntsc>
							</rate>
							<duration>5448</duration>
							<timecode>
								<rate>
									<timebase>24</timebase>
									<ntsc>TRUE</ntsc>
								</rate>
								<string>07:01:47:04</string>
								<frame>607372</frame>
								<displayformat>NDF</displayformat>
							</timecode>
							<media>
								<video>
									<samplecharacteristics>
										<rate>
											<timebase>24</timebase>
											<ntsc>TRUE</ntsc>
										</rate>
										<width>1920</width>
										<height>1080</height>
										<anamorphic>FALSE</anamorphic>
										<pixelaspectratio>square</pixelaspectratio>
										<fielddominance>none</fielddominance>
									</samplecharacteristics>
								</video>
								<audio>
									<samplecharacteristics>
										<depth>16</depth>
										<samplerate>48000</samplerate>
									</samplecharacteristics>
									<channelcount>2</channelcount>
								</audio>
							</media>
						</file>
						<logginginfo>
							<description></description>
							<scene></scene>
							<shottake></shottake>
							<lognote></lognote>
							<good></good>
							<originalvideofilename></originalvideofilename>
							<originalaudiofilename></originalaudiofilename>
						</logginginfo>
						<colorinfo>
							<lut></lut>
							<lut1></lut1>
							<asc_sop></asc_sop>
							<asc_sat></asc_sat>
							<lut2></lut2>
						</colorinfo>
						<labels>
							<label2>Rose</label2>
						</labels>
					</clipitem>
					<clipitem id="clipitem-119">
						<masterclipid>masterclip-104</masterclipid>
						<name>C0580.MP4</name>
						<enabled>TRUE</enabled>
						<duration>5448</duration>
						<rate>
							<timebase>24</timebase>
							<ntsc>TRUE</ntsc>
						</rate>
						<start>77244</start>
						<end>77693</end>
						<in>2735</in>
						<out>3184</out>
						<pproTicksIn>28976187240000</pproTicksIn>
						<pproTicksOut>33733155456000</pproTicksOut>
						<alphatype>none</alphatype>
						<file id="file-104"/>
						<logginginfo>
							<description></description>
							<scene></scene>
							<shottake></shottake>
							<lognote></lognote>
							<good></good>
							<originalvideofilename></originalvideofilename>
							<originalaudiofilename></originalaudiofilename>
						</logginginfo>
						<colorinfo>
							<lut></lut>
							<lut1></lut1>
							<asc_sop></asc_sop>
							<asc_sat></asc_sat>
							<lut2></lut2>
						</colorinfo>
						<labels>
							<label2>Rose</label2>
						</labels>
					</clipitem>
					<clipitem id="clipitem-120">
						<masterclipid>masterclip-104</masterclipid>
						<name>C0580.MP4</name>
						<enabled>TRUE</enabled>
						<duration>5448</duration>
						<rate>
							<timebase>24</timebase>
							<ntsc>TRUE</ntsc>
						</rate>
						<start>77693</start>
						<end>79957</end>
						<in>3184</in>
						<out>5448</out>
						<pproTicksIn>33733155456000</pproTicksIn>
						<pproTicksOut>57719293632000</pproTicksOut>
						<alphatype>none</alphatype>
						<file id="file-104"/>
						<logginginfo>
							<description></description>
							<scene></scene>
							<shottake></shottake>
							<lognote></lognote>
							<good></good>
							<originalvideofilename></originalvideofilename>
							<originalaudiofilename></originalaudiofilename>
						</logginginfo>
						<colorinfo>
							<lut></lut>
							<lut1></lut1>
							<asc_sop></asc_sop>
							<asc_sat></asc_sat>
							<lut2></lut2>
						</colorinfo>
						<labels>
							<label2>Rose</label2>
						</labels>
					</clipitem>
					<clipitem id="clipitem-121">
						<masterclipid>masterclip-103</masterclipid>
						<name>C0581.MP4</name>
						<enabled>TRUE</enabled>
						<duration>74112</duration>
						<rate>
							<timebase>24</timebase>
							<ntsc>TRUE</ntsc>
						</rate>
						<start>80205</start>
						<end>80724</end>
						<in>0</in>
						<out>519</out>
						<pproTicksIn>0</pproTicksIn>
						<pproTicksOut>5498589096000</pproTicksOut>
						<alphatype>none</alphatype>
						<file id="file-103"/>
						<logginginfo>
							<description></description>
							<scene></scene>
							<shottake></shottake>
							<lognote></lognote>
							<good></good>
							<originalvideofilename></originalvideofilename>
							<originalaudiofilename></originalaudiofilename>
						</logginginfo>
						<colorinfo>
							<lut></lut>
							<lut1></lut1>
							<asc_sop></asc_sop>
							<asc_sat></asc_sat>
							<lut2></lut2>
						</colorinfo>
						<labels>
							<label2>Iris</label2>
						</labels>
					</clipitem>
					<clipitem id="clipitem-122">
						<masterclipid>masterclip-103</masterclipid>
						<name>C0581.MP4</name>
						<enabled>TRUE</enabled>
						<duration>74112</duration>
						<rate>
							<timebase>24</timebase>
							<ntsc>TRUE</ntsc>
						</rate>
						<start>80724</start>
						<end>81413</end>
						<in>519</in>
						<out>1208</out>
						<pproTicksIn>5498589096000</pproTicksIn>
						<pproTicksOut>12798257472000</pproTicksOut>
						<alphatype>none</alphatype>
						<file id="file-103"/>
						<logginginfo>
							<description></description>
							<scene></scene>
							<shottake></shottake>
							<lognote></lognote>
							<good></good>
							<originalvideofilename></originalvideofilename>
							<originalaudiofilename></originalaudiofilename>
						</logginginfo>
						<colorinfo>
							<lut></lut>
							<lut1></lut1>
							<asc_sop></asc_sop>
							<asc_sat></asc_sat>
							<lut2></lut2>
						</colorinfo>
						<labels>
							<label2>Iris</label2>
						</labels>
					</clipitem>
					<enabled>TRUE</enabled>
					<locked>FALSE</locked>
				</track>
				<track TL.SQTrackShy="0" TL.SQTrackExpandedHeight="25" TL.SQTrackExpanded="0" MZ.TrackTargeted="0">
					<clipitem id="clipitem-123">
						<masterclipid>masterclip-105</masterclipid>
						<name>wiblo_1_2000-01-01_1053_C0035.mov</name>
						<enabled>TRUE</enabled>
						<duration>8670</duration>
						<rate>
							<timebase>24</timebase>
							<ntsc>TRUE</ntsc>
						</rate>
						<start>1730</start>
						<end>10400</end>
						<in>0</in>
						<out>8670</out>
						<pproTicksIn>0</pproTicksIn>
						<pproTicksOut>91855043280000</pproTicksOut>
						<alphatype>none</alphatype>
						<pixelaspectratio>square</pixelaspectratio>
						<anamorphic>FALSE</anamorphic>
						<file id="file-105">
							<name>wiblo_1_2000-01-01_1053_C0035.mov</name>
							<pathurl>file://localhost/Volumes/aqua/00_Footage/4)%20Wayuu/7-21%20magalys%20and%20healer%202/../7-21%20magalys%20and%20healer/wiblo_1_2000-01-01_1053_C0035.mov</pathurl>
							<rate>
								<timebase>24</timebase>
								<ntsc>TRUE</ntsc>
							</rate>
							<duration>8670</duration>
							<timecode>
								<rate>
									<timebase>24</timebase>
									<ntsc>TRUE</ntsc>
								</rate>
								<string>10:53:14:00</string>
								<frame>940656</frame>
								<displayformat>NDF</displayformat>
							</timecode>
							<media>
								<video>
									<samplecharacteristics>
										<rate>
											<timebase>24</timebase>
											<ntsc>TRUE</ntsc>
										</rate>
										<width>1920</width>
										<height>1080</height>
										<anamorphic>FALSE</anamorphic>
										<pixelaspectratio>square</pixelaspectratio>
										<fielddominance>none</fielddominance>
									</samplecharacteristics>
								</video>
								<audio>
									<samplecharacteristics>
										<depth>16</depth>
										<samplerate>48000</samplerate>
									</samplecharacteristics>
									<channelcount>2</channelcount>
								</audio>
							</media>
						</file>
						<logginginfo>
							<description></description>
							<scene></scene>
							<shottake></shottake>
							<lognote></lognote>
							<good></good>
							<originalvideofilename></originalvideofilename>
							<originalaudiofilename></originalaudiofilename>
						</logginginfo>
						<colorinfo>
							<lut></lut>
							<lut1></lut1>
							<asc_sop></asc_sop>
							<asc_sat></asc_sat>
							<lut2></lut2>
						</colorinfo>
						<labels>
							<label2>Iris</label2>
						</labels>
					</clipitem>
					<clipitem id="clipitem-124">
						<masterclipid>masterclip-106</masterclipid>
						<name>julian_1_2021-12-26_1602_C0013.mov</name>
						<enabled>TRUE</enabled>
						<duration>4920</duration>
						<rate>
							<timebase>24</timebase>
							<ntsc>TRUE</ntsc>
						</rate>
						<start>12181</start>
						<end>17101</end>
						<in>0</in>
						<out>4920</out>
						<pproTicksIn>0</pproTicksIn>
						<pproTicksOut>52125353280000</pproTicksOut>
						<alphatype>none</alphatype>
						<pixelaspectratio>square</pixelaspectratio>
						<anamorphic>FALSE</anamorphic>
						<file id="file-106">
							<name>julian_1_2021-12-26_1602_C0013.mov</name>
							<pathurl>file://localhost/Volumes/aqua/00_Footage/4)%20Wayuu/7-21%20magalys%20and%20healer%202/../7-21%20magalys%20and%20healer/../7-21%20magalys%20and%20piedra/julian_1_2021-12-26_1602_C0013.mov</pathurl>
							<rate>
								<timebase>24</timebase>
								<ntsc>TRUE</ntsc>
							</rate>
							<duration>4920</duration>
							<timecode>
								<rate>
									<timebase>24</timebase>
									<ntsc>TRUE</ntsc>
								</rate>
								<string>16:02:44:00</string>
								<frame>1386336</frame>
								<displayformat>NDF</displayformat>
							</timecode>
							<media>
								<video>
									<samplecharacteristics>
										<rate>
											<timebase>24</timebase>
											<ntsc>TRUE</ntsc>
										</rate>
										<width>1920</width>
										<height>1080</height>
										<anamorphic>FALSE</anamorphic>
										<pixelaspectratio>square</pixelaspectratio>
										<fielddominance>none</fielddominance>
									</samplecharacteristics>
								</video>
								<audio>
									<samplecharacteristics>
										<depth>16</depth>
										<samplerate>48000</samplerate>
									</samplecharacteristics>
									<channelcount>2</channelcount>
								</audio>
							</media>
						</file>
						<logginginfo>
							<description></description>
							<scene></scene>
							<shottake></shottake>
							<lognote></lognote>
							<good></good>
							<originalvideofilename></originalvideofilename>
							<originalaudiofilename></originalaudiofilename>
						</logginginfo>
						<colorinfo>
							<lut></lut>
							<lut1></lut1>
							<asc_sop></asc_sop>
							<asc_sat></asc_sat>
							<lut2></lut2>
						</colorinfo>
						<labels>
							<label2>Rose</label2>
						</labels>
					</clipitem>
					<clipitem id="clipitem-125">
						<masterclipid>masterclip-107</masterclipid>
						<name>julian_1_2021-12-26_1607_C0014.mov</name>
						<enabled>TRUE</enabled>
						<duration>7796</duration>
						<rate>
							<timebase>24</timebase>
							<ntsc>TRUE</ntsc>
						</rate>
						<start>18994</start>
						<end>26790</end>
						<in>0</in>
						<out>7796</out>
						<pproTicksIn>0</pproTicksIn>
						<pproTicksOut>82595376864000</pproTicksOut>
						<alphatype>none</alphatype>
						<pixelaspectratio>square</pixelaspectratio>
						<anamorphic>FALSE</anamorphic>
						<file id="file-107">
							<name>julian_1_2021-12-26_1607_C0014.mov</name>
							<pathurl>file://localhost/Volumes/aqua/00_Footage/4)%20Wayuu/7-21%20magalys%20and%20healer%202/../7-21%20magalys%20and%20healer/../7-21%20magalys%20and%20piedra/julian_1_2021-12-26_1607_C0014.mov</pathurl>
							<rate>
								<timebase>24</timebase>
								<ntsc>TRUE</ntsc>
							</rate>
							<duration>7796</duration>
							<timecode>
								<rate>
									<timebase>24</timebase>
									<ntsc>TRUE</ntsc>
								</rate>
								<string>16:07:27:00</string>
								<frame>1393128</frame>
								<displayformat>NDF</displayformat>
							</timecode>
							<media>
								<video>
									<samplecharacteristics>
										<rate>
											<timebase>24</timebase>
											<ntsc>TRUE</ntsc>
										</rate>
										<width>1920</width>
										<height>1080</height>
										<anamorphic>FALSE</anamorphic>
										<pixelaspectratio>square</pixelaspectratio>
										<fielddominance>none</fielddominance>
									</samplecharacteristics>
								</video>
								<audio>
									<samplecharacteristics>
										<depth>16</depth>
										<samplerate>48000</samplerate>
									</samplecharacteristics>
									<channelcount>2</channelcount>
								</audio>
							</media>
						</file>
						<logginginfo>
							<description></description>
							<scene></scene>
							<shottake></shottake>
							<lognote></lognote>
							<good></good>
							<originalvideofilename></originalvideofilename>
							<originalaudiofilename></originalaudiofilename>
						</logginginfo>
						<colorinfo>
							<lut></lut>
							<lut1></lut1>
							<asc_sop></asc_sop>
							<asc_sat></asc_sat>
							<lut2></lut2>
						</colorinfo>
						<labels>
							<label2>Rose</label2>
						</labels>
					</clipitem>
					<clipitem id="clipitem-126">
						<masterclipid>masterclip-108</masterclipid>
						<name>julian_1_2021-12-26_1613_C0015.mov</name>
						<enabled>TRUE</enabled>
						<duration>1157</duration>
						<rate>
							<timebase>24</timebase>
							<ntsc>TRUE</ntsc>
						</rate>
						<start>27066</start>
						<end>28222</end>
						<in>1</in>
						<out>1157</out>
						<pproTicksIn>10594584000</pproTicksIn>
						<pproTicksOut>12257933688000</pproTicksOut>
						<alphatype>none</alphatype>
						<pixelaspectratio>square</pixelaspectratio>
						<anamorphic>FALSE</anamorphic>
						<file id="file-108">
							<name>julian_1_2021-12-26_1613_C0015.mov</name>
							<pathurl>file://localhost/Volumes/aqua/00_Footage/4)%20Wayuu/7-21%20magalys%20and%20healer%202/../7-21%20magalys%20and%20healer/../7-21%20magalys%20and%20piedra/julian_1_2021-12-26_1613_C0015.mov</pathurl>
							<rate>
								<timebase>24</timebase>
								<ntsc>TRUE</ntsc>
							</rate>
							<duration>1157</duration>
							<timecode>
								<rate>
									<timebase>24</timebase>
									<ntsc>TRUE</ntsc>
								</rate>
								<string>16:13:04:00</string>
								<frame>1401216</frame>
								<displayformat>NDF</displayformat>
							</timecode>
							<media>
								<video>
									<samplecharacteristics>
										<rate>
											<timebase>24</timebase>
											<ntsc>TRUE</ntsc>
										</rate>
										<width>1920</width>
										<height>1080</height>
										<anamorphic>FALSE</anamorphic>
										<pixelaspectratio>square</pixelaspectratio>
										<fielddominance>none</fielddominance>
									</samplecharacteristics>
								</video>
								<audio>
									<samplecharacteristics>
										<depth>16</depth>
										<samplerate>48000</samplerate>
									</samplecharacteristics>
									<channelcount>2</channelcount>
								</audio>
							</media>
						</file>
						<logginginfo>
							<description></description>
							<scene></scene>
							<shottake></shottake>
							<lognote></lognote>
							<good></good>
							<originalvideofilename></originalvideofilename>
							<originalaudiofilename></originalaudiofilename>
						</logginginfo>
						<colorinfo>
							<lut></lut>
							<lut1></lut1>
							<asc_sop></asc_sop>
							<asc_sat></asc_sat>
							<lut2></lut2>
						</colorinfo>
						<labels>
							<label2>Rose</label2>
						</labels>
					</clipitem>
					<clipitem id="clipitem-127">
						<masterclipid>masterclip-109</masterclipid>
						<name>julian_1_2021-12-26_1614_C0016.mov</name>
						<enabled>TRUE</enabled>
						<duration>4405</duration>
						<rate>
							<timebase>24</timebase>
							<ntsc>TRUE</ntsc>
						</rate>
						<start>28695</start>
						<end>32961</end>
						<in>139</in>
						<out>4405</out>
						<pproTicksIn>1472647176000</pproTicksIn>
						<pproTicksOut>46669142520000</pproTicksOut>
						<alphatype>none</alphatype>
						<pixelaspectratio>square</pixelaspectratio>
						<anamorphic>FALSE</anamorphic>
						<file id="file-109">
							<name>julian_1_2021-12-26_1614_C0016.mov</name>
							<pathurl>file://localhost/Volumes/aqua/00_Footage/4)%20Wayuu/7-21%20magalys%20and%20healer%202/../7-21%20magalys%20and%20healer/../7-21%20magalys%20and%20piedra/julian_1_2021-12-26_1614_C0016.mov</pathurl>
							<rate>
								<timebase>24</timebase>
								<ntsc>TRUE</ntsc>
							</rate>
							<duration>4405</duration>
							<timecode>
								<rate>
									<timebase>24</timebase>
									<ntsc>TRUE</ntsc>
								</rate>
								<string>16:14:06:00</string>
								<frame>1402704</frame>
								<displayformat>NDF</displayformat>
							</timecode>
							<media>
								<video>
									<samplecharacteristics>
										<rate>
											<timebase>24</timebase>
											<ntsc>TRUE</ntsc>
										</rate>
										<width>1920</width>
										<height>1080</height>
										<anamorphic>FALSE</anamorphic>
										<pixelaspectratio>square</pixelaspectratio>
										<fielddominance>none</fielddominance>
									</samplecharacteristics>
								</video>
								<audio>
									<samplecharacteristics>
										<depth>16</depth>
										<samplerate>48000</samplerate>
									</samplecharacteristics>
									<channelcount>2</channelcount>
								</audio>
							</media>
						</file>
						<logginginfo>
							<description></description>
							<scene></scene>
							<shottake></shottake>
							<lognote></lognote>
							<good></good>
							<originalvideofilename></originalvideofilename>
							<originalaudiofilename></originalaudiofilename>
						</logginginfo>
						<colorinfo>
							<lut></lut>
							<lut1></lut1>
							<asc_sop></asc_sop>
							<asc_sat></asc_sat>
							<lut2></lut2>
						</colorinfo>
						<labels>
							<label2>Rose</label2>
						</labels>
					</clipitem>
					<clipitem id="clipitem-128">
						<masterclipid>masterclip-110</masterclipid>
						<name>julian_1_2021-12-26_1617_C0017.mov</name>
						<enabled>TRUE</enabled>
						<duration>424</duration>
						<rate>
							<timebase>24</timebase>
							<ntsc>TRUE</ntsc>
						</rate>
						<start>32966</start>
						<end>33377</end>
						<in>13</in>
						<out>424</out>
						<pproTicksIn>137729592000</pproTicksIn>
						<pproTicksOut>4492103616000</pproTicksOut>
						<alphatype>none</alphatype>
						<pixelaspectratio>square</pixelaspectratio>
						<anamorphic>FALSE</anamorphic>
						<file id="file-110">
							<name>julian_1_2021-12-26_1617_C0017.mov</name>
							<pathurl>file://localhost/Volumes/aqua/00_Footage/4)%20Wayuu/7-21%20magalys%20and%20healer%202/../7-21%20magalys%20and%20healer/../7-21%20magalys%20and%20piedra/julian_1_2021-12-26_1617_C0017.mov</pathurl>
							<rate>
								<timebase>24</timebase>
								<ntsc>TRUE</ntsc>
							</rate>
							<duration>424</duration>
							<timecode>
								<rate>
									<timebase>24</timebase>
									<ntsc>TRUE</ntsc>
								</rate>
								<string>16:17:17:00</string>
								<frame>1407288</frame>
								<displayformat>NDF</displayformat>
							</timecode>
							<media>
								<video>
									<samplecharacteristics>
										<rate>
											<timebase>24</timebase>
											<ntsc>TRUE</ntsc>
										</rate>
										<width>1920</width>
										<height>1080</height>
										<anamorphic>FALSE</anamorphic>
										<pixelaspectratio>square</pixelaspectratio>
										<fielddominance>none</fielddominance>
									</samplecharacteristics>
								</video>
								<audio>
									<samplecharacteristics>
										<depth>16</depth>
										<samplerate>48000</samplerate>
									</samplecharacteristics>
									<channelcount>2</channelcount>
								</audio>
							</media>
						</file>
						<logginginfo>
							<description></description>
							<scene></scene>
							<shottake></shottake>
							<lognote></lognote>
							<good></good>
							<originalvideofilename></originalvideofilename>
							<originalaudiofilename></originalaudiofilename>
						</logginginfo>
						<colorinfo>
							<lut></lut>
							<lut1></lut1>
							<asc_sop></asc_sop>
							<asc_sat></asc_sat>
							<lut2></lut2>
						</colorinfo>
						<labels>
							<label2>Rose</label2>
						</labels>
					</clipitem>
					<clipitem id="clipitem-129">
						<masterclipid>masterclip-111</masterclipid>
						<name>wiblo_1_2000-01-01_1115_C0036.mov</name>
						<enabled>TRUE</enabled>
						<duration>5704</duration>
						<rate>
							<timebase>24</timebase>
							<ntsc>TRUE</ntsc>
						</rate>
						<start>33982</start>
						<end>39686</end>
						<in>0</in>
						<out>5704</out>
						<pproTicksIn>0</pproTicksIn>
						<pproTicksOut>60431507136000</pproTicksOut>
						<alphatype>none</alphatype>
						<pixelaspectratio>square</pixelaspectratio>
						<anamorphic>FALSE</anamorphic>
						<file id="file-111">
							<name>wiblo_1_2000-01-01_1115_C0036.mov</name>
							<pathurl>file://localhost/Volumes/aqua/00_Footage/4)%20Wayuu/7-21%20magalys%20and%20healer%202/../7-21%20magalys%20and%20healer/wiblo_1_2000-01-01_1115_C0036.mov</pathurl>
							<rate>
								<timebase>24</timebase>
								<ntsc>TRUE</ntsc>
							</rate>
							<duration>5704</duration>
							<timecode>
								<rate>
									<timebase>24</timebase>
									<ntsc>TRUE</ntsc>
								</rate>
								<string>11:15:39:00</string>
								<frame>972936</frame>
								<displayformat>NDF</displayformat>
							</timecode>
							<media>
								<video>
									<samplecharacteristics>
										<rate>
											<timebase>24</timebase>
											<ntsc>TRUE</ntsc>
										</rate>
										<width>1920</width>
										<height>1080</height>
										<anamorphic>FALSE</anamorphic>
										<pixelaspectratio>square</pixelaspectratio>
										<fielddominance>none</fielddominance>
									</samplecharacteristics>
								</video>
								<audio>
									<samplecharacteristics>
										<depth>16</depth>
										<samplerate>48000</samplerate>
									</samplecharacteristics>
									<channelcount>2</channelcount>
								</audio>
							</media>
						</file>
						<logginginfo>
							<description></description>
							<scene></scene>
							<shottake></shottake>
							<lognote></lognote>
							<good></good>
							<originalvideofilename></originalvideofilename>
							<originalaudiofilename></originalaudiofilename>
						</logginginfo>
						<colorinfo>
							<lut></lut>
							<lut1></lut1>
							<asc_sop></asc_sop>
							<asc_sat></asc_sat>
							<lut2></lut2>
						</colorinfo>
						<labels>
							<label2>Iris</label2>
						</labels>
					</clipitem>
					<clipitem id="clipitem-130">
						<masterclipid>masterclip-112</masterclipid>
						<name>wiblo_1_2000-01-01_1119_C0037.mov</name>
						<enabled>TRUE</enabled>
						<duration>257</duration>
						<rate>
							<timebase>24</timebase>
							<ntsc>TRUE</ntsc>
						</rate>
						<start>39979</start>
						<end>40236</end>
						<in>0</in>
						<out>257</out>
						<pproTicksIn>0</pproTicksIn>
						<pproTicksOut>2722808088000</pproTicksOut>
						<alphatype>none</alphatype>
						<pixelaspectratio>square</pixelaspectratio>
						<anamorphic>FALSE</anamorphic>
						<file id="file-112">
							<name>wiblo_1_2000-01-01_1119_C0037.mov</name>
							<pathurl>file://localhost/Volumes/aqua/00_Footage/4)%20Wayuu/7-21%20magalys%20and%20healer%202/../7-21%20magalys%20and%20healer/wiblo_1_2000-01-01_1119_C0037.mov</pathurl>
							<rate>
								<timebase>24</timebase>
								<ntsc>TRUE</ntsc>
							</rate>
							<duration>257</duration>
							<timecode>
								<rate>
									<timebase>24</timebase>
									<ntsc>TRUE</ntsc>
								</rate>
								<string>11:19:49:00</string>
								<frame>978936</frame>
								<displayformat>NDF</displayformat>
							</timecode>
							<media>
								<video>
									<samplecharacteristics>
										<rate>
											<timebase>24</timebase>
											<ntsc>TRUE</ntsc>
										</rate>
										<width>1920</width>
										<height>1080</height>
										<anamorphic>FALSE</anamorphic>
										<pixelaspectratio>square</pixelaspectratio>
										<fielddominance>none</fielddominance>
									</samplecharacteristics>
								</video>
								<audio>
									<samplecharacteristics>
										<depth>16</depth>
										<samplerate>48000</samplerate>
									</samplecharacteristics>
									<channelcount>2</channelcount>
								</audio>
							</media>
						</file>
						<logginginfo>
							<description></description>
							<scene></scene>
							<shottake></shottake>
							<lognote></lognote>
							<good></good>
							<originalvideofilename></originalvideofilename>
							<originalaudiofilename></originalaudiofilename>
						</logginginfo>
						<colorinfo>
							<lut></lut>
							<lut1></lut1>
							<asc_sop></asc_sop>
							<asc_sat></asc_sat>
							<lut2></lut2>
						</colorinfo>
						<labels>
							<label2>Iris</label2>
						</labels>
					</clipitem>
					<clipitem id="clipitem-131">
						<masterclipid>masterclip-113</masterclipid>
						<name>wiblo_1_2000-01-01_1120_C0038.mov</name>
						<enabled>TRUE</enabled>
						<duration>1169</duration>
						<rate>
							<timebase>24</timebase>
							<ntsc>TRUE</ntsc>
						</rate>
						<start>41144</start>
						<end>41786</end>
						<in>527</in>
						<out>1169</out>
						<pproTicksIn>5583345768000</pproTicksIn>
						<pproTicksOut>12385068696000</pproTicksOut>
						<alphatype>none</alphatype>
						<pixelaspectratio>square</pixelaspectratio>
						<anamorphic>FALSE</anamorphic>
						<file id="file-113">
							<name>wiblo_1_2000-01-01_1120_C0038.mov</name>
							<pathurl>file://localhost/Volumes/aqua/00_Footage/4)%20Wayuu/7-21%20magalys%20and%20healer%202/../7-21%20magalys%20and%20healer/wiblo_1_2000-01-01_1120_C0038.mov</pathurl>
							<rate>
								<timebase>24</timebase>
								<ntsc>TRUE</ntsc>
							</rate>
							<duration>1169</duration>
							<timecode>
								<rate>
									<timebase>24</timebase>
									<ntsc>TRUE</ntsc>
								</rate>
								<string>11:20:16:00</string>
								<frame>979584</frame>
								<displayformat>NDF</displayformat>
							</timecode>
							<media>
								<video>
									<samplecharacteristics>
										<rate>
											<timebase>24</timebase>
											<ntsc>TRUE</ntsc>
										</rate>
										<width>1920</width>
										<height>1080</height>
										<anamorphic>FALSE</anamorphic>
										<pixelaspectratio>square</pixelaspectratio>
										<fielddominance>none</fielddominance>
									</samplecharacteristics>
								</video>
								<audio>
									<samplecharacteristics>
										<depth>16</depth>
										<samplerate>48000</samplerate>
									</samplecharacteristics>
									<channelcount>2</channelcount>
								</audio>
							</media>
						</file>
						<logginginfo>
							<description></description>
							<scene></scene>
							<shottake></shottake>
							<lognote></lognote>
							<good></good>
							<originalvideofilename></originalvideofilename>
							<originalaudiofilename></originalaudiofilename>
						</logginginfo>
						<colorinfo>
							<lut></lut>
							<lut1></lut1>
							<asc_sop></asc_sop>
							<asc_sat></asc_sat>
							<lut2></lut2>
						</colorinfo>
						<labels>
							<label2>Rose</label2>
						</labels>
					</clipitem>
					<clipitem id="clipitem-132">
						<masterclipid>masterclip-114</masterclipid>
						<name>wiblo_1_2000-01-01_1121_C0039.mov</name>
						<enabled>TRUE</enabled>
						<duration>10290</duration>
						<rate>
							<timebase>24</timebase>
							<ntsc>TRUE</ntsc>
						</rate>
						<start>41958</start>
						<end>52248</end>
						<in>0</in>
						<out>10290</out>
						<pproTicksIn>0</pproTicksIn>
						<pproTicksOut>109018269360000</pproTicksOut>
						<alphatype>none</alphatype>
						<pixelaspectratio>square</pixelaspectratio>
						<anamorphic>FALSE</anamorphic>
						<file id="file-114">
							<name>wiblo_1_2000-01-01_1121_C0039.mov</name>
							<pathurl>file://localhost/Volumes/aqua/00_Footage/4)%20Wayuu/7-21%20magalys%20and%20healer%202/../7-21%20magalys%20and%20healer/wiblo_1_2000-01-01_1121_C0039.mov</pathurl>
							<rate>
								<timebase>24</timebase>
								<ntsc>TRUE</ntsc>
							</rate>
							<duration>10290</duration>
							<timecode>
								<rate>
									<timebase>24</timebase>
									<ntsc>TRUE</ntsc>
								</rate>
								<string>11:21:12:00</string>
								<frame>980928</frame>
								<displayformat>NDF</displayformat>
							</timecode>
							<media>
								<video>
									<samplecharacteristics>
										<rate>
											<timebase>24</timebase>
											<ntsc>TRUE</ntsc>
										</rate>
										<width>1920</width>
										<height>1080</height>
										<anamorphic>FALSE</anamorphic>
										<pixelaspectratio>square</pixelaspectratio>
										<fielddominance>none</fielddominance>
									</samplecharacteristics>
								</video>
								<audio>
									<samplecharacteristics>
										<depth>16</depth>
										<samplerate>48000</samplerate>
									</samplecharacteristics>
									<channelcount>2</channelcount>
								</audio>
							</media>
						</file>
						<logginginfo>
							<description></description>
							<scene></scene>
							<shottake></shottake>
							<lognote></lognote>
							<good></good>
							<originalvideofilename></originalvideofilename>
							<originalaudiofilename></originalaudiofilename>
						</logginginfo>
						<colorinfo>
							<lut></lut>
							<lut1></lut1>
							<asc_sop></asc_sop>
							<asc_sat></asc_sat>
							<lut2></lut2>
						</colorinfo>
						<labels>
							<label2>Iris</label2>
						</labels>
					</clipitem>
					<clipitem id="clipitem-133">
						<masterclipid>masterclip-115</masterclipid>
						<name>wiblo_1_2000-01-01_1128_C0040.mov</name>
						<enabled>TRUE</enabled>
						<duration>424</duration>
						<rate>
							<timebase>24</timebase>
							<ntsc>TRUE</ntsc>
						</rate>
						<start>52601</start>
						<end>53025</end>
						<in>0</in>
						<out>424</out>
						<pproTicksIn>0</pproTicksIn>
						<pproTicksOut>4492103616000</pproTicksOut>
						<alphatype>none</alphatype>
						<pixelaspectratio>square</pixelaspectratio>
						<anamorphic>FALSE</anamorphic>
						<file id="file-115">
							<name>wiblo_1_2000-01-01_1128_C0040.mov</name>
							<pathurl>file://localhost/Volumes/aqua/00_Footage/4)%20Wayuu/7-21%20magalys%20and%20healer%202/../7-21%20magalys%20and%20healer/wiblo_1_2000-01-01_1128_C0040.mov</pathurl>
							<rate>
								<timebase>24</timebase>
								<ntsc>TRUE</ntsc>
							</rate>
							<duration>424</duration>
							<timecode>
								<rate>
									<timebase>24</timebase>
									<ntsc>TRUE</ntsc>
								</rate>
								<string>11:28:36:00</string>
								<frame>991584</frame>
								<displayformat>NDF</displayformat>
							</timecode>
							<media>
								<video>
									<samplecharacteristics>
										<rate>
											<timebase>24</timebase>
											<ntsc>TRUE</ntsc>
										</rate>
										<width>1920</width>
										<height>1080</height>
										<anamorphic>FALSE</anamorphic>
										<pixelaspectratio>square</pixelaspectratio>
										<fielddominance>none</fielddominance>
									</samplecharacteristics>
								</video>
								<audio>
									<samplecharacteristics>
										<depth>16</depth>
										<samplerate>48000</samplerate>
									</samplecharacteristics>
									<channelcount>2</channelcount>
								</audio>
							</media>
						</file>
						<logginginfo>
							<description></description>
							<scene></scene>
							<shottake></shottake>
							<lognote></lognote>
							<good></good>
							<originalvideofilename></originalvideofilename>
							<originalaudiofilename></originalaudiofilename>
						</logginginfo>
						<colorinfo>
							<lut></lut>
							<lut1></lut1>
							<asc_sop></asc_sop>
							<asc_sat></asc_sat>
							<lut2></lut2>
						</colorinfo>
						<labels>
							<label2>Rose</label2>
						</labels>
					</clipitem>
					<clipitem id="clipitem-134">
						<masterclipid>masterclip-116</masterclipid>
						<name>wiblo_1_2000-01-01_1129_C0041.mov</name>
						<enabled>TRUE</enabled>
						<duration>2344</duration>
						<rate>
							<timebase>24</timebase>
							<ntsc>TRUE</ntsc>
						</rate>
						<start>53377</start>
						<end>55721</end>
						<in>0</in>
						<out>2344</out>
						<pproTicksIn>0</pproTicksIn>
						<pproTicksOut>24833704896000</pproTicksOut>
						<alphatype>none</alphatype>
						<pixelaspectratio>square</pixelaspectratio>
						<anamorphic>FALSE</anamorphic>
						<file id="file-116">
							<name>wiblo_1_2000-01-01_1129_C0041.mov</name>
							<pathurl>file://localhost/Volumes/aqua/00_Footage/4)%20Wayuu/7-21%20magalys%20and%20healer%202/../7-21%20magalys%20and%20healer/wiblo_1_2000-01-01_1129_C0041.mov</pathurl>
							<rate>
								<timebase>24</timebase>
								<ntsc>TRUE</ntsc>
							</rate>
							<duration>2344</duration>
							<timecode>
								<rate>
									<timebase>24</timebase>
									<ntsc>TRUE</ntsc>
								</rate>
								<string>11:29:08:00</string>
								<frame>992352</frame>
								<displayformat>NDF</displayformat>
							</timecode>
							<media>
								<video>
									<samplecharacteristics>
										<rate>
											<timebase>24</timebase>
											<ntsc>TRUE</ntsc>
										</rate>
										<width>1920</width>
										<height>1080</height>
										<anamorphic>FALSE</anamorphic>
										<pixelaspectratio>square</pixelaspectratio>
										<fielddominance>none</fielddominance>
									</samplecharacteristics>
								</video>
								<audio>
									<samplecharacteristics>
										<depth>16</depth>
										<samplerate>48000</samplerate>
									</samplecharacteristics>
									<channelcount>2</channelcount>
								</audio>
							</media>
						</file>
						<logginginfo>
							<description></description>
							<scene></scene>
							<shottake></shottake>
							<lognote></lognote>
							<good></good>
							<originalvideofilename></originalvideofilename>
							<originalaudiofilename></originalaudiofilename>
						</logginginfo>
						<colorinfo>
							<lut></lut>
							<lut1></lut1>
							<asc_sop></asc_sop>
							<asc_sat></asc_sat>
							<lut2></lut2>
						</colorinfo>
						<labels>
							<label2>Iris</label2>
						</labels>
					</clipitem>
					<clipitem id="clipitem-135">
						<masterclipid>masterclip-117</masterclipid>
						<name>wiblo_1_2000-01-01_1131_C0042.mov</name>
						<enabled>TRUE</enabled>
						<duration>4258</duration>
						<rate>
							<timebase>24</timebase>
							<ntsc>TRUE</ntsc>
						</rate>
						<start>56122</start>
						<end>60380</end>
						<in>0</in>
						<out>4258</out>
						<pproTicksIn>0</pproTicksIn>
						<pproTicksOut>45111738672000</pproTicksOut>
						<alphatype>none</alphatype>
						<pixelaspectratio>square</pixelaspectratio>
						<anamorphic>FALSE</anamorphic>
						<file id="file-117">
							<name>wiblo_1_2000-01-01_1131_C0042.mov</name>
							<pathurl>file://localhost/Volumes/aqua/00_Footage/4)%20Wayuu/7-21%20magalys%20and%20healer%202/../7-21%20magalys%20and%20healer/wiblo_1_2000-01-01_1131_C0042.mov</pathurl>
							<rate>
								<timebase>24</timebase>
								<ntsc>TRUE</ntsc>
							</rate>
							<duration>4258</duration>
							<timecode>
								<rate>
									<timebase>24</timebase>
									<ntsc>TRUE</ntsc>
								</rate>
								<string>11:31:03:00</string>
								<frame>995112</frame>
								<displayformat>NDF</displayformat>
							</timecode>
							<media>
								<video>
									<samplecharacteristics>
										<rate>
											<timebase>24</timebase>
											<ntsc>TRUE</ntsc>
										</rate>
										<width>1920</width>
										<height>1080</height>
										<anamorphic>FALSE</anamorphic>
										<pixelaspectratio>square</pixelaspectratio>
										<fielddominance>none</fielddominance>
									</samplecharacteristics>
								</video>
								<audio>
									<samplecharacteristics>
										<depth>16</depth>
										<samplerate>48000</samplerate>
									</samplecharacteristics>
									<channelcount>2</channelcount>
								</audio>
							</media>
						</file>
						<logginginfo>
							<description></description>
							<scene></scene>
							<shottake></shottake>
							<lognote></lognote>
							<good></good>
							<originalvideofilename></originalvideofilename>
							<originalaudiofilename></originalaudiofilename>
						</logginginfo>
						<colorinfo>
							<lut></lut>
							<lut1></lut1>
							<asc_sop></asc_sop>
							<asc_sat></asc_sat>
							<lut2></lut2>
						</colorinfo>
						<labels>
							<label2>Iris</label2>
						</labels>
					</clipitem>
					<clipitem id="clipitem-136">
						<masterclipid>masterclip-118</masterclipid>
						<name>wiblo_1_2000-01-01_1134_C0043.mov</name>
						<enabled>TRUE</enabled>
						<duration>3678</duration>
						<rate>
							<timebase>24</timebase>
							<ntsc>TRUE</ntsc>
						</rate>
						<start>60464</start>
						<end>64142</end>
						<in>0</in>
						<out>3678</out>
						<pproTicksIn>0</pproTicksIn>
						<pproTicksOut>38966879952000</pproTicksOut>
						<alphatype>none</alphatype>
						<pixelaspectratio>square</pixelaspectratio>
						<anamorphic>FALSE</anamorphic>
						<file id="file-118">
							<name>wiblo_1_2000-01-01_1134_C0043.mov</name>
							<pathurl>file://localhost/Volumes/aqua/00_Footage/4)%20Wayuu/7-21%20magalys%20and%20healer%202/../7-21%20magalys%20and%20healer/wiblo_1_2000-01-01_1134_C0043.mov</pathurl>
							<rate>
								<timebase>24</timebase>
								<ntsc>TRUE</ntsc>
							</rate>
							<duration>3678</duration>
							<timecode>
								<rate>
									<timebase>24</timebase>
									<ntsc>TRUE</ntsc>
								</rate>
								<string>11:34:04:00</string>
								<frame>999456</frame>
								<displayformat>NDF</displayformat>
							</timecode>
							<media>
								<video>
									<samplecharacteristics>
										<rate>
											<timebase>24</timebase>
											<ntsc>TRUE</ntsc>
										</rate>
										<width>1920</width>
										<height>1080</height>
										<anamorphic>FALSE</anamorphic>
										<pixelaspectratio>square</pixelaspectratio>
										<fielddominance>none</fielddominance>
									</samplecharacteristics>
								</video>
								<audio>
									<samplecharacteristics>
										<depth>16</depth>
										<samplerate>48000</samplerate>
									</samplecharacteristics>
									<channelcount>2</channelcount>
								</audio>
							</media>
						</file>
						<logginginfo>
							<description></description>
							<scene></scene>
							<shottake></shottake>
							<lognote></lognote>
							<good></good>
							<originalvideofilename></originalvideofilename>
							<originalaudiofilename></originalaudiofilename>
						</logginginfo>
						<colorinfo>
							<lut></lut>
							<lut1></lut1>
							<asc_sop></asc_sop>
							<asc_sat></asc_sat>
							<lut2></lut2>
						</colorinfo>
						<labels>
							<label2>Iris</label2>
						</labels>
					</clipitem>
					<clipitem id="clipitem-137">
						<masterclipid>masterclip-119</masterclipid>
						<name>julian_1_2021-12-26_1638_C0018.mov</name>
						<enabled>TRUE</enabled>
						<duration>428</duration>
						<rate>
							<timebase>24</timebase>
							<ntsc>TRUE</ntsc>
						</rate>
						<start>64145</start>
						<end>64565</end>
						<in>8</in>
						<out>428</out>
						<pproTicksIn>84756672000</pproTicksIn>
						<pproTicksOut>4534481952000</pproTicksOut>
						<alphatype>none</alphatype>
						<pixelaspectratio>square</pixelaspectratio>
						<anamorphic>FALSE</anamorphic>
						<file id="file-119">
							<name>julian_1_2021-12-26_1638_C0018.mov</name>
							<pathurl>file://localhost/Volumes/aqua/00_Footage/4)%20Wayuu/7-21%20magalys%20and%20healer%202/../7-21%20magalys%20and%20healer/../7-21%20magalys%20and%20piedra/julian_1_2021-12-26_1638_C0018.mov</pathurl>
							<rate>
								<timebase>24</timebase>
								<ntsc>TRUE</ntsc>
							</rate>
							<duration>428</duration>
							<timecode>
								<rate>
									<timebase>24</timebase>
									<ntsc>TRUE</ntsc>
								</rate>
								<string>16:38:59:00</string>
								<frame>1438536</frame>
								<displayformat>NDF</displayformat>
							</timecode>
							<media>
								<video>
									<samplecharacteristics>
										<rate>
											<timebase>24</timebase>
											<ntsc>TRUE</ntsc>
										</rate>
										<width>1920</width>
										<height>1080</height>
										<anamorphic>FALSE</anamorphic>
										<pixelaspectratio>square</pixelaspectratio>
										<fielddominance>none</fielddominance>
									</samplecharacteristics>
								</video>
								<audio>
									<samplecharacteristics>
										<depth>16</depth>
										<samplerate>48000</samplerate>
									</samplecharacteristics>
									<channelcount>2</channelcount>
								</audio>
							</media>
						</file>
						<logginginfo>
							<description></description>
							<scene></scene>
							<shottake></shottake>
							<lognote></lognote>
							<good></good>
							<originalvideofilename></originalvideofilename>
							<originalaudiofilename></originalaudiofilename>
						</logginginfo>
						<colorinfo>
							<lut></lut>
							<lut1></lut1>
							<asc_sop></asc_sop>
							<asc_sat></asc_sat>
							<lut2></lut2>
						</colorinfo>
						<labels>
							<label2>Rose</label2>
						</labels>
					</clipitem>
					<clipitem id="clipitem-138">
						<masterclipid>masterclip-120</masterclipid>
						<name>wiblo_1_2000-01-01_1137_C0044.mov</name>
						<enabled>TRUE</enabled>
						<duration>5846</duration>
						<rate>
							<timebase>24</timebase>
							<ntsc>TRUE</ntsc>
						</rate>
						<start>65873</start>
						<end>71719</end>
						<in>0</in>
						<out>5846</out>
						<pproTicksIn>0</pproTicksIn>
						<pproTicksOut>61935938064000</pproTicksOut>
						<alphatype>none</alphatype>
						<pixelaspectratio>square</pixelaspectratio>
						<anamorphic>FALSE</anamorphic>
						<file id="file-120">
							<name>wiblo_1_2000-01-01_1137_C0044.mov</name>
							<pathurl>file://localhost/Volumes/aqua/00_Footage/4)%20Wayuu/7-21%20magalys%20and%20healer%202/../7-21%20magalys%20and%20healer/wiblo_1_2000-01-01_1137_C0044.mov</pathurl>
							<rate>
								<timebase>24</timebase>
								<ntsc>TRUE</ntsc>
							</rate>
							<duration>5846</duration>
							<timecode>
								<rate>
									<timebase>24</timebase>
									<ntsc>TRUE</ntsc>
								</rate>
								<string>11:37:49:00</string>
								<frame>1004856</frame>
								<displayformat>NDF</displayformat>
							</timecode>
							<media>
								<video>
									<samplecharacteristics>
										<rate>
											<timebase>24</timebase>
											<ntsc>TRUE</ntsc>
										</rate>
										<width>1920</width>
										<height>1080</height>
										<anamorphic>FALSE</anamorphic>
										<pixelaspectratio>square</pixelaspectratio>
										<fielddominance>none</fielddominance>
									</samplecharacteristics>
								</video>
								<audio>
									<samplecharacteristics>
										<depth>16</depth>
										<samplerate>48000</samplerate>
									</samplecharacteristics>
									<channelcount>2</channelcount>
								</audio>
							</media>
						</file>
						<logginginfo>
							<description></description>
							<scene></scene>
							<shottake></shottake>
							<lognote></lognote>
							<good></good>
							<originalvideofilename></originalvideofilename>
							<originalaudiofilename></originalaudiofilename>
						</logginginfo>
						<colorinfo>
							<lut></lut>
							<lut1></lut1>
							<asc_sop></asc_sop>
							<asc_sat></asc_sat>
							<lut2></lut2>
						</colorinfo>
						<labels>
							<label2>Iris</label2>
						</labels>
					</clipitem>
					<clipitem id="clipitem-139">
						<masterclipid>masterclip-121</masterclipid>
						<name>wiblo_1_2000-01-01_1041_C0029.mov</name>
						<enabled>TRUE</enabled>
						<duration>46</duration>
						<rate>
							<timebase>24</timebase>
							<ntsc>TRUE</ntsc>
						</rate>
						<start>75994</start>
						<end>76040</end>
						<in>0</in>
						<out>46</out>
						<pproTicksIn>0</pproTicksIn>
						<pproTicksOut>487350864000</pproTicksOut>
						<alphatype>none</alphatype>
						<pixelaspectratio>square</pixelaspectratio>
						<anamorphic>FALSE</anamorphic>
						<file id="file-121">
							<name>wiblo_1_2000-01-01_1041_C0029.mov</name>
							<pathurl>file://localhost/Volumes/aqua/00_Footage/4)%20Wayuu/7-21%20magalys%20and%20healer%202/../7-21%20magalys%20and%20healer/wiblo_1_2000-01-01_1041_C0029.mov</pathurl>
							<rate>
								<timebase>24</timebase>
								<ntsc>TRUE</ntsc>
							</rate>
							<duration>46</duration>
							<timecode>
								<rate>
									<timebase>24</timebase>
									<ntsc>TRUE</ntsc>
								</rate>
								<string>10:41:52:00</string>
								<frame>924288</frame>
								<displayformat>NDF</displayformat>
							</timecode>
							<media>
								<video>
									<samplecharacteristics>
										<rate>
											<timebase>24</timebase>
											<ntsc>TRUE</ntsc>
										</rate>
										<width>1920</width>
										<height>1080</height>
										<anamorphic>FALSE</anamorphic>
										<pixelaspectratio>square</pixelaspectratio>
										<fielddominance>none</fielddominance>
									</samplecharacteristics>
								</video>
								<audio>
									<samplecharacteristics>
										<depth>16</depth>
										<samplerate>48000</samplerate>
									</samplecharacteristics>
									<channelcount>2</channelcount>
								</audio>
							</media>
						</file>
						<logginginfo>
							<description></description>
							<scene></scene>
							<shottake></shottake>
							<lognote></lognote>
							<good></good>
							<originalvideofilename></originalvideofilename>
							<originalaudiofilename></originalaudiofilename>
						</logginginfo>
						<colorinfo>
							<lut></lut>
							<lut1></lut1>
							<asc_sop></asc_sop>
							<asc_sat></asc_sat>
							<lut2></lut2>
						</colorinfo>
						<labels>
							<label2>Rose</label2>
						</labels>
					</clipitem>
					<clipitem id="clipitem-140">
						<masterclipid>masterclip-122</masterclipid>
						<name>wiblo_1_2000-01-01_1042_C0030.mov</name>
						<enabled>TRUE</enabled>
						<duration>222</duration>
						<rate>
							<timebase>24</timebase>
							<ntsc>TRUE</ntsc>
						</rate>
						<start>76240</start>
						<end>76461</end>
						<in>1</in>
						<out>222</out>
						<pproTicksIn>10594584000</pproTicksIn>
						<pproTicksOut>2351997648000</pproTicksOut>
						<alphatype>none</alphatype>
						<pixelaspectratio>square</pixelaspectratio>
						<anamorphic>FALSE</anamorphic>
						<file id="file-122">
							<name>wiblo_1_2000-01-01_1042_C0030.mov</name>
							<pathurl>file://localhost/Volumes/aqua/00_Footage/4)%20Wayuu/7-21%20magalys%20and%20healer%202/../7-21%20magalys%20and%20healer/wiblo_1_2000-01-01_1042_C0030.mov</pathurl>
							<rate>
								<timebase>24</timebase>
								<ntsc>TRUE</ntsc>
							</rate>
							<duration>222</duration>
							<timecode>
								<rate>
									<timebase>24</timebase>
									<ntsc>TRUE</ntsc>
								</rate>
								<string>10:42:05:00</string>
								<frame>924600</frame>
								<displayformat>NDF</displayformat>
							</timecode>
							<media>
								<video>
									<samplecharacteristics>
										<rate>
											<timebase>24</timebase>
											<ntsc>TRUE</ntsc>
										</rate>
										<width>1920</width>
										<height>1080</height>
										<anamorphic>FALSE</anamorphic>
										<pixelaspectratio>square</pixelaspectratio>
										<fielddominance>none</fielddominance>
									</samplecharacteristics>
								</video>
								<audio>
									<samplecharacteristics>
										<depth>16</depth>
										<samplerate>48000</samplerate>
									</samplecharacteristics>
									<channelcount>2</channelcount>
								</audio>
							</media>
						</file>
						<logginginfo>
							<description></description>
							<scene></scene>
							<shottake></shottake>
							<lognote></lognote>
							<good></good>
							<originalvideofilename></originalvideofilename>
							<originalaudiofilename></originalaudiofilename>
						</logginginfo>
						<colorinfo>
							<lut></lut>
							<lut1></lut1>
							<asc_sop></asc_sop>
							<asc_sat></asc_sat>
							<lut2></lut2>
						</colorinfo>
						<labels>
							<label2>Rose</label2>
						</labels>
					</clipitem>
					<clipitem id="clipitem-141">
						<masterclipid>masterclip-123</masterclipid>
						<name>wiblo_1_2000-01-01_1042_C0031.mov</name>
						<enabled>TRUE</enabled>
						<duration>178</duration>
						<rate>
							<timebase>24</timebase>
							<ntsc>TRUE</ntsc>
						</rate>
						<start>76561</start>
						<end>76738</end>
						<in>1</in>
						<out>178</out>
						<pproTicksIn>10594584000</pproTicksIn>
						<pproTicksOut>1885835952000</pproTicksOut>
						<alphatype>none</alphatype>
						<pixelaspectratio>square</pixelaspectratio>
						<anamorphic>FALSE</anamorphic>
						<file id="file-123">
							<name>wiblo_1_2000-01-01_1042_C0031.mov</name>
							<pathurl>file://localhost/Volumes/aqua/00_Footage/4)%20Wayuu/7-21%20magalys%20and%20healer%202/../7-21%20magalys%20and%20healer/wiblo_1_2000-01-01_1042_C0031.mov</pathurl>
							<rate>
								<timebase>24</timebase>
								<ntsc>TRUE</ntsc>
							</rate>
							<duration>178</duration>
							<timecode>
								<rate>
									<timebase>24</timebase>
									<ntsc>TRUE</ntsc>
								</rate>
								<string>10:42:20:00</string>
								<frame>924960</frame>
								<displayformat>NDF</displayformat>
							</timecode>
							<media>
								<video>
									<samplecharacteristics>
										<rate>
											<timebase>24</timebase>
											<ntsc>TRUE</ntsc>
										</rate>
										<width>1920</width>
										<height>1080</height>
										<anamorphic>FALSE</anamorphic>
										<pixelaspectratio>square</pixelaspectratio>
										<fielddominance>none</fielddominance>
									</samplecharacteristics>
								</video>
								<audio>
									<samplecharacteristics>
										<depth>16</depth>
										<samplerate>48000</samplerate>
									</samplecharacteristics>
									<channelcount>2</channelcount>
								</audio>
							</media>
						</file>
						<logginginfo>
							<description></description>
							<scene></scene>
							<shottake></shottake>
							<lognote></lognote>
							<good></good>
							<originalvideofilename></originalvideofilename>
							<originalaudiofilename></originalaudiofilename>
						</logginginfo>
						<colorinfo>
							<lut></lut>
							<lut1></lut1>
							<asc_sop></asc_sop>
							<asc_sat></asc_sat>
							<lut2></lut2>
						</colorinfo>
						<labels>
							<label2>Rose</label2>
						</labels>
					</clipitem>
					<clipitem id="clipitem-142">
						<masterclipid>masterclip-124</masterclipid>
						<name>wiblo_1_2000-01-01_1042_C0032.mov</name>
						<enabled>TRUE</enabled>
						<duration>844</duration>
						<rate>
							<timebase>24</timebase>
							<ntsc>TRUE</ntsc>
						</rate>
						<start>76850</start>
						<end>77244</end>
						<in>1</in>
						<out>395</out>
						<pproTicksIn>10594584000</pproTicksIn>
						<pproTicksOut>4184860680000</pproTicksOut>
						<alphatype>none</alphatype>
						<pixelaspectratio>square</pixelaspectratio>
						<anamorphic>FALSE</anamorphic>
						<file id="file-124">
							<name>wiblo_1_2000-01-01_1042_C0032.mov</name>
							<pathurl>file://localhost/Volumes/aqua/00_Footage/4)%20Wayuu/7-21%20magalys%20and%20healer%202/../7-21%20magalys%20and%20healer/wiblo_1_2000-01-01_1042_C0032.mov</pathurl>
							<rate>
								<timebase>24</timebase>
								<ntsc>TRUE</ntsc>
							</rate>
							<duration>844</duration>
							<timecode>
								<rate>
									<timebase>24</timebase>
									<ntsc>TRUE</ntsc>
								</rate>
								<string>10:42:31:00</string>
								<frame>925224</frame>
								<displayformat>NDF</displayformat>
							</timecode>
							<media>
								<video>
									<samplecharacteristics>
										<rate>
											<timebase>24</timebase>
											<ntsc>TRUE</ntsc>
										</rate>
										<width>1920</width>
										<height>1080</height>
										<anamorphic>FALSE</anamorphic>
										<pixelaspectratio>square</pixelaspectratio>
										<fielddominance>none</fielddominance>
									</samplecharacteristics>
								</video>
								<audio>
									<samplecharacteristics>
										<depth>16</depth>
										<samplerate>48000</samplerate>
									</samplecharacteristics>
									<channelcount>2</channelcount>
								</audio>
							</media>
						</file>
						<logginginfo>
							<description></description>
							<scene></scene>
							<shottake></shottake>
							<lognote></lognote>
							<good></good>
							<originalvideofilename></originalvideofilename>
							<originalaudiofilename></originalaudiofilename>
						</logginginfo>
						<colorinfo>
							<lut></lut>
							<lut1></lut1>
							<asc_sop></asc_sop>
							<asc_sat></asc_sat>
							<lut2></lut2>
						</colorinfo>
						<labels>
							<label2>Rose</label2>
						</labels>
					</clipitem>
					<clipitem id="clipitem-143">
						<masterclipid>masterclip-124</masterclipid>
						<name>wiblo_1_2000-01-01_1042_C0032.mov</name>
						<enabled>TRUE</enabled>
						<duration>844</duration>
						<rate>
							<timebase>24</timebase>
							<ntsc>TRUE</ntsc>
						</rate>
						<start>77244</start>
						<end>77693</end>
						<in>395</in>
						<out>844</out>
						<pproTicksIn>4184860680000</pproTicksIn>
						<pproTicksOut>8941828896000</pproTicksOut>
						<alphatype>none</alphatype>
						<file id="file-124"/>
						<logginginfo>
							<description></description>
							<scene></scene>
							<shottake></shottake>
							<lognote></lognote>
							<good></good>
							<originalvideofilename></originalvideofilename>
							<originalaudiofilename></originalaudiofilename>
						</logginginfo>
						<colorinfo>
							<lut></lut>
							<lut1></lut1>
							<asc_sop></asc_sop>
							<asc_sat></asc_sat>
							<lut2></lut2>
						</colorinfo>
						<labels>
							<label2>Rose</label2>
						</labels>
					</clipitem>
					<clipitem id="clipitem-144">
						<masterclipid>masterclip-125</masterclipid>
						<name>wiblo_1_2000-01-01_1043_C0033.mov</name>
						<enabled>TRUE</enabled>
						<duration>169</duration>
						<rate>
							<timebase>24</timebase>
							<ntsc>TRUE</ntsc>
						</rate>
						<start>77971</start>
						<end>78139</end>
						<in>1</in>
						<out>169</out>
						<pproTicksIn>10594584000</pproTicksIn>
						<pproTicksOut>1790484696000</pproTicksOut>
						<alphatype>none</alphatype>
						<pixelaspectratio>square</pixelaspectratio>
						<anamorphic>FALSE</anamorphic>
						<file id="file-125">
							<name>wiblo_1_2000-01-01_1043_C0033.mov</name>
							<pathurl>file://localhost/Volumes/aqua/00_Footage/4)%20Wayuu/7-21%20magalys%20and%20healer%202/../7-21%20magalys%20and%20healer/wiblo_1_2000-01-01_1043_C0033.mov</pathurl>
							<rate>
								<timebase>24</timebase>
								<ntsc>TRUE</ntsc>
							</rate>
							<duration>169</duration>
							<timecode>
								<rate>
									<timebase>24</timebase>
									<ntsc>TRUE</ntsc>
								</rate>
								<string>10:43:12:00</string>
								<frame>926208</frame>
								<displayformat>NDF</displayformat>
							</timecode>
							<media>
								<video>
									<samplecharacteristics>
										<rate>
											<timebase>24</timebase>
											<ntsc>TRUE</ntsc>
										</rate>
										<width>1920</width>
										<height>1080</height>
										<anamorphic>FALSE</anamorphic>
										<pixelaspectratio>square</pixelaspectratio>
										<fielddominance>none</fielddominance>
									</samplecharacteristics>
								</video>
								<audio>
									<samplecharacteristics>
										<depth>16</depth>
										<samplerate>48000</samplerate>
									</samplecharacteristics>
									<channelcount>2</channelcount>
								</audio>
							</media>
						</file>
						<logginginfo>
							<description></description>
							<scene></scene>
							<shottake></shottake>
							<lognote></lognote>
							<good></good>
							<originalvideofilename></originalvideofilename>
							<originalaudiofilename></originalaudiofilename>
						</logginginfo>
						<colorinfo>
							<lut></lut>
							<lut1></lut1>
							<asc_sop></asc_sop>
							<asc_sat></asc_sat>
							<lut2></lut2>
						</colorinfo>
						<labels>
							<label2>Rose</label2>
						</labels>
					</clipitem>
					<clipitem id="clipitem-145">
						<masterclipid>masterclip-126</masterclipid>
						<name>wiblo_1_2000-01-01_1044_C0034.mov</name>
						<enabled>TRUE</enabled>
						<duration>242</duration>
						<rate>
							<timebase>24</timebase>
							<ntsc>TRUE</ntsc>
						</rate>
						<start>79957</start>
						<end>80198</end>
						<in>1</in>
						<out>242</out>
						<pproTicksIn>10594584000</pproTicksIn>
						<pproTicksOut>2563889328000</pproTicksOut>
						<alphatype>none</alphatype>
						<pixelaspectratio>square</pixelaspectratio>
						<anamorphic>FALSE</anamorphic>
						<file id="file-126">
							<name>wiblo_1_2000-01-01_1044_C0034.mov</name>
							<pathurl>file://localhost/Volumes/aqua/00_Footage/4)%20Wayuu/7-21%20magalys%20and%20healer%202/../7-21%20magalys%20and%20healer/wiblo_1_2000-01-01_1044_C0034.mov</pathurl>
							<rate>
								<timebase>24</timebase>
								<ntsc>TRUE</ntsc>
							</rate>
							<duration>242</duration>
							<timecode>
								<rate>
									<timebase>24</timebase>
									<ntsc>TRUE</ntsc>
								</rate>
								<string>10:44:48:00</string>
								<frame>928512</frame>
								<displayformat>NDF</displayformat>
							</timecode>
							<media>
								<video>
									<samplecharacteristics>
										<rate>
											<timebase>24</timebase>
											<ntsc>TRUE</ntsc>
										</rate>
										<width>1920</width>
										<height>1080</height>
										<anamorphic>FALSE</anamorphic>
										<pixelaspectratio>square</pixelaspectratio>
										<fielddominance>none</fielddominance>
									</samplecharacteristics>
								</video>
								<audio>
									<samplecharacteristics>
										<depth>16</depth>
										<samplerate>48000</samplerate>
									</samplecharacteristics>
									<channelcount>2</channelcount>
								</audio>
							</media>
						</file>
						<logginginfo>
							<description></description>
							<scene></scene>
							<shottake></shottake>
							<lognote></lognote>
							<good></good>
							<originalvideofilename></originalvideofilename>
							<originalaudiofilename></originalaudiofilename>
						</logginginfo>
						<colorinfo>
							<lut></lut>
							<lut1></lut1>
							<asc_sop></asc_sop>
							<asc_sat></asc_sat>
							<lut2></lut2>
						</colorinfo>
						<labels>
							<label2>Rose</label2>
						</labels>
					</clipitem>
					<enabled>TRUE</enabled>
					<locked>FALSE</locked>
				</track>
				<track TL.SQTrackShy="0" TL.SQTrackExpandedHeight="25" TL.SQTrackExpanded="0" MZ.TrackTargeted="0">
					<clipitem id="clipitem-146">
						<masterclipid>masterclip-127</masterclipid>
						<name>BM Adjustment Layer</name>
						<enabled>TRUE</enabled>
						<duration>1035764</duration>
						<rate>
							<timebase>24</timebase>
							<ntsc>TRUE</ntsc>
						</rate>
						<start>0</start>
						<end>72765</end>
						<in>91996</in>
						<out>164761</out>
						<pproTicksIn>974659349664000</pproTicksIn>
						<pproTicksOut>1745574254424000</pproTicksOut>
						<alphatype>none</alphatype>
						<pixelaspectratio>square</pixelaspectratio>
						<anamorphic>FALSE</anamorphic>
						<file id="file-127">
							<name>Black Video</name>
							<mediaSource>Slug</mediaSource>
							<rate>
								<timebase>30</timebase>
								<ntsc>TRUE</ntsc>
							</rate>
							<timecode>
								<rate>
									<timebase>30</timebase>
									<ntsc>TRUE</ntsc>
								</rate>
								<string>00;00;00;00</string>
								<frame>0</frame>
								<displayformat>DF</displayformat>
							</timecode>
							<media>
								<video>
									<samplecharacteristics>
										<rate>
											<timebase>30</timebase>
											<ntsc>TRUE</ntsc>
										</rate>
										<width>1920</width>
										<height>1080</height>
										<anamorphic>FALSE</anamorphic>
										<pixelaspectratio>square</pixelaspectratio>
										<fielddominance>none</fielddominance>
									</samplecharacteristics>
								</video>
							</media>
						</file>
						<filter>
							<effect>
								<name></name>
								<effectid>Lumetri</effectid>
								<effecttype>filter</effecttype>
								<mediatype>video</mediatype>
								<pproBypass>false</pproBypass>
								<parameter authoringApp="PremierePro">
									<parameterid>1</parameterid>
									<name>Blob</name>
									<hash>63d4c37b-fb5f-4187-12a1-ab520000398e</hash>
									<value>PEx1bWV0cmk+CiAgPGd1aWQ+ImEyNzA4MDE2LTM1ODYtMTFlZS04NDk0LTAyYzA2MTVlNzU4MyI8L2d1aWQ+CiAgPHZlcnNpb24+IjMiPC92ZXJzaW9uPgogIDxuYW1lPiIiPC9uYW1lPgogIDxrZXlmcmFtZT4KICAgIDx0aW1lPiIwIjwvdGltZT4KICAgIDx0d2Vlbj4iMCI8L3R3ZWVuPgogICAgPGVhc2Vpbj4iMSI8L2Vhc2Vpbj4KICAgIDxlYXNlb3V0PiIxIjwvZWFzZW91dD4KICAgIDxzZWxlY3RlZGxheWVyPiIwIjwvc2VsZWN0ZWRsYXllcj4KICAgIDxzaGFkZXI+CiAgICAgIDxuYW1lPiJfX0dyb3VwQmVnaW4iPC9uYW1lPgogICAgICA8Y3VzdG9tbmFtZT4iX19Hcm91cEJlZ2luIjwvY3VzdG9tbmFtZT4KICAgICAgPHZpc2libGU+IjEiPC92aXNpYmxlPgogICAgICA8bG9ja2VkdmlzaWJsZT4iMCI8L2xvY2tlZHZpc2libGU+CiAgICAgIDxvcGFjaXR5PiIxIjwvb3BhY2l0eT4KICAgICAgPG1hc2s+IjAiPC9tYXNrPgogICAgICA8dmVjdG9ybWFzaz4iMCI8L3ZlY3Rvcm1hc2s+CiAgICAgIDxsaW5rZWQ+IjAiPC9saW5rZWQ+CiAgICAgIDxwYXJhbWV0ZXJzPgogICAgICAgIDxfX1ByQ29sb3I+IjEiPC9fX1ByQ29sb3I+CiAgICAgICAgPF9fQ3VzdG9tT24+IjEiPC9fX0N1c3RvbU9uPgogICAgICA8L3BhcmFtZXRlcnM+CiAgICA8L3NoYWRlcj4KICAgIDxzaGFkZXI+CiAgICAgIDxuYW1lPiJfX0dyb3VwQmVnaW4iPC9uYW1lPgogICAgICA8Y3VzdG9tbmFtZT4iX19Hcm91cEJlZ2luIjwvY3VzdG9tbmFtZT4KICAgICAgPHZpc2libGU+IjEiPC92aXNpYmxlPgogICAgICA8bG9ja2VkdmlzaWJsZT4iMCI8L2xvY2tlZHZpc2libGU+CiAgICAgIDxvcGFjaXR5PiIxIjwvb3BhY2l0eT4KICAgICAgPG1hc2s+IjAiPC9tYXNrPgogICAgICA8dmVjdG9ybWFzaz4iMCI8L3ZlY3Rvcm1hc2s+CiAgICAgIDxsaW5rZWQ+IjAiPC9saW5rZWQ+CiAgICAgIDxwYXJhbWV0ZXJzPgogICAgICA8L3BhcmFtZXRlcnM+CiAgICA8L3NoYWRlcj4KICAgIDxzaGFkZXI+CiAgICAgIDxuYW1lPiJMVVQiPC9uYW1lPgogICAgICA8Y3VzdG9tbmFtZT4iTFVUIjwvY3VzdG9tbmFtZT4KICAgICAgPHZpc2libGU+IjEiPC92aXNpYmxlPgogICAgICA8bG9ja2VkdmlzaWJsZT4iMCI8L2xvY2tlZHZpc2libGU+CiAgICAgIDxvcGFjaXR5PiIxIjwvb3BhY2l0eT4KICAgICAgPG1hc2s+IjAiPC9tYXNrPgogICAgICA8dmVjdG9ybWFzaz4iMCI8L3ZlY3Rvcm1hc2s+CiAgICAgIDxsaW5rZWQ+IjAiPC9saW5rZWQ+CiAgICAgIDxwYXJhbWV0ZXJzPgogICAgICAgIDxfX0VtYmVkPiIxIjwvX19FbWJlZD4KICAgICAgICA8TFVUPiIiPC9MVVQ+CiAgICAgIDwvcGFyYW1ldGVycz4KICAgIDwvc2hhZGVyPgogICAgPHNoYWRlcj4KICAgICAgPG5hbWU+IkxpbmVhcml6ZSI8L25hbWU+CiAgICAgIDxjdXN0b21uYW1lPiJHYW1tYSAyLjQgdG8gTGluZWFyIjwvY3VzdG9tbmFtZT4KICAgICAgPHZpc2libGU+IjEiPC92aXNpYmxlPgogICAgICA8bG9ja2VkdmlzaWJsZT4iMCI8L2xvY2tlZHZpc2libGU+CiAgICAgIDxvcGFjaXR5PiIxIjwvb3BhY2l0eT4KICAgICAgPG1hc2s+IjAiPC9tYXNrPgogICAgICA8dmVjdG9ybWFzaz4iMCI8L3ZlY3Rvcm1hc2s+CiAgICAgIDxsaW5rZWQ+IjAiPC9saW5rZWQ+CiAgICAgIDxwYXJhbWV0ZXJzPgogICAgICAgIDxHYW1tYT4iMi40IjwvR2FtbWE+CiAgICAgIDwvcGFyYW1ldGVycz4KICAgIDwvc2hhZGVyPgogICAgPHNoYWRlcj4KICAgICAgPG5hbWU+IkJhc2ljQ29ycmVjdGlvbjMiPC9uYW1lPgogICAgICA8Y3VzdG9tbmFtZT4iQmFzaWMgQ29ycmVjdGlvbiI8L2N1c3RvbW5hbWU+CiAgICAgIDx2aXNpYmxlPiIxIjwvdmlzaWJsZT4KICAgICAgPGxvY2tlZHZpc2libGU+IjAiPC9sb2NrZWR2aXNpYmxlPgogICAgICA8b3BhY2l0eT4iMSI8L29wYWNpdHk+CiAgICAgIDxtYXNrPiIwIjwvbWFzaz4KICAgICAgPHZlY3Rvcm1hc2s+IjAiPC92ZWN0b3JtYXNrPgogICAgICA8bGlua2VkPiIwIjwvbGlua2VkPgogICAgICA8cGFyYW1ldGVycz4KICAgICAgICA8RXhwb3N1cmU+IkQwIjwvRXhwb3N1cmU+CiAgICAgICAgPEJsYWNrcz4iRDAiPC9CbGFja3M+CiAgICAgICAgPERpZmZXaGl0ZT4iTjEwMCI8L0RpZmZXaGl0ZT4KICAgICAgICA8Q29udHJhc3Q+IkQwIjwvQ29udHJhc3Q+CiAgICAgICAgPFNoYWRvd3M+IkQwIjwvU2hhZG93cz4KICAgICAgICA8VGVtcD4iRDAiPC9UZW1wPgogICAgICAgIDxXaGl0ZXM+IkQwIjwvV2hpdGVzPgogICAgICAgIDxTcGVjdWxhcj4iRDAiPC9TcGVjdWxhcj4KICAgICAgICA8SGlnaGxpZ2h0cz4iRDAiPC9IaWdobGlnaHRzPgogICAgICAgIDxTYXR1cmF0aW9uPiJEMTAwIjwvU2F0dXJhdGlvbj4KICAgICAgICA8VGludD4iRDAiPC9UaW50PgogICAgICA8L3BhcmFtZXRlcnM+CiAgICA8L3NoYWRlcj4KICAgIDxzaGFkZXI+CiAgICAgIDxuYW1lPiJfX0dyb3VwRW5kIjwvbmFtZT4KICAgICAgPGN1c3RvbW5hbWU+IkJhc2ljIENvcnJlY3Rpb24iPC9jdXN0b21uYW1lPgogICAgICA8dmlzaWJsZT4iMSI8L3Zpc2libGU+CiAgICAgIDxsb2NrZWR2aXNpYmxlPiIwIjwvbG9ja2VkdmlzaWJsZT4KICAgICAgPG9wYWNpdHk+IjEiPC9vcGFjaXR5PgogICAgICA8bWFzaz4iMCI8L21hc2s+CiAgICAgIDx2ZWN0b3JtYXNrPiIwIjwvdmVjdG9ybWFzaz4KICAgICAgPGxpbmtlZD4iMCI8L2xpbmtlZD4KICAgICAgPHBhcmFtZXRlcnM+CiAgICAgICAgPENvbGxhcHNlZD4iMSI8L0NvbGxhcHNlZD4KICAgICAgICA8X19CYXNpYz4iMSI8L19fQmFzaWM+CiAgICAgIDwvcGFyYW1ldGVycz4KICAgIDwvc2hhZGVyPgogICAgPHNoYWRlcj4KICAgICAgPG5hbWU+Il9fR3JvdXBCZWdpbiI8L25hbWU+CiAgICAgIDxjdXN0b21uYW1lPiJfX0dyb3VwQmVnaW4iPC9jdXN0b21uYW1lPgogICAgICA8dmlzaWJsZT4iMSI8L3Zpc2libGU+CiAgICAgIDxsb2NrZWR2aXNpYmxlPiIwIjwvbG9ja2VkdmlzaWJsZT4KICAgICAgPG9wYWNpdHk+IjEiPC9vcGFjaXR5PgogICAgICA8bWFzaz4iMCI8L21hc2s+CiAgICAgIDx2ZWN0b3JtYXNrPiIwIjwvdmVjdG9ybWFzaz4KICAgICAgPGxpbmtlZD4iMCI8L2xpbmtlZD4KICAgICAgPHBhcmFtZXRlcnM+CiAgICAgIDwvcGFyYW1ldGVycz4KICAgIDwvc2hhZGVyPgogICAgPHNoYWRlcj4KICAgICAgPG5hbWU+Il9fR3JvdXBCZWdpbiI8L25hbWU+CiAgICAgIDxjdXN0b21uYW1lPiJfX0dyb3VwQmVnaW4iPC9jdXN0b21uYW1lPgogICAgICA8dmlzaWJsZT4iMSI8L3Zpc2libGU+CiAgICAgIDxsb2NrZWR2aXNpYmxlPiIwIjwvbG9ja2VkdmlzaWJsZT4KICAgICAgPG9wYWNpdHk+IjEiPC9vcGFjaXR5PgogICAgICA8bWFzaz4iMCI8L21hc2s+CiAgICAgIDx2ZWN0b3JtYXNrPiIwIjwvdmVjdG9ybWFzaz4KICAgICAgPGxpbmtlZD4iMCI8L2xpbmtlZD4KICAgICAgPHBhcmFtZXRlcnM+CiAgICAgICAgPF9fRW1iZWQ+IjEiPC9fX0VtYmVkPgogICAgICAgIDxfX1ByZXNldD4iU0wgQ0xFQU4gS09EQUsgQi5pdHgiPC9fX1ByZXNldD4KICAgICAgPC9wYXJhbWV0ZXJzPgogICAgPC9zaGFkZXI+CiAgICA8c2hhZGVyPgogICAgICA8bmFtZT4iTGluZWFyaXplIjwvbmFtZT4KICAgICAgPGN1c3RvbW5hbWU+IkxpbmVhciB0byBHYW1tYSAyLjQiPC9jdXN0b21uYW1lPgogICAgICA8dmlzaWJsZT4iMSI8L3Zpc2libGU+CiAgICAgIDxsb2NrZWR2aXNpYmxlPiIwIjwvbG9ja2VkdmlzaWJsZT4KICAgICAgPG9wYWNpdHk+IjEiPC9vcGFjaXR5PgogICAgICA8bWFzaz4iMCI8L21hc2s+CiAgICAgIDx2ZWN0b3JtYXNrPiIwIjwvdmVjdG9ybWFzaz4KICAgICAgPGxpbmtlZD4iMCI8L2xpbmtlZD4KICAgICAgPHBhcmFtZXRlcnM+CiAgICAgICAgPEdhbW1hPiIwLjQxNjY3IjwvR2FtbWE+CiAgICAgIDwvcGFyYW1ldGVycz4KICAgIDwvc2hhZGVyPgogICAgPHNoYWRlcj4KICAgICAgPG5hbWU+IkxVVCI8L25hbWU+CiAgICAgIDxjdXN0b21uYW1lPiJMVVQiPC9jdXN0b21uYW1lPgogICAgICA8dmlzaWJsZT4iMSI8L3Zpc2libGU+CiAgICAgIDxsb2NrZWR2aXNpYmxlPiIwIjwvbG9ja2VkdmlzaWJsZT4KICAgICAgPG9wYWNpdHk+IjEiPC9vcGFjaXR5PgogICAgICA8bWFzaz4iMCI8L21hc2s+CiAgICAgIDx2ZWN0b3JtYXNrPiIwIjwvdmVjdG9ybWFzaz4KICAgICAgPGxpbmtlZD4iMCI8L2xpbmtlZD4KICAgICAgPHBhcmFtZXRlcnM+CiAgICAgICAgPExVVD4iU0wgQ0xFQU4gS09EQUsgQi5pdHgiPC9MVVQ+CiAgICAgIDwvcGFyYW1ldGVycz4KICAgIDwvc2hhZGVyPgogICAgPHNoYWRlcj4KICAgICAgPG5hbWU+IkxpbmVhcml6ZSI8L25hbWU+CiAgICAgIDxjdXN0b21uYW1lPiJHYW1tYSAyLjQgdG8gbGluZWFyIjwvY3VzdG9tbmFtZT4KICAgICAgPHZpc2libGU+IjEiPC92aXNpYmxlPgogICAgICA8bG9ja2VkdmlzaWJsZT4iMCI8L2xvY2tlZHZpc2libGU+CiAgICAgIDxvcGFjaXR5PiIxIjwvb3BhY2l0eT4KICAgICAgPG1hc2s+IjAiPC9tYXNrPgogICAgICA8dmVjdG9ybWFzaz4iMCI8L3ZlY3Rvcm1hc2s+CiAgICAgIDxsaW5rZWQ+IjAiPC9saW5rZWQ+CiAgICAgIDxwYXJhbWV0ZXJzPgogICAgICAgIDxHYW1tYT4iMi40IjwvR2FtbWE+CiAgICAgIDwvcGFyYW1ldGVycz4KICAgIDwvc2hhZGVyPgogICAgPHNoYWRlcj4KICAgICAgPG5hbWU+Il9fR3JvdXBFbmQiPC9uYW1lPgogICAgICA8Y3VzdG9tbmFtZT4iUHJlc2V0IjwvY3VzdG9tbmFtZT4KICAgICAgPHZpc2libGU+IjEiPC92aXNpYmxlPgogICAgICA8bG9ja2VkdmlzaWJsZT4iMCI8L2xvY2tlZHZpc2libGU+CiAgICAgIDxvcGFjaXR5PiIxIjwvb3BhY2l0eT4KICAgICAgPG1hc2s+IjAiPC9tYXNrPgogICAgICA8dmVjdG9ybWFzaz4iMCI8L3ZlY3Rvcm1hc2s+CiAgICAgIDxsaW5rZWQ+IjAiPC9saW5rZWQ+CiAgICAgIDxwYXJhbWV0ZXJzPgogICAgICAgIDxfX0ludGVuc2l0eT4iMTAwIjwvX19JbnRlbnNpdHk+CiAgICAgIDwvcGFyYW1ldGVycz4KICAgIDwvc2hhZGVyPgogICAgPHNoYWRlcj4KICAgICAgPG5hbWU+Ikxvb2tBZGp1c3RtZW50cyI8L25hbWU+CiAgICAgIDxjdXN0b21uYW1lPiJMb29rIEFkanVzdG1lbnRzIjwvY3VzdG9tbmFtZT4KICAgICAgPHZpc2libGU+IjEiPC92aXNpYmxlPgogICAgICA8bG9ja2VkdmlzaWJsZT4iMCI8L2xvY2tlZHZpc2libGU+CiAgICAgIDxvcGFjaXR5PiIxIjwvb3BhY2l0eT4KICAgICAgPG1hc2s+IjAiPC9tYXNrPgogICAgICA8dmVjdG9ybWFzaz4iMCI8L3ZlY3Rvcm1hc2s+CiAgICAgIDxsaW5rZWQ+IjAiPC9saW5rZWQ+CiAgICAgIDxwYXJhbWV0ZXJzPgogICAgICAgIDxMb0hpU3BsaXQ+IkQwIjwvTG9IaVNwbGl0PgogICAgICAgIDxTaGFkb3dUaW50Llo+IkQxIjwvU2hhZG93VGludC5aPgogICAgICAgIDxIaWdobGlnaHRUaW50Llo+IkQxIjwvSGlnaGxpZ2h0VGludC5aPgogICAgICAgIDxWaWJyYW5jZT4iRDAiPC9WaWJyYW5jZT4KICAgICAgICA8RmFkZT4iRDAiPC9GYWRlPgogICAgICAgIDxTaGFkb3dUaW50Llk+IkQxIjwvU2hhZG93VGludC5ZPgogICAgICAgIDxIaWdobGlnaHRUaW50Llg+IkQxIjwvSGlnaGxpZ2h0VGludC5YPgogICAgICAgIDxIaWdobGlnaHRUaW50Llk+IkQxIjwvSGlnaGxpZ2h0VGludC5ZPgogICAgICAgIDxTYXR1cmF0aW9uPiJEMTAwIjwvU2F0dXJhdGlvbj4KICAgICAgICA8U2hhZG93VGludC5YPiJEMSI8L1NoYWRvd1RpbnQuWD4KICAgICAgPC9wYXJhbWV0ZXJzPgogICAgPC9zaGFkZXI+CiAgICA8c2hhZGVyPgogICAgICA8bmFtZT4iU2hhcnBuZXNzIjwvbmFtZT4KICAgICAgPGN1c3RvbW5hbWU+IlNoYXJwbmVzcyI8L2N1c3RvbW5hbWU+CiAgICAgIDx2aXNpYmxlPiIxIjwvdmlzaWJsZT4KICAgICAgPGxvY2tlZHZpc2libGU+IjAiPC9sb2NrZWR2aXNpYmxlPgogICAgICA8b3BhY2l0eT4iMSI8L29wYWNpdHk+CiAgICAgIDxtYXNrPiIwIjwvbWFzaz4KICAgICAgPHZlY3Rvcm1hc2s+IjAiPC92ZWN0b3JtYXNrPgogICAgICA8bGlua2VkPiIwIjwvbGlua2VkPgogICAgICA8cGFyYW1ldGVycz4KICAgICAgICA8U2hhcnBuZXNzPiJEMCI8L1NoYXJwbmVzcz4KICAgICAgPC9wYXJhbWV0ZXJzPgogICAgPC9zaGFkZXI+CiAgICA8c2hhZGVyPgogICAgICA8bmFtZT4iX19Hcm91cEVuZCI8L25hbWU+CiAgICAgIDxjdXN0b21uYW1lPiJMb29rIjwvY3VzdG9tbmFtZT4KICAgICAgPHZpc2libGU+IjEiPC92aXNpYmxlPgogICAgICA8bG9ja2VkdmlzaWJsZT4iMCI8L2xvY2tlZHZpc2libGU+CiAgICAgIDxvcGFjaXR5PiIxIjwvb3BhY2l0eT4KICAgICAgPG1hc2s+IjAiPC9tYXNrPgogICAgICA8dmVjdG9ybWFzaz4iMCI8L3ZlY3Rvcm1hc2s+CiAgICAgIDxsaW5rZWQ+IjAiPC9saW5rZWQ+CiAgICAgIDxwYXJhbWV0ZXJzPgogICAgICAgIDxfX0xvb2s+IjEiPC9fX0xvb2s+CiAgICAgICAgPENvbGxhcHNlZD4iMSI8L0NvbGxhcHNlZD4KICAgICAgPC9wYXJhbWV0ZXJzPgogICAgPC9zaGFkZXI+CiAgICA8c2hhZGVyPgogICAgICA8bmFtZT4iX19Hcm91cEJlZ2luIjwvbmFtZT4KICAgICAgPGN1c3RvbW5hbWU+Il9fR3JvdXBCZWdpbiI8L2N1c3RvbW5hbWU+CiAgICAgIDx2aXNpYmxlPiIxIjwvdmlzaWJsZT4KICAgICAgPGxvY2tlZHZpc2libGU+IjAiPC9sb2NrZWR2aXNpYmxlPgogICAgICA8b3BhY2l0eT4iMSI8L29wYWNpdHk+CiAgICAgIDxtYXNrPiIwIjwvbWFzaz4KICAgICAgPHZlY3Rvcm1hc2s+IjAiPC92ZWN0b3JtYXNrPgogICAgICA8bGlua2VkPiIwIjwvbGlua2VkPgogICAgICA8cGFyYW1ldGVycz4KICAgICAgPC9wYXJhbWV0ZXJzPgogICAgPC9zaGFkZXI+CiAgICA8c2hhZGVyPgogICAgICA8bmFtZT4iVG9uZUN1cnZlcyI8L25hbWU+CiAgICAgIDxjdXN0b21uYW1lPiJUb25lK1JHQiBDdXJ2ZXMiPC9jdXN0b21uYW1lPgogICAgICA8dmlzaWJsZT4iMSI8L3Zpc2libGU+CiAgICAgIDxsb2NrZWR2aXNpYmxlPiIwIjwvbG9ja2VkdmlzaWJsZT4KICAgICAgPG9wYWNpdHk+IjEiPC9vcGFjaXR5PgogICAgICA8bWFzaz4iMCI8L21hc2s+CiAgICAgIDx2ZWN0b3JtYXNrPiIwIjwvdmVjdG9ybWFzaz4KICAgICAgPGxpbmtlZD4iMCI8L2xpbmtlZD4KICAgICAgPHBhcmFtZXRlcnM+CiAgICAgICAgPFRvbmVDdXJ2ZXNMdW1hPiJjdWJpYyx2YWx1ZTowQDA7MUAxIjwvVG9uZUN1cnZlc0x1bWE+CiAgICAgICAgPFRvbmVDdXJ2ZXNCbHVlPiJjdWJpYyx2YWx1ZTowQDA7MUAxIjwvVG9uZUN1cnZlc0JsdWU+CiAgICAgICAgPFRvbmVDdXJ2ZXNHcmVlbj4iY3ViaWMsdmFsdWU6MEAwOzFAMSI8L1RvbmVDdXJ2ZXNHcmVlbj4KICAgICAgICA8UmFuZ2U+IjEwMCI8L1JhbmdlPgogICAgICAgIDxUb25lQ3VydmVzUmVkPiJjdWJpYyx2YWx1ZTowQDA7MUAxIjwvVG9uZUN1cnZlc1JlZD4KICAgICAgPC9wYXJhbWV0ZXJzPgogICAgPC9zaGFkZXI+CiAgICA8c2hhZGVyPgogICAgICA8bmFtZT4iQ29sb3JDdXJ2ZXMiPC9uYW1lPgogICAgICA8Y3VzdG9tbmFtZT4iSHVlL0h1ZSBIdWUvTHVtIEh1ZS9TYXQgTHVtL1NhdCBDdXJ2ZXMiPC9jdXN0b21uYW1lPgogICAgICA8dmlzaWJsZT4iMSI8L3Zpc2libGU+CiAgICAgIDxsb2NrZWR2aXNpYmxlPiIwIjwvbG9ja2VkdmlzaWJsZT4KICAgICAgPG9wYWNpdHk+IjEiPC9vcGFjaXR5PgogICAgICA8bWFzaz4iMCI8L21hc2s+CiAgICAgIDx2ZWN0b3JtYXNrPiIwIjwvdmVjdG9ybWFzaz4KICAgICAgPGxpbmtlZD4iMCI8L2xpbmtlZD4KICAgICAgPHBhcmFtZXRlcnM+CiAgICAgICAgPEh1ZUh1ZUVuYWJsZWQ+IjEiPC9IdWVIdWVFbmFibGVkPgogICAgICAgIDxIdWVIdWVDdXJ2ZT4ibm9uLW92ZXItY29uc3QsdmFsdWU6MUAwOzFAMSI8L0h1ZUh1ZUN1cnZlPgogICAgICAgIDxTYXRTYXRFbmFibGVkPiIxIjwvU2F0U2F0RW5hYmxlZD4KICAgICAgICA8SHVlU2F0RW5hYmxlZD4iMSI8L0h1ZVNhdEVuYWJsZWQ+CiAgICAgICAgPEx1bVNhdEVuYWJsZWQ+IjEiPC9MdW1TYXRFbmFibGVkPgogICAgICAgIDxTYXRTYXRDdXJ2ZT4ibm9uLW92ZXItY29uc3QsdmFsdWU6MEAwOzBAMSI8L1NhdFNhdEN1cnZlPgogICAgICAgIDxIdWVMdW1FbmFibGVkPiIxIjwvSHVlTHVtRW5hYmxlZD4KICAgICAgICA8SHVlTHVtQ3VydmU+Im5vbi1vdmVyLWNvbnN0LHZhbHVlOjFAMDsxQDEiPC9IdWVMdW1DdXJ2ZT4KICAgICAgICA8THVtU2F0Q3VydmU+Im5vbi1vdmVyLWNvbnN0LHZhbHVlOjBAMDswQDEiPC9MdW1TYXRDdXJ2ZT4KICAgICAgICA8SHVlU2F0Q3VydmU+Im5vbi1vdmVyLWNvbnN0LHZhbHVlOjFAMDsxQDEiPC9IdWVTYXRDdXJ2ZT4KICAgICAgPC9wYXJhbWV0ZXJzPgogICAgPC9zaGFkZXI+CiAgICA8c2hhZGVyPgogICAgICA8bmFtZT4iX19Hcm91cEVuZCI8L25hbWU+CiAgICAgIDxjdXN0b21uYW1lPiJDdXJ2ZXMiPC9jdXN0b21uYW1lPgogICAgICA8dmlzaWJsZT4iMSI8L3Zpc2libGU+CiAgICAgIDxsb2NrZWR2aXNpYmxlPiIwIjwvbG9ja2VkdmlzaWJsZT4KICAgICAgPG9wYWNpdHk+IjEiPC9vcGFjaXR5PgogICAgICA8bWFzaz4iMCI8L21hc2s+CiAgICAgIDx2ZWN0b3JtYXNrPiIwIjwvdmVjdG9ybWFzaz4KICAgICAgPGxpbmtlZD4iMCI8L2xpbmtlZD4KICAgICAgPHBhcmFtZXRlcnM+CiAgICAgICAgPENvbGxhcHNlZD4iMSI8L0NvbGxhcHNlZD4KICAgICAgICA8X19DdXJ2ZXM+IjEiPC9fX0N1cnZlcz4KICAgICAgPC9wYXJhbWV0ZXJzPgogICAgPC9zaGFkZXI+CiAgICA8c2hhZGVyPgogICAgICA8bmFtZT4iX19Hcm91cEJlZ2luIjwvbmFtZT4KICAgICAgPGN1c3RvbW5hbWU+Il9fR3JvdXBCZWdpbiI8L2N1c3RvbW5hbWU+CiAgICAgIDx2aXNpYmxlPiIxIjwvdmlzaWJsZT4KICAgICAgPGxvY2tlZHZpc2libGU+IjAiPC9sb2NrZWR2aXNpYmxlPgogICAgICA8b3BhY2l0eT4iMSI8L29wYWNpdHk+CiAgICAgIDxtYXNrPiIwIjwvbWFzaz4KICAgICAgPHZlY3Rvcm1hc2s+IjAiPC92ZWN0b3JtYXNrPgogICAgICA8bGlua2VkPiIwIjwvbGlua2VkPgogICAgICA8cGFyYW1ldGVycz4KICAgICAgPC9wYXJhbWV0ZXJzPgogICAgPC9zaGFkZXI+CiAgICA8c2hhZGVyPgogICAgICA8bmFtZT4iV2hlZWxzIjwvbmFtZT4KICAgICAgPGN1c3RvbW5hbWU+IldoZWVscyI8L2N1c3RvbW5hbWU+CiAgICAgIDx2aXNpYmxlPiIxIjwvdmlzaWJsZT4KICAgICAgPGxvY2tlZHZpc2libGU+IjAiPC9sb2NrZWR2aXNpYmxlPgogICAgICA8b3BhY2l0eT4iMSI8L29wYWNpdHk+CiAgICAgIDxtYXNrPiIwIjwvbWFzaz4KICAgICAgPHZlY3Rvcm1hc2s+IjAiPC92ZWN0b3JtYXNrPgogICAgICA8bGlua2VkPiIwIjwvbGlua2VkPgogICAgICA8cGFyYW1ldGVycz4KICAgICAgICA8RGlmZldoaXRlPiJOMTAwIjwvRGlmZldoaXRlPgogICAgICAgIDxNaWR0b25lcy5aPiJEMCI8L01pZHRvbmVzLlo+CiAgICAgICAgPFNoYWRvd3MuWT4iRDAiPC9TaGFkb3dzLlk+CiAgICAgICAgPFNwZWN1bGFyLlo+IkQwIjwvU3BlY3VsYXIuWj4KICAgICAgICA8U2hhZG93cy5YPiJEMCI8L1NoYWRvd3MuWD4KICAgICAgICA8SGlnaGxpZ2h0cy5aPiJEMCI8L0hpZ2hsaWdodHMuWj4KICAgICAgICA8SGlnaGxpZ2h0cy5YPiJEMCI8L0hpZ2hsaWdodHMuWD4KICAgICAgICA8U2hhZG93cy5aPiJEMCI8L1NoYWRvd3MuWj4KICAgICAgICA8U3BlY3VsYXIuWT4iRDAiPC9TcGVjdWxhci5ZPgogICAgICAgIDxNaWR0b25lcy5ZPiJEMCI8L01pZHRvbmVzLlk+CiAgICAgICAgPE1pZHRvbmVzLlg+IkQwIjwvTWlkdG9uZXMuWD4KICAgICAgICA8U3BlY3VsYXIuWD4iRDAiPC9TcGVjdWxhci5YPgogICAgICAgIDxIaWdobGlnaHRzLlk+IkQwIjwvSGlnaGxpZ2h0cy5ZPgogICAgICA8L3BhcmFtZXRlcnM+CiAgICA8L3NoYWRlcj4KICAgIDxzaGFkZXI+CiAgICAgIDxuYW1lPiJfX0dyb3VwRW5kIjwvbmFtZT4KICAgICAgPGN1c3RvbW5hbWU+IldoZWVscyI8L2N1c3RvbW5hbWU+CiAgICAgIDx2aXNpYmxlPiIxIjwvdmlzaWJsZT4KICAgICAgPGxvY2tlZHZpc2libGU+IjAiPC9sb2NrZWR2aXNpYmxlPgogICAgICA8b3BhY2l0eT4iMSI8L29wYWNpdHk+CiAgICAgIDxtYXNrPiIwIjwvbWFzaz4KICAgICAgPHZlY3Rvcm1hc2s+IjAiPC92ZWN0b3JtYXNrPgogICAgICA8bGlua2VkPiIwIjwvbGlua2VkPgogICAgICA8cGFyYW1ldGVycz4KICAgICAgICA8Q29sbGFwc2VkPiIxIjwvQ29sbGFwc2VkPgogICAgICAgIDxfX1doZWVscz4iMSI8L19fV2hlZWxzPgogICAgICA8L3BhcmFtZXRlcnM+CiAgICA8L3NoYWRlcj4KICAgIDxzaGFkZXI+CiAgICAgIDxuYW1lPiJfX0dyb3VwQmVnaW4iPC9uYW1lPgogICAgICA8Y3VzdG9tbmFtZT4iX19Hcm91cEJlZ2luIjwvY3VzdG9tbmFtZT4KICAgICAgPHZpc2libGU+IjEiPC92aXNpYmxlPgogICAgICA8bG9ja2VkdmlzaWJsZT4iMCI8L2xvY2tlZHZpc2libGU+CiAgICAgIDxvcGFjaXR5PiIxIjwvb3BhY2l0eT4KICAgICAgPG1hc2s+IjAiPC9tYXNrPgogICAgICA8dmVjdG9ybWFzaz4iMCI8L3ZlY3Rvcm1hc2s+CiAgICAgIDxsaW5rZWQ+IjAiPC9saW5rZWQ+CiAgICAgIDxwYXJhbWV0ZXJzPgogICAgICA8L3BhcmFtZXRlcnM+CiAgICA8L3NoYWRlcj4KICAgIDxzaGFkZXI+CiAgICAgIDxuYW1lPiJTZWNvbmRhcnlMYXllciI8L25hbWU+CiAgICAgIDxjdXN0b21uYW1lPiJTZWNvbmRhcnlMYXllciI8L2N1c3RvbW5hbWU+CiAgICAgIDx2aXNpYmxlPiIxIjwvdmlzaWJsZT4KICAgICAgPGxvY2tlZHZpc2libGU+IjAiPC9sb2NrZWR2aXNpYmxlPgogICAgICA8b3BhY2l0eT4iMSI8L29wYWNpdHk+CiAgICAgIDxtYXNrPiIwIjwvbWFzaz4KICAgICAgPHZlY3Rvcm1hc2s+IjAiPC92ZWN0b3JtYXNrPgogICAgICA8bGlua2VkPiIwIjwvbGlua2VkPgogICAgICA8cGFyYW1ldGVycz4KICAgICAgICA8ZW5hYmxlSExTLlk+Ik4xIjwvZW5hYmxlSExTLlk+CiAgICAgICAgPE1pZHRvbmVzLlo+IkQwIjwvTWlkdG9uZXMuWj4KICAgICAgICA8U2hhZG93cy5ZPiJEMCI8L1NoYWRvd3MuWT4KICAgICAgICA8U3BlY3VsYXIuWj4iRDAiPC9TcGVjdWxhci5aPgogICAgICAgIDx0b2xlcmFuY2VITFMuWj4iTjAiPC90b2xlcmFuY2VITFMuWj4KICAgICAgICA8cmFuZ2VITFMuWD4iTjAiPC9yYW5nZUhMUy5YPgogICAgICAgIDxEZW5vaXNlPiJEMCI8L0Rlbm9pc2U+CiAgICAgICAgPHJhbmdlSExTLlk+Ik4wIjwvcmFuZ2VITFMuWT4KICAgICAgICA8bWlkZGxlSExTLlo+Ik4wLjUiPC9taWRkbGVITFMuWj4KICAgICAgICA8U2hhZG93cy5YPiJEMCI8L1NoYWRvd3MuWD4KICAgICAgICA8U2hhcnBuZXNzPiJEMCI8L1NoYXJwbmVzcz4KICAgICAgICA8ZW5hYmxlSExTLlg+Ik4xIjwvZW5hYmxlSExTLlg+CiAgICAgICAgPEhpZ2hsaWdodHMuWj4iRDAiPC9IaWdobGlnaHRzLlo+CiAgICAgICAgPGludmVydC5YPiJEMCI8L2ludmVydC5YPgogICAgICAgIDxIaWdobGlnaHRzLlg+IkQwIjwvSGlnaGxpZ2h0cy5YPgogICAgICAgIDxlbmFibGVITFMuWj4iTjEiPC9lbmFibGVITFMuWj4KICAgICAgICA8Q29udHJhc3Q+IkQwIjwvQ29udHJhc3Q+CiAgICAgICAgPG1pZGRsZUhMUy5YPiJOMTgwIjwvbWlkZGxlSExTLlg+CiAgICAgICAgPHRvbGVyYW5jZUhMUy5ZPiJOMCI8L3RvbGVyYW5jZUhMUy5ZPgogICAgICAgIDxTaGFkb3dzLlo+IkQwIjwvU2hhZG93cy5aPgogICAgICAgIDxTcGVjdWxhci5ZPiJEMCI8L1NwZWN1bGFyLlk+CiAgICAgICAgPE1pZHRvbmVzLlk+IkQwIjwvTWlkdG9uZXMuWT4KICAgICAgICA8VGVtcD4iRDAiPC9UZW1wPgogICAgICAgIDx0b2xlcmFuY2VITFMuWD4iTjAiPC90b2xlcmFuY2VITFMuWD4KICAgICAgICA8TWlkdG9uZXMuWD4iRDAiPC9NaWR0b25lcy5YPgogICAgICAgIDxTcGVjdWxhci5YPiJEMCI8L1NwZWN1bGFyLlg+CiAgICAgICAgPEJsdXI+IkQwIjwvQmx1cj4KICAgICAgICA8bWlkZGxlSExTLlk+Ik4wLjUiPC9taWRkbGVITFMuWT4KICAgICAgICA8cmFuZ2VITFMuWj4iTjAiPC9yYW5nZUhMUy5aPgogICAgICAgIDxTYXR1cmF0aW9uPiJEMTAwIjwvU2F0dXJhdGlvbj4KICAgICAgICA8SGlnaGxpZ2h0cy5ZPiJEMCI8L0hpZ2hsaWdodHMuWT4KICAgICAgICA8VGludD4iRDAiPC9UaW50PgogICAgICAgIDxTaG93S2V5PiJEMCI8L1Nob3dLZXk+CiAgICAgIDwvcGFyYW1ldGVycz4KICAgIDwvc2hhZGVyPgogICAgPHNoYWRlcj4KICAgICAgPG5hbWU+Il9fR3JvdXBFbmQiPC9uYW1lPgogICAgICA8Y3VzdG9tbmFtZT4iU2Vjb25kYXJpZXMiPC9jdXN0b21uYW1lPgogICAgICA8dmlzaWJsZT4iMSI8L3Zpc2libGU+CiAgICAgIDxsb2NrZWR2aXNpYmxlPiIwIjwvbG9ja2VkdmlzaWJsZT4KICAgICAgPG9wYWNpdHk+IjEiPC9vcGFjaXR5PgogICAgICA8bWFzaz4iMCI8L21hc2s+CiAgICAgIDx2ZWN0b3JtYXNrPiIwIjwvdmVjdG9ybWFzaz4KICAgICAgPGxpbmtlZD4iMCI8L2xpbmtlZD4KICAgICAgPHBhcmFtZXRlcnM+CiAgICAgICAgPF9fU2Vjb25kYXJpZXM+IjEiPC9fX1NlY29uZGFyaWVzPgogICAgICAgIDxDb2xsYXBzZWQ+IjEiPC9Db2xsYXBzZWQ+CiAgICAgIDwvcGFyYW1ldGVycz4KICAgIDwvc2hhZGVyPgogICAgPHNoYWRlcj4KICAgICAgPG5hbWU+Il9fR3JvdXBCZWdpbiI8L25hbWU+CiAgICAgIDxjdXN0b21uYW1lPiJfX0dyb3VwQmVnaW4iPC9jdXN0b21uYW1lPgogICAgICA8dmlzaWJsZT4iMSI8L3Zpc2libGU+CiAgICAgIDxsb2NrZWR2aXNpYmxlPiIwIjwvbG9ja2VkdmlzaWJsZT4KICAgICAgPG9wYWNpdHk+IjEiPC9vcGFjaXR5PgogICAgICA8bWFzaz4iMCI8L21hc2s+CiAgICAgIDx2ZWN0b3JtYXNrPiIwIjwvdmVjdG9ybWFzaz4KICAgICAgPGxpbmtlZD4iMCI8L2xpbmtlZD4KICAgICAgPHBhcmFtZXRlcnM+CiAgICAgIDwvcGFyYW1ldGVycz4KICAgIDwvc2hhZGVyPgogICAgPHNoYWRlcj4KICAgICAgPG5hbWU+IlZpZ25ldHRlIjwvbmFtZT4KICAgICAgPGN1c3RvbW5hbWU+IlZpZ25ldHRlIjwvY3VzdG9tbmFtZT4KICAgICAgPHZpc2libGU+IjEiPC92aXNpYmxlPgogICAgICA8bG9ja2VkdmlzaWJsZT4iMCI8L2xvY2tlZHZpc2libGU+CiAgICAgIDxvcGFjaXR5PiIxIjwvb3BhY2l0eT4KICAgICAgPG1hc2s+IjAiPC9tYXNrPgogICAgICA8dmVjdG9ybWFzaz4iMiI8L3ZlY3Rvcm1hc2s+CiAgICAgIDxsaW5rZWQ+IjAiPC9saW5rZWQ+CiAgICAgIDxzaGFkZXJtYXNrPgogICAgICAgIDxuYW1lPiIiPC9uYW1lPgogICAgICAgIDxtaWRwb2ludD4iNTAiPC9taWRwb2ludD4KICAgICAgICA8cm91bmRuZXNzPiIwIjwvcm91bmRuZXNzPgogICAgICAgIDxmZWF0aGVyPiI1MCI8L2ZlYXRoZXI+CiAgICAgIDwvc2hhZGVybWFzaz4KICAgICAgPHBhcmFtZXRlcnM+CiAgICAgICAgPF9fRmVhdGhlcj4iNTAiPC9fX0ZlYXRoZXI+CiAgICAgICAgPF9fUm91bmRuZXNzPiJEMCI8L19fUm91bmRuZXNzPgogICAgICAgIDxWaWduZXR0ZT4iRDAiPC9WaWduZXR0ZT4KICAgICAgICA8X19NaWRwb2ludD4iNTAiPC9fX01pZHBvaW50PgogICAgICA8L3BhcmFtZXRlcnM+CiAgICA8L3NoYWRlcj4KICAgIDxzaGFkZXI+CiAgICAgIDxuYW1lPiJIaWdobGlnaHRSZWNvdmVyeSI8L25hbWU+CiAgICAgIDxjdXN0b21uYW1lPiJIaWdobGlnaHRSZWNvdmVyeSI8L2N1c3RvbW5hbWU+CiAgICAgIDx2aXNpYmxlPiIxIjwvdmlzaWJsZT4KICAgICAgPGxvY2tlZHZpc2libGU+IjAiPC9sb2NrZWR2aXNpYmxlPgogICAgICA8b3BhY2l0eT4iMSI8L29wYWNpdHk+CiAgICAgIDxtYXNrPiIwIjwvbWFzaz4KICAgICAgPHZlY3Rvcm1hc2s+IjAiPC92ZWN0b3JtYXNrPgogICAgICA8bGlua2VkPiIwIjwvbGlua2VkPgogICAgICA8cGFyYW1ldGVycz4KICAgICAgICA8R2FtbWE+IjIuNCI8L0dhbW1hPgogICAgICA8L3BhcmFtZXRlcnM+CiAgICA8L3NoYWRlcj4KICAgIDxzaGFkZXI+CiAgICAgIDxuYW1lPiJfX0dyb3VwRW5kIjwvbmFtZT4KICAgICAgPGN1c3RvbW5hbWU+IkVmZmVjdHMiPC9jdXN0b21uYW1lPgogICAgICA8dmlzaWJsZT4iMSI8L3Zpc2libGU+CiAgICAgIDxsb2NrZWR2aXNpYmxlPiIwIjwvbG9ja2VkdmlzaWJsZT4KICAgICAgPG9wYWNpdHk+IjEiPC9vcGFjaXR5PgogICAgICA8bWFzaz4iMCI8L21hc2s+CiAgICAgIDx2ZWN0b3JtYXNrPiIwIjwvdmVjdG9ybWFzaz4KICAgICAgPGxpbmtlZD4iMCI8L2xpbmtlZD4KICAgICAgPHBhcmFtZXRlcnM+CiAgICAgICAgPENvbGxhcHNlZD4iMSI8L0NvbGxhcHNlZD4KICAgICAgICA8X19FZmZlY3RzPiIxIjwvX19FZmZlY3RzPgogICAgICA8L3BhcmFtZXRlcnM+CiAgICA8L3NoYWRlcj4KICAgIDxzaGFkZXI+CiAgICAgIDxuYW1lPiJfX0dyb3VwRW5kIjwvbmFtZT4KICAgICAgPGN1c3RvbW5hbWU+IlByZW1pZXJlIENvbG9yIjwvY3VzdG9tbmFtZT4KICAgICAgPHZpc2libGU+IjEiPC92aXNpYmxlPgogICAgICA8bG9ja2VkdmlzaWJsZT4iMCI8L2xvY2tlZHZpc2libGU+CiAgICAgIDxvcGFjaXR5PiIxIjwvb3BhY2l0eT4KICAgICAgPG1hc2s+IjAiPC9tYXNrPgogICAgICA8dmVjdG9ybWFzaz4iMCI8L3ZlY3Rvcm1hc2s+CiAgICAgIDxsaW5rZWQ+IjAiPC9saW5rZWQ+CiAgICAgIDxwYXJhbWV0ZXJzPgogICAgICAgIDxDb2xsYXBzZWQ+IjEiPC9Db2xsYXBzZWQ+CiAgICAgIDwvcGFyYW1ldGVycz4KICAgIDwvc2hhZGVyPgogIDwva2V5ZnJhbWU+CiAgPHByb3BlcnRpZXM+CiAgPC9wcm9wZXJ0aWVzPgo8L0x1bWV0cmk+Cg==</value>
								</parameter>
								<parameter authoringApp="PremierePro">
									<parameterid>3</parameterid>
									<name> </name>
									<IsTimeVarying>false</IsTimeVarying>
									<ParameterControlType>4</ParameterControlType>
									<LowerBound>false</LowerBound>
									<UpperBound>true</UpperBound>
									<value>-91445760000000000,true,0,0,0,0,0,0</value>
								</parameter>
								<parameter authoringApp="PremierePro">
									<parameterid>4</parameterid>
									<name> </name>
									<hash>63866a15-9327-e4cb-ff31-c9ea0000000e</hash>
									<value>/v4=</value>
								</parameter>
								<parameter authoringApp="PremierePro">
									<parameterid>5</parameterid>
									<name>Input LUT</name>
									<IsTimeVarying>false</IsTimeVarying>
									<ParameterControlType>7</ParameterControlType>
									<LowerBound>0</LowerBound>
									<UpperBound>998</UpperBound>
									<value>-91445760000000000,0,0,0,0,0,0,0</value>
								</parameter>
								<parameter authoringApp="PremierePro">
									<parameterid>7</parameterid>
									<name>Temperature</name>
									<IsTimeVarying>false</IsTimeVarying>
									<ParameterControlType>8</ParameterControlType>
									<LowerBound>-300</LowerBound>
									<UpperBound>300</UpperBound>
									<LowerUIBound>-100</LowerUIBound>
									<UpperUIBound>100</UpperUIBound>
									<value>-91445760000000000,-5.,0,0,0,0,0,0</value>
								</parameter>
								<parameter authoringApp="PremierePro">
									<parameterid>8</parameterid>
									<name>Tint</name>
									<IsTimeVarying>false</IsTimeVarying>
									<ParameterControlType>8</ParameterControlType>
									<LowerBound>-300</LowerBound>
									<UpperBound>300</UpperBound>
									<LowerUIBound>-100</LowerUIBound>
									<UpperUIBound>100</UpperUIBound>
									<value>-91445760000000000,5.,0,0,0,0,0,0</value>
								</parameter>
								<parameter authoringApp="PremierePro">
									<parameterid>20</parameterid>
									<name>Saturation</name>
									<IsTimeVarying>false</IsTimeVarying>
									<ParameterControlType>8</ParameterControlType>
									<LowerBound>0</LowerBound>
									<UpperBound>300</UpperBound>
									<UpperUIBound>200</UpperUIBound>
									<value>-91445760000000000,150.,0,0,0,0,0,0</value>
								</parameter>
								<parameter authoringApp="PremierePro">
									<parameterid>11</parameterid>
									<name>Exposure</name>
									<IsTimeVarying>false</IsTimeVarying>
									<ParameterControlType>8</ParameterControlType>
									<LowerBound>-7</LowerBound>
									<UpperBound>7</UpperBound>
									<LowerUIBound>-5</LowerUIBound>
									<UpperUIBound>5</UpperUIBound>
									<value>-91445760000000000,0.,0,0,0,0,0,0</value>
								</parameter>
								<parameter authoringApp="PremierePro">
									<parameterid>12</parameterid>
									<name>Contrast</name>
									<IsTimeVarying>false</IsTimeVarying>
									<ParameterControlType>8</ParameterControlType>
									<LowerBound>-150</LowerBound>
									<UpperBound>150</UpperBound>
									<LowerUIBound>-100</LowerUIBound>
									<UpperUIBound>100</UpperUIBound>
									<value>-91445760000000000,20.,0,0,0,0,0,0</value>
								</parameter>
								<parameter authoringApp="PremierePro">
									<parameterid>13</parameterid>
									<name>Highlights</name>
									<IsTimeVarying>false</IsTimeVarying>
									<ParameterControlType>8</ParameterControlType>
									<LowerBound>-150</LowerBound>
									<UpperBound>150</UpperBound>
									<LowerUIBound>-100</LowerUIBound>
									<UpperUIBound>100</UpperUIBound>
									<value>-91445760000000000,0.,0,0,0,0,0,0</value>
								</parameter>
								<parameter authoringApp="PremierePro">
									<parameterid>14</parameterid>
									<name>Shadows</name>
									<IsTimeVarying>false</IsTimeVarying>
									<ParameterControlType>8</ParameterControlType>
									<LowerBound>-150</LowerBound>
									<UpperBound>150</UpperBound>
									<LowerUIBound>-100</LowerUIBound>
									<UpperUIBound>100</UpperUIBound>
									<value>-91445760000000000,20.,0,0,0,0,0,0</value>
								</parameter>
								<parameter authoringApp="PremierePro">
									<parameterid>15</parameterid>
									<name>Whites</name>
									<IsTimeVarying>false</IsTimeVarying>
									<ParameterControlType>8</ParameterControlType>
									<LowerBound>-150</LowerBound>
									<UpperBound>150</UpperBound>
									<LowerUIBound>-100</LowerUIBound>
									<UpperUIBound>100</UpperUIBound>
									<value>-91445760000000000,0.,0,0,0,0,0,0</value>
								</parameter>
								<parameter authoringApp="PremierePro">
									<parameterid>16</parameterid>
									<name>Blacks</name>
									<IsTimeVarying>false</IsTimeVarying>
									<ParameterControlType>8</ParameterControlType>
									<LowerBound>-150</LowerBound>
									<UpperBound>150</UpperBound>
									<LowerUIBound>-100</LowerUIBound>
									<UpperUIBound>100</UpperUIBound>
									<value>-91445760000000000,0.,0,0,0,0,0,0</value>
								</parameter>
								<parameter authoringApp="PremierePro">
									<parameterid>23</parameterid>
									<name> </name>
									<IsTimeVarying>false</IsTimeVarying>
									<ParameterControlType>4</ParameterControlType>
									<LowerBound>false</LowerBound>
									<UpperBound>true</UpperBound>
									<value>-91445760000000000,true,0,0,0,0,0,0</value>
								</parameter>
								<parameter authoringApp="PremierePro">
									<parameterid>25</parameterid>
									<name>Look</name>
									<IsTimeVarying>false</IsTimeVarying>
									<ParameterControlType>7</ParameterControlType>
									<LowerBound>0</LowerBound>
									<UpperBound>998</UpperBound>
									<value>-91445760000000000,40,0,0,0,0,0,0</value>
								</parameter>
								<parameter authoringApp="PremierePro">
									<parameterid>26</parameterid>
									<name>Intensity</name>
									<IsTimeVarying>false</IsTimeVarying>
									<ParameterControlType>8</ParameterControlType>
									<LowerBound>0</LowerBound>
									<UpperBound>200</UpperBound>
									<value>-91445760000000000,100.,0,0,0,0,0,0</value>
								</parameter>
								<parameter authoringApp="PremierePro">
									<parameterid>28</parameterid>
									<name>Faded Film</name>
									<IsTimeVarying>false</IsTimeVarying>
									<ParameterControlType>8</ParameterControlType>
									<LowerBound>0</LowerBound>
									<UpperBound>150</UpperBound>
									<UpperUIBound>100</UpperUIBound>
									<value>-91445760000000000,0.,0,0,0,0,0,0</value>
								</parameter>
								<parameter authoringApp="PremierePro">
									<parameterid>29</parameterid>
									<name>Sharpen</name>
									<IsTimeVarying>false</IsTimeVarying>
									<ParameterControlType>8</ParameterControlType>
									<LowerBound>-100</LowerBound>
									<UpperBound>100</UpperBound>
									<value>-91445760000000000,0.,0,0,0,0,0,0</value>
								</parameter>
								<parameter authoringApp="PremierePro">
									<parameterid>30</parameterid>
									<name>Vibrance</name>
									<IsTimeVarying>false</IsTimeVarying>
									<ParameterControlType>8</ParameterControlType>
									<LowerBound>-100</LowerBound>
									<UpperBound>100</UpperBound>
									<value>-91445760000000000,17.,0,0,0,0,0,0</value>
								</parameter>
								<parameter authoringApp="PremierePro">
									<parameterid>31</parameterid>
									<name>Saturation</name>
									<IsTimeVarying>false</IsTimeVarying>
									<ParameterControlType>8</ParameterControlType>
									<LowerBound>0</LowerBound>
									<UpperBound>300</UpperBound>
									<UpperUIBound>200</UpperUIBound>
									<value>-91445760000000000,100.,0,0,0,0,0,0</value>
								</parameter>
								<parameter authoringApp="PremierePro">
									<parameterid>32</parameterid>
									<name></name>
									<hash>1e1d8797-ad61-d3ce-dd37-b17a0000002c</hash>
									<value>VvtufBEzcEAPVVuMBbK0P1JfdsFg8W5AxcoO2Lb+rT8=</value>
								</parameter>
								<parameter authoringApp="PremierePro">
									<parameterid>33</parameterid>
									<name>Tint Balance</name>
									<IsTimeVarying>false</IsTimeVarying>
									<ParameterControlType>8</ParameterControlType>
									<LowerBound>-150</LowerBound>
									<UpperBound>150</UpperBound>
									<LowerUIBound>-100</LowerUIBound>
									<UpperUIBound>100</UpperUIBound>
									<value>-91445760000000000,0.,0,0,0,0,0,0</value>
								</parameter>
								<parameter authoringApp="PremierePro">
									<parameterid>37</parameterid>
									<name> </name>
									<IsTimeVarying>false</IsTimeVarying>
									<ParameterControlType>4</ParameterControlType>
									<LowerBound>false</LowerBound>
									<UpperBound>true</UpperBound>
									<value>-91445760000000000,true,0,0,0,0,0,0</value>
								</parameter>
								<parameter authoringApp="PremierePro">
									<parameterid>39</parameterid>
									<name> </name>
									<hash>88c2090a-e348-022c-ccb1-c3d60000082c</hash>
									<value>AAAAAAQAAAAAAAAAAAAAAAAAAAAAAAAATuq+PLYi4D/avE9xyRDcP1cEDSd1X+Y/XDIE62jz5j8AAAAAAADwPwAAAAAAAPA/AAAAAAAAAAAAAAAAAAAAAAAAAAAAAAAAAAAAAAAAAAAAAAAAAAAAAAAAAAAAAAAAAAAAAAAAAAAAAAAAAAAAAAAAAAAAAAAAAAAAAAAAAAAAAAAAAAAAAAAAAAAAAAAAAAAAAAAAAAAAAAAAAAAAAAAAAAAAAAAAAAAAAAAAAAAAAAAAAAAAAAAAAAAAAAAAAAAAAAAAAAAAAAAAAAAAAAAAAAAAAAAAAAAAAAAAAAAAAAAAAAAAAAAAAAAAAAAAAAAAAAAAAAAAAAAAAAAAAAAAAAAAAAAAAAAAAAAAAAAAAAAAAAAAAAAAAAAAAAAAAAAAAAAAAAAAAAAAAAAAAAAAAAAAAAAAAAAAAAAAAAAAAAAAAAAAAAAAAAAAAAAAAAAAAAAAAAAAAAAAAAAAAAAAAAAAAAAAAAAAAAAAAAAAAAAAAAAAAAAAAAAAAAAAAAAAAAAAAAAAAAAAAAAAAAAAAAAAAAAAAAAAAAAAAAAAAAAAAAAAAAAAAAAAAAAAAAAAAAAAAAAAAAAAAAAAAAAAAAAAAAAAAAAAAAAAAAAAAAAAAAAAAAAAAAAAAAAAAAAAAAAAAAAAAAAAAAAAAAAAAAACAAAAAAAAAAAAAAAAAAAAAAAAAAAAAAAAAPA/AAAAAAAA8D8AAAAAAAAAAAAAAAAAAAAAAAAAAAAAAAAAAAAAAAAAAAAAAAAAAAAAAAAAAAAAAAAAAAAAAAAAAAAAAAAAAAAAAAAAAAAAAAAAAAAAAAAAAAAAAAAAAAAAAAAAAAAAAAAAAAAAAAAAAAAAAAAAAAAAAAAAAAAAAAAAAAAAAAAAAAAAAAAAAAAAAAAAAAAAAAAAAAAAAAAAAAAAAAAAAAAAAAAAAAAAAAAAAAAAAAAAAAAAAAAAAAAAAAAAAAAAAAAAAAAAAAAAAAAAAAAAAAAAAAAAAAAAAAAAAAAAAAAAAAAAAAAAAAAAAAAAAAAAAAAAAAAAAAAAAAAAAAAAAAAAAAAAAAAAAAAAAAAAAAAAAAAAAAAAAAAAAAAAAAAAAAAAAAAAAAAAAAAAAAAAAAAAAAAAAAAAAAAAAAAAAAAAAAAAAAAAAAAAAAAAAAAAAAAAAAAAAAAAAAAAAAAAAAAAAAAAAAAAAAAAAAAAAAAAAAAAAAAAAAAAAAAAAAAAAAAAAAAAAAAAAAAAAAAAAAAAAAAAAAAAAAAAAAAAAAAAAAAAAAAAAAAAAAAAAAAAAAAAAAAAAAAAAAAAAAAAAAAAAAAAAAAAAAAAAAAAAAAAAAAAAAAAAAAAAAAAAAAAAAAAAAAAAgAAAAAAAAAAAAAAAAAAAAAAAAAAAAAAAADwPwAAAAAAAPA/AAAAAAAAAAAAAAAAAAAAAAAAAAAAAAAAAAAAAAAAAAAAAAAAAAAAAAAAAAAAAAAAAAAAAAAAAAAAAAAAAAAAAAAAAAAAAAAAAAAAAAAAAAAAAAAAAAAAAAAAAAAAAAAAAAAAAAAAAAAAAAAAAAAAAAAAAAAAAAAAAAAAAAAAAAAAAAAAAAAAAAAAAAAAAAAAAAAAAAAAAAAAAAAAAAAAAAAAAAAAAAAAAAAAAAAAAAAAAAAAAAAAAAAAAAAAAAAAAAAAAAAAAAAAAAAAAAAAAAAAAAAAAAAAAAAAAAAAAAAAAAAAAAAAAAAAAAAAAAAAAAAAAAAAAAAAAAAAAAAAAAAAAAAAAAAAAAAAAAAAAAAAAAAAAAAAAAAAAAAAAAAAAAAAAAAAAAAAAAAAAAAAAAAAAAAAAAAAAAAAAAAAAAAAAAAAAAAAAAAAAAAAAAAAAAAAAAAAAAAAAAAAAAAAAAAAAAAAAAAAAAAAAAAAAAAAAAAAAAAAAAAAAAAAAAAAAAAAAAAAAAAAAAAAAAAAAAAAAAAAAAAAAAAAAAAAAAAAAAAAAAAAAAAAAAAAAAAAAAAAAAAAAAAAAAAAAAAAAAAAAAAAAAAAAAAAAAAAAAAAAAAAAAAAAAAAAAAAAAAAAAAAAAIAAAAAAAAAAAAAAAAAAAAAAAAAAAAAAAAA8D8AAAAAAADwPwAAAAAAAAAAAAAAAAAAAAAAAAAAAAAAAAAAAAAAAAAAAAAAAAAAAAAAAAAAAAAAAAAAAAAAAAAAAAAAAAAAAAAAAAAAAAAAAAAAAAAAAAAAAAAAAAAAAAAAAAAAAAAAAAAAAAAAAAAAAAAAAAAAAAAAAAAAAAAAAAAAAAAAAAAAAAAAAAAAAAAAAAAAAAAAAAAAAAAAAAAAAAAAAAAAAAAAAAAAAAAAAAAAAAAAAAAAAAAAAAAAAAAAAAAAAAAAAAAAAAAAAAAAAAAAAAAAAAAAAAAAAAAAAAAAAAAAAAAAAAAAAAAAAAAAAAAAAAAAAAAAAAAAAAAAAAAAAAAAAAAAAAAAAAAAAAAAAAAAAAAAAAAAAAAAAAAAAAAAAAAAAAAAAAAAAAAAAAAAAAAAAAAAAAAAAAAAAAAAAAAAAAAAAAAAAAAAAAAAAAAAAAAAAAAAAAAAAAAAAAAAAAAAAAAAAAAAAAAAAAAAAAAAAAAAAAAAAAAAAAAAAAAAAAAAAAAAAAAAAAAAAAAAAAAAAAAAAAAAAAAAAAAAAAAAAAAAAAAAAAAAAAAAAAAAAAAAAAAAAAAAAAAAAAAAAAAAAAAAAAAAAAAAAAAAAAAAAAAAAAAAAAAAAAAAAAAAAAAAAA==</value>
								</parameter>
								<parameter authoringApp="PremierePro">
									<parameterid>42</parameterid>
									<name>Hue vs Sat</name>
									<hash>f146cafe-eab3-19ed-0ee8-de0e00000214</hash>
									<value>AwAAAAAAAAAAAAAAAAAAAAAAAAAAAAAAAAAAAAAA8D8AAAAAAADwPwAAAAAAAAAAAAAAAAAAAAAAAAAAAAAAAAAAAAAAAAAAAAAAAAAAAAAAAAAAAAAAAAAAAAAAAAAAAAAAAAAAAAAAAAAAAAAAAAAAAAAAAAAAAAAAAAAAAAAAAAAAAAAAAAAAAAAAAAAAAAAAAAAAAAAAAAAAAAAAAAAAAAAAAAAAAAAAAAAAAAAAAAAAAAAAAAAAAAAAAAAAAAAAAAAAAAAAAAAAAAAAAAAAAAAAAAAAAAAAAAAAAAAAAAAAAAAAAAAAAAAAAAAAAAAAAAAAAAAAAAAAAAAAAAAAAAAAAAAAAAAAAAAAAAAAAAAAAAAAAAAAAAAAAAAAAAAAAAAAAAAAAAAAAAAAAAAAAAAAAAAAAAAAAAAAAAAAAAAAAAAAAAAAAAAAAAAAAAAAAAAAAAAAAAAAAAAAAAAAAAAAAAAAAAAAAAAAAAAAAAAAAAAAAAAAAAAAAAAAAAAAAAAAAAAAAAAAAAAAAAAAAAAAAAAAAAAAAAAAAAAAAAAAAAAAAAAAAAAAAAAAAAAAAAAAAAAAAAAAAAAAAAAAAAAAAAAAAAAAAAAAAAAAAAAAAAAAAAAAAAAAAAAAAAAAAAAAAAAAAAAAAAAAAAAAAAAAAAAAAAAAAAAAAAAAAAAAAAAAAA==</value>
								</parameter>
								<parameter authoringApp="PremierePro">
									<parameterid>46</parameterid>
									<name> </name>
									<IsTimeVarying>false</IsTimeVarying>
									<ParameterControlType>4</ParameterControlType>
									<LowerBound>false</LowerBound>
									<UpperBound>true</UpperBound>
									<value>-91445760000000000,true,0,0,0,0,0,0</value>
								</parameter>
								<parameter authoringApp="PremierePro">
									<parameterid>47</parameterid>
									<name> </name>
									<hash>0b5436c4-bae0-bb64-a2f6-c8c40000006c</hash>
									<value>AAAAAAAAAAAAAAAAAADgPwAAAAAAAAAAAAAAAAAAAAAAAAAAAADgPwAAAAAAAAAAAAAAAAAAAAAAAAAAAADgPwAAAAAAAAAAAAAAAAAAAAAAAAAAAADgPwAAAAAAAAAA</value>
								</parameter>
								<parameter authoringApp="PremierePro">
									<parameterid>50</parameterid>
									<name> </name>
									<IsTimeVarying>false</IsTimeVarying>
									<ParameterControlType>4</ParameterControlType>
									<LowerBound>false</LowerBound>
									<UpperBound>true</UpperBound>
									<value>-91445760000000000,true,0,0,0,0,0,0</value>
								</parameter>
								<parameter authoringApp="PremierePro">
									<parameterid>51</parameterid>
									<name>Amount</name>
									<IsTimeVarying>false</IsTimeVarying>
									<ParameterControlType>8</ParameterControlType>
									<LowerBound>-5</LowerBound>
									<UpperBound>5</UpperBound>
									<LowerUIBound>-3</LowerUIBound>
									<UpperUIBound>3</UpperUIBound>
									<value>-91445760000000000,0.,0,0,0,0,0,0</value>
								</parameter>
								<parameter authoringApp="PremierePro">
									<parameterid>52</parameterid>
									<name>Midpoint</name>
									<IsTimeVarying>false</IsTimeVarying>
									<ParameterControlType>8</ParameterControlType>
									<LowerBound>0</LowerBound>
									<UpperBound>100</UpperBound>
									<value>-91445760000000000,50.,0,0,0,0,0,0</value>
								</parameter>
								<parameter authoringApp="PremierePro">
									<parameterid>53</parameterid>
									<name>Roundness</name>
									<IsTimeVarying>false</IsTimeVarying>
									<ParameterControlType>8</ParameterControlType>
									<LowerBound>-100</LowerBound>
									<UpperBound>100</UpperBound>
									<value>-91445760000000000,0.,0,0,0,0,0,0</value>
								</parameter>
								<parameter authoringApp="PremierePro">
									<parameterid>54</parameterid>
									<name>Feather</name>
									<IsTimeVarying>false</IsTimeVarying>
									<ParameterControlType>8</ParameterControlType>
									<LowerBound>0</LowerBound>
									<UpperBound>100</UpperBound>
									<value>-91445760000000000,50.,0,0,0,0,0,0</value>
								</parameter>
							</effect>
						</filter>
						<logginginfo>
							<description></description>
							<scene></scene>
							<shottake></shottake>
							<lognote></lognote>
							<good></good>
							<originalvideofilename></originalvideofilename>
							<originalaudiofilename></originalaudiofilename>
						</logginginfo>
						<colorinfo>
							<lut></lut>
							<lut1></lut1>
							<asc_sop></asc_sop>
							<asc_sat></asc_sat>
							<lut2></lut2>
						</colorinfo>
						<labels>
							<label2>Lavender</label2>
						</labels>
					</clipitem>
					<enabled>TRUE</enabled>
					<locked>FALSE</locked>
				</track>
			</video>
			<audio>
				<numOutputChannels>2</numOutputChannels>
				<format>
					<samplecharacteristics>
						<depth>16</depth>
						<samplerate>48000</samplerate>
					</samplecharacteristics>
				</format>
				<outputs>
					<group>
						<index>1</index>
						<numchannels>1</numchannels>
						<downmix>0</downmix>
						<channel>
							<index>1</index>
						</channel>
					</group>
					<group>
						<index>2</index>
						<numchannels>1</numchannels>
						<downmix>0</downmix>
						<channel>
							<index>2</index>
						</channel>
					</group>
				</outputs>
				<track TL.SQTrackAudioKeyframeStyle="0" TL.SQTrackShy="0" TL.SQTrackExpandedHeight="43" TL.SQTrackExpanded="0" MZ.TrackTargeted="1" PannerCurrentValue="0.5" PannerStartKeyframe="-91445760000000000,0.5,0,0,0,0,0,0" PannerName="Balance" currentExplodedTrackIndex="0" totalExplodedTrackCount="2" premiereTrackType="Stereo">
					<clipitem id="clipitem-147" premiereChannelType="stereo">
						<masterclipid>masterclip-128</masterclipid>
						<name>magalys polanco hammock - clip.mp3</name>
						<enabled>TRUE</enabled>
						<duration>90946</duration>
						<rate>
							<timebase>24</timebase>
							<ntsc>TRUE</ntsc>
						</rate>
						<start>0</start>
						<end>72757</end>
						<in>0</in>
						<out>72757</out>
						<pproTicksIn>0</pproTicksIn>
						<pproTicksOut>770830148088000</pproTicksOut>
						<file id="file-128">
							<name>magalys polanco hammock - clip.mp3</name>
							<pathurl>file://localhost/Volumes/aqua/00_Footage/4)%20Wayuu/sony/nazareth/../../../../03_Interviews/Wayuu/Audio/Clipped/magalys%20polanco%20hammock%20-%20clip.mp3</pathurl>
							<rate>
								<timebase>30</timebase>
								<ntsc>TRUE</ntsc>
							</rate>
							<duration>90946</duration>
							<timecode>
								<rate>
									<timebase>30</timebase>
									<ntsc>TRUE</ntsc>
								</rate>
								<string>00;00;00;00</string>
								<frame>0</frame>
								<displayformat>DF</displayformat>
							</timecode>
							<media>
								<audio>
									<samplecharacteristics>
										<depth>16</depth>
										<samplerate>48000</samplerate>
									</samplecharacteristics>
									<channelcount>2</channelcount>
								</audio>
							</media>
						</file>
						<sourcetrack>
							<mediatype>audio</mediatype>
							<trackindex>1</trackindex>
						</sourcetrack>
						<filter>
							<effect>
								<name>Audio Levels</name>
								<effectid>audiolevels</effectid>
								<effectcategory>audiolevels</effectcategory>
								<effecttype>audiolevels</effecttype>
								<mediatype>audio</mediatype>
								<pproBypass>false</pproBypass>
								<parameter authoringApp="PremierePro">
									<parameterid>level</parameterid>
									<name>Level</name>
									<valuemin>0</valuemin>
									<valuemax>3.98109</valuemax>
									<value>2.76452</value>
									<keyframe>
										<when>0</when>
										<value>0</value>
									</keyframe>
									<keyframe>
										<when>100</when>
										<value>0.445905</value>
									</keyframe>
									<keyframe>
										<when>186</when>
										<value>2.76452</value>
									</keyframe>
								</parameter>
							</effect>
						</filter>
						<filter>
							<effect>
								<name>High Pass Filter</name>
								<effectid>{61756678, 48506173, 4b657947}</effectid>
								<effecttype>filter</effecttype>
								<mediatype>audio</mediatype>
								<pproBypass>false</pproBypass>
								<parameter authoringApp="PremierePro">
									<parameterid>Frequency</parameterid>
									<name>Frequency</name>
									<valuemin>10</valuemin>
									<valuemax>20000</valuemax>
									<value>400.002</value>
								</parameter>
							</effect>
						</filter>
						<link>
							<linkclipref>clipitem-147</linkclipref>
							<mediatype>audio</mediatype>
							<trackindex>1</trackindex>
							<clipindex>1</clipindex>
							<groupindex>1</groupindex>
						</link>
						<link>
							<linkclipref>clipitem-148</linkclipref>
							<mediatype>audio</mediatype>
							<trackindex>2</trackindex>
							<clipindex>1</clipindex>
							<groupindex>1</groupindex>
						</link>
						<logginginfo>
							<description></description>
							<scene></scene>
							<shottake></shottake>
							<lognote></lognote>
							<good></good>
							<originalvideofilename></originalvideofilename>
							<originalaudiofilename></originalaudiofilename>
						</logginginfo>
						<colorinfo>
							<lut></lut>
							<lut1></lut1>
							<asc_sop></asc_sop>
							<asc_sat></asc_sat>
							<lut2></lut2>
						</colorinfo>
						<labels>
							<label2>Caribbean</label2>
						</labels>
					</clipitem>
					<enabled>TRUE</enabled>
					<locked>FALSE</locked>
					<outputchannelindex>1</outputchannelindex>
				</track>
				<track TL.SQTrackAudioKeyframeStyle="0" TL.SQTrackShy="0" TL.SQTrackExpandedHeight="43" TL.SQTrackExpanded="0" MZ.TrackTargeted="1" PannerCurrentValue="0.5" PannerStartKeyframe="-91445760000000000,0.5,0,0,0,0,0,0" PannerName="Balance" currentExplodedTrackIndex="1" totalExplodedTrackCount="2" premiereTrackType="Stereo">
					<clipitem id="clipitem-148" premiereChannelType="stereo">
						<masterclipid>masterclip-128</masterclipid>
						<name>magalys polanco hammock - clip.mp3</name>
						<enabled>TRUE</enabled>
						<duration>90946</duration>
						<rate>
							<timebase>24</timebase>
							<ntsc>TRUE</ntsc>
						</rate>
						<start>0</start>
						<end>72757</end>
						<in>0</in>
						<out>72757</out>
						<pproTicksIn>0</pproTicksIn>
						<pproTicksOut>770830148088000</pproTicksOut>
						<file id="file-128"/>
						<sourcetrack>
							<mediatype>audio</mediatype>
							<trackindex>2</trackindex>
						</sourcetrack>
						<filter>
							<effect>
								<name>Audio Levels</name>
								<effectid>audiolevels</effectid>
								<effectcategory>audiolevels</effectcategory>
								<effecttype>audiolevels</effecttype>
								<mediatype>audio</mediatype>
								<pproBypass>false</pproBypass>
								<parameter authoringApp="PremierePro">
									<parameterid>level</parameterid>
									<name>Level</name>
									<valuemin>0</valuemin>
									<valuemax>3.98109</valuemax>
									<value>2.76452</value>
									<keyframe>
										<when>0</when>
										<value>0</value>
									</keyframe>
									<keyframe>
										<when>100</when>
										<value>0.445905</value>
									</keyframe>
									<keyframe>
										<when>186</when>
										<value>2.76452</value>
									</keyframe>
								</parameter>
							</effect>
						</filter>
						<filter>
							<effect>
								<name>High Pass Filter</name>
								<effectid>{61756678, 48506173, 4b657947}</effectid>
								<effecttype>filter</effecttype>
								<mediatype>audio</mediatype>
								<pproBypass>false</pproBypass>
								<parameter authoringApp="PremierePro">
									<parameterid>Frequency</parameterid>
									<name>Frequency</name>
									<valuemin>10</valuemin>
									<valuemax>20000</valuemax>
									<value>400.002</value>
								</parameter>
							</effect>
						</filter>
						<link>
							<linkclipref>clipitem-147</linkclipref>
							<mediatype>audio</mediatype>
							<trackindex>1</trackindex>
							<clipindex>1</clipindex>
							<groupindex>1</groupindex>
						</link>
						<link>
							<linkclipref>clipitem-148</linkclipref>
							<mediatype>audio</mediatype>
							<trackindex>2</trackindex>
							<clipindex>1</clipindex>
							<groupindex>1</groupindex>
						</link>
						<logginginfo>
							<description></description>
							<scene></scene>
							<shottake></shottake>
							<lognote></lognote>
							<good></good>
							<originalvideofilename></originalvideofilename>
							<originalaudiofilename></originalaudiofilename>
						</logginginfo>
						<colorinfo>
							<lut></lut>
							<lut1></lut1>
							<asc_sop></asc_sop>
							<asc_sat></asc_sat>
							<lut2></lut2>
						</colorinfo>
						<labels>
							<label2>Caribbean</label2>
						</labels>
					</clipitem>
					<enabled>TRUE</enabled>
					<locked>FALSE</locked>
					<outputchannelindex>2</outputchannelindex>
				</track>
				<track TL.SQTrackAudioKeyframeStyle="0" TL.SQTrackShy="0" TL.SQTrackExpandedHeight="50" TL.SQTrackExpanded="0" MZ.TrackTargeted="1" PannerCurrentValue="0.5" PannerStartKeyframe="-91445760000000000,0.5,0,0,0,0,0,0" PannerName="Balance" currentExplodedTrackIndex="0" totalExplodedTrackCount="1" premiereTrackType="Stereo">
					<clipitem id="clipitem-149" premiereChannelType="mono">
						<masterclipid>masterclip-129</masterclipid>
						<name>magalys polanco hammock - clip (enhanced).wav</name>
						<enabled>TRUE</enabled>
						<duration>90935</duration>
						<rate>
							<timebase>24</timebase>
							<ntsc>TRUE</ntsc>
						</rate>
						<start>0</start>
						<end>72748</end>
						<in>0</in>
						<out>72748</out>
						<pproTicksIn>0</pproTicksIn>
						<pproTicksOut>770734796832000</pproTicksOut>
						<file id="file-129">
							<name>magalys polanco hammock - clip (enhanced).wav</name>
							<pathurl>file://localhost/Users/ben/Downloads/magalys%20polanco%20hammock%20-%20clip%20(enhanced).wav</pathurl>
							<rate>
								<timebase>30</timebase>
								<ntsc>TRUE</ntsc>
							</rate>
							<duration>90935</duration>
							<timecode>
								<rate>
									<timebase>30</timebase>
									<ntsc>TRUE</ntsc>
								</rate>
								<string>00;00;00;00</string>
								<frame>0</frame>
								<displayformat>DF</displayformat>
							</timecode>
							<media>
								<audio>
									<samplecharacteristics>
										<depth>16</depth>
										<samplerate>48000</samplerate>
									</samplecharacteristics>
									<channelcount>1</channelcount>
									<audiochannel>
										<sourcechannel>1</sourcechannel>
									</audiochannel>
								</audio>
							</media>
						</file>
						<sourcetrack>
							<mediatype>audio</mediatype>
							<trackindex>1</trackindex>
						</sourcetrack>
						<filter>
							<effect>
								<name>Audio Levels</name>
								<effectid>audiolevels</effectid>
								<effectcategory>audiolevels</effectcategory>
								<effecttype>audiolevels</effecttype>
								<mediatype>audio</mediatype>
								<pproBypass>false</pproBypass>
								<parameter authoringApp="PremierePro">
									<parameterid>level</parameterid>
									<name>Level</name>
									<valuemin>0</valuemin>
									<valuemax>3.98109</valuemax>
									<value>0.711902</value>
									<keyframe>
										<when>204</when>
										<value>0.446684</value>
									</keyframe>
									<keyframe>
										<when>269</when>
										<value>0.751789</value>
									</keyframe>
									<keyframe>
										<when>52394</when>
										<value>0.422761</value>
									</keyframe>
									<keyframe>
										<when>53817</when>
										<value>0.768299</value>
									</keyframe>
									<keyframe>
										<when>55315</when>
										<value>0.474346</value>
									</keyframe>
								</parameter>
							</effect>
						</filter>
						<logginginfo>
							<description></description>
							<scene></scene>
							<shottake></shottake>
							<lognote></lognote>
							<good></good>
							<originalvideofilename></originalvideofilename>
							<originalaudiofilename></originalaudiofilename>
						</logginginfo>
						<colorinfo>
							<lut></lut>
							<lut1></lut1>
							<asc_sop></asc_sop>
							<asc_sat></asc_sat>
							<lut2></lut2>
						</colorinfo>
						<labels>
							<label2>Caribbean</label2>
						</labels>
					</clipitem>
					<enabled>TRUE</enabled>
					<locked>FALSE</locked>
					<outputchannelindex>1</outputchannelindex>
				</track>
			</audio>
		</media>
		<timecode>
			<rate>
				<timebase>24</timebase>
				<ntsc>TRUE</ntsc>
			</rate>
			<string>00:00:00:00</string>
			<frame>0</frame>
			<displayformat>NDF</displayformat>
		</timecode>
		<labels>
			<label2>Forest</label2>
		</labels>
		<logginginfo>
			<description></description>
			<scene></scene>
			<shottake></shottake>
			<lognote></lognote>
			<good></good>
			<originalvideofilename></originalvideofilename>
			<originalaudiofilename></originalaudiofilename>
		</logginginfo>
	</sequence>
</xmeml>
