<?xml version="1.0" encoding="UTF-8"?>
<!DOCTYPE xmeml>
<xmeml version="4">
	<sequence id="sequence-1" TL.SQAudioVisibleBase="0" TL.SQVideoVisibleBase="0" TL.SQVisibleBaseTime="0" TL.SQAVDividerPosition="0.5" TL.SQHideShyTracks="0" TL.SQHeaderWidth="236" TL.SQDataTrackViewControlState="1" Monitor.ProgramZoomOut="535227789096000" Monitor.ProgramZoomIn="0" TL.SQTimePerPixel="2.6622175340466927" MZ.EditLine="487573350264000" MZ.Sequence.PreviewFrameSizeHeight="1080" MZ.Sequence.PreviewFrameSizeWidth="1920" MZ.Sequence.AudioTimeDisplayFormat="200" MZ.Sequence.PreviewRenderingClassID="1061109567" MZ.Sequence.PreviewRenderingPresetCodec="1634755443" MZ.Sequence.PreviewRenderingPresetPath="EncoderPresets/SequencePreview/35d109db-457b-43c1-9452-9cb7be9f121c/QuickTime.epr" MZ.Sequence.PreviewUseMaxRenderQuality="false" MZ.Sequence.PreviewUseMaxBitDepth="false" MZ.Sequence.EditingModeGUID="35d109db-457b-43c1-9452-9cb7be9f121c" MZ.Sequence.VideoTimeDisplayFormat="110" MZ.WorkOutPoint="15235011792000" MZ.WorkInPoint="0" explodedTracks="true">
		<uuid>4a062991-c73b-4de7-b326-d2cb9eea9f49</uuid>
		<duration>50519</duration>
		<rate>
			<timebase>24</timebase>
			<ntsc>TRUE</ntsc>
		</rate>
		<name>Magalys Electronics - synced</name>
		<media>
			<video>
				<format>
					<samplecharacteristics>
						<rate>
							<timebase>24</timebase>
							<ntsc>TRUE</ntsc>
						</rate>
						<codec>
							<name>Apple ProRes 422</name>
							<appspecificdata>
								<appname>Final Cut Pro</appname>
								<appmanufacturer>Apple Inc.</appmanufacturer>
								<appversion>7.0</appversion>
								<data>
									<qtcodec>
										<codecname>Apple ProRes 422</codecname>
										<codectypename>Apple ProRes 422</codectypename>
										<codectypecode>apcn</codectypecode>
										<codecvendorcode>appl</codecvendorcode>
										<spatialquality>1024</spatialquality>
										<temporalquality>0</temporalquality>
										<keyframerate>0</keyframerate>
										<datarate>0</datarate>
									</qtcodec>
								</data>
							</appspecificdata>
						</codec>
						<width>1920</width>
						<height>1080</height>
						<anamorphic>FALSE</anamorphic>
						<pixelaspectratio>square</pixelaspectratio>
						<fielddominance>none</fielddominance>
						<colordepth>24</colordepth>
					</samplecharacteristics>
				</format>
				<track TL.SQTrackShy="0" TL.SQTrackExpandedHeight="25" TL.SQTrackExpanded="0" MZ.TrackTargeted="1">
					<clipitem id="clipitem-1">
						<masterclipid>masterclip-1</masterclipid>
						<name>wiblo_1_2000-01-01_1146_C0062.mov</name>
						<enabled>TRUE</enabled>
						<duration>647</duration>
						<rate>
							<timebase>24</timebase>
							<ntsc>TRUE</ntsc>
						</rate>
						<start>30</start>
						<end>349</end>
						<in>328</in>
						<out>647</out>
						<pproTicksIn>3475023552000</pproTicksIn>
						<pproTicksOut>6854695848000</pproTicksOut>
						<alphatype>none</alphatype>
						<pixelaspectratio>square</pixelaspectratio>
						<anamorphic>FALSE</anamorphic>
						<file id="file-1">
							<name>wiblo_1_2000-01-01_1146_C0062.mov</name>
							<pathurl>file://localhost/Volumes/aqua/00_Footage/4)%20Wayuu/7-21%20magalys%20and%20healer%202/../7-21%20magalys%20and%20healer/wiblo_1_2000-01-01_1146_C0062.mov</pathurl>
							<rate>
								<timebase>24</timebase>
								<ntsc>TRUE</ntsc>
							</rate>
							<duration>647</duration>
							<timecode>
								<rate>
									<timebase>24</timebase>
									<ntsc>TRUE</ntsc>
								</rate>
								<string>11:46:51:00</string>
								<frame>1017864</frame>
								<displayformat>NDF</displayformat>
							</timecode>
							<media>
								<video>
									<samplecharacteristics>
										<rate>
											<timebase>24</timebase>
											<ntsc>TRUE</ntsc>
										</rate>
										<width>1920</width>
										<height>1080</height>
										<anamorphic>FALSE</anamorphic>
										<pixelaspectratio>square</pixelaspectratio>
										<fielddominance>none</fielddominance>
									</samplecharacteristics>
								</video>
								<audio>
									<samplecharacteristics>
										<depth>16</depth>
										<samplerate>48000</samplerate>
									</samplecharacteristics>
									<channelcount>2</channelcount>
								</audio>
							</media>
						</file>
						<logginginfo>
							<description></description>
							<scene></scene>
							<shottake></shottake>
							<lognote></lognote>
							<good></good>
							<originalvideofilename></originalvideofilename>
							<originalaudiofilename></originalaudiofilename>
						</logginginfo>
						<colorinfo>
							<lut></lut>
							<lut1></lut1>
							<asc_sop></asc_sop>
							<asc_sat></asc_sat>
							<lut2></lut2>
						</colorinfo>
						<labels>
							<label2>Rose</label2>
						</labels>
					</clipitem>
					<clipitem id="clipitem-2">
						<masterclipid>masterclip-2</masterclipid>
						<name>wiblo_1_2000-01-01_1147_C0063.mov</name>
						<enabled>TRUE</enabled>
						<duration>275</duration>
						<rate>
							<timebase>24</timebase>
							<ntsc>TRUE</ntsc>
						</rate>
						<start>349</start>
						<end>623</end>
						<in>1</in>
						<out>275</out>
						<pproTicksIn>10594584000</pproTicksIn>
						<pproTicksOut>2913510600000</pproTicksOut>
						<alphatype>none</alphatype>
						<pixelaspectratio>square</pixelaspectratio>
						<anamorphic>FALSE</anamorphic>
						<file id="file-2">
							<name>wiblo_1_2000-01-01_1147_C0063.mov</name>
							<pathurl>file://localhost/Volumes/aqua/00_Footage/4)%20Wayuu/7-21%20magalys%20and%20healer%202/../7-21%20magalys%20and%20healer/wiblo_1_2000-01-01_1147_C0063.mov</pathurl>
							<rate>
								<timebase>24</timebase>
								<ntsc>TRUE</ntsc>
							</rate>
							<duration>275</duration>
							<timecode>
								<rate>
									<timebase>24</timebase>
									<ntsc>TRUE</ntsc>
								</rate>
								<string>11:47:24:00</string>
								<frame>1018656</frame>
								<displayformat>NDF</displayformat>
							</timecode>
							<media>
								<video>
									<samplecharacteristics>
										<rate>
											<timebase>24</timebase>
											<ntsc>TRUE</ntsc>
										</rate>
										<width>1920</width>
										<height>1080</height>
										<anamorphic>FALSE</anamorphic>
										<pixelaspectratio>square</pixelaspectratio>
										<fielddominance>none</fielddominance>
									</samplecharacteristics>
								</video>
								<audio>
									<samplecharacteristics>
										<depth>16</depth>
										<samplerate>48000</samplerate>
									</samplecharacteristics>
									<channelcount>2</channelcount>
								</audio>
							</media>
						</file>
						<logginginfo>
							<description></description>
							<scene></scene>
							<shottake></shottake>
							<lognote></lognote>
							<good></good>
							<originalvideofilename></originalvideofilename>
							<originalaudiofilename></originalaudiofilename>
						</logginginfo>
						<colorinfo>
							<lut></lut>
							<lut1></lut1>
							<asc_sop></asc_sop>
							<asc_sat></asc_sat>
							<lut2></lut2>
						</colorinfo>
						<labels>
							<label2>Rose</label2>
						</labels>
					</clipitem>
					<clipitem id="clipitem-3">
						<masterclipid>masterclip-3</masterclipid>
						<name>wiblo_1_2000-01-01_1147_C0064.mov</name>
						<enabled>TRUE</enabled>
						<duration>107</duration>
						<rate>
							<timebase>24</timebase>
							<ntsc>TRUE</ntsc>
						</rate>
						<start>623</start>
						<end>729</end>
						<in>1</in>
						<out>107</out>
						<pproTicksIn>10594584000</pproTicksIn>
						<pproTicksOut>1133620488000</pproTicksOut>
						<alphatype>none</alphatype>
						<pixelaspectratio>square</pixelaspectratio>
						<anamorphic>FALSE</anamorphic>
						<file id="file-3">
							<name>wiblo_1_2000-01-01_1147_C0064.mov</name>
							<pathurl>file://localhost/Volumes/aqua/00_Footage/4)%20Wayuu/7-21%20magalys%20and%20healer%202/../7-21%20magalys%20and%20healer/wiblo_1_2000-01-01_1147_C0064.mov</pathurl>
							<rate>
								<timebase>24</timebase>
								<ntsc>TRUE</ntsc>
							</rate>
							<duration>107</duration>
							<timecode>
								<rate>
									<timebase>24</timebase>
									<ntsc>TRUE</ntsc>
								</rate>
								<string>11:47:42:00</string>
								<frame>1019088</frame>
								<displayformat>NDF</displayformat>
							</timecode>
							<media>
								<video>
									<samplecharacteristics>
										<rate>
											<timebase>24</timebase>
											<ntsc>TRUE</ntsc>
										</rate>
										<width>1920</width>
										<height>1080</height>
										<anamorphic>FALSE</anamorphic>
										<pixelaspectratio>square</pixelaspectratio>
										<fielddominance>none</fielddominance>
									</samplecharacteristics>
								</video>
								<audio>
									<samplecharacteristics>
										<depth>16</depth>
										<samplerate>48000</samplerate>
									</samplecharacteristics>
									<channelcount>2</channelcount>
								</audio>
							</media>
						</file>
						<link>
							<linkclipref>clipitem-3</linkclipref>
							<mediatype>video</mediatype>
							<trackindex>1</trackindex>
							<clipindex>3</clipindex>
						</link>
						<link>
							<linkclipref>clipitem-148</linkclipref>
							<mediatype>audio</mediatype>
							<trackindex>3</trackindex>
							<clipindex>1</clipindex>
							<groupindex>1</groupindex>
						</link>
						<link>
							<linkclipref>clipitem-153</linkclipref>
							<mediatype>audio</mediatype>
							<trackindex>4</trackindex>
							<clipindex>1</clipindex>
							<groupindex>1</groupindex>
						</link>
						<logginginfo>
							<description></description>
							<scene></scene>
							<shottake></shottake>
							<lognote></lognote>
							<good></good>
							<originalvideofilename></originalvideofilename>
							<originalaudiofilename></originalaudiofilename>
						</logginginfo>
						<colorinfo>
							<lut></lut>
							<lut1></lut1>
							<asc_sop></asc_sop>
							<asc_sat></asc_sat>
							<lut2></lut2>
						</colorinfo>
						<labels>
							<label2>Rose</label2>
						</labels>
					</clipitem>
					<clipitem id="clipitem-4">
						<masterclipid>masterclip-4</masterclipid>
						<name>wiblo_1_2000-01-01_1148_C0065.mov</name>
						<enabled>TRUE</enabled>
						<duration>513</duration>
						<rate>
							<timebase>24</timebase>
							<ntsc>TRUE</ntsc>
						</rate>
						<start>729</start>
						<end>1241</end>
						<in>1</in>
						<out>513</out>
						<pproTicksIn>10594584000</pproTicksIn>
						<pproTicksOut>5435021592000</pproTicksOut>
						<alphatype>none</alphatype>
						<pixelaspectratio>square</pixelaspectratio>
						<anamorphic>FALSE</anamorphic>
						<file id="file-4">
							<name>wiblo_1_2000-01-01_1148_C0065.mov</name>
							<pathurl>file://localhost/Volumes/aqua/00_Footage/4)%20Wayuu/7-21%20magalys%20and%20healer%202/../7-21%20magalys%20and%20healer/wiblo_1_2000-01-01_1148_C0065.mov</pathurl>
							<rate>
								<timebase>24</timebase>
								<ntsc>TRUE</ntsc>
							</rate>
							<duration>513</duration>
							<timecode>
								<rate>
									<timebase>24</timebase>
									<ntsc>TRUE</ntsc>
								</rate>
								<string>11:48:13:00</string>
								<frame>1019832</frame>
								<displayformat>NDF</displayformat>
							</timecode>
							<media>
								<video>
									<samplecharacteristics>
										<rate>
											<timebase>24</timebase>
											<ntsc>TRUE</ntsc>
										</rate>
										<width>1920</width>
										<height>1080</height>
										<anamorphic>FALSE</anamorphic>
										<pixelaspectratio>square</pixelaspectratio>
										<fielddominance>none</fielddominance>
									</samplecharacteristics>
								</video>
								<audio>
									<samplecharacteristics>
										<depth>16</depth>
										<samplerate>48000</samplerate>
									</samplecharacteristics>
									<channelcount>2</channelcount>
								</audio>
							</media>
						</file>
						<link>
							<linkclipref>clipitem-4</linkclipref>
							<mediatype>video</mediatype>
							<trackindex>1</trackindex>
							<clipindex>4</clipindex>
						</link>
						<link>
							<linkclipref>clipitem-149</linkclipref>
							<mediatype>audio</mediatype>
							<trackindex>3</trackindex>
							<clipindex>2</clipindex>
							<groupindex>1</groupindex>
						</link>
						<link>
							<linkclipref>clipitem-154</linkclipref>
							<mediatype>audio</mediatype>
							<trackindex>4</trackindex>
							<clipindex>2</clipindex>
							<groupindex>1</groupindex>
						</link>
						<logginginfo>
							<description></description>
							<scene></scene>
							<shottake></shottake>
							<lognote></lognote>
							<good></good>
							<originalvideofilename></originalvideofilename>
							<originalaudiofilename></originalaudiofilename>
						</logginginfo>
						<colorinfo>
							<lut></lut>
							<lut1></lut1>
							<asc_sop></asc_sop>
							<asc_sat></asc_sat>
							<lut2></lut2>
						</colorinfo>
						<labels>
							<label2>Rose</label2>
						</labels>
					</clipitem>
					<clipitem id="clipitem-5">
						<masterclipid>masterclip-5</masterclipid>
						<name>wiblo_1_2000-01-01_1149_C0067.mov</name>
						<enabled>TRUE</enabled>
						<duration>212</duration>
						<rate>
							<timebase>24</timebase>
							<ntsc>TRUE</ntsc>
						</rate>
						<start>1241</start>
						<end>1453</end>
						<in>0</in>
						<out>212</out>
						<pproTicksIn>0</pproTicksIn>
						<pproTicksOut>2246051808000</pproTicksOut>
						<alphatype>none</alphatype>
						<pixelaspectratio>square</pixelaspectratio>
						<anamorphic>FALSE</anamorphic>
						<file id="file-5">
							<name>wiblo_1_2000-01-01_1149_C0067.mov</name>
							<pathurl>file://localhost/Volumes/aqua/00_Footage/4)%20Wayuu/7-21%20magalys%20and%20healer%202/../7-21%20magalys%20and%20healer/wiblo_1_2000-01-01_1149_C0067.mov</pathurl>
							<rate>
								<timebase>24</timebase>
								<ntsc>TRUE</ntsc>
							</rate>
							<duration>212</duration>
							<timecode>
								<rate>
									<timebase>24</timebase>
									<ntsc>TRUE</ntsc>
								</rate>
								<string>11:49:18:00</string>
								<frame>1021392</frame>
								<displayformat>NDF</displayformat>
							</timecode>
							<media>
								<video>
									<samplecharacteristics>
										<rate>
											<timebase>24</timebase>
											<ntsc>TRUE</ntsc>
										</rate>
										<width>1920</width>
										<height>1080</height>
										<anamorphic>FALSE</anamorphic>
										<pixelaspectratio>square</pixelaspectratio>
										<fielddominance>none</fielddominance>
									</samplecharacteristics>
								</video>
								<audio>
									<samplecharacteristics>
										<depth>16</depth>
										<samplerate>48000</samplerate>
									</samplecharacteristics>
									<channelcount>2</channelcount>
								</audio>
							</media>
						</file>
						<logginginfo>
							<description></description>
							<scene></scene>
							<shottake></shottake>
							<lognote></lognote>
							<good></good>
							<originalvideofilename></originalvideofilename>
							<originalaudiofilename></originalaudiofilename>
						</logginginfo>
						<colorinfo>
							<lut></lut>
							<lut1></lut1>
							<asc_sop></asc_sop>
							<asc_sat></asc_sat>
							<lut2></lut2>
						</colorinfo>
						<labels>
							<label2>Iris</label2>
						</labels>
					</clipitem>
					<clipitem id="clipitem-6">
						<masterclipid>masterclip-6</masterclipid>
						<name>wiblo_1_2000-01-01_1149_C0068.mov</name>
						<enabled>TRUE</enabled>
						<duration>91</duration>
						<rate>
							<timebase>24</timebase>
							<ntsc>TRUE</ntsc>
						</rate>
						<start>1481</start>
						<end>1572</end>
						<in>0</in>
						<out>91</out>
						<pproTicksIn>0</pproTicksIn>
						<pproTicksOut>964107144000</pproTicksOut>
						<alphatype>none</alphatype>
						<pixelaspectratio>square</pixelaspectratio>
						<anamorphic>FALSE</anamorphic>
						<file id="file-6">
							<name>wiblo_1_2000-01-01_1149_C0068.mov</name>
							<pathurl>file://localhost/Volumes/aqua/00_Footage/4)%20Wayuu/7-21%20magalys%20and%20healer%202/../7-21%20magalys%20and%20healer/wiblo_1_2000-01-01_1149_C0068.mov</pathurl>
							<rate>
								<timebase>24</timebase>
								<ntsc>TRUE</ntsc>
							</rate>
							<duration>91</duration>
							<timecode>
								<rate>
									<timebase>24</timebase>
									<ntsc>TRUE</ntsc>
								</rate>
								<string>11:49:28:00</string>
								<frame>1021632</frame>
								<displayformat>NDF</displayformat>
							</timecode>
							<media>
								<video>
									<samplecharacteristics>
										<rate>
											<timebase>24</timebase>
											<ntsc>TRUE</ntsc>
										</rate>
										<width>1920</width>
										<height>1080</height>
										<anamorphic>FALSE</anamorphic>
										<pixelaspectratio>square</pixelaspectratio>
										<fielddominance>none</fielddominance>
									</samplecharacteristics>
								</video>
								<audio>
									<samplecharacteristics>
										<depth>16</depth>
										<samplerate>48000</samplerate>
									</samplecharacteristics>
									<channelcount>2</channelcount>
								</audio>
							</media>
						</file>
						<logginginfo>
							<description></description>
							<scene></scene>
							<shottake></shottake>
							<lognote></lognote>
							<good></good>
							<originalvideofilename></originalvideofilename>
							<originalaudiofilename></originalaudiofilename>
						</logginginfo>
						<colorinfo>
							<lut></lut>
							<lut1></lut1>
							<asc_sop></asc_sop>
							<asc_sat></asc_sat>
							<lut2></lut2>
						</colorinfo>
						<labels>
							<label2>Rose</label2>
						</labels>
					</clipitem>
					<clipitem id="clipitem-7">
						<masterclipid>masterclip-7</masterclipid>
						<name>wiblo_1_2000-01-01_1149_C0069.mov</name>
						<enabled>TRUE</enabled>
						<duration>310</duration>
						<rate>
							<timebase>24</timebase>
							<ntsc>TRUE</ntsc>
						</rate>
						<start>1796</start>
						<end>2106</end>
						<in>0</in>
						<out>310</out>
						<pproTicksIn>0</pproTicksIn>
						<pproTicksOut>3284321040000</pproTicksOut>
						<alphatype>none</alphatype>
						<pixelaspectratio>square</pixelaspectratio>
						<anamorphic>FALSE</anamorphic>
						<file id="file-7">
							<name>wiblo_1_2000-01-01_1149_C0069.mov</name>
							<pathurl>file://localhost/Volumes/aqua/00_Footage/4)%20Wayuu/7-21%20magalys%20and%20healer%202/../7-21%20magalys%20and%20healer/wiblo_1_2000-01-01_1149_C0069.mov</pathurl>
							<rate>
								<timebase>24</timebase>
								<ntsc>TRUE</ntsc>
							</rate>
							<duration>310</duration>
							<timecode>
								<rate>
									<timebase>24</timebase>
									<ntsc>TRUE</ntsc>
								</rate>
								<string>11:49:41:00</string>
								<frame>1021944</frame>
								<displayformat>NDF</displayformat>
							</timecode>
							<media>
								<video>
									<samplecharacteristics>
										<rate>
											<timebase>24</timebase>
											<ntsc>TRUE</ntsc>
										</rate>
										<width>1920</width>
										<height>1080</height>
										<anamorphic>FALSE</anamorphic>
										<pixelaspectratio>square</pixelaspectratio>
										<fielddominance>none</fielddominance>
									</samplecharacteristics>
								</video>
								<audio>
									<samplecharacteristics>
										<depth>16</depth>
										<samplerate>48000</samplerate>
									</samplecharacteristics>
									<channelcount>2</channelcount>
								</audio>
							</media>
						</file>
						<logginginfo>
							<description></description>
							<scene></scene>
							<shottake></shottake>
							<lognote></lognote>
							<good></good>
							<originalvideofilename></originalvideofilename>
							<originalaudiofilename></originalaudiofilename>
						</logginginfo>
						<colorinfo>
							<lut></lut>
							<lut1></lut1>
							<asc_sop></asc_sop>
							<asc_sat></asc_sat>
							<lut2></lut2>
						</colorinfo>
						<labels>
							<label2>Iris</label2>
						</labels>
					</clipitem>
					<clipitem id="clipitem-8">
						<masterclipid>masterclip-8</masterclipid>
						<name>wiblo_1_2000-01-01_1149_C0070.mov</name>
						<enabled>TRUE</enabled>
						<duration>819</duration>
						<rate>
							<timebase>24</timebase>
							<ntsc>TRUE</ntsc>
						</rate>
						<start>2175</start>
						<end>2994</end>
						<in>0</in>
						<out>819</out>
						<pproTicksIn>0</pproTicksIn>
						<pproTicksOut>8676964296000</pproTicksOut>
						<alphatype>none</alphatype>
						<pixelaspectratio>square</pixelaspectratio>
						<anamorphic>FALSE</anamorphic>
						<file id="file-8">
							<name>wiblo_1_2000-01-01_1149_C0070.mov</name>
							<pathurl>file://localhost/Volumes/aqua/00_Footage/4)%20Wayuu/7-21%20magalys%20and%20healer%202/../7-21%20magalys%20and%20healer/wiblo_1_2000-01-01_1149_C0070.mov</pathurl>
							<rate>
								<timebase>24</timebase>
								<ntsc>TRUE</ntsc>
							</rate>
							<duration>819</duration>
							<timecode>
								<rate>
									<timebase>24</timebase>
									<ntsc>TRUE</ntsc>
								</rate>
								<string>11:49:57:00</string>
								<frame>1022328</frame>
								<displayformat>NDF</displayformat>
							</timecode>
							<media>
								<video>
									<samplecharacteristics>
										<rate>
											<timebase>24</timebase>
											<ntsc>TRUE</ntsc>
										</rate>
										<width>1920</width>
										<height>1080</height>
										<anamorphic>FALSE</anamorphic>
										<pixelaspectratio>square</pixelaspectratio>
										<fielddominance>none</fielddominance>
									</samplecharacteristics>
								</video>
								<audio>
									<samplecharacteristics>
										<depth>16</depth>
										<samplerate>48000</samplerate>
									</samplecharacteristics>
									<channelcount>2</channelcount>
								</audio>
							</media>
						</file>
						<logginginfo>
							<description></description>
							<scene></scene>
							<shottake></shottake>
							<lognote></lognote>
							<good></good>
							<originalvideofilename></originalvideofilename>
							<originalaudiofilename></originalaudiofilename>
						</logginginfo>
						<colorinfo>
							<lut></lut>
							<lut1></lut1>
							<asc_sop></asc_sop>
							<asc_sat></asc_sat>
							<lut2></lut2>
						</colorinfo>
						<labels>
							<label2>Iris</label2>
						</labels>
					</clipitem>
					<clipitem id="clipitem-9">
						<masterclipid>masterclip-9</masterclipid>
						<name>wiblo_1_2000-01-01_1150_C0071.mov</name>
						<enabled>TRUE</enabled>
						<duration>306</duration>
						<rate>
							<timebase>24</timebase>
							<ntsc>TRUE</ntsc>
						</rate>
						<start>3075</start>
						<end>3381</end>
						<in>0</in>
						<out>306</out>
						<pproTicksIn>0</pproTicksIn>
						<pproTicksOut>3241942704000</pproTicksOut>
						<alphatype>none</alphatype>
						<pixelaspectratio>square</pixelaspectratio>
						<anamorphic>FALSE</anamorphic>
						<file id="file-9">
							<name>wiblo_1_2000-01-01_1150_C0071.mov</name>
							<pathurl>file://localhost/Volumes/aqua/00_Footage/4)%20Wayuu/7-21%20magalys%20and%20healer%202/../7-21%20magalys%20and%20healer/wiblo_1_2000-01-01_1150_C0071.mov</pathurl>
							<rate>
								<timebase>24</timebase>
								<ntsc>TRUE</ntsc>
							</rate>
							<duration>306</duration>
							<timecode>
								<rate>
									<timebase>24</timebase>
									<ntsc>TRUE</ntsc>
								</rate>
								<string>11:50:34:00</string>
								<frame>1023216</frame>
								<displayformat>NDF</displayformat>
							</timecode>
							<media>
								<video>
									<samplecharacteristics>
										<rate>
											<timebase>24</timebase>
											<ntsc>TRUE</ntsc>
										</rate>
										<width>1920</width>
										<height>1080</height>
										<anamorphic>FALSE</anamorphic>
										<pixelaspectratio>square</pixelaspectratio>
										<fielddominance>none</fielddominance>
									</samplecharacteristics>
								</video>
								<audio>
									<samplecharacteristics>
										<depth>16</depth>
										<samplerate>48000</samplerate>
									</samplecharacteristics>
									<channelcount>2</channelcount>
								</audio>
							</media>
						</file>
						<logginginfo>
							<description></description>
							<scene></scene>
							<shottake></shottake>
							<lognote></lognote>
							<good></good>
							<originalvideofilename></originalvideofilename>
							<originalaudiofilename></originalaudiofilename>
						</logginginfo>
						<colorinfo>
							<lut></lut>
							<lut1></lut1>
							<asc_sop></asc_sop>
							<asc_sat></asc_sat>
							<lut2></lut2>
						</colorinfo>
						<labels>
							<label2>Iris</label2>
						</labels>
					</clipitem>
					<clipitem id="clipitem-10">
						<masterclipid>masterclip-10</masterclipid>
						<name>wiblo_1_2000-01-01_1150_C0072.mov</name>
						<enabled>TRUE</enabled>
						<duration>324</duration>
						<rate>
							<timebase>24</timebase>
							<ntsc>TRUE</ntsc>
						</rate>
						<start>3432</start>
						<end>3756</end>
						<in>0</in>
						<out>324</out>
						<pproTicksIn>0</pproTicksIn>
						<pproTicksOut>3432645216000</pproTicksOut>
						<alphatype>none</alphatype>
						<pixelaspectratio>square</pixelaspectratio>
						<anamorphic>FALSE</anamorphic>
						<file id="file-10">
							<name>wiblo_1_2000-01-01_1150_C0072.mov</name>
							<pathurl>file://localhost/Volumes/aqua/00_Footage/4)%20Wayuu/7-21%20magalys%20and%20healer%202/../7-21%20magalys%20and%20healer/wiblo_1_2000-01-01_1150_C0072.mov</pathurl>
							<rate>
								<timebase>24</timebase>
								<ntsc>TRUE</ntsc>
							</rate>
							<duration>324</duration>
							<timecode>
								<rate>
									<timebase>24</timebase>
									<ntsc>TRUE</ntsc>
								</rate>
								<string>11:50:49:00</string>
								<frame>1023576</frame>
								<displayformat>NDF</displayformat>
							</timecode>
							<media>
								<video>
									<samplecharacteristics>
										<rate>
											<timebase>24</timebase>
											<ntsc>TRUE</ntsc>
										</rate>
										<width>1920</width>
										<height>1080</height>
										<anamorphic>FALSE</anamorphic>
										<pixelaspectratio>square</pixelaspectratio>
										<fielddominance>none</fielddominance>
									</samplecharacteristics>
								</video>
								<audio>
									<samplecharacteristics>
										<depth>16</depth>
										<samplerate>48000</samplerate>
									</samplecharacteristics>
									<channelcount>2</channelcount>
								</audio>
							</media>
						</file>
						<logginginfo>
							<description></description>
							<scene></scene>
							<shottake></shottake>
							<lognote></lognote>
							<good></good>
							<originalvideofilename></originalvideofilename>
							<originalaudiofilename></originalaudiofilename>
						</logginginfo>
						<colorinfo>
							<lut></lut>
							<lut1></lut1>
							<asc_sop></asc_sop>
							<asc_sat></asc_sat>
							<lut2></lut2>
						</colorinfo>
						<labels>
							<label2>Iris</label2>
						</labels>
					</clipitem>
					<clipitem id="clipitem-11">
						<masterclipid>masterclip-11</masterclipid>
						<name>wiblo_1_2000-01-01_1151_C0073.mov</name>
						<enabled>TRUE</enabled>
						<duration>245</duration>
						<rate>
							<timebase>24</timebase>
							<ntsc>TRUE</ntsc>
						</rate>
						<start>4000</start>
						<end>4245</end>
						<in>0</in>
						<out>245</out>
						<pproTicksIn>0</pproTicksIn>
						<pproTicksOut>2595673080000</pproTicksOut>
						<alphatype>none</alphatype>
						<pixelaspectratio>square</pixelaspectratio>
						<anamorphic>FALSE</anamorphic>
						<file id="file-11">
							<name>wiblo_1_2000-01-01_1151_C0073.mov</name>
							<pathurl>file://localhost/Volumes/aqua/00_Footage/4)%20Wayuu/7-21%20magalys%20and%20healer%202/../7-21%20magalys%20and%20healer/wiblo_1_2000-01-01_1151_C0073.mov</pathurl>
							<rate>
								<timebase>24</timebase>
								<ntsc>TRUE</ntsc>
							</rate>
							<duration>245</duration>
							<timecode>
								<rate>
									<timebase>24</timebase>
									<ntsc>TRUE</ntsc>
								</rate>
								<string>11:51:13:00</string>
								<frame>1024152</frame>
								<displayformat>NDF</displayformat>
							</timecode>
							<media>
								<video>
									<samplecharacteristics>
										<rate>
											<timebase>24</timebase>
											<ntsc>TRUE</ntsc>
										</rate>
										<width>1920</width>
										<height>1080</height>
										<anamorphic>FALSE</anamorphic>
										<pixelaspectratio>square</pixelaspectratio>
										<fielddominance>none</fielddominance>
									</samplecharacteristics>
								</video>
								<audio>
									<samplecharacteristics>
										<depth>16</depth>
										<samplerate>48000</samplerate>
									</samplecharacteristics>
									<channelcount>2</channelcount>
								</audio>
							</media>
						</file>
						<logginginfo>
							<description></description>
							<scene></scene>
							<shottake></shottake>
							<lognote></lognote>
							<good></good>
							<originalvideofilename></originalvideofilename>
							<originalaudiofilename></originalaudiofilename>
						</logginginfo>
						<colorinfo>
							<lut></lut>
							<lut1></lut1>
							<asc_sop></asc_sop>
							<asc_sat></asc_sat>
							<lut2></lut2>
						</colorinfo>
						<labels>
							<label2>Iris</label2>
						</labels>
					</clipitem>
					<clipitem id="clipitem-12">
						<masterclipid>masterclip-12</masterclipid>
						<name>wiblo_1_2000-01-01_1151_C0074.mov</name>
						<enabled>TRUE</enabled>
						<duration>1836</duration>
						<rate>
							<timebase>24</timebase>
							<ntsc>TRUE</ntsc>
						</rate>
						<start>4328</start>
						<end>6164</end>
						<in>0</in>
						<out>1836</out>
						<pproTicksIn>0</pproTicksIn>
						<pproTicksOut>19451656224000</pproTicksOut>
						<alphatype>none</alphatype>
						<pixelaspectratio>square</pixelaspectratio>
						<anamorphic>FALSE</anamorphic>
						<file id="file-12">
							<name>wiblo_1_2000-01-01_1151_C0074.mov</name>
							<pathurl>file://localhost/Volumes/aqua/00_Footage/4)%20Wayuu/7-21%20magalys%20and%20healer%202/../7-21%20magalys%20and%20healer/wiblo_1_2000-01-01_1151_C0074.mov</pathurl>
							<rate>
								<timebase>24</timebase>
								<ntsc>TRUE</ntsc>
							</rate>
							<duration>1836</duration>
							<timecode>
								<rate>
									<timebase>24</timebase>
									<ntsc>TRUE</ntsc>
								</rate>
								<string>11:51:27:00</string>
								<frame>1024488</frame>
								<displayformat>NDF</displayformat>
							</timecode>
							<media>
								<video>
									<samplecharacteristics>
										<rate>
											<timebase>24</timebase>
											<ntsc>TRUE</ntsc>
										</rate>
										<width>1920</width>
										<height>1080</height>
										<anamorphic>FALSE</anamorphic>
										<pixelaspectratio>square</pixelaspectratio>
										<fielddominance>none</fielddominance>
									</samplecharacteristics>
								</video>
								<audio>
									<samplecharacteristics>
										<depth>16</depth>
										<samplerate>48000</samplerate>
									</samplecharacteristics>
									<channelcount>2</channelcount>
								</audio>
							</media>
						</file>
						<logginginfo>
							<description></description>
							<scene></scene>
							<shottake></shottake>
							<lognote></lognote>
							<good></good>
							<originalvideofilename></originalvideofilename>
							<originalaudiofilename></originalaudiofilename>
						</logginginfo>
						<colorinfo>
							<lut></lut>
							<lut1></lut1>
							<asc_sop></asc_sop>
							<asc_sat></asc_sat>
							<lut2></lut2>
						</colorinfo>
						<labels>
							<label2>Iris</label2>
						</labels>
					</clipitem>
					<clipitem id="clipitem-13">
						<masterclipid>masterclip-13</masterclipid>
						<name>wiblo_1_2000-01-01_1153_C0075.mov</name>
						<enabled>TRUE</enabled>
						<duration>443</duration>
						<rate>
							<timebase>24</timebase>
							<ntsc>TRUE</ntsc>
						</rate>
						<start>6719</start>
						<end>7162</end>
						<in>0</in>
						<out>443</out>
						<pproTicksIn>0</pproTicksIn>
						<pproTicksOut>4693400712000</pproTicksOut>
						<alphatype>none</alphatype>
						<pixelaspectratio>square</pixelaspectratio>
						<anamorphic>FALSE</anamorphic>
						<file id="file-13">
							<name>wiblo_1_2000-01-01_1153_C0075.mov</name>
							<pathurl>file://localhost/Volumes/aqua/00_Footage/4)%20Wayuu/7-21%20magalys%20and%20healer%202/../7-21%20magalys%20and%20healer/wiblo_1_2000-01-01_1153_C0075.mov</pathurl>
							<rate>
								<timebase>24</timebase>
								<ntsc>TRUE</ntsc>
							</rate>
							<duration>443</duration>
							<timecode>
								<rate>
									<timebase>24</timebase>
									<ntsc>TRUE</ntsc>
								</rate>
								<string>11:53:06:00</string>
								<frame>1026864</frame>
								<displayformat>NDF</displayformat>
							</timecode>
							<media>
								<video>
									<samplecharacteristics>
										<rate>
											<timebase>24</timebase>
											<ntsc>TRUE</ntsc>
										</rate>
										<width>1920</width>
										<height>1080</height>
										<anamorphic>FALSE</anamorphic>
										<pixelaspectratio>square</pixelaspectratio>
										<fielddominance>none</fielddominance>
									</samplecharacteristics>
								</video>
								<audio>
									<samplecharacteristics>
										<depth>16</depth>
										<samplerate>48000</samplerate>
									</samplecharacteristics>
									<channelcount>2</channelcount>
								</audio>
							</media>
						</file>
						<logginginfo>
							<description></description>
							<scene></scene>
							<shottake></shottake>
							<lognote></lognote>
							<good></good>
							<originalvideofilename></originalvideofilename>
							<originalaudiofilename></originalaudiofilename>
						</logginginfo>
						<colorinfo>
							<lut></lut>
							<lut1></lut1>
							<asc_sop></asc_sop>
							<asc_sat></asc_sat>
							<lut2></lut2>
						</colorinfo>
						<labels>
							<label2>Iris</label2>
						</labels>
					</clipitem>
					<clipitem id="clipitem-14">
						<masterclipid>masterclip-14</masterclipid>
						<name>wiblo_1_2000-01-01_1153_C0076.mov</name>
						<enabled>TRUE</enabled>
						<duration>207</duration>
						<rate>
							<timebase>24</timebase>
							<ntsc>TRUE</ntsc>
						</rate>
						<start>7295</start>
						<end>7502</end>
						<in>0</in>
						<out>207</out>
						<pproTicksIn>0</pproTicksIn>
						<pproTicksOut>2193078888000</pproTicksOut>
						<alphatype>none</alphatype>
						<pixelaspectratio>square</pixelaspectratio>
						<anamorphic>FALSE</anamorphic>
						<file id="file-14">
							<name>wiblo_1_2000-01-01_1153_C0076.mov</name>
							<pathurl>file://localhost/Volumes/aqua/00_Footage/4)%20Wayuu/7-21%20magalys%20and%20healer%202/../7-21%20magalys%20and%20healer/wiblo_1_2000-01-01_1153_C0076.mov</pathurl>
							<rate>
								<timebase>24</timebase>
								<ntsc>TRUE</ntsc>
							</rate>
							<duration>207</duration>
							<timecode>
								<rate>
									<timebase>24</timebase>
									<ntsc>TRUE</ntsc>
								</rate>
								<string>11:53:30:00</string>
								<frame>1027440</frame>
								<displayformat>NDF</displayformat>
							</timecode>
							<media>
								<video>
									<samplecharacteristics>
										<rate>
											<timebase>24</timebase>
											<ntsc>TRUE</ntsc>
										</rate>
										<width>1920</width>
										<height>1080</height>
										<anamorphic>FALSE</anamorphic>
										<pixelaspectratio>square</pixelaspectratio>
										<fielddominance>none</fielddominance>
									</samplecharacteristics>
								</video>
								<audio>
									<samplecharacteristics>
										<depth>16</depth>
										<samplerate>48000</samplerate>
									</samplecharacteristics>
									<channelcount>2</channelcount>
								</audio>
							</media>
						</file>
						<logginginfo>
							<description></description>
							<scene></scene>
							<shottake></shottake>
							<lognote></lognote>
							<good></good>
							<originalvideofilename></originalvideofilename>
							<originalaudiofilename></originalaudiofilename>
						</logginginfo>
						<colorinfo>
							<lut></lut>
							<lut1></lut1>
							<asc_sop></asc_sop>
							<asc_sat></asc_sat>
							<lut2></lut2>
						</colorinfo>
						<labels>
							<label2>Rose</label2>
						</labels>
					</clipitem>
					<clipitem id="clipitem-15">
						<masterclipid>masterclip-15</masterclipid>
						<name>wiblo_1_2000-01-01_1153_C0077.mov</name>
						<enabled>TRUE</enabled>
						<duration>400</duration>
						<rate>
							<timebase>24</timebase>
							<ntsc>TRUE</ntsc>
						</rate>
						<start>7600</start>
						<end>8000</end>
						<in>0</in>
						<out>400</out>
						<pproTicksIn>0</pproTicksIn>
						<pproTicksOut>4237833600000</pproTicksOut>
						<alphatype>none</alphatype>
						<pixelaspectratio>square</pixelaspectratio>
						<anamorphic>FALSE</anamorphic>
						<file id="file-15">
							<name>wiblo_1_2000-01-01_1153_C0077.mov</name>
							<pathurl>file://localhost/Volumes/aqua/00_Footage/4)%20Wayuu/7-21%20magalys%20and%20healer%202/../7-21%20magalys%20and%20healer/wiblo_1_2000-01-01_1153_C0077.mov</pathurl>
							<rate>
								<timebase>24</timebase>
								<ntsc>TRUE</ntsc>
							</rate>
							<duration>400</duration>
							<timecode>
								<rate>
									<timebase>24</timebase>
									<ntsc>TRUE</ntsc>
								</rate>
								<string>11:53:43:00</string>
								<frame>1027752</frame>
								<displayformat>NDF</displayformat>
							</timecode>
							<media>
								<video>
									<samplecharacteristics>
										<rate>
											<timebase>24</timebase>
											<ntsc>TRUE</ntsc>
										</rate>
										<width>1920</width>
										<height>1080</height>
										<anamorphic>FALSE</anamorphic>
										<pixelaspectratio>square</pixelaspectratio>
										<fielddominance>none</fielddominance>
									</samplecharacteristics>
								</video>
								<audio>
									<samplecharacteristics>
										<depth>16</depth>
										<samplerate>48000</samplerate>
									</samplecharacteristics>
									<channelcount>2</channelcount>
								</audio>
							</media>
						</file>
						<logginginfo>
							<description></description>
							<scene></scene>
							<shottake></shottake>
							<lognote></lognote>
							<good></good>
							<originalvideofilename></originalvideofilename>
							<originalaudiofilename></originalaudiofilename>
						</logginginfo>
						<colorinfo>
							<lut></lut>
							<lut1></lut1>
							<asc_sop></asc_sop>
							<asc_sat></asc_sat>
							<lut2></lut2>
						</colorinfo>
						<labels>
							<label2>Iris</label2>
						</labels>
					</clipitem>
					<clipitem id="clipitem-16">
						<masterclipid>masterclip-16</masterclipid>
						<name>wiblo_1_2000-01-01_1154_C0078.mov</name>
						<enabled>TRUE</enabled>
						<duration>1775</duration>
						<rate>
							<timebase>24</timebase>
							<ntsc>TRUE</ntsc>
						</rate>
						<start>8098</start>
						<end>9873</end>
						<in>0</in>
						<out>1775</out>
						<pproTicksIn>0</pproTicksIn>
						<pproTicksOut>18805386600000</pproTicksOut>
						<alphatype>none</alphatype>
						<pixelaspectratio>square</pixelaspectratio>
						<anamorphic>FALSE</anamorphic>
						<file id="file-16">
							<name>wiblo_1_2000-01-01_1154_C0078.mov</name>
							<pathurl>file://localhost/Volumes/aqua/00_Footage/4)%20Wayuu/7-21%20magalys%20and%20healer%202/../7-21%20magalys%20and%20healer/wiblo_1_2000-01-01_1154_C0078.mov</pathurl>
							<rate>
								<timebase>24</timebase>
								<ntsc>TRUE</ntsc>
							</rate>
							<duration>1775</duration>
							<timecode>
								<rate>
									<timebase>24</timebase>
									<ntsc>TRUE</ntsc>
								</rate>
								<string>11:54:04:00</string>
								<frame>1028256</frame>
								<displayformat>NDF</displayformat>
							</timecode>
							<media>
								<video>
									<samplecharacteristics>
										<rate>
											<timebase>24</timebase>
											<ntsc>TRUE</ntsc>
										</rate>
										<width>1920</width>
										<height>1080</height>
										<anamorphic>FALSE</anamorphic>
										<pixelaspectratio>square</pixelaspectratio>
										<fielddominance>none</fielddominance>
									</samplecharacteristics>
								</video>
								<audio>
									<samplecharacteristics>
										<depth>16</depth>
										<samplerate>48000</samplerate>
									</samplecharacteristics>
									<channelcount>2</channelcount>
								</audio>
							</media>
						</file>
						<logginginfo>
							<description></description>
							<scene></scene>
							<shottake></shottake>
							<lognote></lognote>
							<good></good>
							<originalvideofilename></originalvideofilename>
							<originalaudiofilename></originalaudiofilename>
						</logginginfo>
						<colorinfo>
							<lut></lut>
							<lut1></lut1>
							<asc_sop></asc_sop>
							<asc_sat></asc_sat>
							<lut2></lut2>
						</colorinfo>
						<labels>
							<label2>Iris</label2>
						</labels>
					</clipitem>
					<clipitem id="clipitem-17">
						<masterclipid>masterclip-17</masterclipid>
						<name>wiblo_1_2000-01-01_1155_C0079.mov</name>
						<enabled>TRUE</enabled>
						<duration>118</duration>
						<rate>
							<timebase>24</timebase>
							<ntsc>TRUE</ntsc>
						</rate>
						<start>9978</start>
						<end>10096</end>
						<in>0</in>
						<out>118</out>
						<pproTicksIn>0</pproTicksIn>
						<pproTicksOut>1250160912000</pproTicksOut>
						<alphatype>none</alphatype>
						<pixelaspectratio>square</pixelaspectratio>
						<anamorphic>FALSE</anamorphic>
						<file id="file-17">
							<name>wiblo_1_2000-01-01_1155_C0079.mov</name>
							<pathurl>file://localhost/Volumes/aqua/00_Footage/4)%20Wayuu/7-21%20magalys%20and%20healer%202/../7-21%20magalys%20and%20healer/wiblo_1_2000-01-01_1155_C0079.mov</pathurl>
							<rate>
								<timebase>24</timebase>
								<ntsc>TRUE</ntsc>
							</rate>
							<duration>118</duration>
							<timecode>
								<rate>
									<timebase>24</timebase>
									<ntsc>TRUE</ntsc>
								</rate>
								<string>11:55:22:00</string>
								<frame>1030128</frame>
								<displayformat>NDF</displayformat>
							</timecode>
							<media>
								<video>
									<samplecharacteristics>
										<rate>
											<timebase>24</timebase>
											<ntsc>TRUE</ntsc>
										</rate>
										<width>1920</width>
										<height>1080</height>
										<anamorphic>FALSE</anamorphic>
										<pixelaspectratio>square</pixelaspectratio>
										<fielddominance>none</fielddominance>
									</samplecharacteristics>
								</video>
								<audio>
									<samplecharacteristics>
										<depth>16</depth>
										<samplerate>48000</samplerate>
									</samplecharacteristics>
									<channelcount>2</channelcount>
								</audio>
							</media>
						</file>
						<logginginfo>
							<description></description>
							<scene></scene>
							<shottake></shottake>
							<lognote></lognote>
							<good></good>
							<originalvideofilename></originalvideofilename>
							<originalaudiofilename></originalaudiofilename>
						</logginginfo>
						<colorinfo>
							<lut></lut>
							<lut1></lut1>
							<asc_sop></asc_sop>
							<asc_sat></asc_sat>
							<lut2></lut2>
						</colorinfo>
						<labels>
							<label2>Iris</label2>
						</labels>
					</clipitem>
					<clipitem id="clipitem-18">
						<masterclipid>masterclip-18</masterclipid>
						<name>wiblo_1_2000-01-01_1155_C0080.mov</name>
						<enabled>TRUE</enabled>
						<duration>1854</duration>
						<rate>
							<timebase>24</timebase>
							<ntsc>TRUE</ntsc>
						</rate>
						<start>10236</start>
						<end>12090</end>
						<in>0</in>
						<out>1854</out>
						<pproTicksIn>0</pproTicksIn>
						<pproTicksOut>19642358736000</pproTicksOut>
						<alphatype>none</alphatype>
						<pixelaspectratio>square</pixelaspectratio>
						<anamorphic>FALSE</anamorphic>
						<file id="file-18">
							<name>wiblo_1_2000-01-01_1155_C0080.mov</name>
							<pathurl>file://localhost/Volumes/aqua/00_Footage/4)%20Wayuu/7-21%20magalys%20and%20healer%202/../7-21%20magalys%20and%20healer/wiblo_1_2000-01-01_1155_C0080.mov</pathurl>
							<rate>
								<timebase>24</timebase>
								<ntsc>TRUE</ntsc>
							</rate>
							<duration>1854</duration>
							<timecode>
								<rate>
									<timebase>24</timebase>
									<ntsc>TRUE</ntsc>
								</rate>
								<string>11:55:33:00</string>
								<frame>1030392</frame>
								<displayformat>NDF</displayformat>
							</timecode>
							<media>
								<video>
									<samplecharacteristics>
										<rate>
											<timebase>24</timebase>
											<ntsc>TRUE</ntsc>
										</rate>
										<width>1920</width>
										<height>1080</height>
										<anamorphic>FALSE</anamorphic>
										<pixelaspectratio>square</pixelaspectratio>
										<fielddominance>none</fielddominance>
									</samplecharacteristics>
								</video>
								<audio>
									<samplecharacteristics>
										<depth>16</depth>
										<samplerate>48000</samplerate>
									</samplecharacteristics>
									<channelcount>2</channelcount>
								</audio>
							</media>
						</file>
						<logginginfo>
							<description></description>
							<scene></scene>
							<shottake></shottake>
							<lognote></lognote>
							<good></good>
							<originalvideofilename></originalvideofilename>
							<originalaudiofilename></originalaudiofilename>
						</logginginfo>
						<colorinfo>
							<lut></lut>
							<lut1></lut1>
							<asc_sop></asc_sop>
							<asc_sat></asc_sat>
							<lut2></lut2>
						</colorinfo>
						<labels>
							<label2>Iris</label2>
						</labels>
					</clipitem>
					<clipitem id="clipitem-19">
						<masterclipid>masterclip-19</masterclipid>
						<name>wiblo_1_2000-01-01_1156_C0081.mov</name>
						<enabled>TRUE</enabled>
						<duration>1134</duration>
						<rate>
							<timebase>24</timebase>
							<ntsc>TRUE</ntsc>
						</rate>
						<start>12261</start>
						<end>13395</end>
						<in>0</in>
						<out>1134</out>
						<pproTicksIn>0</pproTicksIn>
						<pproTicksOut>12014258256000</pproTicksOut>
						<alphatype>none</alphatype>
						<pixelaspectratio>square</pixelaspectratio>
						<anamorphic>FALSE</anamorphic>
						<file id="file-19">
							<name>wiblo_1_2000-01-01_1156_C0081.mov</name>
							<pathurl>file://localhost/Volumes/aqua/00_Footage/4)%20Wayuu/7-21%20magalys%20and%20healer%202/../7-21%20magalys%20and%20healer/wiblo_1_2000-01-01_1156_C0081.mov</pathurl>
							<rate>
								<timebase>24</timebase>
								<ntsc>TRUE</ntsc>
							</rate>
							<duration>1134</duration>
							<timecode>
								<rate>
									<timebase>24</timebase>
									<ntsc>TRUE</ntsc>
								</rate>
								<string>11:56:57:00</string>
								<frame>1032408</frame>
								<displayformat>NDF</displayformat>
							</timecode>
							<media>
								<video>
									<samplecharacteristics>
										<rate>
											<timebase>24</timebase>
											<ntsc>TRUE</ntsc>
										</rate>
										<width>1920</width>
										<height>1080</height>
										<anamorphic>FALSE</anamorphic>
										<pixelaspectratio>square</pixelaspectratio>
										<fielddominance>none</fielddominance>
									</samplecharacteristics>
								</video>
								<audio>
									<samplecharacteristics>
										<depth>16</depth>
										<samplerate>48000</samplerate>
									</samplecharacteristics>
									<channelcount>2</channelcount>
								</audio>
							</media>
						</file>
						<logginginfo>
							<description></description>
							<scene></scene>
							<shottake></shottake>
							<lognote></lognote>
							<good></good>
							<originalvideofilename></originalvideofilename>
							<originalaudiofilename></originalaudiofilename>
						</logginginfo>
						<colorinfo>
							<lut></lut>
							<lut1></lut1>
							<asc_sop></asc_sop>
							<asc_sat></asc_sat>
							<lut2></lut2>
						</colorinfo>
						<labels>
							<label2>Iris</label2>
						</labels>
					</clipitem>
					<clipitem id="clipitem-20">
						<masterclipid>masterclip-20</masterclipid>
						<name>wiblo_1_2000-01-01_1157_C0082.mov</name>
						<enabled>TRUE</enabled>
						<duration>619</duration>
						<rate>
							<timebase>24</timebase>
							<ntsc>TRUE</ntsc>
						</rate>
						<start>13722</start>
						<end>14341</end>
						<in>0</in>
						<out>619</out>
						<pproTicksIn>0</pproTicksIn>
						<pproTicksOut>6558047496000</pproTicksOut>
						<alphatype>none</alphatype>
						<pixelaspectratio>square</pixelaspectratio>
						<anamorphic>FALSE</anamorphic>
						<file id="file-20">
							<name>wiblo_1_2000-01-01_1157_C0082.mov</name>
							<pathurl>file://localhost/Volumes/aqua/00_Footage/4)%20Wayuu/7-21%20magalys%20and%20healer%202/../7-21%20magalys%20and%20healer/wiblo_1_2000-01-01_1157_C0082.mov</pathurl>
							<rate>
								<timebase>24</timebase>
								<ntsc>TRUE</ntsc>
							</rate>
							<duration>619</duration>
							<timecode>
								<rate>
									<timebase>24</timebase>
									<ntsc>TRUE</ntsc>
								</rate>
								<string>11:57:58:00</string>
								<frame>1033872</frame>
								<displayformat>NDF</displayformat>
							</timecode>
							<media>
								<video>
									<samplecharacteristics>
										<rate>
											<timebase>24</timebase>
											<ntsc>TRUE</ntsc>
										</rate>
										<width>1920</width>
										<height>1080</height>
										<anamorphic>FALSE</anamorphic>
										<pixelaspectratio>square</pixelaspectratio>
										<fielddominance>none</fielddominance>
									</samplecharacteristics>
								</video>
								<audio>
									<samplecharacteristics>
										<depth>16</depth>
										<samplerate>48000</samplerate>
									</samplecharacteristics>
									<channelcount>2</channelcount>
								</audio>
							</media>
						</file>
						<logginginfo>
							<description></description>
							<scene></scene>
							<shottake></shottake>
							<lognote></lognote>
							<good></good>
							<originalvideofilename></originalvideofilename>
							<originalaudiofilename></originalaudiofilename>
						</logginginfo>
						<colorinfo>
							<lut></lut>
							<lut1></lut1>
							<asc_sop></asc_sop>
							<asc_sat></asc_sat>
							<lut2></lut2>
						</colorinfo>
						<labels>
							<label2>Iris</label2>
						</labels>
					</clipitem>
					<clipitem id="clipitem-21">
						<masterclipid>masterclip-21</masterclipid>
						<name>wiblo_1_2000-01-01_1158_C0083.mov</name>
						<enabled>TRUE</enabled>
						<duration>461</duration>
						<rate>
							<timebase>24</timebase>
							<ntsc>TRUE</ntsc>
						</rate>
						<start>14552</start>
						<end>15013</end>
						<in>0</in>
						<out>461</out>
						<pproTicksIn>0</pproTicksIn>
						<pproTicksOut>4884103224000</pproTicksOut>
						<alphatype>none</alphatype>
						<pixelaspectratio>square</pixelaspectratio>
						<anamorphic>FALSE</anamorphic>
						<file id="file-21">
							<name>wiblo_1_2000-01-01_1158_C0083.mov</name>
							<pathurl>file://localhost/Volumes/aqua/00_Footage/4)%20Wayuu/7-21%20magalys%20and%20healer%202/../7-21%20magalys%20and%20healer/wiblo_1_2000-01-01_1158_C0083.mov</pathurl>
							<rate>
								<timebase>24</timebase>
								<ntsc>TRUE</ntsc>
							</rate>
							<duration>461</duration>
							<timecode>
								<rate>
									<timebase>24</timebase>
									<ntsc>TRUE</ntsc>
								</rate>
								<string>11:58:33:00</string>
								<frame>1034712</frame>
								<displayformat>NDF</displayformat>
							</timecode>
							<media>
								<video>
									<samplecharacteristics>
										<rate>
											<timebase>24</timebase>
											<ntsc>TRUE</ntsc>
										</rate>
										<width>1920</width>
										<height>1080</height>
										<anamorphic>FALSE</anamorphic>
										<pixelaspectratio>square</pixelaspectratio>
										<fielddominance>none</fielddominance>
									</samplecharacteristics>
								</video>
								<audio>
									<samplecharacteristics>
										<depth>16</depth>
										<samplerate>48000</samplerate>
									</samplecharacteristics>
									<channelcount>2</channelcount>
								</audio>
							</media>
						</file>
						<logginginfo>
							<description></description>
							<scene></scene>
							<shottake></shottake>
							<lognote></lognote>
							<good></good>
							<originalvideofilename></originalvideofilename>
							<originalaudiofilename></originalaudiofilename>
						</logginginfo>
						<colorinfo>
							<lut></lut>
							<lut1></lut1>
							<asc_sop></asc_sop>
							<asc_sat></asc_sat>
							<lut2></lut2>
						</colorinfo>
						<labels>
							<label2>Iris</label2>
						</labels>
					</clipitem>
					<clipitem id="clipitem-22">
						<masterclipid>masterclip-22</masterclipid>
						<name>wiblo_1_2000-01-01_1159_C0084.mov</name>
						<enabled>TRUE</enabled>
						<duration>2578</duration>
						<rate>
							<timebase>24</timebase>
							<ntsc>TRUE</ntsc>
						</rate>
						<start>15755</start>
						<end>18333</end>
						<in>0</in>
						<out>2578</out>
						<pproTicksIn>0</pproTicksIn>
						<pproTicksOut>27312837552000</pproTicksOut>
						<alphatype>none</alphatype>
						<pixelaspectratio>square</pixelaspectratio>
						<anamorphic>FALSE</anamorphic>
						<file id="file-22">
							<name>wiblo_1_2000-01-01_1159_C0084.mov</name>
							<pathurl>file://localhost/Volumes/aqua/00_Footage/4)%20Wayuu/7-21%20magalys%20and%20healer%202/../7-21%20magalys%20and%20healer/wiblo_1_2000-01-01_1159_C0084.mov</pathurl>
							<rate>
								<timebase>24</timebase>
								<ntsc>TRUE</ntsc>
							</rate>
							<duration>2578</duration>
							<timecode>
								<rate>
									<timebase>24</timebase>
									<ntsc>TRUE</ntsc>
								</rate>
								<string>11:59:23:00</string>
								<frame>1035912</frame>
								<displayformat>NDF</displayformat>
							</timecode>
							<media>
								<video>
									<samplecharacteristics>
										<rate>
											<timebase>24</timebase>
											<ntsc>TRUE</ntsc>
										</rate>
										<width>1920</width>
										<height>1080</height>
										<anamorphic>FALSE</anamorphic>
										<pixelaspectratio>square</pixelaspectratio>
										<fielddominance>none</fielddominance>
									</samplecharacteristics>
								</video>
								<audio>
									<samplecharacteristics>
										<depth>16</depth>
										<samplerate>48000</samplerate>
									</samplecharacteristics>
									<channelcount>2</channelcount>
								</audio>
							</media>
						</file>
						<logginginfo>
							<description></description>
							<scene></scene>
							<shottake></shottake>
							<lognote></lognote>
							<good></good>
							<originalvideofilename></originalvideofilename>
							<originalaudiofilename></originalaudiofilename>
						</logginginfo>
						<colorinfo>
							<lut></lut>
							<lut1></lut1>
							<asc_sop></asc_sop>
							<asc_sat></asc_sat>
							<lut2></lut2>
						</colorinfo>
						<labels>
							<label2>Iris</label2>
						</labels>
					</clipitem>
					<clipitem id="clipitem-23">
						<masterclipid>masterclip-23</masterclipid>
						<name>wiblo_1_2000-01-01_1201_C0085.mov</name>
						<enabled>TRUE</enabled>
						<duration>1678</duration>
						<rate>
							<timebase>24</timebase>
							<ntsc>TRUE</ntsc>
						</rate>
						<start>18468</start>
						<end>20146</end>
						<in>0</in>
						<out>1678</out>
						<pproTicksIn>0</pproTicksIn>
						<pproTicksOut>17777711952000</pproTicksOut>
						<alphatype>none</alphatype>
						<pixelaspectratio>square</pixelaspectratio>
						<anamorphic>FALSE</anamorphic>
						<file id="file-23">
							<name>wiblo_1_2000-01-01_1201_C0085.mov</name>
							<pathurl>file://localhost/Volumes/aqua/00_Footage/4)%20Wayuu/7-21%20magalys%20and%20healer%202/../7-21%20magalys%20and%20healer/wiblo_1_2000-01-01_1201_C0085.mov</pathurl>
							<rate>
								<timebase>24</timebase>
								<ntsc>TRUE</ntsc>
							</rate>
							<duration>1678</duration>
							<timecode>
								<rate>
									<timebase>24</timebase>
									<ntsc>TRUE</ntsc>
								</rate>
								<string>12:01:16:00</string>
								<frame>1038624</frame>
								<displayformat>NDF</displayformat>
							</timecode>
							<media>
								<video>
									<samplecharacteristics>
										<rate>
											<timebase>24</timebase>
											<ntsc>TRUE</ntsc>
										</rate>
										<width>1920</width>
										<height>1080</height>
										<anamorphic>FALSE</anamorphic>
										<pixelaspectratio>square</pixelaspectratio>
										<fielddominance>none</fielddominance>
									</samplecharacteristics>
								</video>
								<audio>
									<samplecharacteristics>
										<depth>16</depth>
										<samplerate>48000</samplerate>
									</samplecharacteristics>
									<channelcount>2</channelcount>
								</audio>
							</media>
						</file>
						<logginginfo>
							<description></description>
							<scene></scene>
							<shottake></shottake>
							<lognote></lognote>
							<good></good>
							<originalvideofilename></originalvideofilename>
							<originalaudiofilename></originalaudiofilename>
						</logginginfo>
						<colorinfo>
							<lut></lut>
							<lut1></lut1>
							<asc_sop></asc_sop>
							<asc_sat></asc_sat>
							<lut2></lut2>
						</colorinfo>
						<labels>
							<label2>Iris</label2>
						</labels>
					</clipitem>
					<clipitem id="clipitem-24">
						<masterclipid>masterclip-24</masterclipid>
						<name>wiblo_1_2000-01-01_1202_C0086.mov</name>
						<enabled>TRUE</enabled>
						<duration>156</duration>
						<rate>
							<timebase>24</timebase>
							<ntsc>TRUE</ntsc>
						</rate>
						<start>20721</start>
						<end>20877</end>
						<in>0</in>
						<out>156</out>
						<pproTicksIn>0</pproTicksIn>
						<pproTicksOut>1652755104000</pproTicksOut>
						<alphatype>none</alphatype>
						<pixelaspectratio>square</pixelaspectratio>
						<anamorphic>FALSE</anamorphic>
						<file id="file-24">
							<name>wiblo_1_2000-01-01_1202_C0086.mov</name>
							<pathurl>file://localhost/Volumes/aqua/00_Footage/4)%20Wayuu/7-21%20magalys%20and%20healer%202/../7-21%20magalys%20and%20healer/wiblo_1_2000-01-01_1202_C0086.mov</pathurl>
							<rate>
								<timebase>24</timebase>
								<ntsc>TRUE</ntsc>
							</rate>
							<duration>156</duration>
							<timecode>
								<rate>
									<timebase>24</timebase>
									<ntsc>TRUE</ntsc>
								</rate>
								<string>12:02:50:00</string>
								<frame>1040880</frame>
								<displayformat>NDF</displayformat>
							</timecode>
							<media>
								<video>
									<samplecharacteristics>
										<rate>
											<timebase>24</timebase>
											<ntsc>TRUE</ntsc>
										</rate>
										<width>1920</width>
										<height>1080</height>
										<anamorphic>FALSE</anamorphic>
										<pixelaspectratio>square</pixelaspectratio>
										<fielddominance>none</fielddominance>
									</samplecharacteristics>
								</video>
								<audio>
									<samplecharacteristics>
										<depth>16</depth>
										<samplerate>48000</samplerate>
									</samplecharacteristics>
									<channelcount>2</channelcount>
								</audio>
							</media>
						</file>
						<logginginfo>
							<description></description>
							<scene></scene>
							<shottake></shottake>
							<lognote></lognote>
							<good></good>
							<originalvideofilename></originalvideofilename>
							<originalaudiofilename></originalaudiofilename>
						</logginginfo>
						<colorinfo>
							<lut></lut>
							<lut1></lut1>
							<asc_sop></asc_sop>
							<asc_sat></asc_sat>
							<lut2></lut2>
						</colorinfo>
						<labels>
							<label2>Rose</label2>
						</labels>
					</clipitem>
					<clipitem id="clipitem-25">
						<masterclipid>masterclip-25</masterclipid>
						<name>wiblo_1_2000-01-01_1203_C0087.mov</name>
						<enabled>TRUE</enabled>
						<duration>1245</duration>
						<rate>
							<timebase>24</timebase>
							<ntsc>TRUE</ntsc>
						</rate>
						<start>20957</start>
						<end>22202</end>
						<in>0</in>
						<out>1245</out>
						<pproTicksIn>0</pproTicksIn>
						<pproTicksOut>13190257080000</pproTicksOut>
						<alphatype>none</alphatype>
						<pixelaspectratio>square</pixelaspectratio>
						<anamorphic>FALSE</anamorphic>
						<file id="file-25">
							<name>wiblo_1_2000-01-01_1203_C0087.mov</name>
							<pathurl>file://localhost/Volumes/aqua/00_Footage/4)%20Wayuu/7-21%20magalys%20and%20healer%202/../7-21%20magalys%20and%20healer/wiblo_1_2000-01-01_1203_C0087.mov</pathurl>
							<rate>
								<timebase>24</timebase>
								<ntsc>TRUE</ntsc>
							</rate>
							<duration>1245</duration>
							<timecode>
								<rate>
									<timebase>24</timebase>
									<ntsc>TRUE</ntsc>
								</rate>
								<string>12:03:00:00</string>
								<frame>1041120</frame>
								<displayformat>NDF</displayformat>
							</timecode>
							<media>
								<video>
									<samplecharacteristics>
										<rate>
											<timebase>24</timebase>
											<ntsc>TRUE</ntsc>
										</rate>
										<width>1920</width>
										<height>1080</height>
										<anamorphic>FALSE</anamorphic>
										<pixelaspectratio>square</pixelaspectratio>
										<fielddominance>none</fielddominance>
									</samplecharacteristics>
								</video>
								<audio>
									<samplecharacteristics>
										<depth>16</depth>
										<samplerate>48000</samplerate>
									</samplecharacteristics>
									<channelcount>2</channelcount>
								</audio>
							</media>
						</file>
						<logginginfo>
							<description></description>
							<scene></scene>
							<shottake></shottake>
							<lognote></lognote>
							<good></good>
							<originalvideofilename></originalvideofilename>
							<originalaudiofilename></originalaudiofilename>
						</logginginfo>
						<colorinfo>
							<lut></lut>
							<lut1></lut1>
							<asc_sop></asc_sop>
							<asc_sat></asc_sat>
							<lut2></lut2>
						</colorinfo>
						<labels>
							<label2>Iris</label2>
						</labels>
					</clipitem>
					<clipitem id="clipitem-26">
						<masterclipid>masterclip-26</masterclipid>
						<name>wiblo_1_2000-01-01_1203_C0088.mov</name>
						<enabled>TRUE</enabled>
						<duration>142</duration>
						<rate>
							<timebase>24</timebase>
							<ntsc>TRUE</ntsc>
						</rate>
						<start>22263</start>
						<end>22405</end>
						<in>0</in>
						<out>142</out>
						<pproTicksIn>0</pproTicksIn>
						<pproTicksOut>1504430928000</pproTicksOut>
						<alphatype>none</alphatype>
						<pixelaspectratio>square</pixelaspectratio>
						<anamorphic>FALSE</anamorphic>
						<file id="file-26">
							<name>wiblo_1_2000-01-01_1203_C0088.mov</name>
							<pathurl>file://localhost/Volumes/aqua/00_Footage/4)%20Wayuu/7-21%20magalys%20and%20healer%202/../7-21%20magalys%20and%20healer/wiblo_1_2000-01-01_1203_C0088.mov</pathurl>
							<rate>
								<timebase>24</timebase>
								<ntsc>TRUE</ntsc>
							</rate>
							<duration>142</duration>
							<timecode>
								<rate>
									<timebase>24</timebase>
									<ntsc>TRUE</ntsc>
								</rate>
								<string>12:03:54:00</string>
								<frame>1042416</frame>
								<displayformat>NDF</displayformat>
							</timecode>
							<media>
								<video>
									<samplecharacteristics>
										<rate>
											<timebase>24</timebase>
											<ntsc>TRUE</ntsc>
										</rate>
										<width>1920</width>
										<height>1080</height>
										<anamorphic>FALSE</anamorphic>
										<pixelaspectratio>square</pixelaspectratio>
										<fielddominance>none</fielddominance>
									</samplecharacteristics>
								</video>
								<audio>
									<samplecharacteristics>
										<depth>16</depth>
										<samplerate>48000</samplerate>
									</samplecharacteristics>
									<channelcount>2</channelcount>
								</audio>
							</media>
						</file>
						<logginginfo>
							<description></description>
							<scene></scene>
							<shottake></shottake>
							<lognote></lognote>
							<good></good>
							<originalvideofilename></originalvideofilename>
							<originalaudiofilename></originalaudiofilename>
						</logginginfo>
						<colorinfo>
							<lut></lut>
							<lut1></lut1>
							<asc_sop></asc_sop>
							<asc_sat></asc_sat>
							<lut2></lut2>
						</colorinfo>
						<labels>
							<label2>Iris</label2>
						</labels>
					</clipitem>
					<clipitem id="clipitem-27">
						<masterclipid>masterclip-27</masterclipid>
						<name>wiblo_1_2000-01-01_1204_C0089.mov</name>
						<enabled>TRUE</enabled>
						<duration>1096</duration>
						<rate>
							<timebase>24</timebase>
							<ntsc>TRUE</ntsc>
						</rate>
						<start>22599</start>
						<end>23695</end>
						<in>0</in>
						<out>1096</out>
						<pproTicksIn>0</pproTicksIn>
						<pproTicksOut>11611664064000</pproTicksOut>
						<alphatype>none</alphatype>
						<pixelaspectratio>square</pixelaspectratio>
						<anamorphic>FALSE</anamorphic>
						<file id="file-27">
							<name>wiblo_1_2000-01-01_1204_C0089.mov</name>
							<pathurl>file://localhost/Volumes/aqua/00_Footage/4)%20Wayuu/7-21%20magalys%20and%20healer%202/../7-21%20magalys%20and%20healer/wiblo_1_2000-01-01_1204_C0089.mov</pathurl>
							<rate>
								<timebase>24</timebase>
								<ntsc>TRUE</ntsc>
							</rate>
							<duration>1096</duration>
							<timecode>
								<rate>
									<timebase>24</timebase>
									<ntsc>TRUE</ntsc>
								</rate>
								<string>12:04:08:00</string>
								<frame>1042752</frame>
								<displayformat>NDF</displayformat>
							</timecode>
							<media>
								<video>
									<samplecharacteristics>
										<rate>
											<timebase>24</timebase>
											<ntsc>TRUE</ntsc>
										</rate>
										<width>1920</width>
										<height>1080</height>
										<anamorphic>FALSE</anamorphic>
										<pixelaspectratio>square</pixelaspectratio>
										<fielddominance>none</fielddominance>
									</samplecharacteristics>
								</video>
								<audio>
									<samplecharacteristics>
										<depth>16</depth>
										<samplerate>48000</samplerate>
									</samplecharacteristics>
									<channelcount>2</channelcount>
								</audio>
							</media>
						</file>
						<logginginfo>
							<description></description>
							<scene></scene>
							<shottake></shottake>
							<lognote></lognote>
							<good></good>
							<originalvideofilename></originalvideofilename>
							<originalaudiofilename></originalaudiofilename>
						</logginginfo>
						<colorinfo>
							<lut></lut>
							<lut1></lut1>
							<asc_sop></asc_sop>
							<asc_sat></asc_sat>
							<lut2></lut2>
						</colorinfo>
						<labels>
							<label2>Rose</label2>
						</labels>
					</clipitem>
					<clipitem id="clipitem-28">
						<masterclipid>masterclip-28</masterclipid>
						<name>wiblo_1_2000-01-01_1205_C0090.mov</name>
						<enabled>TRUE</enabled>
						<duration>317</duration>
						<rate>
							<timebase>24</timebase>
							<ntsc>TRUE</ntsc>
						</rate>
						<start>24878</start>
						<end>25195</end>
						<in>0</in>
						<out>317</out>
						<pproTicksIn>0</pproTicksIn>
						<pproTicksOut>3358483128000</pproTicksOut>
						<alphatype>none</alphatype>
						<pixelaspectratio>square</pixelaspectratio>
						<anamorphic>FALSE</anamorphic>
						<file id="file-28">
							<name>wiblo_1_2000-01-01_1205_C0090.mov</name>
							<pathurl>file://localhost/Volumes/aqua/00_Footage/4)%20Wayuu/7-21%20magalys%20and%20healer%202/../7-21%20magalys%20and%20healer/wiblo_1_2000-01-01_1205_C0090.mov</pathurl>
							<rate>
								<timebase>24</timebase>
								<ntsc>TRUE</ntsc>
							</rate>
							<duration>317</duration>
							<timecode>
								<rate>
									<timebase>24</timebase>
									<ntsc>TRUE</ntsc>
								</rate>
								<string>12:05:44:00</string>
								<frame>1045056</frame>
								<displayformat>NDF</displayformat>
							</timecode>
							<media>
								<video>
									<samplecharacteristics>
										<rate>
											<timebase>24</timebase>
											<ntsc>TRUE</ntsc>
										</rate>
										<width>1920</width>
										<height>1080</height>
										<anamorphic>FALSE</anamorphic>
										<pixelaspectratio>square</pixelaspectratio>
										<fielddominance>none</fielddominance>
									</samplecharacteristics>
								</video>
								<audio>
									<samplecharacteristics>
										<depth>16</depth>
										<samplerate>48000</samplerate>
									</samplecharacteristics>
									<channelcount>2</channelcount>
								</audio>
							</media>
						</file>
						<logginginfo>
							<description></description>
							<scene></scene>
							<shottake></shottake>
							<lognote></lognote>
							<good></good>
							<originalvideofilename></originalvideofilename>
							<originalaudiofilename></originalaudiofilename>
						</logginginfo>
						<colorinfo>
							<lut></lut>
							<lut1></lut1>
							<asc_sop></asc_sop>
							<asc_sat></asc_sat>
							<lut2></lut2>
						</colorinfo>
						<labels>
							<label2>Iris</label2>
						</labels>
					</clipitem>
					<clipitem id="clipitem-29">
						<masterclipid>masterclip-29</masterclipid>
						<name>wiblo_1_2000-01-01_1206_C0091.mov</name>
						<enabled>TRUE</enabled>
						<duration>86</duration>
						<rate>
							<timebase>24</timebase>
							<ntsc>TRUE</ntsc>
						</rate>
						<start>25296</start>
						<end>25382</end>
						<in>0</in>
						<out>86</out>
						<pproTicksIn>0</pproTicksIn>
						<pproTicksOut>911134224000</pproTicksOut>
						<alphatype>none</alphatype>
						<pixelaspectratio>square</pixelaspectratio>
						<anamorphic>FALSE</anamorphic>
						<file id="file-29">
							<name>wiblo_1_2000-01-01_1206_C0091.mov</name>
							<pathurl>file://localhost/Volumes/aqua/00_Footage/4)%20Wayuu/7-21%20magalys%20and%20healer%202/../7-21%20magalys%20and%20healer/wiblo_1_2000-01-01_1206_C0091.mov</pathurl>
							<rate>
								<timebase>24</timebase>
								<ntsc>TRUE</ntsc>
							</rate>
							<duration>86</duration>
							<timecode>
								<rate>
									<timebase>24</timebase>
									<ntsc>TRUE</ntsc>
								</rate>
								<string>12:06:01:00</string>
								<frame>1045464</frame>
								<displayformat>NDF</displayformat>
							</timecode>
							<media>
								<video>
									<samplecharacteristics>
										<rate>
											<timebase>24</timebase>
											<ntsc>TRUE</ntsc>
										</rate>
										<width>1920</width>
										<height>1080</height>
										<anamorphic>FALSE</anamorphic>
										<pixelaspectratio>square</pixelaspectratio>
										<fielddominance>none</fielddominance>
									</samplecharacteristics>
								</video>
								<audio>
									<samplecharacteristics>
										<depth>16</depth>
										<samplerate>48000</samplerate>
									</samplecharacteristics>
									<channelcount>2</channelcount>
								</audio>
							</media>
						</file>
						<logginginfo>
							<description></description>
							<scene></scene>
							<shottake></shottake>
							<lognote></lognote>
							<good></good>
							<originalvideofilename></originalvideofilename>
							<originalaudiofilename></originalaudiofilename>
						</logginginfo>
						<colorinfo>
							<lut></lut>
							<lut1></lut1>
							<asc_sop></asc_sop>
							<asc_sat></asc_sat>
							<lut2></lut2>
						</colorinfo>
						<labels>
							<label2>Iris</label2>
						</labels>
					</clipitem>
					<clipitem id="clipitem-30">
						<masterclipid>masterclip-30</masterclipid>
						<name>wiblo_1_2000-01-01_1206_C0092.mov</name>
						<enabled>TRUE</enabled>
						<duration>632</duration>
						<rate>
							<timebase>24</timebase>
							<ntsc>TRUE</ntsc>
						</rate>
						<start>25542</start>
						<end>26174</end>
						<in>0</in>
						<out>632</out>
						<pproTicksIn>0</pproTicksIn>
						<pproTicksOut>6695777088000</pproTicksOut>
						<alphatype>none</alphatype>
						<pixelaspectratio>square</pixelaspectratio>
						<anamorphic>FALSE</anamorphic>
						<file id="file-30">
							<name>wiblo_1_2000-01-01_1206_C0092.mov</name>
							<pathurl>file://localhost/Volumes/aqua/00_Footage/4)%20Wayuu/7-21%20magalys%20and%20healer%202/../7-21%20magalys%20and%20healer/wiblo_1_2000-01-01_1206_C0092.mov</pathurl>
							<rate>
								<timebase>24</timebase>
								<ntsc>TRUE</ntsc>
							</rate>
							<duration>632</duration>
							<timecode>
								<rate>
									<timebase>24</timebase>
									<ntsc>TRUE</ntsc>
								</rate>
								<string>12:06:11:00</string>
								<frame>1045704</frame>
								<displayformat>NDF</displayformat>
							</timecode>
							<media>
								<video>
									<samplecharacteristics>
										<rate>
											<timebase>24</timebase>
											<ntsc>TRUE</ntsc>
										</rate>
										<width>1920</width>
										<height>1080</height>
										<anamorphic>FALSE</anamorphic>
										<pixelaspectratio>square</pixelaspectratio>
										<fielddominance>none</fielddominance>
									</samplecharacteristics>
								</video>
								<audio>
									<samplecharacteristics>
										<depth>16</depth>
										<samplerate>48000</samplerate>
									</samplecharacteristics>
									<channelcount>2</channelcount>
								</audio>
							</media>
						</file>
						<logginginfo>
							<description></description>
							<scene></scene>
							<shottake></shottake>
							<lognote></lognote>
							<good></good>
							<originalvideofilename></originalvideofilename>
							<originalaudiofilename></originalaudiofilename>
						</logginginfo>
						<colorinfo>
							<lut></lut>
							<lut1></lut1>
							<asc_sop></asc_sop>
							<asc_sat></asc_sat>
							<lut2></lut2>
						</colorinfo>
						<labels>
							<label2>Iris</label2>
						</labels>
					</clipitem>
					<clipitem id="clipitem-31">
						<masterclipid>masterclip-31</masterclipid>
						<name>wiblo_1_2000-01-01_1206_C0093.mov</name>
						<enabled>TRUE</enabled>
						<duration>291</duration>
						<rate>
							<timebase>24</timebase>
							<ntsc>TRUE</ntsc>
						</rate>
						<start>26388</start>
						<end>26679</end>
						<in>0</in>
						<out>291</out>
						<pproTicksIn>0</pproTicksIn>
						<pproTicksOut>3083023944000</pproTicksOut>
						<alphatype>none</alphatype>
						<pixelaspectratio>square</pixelaspectratio>
						<anamorphic>FALSE</anamorphic>
						<file id="file-31">
							<name>wiblo_1_2000-01-01_1206_C0093.mov</name>
							<pathurl>file://localhost/Volumes/aqua/00_Footage/4)%20Wayuu/7-21%20magalys%20and%20healer%202/../7-21%20magalys%20and%20healer/wiblo_1_2000-01-01_1206_C0093.mov</pathurl>
							<rate>
								<timebase>24</timebase>
								<ntsc>TRUE</ntsc>
							</rate>
							<duration>291</duration>
							<timecode>
								<rate>
									<timebase>24</timebase>
									<ntsc>TRUE</ntsc>
								</rate>
								<string>12:06:47:00</string>
								<frame>1046568</frame>
								<displayformat>NDF</displayformat>
							</timecode>
							<media>
								<video>
									<samplecharacteristics>
										<rate>
											<timebase>24</timebase>
											<ntsc>TRUE</ntsc>
										</rate>
										<width>1920</width>
										<height>1080</height>
										<anamorphic>FALSE</anamorphic>
										<pixelaspectratio>square</pixelaspectratio>
										<fielddominance>none</fielddominance>
									</samplecharacteristics>
								</video>
								<audio>
									<samplecharacteristics>
										<depth>16</depth>
										<samplerate>48000</samplerate>
									</samplecharacteristics>
									<channelcount>2</channelcount>
								</audio>
							</media>
						</file>
						<logginginfo>
							<description></description>
							<scene></scene>
							<shottake></shottake>
							<lognote></lognote>
							<good></good>
							<originalvideofilename></originalvideofilename>
							<originalaudiofilename></originalaudiofilename>
						</logginginfo>
						<colorinfo>
							<lut></lut>
							<lut1></lut1>
							<asc_sop></asc_sop>
							<asc_sat></asc_sat>
							<lut2></lut2>
						</colorinfo>
						<labels>
							<label2>Iris</label2>
						</labels>
					</clipitem>
					<clipitem id="clipitem-32">
						<masterclipid>masterclip-32</masterclipid>
						<name>wiblo_1_2000-01-01_1207_C0094.mov</name>
						<enabled>TRUE</enabled>
						<duration>1316</duration>
						<rate>
							<timebase>24</timebase>
							<ntsc>TRUE</ntsc>
						</rate>
						<start>27110</start>
						<end>28426</end>
						<in>0</in>
						<out>1316</out>
						<pproTicksIn>0</pproTicksIn>
						<pproTicksOut>13942472544000</pproTicksOut>
						<alphatype>none</alphatype>
						<pixelaspectratio>square</pixelaspectratio>
						<anamorphic>FALSE</anamorphic>
						<file id="file-32">
							<name>wiblo_1_2000-01-01_1207_C0094.mov</name>
							<pathurl>file://localhost/Volumes/aqua/00_Footage/4)%20Wayuu/7-21%20magalys%20and%20healer%202/../7-21%20magalys%20and%20healer/wiblo_1_2000-01-01_1207_C0094.mov</pathurl>
							<rate>
								<timebase>24</timebase>
								<ntsc>TRUE</ntsc>
							</rate>
							<duration>1316</duration>
							<timecode>
								<rate>
									<timebase>24</timebase>
									<ntsc>TRUE</ntsc>
								</rate>
								<string>12:07:17:00</string>
								<frame>1047288</frame>
								<displayformat>NDF</displayformat>
							</timecode>
							<media>
								<video>
									<samplecharacteristics>
										<rate>
											<timebase>24</timebase>
											<ntsc>TRUE</ntsc>
										</rate>
										<width>1920</width>
										<height>1080</height>
										<anamorphic>FALSE</anamorphic>
										<pixelaspectratio>square</pixelaspectratio>
										<fielddominance>none</fielddominance>
									</samplecharacteristics>
								</video>
								<audio>
									<samplecharacteristics>
										<depth>16</depth>
										<samplerate>48000</samplerate>
									</samplecharacteristics>
									<channelcount>2</channelcount>
								</audio>
							</media>
						</file>
						<logginginfo>
							<description></description>
							<scene></scene>
							<shottake></shottake>
							<lognote></lognote>
							<good></good>
							<originalvideofilename></originalvideofilename>
							<originalaudiofilename></originalaudiofilename>
						</logginginfo>
						<colorinfo>
							<lut></lut>
							<lut1></lut1>
							<asc_sop></asc_sop>
							<asc_sat></asc_sat>
							<lut2></lut2>
						</colorinfo>
						<labels>
							<label2>Iris</label2>
						</labels>
					</clipitem>
					<clipitem id="clipitem-33">
						<masterclipid>masterclip-33</masterclipid>
						<name>wiblo_1_2000-01-01_1208_C0095.mov</name>
						<enabled>TRUE</enabled>
						<duration>501</duration>
						<rate>
							<timebase>24</timebase>
							<ntsc>TRUE</ntsc>
						</rate>
						<start>28700</start>
						<end>29201</end>
						<in>0</in>
						<out>501</out>
						<pproTicksIn>0</pproTicksIn>
						<pproTicksOut>5307886584000</pproTicksOut>
						<alphatype>none</alphatype>
						<pixelaspectratio>square</pixelaspectratio>
						<anamorphic>FALSE</anamorphic>
						<file id="file-33">
							<name>wiblo_1_2000-01-01_1208_C0095.mov</name>
							<pathurl>file://localhost/Volumes/aqua/00_Footage/4)%20Wayuu/7-21%20magalys%20and%20healer%202/../7-21%20magalys%20and%20healer/wiblo_1_2000-01-01_1208_C0095.mov</pathurl>
							<rate>
								<timebase>24</timebase>
								<ntsc>TRUE</ntsc>
							</rate>
							<duration>501</duration>
							<timecode>
								<rate>
									<timebase>24</timebase>
									<ntsc>TRUE</ntsc>
								</rate>
								<string>12:08:23:00</string>
								<frame>1048872</frame>
								<displayformat>NDF</displayformat>
							</timecode>
							<media>
								<video>
									<samplecharacteristics>
										<rate>
											<timebase>24</timebase>
											<ntsc>TRUE</ntsc>
										</rate>
										<width>1920</width>
										<height>1080</height>
										<anamorphic>FALSE</anamorphic>
										<pixelaspectratio>square</pixelaspectratio>
										<fielddominance>none</fielddominance>
									</samplecharacteristics>
								</video>
								<audio>
									<samplecharacteristics>
										<depth>16</depth>
										<samplerate>48000</samplerate>
									</samplecharacteristics>
									<channelcount>2</channelcount>
								</audio>
							</media>
						</file>
						<logginginfo>
							<description></description>
							<scene></scene>
							<shottake></shottake>
							<lognote></lognote>
							<good></good>
							<originalvideofilename></originalvideofilename>
							<originalaudiofilename></originalaudiofilename>
						</logginginfo>
						<colorinfo>
							<lut></lut>
							<lut1></lut1>
							<asc_sop></asc_sop>
							<asc_sat></asc_sat>
							<lut2></lut2>
						</colorinfo>
						<labels>
							<label2>Iris</label2>
						</labels>
					</clipitem>
					<clipitem id="clipitem-34">
						<masterclipid>masterclip-34</masterclipid>
						<name>wiblo_1_2000-01-01_1209_C0096.mov</name>
						<enabled>TRUE</enabled>
						<duration>362</duration>
						<rate>
							<timebase>24</timebase>
							<ntsc>TRUE</ntsc>
						</rate>
						<start>29667</start>
						<end>30029</end>
						<in>0</in>
						<out>362</out>
						<pproTicksIn>0</pproTicksIn>
						<pproTicksOut>3835239408000</pproTicksOut>
						<alphatype>none</alphatype>
						<pixelaspectratio>square</pixelaspectratio>
						<anamorphic>FALSE</anamorphic>
						<file id="file-34">
							<name>wiblo_1_2000-01-01_1209_C0096.mov</name>
							<pathurl>file://localhost/Volumes/aqua/00_Footage/4)%20Wayuu/7-21%20magalys%20and%20healer%202/../7-21%20magalys%20and%20healer/wiblo_1_2000-01-01_1209_C0096.mov</pathurl>
							<rate>
								<timebase>24</timebase>
								<ntsc>TRUE</ntsc>
							</rate>
							<duration>362</duration>
							<timecode>
								<rate>
									<timebase>24</timebase>
									<ntsc>TRUE</ntsc>
								</rate>
								<string>12:09:03:00</string>
								<frame>1049832</frame>
								<displayformat>NDF</displayformat>
							</timecode>
							<media>
								<video>
									<samplecharacteristics>
										<rate>
											<timebase>24</timebase>
											<ntsc>TRUE</ntsc>
										</rate>
										<width>1920</width>
										<height>1080</height>
										<anamorphic>FALSE</anamorphic>
										<pixelaspectratio>square</pixelaspectratio>
										<fielddominance>none</fielddominance>
									</samplecharacteristics>
								</video>
								<audio>
									<samplecharacteristics>
										<depth>16</depth>
										<samplerate>48000</samplerate>
									</samplecharacteristics>
									<channelcount>2</channelcount>
								</audio>
							</media>
						</file>
						<logginginfo>
							<description></description>
							<scene></scene>
							<shottake></shottake>
							<lognote></lognote>
							<good></good>
							<originalvideofilename></originalvideofilename>
							<originalaudiofilename></originalaudiofilename>
						</logginginfo>
						<colorinfo>
							<lut></lut>
							<lut1></lut1>
							<asc_sop></asc_sop>
							<asc_sat></asc_sat>
							<lut2></lut2>
						</colorinfo>
						<labels>
							<label2>Iris</label2>
						</labels>
					</clipitem>
					<clipitem id="clipitem-35">
						<masterclipid>masterclip-35</masterclipid>
						<name>wiblo_1_2000-01-01_1210_C0097.mov</name>
						<enabled>TRUE</enabled>
						<duration>175</duration>
						<rate>
							<timebase>24</timebase>
							<ntsc>TRUE</ntsc>
						</rate>
						<start>31043</start>
						<end>31218</end>
						<in>0</in>
						<out>175</out>
						<pproTicksIn>0</pproTicksIn>
						<pproTicksOut>1854052200000</pproTicksOut>
						<alphatype>none</alphatype>
						<pixelaspectratio>square</pixelaspectratio>
						<anamorphic>FALSE</anamorphic>
						<file id="file-35">
							<name>wiblo_1_2000-01-01_1210_C0097.mov</name>
							<pathurl>file://localhost/Volumes/aqua/00_Footage/4)%20Wayuu/7-21%20magalys%20and%20healer%202/../7-21%20magalys%20and%20healer/wiblo_1_2000-01-01_1210_C0097.mov</pathurl>
							<rate>
								<timebase>24</timebase>
								<ntsc>TRUE</ntsc>
							</rate>
							<duration>175</duration>
							<timecode>
								<rate>
									<timebase>24</timebase>
									<ntsc>TRUE</ntsc>
								</rate>
								<string>12:10:01:00</string>
								<frame>1051224</frame>
								<displayformat>NDF</displayformat>
							</timecode>
							<media>
								<video>
									<samplecharacteristics>
										<rate>
											<timebase>24</timebase>
											<ntsc>TRUE</ntsc>
										</rate>
										<width>1920</width>
										<height>1080</height>
										<anamorphic>FALSE</anamorphic>
										<pixelaspectratio>square</pixelaspectratio>
										<fielddominance>none</fielddominance>
									</samplecharacteristics>
								</video>
								<audio>
									<samplecharacteristics>
										<depth>16</depth>
										<samplerate>48000</samplerate>
									</samplecharacteristics>
									<channelcount>2</channelcount>
								</audio>
							</media>
						</file>
						<logginginfo>
							<description></description>
							<scene></scene>
							<shottake></shottake>
							<lognote></lognote>
							<good></good>
							<originalvideofilename></originalvideofilename>
							<originalaudiofilename></originalaudiofilename>
						</logginginfo>
						<colorinfo>
							<lut></lut>
							<lut1></lut1>
							<asc_sop></asc_sop>
							<asc_sat></asc_sat>
							<lut2></lut2>
						</colorinfo>
						<labels>
							<label2>Iris</label2>
						</labels>
					</clipitem>
					<clipitem id="clipitem-36">
						<masterclipid>masterclip-36</masterclipid>
						<name>wiblo_1_2000-01-01_1210_C0098.mov</name>
						<enabled>TRUE</enabled>
						<duration>477</duration>
						<rate>
							<timebase>24</timebase>
							<ntsc>TRUE</ntsc>
						</rate>
						<start>31464</start>
						<end>31941</end>
						<in>0</in>
						<out>477</out>
						<pproTicksIn>0</pproTicksIn>
						<pproTicksOut>5053616568000</pproTicksOut>
						<alphatype>none</alphatype>
						<pixelaspectratio>square</pixelaspectratio>
						<anamorphic>FALSE</anamorphic>
						<file id="file-36">
							<name>wiblo_1_2000-01-01_1210_C0098.mov</name>
							<pathurl>file://localhost/Volumes/aqua/00_Footage/4)%20Wayuu/7-21%20magalys%20and%20healer%202/../7-21%20magalys%20and%20healer/wiblo_1_2000-01-01_1210_C0098.mov</pathurl>
							<rate>
								<timebase>24</timebase>
								<ntsc>TRUE</ntsc>
							</rate>
							<duration>477</duration>
							<timecode>
								<rate>
									<timebase>24</timebase>
									<ntsc>TRUE</ntsc>
								</rate>
								<string>12:10:18:00</string>
								<frame>1051632</frame>
								<displayformat>NDF</displayformat>
							</timecode>
							<media>
								<video>
									<samplecharacteristics>
										<rate>
											<timebase>24</timebase>
											<ntsc>TRUE</ntsc>
										</rate>
										<width>1920</width>
										<height>1080</height>
										<anamorphic>FALSE</anamorphic>
										<pixelaspectratio>square</pixelaspectratio>
										<fielddominance>none</fielddominance>
									</samplecharacteristics>
								</video>
								<audio>
									<samplecharacteristics>
										<depth>16</depth>
										<samplerate>48000</samplerate>
									</samplecharacteristics>
									<channelcount>2</channelcount>
								</audio>
							</media>
						</file>
						<logginginfo>
							<description></description>
							<scene></scene>
							<shottake></shottake>
							<lognote></lognote>
							<good></good>
							<originalvideofilename></originalvideofilename>
							<originalaudiofilename></originalaudiofilename>
						</logginginfo>
						<colorinfo>
							<lut></lut>
							<lut1></lut1>
							<asc_sop></asc_sop>
							<asc_sat></asc_sat>
							<lut2></lut2>
						</colorinfo>
						<labels>
							<label2>Iris</label2>
						</labels>
					</clipitem>
					<clipitem id="clipitem-37">
						<masterclipid>masterclip-37</masterclipid>
						<name>wiblo_1_2000-01-01_1210_C0099.mov</name>
						<enabled>TRUE</enabled>
						<duration>1497</duration>
						<rate>
							<timebase>24</timebase>
							<ntsc>TRUE</ntsc>
						</rate>
						<start>32141</start>
						<end>33638</end>
						<in>0</in>
						<out>1497</out>
						<pproTicksIn>0</pproTicksIn>
						<pproTicksOut>15860092248000</pproTicksOut>
						<alphatype>none</alphatype>
						<pixelaspectratio>square</pixelaspectratio>
						<anamorphic>FALSE</anamorphic>
						<file id="file-37">
							<name>wiblo_1_2000-01-01_1210_C0099.mov</name>
							<pathurl>file://localhost/Volumes/aqua/00_Footage/4)%20Wayuu/7-21%20magalys%20and%20healer%202/../7-21%20magalys%20and%20healer/wiblo_1_2000-01-01_1210_C0099.mov</pathurl>
							<rate>
								<timebase>24</timebase>
								<ntsc>TRUE</ntsc>
							</rate>
							<duration>1497</duration>
							<timecode>
								<rate>
									<timebase>24</timebase>
									<ntsc>TRUE</ntsc>
								</rate>
								<string>12:10:47:00</string>
								<frame>1052328</frame>
								<displayformat>NDF</displayformat>
							</timecode>
							<media>
								<video>
									<samplecharacteristics>
										<rate>
											<timebase>24</timebase>
											<ntsc>TRUE</ntsc>
										</rate>
										<width>1920</width>
										<height>1080</height>
										<anamorphic>FALSE</anamorphic>
										<pixelaspectratio>square</pixelaspectratio>
										<fielddominance>none</fielddominance>
									</samplecharacteristics>
								</video>
								<audio>
									<samplecharacteristics>
										<depth>16</depth>
										<samplerate>48000</samplerate>
									</samplecharacteristics>
									<channelcount>2</channelcount>
								</audio>
							</media>
						</file>
						<logginginfo>
							<description></description>
							<scene></scene>
							<shottake></shottake>
							<lognote></lognote>
							<good></good>
							<originalvideofilename></originalvideofilename>
							<originalaudiofilename></originalaudiofilename>
						</logginginfo>
						<colorinfo>
							<lut></lut>
							<lut1></lut1>
							<asc_sop></asc_sop>
							<asc_sat></asc_sat>
							<lut2></lut2>
						</colorinfo>
						<labels>
							<label2>Iris</label2>
						</labels>
					</clipitem>
					<clipitem id="clipitem-38">
						<masterclipid>masterclip-38</masterclipid>
						<name>wiblo_1_2000-01-01_1211_C0100.mov</name>
						<enabled>TRUE</enabled>
						<duration>168</duration>
						<rate>
							<timebase>24</timebase>
							<ntsc>TRUE</ntsc>
						</rate>
						<start>33738</start>
						<end>33906</end>
						<in>0</in>
						<out>168</out>
						<pproTicksIn>0</pproTicksIn>
						<pproTicksOut>1779890112000</pproTicksOut>
						<alphatype>none</alphatype>
						<pixelaspectratio>square</pixelaspectratio>
						<anamorphic>FALSE</anamorphic>
						<file id="file-38">
							<name>wiblo_1_2000-01-01_1211_C0100.mov</name>
							<pathurl>file://localhost/Volumes/aqua/00_Footage/4)%20Wayuu/7-21%20magalys%20and%20healer%202/../7-21%20magalys%20and%20healer/wiblo_1_2000-01-01_1211_C0100.mov</pathurl>
							<rate>
								<timebase>24</timebase>
								<ntsc>TRUE</ntsc>
							</rate>
							<duration>168</duration>
							<timecode>
								<rate>
									<timebase>24</timebase>
									<ntsc>TRUE</ntsc>
								</rate>
								<string>12:11:53:00</string>
								<frame>1053912</frame>
								<displayformat>NDF</displayformat>
							</timecode>
							<media>
								<video>
									<samplecharacteristics>
										<rate>
											<timebase>24</timebase>
											<ntsc>TRUE</ntsc>
										</rate>
										<width>1920</width>
										<height>1080</height>
										<anamorphic>FALSE</anamorphic>
										<pixelaspectratio>square</pixelaspectratio>
										<fielddominance>none</fielddominance>
									</samplecharacteristics>
								</video>
								<audio>
									<samplecharacteristics>
										<depth>16</depth>
										<samplerate>48000</samplerate>
									</samplecharacteristics>
									<channelcount>2</channelcount>
								</audio>
							</media>
						</file>
						<logginginfo>
							<description></description>
							<scene></scene>
							<shottake></shottake>
							<lognote></lognote>
							<good></good>
							<originalvideofilename></originalvideofilename>
							<originalaudiofilename></originalaudiofilename>
						</logginginfo>
						<colorinfo>
							<lut></lut>
							<lut1></lut1>
							<asc_sop></asc_sop>
							<asc_sat></asc_sat>
							<lut2></lut2>
						</colorinfo>
						<labels>
							<label2>Iris</label2>
						</labels>
					</clipitem>
					<clipitem id="clipitem-39">
						<masterclipid>masterclip-39</masterclipid>
						<name>wiblo_1_2000-01-01_1212_C0101.mov</name>
						<enabled>TRUE</enabled>
						<duration>143</duration>
						<rate>
							<timebase>24</timebase>
							<ntsc>TRUE</ntsc>
						</rate>
						<start>34043</start>
						<end>34186</end>
						<in>0</in>
						<out>143</out>
						<pproTicksIn>0</pproTicksIn>
						<pproTicksOut>1515025512000</pproTicksOut>
						<alphatype>none</alphatype>
						<pixelaspectratio>square</pixelaspectratio>
						<anamorphic>FALSE</anamorphic>
						<file id="file-39">
							<name>wiblo_1_2000-01-01_1212_C0101.mov</name>
							<pathurl>file://localhost/Volumes/aqua/00_Footage/4)%20Wayuu/7-21%20magalys%20and%20healer%202/../7-21%20magalys%20and%20healer/wiblo_1_2000-01-01_1212_C0101.mov</pathurl>
							<rate>
								<timebase>24</timebase>
								<ntsc>TRUE</ntsc>
							</rate>
							<duration>143</duration>
							<timecode>
								<rate>
									<timebase>24</timebase>
									<ntsc>TRUE</ntsc>
								</rate>
								<string>12:12:06:00</string>
								<frame>1054224</frame>
								<displayformat>NDF</displayformat>
							</timecode>
							<media>
								<video>
									<samplecharacteristics>
										<rate>
											<timebase>24</timebase>
											<ntsc>TRUE</ntsc>
										</rate>
										<width>1920</width>
										<height>1080</height>
										<anamorphic>FALSE</anamorphic>
										<pixelaspectratio>square</pixelaspectratio>
										<fielddominance>none</fielddominance>
									</samplecharacteristics>
								</video>
								<audio>
									<samplecharacteristics>
										<depth>16</depth>
										<samplerate>48000</samplerate>
									</samplecharacteristics>
									<channelcount>2</channelcount>
								</audio>
							</media>
						</file>
						<logginginfo>
							<description></description>
							<scene></scene>
							<shottake></shottake>
							<lognote></lognote>
							<good></good>
							<originalvideofilename></originalvideofilename>
							<originalaudiofilename></originalaudiofilename>
						</logginginfo>
						<colorinfo>
							<lut></lut>
							<lut1></lut1>
							<asc_sop></asc_sop>
							<asc_sat></asc_sat>
							<lut2></lut2>
						</colorinfo>
						<labels>
							<label2>Iris</label2>
						</labels>
					</clipitem>
					<clipitem id="clipitem-40">
						<masterclipid>masterclip-40</masterclipid>
						<name>wiblo_1_2000-01-01_1212_C0102.mov</name>
						<enabled>TRUE</enabled>
						<duration>134</duration>
						<rate>
							<timebase>24</timebase>
							<ntsc>TRUE</ntsc>
						</rate>
						<start>34285</start>
						<end>34419</end>
						<in>0</in>
						<out>134</out>
						<pproTicksIn>0</pproTicksIn>
						<pproTicksOut>1419674256000</pproTicksOut>
						<alphatype>none</alphatype>
						<pixelaspectratio>square</pixelaspectratio>
						<anamorphic>FALSE</anamorphic>
						<file id="file-40">
							<name>wiblo_1_2000-01-01_1212_C0102.mov</name>
							<pathurl>file://localhost/Volumes/aqua/00_Footage/4)%20Wayuu/7-21%20magalys%20and%20healer%202/../7-21%20magalys%20and%20healer/wiblo_1_2000-01-01_1212_C0102.mov</pathurl>
							<rate>
								<timebase>24</timebase>
								<ntsc>TRUE</ntsc>
							</rate>
							<duration>134</duration>
							<timecode>
								<rate>
									<timebase>24</timebase>
									<ntsc>TRUE</ntsc>
								</rate>
								<string>12:12:16:00</string>
								<frame>1054464</frame>
								<displayformat>NDF</displayformat>
							</timecode>
							<media>
								<video>
									<samplecharacteristics>
										<rate>
											<timebase>24</timebase>
											<ntsc>TRUE</ntsc>
										</rate>
										<width>1920</width>
										<height>1080</height>
										<anamorphic>FALSE</anamorphic>
										<pixelaspectratio>square</pixelaspectratio>
										<fielddominance>none</fielddominance>
									</samplecharacteristics>
								</video>
								<audio>
									<samplecharacteristics>
										<depth>16</depth>
										<samplerate>48000</samplerate>
									</samplecharacteristics>
									<channelcount>2</channelcount>
								</audio>
							</media>
						</file>
						<logginginfo>
							<description></description>
							<scene></scene>
							<shottake></shottake>
							<lognote></lognote>
							<good></good>
							<originalvideofilename></originalvideofilename>
							<originalaudiofilename></originalaudiofilename>
						</logginginfo>
						<colorinfo>
							<lut></lut>
							<lut1></lut1>
							<asc_sop></asc_sop>
							<asc_sat></asc_sat>
							<lut2></lut2>
						</colorinfo>
						<labels>
							<label2>Iris</label2>
						</labels>
					</clipitem>
					<clipitem id="clipitem-41">
						<masterclipid>masterclip-41</masterclipid>
						<name>wiblo_1_2000-01-01_1212_C0103.mov</name>
						<enabled>TRUE</enabled>
						<duration>43</duration>
						<rate>
							<timebase>24</timebase>
							<ntsc>TRUE</ntsc>
						</rate>
						<start>34501</start>
						<end>34544</end>
						<in>0</in>
						<out>43</out>
						<pproTicksIn>0</pproTicksIn>
						<pproTicksOut>455567112000</pproTicksOut>
						<alphatype>none</alphatype>
						<pixelaspectratio>square</pixelaspectratio>
						<anamorphic>FALSE</anamorphic>
						<file id="file-41">
							<name>wiblo_1_2000-01-01_1212_C0103.mov</name>
							<pathurl>file://localhost/Volumes/aqua/00_Footage/4)%20Wayuu/7-21%20magalys%20and%20healer%202/../7-21%20magalys%20and%20healer/wiblo_1_2000-01-01_1212_C0103.mov</pathurl>
							<rate>
								<timebase>24</timebase>
								<ntsc>TRUE</ntsc>
							</rate>
							<duration>43</duration>
							<timecode>
								<rate>
									<timebase>24</timebase>
									<ntsc>TRUE</ntsc>
								</rate>
								<string>12:12:25:00</string>
								<frame>1054680</frame>
								<displayformat>NDF</displayformat>
							</timecode>
							<media>
								<video>
									<samplecharacteristics>
										<rate>
											<timebase>24</timebase>
											<ntsc>TRUE</ntsc>
										</rate>
										<width>1920</width>
										<height>1080</height>
										<anamorphic>FALSE</anamorphic>
										<pixelaspectratio>square</pixelaspectratio>
										<fielddominance>none</fielddominance>
									</samplecharacteristics>
								</video>
								<audio>
									<samplecharacteristics>
										<depth>16</depth>
										<samplerate>48000</samplerate>
									</samplecharacteristics>
									<channelcount>2</channelcount>
								</audio>
							</media>
						</file>
						<logginginfo>
							<description></description>
							<scene></scene>
							<shottake></shottake>
							<lognote></lognote>
							<good></good>
							<originalvideofilename></originalvideofilename>
							<originalaudiofilename></originalaudiofilename>
						</logginginfo>
						<colorinfo>
							<lut></lut>
							<lut1></lut1>
							<asc_sop></asc_sop>
							<asc_sat></asc_sat>
							<lut2></lut2>
						</colorinfo>
						<labels>
							<label2>Rose</label2>
						</labels>
					</clipitem>
					<clipitem id="clipitem-42">
						<masterclipid>masterclip-42</masterclipid>
						<name>wiblo_1_2000-01-01_1212_C0104.mov</name>
						<enabled>TRUE</enabled>
						<duration>93</duration>
						<rate>
							<timebase>24</timebase>
							<ntsc>TRUE</ntsc>
						</rate>
						<start>34669</start>
						<end>34762</end>
						<in>0</in>
						<out>93</out>
						<pproTicksIn>0</pproTicksIn>
						<pproTicksOut>985296312000</pproTicksOut>
						<alphatype>none</alphatype>
						<pixelaspectratio>square</pixelaspectratio>
						<anamorphic>FALSE</anamorphic>
						<file id="file-42">
							<name>wiblo_1_2000-01-01_1212_C0104.mov</name>
							<pathurl>file://localhost/Volumes/aqua/00_Footage/4)%20Wayuu/7-21%20magalys%20and%20healer%202/../7-21%20magalys%20and%20healer/wiblo_1_2000-01-01_1212_C0104.mov</pathurl>
							<rate>
								<timebase>24</timebase>
								<ntsc>TRUE</ntsc>
							</rate>
							<duration>93</duration>
							<timecode>
								<rate>
									<timebase>24</timebase>
									<ntsc>TRUE</ntsc>
								</rate>
								<string>12:12:32:00</string>
								<frame>1054848</frame>
								<displayformat>NDF</displayformat>
							</timecode>
							<media>
								<video>
									<samplecharacteristics>
										<rate>
											<timebase>24</timebase>
											<ntsc>TRUE</ntsc>
										</rate>
										<width>1920</width>
										<height>1080</height>
										<anamorphic>FALSE</anamorphic>
										<pixelaspectratio>square</pixelaspectratio>
										<fielddominance>none</fielddominance>
									</samplecharacteristics>
								</video>
								<audio>
									<samplecharacteristics>
										<depth>16</depth>
										<samplerate>48000</samplerate>
									</samplecharacteristics>
									<channelcount>2</channelcount>
								</audio>
							</media>
						</file>
						<logginginfo>
							<description></description>
							<scene></scene>
							<shottake></shottake>
							<lognote></lognote>
							<good></good>
							<originalvideofilename></originalvideofilename>
							<originalaudiofilename></originalaudiofilename>
						</logginginfo>
						<colorinfo>
							<lut></lut>
							<lut1></lut1>
							<asc_sop></asc_sop>
							<asc_sat></asc_sat>
							<lut2></lut2>
						</colorinfo>
						<labels>
							<label2>Iris</label2>
						</labels>
					</clipitem>
					<clipitem id="clipitem-43">
						<masterclipid>masterclip-43</masterclipid>
						<name>wiblo_1_2000-01-01_1212_C0105.mov</name>
						<enabled>TRUE</enabled>
						<duration>104</duration>
						<rate>
							<timebase>24</timebase>
							<ntsc>TRUE</ntsc>
						</rate>
						<start>34910</start>
						<end>35014</end>
						<in>0</in>
						<out>104</out>
						<pproTicksIn>0</pproTicksIn>
						<pproTicksOut>1101836736000</pproTicksOut>
						<alphatype>none</alphatype>
						<pixelaspectratio>square</pixelaspectratio>
						<anamorphic>FALSE</anamorphic>
						<file id="file-43">
							<name>wiblo_1_2000-01-01_1212_C0105.mov</name>
							<pathurl>file://localhost/Volumes/aqua/00_Footage/4)%20Wayuu/7-21%20magalys%20and%20healer%202/../7-21%20magalys%20and%20healer/wiblo_1_2000-01-01_1212_C0105.mov</pathurl>
							<rate>
								<timebase>24</timebase>
								<ntsc>TRUE</ntsc>
							</rate>
							<duration>104</duration>
							<timecode>
								<rate>
									<timebase>24</timebase>
									<ntsc>TRUE</ntsc>
								</rate>
								<string>12:12:42:00</string>
								<frame>1055088</frame>
								<displayformat>NDF</displayformat>
							</timecode>
							<media>
								<video>
									<samplecharacteristics>
										<rate>
											<timebase>24</timebase>
											<ntsc>TRUE</ntsc>
										</rate>
										<width>1920</width>
										<height>1080</height>
										<anamorphic>FALSE</anamorphic>
										<pixelaspectratio>square</pixelaspectratio>
										<fielddominance>none</fielddominance>
									</samplecharacteristics>
								</video>
								<audio>
									<samplecharacteristics>
										<depth>16</depth>
										<samplerate>48000</samplerate>
									</samplecharacteristics>
									<channelcount>2</channelcount>
								</audio>
							</media>
						</file>
						<logginginfo>
							<description></description>
							<scene></scene>
							<shottake></shottake>
							<lognote></lognote>
							<good></good>
							<originalvideofilename></originalvideofilename>
							<originalaudiofilename></originalaudiofilename>
						</logginginfo>
						<colorinfo>
							<lut></lut>
							<lut1></lut1>
							<asc_sop></asc_sop>
							<asc_sat></asc_sat>
							<lut2></lut2>
						</colorinfo>
						<labels>
							<label2>Iris</label2>
						</labels>
					</clipitem>
					<clipitem id="clipitem-44">
						<masterclipid>masterclip-44</masterclipid>
						<name>wiblo_1_2000-01-01_1213_C0106.mov</name>
						<enabled>TRUE</enabled>
						<duration>1017</duration>
						<rate>
							<timebase>24</timebase>
							<ntsc>TRUE</ntsc>
						</rate>
						<start>35531</start>
						<end>36548</end>
						<in>0</in>
						<out>1017</out>
						<pproTicksIn>0</pproTicksIn>
						<pproTicksOut>10774691928000</pproTicksOut>
						<alphatype>none</alphatype>
						<pixelaspectratio>square</pixelaspectratio>
						<anamorphic>FALSE</anamorphic>
						<file id="file-44">
							<name>wiblo_1_2000-01-01_1213_C0106.mov</name>
							<pathurl>file://localhost/Volumes/aqua/00_Footage/4)%20Wayuu/7-21%20magalys%20and%20healer%202/../7-21%20magalys%20and%20healer/wiblo_1_2000-01-01_1213_C0106.mov</pathurl>
							<rate>
								<timebase>24</timebase>
								<ntsc>TRUE</ntsc>
							</rate>
							<duration>1017</duration>
							<timecode>
								<rate>
									<timebase>24</timebase>
									<ntsc>TRUE</ntsc>
								</rate>
								<string>12:13:14:00</string>
								<frame>1055856</frame>
								<displayformat>NDF</displayformat>
							</timecode>
							<media>
								<video>
									<samplecharacteristics>
										<rate>
											<timebase>24</timebase>
											<ntsc>TRUE</ntsc>
										</rate>
										<width>1920</width>
										<height>1080</height>
										<anamorphic>FALSE</anamorphic>
										<pixelaspectratio>square</pixelaspectratio>
										<fielddominance>none</fielddominance>
									</samplecharacteristics>
								</video>
								<audio>
									<samplecharacteristics>
										<depth>16</depth>
										<samplerate>48000</samplerate>
									</samplecharacteristics>
									<channelcount>2</channelcount>
								</audio>
							</media>
						</file>
						<logginginfo>
							<description></description>
							<scene></scene>
							<shottake></shottake>
							<lognote></lognote>
							<good></good>
							<originalvideofilename></originalvideofilename>
							<originalaudiofilename></originalaudiofilename>
						</logginginfo>
						<colorinfo>
							<lut></lut>
							<lut1></lut1>
							<asc_sop></asc_sop>
							<asc_sat></asc_sat>
							<lut2></lut2>
						</colorinfo>
						<labels>
							<label2>Iris</label2>
						</labels>
					</clipitem>
					<clipitem id="clipitem-45">
						<masterclipid>masterclip-45</masterclipid>
						<name>wiblo_1_2000-01-01_1214_C0107.mov</name>
						<enabled>TRUE</enabled>
						<duration>227</duration>
						<rate>
							<timebase>24</timebase>
							<ntsc>TRUE</ntsc>
						</rate>
						<start>36675</start>
						<end>36902</end>
						<in>0</in>
						<out>227</out>
						<pproTicksIn>0</pproTicksIn>
						<pproTicksOut>2404970568000</pproTicksOut>
						<alphatype>none</alphatype>
						<pixelaspectratio>square</pixelaspectratio>
						<anamorphic>FALSE</anamorphic>
						<file id="file-45">
							<name>wiblo_1_2000-01-01_1214_C0107.mov</name>
							<pathurl>file://localhost/Volumes/aqua/00_Footage/4)%20Wayuu/7-21%20magalys%20and%20healer%202/../7-21%20magalys%20and%20healer/wiblo_1_2000-01-01_1214_C0107.mov</pathurl>
							<rate>
								<timebase>24</timebase>
								<ntsc>TRUE</ntsc>
							</rate>
							<duration>227</duration>
							<timecode>
								<rate>
									<timebase>24</timebase>
									<ntsc>TRUE</ntsc>
								</rate>
								<string>12:14:02:00</string>
								<frame>1057008</frame>
								<displayformat>NDF</displayformat>
							</timecode>
							<media>
								<video>
									<samplecharacteristics>
										<rate>
											<timebase>24</timebase>
											<ntsc>TRUE</ntsc>
										</rate>
										<width>1920</width>
										<height>1080</height>
										<anamorphic>FALSE</anamorphic>
										<pixelaspectratio>square</pixelaspectratio>
										<fielddominance>none</fielddominance>
									</samplecharacteristics>
								</video>
								<audio>
									<samplecharacteristics>
										<depth>16</depth>
										<samplerate>48000</samplerate>
									</samplecharacteristics>
									<channelcount>2</channelcount>
								</audio>
							</media>
						</file>
						<logginginfo>
							<description></description>
							<scene></scene>
							<shottake></shottake>
							<lognote></lognote>
							<good></good>
							<originalvideofilename></originalvideofilename>
							<originalaudiofilename></originalaudiofilename>
						</logginginfo>
						<colorinfo>
							<lut></lut>
							<lut1></lut1>
							<asc_sop></asc_sop>
							<asc_sat></asc_sat>
							<lut2></lut2>
						</colorinfo>
						<labels>
							<label2>Iris</label2>
						</labels>
					</clipitem>
					<clipitem id="clipitem-46">
						<masterclipid>masterclip-46</masterclipid>
						<name>wiblo_1_2000-01-01_1214_C0108.mov</name>
						<enabled>TRUE</enabled>
						<duration>229</duration>
						<rate>
							<timebase>24</timebase>
							<ntsc>TRUE</ntsc>
						</rate>
						<start>37297</start>
						<end>37526</end>
						<in>0</in>
						<out>229</out>
						<pproTicksIn>0</pproTicksIn>
						<pproTicksOut>2426159736000</pproTicksOut>
						<alphatype>none</alphatype>
						<pixelaspectratio>square</pixelaspectratio>
						<anamorphic>FALSE</anamorphic>
						<file id="file-46">
							<name>wiblo_1_2000-01-01_1214_C0108.mov</name>
							<pathurl>file://localhost/Volumes/aqua/00_Footage/4)%20Wayuu/7-21%20magalys%20and%20healer%202/../7-21%20magalys%20and%20healer/wiblo_1_2000-01-01_1214_C0108.mov</pathurl>
							<rate>
								<timebase>24</timebase>
								<ntsc>TRUE</ntsc>
							</rate>
							<duration>229</duration>
							<timecode>
								<rate>
									<timebase>24</timebase>
									<ntsc>TRUE</ntsc>
								</rate>
								<string>12:14:28:00</string>
								<frame>1057632</frame>
								<displayformat>NDF</displayformat>
							</timecode>
							<media>
								<video>
									<samplecharacteristics>
										<rate>
											<timebase>24</timebase>
											<ntsc>TRUE</ntsc>
										</rate>
										<width>1920</width>
										<height>1080</height>
										<anamorphic>FALSE</anamorphic>
										<pixelaspectratio>square</pixelaspectratio>
										<fielddominance>none</fielddominance>
									</samplecharacteristics>
								</video>
								<audio>
									<samplecharacteristics>
										<depth>16</depth>
										<samplerate>48000</samplerate>
									</samplecharacteristics>
									<channelcount>2</channelcount>
								</audio>
							</media>
						</file>
						<logginginfo>
							<description></description>
							<scene></scene>
							<shottake></shottake>
							<lognote></lognote>
							<good></good>
							<originalvideofilename></originalvideofilename>
							<originalaudiofilename></originalaudiofilename>
						</logginginfo>
						<colorinfo>
							<lut></lut>
							<lut1></lut1>
							<asc_sop></asc_sop>
							<asc_sat></asc_sat>
							<lut2></lut2>
						</colorinfo>
						<labels>
							<label2>Iris</label2>
						</labels>
					</clipitem>
					<clipitem id="clipitem-47">
						<masterclipid>masterclip-47</masterclipid>
						<name>wiblo_1_2000-01-01_1215_C0109.mov</name>
						<enabled>TRUE</enabled>
						<duration>145</duration>
						<rate>
							<timebase>24</timebase>
							<ntsc>TRUE</ntsc>
						</rate>
						<start>39280</start>
						<end>39425</end>
						<in>0</in>
						<out>145</out>
						<pproTicksIn>0</pproTicksIn>
						<pproTicksOut>1536214680000</pproTicksOut>
						<alphatype>none</alphatype>
						<pixelaspectratio>square</pixelaspectratio>
						<anamorphic>FALSE</anamorphic>
						<file id="file-47">
							<name>wiblo_1_2000-01-01_1215_C0109.mov</name>
							<pathurl>file://localhost/Volumes/aqua/00_Footage/4)%20Wayuu/7-21%20magalys%20and%20healer%202/../7-21%20magalys%20and%20healer/wiblo_1_2000-01-01_1215_C0109.mov</pathurl>
							<rate>
								<timebase>24</timebase>
								<ntsc>TRUE</ntsc>
							</rate>
							<duration>145</duration>
							<timecode>
								<rate>
									<timebase>24</timebase>
									<ntsc>TRUE</ntsc>
								</rate>
								<string>12:15:51:00</string>
								<frame>1059624</frame>
								<displayformat>NDF</displayformat>
							</timecode>
							<media>
								<video>
									<samplecharacteristics>
										<rate>
											<timebase>24</timebase>
											<ntsc>TRUE</ntsc>
										</rate>
										<width>1920</width>
										<height>1080</height>
										<anamorphic>FALSE</anamorphic>
										<pixelaspectratio>square</pixelaspectratio>
										<fielddominance>none</fielddominance>
									</samplecharacteristics>
								</video>
								<audio>
									<samplecharacteristics>
										<depth>16</depth>
										<samplerate>48000</samplerate>
									</samplecharacteristics>
									<channelcount>2</channelcount>
								</audio>
							</media>
						</file>
						<logginginfo>
							<description></description>
							<scene></scene>
							<shottake></shottake>
							<lognote></lognote>
							<good></good>
							<originalvideofilename></originalvideofilename>
							<originalaudiofilename></originalaudiofilename>
						</logginginfo>
						<colorinfo>
							<lut></lut>
							<lut1></lut1>
							<asc_sop></asc_sop>
							<asc_sat></asc_sat>
							<lut2></lut2>
						</colorinfo>
						<labels>
							<label2>Iris</label2>
						</labels>
					</clipitem>
					<clipitem id="clipitem-48">
						<masterclipid>masterclip-48</masterclipid>
						<name>wiblo_1_2000-01-01_1217_C0112.mov</name>
						<enabled>TRUE</enabled>
						<duration>426</duration>
						<rate>
							<timebase>24</timebase>
							<ntsc>TRUE</ntsc>
						</rate>
						<start>40041</start>
						<end>40466</end>
						<in>1</in>
						<out>426</out>
						<pproTicksIn>10594584000</pproTicksIn>
						<pproTicksOut>4513292784000</pproTicksOut>
						<alphatype>none</alphatype>
						<pixelaspectratio>square</pixelaspectratio>
						<anamorphic>FALSE</anamorphic>
						<file id="file-48">
							<name>wiblo_1_2000-01-01_1217_C0112.mov</name>
							<pathurl>file://localhost/Volumes/aqua/00_Footage/4)%20Wayuu/7-21%20magalys%20and%20healer%202/../7-21%20magalys%20and%20healer/wiblo_1_2000-01-01_1217_C0112.mov</pathurl>
							<rate>
								<timebase>24</timebase>
								<ntsc>TRUE</ntsc>
							</rate>
							<duration>426</duration>
							<timecode>
								<rate>
									<timebase>24</timebase>
									<ntsc>TRUE</ntsc>
								</rate>
								<string>12:17:28:00</string>
								<frame>1061952</frame>
								<displayformat>NDF</displayformat>
							</timecode>
							<media>
								<video>
									<samplecharacteristics>
										<rate>
											<timebase>24</timebase>
											<ntsc>TRUE</ntsc>
										</rate>
										<width>1920</width>
										<height>1080</height>
										<anamorphic>FALSE</anamorphic>
										<pixelaspectratio>square</pixelaspectratio>
										<fielddominance>none</fielddominance>
									</samplecharacteristics>
								</video>
								<audio>
									<samplecharacteristics>
										<depth>16</depth>
										<samplerate>48000</samplerate>
									</samplecharacteristics>
									<channelcount>2</channelcount>
								</audio>
							</media>
						</file>
						<logginginfo>
							<description></description>
							<scene></scene>
							<shottake></shottake>
							<lognote></lognote>
							<good></good>
							<originalvideofilename></originalvideofilename>
							<originalaudiofilename></originalaudiofilename>
						</logginginfo>
						<colorinfo>
							<lut></lut>
							<lut1></lut1>
							<asc_sop></asc_sop>
							<asc_sat></asc_sat>
							<lut2></lut2>
						</colorinfo>
						<labels>
							<label2>Rose</label2>
						</labels>
					</clipitem>
					<clipitem id="clipitem-49">
						<masterclipid>masterclip-49</masterclipid>
						<name>wiblo_1_2000-01-01_1216_C0110.mov</name>
						<enabled>TRUE</enabled>
						<duration>190</duration>
						<rate>
							<timebase>24</timebase>
							<ntsc>TRUE</ntsc>
						</rate>
						<start>40466</start>
						<end>40656</end>
						<in>0</in>
						<out>190</out>
						<pproTicksIn>0</pproTicksIn>
						<pproTicksOut>2012970960000</pproTicksOut>
						<alphatype>none</alphatype>
						<pixelaspectratio>square</pixelaspectratio>
						<anamorphic>FALSE</anamorphic>
						<file id="file-49">
							<name>wiblo_1_2000-01-01_1216_C0110.mov</name>
							<pathurl>file://localhost/Volumes/aqua/00_Footage/4)%20Wayuu/7-21%20magalys%20and%20healer%202/../7-21%20magalys%20and%20healer/wiblo_1_2000-01-01_1216_C0110.mov</pathurl>
							<rate>
								<timebase>24</timebase>
								<ntsc>TRUE</ntsc>
							</rate>
							<duration>190</duration>
							<timecode>
								<rate>
									<timebase>24</timebase>
									<ntsc>TRUE</ntsc>
								</rate>
								<string>12:16:40:00</string>
								<frame>1060800</frame>
								<displayformat>NDF</displayformat>
							</timecode>
							<media>
								<video>
									<samplecharacteristics>
										<rate>
											<timebase>24</timebase>
											<ntsc>TRUE</ntsc>
										</rate>
										<width>1920</width>
										<height>1080</height>
										<anamorphic>FALSE</anamorphic>
										<pixelaspectratio>square</pixelaspectratio>
										<fielddominance>none</fielddominance>
									</samplecharacteristics>
								</video>
								<audio>
									<samplecharacteristics>
										<depth>16</depth>
										<samplerate>48000</samplerate>
									</samplecharacteristics>
									<channelcount>2</channelcount>
								</audio>
							</media>
						</file>
						<logginginfo>
							<description></description>
							<scene></scene>
							<shottake></shottake>
							<lognote></lognote>
							<good></good>
							<originalvideofilename></originalvideofilename>
							<originalaudiofilename></originalaudiofilename>
						</logginginfo>
						<colorinfo>
							<lut></lut>
							<lut1></lut1>
							<asc_sop></asc_sop>
							<asc_sat></asc_sat>
							<lut2></lut2>
						</colorinfo>
						<labels>
							<label2>Iris</label2>
						</labels>
					</clipitem>
					<clipitem id="clipitem-50">
						<masterclipid>masterclip-50</masterclipid>
						<name>wiblo_1_2000-01-01_1216_C0111.mov</name>
						<enabled>TRUE</enabled>
						<duration>320</duration>
						<rate>
							<timebase>24</timebase>
							<ntsc>TRUE</ntsc>
						</rate>
						<start>40758</start>
						<end>41078</end>
						<in>0</in>
						<out>320</out>
						<pproTicksIn>0</pproTicksIn>
						<pproTicksOut>3390266880000</pproTicksOut>
						<alphatype>none</alphatype>
						<pixelaspectratio>square</pixelaspectratio>
						<anamorphic>FALSE</anamorphic>
						<file id="file-50">
							<name>wiblo_1_2000-01-01_1216_C0111.mov</name>
							<pathurl>file://localhost/Volumes/aqua/00_Footage/4)%20Wayuu/7-21%20magalys%20and%20healer%202/../7-21%20magalys%20and%20healer/wiblo_1_2000-01-01_1216_C0111.mov</pathurl>
							<rate>
								<timebase>24</timebase>
								<ntsc>TRUE</ntsc>
							</rate>
							<duration>320</duration>
							<timecode>
								<rate>
									<timebase>24</timebase>
									<ntsc>TRUE</ntsc>
								</rate>
								<string>12:16:53:00</string>
								<frame>1061112</frame>
								<displayformat>NDF</displayformat>
							</timecode>
							<media>
								<video>
									<samplecharacteristics>
										<rate>
											<timebase>24</timebase>
											<ntsc>TRUE</ntsc>
										</rate>
										<width>1920</width>
										<height>1080</height>
										<anamorphic>FALSE</anamorphic>
										<pixelaspectratio>square</pixelaspectratio>
										<fielddominance>none</fielddominance>
									</samplecharacteristics>
								</video>
								<audio>
									<samplecharacteristics>
										<depth>16</depth>
										<samplerate>48000</samplerate>
									</samplecharacteristics>
									<channelcount>2</channelcount>
								</audio>
							</media>
						</file>
						<link>
							<linkclipref>clipitem-50</linkclipref>
							<mediatype>video</mediatype>
							<trackindex>1</trackindex>
							<clipindex>50</clipindex>
						</link>
						<link>
							<linkclipref>clipitem-105</linkclipref>
							<mediatype>audio</mediatype>
							<trackindex>1</trackindex>
							<clipindex>2</clipindex>
							<groupindex>1</groupindex>
						</link>
						<link>
							<linkclipref>clipitem-127</linkclipref>
							<mediatype>audio</mediatype>
							<trackindex>2</trackindex>
							<clipindex>2</clipindex>
							<groupindex>1</groupindex>
						</link>
						<logginginfo>
							<description></description>
							<scene></scene>
							<shottake></shottake>
							<lognote></lognote>
							<good></good>
							<originalvideofilename></originalvideofilename>
							<originalaudiofilename></originalaudiofilename>
						</logginginfo>
						<colorinfo>
							<lut></lut>
							<lut1></lut1>
							<asc_sop></asc_sop>
							<asc_sat></asc_sat>
							<lut2></lut2>
						</colorinfo>
						<labels>
							<label2>Iris</label2>
						</labels>
					</clipitem>
					<clipitem id="clipitem-51">
						<masterclipid>masterclip-51</masterclipid>
						<name>wiblo_1_2000-01-01_1217_C0113.mov</name>
						<enabled>TRUE</enabled>
						<duration>378</duration>
						<rate>
							<timebase>24</timebase>
							<ntsc>TRUE</ntsc>
						</rate>
						<start>41078</start>
						<end>41455</end>
						<in>1</in>
						<out>378</out>
						<pproTicksIn>10594584000</pproTicksIn>
						<pproTicksOut>4004752752000</pproTicksOut>
						<alphatype>none</alphatype>
						<pixelaspectratio>square</pixelaspectratio>
						<anamorphic>FALSE</anamorphic>
						<file id="file-51">
							<name>wiblo_1_2000-01-01_1217_C0113.mov</name>
							<pathurl>file://localhost/Volumes/aqua/00_Footage/4)%20Wayuu/7-21%20magalys%20and%20healer%202/../7-21%20magalys%20and%20healer/wiblo_1_2000-01-01_1217_C0113.mov</pathurl>
							<rate>
								<timebase>24</timebase>
								<ntsc>TRUE</ntsc>
							</rate>
							<duration>378</duration>
							<timecode>
								<rate>
									<timebase>24</timebase>
									<ntsc>TRUE</ntsc>
								</rate>
								<string>12:17:59:00</string>
								<frame>1062696</frame>
								<displayformat>NDF</displayformat>
							</timecode>
							<media>
								<video>
									<samplecharacteristics>
										<rate>
											<timebase>24</timebase>
											<ntsc>TRUE</ntsc>
										</rate>
										<width>1920</width>
										<height>1080</height>
										<anamorphic>FALSE</anamorphic>
										<pixelaspectratio>square</pixelaspectratio>
										<fielddominance>none</fielddominance>
									</samplecharacteristics>
								</video>
								<audio>
									<samplecharacteristics>
										<depth>16</depth>
										<samplerate>48000</samplerate>
									</samplecharacteristics>
									<channelcount>2</channelcount>
								</audio>
							</media>
						</file>
						<link>
							<linkclipref>clipitem-51</linkclipref>
							<mediatype>video</mediatype>
							<trackindex>1</trackindex>
							<clipindex>51</clipindex>
						</link>
						<link>
							<linkclipref>clipitem-106</linkclipref>
							<mediatype>audio</mediatype>
							<trackindex>1</trackindex>
							<clipindex>3</clipindex>
							<groupindex>1</groupindex>
						</link>
						<link>
							<linkclipref>clipitem-128</linkclipref>
							<mediatype>audio</mediatype>
							<trackindex>2</trackindex>
							<clipindex>3</clipindex>
							<groupindex>1</groupindex>
						</link>
						<logginginfo>
							<description></description>
							<scene></scene>
							<shottake></shottake>
							<lognote></lognote>
							<good></good>
							<originalvideofilename></originalvideofilename>
							<originalaudiofilename></originalaudiofilename>
						</logginginfo>
						<colorinfo>
							<lut></lut>
							<lut1></lut1>
							<asc_sop></asc_sop>
							<asc_sat></asc_sat>
							<lut2></lut2>
						</colorinfo>
						<labels>
							<label2>Rose</label2>
						</labels>
					</clipitem>
					<clipitem id="clipitem-52">
						<masterclipid>masterclip-52</masterclipid>
						<name>wiblo_1_2000-01-01_1142_C0046.mov</name>
						<enabled>TRUE</enabled>
						<duration>363</duration>
						<rate>
							<timebase>24</timebase>
							<ntsc>TRUE</ntsc>
						</rate>
						<start>45545</start>
						<end>45908</end>
						<in>0</in>
						<out>363</out>
						<pproTicksIn>0</pproTicksIn>
						<pproTicksOut>3845833992000</pproTicksOut>
						<alphatype>none</alphatype>
						<pixelaspectratio>square</pixelaspectratio>
						<anamorphic>FALSE</anamorphic>
						<file id="file-52">
							<name>wiblo_1_2000-01-01_1142_C0046.mov</name>
							<pathurl>file://localhost/Volumes/aqua/00_Footage/4)%20Wayuu/7-21%20magalys%20and%20healer%202/../7-21%20magalys%20and%20healer/wiblo_1_2000-01-01_1142_C0046.mov</pathurl>
							<rate>
								<timebase>24</timebase>
								<ntsc>TRUE</ntsc>
							</rate>
							<duration>363</duration>
							<timecode>
								<rate>
									<timebase>24</timebase>
									<ntsc>TRUE</ntsc>
								</rate>
								<string>11:42:51:00</string>
								<frame>1012104</frame>
								<displayformat>NDF</displayformat>
							</timecode>
							<media>
								<video>
									<samplecharacteristics>
										<rate>
											<timebase>24</timebase>
											<ntsc>TRUE</ntsc>
										</rate>
										<width>1920</width>
										<height>1080</height>
										<anamorphic>FALSE</anamorphic>
										<pixelaspectratio>square</pixelaspectratio>
										<fielddominance>none</fielddominance>
									</samplecharacteristics>
								</video>
								<audio>
									<samplecharacteristics>
										<depth>16</depth>
										<samplerate>48000</samplerate>
									</samplecharacteristics>
									<channelcount>2</channelcount>
								</audio>
							</media>
						</file>
						<link>
							<linkclipref>clipitem-52</linkclipref>
							<mediatype>video</mediatype>
							<trackindex>1</trackindex>
							<clipindex>52</clipindex>
						</link>
						<link>
							<linkclipref>clipitem-107</linkclipref>
							<mediatype>audio</mediatype>
							<trackindex>1</trackindex>
							<clipindex>4</clipindex>
							<groupindex>1</groupindex>
						</link>
						<link>
							<linkclipref>clipitem-129</linkclipref>
							<mediatype>audio</mediatype>
							<trackindex>2</trackindex>
							<clipindex>4</clipindex>
							<groupindex>1</groupindex>
						</link>
						<logginginfo>
							<description></description>
							<scene></scene>
							<shottake></shottake>
							<lognote></lognote>
							<good></good>
							<originalvideofilename></originalvideofilename>
							<originalaudiofilename></originalaudiofilename>
						</logginginfo>
						<colorinfo>
							<lut></lut>
							<lut1></lut1>
							<asc_sop></asc_sop>
							<asc_sat></asc_sat>
							<lut2></lut2>
						</colorinfo>
						<labels>
							<label2>Rose</label2>
						</labels>
					</clipitem>
					<clipitem id="clipitem-53">
						<masterclipid>masterclip-53</masterclipid>
						<name>wiblo_1_2000-01-01_1143_C0047.mov</name>
						<enabled>TRUE</enabled>
						<duration>295</duration>
						<rate>
							<timebase>24</timebase>
							<ntsc>TRUE</ntsc>
						</rate>
						<start>45908</start>
						<end>46202</end>
						<in>1</in>
						<out>295</out>
						<pproTicksIn>10594584000</pproTicksIn>
						<pproTicksOut>3125402280000</pproTicksOut>
						<alphatype>none</alphatype>
						<pixelaspectratio>square</pixelaspectratio>
						<anamorphic>FALSE</anamorphic>
						<file id="file-53">
							<name>wiblo_1_2000-01-01_1143_C0047.mov</name>
							<pathurl>file://localhost/Volumes/aqua/00_Footage/4)%20Wayuu/7-21%20magalys%20and%20healer%202/../7-21%20magalys%20and%20healer/wiblo_1_2000-01-01_1143_C0047.mov</pathurl>
							<rate>
								<timebase>24</timebase>
								<ntsc>TRUE</ntsc>
							</rate>
							<duration>295</duration>
							<timecode>
								<rate>
									<timebase>24</timebase>
									<ntsc>TRUE</ntsc>
								</rate>
								<string>11:43:30:00</string>
								<frame>1013040</frame>
								<displayformat>NDF</displayformat>
							</timecode>
							<media>
								<video>
									<samplecharacteristics>
										<rate>
											<timebase>24</timebase>
											<ntsc>TRUE</ntsc>
										</rate>
										<width>1920</width>
										<height>1080</height>
										<anamorphic>FALSE</anamorphic>
										<pixelaspectratio>square</pixelaspectratio>
										<fielddominance>none</fielddominance>
									</samplecharacteristics>
								</video>
								<audio>
									<samplecharacteristics>
										<depth>16</depth>
										<samplerate>48000</samplerate>
									</samplecharacteristics>
									<channelcount>2</channelcount>
								</audio>
							</media>
						</file>
						<link>
							<linkclipref>clipitem-53</linkclipref>
							<mediatype>video</mediatype>
							<trackindex>1</trackindex>
							<clipindex>53</clipindex>
						</link>
						<link>
							<linkclipref>clipitem-108</linkclipref>
							<mediatype>audio</mediatype>
							<trackindex>1</trackindex>
							<clipindex>5</clipindex>
							<groupindex>1</groupindex>
						</link>
						<link>
							<linkclipref>clipitem-130</linkclipref>
							<mediatype>audio</mediatype>
							<trackindex>2</trackindex>
							<clipindex>5</clipindex>
							<groupindex>1</groupindex>
						</link>
						<logginginfo>
							<description></description>
							<scene></scene>
							<shottake></shottake>
							<lognote></lognote>
							<good></good>
							<originalvideofilename></originalvideofilename>
							<originalaudiofilename></originalaudiofilename>
						</logginginfo>
						<colorinfo>
							<lut></lut>
							<lut1></lut1>
							<asc_sop></asc_sop>
							<asc_sat></asc_sat>
							<lut2></lut2>
						</colorinfo>
						<labels>
							<label2>Rose</label2>
						</labels>
					</clipitem>
					<clipitem id="clipitem-54">
						<masterclipid>masterclip-54</masterclipid>
						<name>wiblo_1_2000-01-01_1143_C0048.mov</name>
						<enabled>TRUE</enabled>
						<duration>595</duration>
						<rate>
							<timebase>24</timebase>
							<ntsc>TRUE</ntsc>
						</rate>
						<start>46202</start>
						<end>46796</end>
						<in>1</in>
						<out>595</out>
						<pproTicksIn>10594584000</pproTicksIn>
						<pproTicksOut>6303777480000</pproTicksOut>
						<alphatype>none</alphatype>
						<pixelaspectratio>square</pixelaspectratio>
						<anamorphic>FALSE</anamorphic>
						<file id="file-54">
							<name>wiblo_1_2000-01-01_1143_C0048.mov</name>
							<pathurl>file://localhost/Volumes/aqua/00_Footage/4)%20Wayuu/7-21%20magalys%20and%20healer%202/../7-21%20magalys%20and%20healer/wiblo_1_2000-01-01_1143_C0048.mov</pathurl>
							<rate>
								<timebase>24</timebase>
								<ntsc>TRUE</ntsc>
							</rate>
							<duration>595</duration>
							<timecode>
								<rate>
									<timebase>24</timebase>
									<ntsc>TRUE</ntsc>
								</rate>
								<string>11:43:59:00</string>
								<frame>1013736</frame>
								<displayformat>NDF</displayformat>
							</timecode>
							<media>
								<video>
									<samplecharacteristics>
										<rate>
											<timebase>24</timebase>
											<ntsc>TRUE</ntsc>
										</rate>
										<width>1920</width>
										<height>1080</height>
										<anamorphic>FALSE</anamorphic>
										<pixelaspectratio>square</pixelaspectratio>
										<fielddominance>none</fielddominance>
									</samplecharacteristics>
								</video>
								<audio>
									<samplecharacteristics>
										<depth>16</depth>
										<samplerate>48000</samplerate>
									</samplecharacteristics>
									<channelcount>2</channelcount>
								</audio>
							</media>
						</file>
						<link>
							<linkclipref>clipitem-54</linkclipref>
							<mediatype>video</mediatype>
							<trackindex>1</trackindex>
							<clipindex>54</clipindex>
						</link>
						<link>
							<linkclipref>clipitem-109</linkclipref>
							<mediatype>audio</mediatype>
							<trackindex>1</trackindex>
							<clipindex>6</clipindex>
							<groupindex>1</groupindex>
						</link>
						<link>
							<linkclipref>clipitem-131</linkclipref>
							<mediatype>audio</mediatype>
							<trackindex>2</trackindex>
							<clipindex>6</clipindex>
							<groupindex>1</groupindex>
						</link>
						<logginginfo>
							<description></description>
							<scene></scene>
							<shottake></shottake>
							<lognote></lognote>
							<good></good>
							<originalvideofilename></originalvideofilename>
							<originalaudiofilename></originalaudiofilename>
						</logginginfo>
						<colorinfo>
							<lut></lut>
							<lut1></lut1>
							<asc_sop></asc_sop>
							<asc_sat></asc_sat>
							<lut2></lut2>
						</colorinfo>
						<labels>
							<label2>Rose</label2>
						</labels>
					</clipitem>
					<clipitem id="clipitem-55">
						<masterclipid>masterclip-55</masterclipid>
						<name>wiblo_1_2000-01-01_1144_C0049.mov</name>
						<enabled>TRUE</enabled>
						<duration>191</duration>
						<rate>
							<timebase>24</timebase>
							<ntsc>TRUE</ntsc>
						</rate>
						<start>46796</start>
						<end>46986</end>
						<in>1</in>
						<out>191</out>
						<pproTicksIn>10594584000</pproTicksIn>
						<pproTicksOut>2023565544000</pproTicksOut>
						<alphatype>none</alphatype>
						<pixelaspectratio>square</pixelaspectratio>
						<anamorphic>FALSE</anamorphic>
						<file id="file-55">
							<name>wiblo_1_2000-01-01_1144_C0049.mov</name>
							<pathurl>file://localhost/Volumes/aqua/00_Footage/4)%20Wayuu/7-21%20magalys%20and%20healer%202/../7-21%20magalys%20and%20healer/wiblo_1_2000-01-01_1144_C0049.mov</pathurl>
							<rate>
								<timebase>24</timebase>
								<ntsc>TRUE</ntsc>
							</rate>
							<duration>191</duration>
							<timecode>
								<rate>
									<timebase>24</timebase>
									<ntsc>TRUE</ntsc>
								</rate>
								<string>11:44:25:00</string>
								<frame>1014360</frame>
								<displayformat>NDF</displayformat>
							</timecode>
							<media>
								<video>
									<samplecharacteristics>
										<rate>
											<timebase>24</timebase>
											<ntsc>TRUE</ntsc>
										</rate>
										<width>1920</width>
										<height>1080</height>
										<anamorphic>FALSE</anamorphic>
										<pixelaspectratio>square</pixelaspectratio>
										<fielddominance>none</fielddominance>
									</samplecharacteristics>
								</video>
								<audio>
									<samplecharacteristics>
										<depth>16</depth>
										<samplerate>48000</samplerate>
									</samplecharacteristics>
									<channelcount>2</channelcount>
								</audio>
							</media>
						</file>
						<link>
							<linkclipref>clipitem-55</linkclipref>
							<mediatype>video</mediatype>
							<trackindex>1</trackindex>
							<clipindex>55</clipindex>
						</link>
						<link>
							<linkclipref>clipitem-110</linkclipref>
							<mediatype>audio</mediatype>
							<trackindex>1</trackindex>
							<clipindex>7</clipindex>
							<groupindex>1</groupindex>
						</link>
						<link>
							<linkclipref>clipitem-132</linkclipref>
							<mediatype>audio</mediatype>
							<trackindex>2</trackindex>
							<clipindex>7</clipindex>
							<groupindex>1</groupindex>
						</link>
						<logginginfo>
							<description></description>
							<scene></scene>
							<shottake></shottake>
							<lognote></lognote>
							<good></good>
							<originalvideofilename></originalvideofilename>
							<originalaudiofilename></originalaudiofilename>
						</logginginfo>
						<colorinfo>
							<lut></lut>
							<lut1></lut1>
							<asc_sop></asc_sop>
							<asc_sat></asc_sat>
							<lut2></lut2>
						</colorinfo>
						<labels>
							<label2>Rose</label2>
						</labels>
					</clipitem>
					<clipitem id="clipitem-56">
						<masterclipid>masterclip-56</masterclipid>
						<name>wiblo_1_2000-01-01_1144_C0050.mov</name>
						<enabled>TRUE</enabled>
						<duration>107</duration>
						<rate>
							<timebase>24</timebase>
							<ntsc>TRUE</ntsc>
						</rate>
						<start>46986</start>
						<end>47092</end>
						<in>1</in>
						<out>107</out>
						<pproTicksIn>10594584000</pproTicksIn>
						<pproTicksOut>1133620488000</pproTicksOut>
						<alphatype>none</alphatype>
						<pixelaspectratio>square</pixelaspectratio>
						<anamorphic>FALSE</anamorphic>
						<file id="file-56">
							<name>wiblo_1_2000-01-01_1144_C0050.mov</name>
							<pathurl>file://localhost/Volumes/aqua/00_Footage/4)%20Wayuu/7-21%20magalys%20and%20healer%202/../7-21%20magalys%20and%20healer/wiblo_1_2000-01-01_1144_C0050.mov</pathurl>
							<rate>
								<timebase>24</timebase>
								<ntsc>TRUE</ntsc>
							</rate>
							<duration>107</duration>
							<timecode>
								<rate>
									<timebase>24</timebase>
									<ntsc>TRUE</ntsc>
								</rate>
								<string>11:44:36:00</string>
								<frame>1014624</frame>
								<displayformat>NDF</displayformat>
							</timecode>
							<media>
								<video>
									<samplecharacteristics>
										<rate>
											<timebase>24</timebase>
											<ntsc>TRUE</ntsc>
										</rate>
										<width>1920</width>
										<height>1080</height>
										<anamorphic>FALSE</anamorphic>
										<pixelaspectratio>square</pixelaspectratio>
										<fielddominance>none</fielddominance>
									</samplecharacteristics>
								</video>
								<audio>
									<samplecharacteristics>
										<depth>16</depth>
										<samplerate>48000</samplerate>
									</samplecharacteristics>
									<channelcount>2</channelcount>
								</audio>
							</media>
						</file>
						<link>
							<linkclipref>clipitem-56</linkclipref>
							<mediatype>video</mediatype>
							<trackindex>1</trackindex>
							<clipindex>56</clipindex>
						</link>
						<link>
							<linkclipref>clipitem-111</linkclipref>
							<mediatype>audio</mediatype>
							<trackindex>1</trackindex>
							<clipindex>8</clipindex>
							<groupindex>1</groupindex>
						</link>
						<link>
							<linkclipref>clipitem-133</linkclipref>
							<mediatype>audio</mediatype>
							<trackindex>2</trackindex>
							<clipindex>8</clipindex>
							<groupindex>1</groupindex>
						</link>
						<logginginfo>
							<description></description>
							<scene></scene>
							<shottake></shottake>
							<lognote></lognote>
							<good></good>
							<originalvideofilename></originalvideofilename>
							<originalaudiofilename></originalaudiofilename>
						</logginginfo>
						<colorinfo>
							<lut></lut>
							<lut1></lut1>
							<asc_sop></asc_sop>
							<asc_sat></asc_sat>
							<lut2></lut2>
						</colorinfo>
						<labels>
							<label2>Rose</label2>
						</labels>
					</clipitem>
					<clipitem id="clipitem-57">
						<masterclipid>masterclip-57</masterclipid>
						<name>wiblo_1_2000-01-01_1144_C0051.mov</name>
						<enabled>TRUE</enabled>
						<duration>148</duration>
						<rate>
							<timebase>24</timebase>
							<ntsc>TRUE</ntsc>
						</rate>
						<start>47092</start>
						<end>47239</end>
						<in>1</in>
						<out>148</out>
						<pproTicksIn>10594584000</pproTicksIn>
						<pproTicksOut>1567998432000</pproTicksOut>
						<alphatype>none</alphatype>
						<pixelaspectratio>square</pixelaspectratio>
						<anamorphic>FALSE</anamorphic>
						<file id="file-57">
							<name>wiblo_1_2000-01-01_1144_C0051.mov</name>
							<pathurl>file://localhost/Volumes/aqua/00_Footage/4)%20Wayuu/7-21%20magalys%20and%20healer%202/../7-21%20magalys%20and%20healer/wiblo_1_2000-01-01_1144_C0051.mov</pathurl>
							<rate>
								<timebase>24</timebase>
								<ntsc>TRUE</ntsc>
							</rate>
							<duration>148</duration>
							<timecode>
								<rate>
									<timebase>24</timebase>
									<ntsc>TRUE</ntsc>
								</rate>
								<string>11:44:44:00</string>
								<frame>1014816</frame>
								<displayformat>NDF</displayformat>
							</timecode>
							<media>
								<video>
									<samplecharacteristics>
										<rate>
											<timebase>24</timebase>
											<ntsc>TRUE</ntsc>
										</rate>
										<width>1920</width>
										<height>1080</height>
										<anamorphic>FALSE</anamorphic>
										<pixelaspectratio>square</pixelaspectratio>
										<fielddominance>none</fielddominance>
									</samplecharacteristics>
								</video>
								<audio>
									<samplecharacteristics>
										<depth>16</depth>
										<samplerate>48000</samplerate>
									</samplecharacteristics>
									<channelcount>2</channelcount>
								</audio>
							</media>
						</file>
						<link>
							<linkclipref>clipitem-57</linkclipref>
							<mediatype>video</mediatype>
							<trackindex>1</trackindex>
							<clipindex>57</clipindex>
						</link>
						<link>
							<linkclipref>clipitem-112</linkclipref>
							<mediatype>audio</mediatype>
							<trackindex>1</trackindex>
							<clipindex>9</clipindex>
							<groupindex>1</groupindex>
						</link>
						<link>
							<linkclipref>clipitem-134</linkclipref>
							<mediatype>audio</mediatype>
							<trackindex>2</trackindex>
							<clipindex>9</clipindex>
							<groupindex>1</groupindex>
						</link>
						<logginginfo>
							<description></description>
							<scene></scene>
							<shottake></shottake>
							<lognote></lognote>
							<good></good>
							<originalvideofilename></originalvideofilename>
							<originalaudiofilename></originalaudiofilename>
						</logginginfo>
						<colorinfo>
							<lut></lut>
							<lut1></lut1>
							<asc_sop></asc_sop>
							<asc_sat></asc_sat>
							<lut2></lut2>
						</colorinfo>
						<labels>
							<label2>Rose</label2>
						</labels>
					</clipitem>
					<clipitem id="clipitem-58">
						<masterclipid>masterclip-58</masterclipid>
						<name>wiblo_1_2000-01-01_1145_C0052.mov</name>
						<enabled>TRUE</enabled>
						<duration>251</duration>
						<rate>
							<timebase>24</timebase>
							<ntsc>TRUE</ntsc>
						</rate>
						<start>47239</start>
						<end>47489</end>
						<in>1</in>
						<out>251</out>
						<pproTicksIn>10594584000</pproTicksIn>
						<pproTicksOut>2659240584000</pproTicksOut>
						<alphatype>none</alphatype>
						<pixelaspectratio>square</pixelaspectratio>
						<anamorphic>FALSE</anamorphic>
						<file id="file-58">
							<name>wiblo_1_2000-01-01_1145_C0052.mov</name>
							<pathurl>file://localhost/Volumes/aqua/00_Footage/4)%20Wayuu/7-21%20magalys%20and%20healer%202/../7-21%20magalys%20and%20healer/wiblo_1_2000-01-01_1145_C0052.mov</pathurl>
							<rate>
								<timebase>24</timebase>
								<ntsc>TRUE</ntsc>
							</rate>
							<duration>251</duration>
							<timecode>
								<rate>
									<timebase>24</timebase>
									<ntsc>TRUE</ntsc>
								</rate>
								<string>11:45:00:00</string>
								<frame>1015200</frame>
								<displayformat>NDF</displayformat>
							</timecode>
							<media>
								<video>
									<samplecharacteristics>
										<rate>
											<timebase>24</timebase>
											<ntsc>TRUE</ntsc>
										</rate>
										<width>1920</width>
										<height>1080</height>
										<anamorphic>FALSE</anamorphic>
										<pixelaspectratio>square</pixelaspectratio>
										<fielddominance>none</fielddominance>
									</samplecharacteristics>
								</video>
								<audio>
									<samplecharacteristics>
										<depth>16</depth>
										<samplerate>48000</samplerate>
									</samplecharacteristics>
									<channelcount>2</channelcount>
								</audio>
							</media>
						</file>
						<link>
							<linkclipref>clipitem-58</linkclipref>
							<mediatype>video</mediatype>
							<trackindex>1</trackindex>
							<clipindex>58</clipindex>
						</link>
						<link>
							<linkclipref>clipitem-113</linkclipref>
							<mediatype>audio</mediatype>
							<trackindex>1</trackindex>
							<clipindex>10</clipindex>
							<groupindex>1</groupindex>
						</link>
						<link>
							<linkclipref>clipitem-135</linkclipref>
							<mediatype>audio</mediatype>
							<trackindex>2</trackindex>
							<clipindex>10</clipindex>
							<groupindex>1</groupindex>
						</link>
						<logginginfo>
							<description></description>
							<scene></scene>
							<shottake></shottake>
							<lognote></lognote>
							<good></good>
							<originalvideofilename></originalvideofilename>
							<originalaudiofilename></originalaudiofilename>
						</logginginfo>
						<colorinfo>
							<lut></lut>
							<lut1></lut1>
							<asc_sop></asc_sop>
							<asc_sat></asc_sat>
							<lut2></lut2>
						</colorinfo>
						<labels>
							<label2>Rose</label2>
						</labels>
					</clipitem>
					<clipitem id="clipitem-59">
						<masterclipid>masterclip-59</masterclipid>
						<name>wiblo_1_2000-01-01_1145_C0053.mov</name>
						<enabled>TRUE</enabled>
						<duration>31</duration>
						<rate>
							<timebase>24</timebase>
							<ntsc>TRUE</ntsc>
						</rate>
						<start>47489</start>
						<end>47519</end>
						<in>1</in>
						<out>31</out>
						<pproTicksIn>10594584000</pproTicksIn>
						<pproTicksOut>328432104000</pproTicksOut>
						<alphatype>none</alphatype>
						<pixelaspectratio>square</pixelaspectratio>
						<anamorphic>FALSE</anamorphic>
						<file id="file-59">
							<name>wiblo_1_2000-01-01_1145_C0053.mov</name>
							<pathurl>file://localhost/Volumes/aqua/00_Footage/4)%20Wayuu/7-21%20magalys%20and%20healer%202/../7-21%20magalys%20and%20healer/wiblo_1_2000-01-01_1145_C0053.mov</pathurl>
							<rate>
								<timebase>24</timebase>
								<ntsc>TRUE</ntsc>
							</rate>
							<duration>31</duration>
							<timecode>
								<rate>
									<timebase>24</timebase>
									<ntsc>TRUE</ntsc>
								</rate>
								<string>11:45:13:00</string>
								<frame>1015512</frame>
								<displayformat>NDF</displayformat>
							</timecode>
							<media>
								<video>
									<samplecharacteristics>
										<rate>
											<timebase>24</timebase>
											<ntsc>TRUE</ntsc>
										</rate>
										<width>1920</width>
										<height>1080</height>
										<anamorphic>FALSE</anamorphic>
										<pixelaspectratio>square</pixelaspectratio>
										<fielddominance>none</fielddominance>
									</samplecharacteristics>
								</video>
								<audio>
									<samplecharacteristics>
										<depth>16</depth>
										<samplerate>48000</samplerate>
									</samplecharacteristics>
									<channelcount>2</channelcount>
								</audio>
							</media>
						</file>
						<link>
							<linkclipref>clipitem-59</linkclipref>
							<mediatype>video</mediatype>
							<trackindex>1</trackindex>
							<clipindex>59</clipindex>
						</link>
						<link>
							<linkclipref>clipitem-114</linkclipref>
							<mediatype>audio</mediatype>
							<trackindex>1</trackindex>
							<clipindex>11</clipindex>
							<groupindex>1</groupindex>
						</link>
						<link>
							<linkclipref>clipitem-136</linkclipref>
							<mediatype>audio</mediatype>
							<trackindex>2</trackindex>
							<clipindex>11</clipindex>
							<groupindex>1</groupindex>
						</link>
						<logginginfo>
							<description></description>
							<scene></scene>
							<shottake></shottake>
							<lognote></lognote>
							<good></good>
							<originalvideofilename></originalvideofilename>
							<originalaudiofilename></originalaudiofilename>
						</logginginfo>
						<colorinfo>
							<lut></lut>
							<lut1></lut1>
							<asc_sop></asc_sop>
							<asc_sat></asc_sat>
							<lut2></lut2>
						</colorinfo>
						<labels>
							<label2>Rose</label2>
						</labels>
					</clipitem>
					<clipitem id="clipitem-60">
						<masterclipid>masterclip-60</masterclipid>
						<name>wiblo_1_2000-01-01_1145_C0054.mov</name>
						<enabled>TRUE</enabled>
						<duration>113</duration>
						<rate>
							<timebase>24</timebase>
							<ntsc>TRUE</ntsc>
						</rate>
						<start>47519</start>
						<end>47631</end>
						<in>1</in>
						<out>113</out>
						<pproTicksIn>10594584000</pproTicksIn>
						<pproTicksOut>1197187992000</pproTicksOut>
						<alphatype>none</alphatype>
						<pixelaspectratio>square</pixelaspectratio>
						<anamorphic>FALSE</anamorphic>
						<file id="file-60">
							<name>wiblo_1_2000-01-01_1145_C0054.mov</name>
							<pathurl>file://localhost/Volumes/aqua/00_Footage/4)%20Wayuu/7-21%20magalys%20and%20healer%202/../7-21%20magalys%20and%20healer/wiblo_1_2000-01-01_1145_C0054.mov</pathurl>
							<rate>
								<timebase>24</timebase>
								<ntsc>TRUE</ntsc>
							</rate>
							<duration>113</duration>
							<timecode>
								<rate>
									<timebase>24</timebase>
									<ntsc>TRUE</ntsc>
								</rate>
								<string>11:45:23:00</string>
								<frame>1015752</frame>
								<displayformat>NDF</displayformat>
							</timecode>
							<media>
								<video>
									<samplecharacteristics>
										<rate>
											<timebase>24</timebase>
											<ntsc>TRUE</ntsc>
										</rate>
										<width>1920</width>
										<height>1080</height>
										<anamorphic>FALSE</anamorphic>
										<pixelaspectratio>square</pixelaspectratio>
										<fielddominance>none</fielddominance>
									</samplecharacteristics>
								</video>
								<audio>
									<samplecharacteristics>
										<depth>16</depth>
										<samplerate>48000</samplerate>
									</samplecharacteristics>
									<channelcount>2</channelcount>
								</audio>
							</media>
						</file>
						<link>
							<linkclipref>clipitem-60</linkclipref>
							<mediatype>video</mediatype>
							<trackindex>1</trackindex>
							<clipindex>60</clipindex>
						</link>
						<link>
							<linkclipref>clipitem-115</linkclipref>
							<mediatype>audio</mediatype>
							<trackindex>1</trackindex>
							<clipindex>12</clipindex>
							<groupindex>1</groupindex>
						</link>
						<link>
							<linkclipref>clipitem-137</linkclipref>
							<mediatype>audio</mediatype>
							<trackindex>2</trackindex>
							<clipindex>12</clipindex>
							<groupindex>1</groupindex>
						</link>
						<logginginfo>
							<description></description>
							<scene></scene>
							<shottake></shottake>
							<lognote></lognote>
							<good></good>
							<originalvideofilename></originalvideofilename>
							<originalaudiofilename></originalaudiofilename>
						</logginginfo>
						<colorinfo>
							<lut></lut>
							<lut1></lut1>
							<asc_sop></asc_sop>
							<asc_sat></asc_sat>
							<lut2></lut2>
						</colorinfo>
						<labels>
							<label2>Rose</label2>
						</labels>
					</clipitem>
					<clipitem id="clipitem-61">
						<masterclipid>masterclip-61</masterclipid>
						<name>wiblo_1_2000-01-01_1145_C0055.mov</name>
						<enabled>TRUE</enabled>
						<duration>170</duration>
						<rate>
							<timebase>24</timebase>
							<ntsc>TRUE</ntsc>
						</rate>
						<start>47631</start>
						<end>47800</end>
						<in>1</in>
						<out>170</out>
						<pproTicksIn>10594584000</pproTicksIn>
						<pproTicksOut>1801079280000</pproTicksOut>
						<alphatype>none</alphatype>
						<pixelaspectratio>square</pixelaspectratio>
						<anamorphic>FALSE</anamorphic>
						<file id="file-61">
							<name>wiblo_1_2000-01-01_1145_C0055.mov</name>
							<pathurl>file://localhost/Volumes/aqua/00_Footage/4)%20Wayuu/7-21%20magalys%20and%20healer%202/../7-21%20magalys%20and%20healer/wiblo_1_2000-01-01_1145_C0055.mov</pathurl>
							<rate>
								<timebase>24</timebase>
								<ntsc>TRUE</ntsc>
							</rate>
							<duration>170</duration>
							<timecode>
								<rate>
									<timebase>24</timebase>
									<ntsc>TRUE</ntsc>
								</rate>
								<string>11:45:30:00</string>
								<frame>1015920</frame>
								<displayformat>NDF</displayformat>
							</timecode>
							<media>
								<video>
									<samplecharacteristics>
										<rate>
											<timebase>24</timebase>
											<ntsc>TRUE</ntsc>
										</rate>
										<width>1920</width>
										<height>1080</height>
										<anamorphic>FALSE</anamorphic>
										<pixelaspectratio>square</pixelaspectratio>
										<fielddominance>none</fielddominance>
									</samplecharacteristics>
								</video>
								<audio>
									<samplecharacteristics>
										<depth>16</depth>
										<samplerate>48000</samplerate>
									</samplecharacteristics>
									<channelcount>2</channelcount>
								</audio>
							</media>
						</file>
						<link>
							<linkclipref>clipitem-61</linkclipref>
							<mediatype>video</mediatype>
							<trackindex>1</trackindex>
							<clipindex>61</clipindex>
						</link>
						<link>
							<linkclipref>clipitem-116</linkclipref>
							<mediatype>audio</mediatype>
							<trackindex>1</trackindex>
							<clipindex>13</clipindex>
							<groupindex>1</groupindex>
						</link>
						<link>
							<linkclipref>clipitem-138</linkclipref>
							<mediatype>audio</mediatype>
							<trackindex>2</trackindex>
							<clipindex>13</clipindex>
							<groupindex>1</groupindex>
						</link>
						<logginginfo>
							<description></description>
							<scene></scene>
							<shottake></shottake>
							<lognote></lognote>
							<good></good>
							<originalvideofilename></originalvideofilename>
							<originalaudiofilename></originalaudiofilename>
						</logginginfo>
						<colorinfo>
							<lut></lut>
							<lut1></lut1>
							<asc_sop></asc_sop>
							<asc_sat></asc_sat>
							<lut2></lut2>
						</colorinfo>
						<labels>
							<label2>Rose</label2>
						</labels>
					</clipitem>
					<clipitem id="clipitem-62">
						<masterclipid>masterclip-62</masterclipid>
						<name>wiblo_1_2000-01-01_1145_C0056.mov</name>
						<enabled>TRUE</enabled>
						<duration>125</duration>
						<rate>
							<timebase>24</timebase>
							<ntsc>TRUE</ntsc>
						</rate>
						<start>47800</start>
						<end>47924</end>
						<in>1</in>
						<out>125</out>
						<pproTicksIn>10594584000</pproTicksIn>
						<pproTicksOut>1324323000000</pproTicksOut>
						<alphatype>none</alphatype>
						<pixelaspectratio>square</pixelaspectratio>
						<anamorphic>FALSE</anamorphic>
						<file id="file-62">
							<name>wiblo_1_2000-01-01_1145_C0056.mov</name>
							<pathurl>file://localhost/Volumes/aqua/00_Footage/4)%20Wayuu/7-21%20magalys%20and%20healer%202/../7-21%20magalys%20and%20healer/wiblo_1_2000-01-01_1145_C0056.mov</pathurl>
							<rate>
								<timebase>24</timebase>
								<ntsc>TRUE</ntsc>
							</rate>
							<duration>125</duration>
							<timecode>
								<rate>
									<timebase>24</timebase>
									<ntsc>TRUE</ntsc>
								</rate>
								<string>11:45:42:00</string>
								<frame>1016208</frame>
								<displayformat>NDF</displayformat>
							</timecode>
							<media>
								<video>
									<samplecharacteristics>
										<rate>
											<timebase>24</timebase>
											<ntsc>TRUE</ntsc>
										</rate>
										<width>1920</width>
										<height>1080</height>
										<anamorphic>FALSE</anamorphic>
										<pixelaspectratio>square</pixelaspectratio>
										<fielddominance>none</fielddominance>
									</samplecharacteristics>
								</video>
								<audio>
									<samplecharacteristics>
										<depth>16</depth>
										<samplerate>48000</samplerate>
									</samplecharacteristics>
									<channelcount>2</channelcount>
								</audio>
							</media>
						</file>
						<link>
							<linkclipref>clipitem-62</linkclipref>
							<mediatype>video</mediatype>
							<trackindex>1</trackindex>
							<clipindex>62</clipindex>
						</link>
						<link>
							<linkclipref>clipitem-117</linkclipref>
							<mediatype>audio</mediatype>
							<trackindex>1</trackindex>
							<clipindex>14</clipindex>
							<groupindex>1</groupindex>
						</link>
						<link>
							<linkclipref>clipitem-139</linkclipref>
							<mediatype>audio</mediatype>
							<trackindex>2</trackindex>
							<clipindex>14</clipindex>
							<groupindex>1</groupindex>
						</link>
						<logginginfo>
							<description></description>
							<scene></scene>
							<shottake></shottake>
							<lognote></lognote>
							<good></good>
							<originalvideofilename></originalvideofilename>
							<originalaudiofilename></originalaudiofilename>
						</logginginfo>
						<colorinfo>
							<lut></lut>
							<lut1></lut1>
							<asc_sop></asc_sop>
							<asc_sat></asc_sat>
							<lut2></lut2>
						</colorinfo>
						<labels>
							<label2>Rose</label2>
						</labels>
					</clipitem>
					<clipitem id="clipitem-63">
						<masterclipid>masterclip-63</masterclipid>
						<name>wiblo_1_2000-01-01_1145_C0057.mov</name>
						<enabled>TRUE</enabled>
						<duration>99</duration>
						<rate>
							<timebase>24</timebase>
							<ntsc>TRUE</ntsc>
						</rate>
						<start>47924</start>
						<end>48022</end>
						<in>1</in>
						<out>99</out>
						<pproTicksIn>10594584000</pproTicksIn>
						<pproTicksOut>1048863816000</pproTicksOut>
						<alphatype>none</alphatype>
						<pixelaspectratio>square</pixelaspectratio>
						<anamorphic>FALSE</anamorphic>
						<file id="file-63">
							<name>wiblo_1_2000-01-01_1145_C0057.mov</name>
							<pathurl>file://localhost/Volumes/aqua/00_Footage/4)%20Wayuu/7-21%20magalys%20and%20healer%202/../7-21%20magalys%20and%20healer/wiblo_1_2000-01-01_1145_C0057.mov</pathurl>
							<rate>
								<timebase>24</timebase>
								<ntsc>TRUE</ntsc>
							</rate>
							<duration>99</duration>
							<timecode>
								<rate>
									<timebase>24</timebase>
									<ntsc>TRUE</ntsc>
								</rate>
								<string>11:45:51:00</string>
								<frame>1016424</frame>
								<displayformat>NDF</displayformat>
							</timecode>
							<media>
								<video>
									<samplecharacteristics>
										<rate>
											<timebase>24</timebase>
											<ntsc>TRUE</ntsc>
										</rate>
										<width>1920</width>
										<height>1080</height>
										<anamorphic>FALSE</anamorphic>
										<pixelaspectratio>square</pixelaspectratio>
										<fielddominance>none</fielddominance>
									</samplecharacteristics>
								</video>
								<audio>
									<samplecharacteristics>
										<depth>16</depth>
										<samplerate>48000</samplerate>
									</samplecharacteristics>
									<channelcount>2</channelcount>
								</audio>
							</media>
						</file>
						<link>
							<linkclipref>clipitem-63</linkclipref>
							<mediatype>video</mediatype>
							<trackindex>1</trackindex>
							<clipindex>63</clipindex>
						</link>
						<link>
							<linkclipref>clipitem-118</linkclipref>
							<mediatype>audio</mediatype>
							<trackindex>1</trackindex>
							<clipindex>15</clipindex>
							<groupindex>1</groupindex>
						</link>
						<link>
							<linkclipref>clipitem-140</linkclipref>
							<mediatype>audio</mediatype>
							<trackindex>2</trackindex>
							<clipindex>15</clipindex>
							<groupindex>1</groupindex>
						</link>
						<logginginfo>
							<description></description>
							<scene></scene>
							<shottake></shottake>
							<lognote></lognote>
							<good></good>
							<originalvideofilename></originalvideofilename>
							<originalaudiofilename></originalaudiofilename>
						</logginginfo>
						<colorinfo>
							<lut></lut>
							<lut1></lut1>
							<asc_sop></asc_sop>
							<asc_sat></asc_sat>
							<lut2></lut2>
						</colorinfo>
						<labels>
							<label2>Rose</label2>
						</labels>
					</clipitem>
					<clipitem id="clipitem-64">
						<masterclipid>masterclip-64</masterclipid>
						<name>wiblo_1_2000-01-01_1146_C0058.mov</name>
						<enabled>TRUE</enabled>
						<duration>110</duration>
						<rate>
							<timebase>24</timebase>
							<ntsc>TRUE</ntsc>
						</rate>
						<start>48022</start>
						<end>48131</end>
						<in>1</in>
						<out>110</out>
						<pproTicksIn>10594584000</pproTicksIn>
						<pproTicksOut>1165404240000</pproTicksOut>
						<alphatype>none</alphatype>
						<pixelaspectratio>square</pixelaspectratio>
						<anamorphic>FALSE</anamorphic>
						<file id="file-64">
							<name>wiblo_1_2000-01-01_1146_C0058.mov</name>
							<pathurl>file://localhost/Volumes/aqua/00_Footage/4)%20Wayuu/7-21%20magalys%20and%20healer%202/../7-21%20magalys%20and%20healer/wiblo_1_2000-01-01_1146_C0058.mov</pathurl>
							<rate>
								<timebase>24</timebase>
								<ntsc>TRUE</ntsc>
							</rate>
							<duration>110</duration>
							<timecode>
								<rate>
									<timebase>24</timebase>
									<ntsc>TRUE</ntsc>
								</rate>
								<string>11:46:01:00</string>
								<frame>1016664</frame>
								<displayformat>NDF</displayformat>
							</timecode>
							<media>
								<video>
									<samplecharacteristics>
										<rate>
											<timebase>24</timebase>
											<ntsc>TRUE</ntsc>
										</rate>
										<width>1920</width>
										<height>1080</height>
										<anamorphic>FALSE</anamorphic>
										<pixelaspectratio>square</pixelaspectratio>
										<fielddominance>none</fielddominance>
									</samplecharacteristics>
								</video>
								<audio>
									<samplecharacteristics>
										<depth>16</depth>
										<samplerate>48000</samplerate>
									</samplecharacteristics>
									<channelcount>2</channelcount>
								</audio>
							</media>
						</file>
						<link>
							<linkclipref>clipitem-64</linkclipref>
							<mediatype>video</mediatype>
							<trackindex>1</trackindex>
							<clipindex>64</clipindex>
						</link>
						<link>
							<linkclipref>clipitem-119</linkclipref>
							<mediatype>audio</mediatype>
							<trackindex>1</trackindex>
							<clipindex>16</clipindex>
							<groupindex>1</groupindex>
						</link>
						<link>
							<linkclipref>clipitem-141</linkclipref>
							<mediatype>audio</mediatype>
							<trackindex>2</trackindex>
							<clipindex>16</clipindex>
							<groupindex>1</groupindex>
						</link>
						<logginginfo>
							<description></description>
							<scene></scene>
							<shottake></shottake>
							<lognote></lognote>
							<good></good>
							<originalvideofilename></originalvideofilename>
							<originalaudiofilename></originalaudiofilename>
						</logginginfo>
						<colorinfo>
							<lut></lut>
							<lut1></lut1>
							<asc_sop></asc_sop>
							<asc_sat></asc_sat>
							<lut2></lut2>
						</colorinfo>
						<labels>
							<label2>Rose</label2>
						</labels>
					</clipitem>
					<clipitem id="clipitem-65">
						<masterclipid>masterclip-65</masterclipid>
						<name>wiblo_1_2000-01-01_1146_C0059.mov</name>
						<enabled>TRUE</enabled>
						<duration>50</duration>
						<rate>
							<timebase>24</timebase>
							<ntsc>TRUE</ntsc>
						</rate>
						<start>48131</start>
						<end>48179</end>
						<in>1</in>
						<out>49</out>
						<pproTicksIn>10594584000</pproTicksIn>
						<pproTicksOut>519134616000</pproTicksOut>
						<alphatype>none</alphatype>
						<pixelaspectratio>square</pixelaspectratio>
						<anamorphic>FALSE</anamorphic>
						<file id="file-65">
							<name>wiblo_1_2000-01-01_1146_C0059.mov</name>
							<pathurl>file://localhost/Volumes/aqua/00_Footage/4)%20Wayuu/7-21%20magalys%20and%20healer%202/../7-21%20magalys%20and%20healer/wiblo_1_2000-01-01_1146_C0059.mov</pathurl>
							<rate>
								<timebase>24</timebase>
								<ntsc>TRUE</ntsc>
							</rate>
							<duration>50</duration>
							<timecode>
								<rate>
									<timebase>24</timebase>
									<ntsc>TRUE</ntsc>
								</rate>
								<string>11:46:10:00</string>
								<frame>1016880</frame>
								<displayformat>NDF</displayformat>
							</timecode>
							<media>
								<video>
									<samplecharacteristics>
										<rate>
											<timebase>24</timebase>
											<ntsc>TRUE</ntsc>
										</rate>
										<width>1920</width>
										<height>1080</height>
										<anamorphic>FALSE</anamorphic>
										<pixelaspectratio>square</pixelaspectratio>
										<fielddominance>none</fielddominance>
									</samplecharacteristics>
								</video>
								<audio>
									<samplecharacteristics>
										<depth>16</depth>
										<samplerate>48000</samplerate>
									</samplecharacteristics>
									<channelcount>2</channelcount>
								</audio>
							</media>
						</file>
						<link>
							<linkclipref>clipitem-65</linkclipref>
							<mediatype>video</mediatype>
							<trackindex>1</trackindex>
							<clipindex>65</clipindex>
						</link>
						<link>
							<linkclipref>clipitem-120</linkclipref>
							<mediatype>audio</mediatype>
							<trackindex>1</trackindex>
							<clipindex>17</clipindex>
							<groupindex>1</groupindex>
						</link>
						<link>
							<linkclipref>clipitem-142</linkclipref>
							<mediatype>audio</mediatype>
							<trackindex>2</trackindex>
							<clipindex>17</clipindex>
							<groupindex>1</groupindex>
						</link>
						<logginginfo>
							<description></description>
							<scene></scene>
							<shottake></shottake>
							<lognote></lognote>
							<good></good>
							<originalvideofilename></originalvideofilename>
							<originalaudiofilename></originalaudiofilename>
						</logginginfo>
						<colorinfo>
							<lut></lut>
							<lut1></lut1>
							<asc_sop></asc_sop>
							<asc_sat></asc_sat>
							<lut2></lut2>
						</colorinfo>
						<labels>
							<label2>Rose</label2>
						</labels>
					</clipitem>
					<clipitem id="clipitem-66">
						<masterclipid>masterclip-66</masterclipid>
						<name>wiblo_1_2000-01-01_1146_C0060.mov</name>
						<enabled>TRUE</enabled>
						<duration>637</duration>
						<rate>
							<timebase>24</timebase>
							<ntsc>TRUE</ntsc>
						</rate>
						<start>48179</start>
						<end>48816</end>
						<in>0</in>
						<out>637</out>
						<pproTicksIn>0</pproTicksIn>
						<pproTicksOut>6748750008000</pproTicksOut>
						<alphatype>none</alphatype>
						<pixelaspectratio>square</pixelaspectratio>
						<anamorphic>FALSE</anamorphic>
						<file id="file-66">
							<name>wiblo_1_2000-01-01_1146_C0060.mov</name>
							<pathurl>file://localhost/Volumes/aqua/00_Footage/4)%20Wayuu/7-21%20magalys%20and%20healer%202/../7-21%20magalys%20and%20healer/wiblo_1_2000-01-01_1146_C0060.mov</pathurl>
							<rate>
								<timebase>24</timebase>
								<ntsc>TRUE</ntsc>
							</rate>
							<duration>637</duration>
							<timecode>
								<rate>
									<timebase>24</timebase>
									<ntsc>TRUE</ntsc>
								</rate>
								<string>11:46:14:00</string>
								<frame>1016976</frame>
								<displayformat>NDF</displayformat>
							</timecode>
							<media>
								<video>
									<samplecharacteristics>
										<rate>
											<timebase>24</timebase>
											<ntsc>TRUE</ntsc>
										</rate>
										<width>1920</width>
										<height>1080</height>
										<anamorphic>FALSE</anamorphic>
										<pixelaspectratio>square</pixelaspectratio>
										<fielddominance>none</fielddominance>
									</samplecharacteristics>
								</video>
								<audio>
									<samplecharacteristics>
										<depth>16</depth>
										<samplerate>48000</samplerate>
									</samplecharacteristics>
									<channelcount>2</channelcount>
								</audio>
							</media>
						</file>
						<link>
							<linkclipref>clipitem-66</linkclipref>
							<mediatype>video</mediatype>
							<trackindex>1</trackindex>
							<clipindex>66</clipindex>
						</link>
						<link>
							<linkclipref>clipitem-121</linkclipref>
							<mediatype>audio</mediatype>
							<trackindex>1</trackindex>
							<clipindex>18</clipindex>
							<groupindex>1</groupindex>
						</link>
						<link>
							<linkclipref>clipitem-143</linkclipref>
							<mediatype>audio</mediatype>
							<trackindex>2</trackindex>
							<clipindex>18</clipindex>
							<groupindex>1</groupindex>
						</link>
						<logginginfo>
							<description></description>
							<scene></scene>
							<shottake></shottake>
							<lognote></lognote>
							<good></good>
							<originalvideofilename></originalvideofilename>
							<originalaudiofilename></originalaudiofilename>
						</logginginfo>
						<colorinfo>
							<lut></lut>
							<lut1></lut1>
							<asc_sop></asc_sop>
							<asc_sat></asc_sat>
							<lut2></lut2>
						</colorinfo>
						<labels>
							<label2>Iris</label2>
						</labels>
					</clipitem>
					<clipitem id="clipitem-67">
						<masterclipid>masterclip-67</masterclipid>
						<name>wiblo_1_2000-01-01_1146_C0061.mov</name>
						<enabled>TRUE</enabled>
						<duration>89</duration>
						<rate>
							<timebase>24</timebase>
							<ntsc>TRUE</ntsc>
						</rate>
						<start>48867</start>
						<end>48956</end>
						<in>0</in>
						<out>89</out>
						<pproTicksIn>0</pproTicksIn>
						<pproTicksOut>942917976000</pproTicksOut>
						<alphatype>none</alphatype>
						<pixelaspectratio>square</pixelaspectratio>
						<anamorphic>FALSE</anamorphic>
						<file id="file-67">
							<name>wiblo_1_2000-01-01_1146_C0061.mov</name>
							<pathurl>file://localhost/Volumes/aqua/00_Footage/4)%20Wayuu/7-21%20magalys%20and%20healer%202/../7-21%20magalys%20and%20healer/wiblo_1_2000-01-01_1146_C0061.mov</pathurl>
							<rate>
								<timebase>24</timebase>
								<ntsc>TRUE</ntsc>
							</rate>
							<duration>89</duration>
							<timecode>
								<rate>
									<timebase>24</timebase>
									<ntsc>TRUE</ntsc>
								</rate>
								<string>11:46:44:00</string>
								<frame>1017696</frame>
								<displayformat>NDF</displayformat>
							</timecode>
							<media>
								<video>
									<samplecharacteristics>
										<rate>
											<timebase>24</timebase>
											<ntsc>TRUE</ntsc>
										</rate>
										<width>1920</width>
										<height>1080</height>
										<anamorphic>FALSE</anamorphic>
										<pixelaspectratio>square</pixelaspectratio>
										<fielddominance>none</fielddominance>
									</samplecharacteristics>
								</video>
								<audio>
									<samplecharacteristics>
										<depth>16</depth>
										<samplerate>48000</samplerate>
									</samplecharacteristics>
									<channelcount>2</channelcount>
								</audio>
							</media>
						</file>
						<link>
							<linkclipref>clipitem-67</linkclipref>
							<mediatype>video</mediatype>
							<trackindex>1</trackindex>
							<clipindex>67</clipindex>
						</link>
						<link>
							<linkclipref>clipitem-122</linkclipref>
							<mediatype>audio</mediatype>
							<trackindex>1</trackindex>
							<clipindex>19</clipindex>
							<groupindex>1</groupindex>
						</link>
						<link>
							<linkclipref>clipitem-144</linkclipref>
							<mediatype>audio</mediatype>
							<trackindex>2</trackindex>
							<clipindex>19</clipindex>
							<groupindex>1</groupindex>
						</link>
						<logginginfo>
							<description></description>
							<scene></scene>
							<shottake></shottake>
							<lognote></lognote>
							<good></good>
							<originalvideofilename></originalvideofilename>
							<originalaudiofilename></originalaudiofilename>
						</logginginfo>
						<colorinfo>
							<lut></lut>
							<lut1></lut1>
							<asc_sop></asc_sop>
							<asc_sat></asc_sat>
							<lut2></lut2>
						</colorinfo>
						<labels>
							<label2>Rose</label2>
						</labels>
					</clipitem>
					<clipitem id="clipitem-68">
						<masterclipid>masterclip-1</masterclipid>
						<name>wiblo_1_2000-01-01_1146_C0062.mov</name>
						<enabled>TRUE</enabled>
						<duration>647</duration>
						<rate>
							<timebase>24</timebase>
							<ntsc>TRUE</ntsc>
						</rate>
						<start>48979</start>
						<end>49626</end>
						<in>0</in>
						<out>647</out>
						<pproTicksIn>0</pproTicksIn>
						<pproTicksOut>6854695848000</pproTicksOut>
						<alphatype>none</alphatype>
						<file id="file-1"/>
						<link>
							<linkclipref>clipitem-68</linkclipref>
							<mediatype>video</mediatype>
							<trackindex>1</trackindex>
							<clipindex>68</clipindex>
						</link>
						<link>
							<linkclipref>clipitem-123</linkclipref>
							<mediatype>audio</mediatype>
							<trackindex>1</trackindex>
							<clipindex>20</clipindex>
							<groupindex>1</groupindex>
						</link>
						<link>
							<linkclipref>clipitem-145</linkclipref>
							<mediatype>audio</mediatype>
							<trackindex>2</trackindex>
							<clipindex>20</clipindex>
							<groupindex>1</groupindex>
						</link>
						<logginginfo>
							<description></description>
							<scene></scene>
							<shottake></shottake>
							<lognote></lognote>
							<good></good>
							<originalvideofilename></originalvideofilename>
							<originalaudiofilename></originalaudiofilename>
						</logginginfo>
						<colorinfo>
							<lut></lut>
							<lut1></lut1>
							<asc_sop></asc_sop>
							<asc_sat></asc_sat>
							<lut2></lut2>
						</colorinfo>
						<labels>
							<label2>Rose</label2>
						</labels>
					</clipitem>
					<clipitem id="clipitem-69">
						<masterclipid>masterclip-68</masterclipid>
						<name>wiblo_1_2000-01-01_1148_C0066.mov</name>
						<enabled>TRUE</enabled>
						<duration>326</duration>
						<rate>
							<timebase>24</timebase>
							<ntsc>TRUE</ntsc>
						</rate>
						<start>49808</start>
						<end>50132</end>
						<in>1</in>
						<out>325</out>
						<pproTicksIn>10594584000</pproTicksIn>
						<pproTicksOut>3443239800000</pproTicksOut>
						<alphatype>none</alphatype>
						<pixelaspectratio>square</pixelaspectratio>
						<anamorphic>FALSE</anamorphic>
						<file id="file-68">
							<name>wiblo_1_2000-01-01_1148_C0066.mov</name>
							<pathurl>file://localhost/Volumes/aqua/00_Footage/4)%20Wayuu/7-21%20magalys%20and%20healer%202/../7-21%20magalys%20and%20healer/wiblo_1_2000-01-01_1148_C0066.mov</pathurl>
							<rate>
								<timebase>24</timebase>
								<ntsc>TRUE</ntsc>
							</rate>
							<duration>326</duration>
							<timecode>
								<rate>
									<timebase>24</timebase>
									<ntsc>TRUE</ntsc>
								</rate>
								<string>11:48:44:00</string>
								<frame>1020576</frame>
								<displayformat>NDF</displayformat>
							</timecode>
							<media>
								<video>
									<samplecharacteristics>
										<rate>
											<timebase>24</timebase>
											<ntsc>TRUE</ntsc>
										</rate>
										<width>1920</width>
										<height>1080</height>
										<anamorphic>FALSE</anamorphic>
										<pixelaspectratio>square</pixelaspectratio>
										<fielddominance>none</fielddominance>
									</samplecharacteristics>
								</video>
								<audio>
									<samplecharacteristics>
										<depth>16</depth>
										<samplerate>48000</samplerate>
									</samplecharacteristics>
									<channelcount>2</channelcount>
								</audio>
							</media>
						</file>
						<link>
							<linkclipref>clipitem-69</linkclipref>
							<mediatype>video</mediatype>
							<trackindex>1</trackindex>
							<clipindex>69</clipindex>
						</link>
						<link>
							<linkclipref>clipitem-124</linkclipref>
							<mediatype>audio</mediatype>
							<trackindex>1</trackindex>
							<clipindex>21</clipindex>
							<groupindex>1</groupindex>
						</link>
						<link>
							<linkclipref>clipitem-146</linkclipref>
							<mediatype>audio</mediatype>
							<trackindex>2</trackindex>
							<clipindex>21</clipindex>
							<groupindex>1</groupindex>
						</link>
						<logginginfo>
							<description></description>
							<scene></scene>
							<shottake></shottake>
							<lognote></lognote>
							<good></good>
							<originalvideofilename></originalvideofilename>
							<originalaudiofilename></originalaudiofilename>
						</logginginfo>
						<colorinfo>
							<lut></lut>
							<lut1></lut1>
							<asc_sop></asc_sop>
							<asc_sat></asc_sat>
							<lut2></lut2>
						</colorinfo>
						<labels>
							<label2>Rose</label2>
						</labels>
					</clipitem>
					<clipitem id="clipitem-70">
						<masterclipid>masterclip-69</masterclipid>
						<name>julian_1_2021-12-26_1651_C0024.mov</name>
						<enabled>TRUE</enabled>
						<duration>387</duration>
						<rate>
							<timebase>24</timebase>
							<ntsc>TRUE</ntsc>
						</rate>
						<start>50132</start>
						<end>50519</end>
						<in>0</in>
						<out>387</out>
						<pproTicksIn>0</pproTicksIn>
						<pproTicksOut>4100104008000</pproTicksOut>
						<alphatype>none</alphatype>
						<pixelaspectratio>square</pixelaspectratio>
						<anamorphic>FALSE</anamorphic>
						<file id="file-69">
							<name>julian_1_2021-12-26_1651_C0024.mov</name>
							<pathurl>file://localhost/Volumes/aqua/00_Footage/4)%20Wayuu/7-21%20magalys%20and%20healer%202/../7-21%20magalys%20and%20healer/../7-21%20magalys%20and%20piedra/julian_1_2021-12-26_1651_C0024.mov</pathurl>
							<rate>
								<timebase>24</timebase>
								<ntsc>TRUE</ntsc>
							</rate>
							<duration>387</duration>
							<timecode>
								<rate>
									<timebase>24</timebase>
									<ntsc>TRUE</ntsc>
								</rate>
								<string>16:51:00:00</string>
								<frame>1455840</frame>
								<displayformat>NDF</displayformat>
							</timecode>
							<media>
								<video>
									<samplecharacteristics>
										<rate>
											<timebase>24</timebase>
											<ntsc>TRUE</ntsc>
										</rate>
										<width>1920</width>
										<height>1080</height>
										<anamorphic>FALSE</anamorphic>
										<pixelaspectratio>square</pixelaspectratio>
										<fielddominance>none</fielddominance>
									</samplecharacteristics>
								</video>
								<audio>
									<samplecharacteristics>
										<depth>16</depth>
										<samplerate>48000</samplerate>
									</samplecharacteristics>
									<channelcount>2</channelcount>
								</audio>
							</media>
						</file>
						<link>
							<linkclipref>clipitem-70</linkclipref>
							<mediatype>video</mediatype>
							<trackindex>1</trackindex>
							<clipindex>70</clipindex>
						</link>
						<link>
							<linkclipref>clipitem-125</linkclipref>
							<mediatype>audio</mediatype>
							<trackindex>1</trackindex>
							<clipindex>22</clipindex>
							<groupindex>1</groupindex>
						</link>
						<link>
							<linkclipref>clipitem-147</linkclipref>
							<mediatype>audio</mediatype>
							<trackindex>2</trackindex>
							<clipindex>22</clipindex>
							<groupindex>1</groupindex>
						</link>
						<logginginfo>
							<description></description>
							<scene></scene>
							<shottake></shottake>
							<lognote></lognote>
							<good></good>
							<originalvideofilename></originalvideofilename>
							<originalaudiofilename></originalaudiofilename>
						</logginginfo>
						<colorinfo>
							<lut></lut>
							<lut1></lut1>
							<asc_sop></asc_sop>
							<asc_sat></asc_sat>
							<lut2></lut2>
						</colorinfo>
						<labels>
							<label2>Rose</label2>
						</labels>
					</clipitem>
					<enabled>TRUE</enabled>
					<locked>FALSE</locked>
				</track>
				<track TL.SQTrackShy="0" TL.SQTrackExpandedHeight="25" TL.SQTrackExpanded="0" MZ.TrackTargeted="0">
					<clipitem id="clipitem-71">
						<masterclipid>masterclip-70</masterclipid>
						<name>julian_1_2021-12-26_1651_C0025.mov</name>
						<enabled>TRUE</enabled>
						<duration>800</duration>
						<rate>
							<timebase>24</timebase>
							<ntsc>TRUE</ntsc>
						</rate>
						<start>1638</start>
						<end>2438</end>
						<in>0</in>
						<out>800</out>
						<pproTicksIn>0</pproTicksIn>
						<pproTicksOut>8475667200000</pproTicksOut>
						<alphatype>none</alphatype>
						<pixelaspectratio>square</pixelaspectratio>
						<anamorphic>FALSE</anamorphic>
						<file id="file-70">
							<name>julian_1_2021-12-26_1651_C0025.mov</name>
							<pathurl>file://localhost/Volumes/aqua/00_Footage/4)%20Wayuu/7-21%20magalys%20and%20healer%202/../7-21%20magalys%20and%20healer/../7-21%20magalys%20and%20piedra/julian_1_2021-12-26_1651_C0025.mov</pathurl>
							<rate>
								<timebase>24</timebase>
								<ntsc>TRUE</ntsc>
							</rate>
							<duration>800</duration>
							<timecode>
								<rate>
									<timebase>24</timebase>
									<ntsc>TRUE</ntsc>
								</rate>
								<string>16:51:48:00</string>
								<frame>1456992</frame>
								<displayformat>NDF</displayformat>
							</timecode>
							<media>
								<video>
									<samplecharacteristics>
										<rate>
											<timebase>24</timebase>
											<ntsc>TRUE</ntsc>
										</rate>
										<width>1920</width>
										<height>1080</height>
										<anamorphic>FALSE</anamorphic>
										<pixelaspectratio>square</pixelaspectratio>
										<fielddominance>none</fielddominance>
									</samplecharacteristics>
								</video>
								<audio>
									<samplecharacteristics>
										<depth>16</depth>
										<samplerate>48000</samplerate>
									</samplecharacteristics>
									<channelcount>2</channelcount>
								</audio>
							</media>
						</file>
						<logginginfo>
							<description></description>
							<scene></scene>
							<shottake></shottake>
							<lognote></lognote>
							<good></good>
							<originalvideofilename></originalvideofilename>
							<originalaudiofilename></originalaudiofilename>
						</logginginfo>
						<colorinfo>
							<lut></lut>
							<lut1></lut1>
							<asc_sop></asc_sop>
							<asc_sat></asc_sat>
							<lut2></lut2>
						</colorinfo>
						<labels>
							<label2>Iris</label2>
						</labels>
					</clipitem>
					<clipitem id="clipitem-72">
						<masterclipid>masterclip-71</masterclipid>
						<name>julian_1_2021-12-26_1652_C0026.mov</name>
						<enabled>TRUE</enabled>
						<duration>1272</duration>
						<rate>
							<timebase>24</timebase>
							<ntsc>TRUE</ntsc>
						</rate>
						<start>3163</start>
						<end>4435</end>
						<in>0</in>
						<out>1272</out>
						<pproTicksIn>0</pproTicksIn>
						<pproTicksOut>13476310848000</pproTicksOut>
						<alphatype>none</alphatype>
						<pixelaspectratio>square</pixelaspectratio>
						<anamorphic>FALSE</anamorphic>
						<file id="file-71">
							<name>julian_1_2021-12-26_1652_C0026.mov</name>
							<pathurl>file://localhost/Volumes/aqua/00_Footage/4)%20Wayuu/7-21%20magalys%20and%20healer%202/../7-21%20magalys%20and%20healer/../7-21%20magalys%20and%20piedra/julian_1_2021-12-26_1652_C0026.mov</pathurl>
							<rate>
								<timebase>24</timebase>
								<ntsc>TRUE</ntsc>
							</rate>
							<duration>1272</duration>
							<timecode>
								<rate>
									<timebase>24</timebase>
									<ntsc>TRUE</ntsc>
								</rate>
								<string>16:52:51:00</string>
								<frame>1458504</frame>
								<displayformat>NDF</displayformat>
							</timecode>
							<media>
								<video>
									<samplecharacteristics>
										<rate>
											<timebase>24</timebase>
											<ntsc>TRUE</ntsc>
										</rate>
										<width>1920</width>
										<height>1080</height>
										<anamorphic>FALSE</anamorphic>
										<pixelaspectratio>square</pixelaspectratio>
										<fielddominance>none</fielddominance>
									</samplecharacteristics>
								</video>
								<audio>
									<samplecharacteristics>
										<depth>16</depth>
										<samplerate>48000</samplerate>
									</samplecharacteristics>
									<channelcount>2</channelcount>
								</audio>
							</media>
						</file>
						<logginginfo>
							<description></description>
							<scene></scene>
							<shottake></shottake>
							<lognote></lognote>
							<good></good>
							<originalvideofilename></originalvideofilename>
							<originalaudiofilename></originalaudiofilename>
						</logginginfo>
						<colorinfo>
							<lut></lut>
							<lut1></lut1>
							<asc_sop></asc_sop>
							<asc_sat></asc_sat>
							<lut2></lut2>
						</colorinfo>
						<labels>
							<label2>Iris</label2>
						</labels>
					</clipitem>
					<clipitem id="clipitem-73">
						<masterclipid>masterclip-72</masterclipid>
						<name>julian_1_2021-12-26_1654_C0027.mov</name>
						<enabled>TRUE</enabled>
						<duration>518</duration>
						<rate>
							<timebase>24</timebase>
							<ntsc>TRUE</ntsc>
						</rate>
						<start>5383</start>
						<end>5901</end>
						<in>0</in>
						<out>518</out>
						<pproTicksIn>0</pproTicksIn>
						<pproTicksOut>5487994512000</pproTicksOut>
						<alphatype>none</alphatype>
						<pixelaspectratio>square</pixelaspectratio>
						<anamorphic>FALSE</anamorphic>
						<file id="file-72">
							<name>julian_1_2021-12-26_1654_C0027.mov</name>
							<pathurl>file://localhost/Volumes/aqua/00_Footage/4)%20Wayuu/7-21%20magalys%20and%20healer%202/../7-21%20magalys%20and%20healer/../7-21%20magalys%20and%20piedra/julian_1_2021-12-26_1654_C0027.mov</pathurl>
							<rate>
								<timebase>24</timebase>
								<ntsc>TRUE</ntsc>
							</rate>
							<duration>518</duration>
							<timecode>
								<rate>
									<timebase>24</timebase>
									<ntsc>TRUE</ntsc>
								</rate>
								<string>16:54:24:00</string>
								<frame>1460736</frame>
								<displayformat>NDF</displayformat>
							</timecode>
							<media>
								<video>
									<samplecharacteristics>
										<rate>
											<timebase>24</timebase>
											<ntsc>TRUE</ntsc>
										</rate>
										<width>1920</width>
										<height>1080</height>
										<anamorphic>FALSE</anamorphic>
										<pixelaspectratio>square</pixelaspectratio>
										<fielddominance>none</fielddominance>
									</samplecharacteristics>
								</video>
								<audio>
									<samplecharacteristics>
										<depth>16</depth>
										<samplerate>48000</samplerate>
									</samplecharacteristics>
									<channelcount>2</channelcount>
								</audio>
							</media>
						</file>
						<logginginfo>
							<description></description>
							<scene></scene>
							<shottake></shottake>
							<lognote></lognote>
							<good></good>
							<originalvideofilename></originalvideofilename>
							<originalaudiofilename></originalaudiofilename>
						</logginginfo>
						<colorinfo>
							<lut></lut>
							<lut1></lut1>
							<asc_sop></asc_sop>
							<asc_sat></asc_sat>
							<lut2></lut2>
						</colorinfo>
						<labels>
							<label2>Iris</label2>
						</labels>
					</clipitem>
					<clipitem id="clipitem-74">
						<masterclipid>masterclip-73</masterclipid>
						<name>julian_1_2021-12-26_1655_C0028.mov</name>
						<enabled>TRUE</enabled>
						<duration>401</duration>
						<rate>
							<timebase>24</timebase>
							<ntsc>TRUE</ntsc>
						</rate>
						<start>6711</start>
						<end>7112</end>
						<in>0</in>
						<out>401</out>
						<pproTicksIn>0</pproTicksIn>
						<pproTicksOut>4248428184000</pproTicksOut>
						<alphatype>none</alphatype>
						<pixelaspectratio>square</pixelaspectratio>
						<anamorphic>FALSE</anamorphic>
						<file id="file-73">
							<name>julian_1_2021-12-26_1655_C0028.mov</name>
							<pathurl>file://localhost/Volumes/aqua/00_Footage/4)%20Wayuu/7-21%20magalys%20and%20healer%202/../7-21%20magalys%20and%20healer/../7-21%20magalys%20and%20piedra/julian_1_2021-12-26_1655_C0028.mov</pathurl>
							<rate>
								<timebase>24</timebase>
								<ntsc>TRUE</ntsc>
							</rate>
							<duration>401</duration>
							<timecode>
								<rate>
									<timebase>24</timebase>
									<ntsc>TRUE</ntsc>
								</rate>
								<string>16:55:19:00</string>
								<frame>1462056</frame>
								<displayformat>NDF</displayformat>
							</timecode>
							<media>
								<video>
									<samplecharacteristics>
										<rate>
											<timebase>24</timebase>
											<ntsc>TRUE</ntsc>
										</rate>
										<width>1920</width>
										<height>1080</height>
										<anamorphic>FALSE</anamorphic>
										<pixelaspectratio>square</pixelaspectratio>
										<fielddominance>none</fielddominance>
									</samplecharacteristics>
								</video>
								<audio>
									<samplecharacteristics>
										<depth>16</depth>
										<samplerate>48000</samplerate>
									</samplecharacteristics>
									<channelcount>2</channelcount>
								</audio>
							</media>
						</file>
						<logginginfo>
							<description></description>
							<scene></scene>
							<shottake></shottake>
							<lognote></lognote>
							<good></good>
							<originalvideofilename></originalvideofilename>
							<originalaudiofilename></originalaudiofilename>
						</logginginfo>
						<colorinfo>
							<lut></lut>
							<lut1></lut1>
							<asc_sop></asc_sop>
							<asc_sat></asc_sat>
							<lut2></lut2>
						</colorinfo>
						<labels>
							<label2>Iris</label2>
						</labels>
					</clipitem>
					<clipitem id="clipitem-75">
						<masterclipid>masterclip-74</masterclipid>
						<name>julian_1_2021-12-26_1655_C0029.mov</name>
						<enabled>TRUE</enabled>
						<duration>416</duration>
						<rate>
							<timebase>24</timebase>
							<ntsc>TRUE</ntsc>
						</rate>
						<start>7671</start>
						<end>8087</end>
						<in>0</in>
						<out>416</out>
						<pproTicksIn>0</pproTicksIn>
						<pproTicksOut>4407346944000</pproTicksOut>
						<alphatype>none</alphatype>
						<pixelaspectratio>square</pixelaspectratio>
						<anamorphic>FALSE</anamorphic>
						<file id="file-74">
							<name>julian_1_2021-12-26_1655_C0029.mov</name>
							<pathurl>file://localhost/Volumes/aqua/00_Footage/4)%20Wayuu/7-21%20magalys%20and%20healer%202/../7-21%20magalys%20and%20healer/../7-21%20magalys%20and%20piedra/julian_1_2021-12-26_1655_C0029.mov</pathurl>
							<rate>
								<timebase>24</timebase>
								<ntsc>TRUE</ntsc>
							</rate>
							<duration>416</duration>
							<timecode>
								<rate>
									<timebase>24</timebase>
									<ntsc>TRUE</ntsc>
								</rate>
								<string>16:55:59:00</string>
								<frame>1463016</frame>
								<displayformat>NDF</displayformat>
							</timecode>
							<media>
								<video>
									<samplecharacteristics>
										<rate>
											<timebase>24</timebase>
											<ntsc>TRUE</ntsc>
										</rate>
										<width>1920</width>
										<height>1080</height>
										<anamorphic>FALSE</anamorphic>
										<pixelaspectratio>square</pixelaspectratio>
										<fielddominance>none</fielddominance>
									</samplecharacteristics>
								</video>
								<audio>
									<samplecharacteristics>
										<depth>16</depth>
										<samplerate>48000</samplerate>
									</samplecharacteristics>
									<channelcount>2</channelcount>
								</audio>
							</media>
						</file>
						<logginginfo>
							<description></description>
							<scene></scene>
							<shottake></shottake>
							<lognote></lognote>
							<good></good>
							<originalvideofilename></originalvideofilename>
							<originalaudiofilename></originalaudiofilename>
						</logginginfo>
						<colorinfo>
							<lut></lut>
							<lut1></lut1>
							<asc_sop></asc_sop>
							<asc_sat></asc_sat>
							<lut2></lut2>
						</colorinfo>
						<labels>
							<label2>Iris</label2>
						</labels>
					</clipitem>
					<clipitem id="clipitem-76">
						<masterclipid>masterclip-75</masterclipid>
						<name>julian_1_2021-12-26_1656_C0030.mov</name>
						<enabled>TRUE</enabled>
						<duration>674</duration>
						<rate>
							<timebase>24</timebase>
							<ntsc>TRUE</ntsc>
						</rate>
						<start>8197</start>
						<end>8871</end>
						<in>0</in>
						<out>674</out>
						<pproTicksIn>0</pproTicksIn>
						<pproTicksOut>7140749616000</pproTicksOut>
						<alphatype>none</alphatype>
						<pixelaspectratio>square</pixelaspectratio>
						<anamorphic>FALSE</anamorphic>
						<file id="file-75">
							<name>julian_1_2021-12-26_1656_C0030.mov</name>
							<pathurl>file://localhost/Volumes/aqua/00_Footage/4)%20Wayuu/7-21%20magalys%20and%20healer%202/../7-21%20magalys%20and%20healer/../7-21%20magalys%20and%20piedra/julian_1_2021-12-26_1656_C0030.mov</pathurl>
							<rate>
								<timebase>24</timebase>
								<ntsc>TRUE</ntsc>
							</rate>
							<duration>674</duration>
							<timecode>
								<rate>
									<timebase>24</timebase>
									<ntsc>TRUE</ntsc>
								</rate>
								<string>16:56:21:00</string>
								<frame>1463544</frame>
								<displayformat>NDF</displayformat>
							</timecode>
							<media>
								<video>
									<samplecharacteristics>
										<rate>
											<timebase>24</timebase>
											<ntsc>TRUE</ntsc>
										</rate>
										<width>1920</width>
										<height>1080</height>
										<anamorphic>FALSE</anamorphic>
										<pixelaspectratio>square</pixelaspectratio>
										<fielddominance>none</fielddominance>
									</samplecharacteristics>
								</video>
								<audio>
									<samplecharacteristics>
										<depth>16</depth>
										<samplerate>48000</samplerate>
									</samplecharacteristics>
									<channelcount>2</channelcount>
								</audio>
							</media>
						</file>
						<logginginfo>
							<description></description>
							<scene></scene>
							<shottake></shottake>
							<lognote></lognote>
							<good></good>
							<originalvideofilename></originalvideofilename>
							<originalaudiofilename></originalaudiofilename>
						</logginginfo>
						<colorinfo>
							<lut></lut>
							<lut1></lut1>
							<asc_sop></asc_sop>
							<asc_sat></asc_sat>
							<lut2></lut2>
						</colorinfo>
						<labels>
							<label2>Iris</label2>
						</labels>
					</clipitem>
					<clipitem id="clipitem-77">
						<masterclipid>masterclip-76</masterclipid>
						<name>julian_1_2021-12-26_1657_C0031.mov</name>
						<enabled>TRUE</enabled>
						<duration>1153</duration>
						<rate>
							<timebase>24</timebase>
							<ntsc>TRUE</ntsc>
						</rate>
						<start>9944</start>
						<end>11097</end>
						<in>0</in>
						<out>1153</out>
						<pproTicksIn>0</pproTicksIn>
						<pproTicksOut>12215555352000</pproTicksOut>
						<alphatype>none</alphatype>
						<pixelaspectratio>square</pixelaspectratio>
						<anamorphic>FALSE</anamorphic>
						<file id="file-76">
							<name>julian_1_2021-12-26_1657_C0031.mov</name>
							<pathurl>file://localhost/Volumes/aqua/00_Footage/4)%20Wayuu/7-21%20magalys%20and%20healer%202/../7-21%20magalys%20and%20healer/../7-21%20magalys%20and%20piedra/julian_1_2021-12-26_1657_C0031.mov</pathurl>
							<rate>
								<timebase>24</timebase>
								<ntsc>TRUE</ntsc>
							</rate>
							<duration>1153</duration>
							<timecode>
								<rate>
									<timebase>24</timebase>
									<ntsc>TRUE</ntsc>
								</rate>
								<string>16:57:34:00</string>
								<frame>1465296</frame>
								<displayformat>NDF</displayformat>
							</timecode>
							<media>
								<video>
									<samplecharacteristics>
										<rate>
											<timebase>24</timebase>
											<ntsc>TRUE</ntsc>
										</rate>
										<width>1920</width>
										<height>1080</height>
										<anamorphic>FALSE</anamorphic>
										<pixelaspectratio>square</pixelaspectratio>
										<fielddominance>none</fielddominance>
									</samplecharacteristics>
								</video>
								<audio>
									<samplecharacteristics>
										<depth>16</depth>
										<samplerate>48000</samplerate>
									</samplecharacteristics>
									<channelcount>2</channelcount>
								</audio>
							</media>
						</file>
						<logginginfo>
							<description></description>
							<scene></scene>
							<shottake></shottake>
							<lognote></lognote>
							<good></good>
							<originalvideofilename></originalvideofilename>
							<originalaudiofilename></originalaudiofilename>
						</logginginfo>
						<colorinfo>
							<lut></lut>
							<lut1></lut1>
							<asc_sop></asc_sop>
							<asc_sat></asc_sat>
							<lut2></lut2>
						</colorinfo>
						<labels>
							<label2>Iris</label2>
						</labels>
					</clipitem>
					<clipitem id="clipitem-78">
						<masterclipid>masterclip-77</masterclipid>
						<name>julian_1_2021-12-26_1700_C0032.mov</name>
						<enabled>TRUE</enabled>
						<duration>934</duration>
						<rate>
							<timebase>24</timebase>
							<ntsc>TRUE</ntsc>
						</rate>
						<start>14561</start>
						<end>15495</end>
						<in>0</in>
						<out>934</out>
						<pproTicksIn>0</pproTicksIn>
						<pproTicksOut>9895341456000</pproTicksOut>
						<alphatype>none</alphatype>
						<pixelaspectratio>square</pixelaspectratio>
						<anamorphic>FALSE</anamorphic>
						<file id="file-77">
							<name>julian_1_2021-12-26_1700_C0032.mov</name>
							<pathurl>file://localhost/Volumes/aqua/00_Footage/4)%20Wayuu/7-21%20magalys%20and%20healer%202/../7-21%20magalys%20and%20healer/../7-21%20magalys%20and%20piedra/julian_1_2021-12-26_1700_C0032.mov</pathurl>
							<rate>
								<timebase>24</timebase>
								<ntsc>TRUE</ntsc>
							</rate>
							<duration>934</duration>
							<timecode>
								<rate>
									<timebase>24</timebase>
									<ntsc>TRUE</ntsc>
								</rate>
								<string>17:00:47:00</string>
								<frame>1469928</frame>
								<displayformat>NDF</displayformat>
							</timecode>
							<media>
								<video>
									<samplecharacteristics>
										<rate>
											<timebase>24</timebase>
											<ntsc>TRUE</ntsc>
										</rate>
										<width>1920</width>
										<height>1080</height>
										<anamorphic>FALSE</anamorphic>
										<pixelaspectratio>square</pixelaspectratio>
										<fielddominance>none</fielddominance>
									</samplecharacteristics>
								</video>
								<audio>
									<samplecharacteristics>
										<depth>16</depth>
										<samplerate>48000</samplerate>
									</samplecharacteristics>
									<channelcount>2</channelcount>
								</audio>
							</media>
						</file>
						<logginginfo>
							<description></description>
							<scene></scene>
							<shottake></shottake>
							<lognote></lognote>
							<good></good>
							<originalvideofilename></originalvideofilename>
							<originalaudiofilename></originalaudiofilename>
						</logginginfo>
						<colorinfo>
							<lut></lut>
							<lut1></lut1>
							<asc_sop></asc_sop>
							<asc_sat></asc_sat>
							<lut2></lut2>
						</colorinfo>
						<labels>
							<label2>Iris</label2>
						</labels>
					</clipitem>
					<clipitem id="clipitem-79">
						<masterclipid>masterclip-78</masterclipid>
						<name>julian_1_2021-12-26_1703_C0033.mov</name>
						<enabled>TRUE</enabled>
						<duration>219</duration>
						<rate>
							<timebase>24</timebase>
							<ntsc>TRUE</ntsc>
						</rate>
						<start>18698</start>
						<end>18917</end>
						<in>0</in>
						<out>219</out>
						<pproTicksIn>0</pproTicksIn>
						<pproTicksOut>2320213896000</pproTicksOut>
						<alphatype>none</alphatype>
						<pixelaspectratio>square</pixelaspectratio>
						<anamorphic>FALSE</anamorphic>
						<file id="file-78">
							<name>julian_1_2021-12-26_1703_C0033.mov</name>
							<pathurl>file://localhost/Volumes/aqua/00_Footage/4)%20Wayuu/7-21%20magalys%20and%20healer%202/../7-21%20magalys%20and%20healer/../7-21%20magalys%20and%20piedra/julian_1_2021-12-26_1703_C0033.mov</pathurl>
							<rate>
								<timebase>24</timebase>
								<ntsc>TRUE</ntsc>
							</rate>
							<duration>219</duration>
							<timecode>
								<rate>
									<timebase>24</timebase>
									<ntsc>TRUE</ntsc>
								</rate>
								<string>17:03:39:00</string>
								<frame>1474056</frame>
								<displayformat>NDF</displayformat>
							</timecode>
							<media>
								<video>
									<samplecharacteristics>
										<rate>
											<timebase>24</timebase>
											<ntsc>TRUE</ntsc>
										</rate>
										<width>1920</width>
										<height>1080</height>
										<anamorphic>FALSE</anamorphic>
										<pixelaspectratio>square</pixelaspectratio>
										<fielddominance>none</fielddominance>
									</samplecharacteristics>
								</video>
								<audio>
									<samplecharacteristics>
										<depth>16</depth>
										<samplerate>48000</samplerate>
									</samplecharacteristics>
									<channelcount>2</channelcount>
								</audio>
							</media>
						</file>
						<logginginfo>
							<description></description>
							<scene></scene>
							<shottake></shottake>
							<lognote></lognote>
							<good></good>
							<originalvideofilename></originalvideofilename>
							<originalaudiofilename></originalaudiofilename>
						</logginginfo>
						<colorinfo>
							<lut></lut>
							<lut1></lut1>
							<asc_sop></asc_sop>
							<asc_sat></asc_sat>
							<lut2></lut2>
						</colorinfo>
						<labels>
							<label2>Iris</label2>
						</labels>
					</clipitem>
					<clipitem id="clipitem-80">
						<masterclipid>masterclip-79</masterclipid>
						<name>julian_1_2021-12-26_1705_C0034.mov</name>
						<enabled>TRUE</enabled>
						<duration>106</duration>
						<rate>
							<timebase>24</timebase>
							<ntsc>TRUE</ntsc>
						</rate>
						<start>21469</start>
						<end>21575</end>
						<in>0</in>
						<out>106</out>
						<pproTicksIn>0</pproTicksIn>
						<pproTicksOut>1123025904000</pproTicksOut>
						<alphatype>none</alphatype>
						<pixelaspectratio>square</pixelaspectratio>
						<anamorphic>FALSE</anamorphic>
						<file id="file-79">
							<name>julian_1_2021-12-26_1705_C0034.mov</name>
							<pathurl>file://localhost/Volumes/aqua/00_Footage/4)%20Wayuu/7-21%20magalys%20and%20healer%202/../7-21%20magalys%20and%20healer/../7-21%20magalys%20and%20piedra/julian_1_2021-12-26_1705_C0034.mov</pathurl>
							<rate>
								<timebase>24</timebase>
								<ntsc>TRUE</ntsc>
							</rate>
							<duration>106</duration>
							<timecode>
								<rate>
									<timebase>24</timebase>
									<ntsc>TRUE</ntsc>
								</rate>
								<string>17:05:35:00</string>
								<frame>1476840</frame>
								<displayformat>NDF</displayformat>
							</timecode>
							<media>
								<video>
									<samplecharacteristics>
										<rate>
											<timebase>24</timebase>
											<ntsc>TRUE</ntsc>
										</rate>
										<width>1920</width>
										<height>1080</height>
										<anamorphic>FALSE</anamorphic>
										<pixelaspectratio>square</pixelaspectratio>
										<fielddominance>none</fielddominance>
									</samplecharacteristics>
								</video>
								<audio>
									<samplecharacteristics>
										<depth>16</depth>
										<samplerate>48000</samplerate>
									</samplecharacteristics>
									<channelcount>2</channelcount>
								</audio>
							</media>
						</file>
						<logginginfo>
							<description></description>
							<scene></scene>
							<shottake></shottake>
							<lognote></lognote>
							<good></good>
							<originalvideofilename></originalvideofilename>
							<originalaudiofilename></originalaudiofilename>
						</logginginfo>
						<colorinfo>
							<lut></lut>
							<lut1></lut1>
							<asc_sop></asc_sop>
							<asc_sat></asc_sat>
							<lut2></lut2>
						</colorinfo>
						<labels>
							<label2>Iris</label2>
						</labels>
					</clipitem>
					<clipitem id="clipitem-81">
						<masterclipid>masterclip-80</masterclipid>
						<name>julian_1_2021-12-26_1705_C0035.mov</name>
						<enabled>TRUE</enabled>
						<duration>38</duration>
						<rate>
							<timebase>24</timebase>
							<ntsc>TRUE</ntsc>
						</rate>
						<start>21781</start>
						<end>21819</end>
						<in>0</in>
						<out>38</out>
						<pproTicksIn>0</pproTicksIn>
						<pproTicksOut>402594192000</pproTicksOut>
						<alphatype>none</alphatype>
						<pixelaspectratio>square</pixelaspectratio>
						<anamorphic>FALSE</anamorphic>
						<file id="file-80">
							<name>julian_1_2021-12-26_1705_C0035.mov</name>
							<pathurl>file://localhost/Volumes/aqua/00_Footage/4)%20Wayuu/7-21%20magalys%20and%20healer%202/../7-21%20magalys%20and%20healer/../7-21%20magalys%20and%20piedra/julian_1_2021-12-26_1705_C0035.mov</pathurl>
							<rate>
								<timebase>24</timebase>
								<ntsc>TRUE</ntsc>
							</rate>
							<duration>38</duration>
							<timecode>
								<rate>
									<timebase>24</timebase>
									<ntsc>TRUE</ntsc>
								</rate>
								<string>17:05:48:00</string>
								<frame>1477152</frame>
								<displayformat>NDF</displayformat>
							</timecode>
							<media>
								<video>
									<samplecharacteristics>
										<rate>
											<timebase>24</timebase>
											<ntsc>TRUE</ntsc>
										</rate>
										<width>1920</width>
										<height>1080</height>
										<anamorphic>FALSE</anamorphic>
										<pixelaspectratio>square</pixelaspectratio>
										<fielddominance>none</fielddominance>
									</samplecharacteristics>
								</video>
								<audio>
									<samplecharacteristics>
										<depth>16</depth>
										<samplerate>48000</samplerate>
									</samplecharacteristics>
									<channelcount>2</channelcount>
								</audio>
							</media>
						</file>
						<logginginfo>
							<description></description>
							<scene></scene>
							<shottake></shottake>
							<lognote></lognote>
							<good></good>
							<originalvideofilename></originalvideofilename>
							<originalaudiofilename></originalaudiofilename>
						</logginginfo>
						<colorinfo>
							<lut></lut>
							<lut1></lut1>
							<asc_sop></asc_sop>
							<asc_sat></asc_sat>
							<lut2></lut2>
						</colorinfo>
						<labels>
							<label2>Rose</label2>
						</labels>
					</clipitem>
					<clipitem id="clipitem-82">
						<masterclipid>masterclip-81</masterclipid>
						<name>julian_1_2021-12-26_1706_C0036.mov</name>
						<enabled>TRUE</enabled>
						<duration>538</duration>
						<rate>
							<timebase>24</timebase>
							<ntsc>TRUE</ntsc>
						</rate>
						<start>23027</start>
						<end>23565</end>
						<in>0</in>
						<out>538</out>
						<pproTicksIn>0</pproTicksIn>
						<pproTicksOut>5699886192000</pproTicksOut>
						<alphatype>none</alphatype>
						<pixelaspectratio>square</pixelaspectratio>
						<anamorphic>FALSE</anamorphic>
						<file id="file-81">
							<name>julian_1_2021-12-26_1706_C0036.mov</name>
							<pathurl>file://localhost/Volumes/aqua/00_Footage/4)%20Wayuu/7-21%20magalys%20and%20healer%202/../7-21%20magalys%20and%20healer/../7-21%20magalys%20and%20piedra/julian_1_2021-12-26_1706_C0036.mov</pathurl>
							<rate>
								<timebase>24</timebase>
								<ntsc>TRUE</ntsc>
							</rate>
							<duration>538</duration>
							<timecode>
								<rate>
									<timebase>24</timebase>
									<ntsc>TRUE</ntsc>
								</rate>
								<string>17:06:40:00</string>
								<frame>1478400</frame>
								<displayformat>NDF</displayformat>
							</timecode>
							<media>
								<video>
									<samplecharacteristics>
										<rate>
											<timebase>24</timebase>
											<ntsc>TRUE</ntsc>
										</rate>
										<width>1920</width>
										<height>1080</height>
										<anamorphic>FALSE</anamorphic>
										<pixelaspectratio>square</pixelaspectratio>
										<fielddominance>none</fielddominance>
									</samplecharacteristics>
								</video>
								<audio>
									<samplecharacteristics>
										<depth>16</depth>
										<samplerate>48000</samplerate>
									</samplecharacteristics>
									<channelcount>2</channelcount>
								</audio>
							</media>
						</file>
						<logginginfo>
							<description></description>
							<scene></scene>
							<shottake></shottake>
							<lognote></lognote>
							<good></good>
							<originalvideofilename></originalvideofilename>
							<originalaudiofilename></originalaudiofilename>
						</logginginfo>
						<colorinfo>
							<lut></lut>
							<lut1></lut1>
							<asc_sop></asc_sop>
							<asc_sat></asc_sat>
							<lut2></lut2>
						</colorinfo>
						<labels>
							<label2>Iris</label2>
						</labels>
					</clipitem>
					<clipitem id="clipitem-83">
						<masterclipid>masterclip-82</masterclipid>
						<name>julian_1_2021-12-26_1710_C0037.mov</name>
						<enabled>TRUE</enabled>
						<duration>208</duration>
						<rate>
							<timebase>24</timebase>
							<ntsc>TRUE</ntsc>
						</rate>
						<start>27942</start>
						<end>28150</end>
						<in>0</in>
						<out>208</out>
						<pproTicksIn>0</pproTicksIn>
						<pproTicksOut>2203673472000</pproTicksOut>
						<alphatype>none</alphatype>
						<pixelaspectratio>square</pixelaspectratio>
						<anamorphic>FALSE</anamorphic>
						<file id="file-82">
							<name>julian_1_2021-12-26_1710_C0037.mov</name>
							<pathurl>file://localhost/Volumes/aqua/00_Footage/4)%20Wayuu/7-21%20magalys%20and%20healer%202/../7-21%20magalys%20and%20healer/../7-21%20magalys%20and%20piedra/julian_1_2021-12-26_1710_C0037.mov</pathurl>
							<rate>
								<timebase>24</timebase>
								<ntsc>TRUE</ntsc>
							</rate>
							<duration>208</duration>
							<timecode>
								<rate>
									<timebase>24</timebase>
									<ntsc>TRUE</ntsc>
								</rate>
								<string>17:10:05:00</string>
								<frame>1483320</frame>
								<displayformat>NDF</displayformat>
							</timecode>
							<media>
								<video>
									<samplecharacteristics>
										<rate>
											<timebase>24</timebase>
											<ntsc>TRUE</ntsc>
										</rate>
										<width>1920</width>
										<height>1080</height>
										<anamorphic>FALSE</anamorphic>
										<pixelaspectratio>square</pixelaspectratio>
										<fielddominance>none</fielddominance>
									</samplecharacteristics>
								</video>
								<audio>
									<samplecharacteristics>
										<depth>16</depth>
										<samplerate>48000</samplerate>
									</samplecharacteristics>
									<channelcount>2</channelcount>
								</audio>
							</media>
						</file>
						<logginginfo>
							<description></description>
							<scene></scene>
							<shottake></shottake>
							<lognote></lognote>
							<good></good>
							<originalvideofilename></originalvideofilename>
							<originalaudiofilename></originalaudiofilename>
						</logginginfo>
						<colorinfo>
							<lut></lut>
							<lut1></lut1>
							<asc_sop></asc_sop>
							<asc_sat></asc_sat>
							<lut2></lut2>
						</colorinfo>
						<labels>
							<label2>Rose</label2>
						</labels>
					</clipitem>
					<clipitem id="clipitem-84">
						<masterclipid>masterclip-83</masterclipid>
						<name>julian_1_2021-12-26_1711_C0038.mov</name>
						<enabled>TRUE</enabled>
						<duration>87</duration>
						<rate>
							<timebase>24</timebase>
							<ntsc>TRUE</ntsc>
						</rate>
						<start>30107</start>
						<end>30194</end>
						<in>0</in>
						<out>87</out>
						<pproTicksIn>0</pproTicksIn>
						<pproTicksOut>921728808000</pproTicksOut>
						<alphatype>none</alphatype>
						<pixelaspectratio>square</pixelaspectratio>
						<anamorphic>FALSE</anamorphic>
						<file id="file-83">
							<name>julian_1_2021-12-26_1711_C0038.mov</name>
							<pathurl>file://localhost/Volumes/aqua/00_Footage/4)%20Wayuu/7-21%20magalys%20and%20healer%202/../7-21%20magalys%20and%20healer/../7-21%20magalys%20and%20piedra/julian_1_2021-12-26_1711_C0038.mov</pathurl>
							<rate>
								<timebase>24</timebase>
								<ntsc>TRUE</ntsc>
							</rate>
							<duration>87</duration>
							<timecode>
								<rate>
									<timebase>24</timebase>
									<ntsc>TRUE</ntsc>
								</rate>
								<string>17:11:35:00</string>
								<frame>1485480</frame>
								<displayformat>NDF</displayformat>
							</timecode>
							<media>
								<video>
									<samplecharacteristics>
										<rate>
											<timebase>24</timebase>
											<ntsc>TRUE</ntsc>
										</rate>
										<width>1920</width>
										<height>1080</height>
										<anamorphic>FALSE</anamorphic>
										<pixelaspectratio>square</pixelaspectratio>
										<fielddominance>none</fielddominance>
									</samplecharacteristics>
								</video>
								<audio>
									<samplecharacteristics>
										<depth>16</depth>
										<samplerate>48000</samplerate>
									</samplecharacteristics>
									<channelcount>2</channelcount>
								</audio>
							</media>
						</file>
						<logginginfo>
							<description></description>
							<scene></scene>
							<shottake></shottake>
							<lognote></lognote>
							<good></good>
							<originalvideofilename></originalvideofilename>
							<originalaudiofilename></originalaudiofilename>
						</logginginfo>
						<colorinfo>
							<lut></lut>
							<lut1></lut1>
							<asc_sop></asc_sop>
							<asc_sat></asc_sat>
							<lut2></lut2>
						</colorinfo>
						<labels>
							<label2>Rose</label2>
						</labels>
					</clipitem>
					<clipitem id="clipitem-85">
						<masterclipid>masterclip-84</masterclipid>
						<name>julian_1_2021-12-26_1713_C0039.mov</name>
						<enabled>TRUE</enabled>
						<duration>480</duration>
						<rate>
							<timebase>24</timebase>
							<ntsc>TRUE</ntsc>
						</rate>
						<start>32960</start>
						<end>33440</end>
						<in>0</in>
						<out>480</out>
						<pproTicksIn>0</pproTicksIn>
						<pproTicksOut>5085400320000</pproTicksOut>
						<alphatype>none</alphatype>
						<pixelaspectratio>square</pixelaspectratio>
						<anamorphic>FALSE</anamorphic>
						<file id="file-84">
							<name>julian_1_2021-12-26_1713_C0039.mov</name>
							<pathurl>file://localhost/Volumes/aqua/00_Footage/4)%20Wayuu/7-21%20magalys%20and%20healer%202/../7-21%20magalys%20and%20healer/../7-21%20magalys%20and%20piedra/julian_1_2021-12-26_1713_C0039.mov</pathurl>
							<rate>
								<timebase>24</timebase>
								<ntsc>TRUE</ntsc>
							</rate>
							<duration>480</duration>
							<timecode>
								<rate>
									<timebase>24</timebase>
									<ntsc>TRUE</ntsc>
								</rate>
								<string>17:13:34:00</string>
								<frame>1488336</frame>
								<displayformat>NDF</displayformat>
							</timecode>
							<media>
								<video>
									<samplecharacteristics>
										<rate>
											<timebase>24</timebase>
											<ntsc>TRUE</ntsc>
										</rate>
										<width>1920</width>
										<height>1080</height>
										<anamorphic>FALSE</anamorphic>
										<pixelaspectratio>square</pixelaspectratio>
										<fielddominance>none</fielddominance>
									</samplecharacteristics>
								</video>
								<audio>
									<samplecharacteristics>
										<depth>16</depth>
										<samplerate>48000</samplerate>
									</samplecharacteristics>
									<channelcount>2</channelcount>
								</audio>
							</media>
						</file>
						<logginginfo>
							<description></description>
							<scene></scene>
							<shottake></shottake>
							<lognote></lognote>
							<good></good>
							<originalvideofilename></originalvideofilename>
							<originalaudiofilename></originalaudiofilename>
						</logginginfo>
						<colorinfo>
							<lut></lut>
							<lut1></lut1>
							<asc_sop></asc_sop>
							<asc_sat></asc_sat>
							<lut2></lut2>
						</colorinfo>
						<labels>
							<label2>Rose</label2>
						</labels>
					</clipitem>
					<clipitem id="clipitem-86">
						<masterclipid>masterclip-85</masterclipid>
						<name>julian_1_2021-12-26_1713_C0040.mov</name>
						<enabled>TRUE</enabled>
						<duration>631</duration>
						<rate>
							<timebase>24</timebase>
							<ntsc>TRUE</ntsc>
						</rate>
						<start>33487</start>
						<end>34118</end>
						<in>0</in>
						<out>631</out>
						<pproTicksIn>0</pproTicksIn>
						<pproTicksOut>6685182504000</pproTicksOut>
						<alphatype>none</alphatype>
						<pixelaspectratio>square</pixelaspectratio>
						<anamorphic>FALSE</anamorphic>
						<file id="file-85">
							<name>julian_1_2021-12-26_1713_C0040.mov</name>
							<pathurl>file://localhost/Volumes/aqua/00_Footage/4)%20Wayuu/7-21%20magalys%20and%20healer%202/../7-21%20magalys%20and%20healer/../7-21%20magalys%20and%20piedra/julian_1_2021-12-26_1713_C0040.mov</pathurl>
							<rate>
								<timebase>24</timebase>
								<ntsc>TRUE</ntsc>
							</rate>
							<duration>631</duration>
							<timecode>
								<rate>
									<timebase>24</timebase>
									<ntsc>TRUE</ntsc>
								</rate>
								<string>17:13:56:00</string>
								<frame>1488864</frame>
								<displayformat>NDF</displayformat>
							</timecode>
							<media>
								<video>
									<samplecharacteristics>
										<rate>
											<timebase>24</timebase>
											<ntsc>TRUE</ntsc>
										</rate>
										<width>1920</width>
										<height>1080</height>
										<anamorphic>FALSE</anamorphic>
										<pixelaspectratio>square</pixelaspectratio>
										<fielddominance>none</fielddominance>
									</samplecharacteristics>
								</video>
								<audio>
									<samplecharacteristics>
										<depth>16</depth>
										<samplerate>48000</samplerate>
									</samplecharacteristics>
									<channelcount>2</channelcount>
								</audio>
							</media>
						</file>
						<logginginfo>
							<description></description>
							<scene></scene>
							<shottake></shottake>
							<lognote></lognote>
							<good></good>
							<originalvideofilename></originalvideofilename>
							<originalaudiofilename></originalaudiofilename>
						</logginginfo>
						<colorinfo>
							<lut></lut>
							<lut1></lut1>
							<asc_sop></asc_sop>
							<asc_sat></asc_sat>
							<lut2></lut2>
						</colorinfo>
						<labels>
							<label2>Iris</label2>
						</labels>
					</clipitem>
					<clipitem id="clipitem-87">
						<masterclipid>masterclip-86</masterclipid>
						<name>julian_1_2021-12-26_1648_C0021.mov</name>
						<enabled>TRUE</enabled>
						<duration>190</duration>
						<rate>
							<timebase>24</timebase>
							<ntsc>TRUE</ntsc>
						</rate>
						<start>48207</start>
						<end>48397</end>
						<in>0</in>
						<out>190</out>
						<pproTicksIn>0</pproTicksIn>
						<pproTicksOut>2012970960000</pproTicksOut>
						<alphatype>none</alphatype>
						<pixelaspectratio>square</pixelaspectratio>
						<anamorphic>FALSE</anamorphic>
						<file id="file-86">
							<name>julian_1_2021-12-26_1648_C0021.mov</name>
							<pathurl>file://localhost/Volumes/aqua/00_Footage/4)%20Wayuu/7-21%20magalys%20and%20healer%202/../7-21%20magalys%20and%20healer/../7-21%20magalys%20and%20piedra/julian_1_2021-12-26_1648_C0021.mov</pathurl>
							<rate>
								<timebase>24</timebase>
								<ntsc>TRUE</ntsc>
							</rate>
							<duration>190</duration>
							<timecode>
								<rate>
									<timebase>24</timebase>
									<ntsc>TRUE</ntsc>
								</rate>
								<string>16:48:29:00</string>
								<frame>1452216</frame>
								<displayformat>NDF</displayformat>
							</timecode>
							<media>
								<video>
									<samplecharacteristics>
										<rate>
											<timebase>24</timebase>
											<ntsc>TRUE</ntsc>
										</rate>
										<width>1920</width>
										<height>1080</height>
										<anamorphic>FALSE</anamorphic>
										<pixelaspectratio>square</pixelaspectratio>
										<fielddominance>none</fielddominance>
									</samplecharacteristics>
								</video>
								<audio>
									<samplecharacteristics>
										<depth>16</depth>
										<samplerate>48000</samplerate>
									</samplecharacteristics>
									<channelcount>2</channelcount>
								</audio>
							</media>
						</file>
						<link>
							<linkclipref>clipitem-87</linkclipref>
							<mediatype>video</mediatype>
							<trackindex>2</trackindex>
							<clipindex>17</clipindex>
						</link>
						<link>
							<linkclipref>clipitem-150</linkclipref>
							<mediatype>audio</mediatype>
							<trackindex>3</trackindex>
							<clipindex>3</clipindex>
							<groupindex>1</groupindex>
						</link>
						<link>
							<linkclipref>clipitem-155</linkclipref>
							<mediatype>audio</mediatype>
							<trackindex>4</trackindex>
							<clipindex>3</clipindex>
							<groupindex>1</groupindex>
						</link>
						<logginginfo>
							<description></description>
							<scene></scene>
							<shottake></shottake>
							<lognote></lognote>
							<good></good>
							<originalvideofilename></originalvideofilename>
							<originalaudiofilename></originalaudiofilename>
						</logginginfo>
						<colorinfo>
							<lut></lut>
							<lut1></lut1>
							<asc_sop></asc_sop>
							<asc_sat></asc_sat>
							<lut2></lut2>
						</colorinfo>
						<labels>
							<label2>Iris</label2>
						</labels>
					</clipitem>
					<clipitem id="clipitem-88">
						<masterclipid>masterclip-87</masterclipid>
						<name>julian_1_2021-12-26_1648_C0022.mov</name>
						<enabled>TRUE</enabled>
						<duration>389</duration>
						<rate>
							<timebase>24</timebase>
							<ntsc>TRUE</ntsc>
						</rate>
						<start>48479</start>
						<end>48868</end>
						<in>0</in>
						<out>389</out>
						<pproTicksIn>0</pproTicksIn>
						<pproTicksOut>4121293176000</pproTicksOut>
						<alphatype>none</alphatype>
						<pixelaspectratio>square</pixelaspectratio>
						<anamorphic>FALSE</anamorphic>
						<file id="file-87">
							<name>julian_1_2021-12-26_1648_C0022.mov</name>
							<pathurl>file://localhost/Volumes/aqua/00_Footage/4)%20Wayuu/7-21%20magalys%20and%20healer%202/../7-21%20magalys%20and%20healer/../7-21%20magalys%20and%20piedra/julian_1_2021-12-26_1648_C0022.mov</pathurl>
							<rate>
								<timebase>24</timebase>
								<ntsc>TRUE</ntsc>
							</rate>
							<duration>389</duration>
							<timecode>
								<rate>
									<timebase>24</timebase>
									<ntsc>TRUE</ntsc>
								</rate>
								<string>16:48:40:00</string>
								<frame>1452480</frame>
								<displayformat>NDF</displayformat>
							</timecode>
							<media>
								<video>
									<samplecharacteristics>
										<rate>
											<timebase>24</timebase>
											<ntsc>TRUE</ntsc>
										</rate>
										<width>1920</width>
										<height>1080</height>
										<anamorphic>FALSE</anamorphic>
										<pixelaspectratio>square</pixelaspectratio>
										<fielddominance>none</fielddominance>
									</samplecharacteristics>
								</video>
								<audio>
									<samplecharacteristics>
										<depth>16</depth>
										<samplerate>48000</samplerate>
									</samplecharacteristics>
									<channelcount>2</channelcount>
								</audio>
							</media>
						</file>
						<link>
							<linkclipref>clipitem-88</linkclipref>
							<mediatype>video</mediatype>
							<trackindex>2</trackindex>
							<clipindex>18</clipindex>
						</link>
						<link>
							<linkclipref>clipitem-151</linkclipref>
							<mediatype>audio</mediatype>
							<trackindex>3</trackindex>
							<clipindex>4</clipindex>
							<groupindex>1</groupindex>
						</link>
						<link>
							<linkclipref>clipitem-156</linkclipref>
							<mediatype>audio</mediatype>
							<trackindex>4</trackindex>
							<clipindex>4</clipindex>
							<groupindex>1</groupindex>
						</link>
						<logginginfo>
							<description></description>
							<scene></scene>
							<shottake></shottake>
							<lognote></lognote>
							<good></good>
							<originalvideofilename></originalvideofilename>
							<originalaudiofilename></originalaudiofilename>
						</logginginfo>
						<colorinfo>
							<lut></lut>
							<lut1></lut1>
							<asc_sop></asc_sop>
							<asc_sat></asc_sat>
							<lut2></lut2>
						</colorinfo>
						<labels>
							<label2>Iris</label2>
						</labels>
					</clipitem>
					<clipitem id="clipitem-89">
						<masterclipid>masterclip-88</masterclipid>
						<name>julian_1_2021-12-26_1649_C0023.mov</name>
						<enabled>TRUE</enabled>
						<duration>25</duration>
						<rate>
							<timebase>24</timebase>
							<ntsc>TRUE</ntsc>
						</rate>
						<start>48955</start>
						<end>48980</end>
						<in>0</in>
						<out>25</out>
						<pproTicksIn>0</pproTicksIn>
						<pproTicksOut>264864600000</pproTicksOut>
						<alphatype>none</alphatype>
						<pixelaspectratio>square</pixelaspectratio>
						<anamorphic>FALSE</anamorphic>
						<file id="file-88">
							<name>julian_1_2021-12-26_1649_C0023.mov</name>
							<pathurl>file://localhost/Volumes/aqua/00_Footage/4)%20Wayuu/7-21%20magalys%20and%20healer%202/../7-21%20magalys%20and%20healer/../7-21%20magalys%20and%20piedra/julian_1_2021-12-26_1649_C0023.mov</pathurl>
							<rate>
								<timebase>24</timebase>
								<ntsc>TRUE</ntsc>
							</rate>
							<duration>25</duration>
							<timecode>
								<rate>
									<timebase>24</timebase>
									<ntsc>TRUE</ntsc>
								</rate>
								<string>16:49:16:00</string>
								<frame>1453344</frame>
								<displayformat>NDF</displayformat>
							</timecode>
							<media>
								<video>
									<samplecharacteristics>
										<rate>
											<timebase>24</timebase>
											<ntsc>TRUE</ntsc>
										</rate>
										<width>1920</width>
										<height>1080</height>
										<anamorphic>FALSE</anamorphic>
										<pixelaspectratio>square</pixelaspectratio>
										<fielddominance>none</fielddominance>
									</samplecharacteristics>
								</video>
								<audio>
									<samplecharacteristics>
										<depth>16</depth>
										<samplerate>48000</samplerate>
									</samplecharacteristics>
									<channelcount>2</channelcount>
								</audio>
							</media>
						</file>
						<link>
							<linkclipref>clipitem-89</linkclipref>
							<mediatype>video</mediatype>
							<trackindex>2</trackindex>
							<clipindex>19</clipindex>
						</link>
						<link>
							<linkclipref>clipitem-152</linkclipref>
							<mediatype>audio</mediatype>
							<trackindex>3</trackindex>
							<clipindex>5</clipindex>
							<groupindex>1</groupindex>
						</link>
						<link>
							<linkclipref>clipitem-157</linkclipref>
							<mediatype>audio</mediatype>
							<trackindex>4</trackindex>
							<clipindex>5</clipindex>
							<groupindex>1</groupindex>
						</link>
						<logginginfo>
							<description></description>
							<scene></scene>
							<shottake></shottake>
							<lognote></lognote>
							<good></good>
							<originalvideofilename></originalvideofilename>
							<originalaudiofilename></originalaudiofilename>
						</logginginfo>
						<colorinfo>
							<lut></lut>
							<lut1></lut1>
							<asc_sop></asc_sop>
							<asc_sat></asc_sat>
							<lut2></lut2>
						</colorinfo>
						<labels>
							<label2>Rose</label2>
						</labels>
					</clipitem>
					<enabled>TRUE</enabled>
					<locked>FALSE</locked>
				</track>
				<track TL.SQTrackShy="0" TL.SQTrackExpandedHeight="25" TL.SQTrackExpanded="0" MZ.TrackTargeted="0">
					<clipitem id="clipitem-90">
						<masterclipid>masterclip-89</masterclipid>
						<name>C0582.MP4</name>
						<enabled>TRUE</enabled>
						<duration>708</duration>
						<rate>
							<timebase>24</timebase>
							<ntsc>TRUE</ntsc>
						</rate>
						<start>16029</start>
						<end>16737</end>
						<in>0</in>
						<out>708</out>
						<pproTicksIn>0</pproTicksIn>
						<pproTicksOut>7500965472000</pproTicksOut>
						<alphatype>none</alphatype>
						<pixelaspectratio>square</pixelaspectratio>
						<anamorphic>FALSE</anamorphic>
						<file id="file-89">
							<name>C0582.MP4</name>
							<pathurl>file://localhost/Volumes/aqua/00_Footage/4)%20Wayuu/sony/nazareth/C0582.MP4</pathurl>
							<rate>
								<timebase>24</timebase>
								<ntsc>TRUE</ntsc>
							</rate>
							<duration>708</duration>
							<timecode>
								<rate>
									<timebase>24</timebase>
									<ntsc>TRUE</ntsc>
								</rate>
								<string>07:57:02:04</string>
								<frame>686932</frame>
								<displayformat>NDF</displayformat>
							</timecode>
							<media>
								<video>
									<samplecharacteristics>
										<rate>
											<timebase>24</timebase>
											<ntsc>TRUE</ntsc>
										</rate>
										<width>1920</width>
										<height>1080</height>
										<anamorphic>FALSE</anamorphic>
										<pixelaspectratio>square</pixelaspectratio>
										<fielddominance>none</fielddominance>
									</samplecharacteristics>
								</video>
								<audio>
									<samplecharacteristics>
										<depth>16</depth>
										<samplerate>48000</samplerate>
									</samplecharacteristics>
									<channelcount>2</channelcount>
								</audio>
							</media>
						</file>
						<logginginfo>
							<description></description>
							<scene></scene>
							<shottake></shottake>
							<lognote></lognote>
							<good></good>
							<originalvideofilename></originalvideofilename>
							<originalaudiofilename></originalaudiofilename>
						</logginginfo>
						<colorinfo>
							<lut></lut>
							<lut1></lut1>
							<asc_sop></asc_sop>
							<asc_sat></asc_sat>
							<lut2></lut2>
						</colorinfo>
						<labels>
							<label2>Iris</label2>
						</labels>
					</clipitem>
					<clipitem id="clipitem-91">
						<masterclipid>masterclip-90</masterclipid>
						<name>C0583.MP4</name>
						<enabled>TRUE</enabled>
						<duration>240</duration>
						<rate>
							<timebase>24</timebase>
							<ntsc>TRUE</ntsc>
						</rate>
						<start>17408</start>
						<end>17648</end>
						<in>0</in>
						<out>240</out>
						<pproTicksIn>0</pproTicksIn>
						<pproTicksOut>2542700160000</pproTicksOut>
						<alphatype>none</alphatype>
						<pixelaspectratio>square</pixelaspectratio>
						<anamorphic>FALSE</anamorphic>
						<file id="file-90">
							<name>C0583.MP4</name>
							<pathurl>file://localhost/Volumes/aqua/00_Footage/4)%20Wayuu/sony/nazareth/C0583.MP4</pathurl>
							<rate>
								<timebase>24</timebase>
								<ntsc>TRUE</ntsc>
							</rate>
							<duration>240</duration>
							<timecode>
								<rate>
									<timebase>24</timebase>
									<ntsc>TRUE</ntsc>
								</rate>
								<string>07:57:31:16</string>
								<frame>687640</frame>
								<displayformat>NDF</displayformat>
							</timecode>
							<media>
								<video>
									<samplecharacteristics>
										<rate>
											<timebase>24</timebase>
											<ntsc>TRUE</ntsc>
										</rate>
										<width>1920</width>
										<height>1080</height>
										<anamorphic>FALSE</anamorphic>
										<pixelaspectratio>square</pixelaspectratio>
										<fielddominance>none</fielddominance>
									</samplecharacteristics>
								</video>
								<audio>
									<samplecharacteristics>
										<depth>16</depth>
										<samplerate>48000</samplerate>
									</samplecharacteristics>
									<channelcount>2</channelcount>
								</audio>
							</media>
						</file>
						<logginginfo>
							<description></description>
							<scene></scene>
							<shottake></shottake>
							<lognote></lognote>
							<good></good>
							<originalvideofilename></originalvideofilename>
							<originalaudiofilename></originalaudiofilename>
						</logginginfo>
						<colorinfo>
							<lut></lut>
							<lut1></lut1>
							<asc_sop></asc_sop>
							<asc_sat></asc_sat>
							<lut2></lut2>
						</colorinfo>
						<labels>
							<label2>Iris</label2>
						</labels>
					</clipitem>
					<clipitem id="clipitem-92">
						<masterclipid>masterclip-91</masterclipid>
						<name>C0584.MP4</name>
						<enabled>TRUE</enabled>
						<duration>924</duration>
						<rate>
							<timebase>24</timebase>
							<ntsc>TRUE</ntsc>
						</rate>
						<start>17960</start>
						<end>18884</end>
						<in>0</in>
						<out>924</out>
						<pproTicksIn>0</pproTicksIn>
						<pproTicksOut>9789395616000</pproTicksOut>
						<alphatype>none</alphatype>
						<pixelaspectratio>square</pixelaspectratio>
						<anamorphic>FALSE</anamorphic>
						<file id="file-91">
							<name>C0584.MP4</name>
							<pathurl>file://localhost/Volumes/aqua/00_Footage/4)%20Wayuu/sony/nazareth/C0584.MP4</pathurl>
							<rate>
								<timebase>24</timebase>
								<ntsc>TRUE</ntsc>
							</rate>
							<duration>924</duration>
							<timecode>
								<rate>
									<timebase>24</timebase>
									<ntsc>TRUE</ntsc>
								</rate>
								<string>07:57:41:16</string>
								<frame>687880</frame>
								<displayformat>NDF</displayformat>
							</timecode>
							<media>
								<video>
									<samplecharacteristics>
										<rate>
											<timebase>24</timebase>
											<ntsc>TRUE</ntsc>
										</rate>
										<width>1920</width>
										<height>1080</height>
										<anamorphic>FALSE</anamorphic>
										<pixelaspectratio>square</pixelaspectratio>
										<fielddominance>none</fielddominance>
									</samplecharacteristics>
								</video>
								<audio>
									<samplecharacteristics>
										<depth>16</depth>
										<samplerate>48000</samplerate>
									</samplecharacteristics>
									<channelcount>2</channelcount>
								</audio>
							</media>
						</file>
						<logginginfo>
							<description></description>
							<scene></scene>
							<shottake></shottake>
							<lognote></lognote>
							<good></good>
							<originalvideofilename></originalvideofilename>
							<originalaudiofilename></originalaudiofilename>
						</logginginfo>
						<colorinfo>
							<lut></lut>
							<lut1></lut1>
							<asc_sop></asc_sop>
							<asc_sat></asc_sat>
							<lut2></lut2>
						</colorinfo>
						<labels>
							<label2>Iris</label2>
						</labels>
					</clipitem>
					<clipitem id="clipitem-93">
						<masterclipid>masterclip-92</masterclipid>
						<name>C0585.MP4</name>
						<enabled>TRUE</enabled>
						<duration>672</duration>
						<rate>
							<timebase>24</timebase>
							<ntsc>TRUE</ntsc>
						</rate>
						<start>19213</start>
						<end>19885</end>
						<in>0</in>
						<out>672</out>
						<pproTicksIn>0</pproTicksIn>
						<pproTicksOut>7119560448000</pproTicksOut>
						<alphatype>none</alphatype>
						<pixelaspectratio>square</pixelaspectratio>
						<anamorphic>FALSE</anamorphic>
						<file id="file-92">
							<name>C0585.MP4</name>
							<pathurl>file://localhost/Volumes/aqua/00_Footage/4)%20Wayuu/sony/nazareth/C0585.MP4</pathurl>
							<rate>
								<timebase>24</timebase>
								<ntsc>TRUE</ntsc>
							</rate>
							<duration>672</duration>
							<timecode>
								<rate>
									<timebase>24</timebase>
									<ntsc>TRUE</ntsc>
								</rate>
								<string>07:58:20:04</string>
								<frame>688804</frame>
								<displayformat>NDF</displayformat>
							</timecode>
							<media>
								<video>
									<samplecharacteristics>
										<rate>
											<timebase>24</timebase>
											<ntsc>TRUE</ntsc>
										</rate>
										<width>1920</width>
										<height>1080</height>
										<anamorphic>FALSE</anamorphic>
										<pixelaspectratio>square</pixelaspectratio>
										<fielddominance>none</fielddominance>
									</samplecharacteristics>
								</video>
								<audio>
									<samplecharacteristics>
										<depth>16</depth>
										<samplerate>48000</samplerate>
									</samplecharacteristics>
									<channelcount>2</channelcount>
								</audio>
							</media>
						</file>
						<logginginfo>
							<description></description>
							<scene></scene>
							<shottake></shottake>
							<lognote></lognote>
							<good></good>
							<originalvideofilename></originalvideofilename>
							<originalaudiofilename></originalaudiofilename>
						</logginginfo>
						<colorinfo>
							<lut></lut>
							<lut1></lut1>
							<asc_sop></asc_sop>
							<asc_sat></asc_sat>
							<lut2></lut2>
						</colorinfo>
						<labels>
							<label2>Iris</label2>
						</labels>
					</clipitem>
					<clipitem id="clipitem-94">
						<masterclipid>masterclip-93</masterclipid>
						<name>C0586.MP4</name>
						<enabled>TRUE</enabled>
						<duration>228</duration>
						<rate>
							<timebase>24</timebase>
							<ntsc>TRUE</ntsc>
						</rate>
						<start>19916</start>
						<end>20144</end>
						<in>0</in>
						<out>228</out>
						<pproTicksIn>0</pproTicksIn>
						<pproTicksOut>2415565152000</pproTicksOut>
						<alphatype>none</alphatype>
						<pixelaspectratio>square</pixelaspectratio>
						<anamorphic>FALSE</anamorphic>
						<file id="file-93">
							<name>C0586.MP4</name>
							<pathurl>file://localhost/Volumes/aqua/00_Footage/4)%20Wayuu/sony/nazareth/C0586.MP4</pathurl>
							<rate>
								<timebase>24</timebase>
								<ntsc>TRUE</ntsc>
							</rate>
							<duration>228</duration>
							<timecode>
								<rate>
									<timebase>24</timebase>
									<ntsc>TRUE</ntsc>
								</rate>
								<string>07:58:48:04</string>
								<frame>689476</frame>
								<displayformat>NDF</displayformat>
							</timecode>
							<media>
								<video>
									<samplecharacteristics>
										<rate>
											<timebase>24</timebase>
											<ntsc>TRUE</ntsc>
										</rate>
										<width>1920</width>
										<height>1080</height>
										<anamorphic>FALSE</anamorphic>
										<pixelaspectratio>square</pixelaspectratio>
										<fielddominance>none</fielddominance>
									</samplecharacteristics>
								</video>
								<audio>
									<samplecharacteristics>
										<depth>16</depth>
										<samplerate>48000</samplerate>
									</samplecharacteristics>
									<channelcount>2</channelcount>
								</audio>
							</media>
						</file>
						<logginginfo>
							<description></description>
							<scene></scene>
							<shottake></shottake>
							<lognote></lognote>
							<good></good>
							<originalvideofilename></originalvideofilename>
							<originalaudiofilename></originalaudiofilename>
						</logginginfo>
						<colorinfo>
							<lut></lut>
							<lut1></lut1>
							<asc_sop></asc_sop>
							<asc_sat></asc_sat>
							<lut2></lut2>
						</colorinfo>
						<labels>
							<label2>Iris</label2>
						</labels>
					</clipitem>
					<clipitem id="clipitem-95">
						<masterclipid>masterclip-94</masterclipid>
						<name>C0587.MP4</name>
						<enabled>TRUE</enabled>
						<duration>564</duration>
						<rate>
							<timebase>24</timebase>
							<ntsc>TRUE</ntsc>
						</rate>
						<start>20704</start>
						<end>21268</end>
						<in>0</in>
						<out>564</out>
						<pproTicksIn>0</pproTicksIn>
						<pproTicksOut>5975345376000</pproTicksOut>
						<alphatype>none</alphatype>
						<pixelaspectratio>square</pixelaspectratio>
						<anamorphic>FALSE</anamorphic>
						<file id="file-94">
							<name>C0587.MP4</name>
							<pathurl>file://localhost/Volumes/aqua/00_Footage/4)%20Wayuu/sony/nazareth/C0587.MP4</pathurl>
							<rate>
								<timebase>24</timebase>
								<ntsc>TRUE</ntsc>
							</rate>
							<duration>564</duration>
							<timecode>
								<rate>
									<timebase>24</timebase>
									<ntsc>TRUE</ntsc>
								</rate>
								<string>07:58:57:16</string>
								<frame>689704</frame>
								<displayformat>NDF</displayformat>
							</timecode>
							<media>
								<video>
									<samplecharacteristics>
										<rate>
											<timebase>24</timebase>
											<ntsc>TRUE</ntsc>
										</rate>
										<width>1920</width>
										<height>1080</height>
										<anamorphic>FALSE</anamorphic>
										<pixelaspectratio>square</pixelaspectratio>
										<fielddominance>none</fielddominance>
									</samplecharacteristics>
								</video>
								<audio>
									<samplecharacteristics>
										<depth>16</depth>
										<samplerate>48000</samplerate>
									</samplecharacteristics>
									<channelcount>2</channelcount>
								</audio>
							</media>
						</file>
						<logginginfo>
							<description></description>
							<scene></scene>
							<shottake></shottake>
							<lognote></lognote>
							<good></good>
							<originalvideofilename></originalvideofilename>
							<originalaudiofilename></originalaudiofilename>
						</logginginfo>
						<colorinfo>
							<lut></lut>
							<lut1></lut1>
							<asc_sop></asc_sop>
							<asc_sat></asc_sat>
							<lut2></lut2>
						</colorinfo>
						<labels>
							<label2>Iris</label2>
						</labels>
					</clipitem>
					<clipitem id="clipitem-96">
						<masterclipid>masterclip-95</masterclipid>
						<name>C0588.MP4</name>
						<enabled>TRUE</enabled>
						<duration>456</duration>
						<rate>
							<timebase>24</timebase>
							<ntsc>TRUE</ntsc>
						</rate>
						<start>21872</start>
						<end>22328</end>
						<in>0</in>
						<out>456</out>
						<pproTicksIn>0</pproTicksIn>
						<pproTicksOut>4831130304000</pproTicksOut>
						<alphatype>none</alphatype>
						<pixelaspectratio>square</pixelaspectratio>
						<anamorphic>FALSE</anamorphic>
						<file id="file-95">
							<name>C0588.MP4</name>
							<pathurl>file://localhost/Volumes/aqua/00_Footage/4)%20Wayuu/sony/nazareth/C0588.MP4</pathurl>
							<rate>
								<timebase>24</timebase>
								<ntsc>TRUE</ntsc>
							</rate>
							<duration>456</duration>
							<timecode>
								<rate>
									<timebase>24</timebase>
									<ntsc>TRUE</ntsc>
								</rate>
								<string>07:59:21:04</string>
								<frame>690268</frame>
								<displayformat>NDF</displayformat>
							</timecode>
							<media>
								<video>
									<samplecharacteristics>
										<rate>
											<timebase>24</timebase>
											<ntsc>TRUE</ntsc>
										</rate>
										<width>1920</width>
										<height>1080</height>
										<anamorphic>FALSE</anamorphic>
										<pixelaspectratio>square</pixelaspectratio>
										<fielddominance>none</fielddominance>
									</samplecharacteristics>
								</video>
								<audio>
									<samplecharacteristics>
										<depth>16</depth>
										<samplerate>48000</samplerate>
									</samplecharacteristics>
									<channelcount>2</channelcount>
								</audio>
							</media>
						</file>
						<logginginfo>
							<description></description>
							<scene></scene>
							<shottake></shottake>
							<lognote></lognote>
							<good></good>
							<originalvideofilename></originalvideofilename>
							<originalaudiofilename></originalaudiofilename>
						</logginginfo>
						<colorinfo>
							<lut></lut>
							<lut1></lut1>
							<asc_sop></asc_sop>
							<asc_sat></asc_sat>
							<lut2></lut2>
						</colorinfo>
						<labels>
							<label2>Iris</label2>
						</labels>
					</clipitem>
					<clipitem id="clipitem-97">
						<masterclipid>masterclip-96</masterclipid>
						<name>C0589.MP4</name>
						<enabled>TRUE</enabled>
						<duration>2988</duration>
						<rate>
							<timebase>24</timebase>
							<ntsc>TRUE</ntsc>
						</rate>
						<start>22412</start>
						<end>25400</end>
						<in>0</in>
						<out>2988</out>
						<pproTicksIn>0</pproTicksIn>
						<pproTicksOut>31656616992000</pproTicksOut>
						<alphatype>none</alphatype>
						<pixelaspectratio>square</pixelaspectratio>
						<anamorphic>FALSE</anamorphic>
						<file id="file-96">
							<name>C0589.MP4</name>
							<pathurl>file://localhost/Volumes/aqua/00_Footage/4)%20Wayuu/sony/nazareth/C0589.MP4</pathurl>
							<rate>
								<timebase>24</timebase>
								<ntsc>TRUE</ntsc>
							</rate>
							<duration>2988</duration>
							<timecode>
								<rate>
									<timebase>24</timebase>
									<ntsc>TRUE</ntsc>
								</rate>
								<string>07:59:40:04</string>
								<frame>690724</frame>
								<displayformat>NDF</displayformat>
							</timecode>
							<media>
								<video>
									<samplecharacteristics>
										<rate>
											<timebase>24</timebase>
											<ntsc>TRUE</ntsc>
										</rate>
										<width>1920</width>
										<height>1080</height>
										<anamorphic>FALSE</anamorphic>
										<pixelaspectratio>square</pixelaspectratio>
										<fielddominance>none</fielddominance>
									</samplecharacteristics>
								</video>
								<audio>
									<samplecharacteristics>
										<depth>16</depth>
										<samplerate>48000</samplerate>
									</samplecharacteristics>
									<channelcount>2</channelcount>
								</audio>
							</media>
						</file>
						<logginginfo>
							<description></description>
							<scene></scene>
							<shottake></shottake>
							<lognote></lognote>
							<good></good>
							<originalvideofilename></originalvideofilename>
							<originalaudiofilename></originalaudiofilename>
						</logginginfo>
						<colorinfo>
							<lut></lut>
							<lut1></lut1>
							<asc_sop></asc_sop>
							<asc_sat></asc_sat>
							<lut2></lut2>
						</colorinfo>
						<labels>
							<label2>Iris</label2>
						</labels>
					</clipitem>
					<clipitem id="clipitem-98">
						<masterclipid>masterclip-97</masterclipid>
						<name>C0590.MP4</name>
						<enabled>TRUE</enabled>
						<duration>888</duration>
						<rate>
							<timebase>24</timebase>
							<ntsc>TRUE</ntsc>
						</rate>
						<start>25549</start>
						<end>26437</end>
						<in>0</in>
						<out>888</out>
						<pproTicksIn>0</pproTicksIn>
						<pproTicksOut>9407990592000</pproTicksOut>
						<alphatype>none</alphatype>
						<pixelaspectratio>square</pixelaspectratio>
						<anamorphic>FALSE</anamorphic>
						<file id="file-97">
							<name>C0590.MP4</name>
							<pathurl>file://localhost/Volumes/aqua/00_Footage/4)%20Wayuu/sony/nazareth/C0590.MP4</pathurl>
							<rate>
								<timebase>24</timebase>
								<ntsc>TRUE</ntsc>
							</rate>
							<duration>888</duration>
							<timecode>
								<rate>
									<timebase>24</timebase>
									<ntsc>TRUE</ntsc>
								</rate>
								<string>08:01:44:16</string>
								<frame>693712</frame>
								<displayformat>NDF</displayformat>
							</timecode>
							<media>
								<video>
									<samplecharacteristics>
										<rate>
											<timebase>24</timebase>
											<ntsc>TRUE</ntsc>
										</rate>
										<width>1920</width>
										<height>1080</height>
										<anamorphic>FALSE</anamorphic>
										<pixelaspectratio>square</pixelaspectratio>
										<fielddominance>none</fielddominance>
									</samplecharacteristics>
								</video>
								<audio>
									<samplecharacteristics>
										<depth>16</depth>
										<samplerate>48000</samplerate>
									</samplecharacteristics>
									<channelcount>2</channelcount>
								</audio>
							</media>
						</file>
						<logginginfo>
							<description></description>
							<scene></scene>
							<shottake></shottake>
							<lognote></lognote>
							<good></good>
							<originalvideofilename></originalvideofilename>
							<originalaudiofilename></originalaudiofilename>
						</logginginfo>
						<colorinfo>
							<lut></lut>
							<lut1></lut1>
							<asc_sop></asc_sop>
							<asc_sat></asc_sat>
							<lut2></lut2>
						</colorinfo>
						<labels>
							<label2>Iris</label2>
						</labels>
					</clipitem>
					<clipitem id="clipitem-99">
						<masterclipid>masterclip-98</masterclipid>
						<name>C0591.MP4</name>
						<enabled>TRUE</enabled>
						<duration>492</duration>
						<rate>
							<timebase>24</timebase>
							<ntsc>TRUE</ntsc>
						</rate>
						<start>26632</start>
						<end>27124</end>
						<in>0</in>
						<out>492</out>
						<pproTicksIn>0</pproTicksIn>
						<pproTicksOut>5212535328000</pproTicksOut>
						<alphatype>none</alphatype>
						<pixelaspectratio>square</pixelaspectratio>
						<anamorphic>FALSE</anamorphic>
						<file id="file-98">
							<name>C0591.MP4</name>
							<pathurl>file://localhost/Volumes/aqua/00_Footage/4)%20Wayuu/sony/nazareth/C0591.MP4</pathurl>
							<rate>
								<timebase>24</timebase>
								<ntsc>TRUE</ntsc>
							</rate>
							<duration>492</duration>
							<timecode>
								<rate>
									<timebase>24</timebase>
									<ntsc>TRUE</ntsc>
								</rate>
								<string>08:02:21:16</string>
								<frame>694600</frame>
								<displayformat>NDF</displayformat>
							</timecode>
							<media>
								<video>
									<samplecharacteristics>
										<rate>
											<timebase>24</timebase>
											<ntsc>TRUE</ntsc>
										</rate>
										<width>1920</width>
										<height>1080</height>
										<anamorphic>FALSE</anamorphic>
										<pixelaspectratio>square</pixelaspectratio>
										<fielddominance>none</fielddominance>
									</samplecharacteristics>
								</video>
								<audio>
									<samplecharacteristics>
										<depth>16</depth>
										<samplerate>48000</samplerate>
									</samplecharacteristics>
									<channelcount>2</channelcount>
								</audio>
							</media>
						</file>
						<logginginfo>
							<description></description>
							<scene></scene>
							<shottake></shottake>
							<lognote></lognote>
							<good></good>
							<originalvideofilename></originalvideofilename>
							<originalaudiofilename></originalaudiofilename>
						</logginginfo>
						<colorinfo>
							<lut></lut>
							<lut1></lut1>
							<asc_sop></asc_sop>
							<asc_sat></asc_sat>
							<lut2></lut2>
						</colorinfo>
						<labels>
							<label2>Iris</label2>
						</labels>
					</clipitem>
					<clipitem id="clipitem-100">
						<masterclipid>masterclip-99</masterclipid>
						<name>C0592.MP4</name>
						<enabled>TRUE</enabled>
						<duration>552</duration>
						<rate>
							<timebase>24</timebase>
							<ntsc>TRUE</ntsc>
						</rate>
						<start>27401</start>
						<end>27953</end>
						<in>0</in>
						<out>552</out>
						<pproTicksIn>0</pproTicksIn>
						<pproTicksOut>5848210368000</pproTicksOut>
						<alphatype>none</alphatype>
						<pixelaspectratio>square</pixelaspectratio>
						<anamorphic>FALSE</anamorphic>
						<file id="file-99">
							<name>C0592.MP4</name>
							<pathurl>file://localhost/Volumes/aqua/00_Footage/4)%20Wayuu/sony/nazareth/C0592.MP4</pathurl>
							<rate>
								<timebase>24</timebase>
								<ntsc>TRUE</ntsc>
							</rate>
							<duration>552</duration>
							<timecode>
								<rate>
									<timebase>24</timebase>
									<ntsc>TRUE</ntsc>
								</rate>
								<string>08:02:42:04</string>
								<frame>695092</frame>
								<displayformat>NDF</displayformat>
							</timecode>
							<media>
								<video>
									<samplecharacteristics>
										<rate>
											<timebase>24</timebase>
											<ntsc>TRUE</ntsc>
										</rate>
										<width>1920</width>
										<height>1080</height>
										<anamorphic>FALSE</anamorphic>
										<pixelaspectratio>square</pixelaspectratio>
										<fielddominance>none</fielddominance>
									</samplecharacteristics>
								</video>
								<audio>
									<samplecharacteristics>
										<depth>16</depth>
										<samplerate>48000</samplerate>
									</samplecharacteristics>
									<channelcount>2</channelcount>
								</audio>
							</media>
						</file>
						<logginginfo>
							<description></description>
							<scene></scene>
							<shottake></shottake>
							<lognote></lognote>
							<good></good>
							<originalvideofilename></originalvideofilename>
							<originalaudiofilename></originalaudiofilename>
						</logginginfo>
						<colorinfo>
							<lut></lut>
							<lut1></lut1>
							<asc_sop></asc_sop>
							<asc_sat></asc_sat>
							<lut2></lut2>
						</colorinfo>
						<labels>
							<label2>Iris</label2>
						</labels>
					</clipitem>
					<clipitem id="clipitem-101">
						<masterclipid>masterclip-100</masterclipid>
						<name>C0593.MP4</name>
						<enabled>TRUE</enabled>
						<duration>732</duration>
						<rate>
							<timebase>24</timebase>
							<ntsc>TRUE</ntsc>
						</rate>
						<start>28313</start>
						<end>29045</end>
						<in>0</in>
						<out>732</out>
						<pproTicksIn>0</pproTicksIn>
						<pproTicksOut>7755235488000</pproTicksOut>
						<alphatype>none</alphatype>
						<pixelaspectratio>square</pixelaspectratio>
						<anamorphic>FALSE</anamorphic>
						<file id="file-100">
							<name>C0593.MP4</name>
							<pathurl>file://localhost/Volumes/aqua/00_Footage/4)%20Wayuu/sony/nazareth/C0593.MP4</pathurl>
							<rate>
								<timebase>24</timebase>
								<ntsc>TRUE</ntsc>
							</rate>
							<duration>732</duration>
							<timecode>
								<rate>
									<timebase>24</timebase>
									<ntsc>TRUE</ntsc>
								</rate>
								<string>08:03:05:04</string>
								<frame>695644</frame>
								<displayformat>NDF</displayformat>
							</timecode>
							<media>
								<video>
									<samplecharacteristics>
										<rate>
											<timebase>24</timebase>
											<ntsc>TRUE</ntsc>
										</rate>
										<width>1920</width>
										<height>1080</height>
										<anamorphic>FALSE</anamorphic>
										<pixelaspectratio>square</pixelaspectratio>
										<fielddominance>none</fielddominance>
									</samplecharacteristics>
								</video>
								<audio>
									<samplecharacteristics>
										<depth>16</depth>
										<samplerate>48000</samplerate>
									</samplecharacteristics>
									<channelcount>2</channelcount>
								</audio>
							</media>
						</file>
						<logginginfo>
							<description></description>
							<scene></scene>
							<shottake></shottake>
							<lognote></lognote>
							<good></good>
							<originalvideofilename></originalvideofilename>
							<originalaudiofilename></originalaudiofilename>
						</logginginfo>
						<colorinfo>
							<lut></lut>
							<lut1></lut1>
							<asc_sop></asc_sop>
							<asc_sat></asc_sat>
							<lut2></lut2>
						</colorinfo>
						<labels>
							<label2>Iris</label2>
						</labels>
					</clipitem>
					<clipitem id="clipitem-102">
						<masterclipid>masterclip-101</masterclipid>
						<name>C0594.MP4</name>
						<enabled>TRUE</enabled>
						<duration>432</duration>
						<rate>
							<timebase>24</timebase>
							<ntsc>TRUE</ntsc>
						</rate>
						<start>36582</start>
						<end>37014</end>
						<in>0</in>
						<out>432</out>
						<pproTicksIn>0</pproTicksIn>
						<pproTicksOut>4576860288000</pproTicksOut>
						<alphatype>none</alphatype>
						<pixelaspectratio>square</pixelaspectratio>
						<anamorphic>FALSE</anamorphic>
						<file id="file-101">
							<name>C0594.MP4</name>
							<pathurl>file://localhost/Volumes/aqua/00_Footage/4)%20Wayuu/sony/nazareth/C0594.MP4</pathurl>
							<rate>
								<timebase>24</timebase>
								<ntsc>TRUE</ntsc>
							</rate>
							<duration>432</duration>
							<timecode>
								<rate>
									<timebase>24</timebase>
									<ntsc>TRUE</ntsc>
								</rate>
								<string>08:03:35:16</string>
								<frame>696376</frame>
								<displayformat>NDF</displayformat>
							</timecode>
							<media>
								<video>
									<samplecharacteristics>
										<rate>
											<timebase>24</timebase>
											<ntsc>TRUE</ntsc>
										</rate>
										<width>1920</width>
										<height>1080</height>
										<anamorphic>FALSE</anamorphic>
										<pixelaspectratio>square</pixelaspectratio>
										<fielddominance>none</fielddominance>
									</samplecharacteristics>
								</video>
								<audio>
									<samplecharacteristics>
										<depth>16</depth>
										<samplerate>48000</samplerate>
									</samplecharacteristics>
									<channelcount>2</channelcount>
								</audio>
							</media>
						</file>
						<logginginfo>
							<description></description>
							<scene></scene>
							<shottake></shottake>
							<lognote></lognote>
							<good></good>
							<originalvideofilename></originalvideofilename>
							<originalaudiofilename></originalaudiofilename>
						</logginginfo>
						<colorinfo>
							<lut></lut>
							<lut1></lut1>
							<asc_sop></asc_sop>
							<asc_sat></asc_sat>
							<lut2></lut2>
						</colorinfo>
						<labels>
							<label2>Iris</label2>
						</labels>
					</clipitem>
					<clipitem id="clipitem-103">
						<masterclipid>masterclip-102</masterclipid>
						<name>C0595.MP4</name>
						<enabled>TRUE</enabled>
						<duration>996</duration>
						<rate>
							<timebase>24</timebase>
							<ntsc>TRUE</ntsc>
						</rate>
						<start>37418</start>
						<end>38414</end>
						<in>0</in>
						<out>996</out>
						<pproTicksIn>0</pproTicksIn>
						<pproTicksOut>10552205664000</pproTicksOut>
						<alphatype>none</alphatype>
						<pixelaspectratio>square</pixelaspectratio>
						<anamorphic>FALSE</anamorphic>
						<file id="file-102">
							<name>C0595.MP4</name>
							<pathurl>file://localhost/Volumes/aqua/00_Footage/4)%20Wayuu/sony/nazareth/C0595.MP4</pathurl>
							<rate>
								<timebase>24</timebase>
								<ntsc>TRUE</ntsc>
							</rate>
							<duration>996</duration>
							<timecode>
								<rate>
									<timebase>24</timebase>
									<ntsc>TRUE</ntsc>
								</rate>
								<string>08:03:53:16</string>
								<frame>696808</frame>
								<displayformat>NDF</displayformat>
							</timecode>
							<media>
								<video>
									<samplecharacteristics>
										<rate>
											<timebase>24</timebase>
											<ntsc>TRUE</ntsc>
										</rate>
										<width>1920</width>
										<height>1080</height>
										<anamorphic>FALSE</anamorphic>
										<pixelaspectratio>square</pixelaspectratio>
										<fielddominance>none</fielddominance>
									</samplecharacteristics>
								</video>
								<audio>
									<samplecharacteristics>
										<depth>16</depth>
										<samplerate>48000</samplerate>
									</samplecharacteristics>
									<channelcount>2</channelcount>
								</audio>
							</media>
						</file>
						<logginginfo>
							<description></description>
							<scene></scene>
							<shottake></shottake>
							<lognote></lognote>
							<good></good>
							<originalvideofilename></originalvideofilename>
							<originalaudiofilename></originalaudiofilename>
						</logginginfo>
						<colorinfo>
							<lut></lut>
							<lut1></lut1>
							<asc_sop></asc_sop>
							<asc_sat></asc_sat>
							<lut2></lut2>
						</colorinfo>
						<labels>
							<label2>Iris</label2>
						</labels>
					</clipitem>
					<enabled>TRUE</enabled>
					<locked>FALSE</locked>
				</track>
				<track TL.SQTrackShy="0" TL.SQTrackExpandedHeight="25" TL.SQTrackExpanded="0" MZ.TrackTargeted="0">
					<enabled>TRUE</enabled>
					<locked>FALSE</locked>
				</track>
				<track TL.SQTrackShy="0" TL.SQTrackExpandedHeight="25" TL.SQTrackExpanded="0" MZ.TrackTargeted="0">
					<enabled>TRUE</enabled>
					<locked>FALSE</locked>
				</track>
			</video>
			<audio>
				<numOutputChannels>2</numOutputChannels>
				<format>
					<samplecharacteristics>
						<depth>16</depth>
						<samplerate>48000</samplerate>
					</samplecharacteristics>
				</format>
				<outputs>
					<group>
						<index>1</index>
						<numchannels>1</numchannels>
						<downmix>0</downmix>
						<channel>
							<index>1</index>
						</channel>
					</group>
					<group>
						<index>2</index>
						<numchannels>1</numchannels>
						<downmix>0</downmix>
						<channel>
							<index>2</index>
						</channel>
					</group>
				</outputs>
				<track TL.SQTrackAudioKeyframeStyle="0" TL.SQTrackShy="0" TL.SQTrackExpandedHeight="63" TL.SQTrackExpanded="0" MZ.TrackTargeted="1" PannerCurrentValue="0.5" PannerStartKeyframe="-91445760000000000,0.5,0,0,0,0,0,0" PannerName="Balance" currentExplodedTrackIndex="0" totalExplodedTrackCount="2" premiereTrackType="Stereo">
					<clipitem id="clipitem-104" premiereChannelType="stereo">
						<masterclipid>masterclip-103</masterclipid>
						<name>magalys electrico - clip.mp3</name>
						<enabled>TRUE</enabled>
						<duration>40972</duration>
						<rate>
							<timebase>24</timebase>
							<ntsc>TRUE</ntsc>
						</rate>
						<start>30</start>
						<end>41002</end>
						<in>0</in>
						<out>40972</out>
						<pproTicksIn>0</pproTicksIn>
						<pproTicksOut>434081295648000</pproTicksOut>
						<file id="file-103">
							<name>magalys electrico - clip.mp3</name>
							<pathurl>file://localhost/Volumes/aqua/03_Interviews/Wayuu/Audio/Clipped/magalys%20electrico%20-%20clip.mp3</pathurl>
							<rate>
								<timebase>30</timebase>
								<ntsc>TRUE</ntsc>
							</rate>
							<duration>51215</duration>
							<timecode>
								<rate>
									<timebase>30</timebase>
									<ntsc>TRUE</ntsc>
								</rate>
								<string>00;00;00;00</string>
								<frame>0</frame>
								<displayformat>DF</displayformat>
							</timecode>
							<media>
								<audio>
									<samplecharacteristics>
										<depth>16</depth>
										<samplerate>48000</samplerate>
									</samplecharacteristics>
									<channelcount>2</channelcount>
								</audio>
							</media>
						</file>
						<sourcetrack>
							<mediatype>audio</mediatype>
							<trackindex>1</trackindex>
						</sourcetrack>
						<filter>
							<effect>
								<name>Audio Levels</name>
								<effectid>audiolevels</effectid>
								<effectcategory>audiolevels</effectcategory>
								<effecttype>audiolevels</effecttype>
								<mediatype>audio</mediatype>
								<pproBypass>false</pproBypass>
								<parameter authoringApp="PremierePro">
									<parameterid>level</parameterid>
									<name>Level</name>
									<valuemin>0</valuemin>
									<valuemax>3.98109</valuemax>
									<value>1</value>
								</parameter>
							</effect>
						</filter>
						<link>
							<linkclipref>clipitem-104</linkclipref>
							<mediatype>audio</mediatype>
							<trackindex>1</trackindex>
							<clipindex>1</clipindex>
							<groupindex>1</groupindex>
						</link>
						<link>
							<linkclipref>clipitem-126</linkclipref>
							<mediatype>audio</mediatype>
							<trackindex>2</trackindex>
							<clipindex>1</clipindex>
							<groupindex>1</groupindex>
						</link>
						<logginginfo>
							<description></description>
							<scene></scene>
							<shottake></shottake>
							<lognote></lognote>
							<good></good>
							<originalvideofilename></originalvideofilename>
							<originalaudiofilename></originalaudiofilename>
						</logginginfo>
						<colorinfo>
							<lut></lut>
							<lut1></lut1>
							<asc_sop></asc_sop>
							<asc_sat></asc_sat>
							<lut2></lut2>
						</colorinfo>
						<labels>
							<label2>Caribbean</label2>
						</labels>
					</clipitem>
					<clipitem id="clipitem-105" premiereChannelType="stereo">
						<masterclipid>masterclip-50</masterclipid>
						<name>wiblo_1_2000-01-01_1216_C0111.mov</name>
						<enabled>TRUE</enabled>
						<duration>320</duration>
						<rate>
							<timebase>24</timebase>
							<ntsc>TRUE</ntsc>
						</rate>
						<start>41002</start>
						<end>41078</end>
						<in>244</in>
						<out>320</out>
						<pproTicksIn>2585078496000</pproTicksIn>
						<pproTicksOut>3390266880000</pproTicksOut>
						<file id="file-50"/>
						<sourcetrack>
							<mediatype>audio</mediatype>
							<trackindex>1</trackindex>
						</sourcetrack>
						<filter>
							<effect>
								<name>Audio Levels</name>
								<effectid>audiolevels</effectid>
								<effectcategory>audiolevels</effectcategory>
								<effecttype>audiolevels</effecttype>
								<mediatype>audio</mediatype>
								<pproBypass>false</pproBypass>
								<parameter authoringApp="PremierePro">
									<parameterid>level</parameterid>
									<name>Level</name>
									<valuemin>0</valuemin>
									<valuemax>3.98109</valuemax>
									<value>1</value>
								</parameter>
							</effect>
						</filter>
						<link>
							<linkclipref>clipitem-50</linkclipref>
							<mediatype>video</mediatype>
							<trackindex>1</trackindex>
							<clipindex>50</clipindex>
						</link>
						<link>
							<linkclipref>clipitem-105</linkclipref>
							<mediatype>audio</mediatype>
							<trackindex>1</trackindex>
							<clipindex>2</clipindex>
							<groupindex>1</groupindex>
						</link>
						<link>
							<linkclipref>clipitem-127</linkclipref>
							<mediatype>audio</mediatype>
							<trackindex>2</trackindex>
							<clipindex>2</clipindex>
							<groupindex>1</groupindex>
						</link>
						<logginginfo>
							<description></description>
							<scene></scene>
							<shottake></shottake>
							<lognote></lognote>
							<good></good>
							<originalvideofilename></originalvideofilename>
							<originalaudiofilename></originalaudiofilename>
						</logginginfo>
						<colorinfo>
							<lut></lut>
							<lut1></lut1>
							<asc_sop></asc_sop>
							<asc_sat></asc_sat>
							<lut2></lut2>
						</colorinfo>
						<labels>
							<label2>Iris</label2>
						</labels>
					</clipitem>
					<clipitem id="clipitem-106" premiereChannelType="stereo">
						<masterclipid>masterclip-51</masterclipid>
						<name>wiblo_1_2000-01-01_1217_C0113.mov</name>
						<enabled>TRUE</enabled>
						<duration>378</duration>
						<rate>
							<timebase>24</timebase>
							<ntsc>TRUE</ntsc>
						</rate>
						<start>41078</start>
						<end>41455</end>
						<in>1</in>
						<out>378</out>
						<pproTicksIn>10594584000</pproTicksIn>
						<pproTicksOut>4004752752000</pproTicksOut>
						<file id="file-51"/>
						<sourcetrack>
							<mediatype>audio</mediatype>
							<trackindex>1</trackindex>
						</sourcetrack>
						<filter>
							<effect>
								<name>Audio Levels</name>
								<effectid>audiolevels</effectid>
								<effectcategory>audiolevels</effectcategory>
								<effecttype>audiolevels</effecttype>
								<mediatype>audio</mediatype>
								<pproBypass>false</pproBypass>
								<parameter authoringApp="PremierePro">
									<parameterid>level</parameterid>
									<name>Level</name>
									<valuemin>0</valuemin>
									<valuemax>3.98109</valuemax>
									<value>1</value>
								</parameter>
							</effect>
						</filter>
						<link>
							<linkclipref>clipitem-51</linkclipref>
							<mediatype>video</mediatype>
							<trackindex>1</trackindex>
							<clipindex>51</clipindex>
						</link>
						<link>
							<linkclipref>clipitem-106</linkclipref>
							<mediatype>audio</mediatype>
							<trackindex>1</trackindex>
							<clipindex>3</clipindex>
							<groupindex>1</groupindex>
						</link>
						<link>
							<linkclipref>clipitem-128</linkclipref>
							<mediatype>audio</mediatype>
							<trackindex>2</trackindex>
							<clipindex>3</clipindex>
							<groupindex>1</groupindex>
						</link>
						<logginginfo>
							<description></description>
							<scene></scene>
							<shottake></shottake>
							<lognote></lognote>
							<good></good>
							<originalvideofilename></originalvideofilename>
							<originalaudiofilename></originalaudiofilename>
						</logginginfo>
						<colorinfo>
							<lut></lut>
							<lut1></lut1>
							<asc_sop></asc_sop>
							<asc_sat></asc_sat>
							<lut2></lut2>
						</colorinfo>
						<labels>
							<label2>Rose</label2>
						</labels>
					</clipitem>
					<clipitem id="clipitem-107" premiereChannelType="stereo">
						<masterclipid>masterclip-52</masterclipid>
						<name>wiblo_1_2000-01-01_1142_C0046.mov</name>
						<enabled>TRUE</enabled>
						<duration>363</duration>
						<rate>
							<timebase>24</timebase>
							<ntsc>TRUE</ntsc>
						</rate>
						<start>45545</start>
						<end>45908</end>
						<in>0</in>
						<out>363</out>
						<pproTicksIn>0</pproTicksIn>
						<pproTicksOut>3845833992000</pproTicksOut>
						<file id="file-52"/>
						<sourcetrack>
							<mediatype>audio</mediatype>
							<trackindex>1</trackindex>
						</sourcetrack>
						<filter>
							<effect>
								<name>Audio Levels</name>
								<effectid>audiolevels</effectid>
								<effectcategory>audiolevels</effectcategory>
								<effecttype>audiolevels</effecttype>
								<mediatype>audio</mediatype>
								<pproBypass>false</pproBypass>
								<parameter authoringApp="PremierePro">
									<parameterid>level</parameterid>
									<name>Level</name>
									<valuemin>0</valuemin>
									<valuemax>3.98109</valuemax>
									<value>1</value>
								</parameter>
							</effect>
						</filter>
						<link>
							<linkclipref>clipitem-52</linkclipref>
							<mediatype>video</mediatype>
							<trackindex>1</trackindex>
							<clipindex>52</clipindex>
						</link>
						<link>
							<linkclipref>clipitem-107</linkclipref>
							<mediatype>audio</mediatype>
							<trackindex>1</trackindex>
							<clipindex>4</clipindex>
							<groupindex>1</groupindex>
						</link>
						<link>
							<linkclipref>clipitem-129</linkclipref>
							<mediatype>audio</mediatype>
							<trackindex>2</trackindex>
							<clipindex>4</clipindex>
							<groupindex>1</groupindex>
						</link>
						<logginginfo>
							<description></description>
							<scene></scene>
							<shottake></shottake>
							<lognote></lognote>
							<good></good>
							<originalvideofilename></originalvideofilename>
							<originalaudiofilename></originalaudiofilename>
						</logginginfo>
						<colorinfo>
							<lut></lut>
							<lut1></lut1>
							<asc_sop></asc_sop>
							<asc_sat></asc_sat>
							<lut2></lut2>
						</colorinfo>
						<labels>
							<label2>Rose</label2>
						</labels>
					</clipitem>
					<clipitem id="clipitem-108" premiereChannelType="stereo">
						<masterclipid>masterclip-53</masterclipid>
						<name>wiblo_1_2000-01-01_1143_C0047.mov</name>
						<enabled>TRUE</enabled>
						<duration>295</duration>
						<rate>
							<timebase>24</timebase>
							<ntsc>TRUE</ntsc>
						</rate>
						<start>45908</start>
						<end>46202</end>
						<in>1</in>
						<out>295</out>
						<pproTicksIn>10594584000</pproTicksIn>
						<pproTicksOut>3125402280000</pproTicksOut>
						<file id="file-53"/>
						<sourcetrack>
							<mediatype>audio</mediatype>
							<trackindex>1</trackindex>
						</sourcetrack>
						<filter>
							<effect>
								<name>Audio Levels</name>
								<effectid>audiolevels</effectid>
								<effectcategory>audiolevels</effectcategory>
								<effecttype>audiolevels</effecttype>
								<mediatype>audio</mediatype>
								<pproBypass>false</pproBypass>
								<parameter authoringApp="PremierePro">
									<parameterid>level</parameterid>
									<name>Level</name>
									<valuemin>0</valuemin>
									<valuemax>3.98109</valuemax>
									<value>1</value>
								</parameter>
							</effect>
						</filter>
						<link>
							<linkclipref>clipitem-53</linkclipref>
							<mediatype>video</mediatype>
							<trackindex>1</trackindex>
							<clipindex>53</clipindex>
						</link>
						<link>
							<linkclipref>clipitem-108</linkclipref>
							<mediatype>audio</mediatype>
							<trackindex>1</trackindex>
							<clipindex>5</clipindex>
							<groupindex>1</groupindex>
						</link>
						<link>
							<linkclipref>clipitem-130</linkclipref>
							<mediatype>audio</mediatype>
							<trackindex>2</trackindex>
							<clipindex>5</clipindex>
							<groupindex>1</groupindex>
						</link>
						<logginginfo>
							<description></description>
							<scene></scene>
							<shottake></shottake>
							<lognote></lognote>
							<good></good>
							<originalvideofilename></originalvideofilename>
							<originalaudiofilename></originalaudiofilename>
						</logginginfo>
						<colorinfo>
							<lut></lut>
							<lut1></lut1>
							<asc_sop></asc_sop>
							<asc_sat></asc_sat>
							<lut2></lut2>
						</colorinfo>
						<labels>
							<label2>Rose</label2>
						</labels>
					</clipitem>
					<clipitem id="clipitem-109" premiereChannelType="stereo">
						<masterclipid>masterclip-54</masterclipid>
						<name>wiblo_1_2000-01-01_1143_C0048.mov</name>
						<enabled>TRUE</enabled>
						<duration>595</duration>
						<rate>
							<timebase>24</timebase>
							<ntsc>TRUE</ntsc>
						</rate>
						<start>46202</start>
						<end>46796</end>
						<in>1</in>
						<out>595</out>
						<pproTicksIn>10594584000</pproTicksIn>
						<pproTicksOut>6303777480000</pproTicksOut>
						<file id="file-54"/>
						<sourcetrack>
							<mediatype>audio</mediatype>
							<trackindex>1</trackindex>
						</sourcetrack>
						<filter>
							<effect>
								<name>Audio Levels</name>
								<effectid>audiolevels</effectid>
								<effectcategory>audiolevels</effectcategory>
								<effecttype>audiolevels</effecttype>
								<mediatype>audio</mediatype>
								<pproBypass>false</pproBypass>
								<parameter authoringApp="PremierePro">
									<parameterid>level</parameterid>
									<name>Level</name>
									<valuemin>0</valuemin>
									<valuemax>3.98109</valuemax>
									<value>1</value>
								</parameter>
							</effect>
						</filter>
						<link>
							<linkclipref>clipitem-54</linkclipref>
							<mediatype>video</mediatype>
							<trackindex>1</trackindex>
							<clipindex>54</clipindex>
						</link>
						<link>
							<linkclipref>clipitem-109</linkclipref>
							<mediatype>audio</mediatype>
							<trackindex>1</trackindex>
							<clipindex>6</clipindex>
							<groupindex>1</groupindex>
						</link>
						<link>
							<linkclipref>clipitem-131</linkclipref>
							<mediatype>audio</mediatype>
							<trackindex>2</trackindex>
							<clipindex>6</clipindex>
							<groupindex>1</groupindex>
						</link>
						<logginginfo>
							<description></description>
							<scene></scene>
							<shottake></shottake>
							<lognote></lognote>
							<good></good>
							<originalvideofilename></originalvideofilename>
							<originalaudiofilename></originalaudiofilename>
						</logginginfo>
						<colorinfo>
							<lut></lut>
							<lut1></lut1>
							<asc_sop></asc_sop>
							<asc_sat></asc_sat>
							<lut2></lut2>
						</colorinfo>
						<labels>
							<label2>Rose</label2>
						</labels>
					</clipitem>
					<clipitem id="clipitem-110" premiereChannelType="stereo">
						<masterclipid>masterclip-55</masterclipid>
						<name>wiblo_1_2000-01-01_1144_C0049.mov</name>
						<enabled>TRUE</enabled>
						<duration>191</duration>
						<rate>
							<timebase>24</timebase>
							<ntsc>TRUE</ntsc>
						</rate>
						<start>46796</start>
						<end>46986</end>
						<in>1</in>
						<out>191</out>
						<pproTicksIn>10594584000</pproTicksIn>
						<pproTicksOut>2023565544000</pproTicksOut>
						<file id="file-55"/>
						<sourcetrack>
							<mediatype>audio</mediatype>
							<trackindex>1</trackindex>
						</sourcetrack>
						<filter>
							<effect>
								<name>Audio Levels</name>
								<effectid>audiolevels</effectid>
								<effectcategory>audiolevels</effectcategory>
								<effecttype>audiolevels</effecttype>
								<mediatype>audio</mediatype>
								<pproBypass>false</pproBypass>
								<parameter authoringApp="PremierePro">
									<parameterid>level</parameterid>
									<name>Level</name>
									<valuemin>0</valuemin>
									<valuemax>3.98109</valuemax>
									<value>1</value>
								</parameter>
							</effect>
						</filter>
						<link>
							<linkclipref>clipitem-55</linkclipref>
							<mediatype>video</mediatype>
							<trackindex>1</trackindex>
							<clipindex>55</clipindex>
						</link>
						<link>
							<linkclipref>clipitem-110</linkclipref>
							<mediatype>audio</mediatype>
							<trackindex>1</trackindex>
							<clipindex>7</clipindex>
							<groupindex>1</groupindex>
						</link>
						<link>
							<linkclipref>clipitem-132</linkclipref>
							<mediatype>audio</mediatype>
							<trackindex>2</trackindex>
							<clipindex>7</clipindex>
							<groupindex>1</groupindex>
						</link>
						<logginginfo>
							<description></description>
							<scene></scene>
							<shottake></shottake>
							<lognote></lognote>
							<good></good>
							<originalvideofilename></originalvideofilename>
							<originalaudiofilename></originalaudiofilename>
						</logginginfo>
						<colorinfo>
							<lut></lut>
							<lut1></lut1>
							<asc_sop></asc_sop>
							<asc_sat></asc_sat>
							<lut2></lut2>
						</colorinfo>
						<labels>
							<label2>Rose</label2>
						</labels>
					</clipitem>
					<clipitem id="clipitem-111" premiereChannelType="stereo">
						<masterclipid>masterclip-56</masterclipid>
						<name>wiblo_1_2000-01-01_1144_C0050.mov</name>
						<enabled>TRUE</enabled>
						<duration>107</duration>
						<rate>
							<timebase>24</timebase>
							<ntsc>TRUE</ntsc>
						</rate>
						<start>46986</start>
						<end>47092</end>
						<in>1</in>
						<out>107</out>
						<pproTicksIn>10594584000</pproTicksIn>
						<pproTicksOut>1133620488000</pproTicksOut>
						<file id="file-56"/>
						<sourcetrack>
							<mediatype>audio</mediatype>
							<trackindex>1</trackindex>
						</sourcetrack>
						<filter>
							<effect>
								<name>Audio Levels</name>
								<effectid>audiolevels</effectid>
								<effectcategory>audiolevels</effectcategory>
								<effecttype>audiolevels</effecttype>
								<mediatype>audio</mediatype>
								<pproBypass>false</pproBypass>
								<parameter authoringApp="PremierePro">
									<parameterid>level</parameterid>
									<name>Level</name>
									<valuemin>0</valuemin>
									<valuemax>3.98109</valuemax>
									<value>1</value>
								</parameter>
							</effect>
						</filter>
						<link>
							<linkclipref>clipitem-56</linkclipref>
							<mediatype>video</mediatype>
							<trackindex>1</trackindex>
							<clipindex>56</clipindex>
						</link>
						<link>
							<linkclipref>clipitem-111</linkclipref>
							<mediatype>audio</mediatype>
							<trackindex>1</trackindex>
							<clipindex>8</clipindex>
							<groupindex>1</groupindex>
						</link>
						<link>
							<linkclipref>clipitem-133</linkclipref>
							<mediatype>audio</mediatype>
							<trackindex>2</trackindex>
							<clipindex>8</clipindex>
							<groupindex>1</groupindex>
						</link>
						<logginginfo>
							<description></description>
							<scene></scene>
							<shottake></shottake>
							<lognote></lognote>
							<good></good>
							<originalvideofilename></originalvideofilename>
							<originalaudiofilename></originalaudiofilename>
						</logginginfo>
						<colorinfo>
							<lut></lut>
							<lut1></lut1>
							<asc_sop></asc_sop>
							<asc_sat></asc_sat>
							<lut2></lut2>
						</colorinfo>
						<labels>
							<label2>Rose</label2>
						</labels>
					</clipitem>
					<clipitem id="clipitem-112" premiereChannelType="stereo">
						<masterclipid>masterclip-57</masterclipid>
						<name>wiblo_1_2000-01-01_1144_C0051.mov</name>
						<enabled>TRUE</enabled>
						<duration>148</duration>
						<rate>
							<timebase>24</timebase>
							<ntsc>TRUE</ntsc>
						</rate>
						<start>47092</start>
						<end>47239</end>
						<in>1</in>
						<out>148</out>
						<pproTicksIn>10594584000</pproTicksIn>
						<pproTicksOut>1567998432000</pproTicksOut>
						<file id="file-57"/>
						<sourcetrack>
							<mediatype>audio</mediatype>
							<trackindex>1</trackindex>
						</sourcetrack>
						<filter>
							<effect>
								<name>Audio Levels</name>
								<effectid>audiolevels</effectid>
								<effectcategory>audiolevels</effectcategory>
								<effecttype>audiolevels</effecttype>
								<mediatype>audio</mediatype>
								<pproBypass>false</pproBypass>
								<parameter authoringApp="PremierePro">
									<parameterid>level</parameterid>
									<name>Level</name>
									<valuemin>0</valuemin>
									<valuemax>3.98109</valuemax>
									<value>1</value>
								</parameter>
							</effect>
						</filter>
						<link>
							<linkclipref>clipitem-57</linkclipref>
							<mediatype>video</mediatype>
							<trackindex>1</trackindex>
							<clipindex>57</clipindex>
						</link>
						<link>
							<linkclipref>clipitem-112</linkclipref>
							<mediatype>audio</mediatype>
							<trackindex>1</trackindex>
							<clipindex>9</clipindex>
							<groupindex>1</groupindex>
						</link>
						<link>
							<linkclipref>clipitem-134</linkclipref>
							<mediatype>audio</mediatype>
							<trackindex>2</trackindex>
							<clipindex>9</clipindex>
							<groupindex>1</groupindex>
						</link>
						<logginginfo>
							<description></description>
							<scene></scene>
							<shottake></shottake>
							<lognote></lognote>
							<good></good>
							<originalvideofilename></originalvideofilename>
							<originalaudiofilename></originalaudiofilename>
						</logginginfo>
						<colorinfo>
							<lut></lut>
							<lut1></lut1>
							<asc_sop></asc_sop>
							<asc_sat></asc_sat>
							<lut2></lut2>
						</colorinfo>
						<labels>
							<label2>Rose</label2>
						</labels>
					</clipitem>
					<clipitem id="clipitem-113" premiereChannelType="stereo">
						<masterclipid>masterclip-58</masterclipid>
						<name>wiblo_1_2000-01-01_1145_C0052.mov</name>
						<enabled>TRUE</enabled>
						<duration>251</duration>
						<rate>
							<timebase>24</timebase>
							<ntsc>TRUE</ntsc>
						</rate>
						<start>47239</start>
						<end>47489</end>
						<in>1</in>
						<out>251</out>
						<pproTicksIn>10594584000</pproTicksIn>
						<pproTicksOut>2659240584000</pproTicksOut>
						<file id="file-58"/>
						<sourcetrack>
							<mediatype>audio</mediatype>
							<trackindex>1</trackindex>
						</sourcetrack>
						<filter>
							<effect>
								<name>Audio Levels</name>
								<effectid>audiolevels</effectid>
								<effectcategory>audiolevels</effectcategory>
								<effecttype>audiolevels</effecttype>
								<mediatype>audio</mediatype>
								<pproBypass>false</pproBypass>
								<parameter authoringApp="PremierePro">
									<parameterid>level</parameterid>
									<name>Level</name>
									<valuemin>0</valuemin>
									<valuemax>3.98109</valuemax>
									<value>1</value>
								</parameter>
							</effect>
						</filter>
						<link>
							<linkclipref>clipitem-58</linkclipref>
							<mediatype>video</mediatype>
							<trackindex>1</trackindex>
							<clipindex>58</clipindex>
						</link>
						<link>
							<linkclipref>clipitem-113</linkclipref>
							<mediatype>audio</mediatype>
							<trackindex>1</trackindex>
							<clipindex>10</clipindex>
							<groupindex>1</groupindex>
						</link>
						<link>
							<linkclipref>clipitem-135</linkclipref>
							<mediatype>audio</mediatype>
							<trackindex>2</trackindex>
							<clipindex>10</clipindex>
							<groupindex>1</groupindex>
						</link>
						<logginginfo>
							<description></description>
							<scene></scene>
							<shottake></shottake>
							<lognote></lognote>
							<good></good>
							<originalvideofilename></originalvideofilename>
							<originalaudiofilename></originalaudiofilename>
						</logginginfo>
						<colorinfo>
							<lut></lut>
							<lut1></lut1>
							<asc_sop></asc_sop>
							<asc_sat></asc_sat>
							<lut2></lut2>
						</colorinfo>
						<labels>
							<label2>Rose</label2>
						</labels>
					</clipitem>
					<clipitem id="clipitem-114" premiereChannelType="stereo">
						<masterclipid>masterclip-59</masterclipid>
						<name>wiblo_1_2000-01-01_1145_C0053.mov</name>
						<enabled>TRUE</enabled>
						<duration>31</duration>
						<rate>
							<timebase>24</timebase>
							<ntsc>TRUE</ntsc>
						</rate>
						<start>47489</start>
						<end>47519</end>
						<in>1</in>
						<out>31</out>
						<pproTicksIn>10594584000</pproTicksIn>
						<pproTicksOut>328432104000</pproTicksOut>
						<file id="file-59"/>
						<sourcetrack>
							<mediatype>audio</mediatype>
							<trackindex>1</trackindex>
						</sourcetrack>
						<filter>
							<effect>
								<name>Audio Levels</name>
								<effectid>audiolevels</effectid>
								<effectcategory>audiolevels</effectcategory>
								<effecttype>audiolevels</effecttype>
								<mediatype>audio</mediatype>
								<pproBypass>false</pproBypass>
								<parameter authoringApp="PremierePro">
									<parameterid>level</parameterid>
									<name>Level</name>
									<valuemin>0</valuemin>
									<valuemax>3.98109</valuemax>
									<value>1</value>
								</parameter>
							</effect>
						</filter>
						<link>
							<linkclipref>clipitem-59</linkclipref>
							<mediatype>video</mediatype>
							<trackindex>1</trackindex>
							<clipindex>59</clipindex>
						</link>
						<link>
							<linkclipref>clipitem-114</linkclipref>
							<mediatype>audio</mediatype>
							<trackindex>1</trackindex>
							<clipindex>11</clipindex>
							<groupindex>1</groupindex>
						</link>
						<link>
							<linkclipref>clipitem-136</linkclipref>
							<mediatype>audio</mediatype>
							<trackindex>2</trackindex>
							<clipindex>11</clipindex>
							<groupindex>1</groupindex>
						</link>
						<logginginfo>
							<description></description>
							<scene></scene>
							<shottake></shottake>
							<lognote></lognote>
							<good></good>
							<originalvideofilename></originalvideofilename>
							<originalaudiofilename></originalaudiofilename>
						</logginginfo>
						<colorinfo>
							<lut></lut>
							<lut1></lut1>
							<asc_sop></asc_sop>
							<asc_sat></asc_sat>
							<lut2></lut2>
						</colorinfo>
						<labels>
							<label2>Rose</label2>
						</labels>
					</clipitem>
					<clipitem id="clipitem-115" premiereChannelType="stereo">
						<masterclipid>masterclip-60</masterclipid>
						<name>wiblo_1_2000-01-01_1145_C0054.mov</name>
						<enabled>TRUE</enabled>
						<duration>113</duration>
						<rate>
							<timebase>24</timebase>
							<ntsc>TRUE</ntsc>
						</rate>
						<start>47519</start>
						<end>47631</end>
						<in>1</in>
						<out>113</out>
						<pproTicksIn>10594584000</pproTicksIn>
						<pproTicksOut>1197187992000</pproTicksOut>
						<file id="file-60"/>
						<sourcetrack>
							<mediatype>audio</mediatype>
							<trackindex>1</trackindex>
						</sourcetrack>
						<filter>
							<effect>
								<name>Audio Levels</name>
								<effectid>audiolevels</effectid>
								<effectcategory>audiolevels</effectcategory>
								<effecttype>audiolevels</effecttype>
								<mediatype>audio</mediatype>
								<pproBypass>false</pproBypass>
								<parameter authoringApp="PremierePro">
									<parameterid>level</parameterid>
									<name>Level</name>
									<valuemin>0</valuemin>
									<valuemax>3.98109</valuemax>
									<value>1</value>
								</parameter>
							</effect>
						</filter>
						<link>
							<linkclipref>clipitem-60</linkclipref>
							<mediatype>video</mediatype>
							<trackindex>1</trackindex>
							<clipindex>60</clipindex>
						</link>
						<link>
							<linkclipref>clipitem-115</linkclipref>
							<mediatype>audio</mediatype>
							<trackindex>1</trackindex>
							<clipindex>12</clipindex>
							<groupindex>1</groupindex>
						</link>
						<link>
							<linkclipref>clipitem-137</linkclipref>
							<mediatype>audio</mediatype>
							<trackindex>2</trackindex>
							<clipindex>12</clipindex>
							<groupindex>1</groupindex>
						</link>
						<logginginfo>
							<description></description>
							<scene></scene>
							<shottake></shottake>
							<lognote></lognote>
							<good></good>
							<originalvideofilename></originalvideofilename>
							<originalaudiofilename></originalaudiofilename>
						</logginginfo>
						<colorinfo>
							<lut></lut>
							<lut1></lut1>
							<asc_sop></asc_sop>
							<asc_sat></asc_sat>
							<lut2></lut2>
						</colorinfo>
						<labels>
							<label2>Rose</label2>
						</labels>
					</clipitem>
					<clipitem id="clipitem-116" premiereChannelType="stereo">
						<masterclipid>masterclip-61</masterclipid>
						<name>wiblo_1_2000-01-01_1145_C0055.mov</name>
						<enabled>TRUE</enabled>
						<duration>170</duration>
						<rate>
							<timebase>24</timebase>
							<ntsc>TRUE</ntsc>
						</rate>
						<start>47631</start>
						<end>47800</end>
						<in>1</in>
						<out>170</out>
						<pproTicksIn>10594584000</pproTicksIn>
						<pproTicksOut>1801079280000</pproTicksOut>
						<file id="file-61"/>
						<sourcetrack>
							<mediatype>audio</mediatype>
							<trackindex>1</trackindex>
						</sourcetrack>
						<filter>
							<effect>
								<name>Audio Levels</name>
								<effectid>audiolevels</effectid>
								<effectcategory>audiolevels</effectcategory>
								<effecttype>audiolevels</effecttype>
								<mediatype>audio</mediatype>
								<pproBypass>false</pproBypass>
								<parameter authoringApp="PremierePro">
									<parameterid>level</parameterid>
									<name>Level</name>
									<valuemin>0</valuemin>
									<valuemax>3.98109</valuemax>
									<value>1</value>
								</parameter>
							</effect>
						</filter>
						<link>
							<linkclipref>clipitem-61</linkclipref>
							<mediatype>video</mediatype>
							<trackindex>1</trackindex>
							<clipindex>61</clipindex>
						</link>
						<link>
							<linkclipref>clipitem-116</linkclipref>
							<mediatype>audio</mediatype>
							<trackindex>1</trackindex>
							<clipindex>13</clipindex>
							<groupindex>1</groupindex>
						</link>
						<link>
							<linkclipref>clipitem-138</linkclipref>
							<mediatype>audio</mediatype>
							<trackindex>2</trackindex>
							<clipindex>13</clipindex>
							<groupindex>1</groupindex>
						</link>
						<logginginfo>
							<description></description>
							<scene></scene>
							<shottake></shottake>
							<lognote></lognote>
							<good></good>
							<originalvideofilename></originalvideofilename>
							<originalaudiofilename></originalaudiofilename>
						</logginginfo>
						<colorinfo>
							<lut></lut>
							<lut1></lut1>
							<asc_sop></asc_sop>
							<asc_sat></asc_sat>
							<lut2></lut2>
						</colorinfo>
						<labels>
							<label2>Rose</label2>
						</labels>
					</clipitem>
					<clipitem id="clipitem-117" premiereChannelType="stereo">
						<masterclipid>masterclip-62</masterclipid>
						<name>wiblo_1_2000-01-01_1145_C0056.mov</name>
						<enabled>TRUE</enabled>
						<duration>125</duration>
						<rate>
							<timebase>24</timebase>
							<ntsc>TRUE</ntsc>
						</rate>
						<start>47800</start>
						<end>47924</end>
						<in>1</in>
						<out>125</out>
						<pproTicksIn>10594584000</pproTicksIn>
						<pproTicksOut>1324323000000</pproTicksOut>
						<file id="file-62"/>
						<sourcetrack>
							<mediatype>audio</mediatype>
							<trackindex>1</trackindex>
						</sourcetrack>
						<filter>
							<effect>
								<name>Audio Levels</name>
								<effectid>audiolevels</effectid>
								<effectcategory>audiolevels</effectcategory>
								<effecttype>audiolevels</effecttype>
								<mediatype>audio</mediatype>
								<pproBypass>false</pproBypass>
								<parameter authoringApp="PremierePro">
									<parameterid>level</parameterid>
									<name>Level</name>
									<valuemin>0</valuemin>
									<valuemax>3.98109</valuemax>
									<value>1</value>
								</parameter>
							</effect>
						</filter>
						<link>
							<linkclipref>clipitem-62</linkclipref>
							<mediatype>video</mediatype>
							<trackindex>1</trackindex>
							<clipindex>62</clipindex>
						</link>
						<link>
							<linkclipref>clipitem-117</linkclipref>
							<mediatype>audio</mediatype>
							<trackindex>1</trackindex>
							<clipindex>14</clipindex>
							<groupindex>1</groupindex>
						</link>
						<link>
							<linkclipref>clipitem-139</linkclipref>
							<mediatype>audio</mediatype>
							<trackindex>2</trackindex>
							<clipindex>14</clipindex>
							<groupindex>1</groupindex>
						</link>
						<logginginfo>
							<description></description>
							<scene></scene>
							<shottake></shottake>
							<lognote></lognote>
							<good></good>
							<originalvideofilename></originalvideofilename>
							<originalaudiofilename></originalaudiofilename>
						</logginginfo>
						<colorinfo>
							<lut></lut>
							<lut1></lut1>
							<asc_sop></asc_sop>
							<asc_sat></asc_sat>
							<lut2></lut2>
						</colorinfo>
						<labels>
							<label2>Rose</label2>
						</labels>
					</clipitem>
					<clipitem id="clipitem-118" premiereChannelType="stereo">
						<masterclipid>masterclip-63</masterclipid>
						<name>wiblo_1_2000-01-01_1145_C0057.mov</name>
						<enabled>TRUE</enabled>
						<duration>99</duration>
						<rate>
							<timebase>24</timebase>
							<ntsc>TRUE</ntsc>
						</rate>
						<start>47924</start>
						<end>48022</end>
						<in>1</in>
						<out>99</out>
						<pproTicksIn>10594584000</pproTicksIn>
						<pproTicksOut>1048863816000</pproTicksOut>
						<file id="file-63"/>
						<sourcetrack>
							<mediatype>audio</mediatype>
							<trackindex>1</trackindex>
						</sourcetrack>
						<filter>
							<effect>
								<name>Audio Levels</name>
								<effectid>audiolevels</effectid>
								<effectcategory>audiolevels</effectcategory>
								<effecttype>audiolevels</effecttype>
								<mediatype>audio</mediatype>
								<pproBypass>false</pproBypass>
								<parameter authoringApp="PremierePro">
									<parameterid>level</parameterid>
									<name>Level</name>
									<valuemin>0</valuemin>
									<valuemax>3.98109</valuemax>
									<value>1</value>
								</parameter>
							</effect>
						</filter>
						<link>
							<linkclipref>clipitem-63</linkclipref>
							<mediatype>video</mediatype>
							<trackindex>1</trackindex>
							<clipindex>63</clipindex>
						</link>
						<link>
							<linkclipref>clipitem-118</linkclipref>
							<mediatype>audio</mediatype>
							<trackindex>1</trackindex>
							<clipindex>15</clipindex>
							<groupindex>1</groupindex>
						</link>
						<link>
							<linkclipref>clipitem-140</linkclipref>
							<mediatype>audio</mediatype>
							<trackindex>2</trackindex>
							<clipindex>15</clipindex>
							<groupindex>1</groupindex>
						</link>
						<logginginfo>
							<description></description>
							<scene></scene>
							<shottake></shottake>
							<lognote></lognote>
							<good></good>
							<originalvideofilename></originalvideofilename>
							<originalaudiofilename></originalaudiofilename>
						</logginginfo>
						<colorinfo>
							<lut></lut>
							<lut1></lut1>
							<asc_sop></asc_sop>
							<asc_sat></asc_sat>
							<lut2></lut2>
						</colorinfo>
						<labels>
							<label2>Rose</label2>
						</labels>
					</clipitem>
					<clipitem id="clipitem-119" premiereChannelType="stereo">
						<masterclipid>masterclip-64</masterclipid>
						<name>wiblo_1_2000-01-01_1146_C0058.mov</name>
						<enabled>TRUE</enabled>
						<duration>110</duration>
						<rate>
							<timebase>24</timebase>
							<ntsc>TRUE</ntsc>
						</rate>
						<start>48022</start>
						<end>48131</end>
						<in>1</in>
						<out>110</out>
						<pproTicksIn>10594584000</pproTicksIn>
						<pproTicksOut>1165404240000</pproTicksOut>
						<file id="file-64"/>
						<sourcetrack>
							<mediatype>audio</mediatype>
							<trackindex>1</trackindex>
						</sourcetrack>
						<filter>
							<effect>
								<name>Audio Levels</name>
								<effectid>audiolevels</effectid>
								<effectcategory>audiolevels</effectcategory>
								<effecttype>audiolevels</effecttype>
								<mediatype>audio</mediatype>
								<pproBypass>false</pproBypass>
								<parameter authoringApp="PremierePro">
									<parameterid>level</parameterid>
									<name>Level</name>
									<valuemin>0</valuemin>
									<valuemax>3.98109</valuemax>
									<value>1</value>
								</parameter>
							</effect>
						</filter>
						<link>
							<linkclipref>clipitem-64</linkclipref>
							<mediatype>video</mediatype>
							<trackindex>1</trackindex>
							<clipindex>64</clipindex>
						</link>
						<link>
							<linkclipref>clipitem-119</linkclipref>
							<mediatype>audio</mediatype>
							<trackindex>1</trackindex>
							<clipindex>16</clipindex>
							<groupindex>1</groupindex>
						</link>
						<link>
							<linkclipref>clipitem-141</linkclipref>
							<mediatype>audio</mediatype>
							<trackindex>2</trackindex>
							<clipindex>16</clipindex>
							<groupindex>1</groupindex>
						</link>
						<logginginfo>
							<description></description>
							<scene></scene>
							<shottake></shottake>
							<lognote></lognote>
							<good></good>
							<originalvideofilename></originalvideofilename>
							<originalaudiofilename></originalaudiofilename>
						</logginginfo>
						<colorinfo>
							<lut></lut>
							<lut1></lut1>
							<asc_sop></asc_sop>
							<asc_sat></asc_sat>
							<lut2></lut2>
						</colorinfo>
						<labels>
							<label2>Rose</label2>
						</labels>
					</clipitem>
					<clipitem id="clipitem-120" premiereChannelType="stereo">
						<masterclipid>masterclip-65</masterclipid>
						<name>wiblo_1_2000-01-01_1146_C0059.mov</name>
						<enabled>TRUE</enabled>
						<duration>50</duration>
						<rate>
							<timebase>24</timebase>
							<ntsc>TRUE</ntsc>
						</rate>
						<start>48131</start>
						<end>48179</end>
						<in>1</in>
						<out>49</out>
						<pproTicksIn>10594584000</pproTicksIn>
						<pproTicksOut>519134616000</pproTicksOut>
						<file id="file-65"/>
						<sourcetrack>
							<mediatype>audio</mediatype>
							<trackindex>1</trackindex>
						</sourcetrack>
						<filter>
							<effect>
								<name>Audio Levels</name>
								<effectid>audiolevels</effectid>
								<effectcategory>audiolevels</effectcategory>
								<effecttype>audiolevels</effecttype>
								<mediatype>audio</mediatype>
								<pproBypass>false</pproBypass>
								<parameter authoringApp="PremierePro">
									<parameterid>level</parameterid>
									<name>Level</name>
									<valuemin>0</valuemin>
									<valuemax>3.98109</valuemax>
									<value>1</value>
								</parameter>
							</effect>
						</filter>
						<link>
							<linkclipref>clipitem-65</linkclipref>
							<mediatype>video</mediatype>
							<trackindex>1</trackindex>
							<clipindex>65</clipindex>
						</link>
						<link>
							<linkclipref>clipitem-120</linkclipref>
							<mediatype>audio</mediatype>
							<trackindex>1</trackindex>
							<clipindex>17</clipindex>
							<groupindex>1</groupindex>
						</link>
						<link>
							<linkclipref>clipitem-142</linkclipref>
							<mediatype>audio</mediatype>
							<trackindex>2</trackindex>
							<clipindex>17</clipindex>
							<groupindex>1</groupindex>
						</link>
						<logginginfo>
							<description></description>
							<scene></scene>
							<shottake></shottake>
							<lognote></lognote>
							<good></good>
							<originalvideofilename></originalvideofilename>
							<originalaudiofilename></originalaudiofilename>
						</logginginfo>
						<colorinfo>
							<lut></lut>
							<lut1></lut1>
							<asc_sop></asc_sop>
							<asc_sat></asc_sat>
							<lut2></lut2>
						</colorinfo>
						<labels>
							<label2>Rose</label2>
						</labels>
					</clipitem>
					<clipitem id="clipitem-121" premiereChannelType="stereo">
						<masterclipid>masterclip-66</masterclipid>
						<name>wiblo_1_2000-01-01_1146_C0060.mov</name>
						<enabled>TRUE</enabled>
						<duration>637</duration>
						<rate>
							<timebase>24</timebase>
							<ntsc>TRUE</ntsc>
						</rate>
						<start>48179</start>
						<end>48816</end>
						<in>0</in>
						<out>637</out>
						<pproTicksIn>0</pproTicksIn>
						<pproTicksOut>6748750008000</pproTicksOut>
						<file id="file-66"/>
						<sourcetrack>
							<mediatype>audio</mediatype>
							<trackindex>1</trackindex>
						</sourcetrack>
						<filter>
							<effect>
								<name>Audio Levels</name>
								<effectid>audiolevels</effectid>
								<effectcategory>audiolevels</effectcategory>
								<effecttype>audiolevels</effecttype>
								<mediatype>audio</mediatype>
								<pproBypass>false</pproBypass>
								<parameter authoringApp="PremierePro">
									<parameterid>level</parameterid>
									<name>Level</name>
									<valuemin>0</valuemin>
									<valuemax>3.98109</valuemax>
									<value>1</value>
								</parameter>
							</effect>
						</filter>
						<link>
							<linkclipref>clipitem-66</linkclipref>
							<mediatype>video</mediatype>
							<trackindex>1</trackindex>
							<clipindex>66</clipindex>
						</link>
						<link>
							<linkclipref>clipitem-121</linkclipref>
							<mediatype>audio</mediatype>
							<trackindex>1</trackindex>
							<clipindex>18</clipindex>
							<groupindex>1</groupindex>
						</link>
						<link>
							<linkclipref>clipitem-143</linkclipref>
							<mediatype>audio</mediatype>
							<trackindex>2</trackindex>
							<clipindex>18</clipindex>
							<groupindex>1</groupindex>
						</link>
						<logginginfo>
							<description></description>
							<scene></scene>
							<shottake></shottake>
							<lognote></lognote>
							<good></good>
							<originalvideofilename></originalvideofilename>
							<originalaudiofilename></originalaudiofilename>
						</logginginfo>
						<colorinfo>
							<lut></lut>
							<lut1></lut1>
							<asc_sop></asc_sop>
							<asc_sat></asc_sat>
							<lut2></lut2>
						</colorinfo>
						<labels>
							<label2>Iris</label2>
						</labels>
					</clipitem>
					<clipitem id="clipitem-122" premiereChannelType="stereo">
						<masterclipid>masterclip-67</masterclipid>
						<name>wiblo_1_2000-01-01_1146_C0061.mov</name>
						<enabled>TRUE</enabled>
						<duration>89</duration>
						<rate>
							<timebase>24</timebase>
							<ntsc>TRUE</ntsc>
						</rate>
						<start>48867</start>
						<end>48956</end>
						<in>0</in>
						<out>89</out>
						<pproTicksIn>0</pproTicksIn>
						<pproTicksOut>942917976000</pproTicksOut>
						<file id="file-67"/>
						<sourcetrack>
							<mediatype>audio</mediatype>
							<trackindex>1</trackindex>
						</sourcetrack>
						<filter>
							<effect>
								<name>Audio Levels</name>
								<effectid>audiolevels</effectid>
								<effectcategory>audiolevels</effectcategory>
								<effecttype>audiolevels</effecttype>
								<mediatype>audio</mediatype>
								<pproBypass>false</pproBypass>
								<parameter authoringApp="PremierePro">
									<parameterid>level</parameterid>
									<name>Level</name>
									<valuemin>0</valuemin>
									<valuemax>3.98109</valuemax>
									<value>1</value>
								</parameter>
							</effect>
						</filter>
						<link>
							<linkclipref>clipitem-67</linkclipref>
							<mediatype>video</mediatype>
							<trackindex>1</trackindex>
							<clipindex>67</clipindex>
						</link>
						<link>
							<linkclipref>clipitem-122</linkclipref>
							<mediatype>audio</mediatype>
							<trackindex>1</trackindex>
							<clipindex>19</clipindex>
							<groupindex>1</groupindex>
						</link>
						<link>
							<linkclipref>clipitem-144</linkclipref>
							<mediatype>audio</mediatype>
							<trackindex>2</trackindex>
							<clipindex>19</clipindex>
							<groupindex>1</groupindex>
						</link>
						<logginginfo>
							<description></description>
							<scene></scene>
							<shottake></shottake>
							<lognote></lognote>
							<good></good>
							<originalvideofilename></originalvideofilename>
							<originalaudiofilename></originalaudiofilename>
						</logginginfo>
						<colorinfo>
							<lut></lut>
							<lut1></lut1>
							<asc_sop></asc_sop>
							<asc_sat></asc_sat>
							<lut2></lut2>
						</colorinfo>
						<labels>
							<label2>Rose</label2>
						</labels>
					</clipitem>
					<clipitem id="clipitem-123" premiereChannelType="stereo">
						<masterclipid>masterclip-1</masterclipid>
						<name>wiblo_1_2000-01-01_1146_C0062.mov</name>
						<enabled>TRUE</enabled>
						<duration>647</duration>
						<rate>
							<timebase>24</timebase>
							<ntsc>TRUE</ntsc>
						</rate>
						<start>48979</start>
						<end>49626</end>
						<in>0</in>
						<out>647</out>
						<pproTicksIn>0</pproTicksIn>
						<pproTicksOut>6854695848000</pproTicksOut>
						<file id="file-1"/>
						<sourcetrack>
							<mediatype>audio</mediatype>
							<trackindex>1</trackindex>
						</sourcetrack>
						<filter>
							<effect>
								<name>Audio Levels</name>
								<effectid>audiolevels</effectid>
								<effectcategory>audiolevels</effectcategory>
								<effecttype>audiolevels</effecttype>
								<mediatype>audio</mediatype>
								<pproBypass>false</pproBypass>
								<parameter authoringApp="PremierePro">
									<parameterid>level</parameterid>
									<name>Level</name>
									<valuemin>0</valuemin>
									<valuemax>3.98109</valuemax>
									<value>1</value>
								</parameter>
							</effect>
						</filter>
						<link>
							<linkclipref>clipitem-68</linkclipref>
							<mediatype>video</mediatype>
							<trackindex>1</trackindex>
							<clipindex>68</clipindex>
						</link>
						<link>
							<linkclipref>clipitem-123</linkclipref>
							<mediatype>audio</mediatype>
							<trackindex>1</trackindex>
							<clipindex>20</clipindex>
							<groupindex>1</groupindex>
						</link>
						<link>
							<linkclipref>clipitem-145</linkclipref>
							<mediatype>audio</mediatype>
							<trackindex>2</trackindex>
							<clipindex>20</clipindex>
							<groupindex>1</groupindex>
						</link>
						<logginginfo>
							<description></description>
							<scene></scene>
							<shottake></shottake>
							<lognote></lognote>
							<good></good>
							<originalvideofilename></originalvideofilename>
							<originalaudiofilename></originalaudiofilename>
						</logginginfo>
						<colorinfo>
							<lut></lut>
							<lut1></lut1>
							<asc_sop></asc_sop>
							<asc_sat></asc_sat>
							<lut2></lut2>
						</colorinfo>
						<labels>
							<label2>Rose</label2>
						</labels>
					</clipitem>
					<clipitem id="clipitem-124" premiereChannelType="stereo">
						<masterclipid>masterclip-68</masterclipid>
						<name>wiblo_1_2000-01-01_1148_C0066.mov</name>
						<enabled>TRUE</enabled>
						<duration>326</duration>
						<rate>
							<timebase>24</timebase>
							<ntsc>TRUE</ntsc>
						</rate>
						<start>49808</start>
						<end>50132</end>
						<in>1</in>
						<out>325</out>
						<pproTicksIn>10594584000</pproTicksIn>
						<pproTicksOut>3443239800000</pproTicksOut>
						<file id="file-68"/>
						<sourcetrack>
							<mediatype>audio</mediatype>
							<trackindex>1</trackindex>
						</sourcetrack>
						<filter>
							<effect>
								<name>Audio Levels</name>
								<effectid>audiolevels</effectid>
								<effectcategory>audiolevels</effectcategory>
								<effecttype>audiolevels</effecttype>
								<mediatype>audio</mediatype>
								<pproBypass>false</pproBypass>
								<parameter authoringApp="PremierePro">
									<parameterid>level</parameterid>
									<name>Level</name>
									<valuemin>0</valuemin>
									<valuemax>3.98109</valuemax>
									<value>1</value>
								</parameter>
							</effect>
						</filter>
						<link>
							<linkclipref>clipitem-69</linkclipref>
							<mediatype>video</mediatype>
							<trackindex>1</trackindex>
							<clipindex>69</clipindex>
						</link>
						<link>
							<linkclipref>clipitem-124</linkclipref>
							<mediatype>audio</mediatype>
							<trackindex>1</trackindex>
							<clipindex>21</clipindex>
							<groupindex>1</groupindex>
						</link>
						<link>
							<linkclipref>clipitem-146</linkclipref>
							<mediatype>audio</mediatype>
							<trackindex>2</trackindex>
							<clipindex>21</clipindex>
							<groupindex>1</groupindex>
						</link>
						<logginginfo>
							<description></description>
							<scene></scene>
							<shottake></shottake>
							<lognote></lognote>
							<good></good>
							<originalvideofilename></originalvideofilename>
							<originalaudiofilename></originalaudiofilename>
						</logginginfo>
						<colorinfo>
							<lut></lut>
							<lut1></lut1>
							<asc_sop></asc_sop>
							<asc_sat></asc_sat>
							<lut2></lut2>
						</colorinfo>
						<labels>
							<label2>Rose</label2>
						</labels>
					</clipitem>
					<clipitem id="clipitem-125" premiereChannelType="stereo">
						<masterclipid>masterclip-69</masterclipid>
						<name>julian_1_2021-12-26_1651_C0024.mov</name>
						<enabled>TRUE</enabled>
						<duration>387</duration>
						<rate>
							<timebase>24</timebase>
							<ntsc>TRUE</ntsc>
						</rate>
						<start>50132</start>
						<end>50518</end>
						<in>0</in>
						<out>386</out>
						<pproTicksIn>0</pproTicksIn>
						<pproTicksOut>4089509424000</pproTicksOut>
						<file id="file-69"/>
						<sourcetrack>
							<mediatype>audio</mediatype>
							<trackindex>1</trackindex>
						</sourcetrack>
						<filter>
							<effect>
								<name>Audio Levels</name>
								<effectid>audiolevels</effectid>
								<effectcategory>audiolevels</effectcategory>
								<effecttype>audiolevels</effecttype>
								<mediatype>audio</mediatype>
								<pproBypass>false</pproBypass>
								<parameter authoringApp="PremierePro">
									<parameterid>level</parameterid>
									<name>Level</name>
									<valuemin>0</valuemin>
									<valuemax>3.98109</valuemax>
									<value>1</value>
								</parameter>
							</effect>
						</filter>
						<link>
							<linkclipref>clipitem-70</linkclipref>
							<mediatype>video</mediatype>
							<trackindex>1</trackindex>
							<clipindex>70</clipindex>
						</link>
						<link>
							<linkclipref>clipitem-125</linkclipref>
							<mediatype>audio</mediatype>
							<trackindex>1</trackindex>
							<clipindex>22</clipindex>
							<groupindex>1</groupindex>
						</link>
						<link>
							<linkclipref>clipitem-147</linkclipref>
							<mediatype>audio</mediatype>
							<trackindex>2</trackindex>
							<clipindex>22</clipindex>
							<groupindex>1</groupindex>
						</link>
						<logginginfo>
							<description></description>
							<scene></scene>
							<shottake></shottake>
							<lognote></lognote>
							<good></good>
							<originalvideofilename></originalvideofilename>
							<originalaudiofilename></originalaudiofilename>
						</logginginfo>
						<colorinfo>
							<lut></lut>
							<lut1></lut1>
							<asc_sop></asc_sop>
							<asc_sat></asc_sat>
							<lut2></lut2>
						</colorinfo>
						<labels>
							<label2>Rose</label2>
						</labels>
					</clipitem>
					<enabled>TRUE</enabled>
					<locked>FALSE</locked>
					<outputchannelindex>1</outputchannelindex>
				</track>
				<track TL.SQTrackAudioKeyframeStyle="0" TL.SQTrackShy="0" TL.SQTrackExpandedHeight="63" TL.SQTrackExpanded="0" MZ.TrackTargeted="1" PannerCurrentValue="0.5" PannerStartKeyframe="-91445760000000000,0.5,0,0,0,0,0,0" PannerName="Balance" currentExplodedTrackIndex="1" totalExplodedTrackCount="2" premiereTrackType="Stereo">
					<clipitem id="clipitem-126" premiereChannelType="stereo">
						<masterclipid>masterclip-103</masterclipid>
						<name>magalys electrico - clip.mp3</name>
						<enabled>TRUE</enabled>
						<duration>40972</duration>
						<rate>
							<timebase>24</timebase>
							<ntsc>TRUE</ntsc>
						</rate>
						<start>30</start>
						<end>41002</end>
						<in>0</in>
						<out>40972</out>
						<pproTicksIn>0</pproTicksIn>
						<pproTicksOut>434081295648000</pproTicksOut>
						<file id="file-103"/>
						<sourcetrack>
							<mediatype>audio</mediatype>
							<trackindex>2</trackindex>
						</sourcetrack>
						<filter>
							<effect>
								<name>Audio Levels</name>
								<effectid>audiolevels</effectid>
								<effectcategory>audiolevels</effectcategory>
								<effecttype>audiolevels</effecttype>
								<mediatype>audio</mediatype>
								<pproBypass>false</pproBypass>
								<parameter authoringApp="PremierePro">
									<parameterid>level</parameterid>
									<name>Level</name>
									<valuemin>0</valuemin>
									<valuemax>3.98109</valuemax>
									<value>1</value>
								</parameter>
							</effect>
						</filter>
						<link>
							<linkclipref>clipitem-104</linkclipref>
							<mediatype>audio</mediatype>
							<trackindex>1</trackindex>
							<clipindex>1</clipindex>
							<groupindex>1</groupindex>
						</link>
						<link>
							<linkclipref>clipitem-126</linkclipref>
							<mediatype>audio</mediatype>
							<trackindex>2</trackindex>
							<clipindex>1</clipindex>
							<groupindex>1</groupindex>
						</link>
						<logginginfo>
							<description></description>
							<scene></scene>
							<shottake></shottake>
							<lognote></lognote>
							<good></good>
							<originalvideofilename></originalvideofilename>
							<originalaudiofilename></originalaudiofilename>
						</logginginfo>
						<colorinfo>
							<lut></lut>
							<lut1></lut1>
							<asc_sop></asc_sop>
							<asc_sat></asc_sat>
							<lut2></lut2>
						</colorinfo>
						<labels>
							<label2>Caribbean</label2>
						</labels>
					</clipitem>
					<clipitem id="clipitem-127" premiereChannelType="stereo">
						<masterclipid>masterclip-50</masterclipid>
						<name>wiblo_1_2000-01-01_1216_C0111.mov</name>
						<enabled>TRUE</enabled>
						<duration>320</duration>
						<rate>
							<timebase>24</timebase>
							<ntsc>TRUE</ntsc>
						</rate>
						<start>41002</start>
						<end>41078</end>
						<in>244</in>
						<out>320</out>
						<pproTicksIn>2585078496000</pproTicksIn>
						<pproTicksOut>3390266880000</pproTicksOut>
						<file id="file-50"/>
						<sourcetrack>
							<mediatype>audio</mediatype>
							<trackindex>2</trackindex>
						</sourcetrack>
						<filter>
							<effect>
								<name>Audio Levels</name>
								<effectid>audiolevels</effectid>
								<effectcategory>audiolevels</effectcategory>
								<effecttype>audiolevels</effecttype>
								<mediatype>audio</mediatype>
								<pproBypass>false</pproBypass>
								<parameter authoringApp="PremierePro">
									<parameterid>level</parameterid>
									<name>Level</name>
									<valuemin>0</valuemin>
									<valuemax>3.98109</valuemax>
									<value>1</value>
								</parameter>
							</effect>
						</filter>
						<link>
							<linkclipref>clipitem-50</linkclipref>
							<mediatype>video</mediatype>
							<trackindex>1</trackindex>
							<clipindex>50</clipindex>
						</link>
						<link>
							<linkclipref>clipitem-105</linkclipref>
							<mediatype>audio</mediatype>
							<trackindex>1</trackindex>
							<clipindex>2</clipindex>
							<groupindex>1</groupindex>
						</link>
						<link>
							<linkclipref>clipitem-127</linkclipref>
							<mediatype>audio</mediatype>
							<trackindex>2</trackindex>
							<clipindex>2</clipindex>
							<groupindex>1</groupindex>
						</link>
						<logginginfo>
							<description></description>
							<scene></scene>
							<shottake></shottake>
							<lognote></lognote>
							<good></good>
							<originalvideofilename></originalvideofilename>
							<originalaudiofilename></originalaudiofilename>
						</logginginfo>
						<colorinfo>
							<lut></lut>
							<lut1></lut1>
							<asc_sop></asc_sop>
							<asc_sat></asc_sat>
							<lut2></lut2>
						</colorinfo>
						<labels>
							<label2>Iris</label2>
						</labels>
					</clipitem>
					<clipitem id="clipitem-128" premiereChannelType="stereo">
						<masterclipid>masterclip-51</masterclipid>
						<name>wiblo_1_2000-01-01_1217_C0113.mov</name>
						<enabled>TRUE</enabled>
						<duration>378</duration>
						<rate>
							<timebase>24</timebase>
							<ntsc>TRUE</ntsc>
						</rate>
						<start>41078</start>
						<end>41455</end>
						<in>1</in>
						<out>378</out>
						<pproTicksIn>10594584000</pproTicksIn>
						<pproTicksOut>4004752752000</pproTicksOut>
						<file id="file-51"/>
						<sourcetrack>
							<mediatype>audio</mediatype>
							<trackindex>2</trackindex>
						</sourcetrack>
						<filter>
							<effect>
								<name>Audio Levels</name>
								<effectid>audiolevels</effectid>
								<effectcategory>audiolevels</effectcategory>
								<effecttype>audiolevels</effecttype>
								<mediatype>audio</mediatype>
								<pproBypass>false</pproBypass>
								<parameter authoringApp="PremierePro">
									<parameterid>level</parameterid>
									<name>Level</name>
									<valuemin>0</valuemin>
									<valuemax>3.98109</valuemax>
									<value>1</value>
								</parameter>
							</effect>
						</filter>
						<link>
							<linkclipref>clipitem-51</linkclipref>
							<mediatype>video</mediatype>
							<trackindex>1</trackindex>
							<clipindex>51</clipindex>
						</link>
						<link>
							<linkclipref>clipitem-106</linkclipref>
							<mediatype>audio</mediatype>
							<trackindex>1</trackindex>
							<clipindex>3</clipindex>
							<groupindex>1</groupindex>
						</link>
						<link>
							<linkclipref>clipitem-128</linkclipref>
							<mediatype>audio</mediatype>
							<trackindex>2</trackindex>
							<clipindex>3</clipindex>
							<groupindex>1</groupindex>
						</link>
						<logginginfo>
							<description></description>
							<scene></scene>
							<shottake></shottake>
							<lognote></lognote>
							<good></good>
							<originalvideofilename></originalvideofilename>
							<originalaudiofilename></originalaudiofilename>
						</logginginfo>
						<colorinfo>
							<lut></lut>
							<lut1></lut1>
							<asc_sop></asc_sop>
							<asc_sat></asc_sat>
							<lut2></lut2>
						</colorinfo>
						<labels>
							<label2>Rose</label2>
						</labels>
					</clipitem>
					<clipitem id="clipitem-129" premiereChannelType="stereo">
						<masterclipid>masterclip-52</masterclipid>
						<name>wiblo_1_2000-01-01_1142_C0046.mov</name>
						<enabled>TRUE</enabled>
						<duration>363</duration>
						<rate>
							<timebase>24</timebase>
							<ntsc>TRUE</ntsc>
						</rate>
						<start>45545</start>
						<end>45908</end>
						<in>0</in>
						<out>363</out>
						<pproTicksIn>0</pproTicksIn>
						<pproTicksOut>3845833992000</pproTicksOut>
						<file id="file-52"/>
						<sourcetrack>
							<mediatype>audio</mediatype>
							<trackindex>2</trackindex>
						</sourcetrack>
						<filter>
							<effect>
								<name>Audio Levels</name>
								<effectid>audiolevels</effectid>
								<effectcategory>audiolevels</effectcategory>
								<effecttype>audiolevels</effecttype>
								<mediatype>audio</mediatype>
								<pproBypass>false</pproBypass>
								<parameter authoringApp="PremierePro">
									<parameterid>level</parameterid>
									<name>Level</name>
									<valuemin>0</valuemin>
									<valuemax>3.98109</valuemax>
									<value>1</value>
								</parameter>
							</effect>
						</filter>
						<link>
							<linkclipref>clipitem-52</linkclipref>
							<mediatype>video</mediatype>
							<trackindex>1</trackindex>
							<clipindex>52</clipindex>
						</link>
						<link>
							<linkclipref>clipitem-107</linkclipref>
							<mediatype>audio</mediatype>
							<trackindex>1</trackindex>
							<clipindex>4</clipindex>
							<groupindex>1</groupindex>
						</link>
						<link>
							<linkclipref>clipitem-129</linkclipref>
							<mediatype>audio</mediatype>
							<trackindex>2</trackindex>
							<clipindex>4</clipindex>
							<groupindex>1</groupindex>
						</link>
						<logginginfo>
							<description></description>
							<scene></scene>
							<shottake></shottake>
							<lognote></lognote>
							<good></good>
							<originalvideofilename></originalvideofilename>
							<originalaudiofilename></originalaudiofilename>
						</logginginfo>
						<colorinfo>
							<lut></lut>
							<lut1></lut1>
							<asc_sop></asc_sop>
							<asc_sat></asc_sat>
							<lut2></lut2>
						</colorinfo>
						<labels>
							<label2>Rose</label2>
						</labels>
					</clipitem>
					<clipitem id="clipitem-130" premiereChannelType="stereo">
						<masterclipid>masterclip-53</masterclipid>
						<name>wiblo_1_2000-01-01_1143_C0047.mov</name>
						<enabled>TRUE</enabled>
						<duration>295</duration>
						<rate>
							<timebase>24</timebase>
							<ntsc>TRUE</ntsc>
						</rate>
						<start>45908</start>
						<end>46202</end>
						<in>1</in>
						<out>295</out>
						<pproTicksIn>10594584000</pproTicksIn>
						<pproTicksOut>3125402280000</pproTicksOut>
						<file id="file-53"/>
						<sourcetrack>
							<mediatype>audio</mediatype>
							<trackindex>2</trackindex>
						</sourcetrack>
						<filter>
							<effect>
								<name>Audio Levels</name>
								<effectid>audiolevels</effectid>
								<effectcategory>audiolevels</effectcategory>
								<effecttype>audiolevels</effecttype>
								<mediatype>audio</mediatype>
								<pproBypass>false</pproBypass>
								<parameter authoringApp="PremierePro">
									<parameterid>level</parameterid>
									<name>Level</name>
									<valuemin>0</valuemin>
									<valuemax>3.98109</valuemax>
									<value>1</value>
								</parameter>
							</effect>
						</filter>
						<link>
							<linkclipref>clipitem-53</linkclipref>
							<mediatype>video</mediatype>
							<trackindex>1</trackindex>
							<clipindex>53</clipindex>
						</link>
						<link>
							<linkclipref>clipitem-108</linkclipref>
							<mediatype>audio</mediatype>
							<trackindex>1</trackindex>
							<clipindex>5</clipindex>
							<groupindex>1</groupindex>
						</link>
						<link>
							<linkclipref>clipitem-130</linkclipref>
							<mediatype>audio</mediatype>
							<trackindex>2</trackindex>
							<clipindex>5</clipindex>
							<groupindex>1</groupindex>
						</link>
						<logginginfo>
							<description></description>
							<scene></scene>
							<shottake></shottake>
							<lognote></lognote>
							<good></good>
							<originalvideofilename></originalvideofilename>
							<originalaudiofilename></originalaudiofilename>
						</logginginfo>
						<colorinfo>
							<lut></lut>
							<lut1></lut1>
							<asc_sop></asc_sop>
							<asc_sat></asc_sat>
							<lut2></lut2>
						</colorinfo>
						<labels>
							<label2>Rose</label2>
						</labels>
					</clipitem>
					<clipitem id="clipitem-131" premiereChannelType="stereo">
						<masterclipid>masterclip-54</masterclipid>
						<name>wiblo_1_2000-01-01_1143_C0048.mov</name>
						<enabled>TRUE</enabled>
						<duration>595</duration>
						<rate>
							<timebase>24</timebase>
							<ntsc>TRUE</ntsc>
						</rate>
						<start>46202</start>
						<end>46796</end>
						<in>1</in>
						<out>595</out>
						<pproTicksIn>10594584000</pproTicksIn>
						<pproTicksOut>6303777480000</pproTicksOut>
						<file id="file-54"/>
						<sourcetrack>
							<mediatype>audio</mediatype>
							<trackindex>2</trackindex>
						</sourcetrack>
						<filter>
							<effect>
								<name>Audio Levels</name>
								<effectid>audiolevels</effectid>
								<effectcategory>audiolevels</effectcategory>
								<effecttype>audiolevels</effecttype>
								<mediatype>audio</mediatype>
								<pproBypass>false</pproBypass>
								<parameter authoringApp="PremierePro">
									<parameterid>level</parameterid>
									<name>Level</name>
									<valuemin>0</valuemin>
									<valuemax>3.98109</valuemax>
									<value>1</value>
								</parameter>
							</effect>
						</filter>
						<link>
							<linkclipref>clipitem-54</linkclipref>
							<mediatype>video</mediatype>
							<trackindex>1</trackindex>
							<clipindex>54</clipindex>
						</link>
						<link>
							<linkclipref>clipitem-109</linkclipref>
							<mediatype>audio</mediatype>
							<trackindex>1</trackindex>
							<clipindex>6</clipindex>
							<groupindex>1</groupindex>
						</link>
						<link>
							<linkclipref>clipitem-131</linkclipref>
							<mediatype>audio</mediatype>
							<trackindex>2</trackindex>
							<clipindex>6</clipindex>
							<groupindex>1</groupindex>
						</link>
						<logginginfo>
							<description></description>
							<scene></scene>
							<shottake></shottake>
							<lognote></lognote>
							<good></good>
							<originalvideofilename></originalvideofilename>
							<originalaudiofilename></originalaudiofilename>
						</logginginfo>
						<colorinfo>
							<lut></lut>
							<lut1></lut1>
							<asc_sop></asc_sop>
							<asc_sat></asc_sat>
							<lut2></lut2>
						</colorinfo>
						<labels>
							<label2>Rose</label2>
						</labels>
					</clipitem>
					<clipitem id="clipitem-132" premiereChannelType="stereo">
						<masterclipid>masterclip-55</masterclipid>
						<name>wiblo_1_2000-01-01_1144_C0049.mov</name>
						<enabled>TRUE</enabled>
						<duration>191</duration>
						<rate>
							<timebase>24</timebase>
							<ntsc>TRUE</ntsc>
						</rate>
						<start>46796</start>
						<end>46986</end>
						<in>1</in>
						<out>191</out>
						<pproTicksIn>10594584000</pproTicksIn>
						<pproTicksOut>2023565544000</pproTicksOut>
						<file id="file-55"/>
						<sourcetrack>
							<mediatype>audio</mediatype>
							<trackindex>2</trackindex>
						</sourcetrack>
						<filter>
							<effect>
								<name>Audio Levels</name>
								<effectid>audiolevels</effectid>
								<effectcategory>audiolevels</effectcategory>
								<effecttype>audiolevels</effecttype>
								<mediatype>audio</mediatype>
								<pproBypass>false</pproBypass>
								<parameter authoringApp="PremierePro">
									<parameterid>level</parameterid>
									<name>Level</name>
									<valuemin>0</valuemin>
									<valuemax>3.98109</valuemax>
									<value>1</value>
								</parameter>
							</effect>
						</filter>
						<link>
							<linkclipref>clipitem-55</linkclipref>
							<mediatype>video</mediatype>
							<trackindex>1</trackindex>
							<clipindex>55</clipindex>
						</link>
						<link>
							<linkclipref>clipitem-110</linkclipref>
							<mediatype>audio</mediatype>
							<trackindex>1</trackindex>
							<clipindex>7</clipindex>
							<groupindex>1</groupindex>
						</link>
						<link>
							<linkclipref>clipitem-132</linkclipref>
							<mediatype>audio</mediatype>
							<trackindex>2</trackindex>
							<clipindex>7</clipindex>
							<groupindex>1</groupindex>
						</link>
						<logginginfo>
							<description></description>
							<scene></scene>
							<shottake></shottake>
							<lognote></lognote>
							<good></good>
							<originalvideofilename></originalvideofilename>
							<originalaudiofilename></originalaudiofilename>
						</logginginfo>
						<colorinfo>
							<lut></lut>
							<lut1></lut1>
							<asc_sop></asc_sop>
							<asc_sat></asc_sat>
							<lut2></lut2>
						</colorinfo>
						<labels>
							<label2>Rose</label2>
						</labels>
					</clipitem>
					<clipitem id="clipitem-133" premiereChannelType="stereo">
						<masterclipid>masterclip-56</masterclipid>
						<name>wiblo_1_2000-01-01_1144_C0050.mov</name>
						<enabled>TRUE</enabled>
						<duration>107</duration>
						<rate>
							<timebase>24</timebase>
							<ntsc>TRUE</ntsc>
						</rate>
						<start>46986</start>
						<end>47092</end>
						<in>1</in>
						<out>107</out>
						<pproTicksIn>10594584000</pproTicksIn>
						<pproTicksOut>1133620488000</pproTicksOut>
						<file id="file-56"/>
						<sourcetrack>
							<mediatype>audio</mediatype>
							<trackindex>2</trackindex>
						</sourcetrack>
						<filter>
							<effect>
								<name>Audio Levels</name>
								<effectid>audiolevels</effectid>
								<effectcategory>audiolevels</effectcategory>
								<effecttype>audiolevels</effecttype>
								<mediatype>audio</mediatype>
								<pproBypass>false</pproBypass>
								<parameter authoringApp="PremierePro">
									<parameterid>level</parameterid>
									<name>Level</name>
									<valuemin>0</valuemin>
									<valuemax>3.98109</valuemax>
									<value>1</value>
								</parameter>
							</effect>
						</filter>
						<link>
							<linkclipref>clipitem-56</linkclipref>
							<mediatype>video</mediatype>
							<trackindex>1</trackindex>
							<clipindex>56</clipindex>
						</link>
						<link>
							<linkclipref>clipitem-111</linkclipref>
							<mediatype>audio</mediatype>
							<trackindex>1</trackindex>
							<clipindex>8</clipindex>
							<groupindex>1</groupindex>
						</link>
						<link>
							<linkclipref>clipitem-133</linkclipref>
							<mediatype>audio</mediatype>
							<trackindex>2</trackindex>
							<clipindex>8</clipindex>
							<groupindex>1</groupindex>
						</link>
						<logginginfo>
							<description></description>
							<scene></scene>
							<shottake></shottake>
							<lognote></lognote>
							<good></good>
							<originalvideofilename></originalvideofilename>
							<originalaudiofilename></originalaudiofilename>
						</logginginfo>
						<colorinfo>
							<lut></lut>
							<lut1></lut1>
							<asc_sop></asc_sop>
							<asc_sat></asc_sat>
							<lut2></lut2>
						</colorinfo>
						<labels>
							<label2>Rose</label2>
						</labels>
					</clipitem>
					<clipitem id="clipitem-134" premiereChannelType="stereo">
						<masterclipid>masterclip-57</masterclipid>
						<name>wiblo_1_2000-01-01_1144_C0051.mov</name>
						<enabled>TRUE</enabled>
						<duration>148</duration>
						<rate>
							<timebase>24</timebase>
							<ntsc>TRUE</ntsc>
						</rate>
						<start>47092</start>
						<end>47239</end>
						<in>1</in>
						<out>148</out>
						<pproTicksIn>10594584000</pproTicksIn>
						<pproTicksOut>1567998432000</pproTicksOut>
						<file id="file-57"/>
						<sourcetrack>
							<mediatype>audio</mediatype>
							<trackindex>2</trackindex>
						</sourcetrack>
						<filter>
							<effect>
								<name>Audio Levels</name>
								<effectid>audiolevels</effectid>
								<effectcategory>audiolevels</effectcategory>
								<effecttype>audiolevels</effecttype>
								<mediatype>audio</mediatype>
								<pproBypass>false</pproBypass>
								<parameter authoringApp="PremierePro">
									<parameterid>level</parameterid>
									<name>Level</name>
									<valuemin>0</valuemin>
									<valuemax>3.98109</valuemax>
									<value>1</value>
								</parameter>
							</effect>
						</filter>
						<link>
							<linkclipref>clipitem-57</linkclipref>
							<mediatype>video</mediatype>
							<trackindex>1</trackindex>
							<clipindex>57</clipindex>
						</link>
						<link>
							<linkclipref>clipitem-112</linkclipref>
							<mediatype>audio</mediatype>
							<trackindex>1</trackindex>
							<clipindex>9</clipindex>
							<groupindex>1</groupindex>
						</link>
						<link>
							<linkclipref>clipitem-134</linkclipref>
							<mediatype>audio</mediatype>
							<trackindex>2</trackindex>
							<clipindex>9</clipindex>
							<groupindex>1</groupindex>
						</link>
						<logginginfo>
							<description></description>
							<scene></scene>
							<shottake></shottake>
							<lognote></lognote>
							<good></good>
							<originalvideofilename></originalvideofilename>
							<originalaudiofilename></originalaudiofilename>
						</logginginfo>
						<colorinfo>
							<lut></lut>
							<lut1></lut1>
							<asc_sop></asc_sop>
							<asc_sat></asc_sat>
							<lut2></lut2>
						</colorinfo>
						<labels>
							<label2>Rose</label2>
						</labels>
					</clipitem>
					<clipitem id="clipitem-135" premiereChannelType="stereo">
						<masterclipid>masterclip-58</masterclipid>
						<name>wiblo_1_2000-01-01_1145_C0052.mov</name>
						<enabled>TRUE</enabled>
						<duration>251</duration>
						<rate>
							<timebase>24</timebase>
							<ntsc>TRUE</ntsc>
						</rate>
						<start>47239</start>
						<end>47489</end>
						<in>1</in>
						<out>251</out>
						<pproTicksIn>10594584000</pproTicksIn>
						<pproTicksOut>2659240584000</pproTicksOut>
						<file id="file-58"/>
						<sourcetrack>
							<mediatype>audio</mediatype>
							<trackindex>2</trackindex>
						</sourcetrack>
						<filter>
							<effect>
								<name>Audio Levels</name>
								<effectid>audiolevels</effectid>
								<effectcategory>audiolevels</effectcategory>
								<effecttype>audiolevels</effecttype>
								<mediatype>audio</mediatype>
								<pproBypass>false</pproBypass>
								<parameter authoringApp="PremierePro">
									<parameterid>level</parameterid>
									<name>Level</name>
									<valuemin>0</valuemin>
									<valuemax>3.98109</valuemax>
									<value>1</value>
								</parameter>
							</effect>
						</filter>
						<link>
							<linkclipref>clipitem-58</linkclipref>
							<mediatype>video</mediatype>
							<trackindex>1</trackindex>
							<clipindex>58</clipindex>
						</link>
						<link>
							<linkclipref>clipitem-113</linkclipref>
							<mediatype>audio</mediatype>
							<trackindex>1</trackindex>
							<clipindex>10</clipindex>
							<groupindex>1</groupindex>
						</link>
						<link>
							<linkclipref>clipitem-135</linkclipref>
							<mediatype>audio</mediatype>
							<trackindex>2</trackindex>
							<clipindex>10</clipindex>
							<groupindex>1</groupindex>
						</link>
						<logginginfo>
							<description></description>
							<scene></scene>
							<shottake></shottake>
							<lognote></lognote>
							<good></good>
							<originalvideofilename></originalvideofilename>
							<originalaudiofilename></originalaudiofilename>
						</logginginfo>
						<colorinfo>
							<lut></lut>
							<lut1></lut1>
							<asc_sop></asc_sop>
							<asc_sat></asc_sat>
							<lut2></lut2>
						</colorinfo>
						<labels>
							<label2>Rose</label2>
						</labels>
					</clipitem>
					<clipitem id="clipitem-136" premiereChannelType="stereo">
						<masterclipid>masterclip-59</masterclipid>
						<name>wiblo_1_2000-01-01_1145_C0053.mov</name>
						<enabled>TRUE</enabled>
						<duration>31</duration>
						<rate>
							<timebase>24</timebase>
							<ntsc>TRUE</ntsc>
						</rate>
						<start>47489</start>
						<end>47519</end>
						<in>1</in>
						<out>31</out>
						<pproTicksIn>10594584000</pproTicksIn>
						<pproTicksOut>328432104000</pproTicksOut>
						<file id="file-59"/>
						<sourcetrack>
							<mediatype>audio</mediatype>
							<trackindex>2</trackindex>
						</sourcetrack>
						<filter>
							<effect>
								<name>Audio Levels</name>
								<effectid>audiolevels</effectid>
								<effectcategory>audiolevels</effectcategory>
								<effecttype>audiolevels</effecttype>
								<mediatype>audio</mediatype>
								<pproBypass>false</pproBypass>
								<parameter authoringApp="PremierePro">
									<parameterid>level</parameterid>
									<name>Level</name>
									<valuemin>0</valuemin>
									<valuemax>3.98109</valuemax>
									<value>1</value>
								</parameter>
							</effect>
						</filter>
						<link>
							<linkclipref>clipitem-59</linkclipref>
							<mediatype>video</mediatype>
							<trackindex>1</trackindex>
							<clipindex>59</clipindex>
						</link>
						<link>
							<linkclipref>clipitem-114</linkclipref>
							<mediatype>audio</mediatype>
							<trackindex>1</trackindex>
							<clipindex>11</clipindex>
							<groupindex>1</groupindex>
						</link>
						<link>
							<linkclipref>clipitem-136</linkclipref>
							<mediatype>audio</mediatype>
							<trackindex>2</trackindex>
							<clipindex>11</clipindex>
							<groupindex>1</groupindex>
						</link>
						<logginginfo>
							<description></description>
							<scene></scene>
							<shottake></shottake>
							<lognote></lognote>
							<good></good>
							<originalvideofilename></originalvideofilename>
							<originalaudiofilename></originalaudiofilename>
						</logginginfo>
						<colorinfo>
							<lut></lut>
							<lut1></lut1>
							<asc_sop></asc_sop>
							<asc_sat></asc_sat>
							<lut2></lut2>
						</colorinfo>
						<labels>
							<label2>Rose</label2>
						</labels>
					</clipitem>
					<clipitem id="clipitem-137" premiereChannelType="stereo">
						<masterclipid>masterclip-60</masterclipid>
						<name>wiblo_1_2000-01-01_1145_C0054.mov</name>
						<enabled>TRUE</enabled>
						<duration>113</duration>
						<rate>
							<timebase>24</timebase>
							<ntsc>TRUE</ntsc>
						</rate>
						<start>47519</start>
						<end>47631</end>
						<in>1</in>
						<out>113</out>
						<pproTicksIn>10594584000</pproTicksIn>
						<pproTicksOut>1197187992000</pproTicksOut>
						<file id="file-60"/>
						<sourcetrack>
							<mediatype>audio</mediatype>
							<trackindex>2</trackindex>
						</sourcetrack>
						<filter>
							<effect>
								<name>Audio Levels</name>
								<effectid>audiolevels</effectid>
								<effectcategory>audiolevels</effectcategory>
								<effecttype>audiolevels</effecttype>
								<mediatype>audio</mediatype>
								<pproBypass>false</pproBypass>
								<parameter authoringApp="PremierePro">
									<parameterid>level</parameterid>
									<name>Level</name>
									<valuemin>0</valuemin>
									<valuemax>3.98109</valuemax>
									<value>1</value>
								</parameter>
							</effect>
						</filter>
						<link>
							<linkclipref>clipitem-60</linkclipref>
							<mediatype>video</mediatype>
							<trackindex>1</trackindex>
							<clipindex>60</clipindex>
						</link>
						<link>
							<linkclipref>clipitem-115</linkclipref>
							<mediatype>audio</mediatype>
							<trackindex>1</trackindex>
							<clipindex>12</clipindex>
							<groupindex>1</groupindex>
						</link>
						<link>
							<linkclipref>clipitem-137</linkclipref>
							<mediatype>audio</mediatype>
							<trackindex>2</trackindex>
							<clipindex>12</clipindex>
							<groupindex>1</groupindex>
						</link>
						<logginginfo>
							<description></description>
							<scene></scene>
							<shottake></shottake>
							<lognote></lognote>
							<good></good>
							<originalvideofilename></originalvideofilename>
							<originalaudiofilename></originalaudiofilename>
						</logginginfo>
						<colorinfo>
							<lut></lut>
							<lut1></lut1>
							<asc_sop></asc_sop>
							<asc_sat></asc_sat>
							<lut2></lut2>
						</colorinfo>
						<labels>
							<label2>Rose</label2>
						</labels>
					</clipitem>
					<clipitem id="clipitem-138" premiereChannelType="stereo">
						<masterclipid>masterclip-61</masterclipid>
						<name>wiblo_1_2000-01-01_1145_C0055.mov</name>
						<enabled>TRUE</enabled>
						<duration>170</duration>
						<rate>
							<timebase>24</timebase>
							<ntsc>TRUE</ntsc>
						</rate>
						<start>47631</start>
						<end>47800</end>
						<in>1</in>
						<out>170</out>
						<pproTicksIn>10594584000</pproTicksIn>
						<pproTicksOut>1801079280000</pproTicksOut>
						<file id="file-61"/>
						<sourcetrack>
							<mediatype>audio</mediatype>
							<trackindex>2</trackindex>
						</sourcetrack>
						<filter>
							<effect>
								<name>Audio Levels</name>
								<effectid>audiolevels</effectid>
								<effectcategory>audiolevels</effectcategory>
								<effecttype>audiolevels</effecttype>
								<mediatype>audio</mediatype>
								<pproBypass>false</pproBypass>
								<parameter authoringApp="PremierePro">
									<parameterid>level</parameterid>
									<name>Level</name>
									<valuemin>0</valuemin>
									<valuemax>3.98109</valuemax>
									<value>1</value>
								</parameter>
							</effect>
						</filter>
						<link>
							<linkclipref>clipitem-61</linkclipref>
							<mediatype>video</mediatype>
							<trackindex>1</trackindex>
							<clipindex>61</clipindex>
						</link>
						<link>
							<linkclipref>clipitem-116</linkclipref>
							<mediatype>audio</mediatype>
							<trackindex>1</trackindex>
							<clipindex>13</clipindex>
							<groupindex>1</groupindex>
						</link>
						<link>
							<linkclipref>clipitem-138</linkclipref>
							<mediatype>audio</mediatype>
							<trackindex>2</trackindex>
							<clipindex>13</clipindex>
							<groupindex>1</groupindex>
						</link>
						<logginginfo>
							<description></description>
							<scene></scene>
							<shottake></shottake>
							<lognote></lognote>
							<good></good>
							<originalvideofilename></originalvideofilename>
							<originalaudiofilename></originalaudiofilename>
						</logginginfo>
						<colorinfo>
							<lut></lut>
							<lut1></lut1>
							<asc_sop></asc_sop>
							<asc_sat></asc_sat>
							<lut2></lut2>
						</colorinfo>
						<labels>
							<label2>Rose</label2>
						</labels>
					</clipitem>
					<clipitem id="clipitem-139" premiereChannelType="stereo">
						<masterclipid>masterclip-62</masterclipid>
						<name>wiblo_1_2000-01-01_1145_C0056.mov</name>
						<enabled>TRUE</enabled>
						<duration>125</duration>
						<rate>
							<timebase>24</timebase>
							<ntsc>TRUE</ntsc>
						</rate>
						<start>47800</start>
						<end>47924</end>
						<in>1</in>
						<out>125</out>
						<pproTicksIn>10594584000</pproTicksIn>
						<pproTicksOut>1324323000000</pproTicksOut>
						<file id="file-62"/>
						<sourcetrack>
							<mediatype>audio</mediatype>
							<trackindex>2</trackindex>
						</sourcetrack>
						<filter>
							<effect>
								<name>Audio Levels</name>
								<effectid>audiolevels</effectid>
								<effectcategory>audiolevels</effectcategory>
								<effecttype>audiolevels</effecttype>
								<mediatype>audio</mediatype>
								<pproBypass>false</pproBypass>
								<parameter authoringApp="PremierePro">
									<parameterid>level</parameterid>
									<name>Level</name>
									<valuemin>0</valuemin>
									<valuemax>3.98109</valuemax>
									<value>1</value>
								</parameter>
							</effect>
						</filter>
						<link>
							<linkclipref>clipitem-62</linkclipref>
							<mediatype>video</mediatype>
							<trackindex>1</trackindex>
							<clipindex>62</clipindex>
						</link>
						<link>
							<linkclipref>clipitem-117</linkclipref>
							<mediatype>audio</mediatype>
							<trackindex>1</trackindex>
							<clipindex>14</clipindex>
							<groupindex>1</groupindex>
						</link>
						<link>
							<linkclipref>clipitem-139</linkclipref>
							<mediatype>audio</mediatype>
							<trackindex>2</trackindex>
							<clipindex>14</clipindex>
							<groupindex>1</groupindex>
						</link>
						<logginginfo>
							<description></description>
							<scene></scene>
							<shottake></shottake>
							<lognote></lognote>
							<good></good>
							<originalvideofilename></originalvideofilename>
							<originalaudiofilename></originalaudiofilename>
						</logginginfo>
						<colorinfo>
							<lut></lut>
							<lut1></lut1>
							<asc_sop></asc_sop>
							<asc_sat></asc_sat>
							<lut2></lut2>
						</colorinfo>
						<labels>
							<label2>Rose</label2>
						</labels>
					</clipitem>
					<clipitem id="clipitem-140" premiereChannelType="stereo">
						<masterclipid>masterclip-63</masterclipid>
						<name>wiblo_1_2000-01-01_1145_C0057.mov</name>
						<enabled>TRUE</enabled>
						<duration>99</duration>
						<rate>
							<timebase>24</timebase>
							<ntsc>TRUE</ntsc>
						</rate>
						<start>47924</start>
						<end>48022</end>
						<in>1</in>
						<out>99</out>
						<pproTicksIn>10594584000</pproTicksIn>
						<pproTicksOut>1048863816000</pproTicksOut>
						<file id="file-63"/>
						<sourcetrack>
							<mediatype>audio</mediatype>
							<trackindex>2</trackindex>
						</sourcetrack>
						<filter>
							<effect>
								<name>Audio Levels</name>
								<effectid>audiolevels</effectid>
								<effectcategory>audiolevels</effectcategory>
								<effecttype>audiolevels</effecttype>
								<mediatype>audio</mediatype>
								<pproBypass>false</pproBypass>
								<parameter authoringApp="PremierePro">
									<parameterid>level</parameterid>
									<name>Level</name>
									<valuemin>0</valuemin>
									<valuemax>3.98109</valuemax>
									<value>1</value>
								</parameter>
							</effect>
						</filter>
						<link>
							<linkclipref>clipitem-63</linkclipref>
							<mediatype>video</mediatype>
							<trackindex>1</trackindex>
							<clipindex>63</clipindex>
						</link>
						<link>
							<linkclipref>clipitem-118</linkclipref>
							<mediatype>audio</mediatype>
							<trackindex>1</trackindex>
							<clipindex>15</clipindex>
							<groupindex>1</groupindex>
						</link>
						<link>
							<linkclipref>clipitem-140</linkclipref>
							<mediatype>audio</mediatype>
							<trackindex>2</trackindex>
							<clipindex>15</clipindex>
							<groupindex>1</groupindex>
						</link>
						<logginginfo>
							<description></description>
							<scene></scene>
							<shottake></shottake>
							<lognote></lognote>
							<good></good>
							<originalvideofilename></originalvideofilename>
							<originalaudiofilename></originalaudiofilename>
						</logginginfo>
						<colorinfo>
							<lut></lut>
							<lut1></lut1>
							<asc_sop></asc_sop>
							<asc_sat></asc_sat>
							<lut2></lut2>
						</colorinfo>
						<labels>
							<label2>Rose</label2>
						</labels>
					</clipitem>
					<clipitem id="clipitem-141" premiereChannelType="stereo">
						<masterclipid>masterclip-64</masterclipid>
						<name>wiblo_1_2000-01-01_1146_C0058.mov</name>
						<enabled>TRUE</enabled>
						<duration>110</duration>
						<rate>
							<timebase>24</timebase>
							<ntsc>TRUE</ntsc>
						</rate>
						<start>48022</start>
						<end>48131</end>
						<in>1</in>
						<out>110</out>
						<pproTicksIn>10594584000</pproTicksIn>
						<pproTicksOut>1165404240000</pproTicksOut>
						<file id="file-64"/>
						<sourcetrack>
							<mediatype>audio</mediatype>
							<trackindex>2</trackindex>
						</sourcetrack>
						<filter>
							<effect>
								<name>Audio Levels</name>
								<effectid>audiolevels</effectid>
								<effectcategory>audiolevels</effectcategory>
								<effecttype>audiolevels</effecttype>
								<mediatype>audio</mediatype>
								<pproBypass>false</pproBypass>
								<parameter authoringApp="PremierePro">
									<parameterid>level</parameterid>
									<name>Level</name>
									<valuemin>0</valuemin>
									<valuemax>3.98109</valuemax>
									<value>1</value>
								</parameter>
							</effect>
						</filter>
						<link>
							<linkclipref>clipitem-64</linkclipref>
							<mediatype>video</mediatype>
							<trackindex>1</trackindex>
							<clipindex>64</clipindex>
						</link>
						<link>
							<linkclipref>clipitem-119</linkclipref>
							<mediatype>audio</mediatype>
							<trackindex>1</trackindex>
							<clipindex>16</clipindex>
							<groupindex>1</groupindex>
						</link>
						<link>
							<linkclipref>clipitem-141</linkclipref>
							<mediatype>audio</mediatype>
							<trackindex>2</trackindex>
							<clipindex>16</clipindex>
							<groupindex>1</groupindex>
						</link>
						<logginginfo>
							<description></description>
							<scene></scene>
							<shottake></shottake>
							<lognote></lognote>
							<good></good>
							<originalvideofilename></originalvideofilename>
							<originalaudiofilename></originalaudiofilename>
						</logginginfo>
						<colorinfo>
							<lut></lut>
							<lut1></lut1>
							<asc_sop></asc_sop>
							<asc_sat></asc_sat>
							<lut2></lut2>
						</colorinfo>
						<labels>
							<label2>Rose</label2>
						</labels>
					</clipitem>
					<clipitem id="clipitem-142" premiereChannelType="stereo">
						<masterclipid>masterclip-65</masterclipid>
						<name>wiblo_1_2000-01-01_1146_C0059.mov</name>
						<enabled>TRUE</enabled>
						<duration>50</duration>
						<rate>
							<timebase>24</timebase>
							<ntsc>TRUE</ntsc>
						</rate>
						<start>48131</start>
						<end>48179</end>
						<in>1</in>
						<out>49</out>
						<pproTicksIn>10594584000</pproTicksIn>
						<pproTicksOut>519134616000</pproTicksOut>
						<file id="file-65"/>
						<sourcetrack>
							<mediatype>audio</mediatype>
							<trackindex>2</trackindex>
						</sourcetrack>
						<filter>
							<effect>
								<name>Audio Levels</name>
								<effectid>audiolevels</effectid>
								<effectcategory>audiolevels</effectcategory>
								<effecttype>audiolevels</effecttype>
								<mediatype>audio</mediatype>
								<pproBypass>false</pproBypass>
								<parameter authoringApp="PremierePro">
									<parameterid>level</parameterid>
									<name>Level</name>
									<valuemin>0</valuemin>
									<valuemax>3.98109</valuemax>
									<value>1</value>
								</parameter>
							</effect>
						</filter>
						<link>
							<linkclipref>clipitem-65</linkclipref>
							<mediatype>video</mediatype>
							<trackindex>1</trackindex>
							<clipindex>65</clipindex>
						</link>
						<link>
							<linkclipref>clipitem-120</linkclipref>
							<mediatype>audio</mediatype>
							<trackindex>1</trackindex>
							<clipindex>17</clipindex>
							<groupindex>1</groupindex>
						</link>
						<link>
							<linkclipref>clipitem-142</linkclipref>
							<mediatype>audio</mediatype>
							<trackindex>2</trackindex>
							<clipindex>17</clipindex>
							<groupindex>1</groupindex>
						</link>
						<logginginfo>
							<description></description>
							<scene></scene>
							<shottake></shottake>
							<lognote></lognote>
							<good></good>
							<originalvideofilename></originalvideofilename>
							<originalaudiofilename></originalaudiofilename>
						</logginginfo>
						<colorinfo>
							<lut></lut>
							<lut1></lut1>
							<asc_sop></asc_sop>
							<asc_sat></asc_sat>
							<lut2></lut2>
						</colorinfo>
						<labels>
							<label2>Rose</label2>
						</labels>
					</clipitem>
					<clipitem id="clipitem-143" premiereChannelType="stereo">
						<masterclipid>masterclip-66</masterclipid>
						<name>wiblo_1_2000-01-01_1146_C0060.mov</name>
						<enabled>TRUE</enabled>
						<duration>637</duration>
						<rate>
							<timebase>24</timebase>
							<ntsc>TRUE</ntsc>
						</rate>
						<start>48179</start>
						<end>48816</end>
						<in>0</in>
						<out>637</out>
						<pproTicksIn>0</pproTicksIn>
						<pproTicksOut>6748750008000</pproTicksOut>
						<file id="file-66"/>
						<sourcetrack>
							<mediatype>audio</mediatype>
							<trackindex>2</trackindex>
						</sourcetrack>
						<filter>
							<effect>
								<name>Audio Levels</name>
								<effectid>audiolevels</effectid>
								<effectcategory>audiolevels</effectcategory>
								<effecttype>audiolevels</effecttype>
								<mediatype>audio</mediatype>
								<pproBypass>false</pproBypass>
								<parameter authoringApp="PremierePro">
									<parameterid>level</parameterid>
									<name>Level</name>
									<valuemin>0</valuemin>
									<valuemax>3.98109</valuemax>
									<value>1</value>
								</parameter>
							</effect>
						</filter>
						<link>
							<linkclipref>clipitem-66</linkclipref>
							<mediatype>video</mediatype>
							<trackindex>1</trackindex>
							<clipindex>66</clipindex>
						</link>
						<link>
							<linkclipref>clipitem-121</linkclipref>
							<mediatype>audio</mediatype>
							<trackindex>1</trackindex>
							<clipindex>18</clipindex>
							<groupindex>1</groupindex>
						</link>
						<link>
							<linkclipref>clipitem-143</linkclipref>
							<mediatype>audio</mediatype>
							<trackindex>2</trackindex>
							<clipindex>18</clipindex>
							<groupindex>1</groupindex>
						</link>
						<logginginfo>
							<description></description>
							<scene></scene>
							<shottake></shottake>
							<lognote></lognote>
							<good></good>
							<originalvideofilename></originalvideofilename>
							<originalaudiofilename></originalaudiofilename>
						</logginginfo>
						<colorinfo>
							<lut></lut>
							<lut1></lut1>
							<asc_sop></asc_sop>
							<asc_sat></asc_sat>
							<lut2></lut2>
						</colorinfo>
						<labels>
							<label2>Iris</label2>
						</labels>
					</clipitem>
					<clipitem id="clipitem-144" premiereChannelType="stereo">
						<masterclipid>masterclip-67</masterclipid>
						<name>wiblo_1_2000-01-01_1146_C0061.mov</name>
						<enabled>TRUE</enabled>
						<duration>89</duration>
						<rate>
							<timebase>24</timebase>
							<ntsc>TRUE</ntsc>
						</rate>
						<start>48867</start>
						<end>48956</end>
						<in>0</in>
						<out>89</out>
						<pproTicksIn>0</pproTicksIn>
						<pproTicksOut>942917976000</pproTicksOut>
						<file id="file-67"/>
						<sourcetrack>
							<mediatype>audio</mediatype>
							<trackindex>2</trackindex>
						</sourcetrack>
						<filter>
							<effect>
								<name>Audio Levels</name>
								<effectid>audiolevels</effectid>
								<effectcategory>audiolevels</effectcategory>
								<effecttype>audiolevels</effecttype>
								<mediatype>audio</mediatype>
								<pproBypass>false</pproBypass>
								<parameter authoringApp="PremierePro">
									<parameterid>level</parameterid>
									<name>Level</name>
									<valuemin>0</valuemin>
									<valuemax>3.98109</valuemax>
									<value>1</value>
								</parameter>
							</effect>
						</filter>
						<link>
							<linkclipref>clipitem-67</linkclipref>
							<mediatype>video</mediatype>
							<trackindex>1</trackindex>
							<clipindex>67</clipindex>
						</link>
						<link>
							<linkclipref>clipitem-122</linkclipref>
							<mediatype>audio</mediatype>
							<trackindex>1</trackindex>
							<clipindex>19</clipindex>
							<groupindex>1</groupindex>
						</link>
						<link>
							<linkclipref>clipitem-144</linkclipref>
							<mediatype>audio</mediatype>
							<trackindex>2</trackindex>
							<clipindex>19</clipindex>
							<groupindex>1</groupindex>
						</link>
						<logginginfo>
							<description></description>
							<scene></scene>
							<shottake></shottake>
							<lognote></lognote>
							<good></good>
							<originalvideofilename></originalvideofilename>
							<originalaudiofilename></originalaudiofilename>
						</logginginfo>
						<colorinfo>
							<lut></lut>
							<lut1></lut1>
							<asc_sop></asc_sop>
							<asc_sat></asc_sat>
							<lut2></lut2>
						</colorinfo>
						<labels>
							<label2>Rose</label2>
						</labels>
					</clipitem>
					<clipitem id="clipitem-145" premiereChannelType="stereo">
						<masterclipid>masterclip-1</masterclipid>
						<name>wiblo_1_2000-01-01_1146_C0062.mov</name>
						<enabled>TRUE</enabled>
						<duration>647</duration>
						<rate>
							<timebase>24</timebase>
							<ntsc>TRUE</ntsc>
						</rate>
						<start>48979</start>
						<end>49626</end>
						<in>0</in>
						<out>647</out>
						<pproTicksIn>0</pproTicksIn>
						<pproTicksOut>6854695848000</pproTicksOut>
						<file id="file-1"/>
						<sourcetrack>
							<mediatype>audio</mediatype>
							<trackindex>2</trackindex>
						</sourcetrack>
						<filter>
							<effect>
								<name>Audio Levels</name>
								<effectid>audiolevels</effectid>
								<effectcategory>audiolevels</effectcategory>
								<effecttype>audiolevels</effecttype>
								<mediatype>audio</mediatype>
								<pproBypass>false</pproBypass>
								<parameter authoringApp="PremierePro">
									<parameterid>level</parameterid>
									<name>Level</name>
									<valuemin>0</valuemin>
									<valuemax>3.98109</valuemax>
									<value>1</value>
								</parameter>
							</effect>
						</filter>
						<link>
							<linkclipref>clipitem-68</linkclipref>
							<mediatype>video</mediatype>
							<trackindex>1</trackindex>
							<clipindex>68</clipindex>
						</link>
						<link>
							<linkclipref>clipitem-123</linkclipref>
							<mediatype>audio</mediatype>
							<trackindex>1</trackindex>
							<clipindex>20</clipindex>
							<groupindex>1</groupindex>
						</link>
						<link>
							<linkclipref>clipitem-145</linkclipref>
							<mediatype>audio</mediatype>
							<trackindex>2</trackindex>
							<clipindex>20</clipindex>
							<groupindex>1</groupindex>
						</link>
						<logginginfo>
							<description></description>
							<scene></scene>
							<shottake></shottake>
							<lognote></lognote>
							<good></good>
							<originalvideofilename></originalvideofilename>
							<originalaudiofilename></originalaudiofilename>
						</logginginfo>
						<colorinfo>
							<lut></lut>
							<lut1></lut1>
							<asc_sop></asc_sop>
							<asc_sat></asc_sat>
							<lut2></lut2>
						</colorinfo>
						<labels>
							<label2>Rose</label2>
						</labels>
					</clipitem>
					<clipitem id="clipitem-146" premiereChannelType="stereo">
						<masterclipid>masterclip-68</masterclipid>
						<name>wiblo_1_2000-01-01_1148_C0066.mov</name>
						<enabled>TRUE</enabled>
						<duration>326</duration>
						<rate>
							<timebase>24</timebase>
							<ntsc>TRUE</ntsc>
						</rate>
						<start>49808</start>
						<end>50132</end>
						<in>1</in>
						<out>325</out>
						<pproTicksIn>10594584000</pproTicksIn>
						<pproTicksOut>3443239800000</pproTicksOut>
						<file id="file-68"/>
						<sourcetrack>
							<mediatype>audio</mediatype>
							<trackindex>2</trackindex>
						</sourcetrack>
						<filter>
							<effect>
								<name>Audio Levels</name>
								<effectid>audiolevels</effectid>
								<effectcategory>audiolevels</effectcategory>
								<effecttype>audiolevels</effecttype>
								<mediatype>audio</mediatype>
								<pproBypass>false</pproBypass>
								<parameter authoringApp="PremierePro">
									<parameterid>level</parameterid>
									<name>Level</name>
									<valuemin>0</valuemin>
									<valuemax>3.98109</valuemax>
									<value>1</value>
								</parameter>
							</effect>
						</filter>
						<link>
							<linkclipref>clipitem-69</linkclipref>
							<mediatype>video</mediatype>
							<trackindex>1</trackindex>
							<clipindex>69</clipindex>
						</link>
						<link>
							<linkclipref>clipitem-124</linkclipref>
							<mediatype>audio</mediatype>
							<trackindex>1</trackindex>
							<clipindex>21</clipindex>
							<groupindex>1</groupindex>
						</link>
						<link>
							<linkclipref>clipitem-146</linkclipref>
							<mediatype>audio</mediatype>
							<trackindex>2</trackindex>
							<clipindex>21</clipindex>
							<groupindex>1</groupindex>
						</link>
						<logginginfo>
							<description></description>
							<scene></scene>
							<shottake></shottake>
							<lognote></lognote>
							<good></good>
							<originalvideofilename></originalvideofilename>
							<originalaudiofilename></originalaudiofilename>
						</logginginfo>
						<colorinfo>
							<lut></lut>
							<lut1></lut1>
							<asc_sop></asc_sop>
							<asc_sat></asc_sat>
							<lut2></lut2>
						</colorinfo>
						<labels>
							<label2>Rose</label2>
						</labels>
					</clipitem>
					<clipitem id="clipitem-147" premiereChannelType="stereo">
						<masterclipid>masterclip-69</masterclipid>
						<name>julian_1_2021-12-26_1651_C0024.mov</name>
						<enabled>TRUE</enabled>
						<duration>387</duration>
						<rate>
							<timebase>24</timebase>
							<ntsc>TRUE</ntsc>
						</rate>
						<start>50132</start>
						<end>50518</end>
						<in>0</in>
						<out>386</out>
						<pproTicksIn>0</pproTicksIn>
						<pproTicksOut>4089509424000</pproTicksOut>
						<file id="file-69"/>
						<sourcetrack>
							<mediatype>audio</mediatype>
							<trackindex>2</trackindex>
						</sourcetrack>
						<filter>
							<effect>
								<name>Audio Levels</name>
								<effectid>audiolevels</effectid>
								<effectcategory>audiolevels</effectcategory>
								<effecttype>audiolevels</effecttype>
								<mediatype>audio</mediatype>
								<pproBypass>false</pproBypass>
								<parameter authoringApp="PremierePro">
									<parameterid>level</parameterid>
									<name>Level</name>
									<valuemin>0</valuemin>
									<valuemax>3.98109</valuemax>
									<value>1</value>
								</parameter>
							</effect>
						</filter>
						<link>
							<linkclipref>clipitem-70</linkclipref>
							<mediatype>video</mediatype>
							<trackindex>1</trackindex>
							<clipindex>70</clipindex>
						</link>
						<link>
							<linkclipref>clipitem-125</linkclipref>
							<mediatype>audio</mediatype>
							<trackindex>1</trackindex>
							<clipindex>22</clipindex>
							<groupindex>1</groupindex>
						</link>
						<link>
							<linkclipref>clipitem-147</linkclipref>
							<mediatype>audio</mediatype>
							<trackindex>2</trackindex>
							<clipindex>22</clipindex>
							<groupindex>1</groupindex>
						</link>
						<logginginfo>
							<description></description>
							<scene></scene>
							<shottake></shottake>
							<lognote></lognote>
							<good></good>
							<originalvideofilename></originalvideofilename>
							<originalaudiofilename></originalaudiofilename>
						</logginginfo>
						<colorinfo>
							<lut></lut>
							<lut1></lut1>
							<asc_sop></asc_sop>
							<asc_sat></asc_sat>
							<lut2></lut2>
						</colorinfo>
						<labels>
							<label2>Rose</label2>
						</labels>
					</clipitem>
					<enabled>TRUE</enabled>
					<locked>FALSE</locked>
					<outputchannelindex>2</outputchannelindex>
				</track>
				<track TL.SQTrackAudioKeyframeStyle="0" TL.SQTrackShy="0" TL.SQTrackExpandedHeight="25" TL.SQTrackExpanded="0" MZ.TrackTargeted="1" PannerCurrentValue="0.5" PannerStartKeyframe="-91445760000000000,0.5,0,0,0,0,0,0" PannerName="Balance" currentExplodedTrackIndex="0" totalExplodedTrackCount="2" premiereTrackType="Stereo">
					<clipitem id="clipitem-148" premiereChannelType="stereo">
						<masterclipid>masterclip-3</masterclipid>
						<name>wiblo_1_2000-01-01_1147_C0064.mov</name>
						<enabled>TRUE</enabled>
						<duration>107</duration>
						<rate>
							<timebase>24</timebase>
							<ntsc>TRUE</ntsc>
						</rate>
						<start>623</start>
						<end>729</end>
						<in>1</in>
						<out>107</out>
						<pproTicksIn>10594584000</pproTicksIn>
						<pproTicksOut>1133620488000</pproTicksOut>
						<file id="file-3"/>
						<sourcetrack>
							<mediatype>audio</mediatype>
							<trackindex>1</trackindex>
						</sourcetrack>
						<filter>
							<effect>
								<name>Audio Levels</name>
								<effectid>audiolevels</effectid>
								<effectcategory>audiolevels</effectcategory>
								<effecttype>audiolevels</effecttype>
								<mediatype>audio</mediatype>
								<pproBypass>false</pproBypass>
								<parameter authoringApp="PremierePro">
									<parameterid>level</parameterid>
									<name>Level</name>
									<valuemin>0</valuemin>
									<valuemax>3.98109</valuemax>
									<value>1</value>
								</parameter>
							</effect>
						</filter>
						<link>
							<linkclipref>clipitem-3</linkclipref>
							<mediatype>video</mediatype>
							<trackindex>1</trackindex>
							<clipindex>3</clipindex>
						</link>
						<link>
							<linkclipref>clipitem-148</linkclipref>
							<mediatype>audio</mediatype>
							<trackindex>3</trackindex>
							<clipindex>1</clipindex>
							<groupindex>1</groupindex>
						</link>
						<link>
							<linkclipref>clipitem-153</linkclipref>
							<mediatype>audio</mediatype>
							<trackindex>4</trackindex>
							<clipindex>1</clipindex>
							<groupindex>1</groupindex>
						</link>
						<logginginfo>
							<description></description>
							<scene></scene>
							<shottake></shottake>
							<lognote></lognote>
							<good></good>
							<originalvideofilename></originalvideofilename>
							<originalaudiofilename></originalaudiofilename>
						</logginginfo>
						<colorinfo>
							<lut></lut>
							<lut1></lut1>
							<asc_sop></asc_sop>
							<asc_sat></asc_sat>
							<lut2></lut2>
						</colorinfo>
						<labels>
							<label2>Rose</label2>
						</labels>
					</clipitem>
					<clipitem id="clipitem-149" premiereChannelType="stereo">
						<masterclipid>masterclip-4</masterclipid>
						<name>wiblo_1_2000-01-01_1148_C0065.mov</name>
						<enabled>TRUE</enabled>
						<duration>513</duration>
						<rate>
							<timebase>24</timebase>
							<ntsc>TRUE</ntsc>
						</rate>
						<start>729</start>
						<end>1241</end>
						<in>1</in>
						<out>513</out>
						<pproTicksIn>10594584000</pproTicksIn>
						<pproTicksOut>5435021592000</pproTicksOut>
						<file id="file-4"/>
						<sourcetrack>
							<mediatype>audio</mediatype>
							<trackindex>1</trackindex>
						</sourcetrack>
						<filter>
							<effect>
								<name>Audio Levels</name>
								<effectid>audiolevels</effectid>
								<effectcategory>audiolevels</effectcategory>
								<effecttype>audiolevels</effecttype>
								<mediatype>audio</mediatype>
								<pproBypass>false</pproBypass>
								<parameter authoringApp="PremierePro">
									<parameterid>level</parameterid>
									<name>Level</name>
									<valuemin>0</valuemin>
									<valuemax>3.98109</valuemax>
									<value>1</value>
								</parameter>
							</effect>
						</filter>
						<link>
							<linkclipref>clipitem-4</linkclipref>
							<mediatype>video</mediatype>
							<trackindex>1</trackindex>
							<clipindex>4</clipindex>
						</link>
						<link>
							<linkclipref>clipitem-149</linkclipref>
							<mediatype>audio</mediatype>
							<trackindex>3</trackindex>
							<clipindex>2</clipindex>
							<groupindex>1</groupindex>
						</link>
						<link>
							<linkclipref>clipitem-154</linkclipref>
							<mediatype>audio</mediatype>
							<trackindex>4</trackindex>
							<clipindex>2</clipindex>
							<groupindex>1</groupindex>
						</link>
						<logginginfo>
							<description></description>
							<scene></scene>
							<shottake></shottake>
							<lognote></lognote>
							<good></good>
							<originalvideofilename></originalvideofilename>
							<originalaudiofilename></originalaudiofilename>
						</logginginfo>
						<colorinfo>
							<lut></lut>
							<lut1></lut1>
							<asc_sop></asc_sop>
							<asc_sat></asc_sat>
							<lut2></lut2>
						</colorinfo>
						<labels>
							<label2>Rose</label2>
						</labels>
					</clipitem>
					<clipitem id="clipitem-150" premiereChannelType="stereo">
						<masterclipid>masterclip-86</masterclipid>
						<name>julian_1_2021-12-26_1648_C0021.mov</name>
						<enabled>TRUE</enabled>
						<duration>190</duration>
						<rate>
							<timebase>24</timebase>
							<ntsc>TRUE</ntsc>
						</rate>
						<start>48207</start>
						<end>48397</end>
						<in>0</in>
						<out>190</out>
						<pproTicksIn>0</pproTicksIn>
						<pproTicksOut>2012970960000</pproTicksOut>
						<file id="file-86"/>
						<sourcetrack>
							<mediatype>audio</mediatype>
							<trackindex>1</trackindex>
						</sourcetrack>
						<filter>
							<effect>
								<name>Audio Levels</name>
								<effectid>audiolevels</effectid>
								<effectcategory>audiolevels</effectcategory>
								<effecttype>audiolevels</effecttype>
								<mediatype>audio</mediatype>
								<pproBypass>false</pproBypass>
								<parameter authoringApp="PremierePro">
									<parameterid>level</parameterid>
									<name>Level</name>
									<valuemin>0</valuemin>
									<valuemax>3.98109</valuemax>
									<value>1</value>
								</parameter>
							</effect>
						</filter>
						<link>
							<linkclipref>clipitem-87</linkclipref>
							<mediatype>video</mediatype>
							<trackindex>2</trackindex>
							<clipindex>17</clipindex>
						</link>
						<link>
							<linkclipref>clipitem-150</linkclipref>
							<mediatype>audio</mediatype>
							<trackindex>3</trackindex>
							<clipindex>3</clipindex>
							<groupindex>1</groupindex>
						</link>
						<link>
							<linkclipref>clipitem-155</linkclipref>
							<mediatype>audio</mediatype>
							<trackindex>4</trackindex>
							<clipindex>3</clipindex>
							<groupindex>1</groupindex>
						</link>
						<logginginfo>
							<description></description>
							<scene></scene>
							<shottake></shottake>
							<lognote></lognote>
							<good></good>
							<originalvideofilename></originalvideofilename>
							<originalaudiofilename></originalaudiofilename>
						</logginginfo>
						<colorinfo>
							<lut></lut>
							<lut1></lut1>
							<asc_sop></asc_sop>
							<asc_sat></asc_sat>
							<lut2></lut2>
						</colorinfo>
						<labels>
							<label2>Iris</label2>
						</labels>
					</clipitem>
					<clipitem id="clipitem-151" premiereChannelType="stereo">
						<masterclipid>masterclip-87</masterclipid>
						<name>julian_1_2021-12-26_1648_C0022.mov</name>
						<enabled>TRUE</enabled>
						<duration>389</duration>
						<rate>
							<timebase>24</timebase>
							<ntsc>TRUE</ntsc>
						</rate>
						<start>48479</start>
						<end>48868</end>
						<in>0</in>
						<out>389</out>
						<pproTicksIn>0</pproTicksIn>
						<pproTicksOut>4121293176000</pproTicksOut>
						<file id="file-87"/>
						<sourcetrack>
							<mediatype>audio</mediatype>
							<trackindex>1</trackindex>
						</sourcetrack>
						<filter>
							<effect>
								<name>Audio Levels</name>
								<effectid>audiolevels</effectid>
								<effectcategory>audiolevels</effectcategory>
								<effecttype>audiolevels</effecttype>
								<mediatype>audio</mediatype>
								<pproBypass>false</pproBypass>
								<parameter authoringApp="PremierePro">
									<parameterid>level</parameterid>
									<name>Level</name>
									<valuemin>0</valuemin>
									<valuemax>3.98109</valuemax>
									<value>1</value>
								</parameter>
							</effect>
						</filter>
						<link>
							<linkclipref>clipitem-88</linkclipref>
							<mediatype>video</mediatype>
							<trackindex>2</trackindex>
							<clipindex>18</clipindex>
						</link>
						<link>
							<linkclipref>clipitem-151</linkclipref>
							<mediatype>audio</mediatype>
							<trackindex>3</trackindex>
							<clipindex>4</clipindex>
							<groupindex>1</groupindex>
						</link>
						<link>
							<linkclipref>clipitem-156</linkclipref>
							<mediatype>audio</mediatype>
							<trackindex>4</trackindex>
							<clipindex>4</clipindex>
							<groupindex>1</groupindex>
						</link>
						<logginginfo>
							<description></description>
							<scene></scene>
							<shottake></shottake>
							<lognote></lognote>
							<good></good>
							<originalvideofilename></originalvideofilename>
							<originalaudiofilename></originalaudiofilename>
						</logginginfo>
						<colorinfo>
							<lut></lut>
							<lut1></lut1>
							<asc_sop></asc_sop>
							<asc_sat></asc_sat>
							<lut2></lut2>
						</colorinfo>
						<labels>
							<label2>Iris</label2>
						</labels>
					</clipitem>
					<clipitem id="clipitem-152" premiereChannelType="stereo">
						<masterclipid>masterclip-88</masterclipid>
						<name>julian_1_2021-12-26_1649_C0023.mov</name>
						<enabled>TRUE</enabled>
						<duration>25</duration>
						<rate>
							<timebase>24</timebase>
							<ntsc>TRUE</ntsc>
						</rate>
						<start>48955</start>
						<end>48980</end>
						<in>0</in>
						<out>25</out>
						<pproTicksIn>0</pproTicksIn>
						<pproTicksOut>264864600000</pproTicksOut>
						<file id="file-88"/>
						<sourcetrack>
							<mediatype>audio</mediatype>
							<trackindex>1</trackindex>
						</sourcetrack>
						<filter>
							<effect>
								<name>Audio Levels</name>
								<effectid>audiolevels</effectid>
								<effectcategory>audiolevels</effectcategory>
								<effecttype>audiolevels</effecttype>
								<mediatype>audio</mediatype>
								<pproBypass>false</pproBypass>
								<parameter authoringApp="PremierePro">
									<parameterid>level</parameterid>
									<name>Level</name>
									<valuemin>0</valuemin>
									<valuemax>3.98109</valuemax>
									<value>1</value>
								</parameter>
							</effect>
						</filter>
						<link>
							<linkclipref>clipitem-89</linkclipref>
							<mediatype>video</mediatype>
							<trackindex>2</trackindex>
							<clipindex>19</clipindex>
						</link>
						<link>
							<linkclipref>clipitem-152</linkclipref>
							<mediatype>audio</mediatype>
							<trackindex>3</trackindex>
							<clipindex>5</clipindex>
							<groupindex>1</groupindex>
						</link>
						<link>
							<linkclipref>clipitem-157</linkclipref>
							<mediatype>audio</mediatype>
							<trackindex>4</trackindex>
							<clipindex>5</clipindex>
							<groupindex>1</groupindex>
						</link>
						<logginginfo>
							<description></description>
							<scene></scene>
							<shottake></shottake>
							<lognote></lognote>
							<good></good>
							<originalvideofilename></originalvideofilename>
							<originalaudiofilename></originalaudiofilename>
						</logginginfo>
						<colorinfo>
							<lut></lut>
							<lut1></lut1>
							<asc_sop></asc_sop>
							<asc_sat></asc_sat>
							<lut2></lut2>
						</colorinfo>
						<labels>
							<label2>Rose</label2>
						</labels>
					</clipitem>
					<enabled>TRUE</enabled>
					<locked>FALSE</locked>
					<outputchannelindex>1</outputchannelindex>
				</track>
				<track TL.SQTrackAudioKeyframeStyle="0" TL.SQTrackShy="0" TL.SQTrackExpandedHeight="25" TL.SQTrackExpanded="0" MZ.TrackTargeted="1" PannerCurrentValue="0.5" PannerStartKeyframe="-91445760000000000,0.5,0,0,0,0,0,0" PannerName="Balance" currentExplodedTrackIndex="1" totalExplodedTrackCount="2" premiereTrackType="Stereo">
					<clipitem id="clipitem-153" premiereChannelType="stereo">
						<masterclipid>masterclip-3</masterclipid>
						<name>wiblo_1_2000-01-01_1147_C0064.mov</name>
						<enabled>TRUE</enabled>
						<duration>107</duration>
						<rate>
							<timebase>24</timebase>
							<ntsc>TRUE</ntsc>
						</rate>
						<start>623</start>
						<end>729</end>
						<in>1</in>
						<out>107</out>
						<pproTicksIn>10594584000</pproTicksIn>
						<pproTicksOut>1133620488000</pproTicksOut>
						<file id="file-3"/>
						<sourcetrack>
							<mediatype>audio</mediatype>
							<trackindex>2</trackindex>
						</sourcetrack>
						<filter>
							<effect>
								<name>Audio Levels</name>
								<effectid>audiolevels</effectid>
								<effectcategory>audiolevels</effectcategory>
								<effecttype>audiolevels</effecttype>
								<mediatype>audio</mediatype>
								<pproBypass>false</pproBypass>
								<parameter authoringApp="PremierePro">
									<parameterid>level</parameterid>
									<name>Level</name>
									<valuemin>0</valuemin>
									<valuemax>3.98109</valuemax>
									<value>1</value>
								</parameter>
							</effect>
						</filter>
						<link>
							<linkclipref>clipitem-3</linkclipref>
							<mediatype>video</mediatype>
							<trackindex>1</trackindex>
							<clipindex>3</clipindex>
						</link>
						<link>
							<linkclipref>clipitem-148</linkclipref>
							<mediatype>audio</mediatype>
							<trackindex>3</trackindex>
							<clipindex>1</clipindex>
							<groupindex>1</groupindex>
						</link>
						<link>
							<linkclipref>clipitem-153</linkclipref>
							<mediatype>audio</mediatype>
							<trackindex>4</trackindex>
							<clipindex>1</clipindex>
							<groupindex>1</groupindex>
						</link>
						<logginginfo>
							<description></description>
							<scene></scene>
							<shottake></shottake>
							<lognote></lognote>
							<good></good>
							<originalvideofilename></originalvideofilename>
							<originalaudiofilename></originalaudiofilename>
						</logginginfo>
						<colorinfo>
							<lut></lut>
							<lut1></lut1>
							<asc_sop></asc_sop>
							<asc_sat></asc_sat>
							<lut2></lut2>
						</colorinfo>
						<labels>
							<label2>Rose</label2>
						</labels>
					</clipitem>
					<clipitem id="clipitem-154" premiereChannelType="stereo">
						<masterclipid>masterclip-4</masterclipid>
						<name>wiblo_1_2000-01-01_1148_C0065.mov</name>
						<enabled>TRUE</enabled>
						<duration>513</duration>
						<rate>
							<timebase>24</timebase>
							<ntsc>TRUE</ntsc>
						</rate>
						<start>729</start>
						<end>1241</end>
						<in>1</in>
						<out>513</out>
						<pproTicksIn>10594584000</pproTicksIn>
						<pproTicksOut>5435021592000</pproTicksOut>
						<file id="file-4"/>
						<sourcetrack>
							<mediatype>audio</mediatype>
							<trackindex>2</trackindex>
						</sourcetrack>
						<filter>
							<effect>
								<name>Audio Levels</name>
								<effectid>audiolevels</effectid>
								<effectcategory>audiolevels</effectcategory>
								<effecttype>audiolevels</effecttype>
								<mediatype>audio</mediatype>
								<pproBypass>false</pproBypass>
								<parameter authoringApp="PremierePro">
									<parameterid>level</parameterid>
									<name>Level</name>
									<valuemin>0</valuemin>
									<valuemax>3.98109</valuemax>
									<value>1</value>
								</parameter>
							</effect>
						</filter>
						<link>
							<linkclipref>clipitem-4</linkclipref>
							<mediatype>video</mediatype>
							<trackindex>1</trackindex>
							<clipindex>4</clipindex>
						</link>
						<link>
							<linkclipref>clipitem-149</linkclipref>
							<mediatype>audio</mediatype>
							<trackindex>3</trackindex>
							<clipindex>2</clipindex>
							<groupindex>1</groupindex>
						</link>
						<link>
							<linkclipref>clipitem-154</linkclipref>
							<mediatype>audio</mediatype>
							<trackindex>4</trackindex>
							<clipindex>2</clipindex>
							<groupindex>1</groupindex>
						</link>
						<logginginfo>
							<description></description>
							<scene></scene>
							<shottake></shottake>
							<lognote></lognote>
							<good></good>
							<originalvideofilename></originalvideofilename>
							<originalaudiofilename></originalaudiofilename>
						</logginginfo>
						<colorinfo>
							<lut></lut>
							<lut1></lut1>
							<asc_sop></asc_sop>
							<asc_sat></asc_sat>
							<lut2></lut2>
						</colorinfo>
						<labels>
							<label2>Rose</label2>
						</labels>
					</clipitem>
					<clipitem id="clipitem-155" premiereChannelType="stereo">
						<masterclipid>masterclip-86</masterclipid>
						<name>julian_1_2021-12-26_1648_C0021.mov</name>
						<enabled>TRUE</enabled>
						<duration>190</duration>
						<rate>
							<timebase>24</timebase>
							<ntsc>TRUE</ntsc>
						</rate>
						<start>48207</start>
						<end>48397</end>
						<in>0</in>
						<out>190</out>
						<pproTicksIn>0</pproTicksIn>
						<pproTicksOut>2012970960000</pproTicksOut>
						<file id="file-86"/>
						<sourcetrack>
							<mediatype>audio</mediatype>
							<trackindex>2</trackindex>
						</sourcetrack>
						<filter>
							<effect>
								<name>Audio Levels</name>
								<effectid>audiolevels</effectid>
								<effectcategory>audiolevels</effectcategory>
								<effecttype>audiolevels</effecttype>
								<mediatype>audio</mediatype>
								<pproBypass>false</pproBypass>
								<parameter authoringApp="PremierePro">
									<parameterid>level</parameterid>
									<name>Level</name>
									<valuemin>0</valuemin>
									<valuemax>3.98109</valuemax>
									<value>1</value>
								</parameter>
							</effect>
						</filter>
						<link>
							<linkclipref>clipitem-87</linkclipref>
							<mediatype>video</mediatype>
							<trackindex>2</trackindex>
							<clipindex>17</clipindex>
						</link>
						<link>
							<linkclipref>clipitem-150</linkclipref>
							<mediatype>audio</mediatype>
							<trackindex>3</trackindex>
							<clipindex>3</clipindex>
							<groupindex>1</groupindex>
						</link>
						<link>
							<linkclipref>clipitem-155</linkclipref>
							<mediatype>audio</mediatype>
							<trackindex>4</trackindex>
							<clipindex>3</clipindex>
							<groupindex>1</groupindex>
						</link>
						<logginginfo>
							<description></description>
							<scene></scene>
							<shottake></shottake>
							<lognote></lognote>
							<good></good>
							<originalvideofilename></originalvideofilename>
							<originalaudiofilename></originalaudiofilename>
						</logginginfo>
						<colorinfo>
							<lut></lut>
							<lut1></lut1>
							<asc_sop></asc_sop>
							<asc_sat></asc_sat>
							<lut2></lut2>
						</colorinfo>
						<labels>
							<label2>Iris</label2>
						</labels>
					</clipitem>
					<clipitem id="clipitem-156" premiereChannelType="stereo">
						<masterclipid>masterclip-87</masterclipid>
						<name>julian_1_2021-12-26_1648_C0022.mov</name>
						<enabled>TRUE</enabled>
						<duration>389</duration>
						<rate>
							<timebase>24</timebase>
							<ntsc>TRUE</ntsc>
						</rate>
						<start>48479</start>
						<end>48868</end>
						<in>0</in>
						<out>389</out>
						<pproTicksIn>0</pproTicksIn>
						<pproTicksOut>4121293176000</pproTicksOut>
						<file id="file-87"/>
						<sourcetrack>
							<mediatype>audio</mediatype>
							<trackindex>2</trackindex>
						</sourcetrack>
						<filter>
							<effect>
								<name>Audio Levels</name>
								<effectid>audiolevels</effectid>
								<effectcategory>audiolevels</effectcategory>
								<effecttype>audiolevels</effecttype>
								<mediatype>audio</mediatype>
								<pproBypass>false</pproBypass>
								<parameter authoringApp="PremierePro">
									<parameterid>level</parameterid>
									<name>Level</name>
									<valuemin>0</valuemin>
									<valuemax>3.98109</valuemax>
									<value>1</value>
								</parameter>
							</effect>
						</filter>
						<link>
							<linkclipref>clipitem-88</linkclipref>
							<mediatype>video</mediatype>
							<trackindex>2</trackindex>
							<clipindex>18</clipindex>
						</link>
						<link>
							<linkclipref>clipitem-151</linkclipref>
							<mediatype>audio</mediatype>
							<trackindex>3</trackindex>
							<clipindex>4</clipindex>
							<groupindex>1</groupindex>
						</link>
						<link>
							<linkclipref>clipitem-156</linkclipref>
							<mediatype>audio</mediatype>
							<trackindex>4</trackindex>
							<clipindex>4</clipindex>
							<groupindex>1</groupindex>
						</link>
						<logginginfo>
							<description></description>
							<scene></scene>
							<shottake></shottake>
							<lognote></lognote>
							<good></good>
							<originalvideofilename></originalvideofilename>
							<originalaudiofilename></originalaudiofilename>
						</logginginfo>
						<colorinfo>
							<lut></lut>
							<lut1></lut1>
							<asc_sop></asc_sop>
							<asc_sat></asc_sat>
							<lut2></lut2>
						</colorinfo>
						<labels>
							<label2>Iris</label2>
						</labels>
					</clipitem>
					<clipitem id="clipitem-157" premiereChannelType="stereo">
						<masterclipid>masterclip-88</masterclipid>
						<name>julian_1_2021-12-26_1649_C0023.mov</name>
						<enabled>TRUE</enabled>
						<duration>25</duration>
						<rate>
							<timebase>24</timebase>
							<ntsc>TRUE</ntsc>
						</rate>
						<start>48955</start>
						<end>48980</end>
						<in>0</in>
						<out>25</out>
						<pproTicksIn>0</pproTicksIn>
						<pproTicksOut>264864600000</pproTicksOut>
						<file id="file-88"/>
						<sourcetrack>
							<mediatype>audio</mediatype>
							<trackindex>2</trackindex>
						</sourcetrack>
						<filter>
							<effect>
								<name>Audio Levels</name>
								<effectid>audiolevels</effectid>
								<effectcategory>audiolevels</effectcategory>
								<effecttype>audiolevels</effecttype>
								<mediatype>audio</mediatype>
								<pproBypass>false</pproBypass>
								<parameter authoringApp="PremierePro">
									<parameterid>level</parameterid>
									<name>Level</name>
									<valuemin>0</valuemin>
									<valuemax>3.98109</valuemax>
									<value>1</value>
								</parameter>
							</effect>
						</filter>
						<link>
							<linkclipref>clipitem-89</linkclipref>
							<mediatype>video</mediatype>
							<trackindex>2</trackindex>
							<clipindex>19</clipindex>
						</link>
						<link>
							<linkclipref>clipitem-152</linkclipref>
							<mediatype>audio</mediatype>
							<trackindex>3</trackindex>
							<clipindex>5</clipindex>
							<groupindex>1</groupindex>
						</link>
						<link>
							<linkclipref>clipitem-157</linkclipref>
							<mediatype>audio</mediatype>
							<trackindex>4</trackindex>
							<clipindex>5</clipindex>
							<groupindex>1</groupindex>
						</link>
						<logginginfo>
							<description></description>
							<scene></scene>
							<shottake></shottake>
							<lognote></lognote>
							<good></good>
							<originalvideofilename></originalvideofilename>
							<originalaudiofilename></originalaudiofilename>
						</logginginfo>
						<colorinfo>
							<lut></lut>
							<lut1></lut1>
							<asc_sop></asc_sop>
							<asc_sat></asc_sat>
							<lut2></lut2>
						</colorinfo>
						<labels>
							<label2>Rose</label2>
						</labels>
					</clipitem>
					<enabled>TRUE</enabled>
					<locked>FALSE</locked>
					<outputchannelindex>2</outputchannelindex>
				</track>
				<track TL.SQTrackAudioKeyframeStyle="0" TL.SQTrackShy="0" TL.SQTrackExpandedHeight="25" TL.SQTrackExpanded="0" MZ.TrackTargeted="1" PannerCurrentValue="0.5" PannerStartKeyframe="-91445760000000000,0.5,0,0,0,0,0,0" PannerName="Balance" currentExplodedTrackIndex="0" totalExplodedTrackCount="2" premiereTrackType="Stereo">
					<enabled>TRUE</enabled>
					<locked>FALSE</locked>
					<outputchannelindex>1</outputchannelindex>
				</track>
				<track TL.SQTrackAudioKeyframeStyle="0" TL.SQTrackShy="0" TL.SQTrackExpandedHeight="25" TL.SQTrackExpanded="0" MZ.TrackTargeted="1" PannerCurrentValue="0.5" PannerStartKeyframe="-91445760000000000,0.5,0,0,0,0,0,0" PannerName="Balance" currentExplodedTrackIndex="1" totalExplodedTrackCount="2" premiereTrackType="Stereo">
					<enabled>TRUE</enabled>
					<locked>FALSE</locked>
					<outputchannelindex>2</outputchannelindex>
				</track>
				<track TL.SQTrackAudioKeyframeStyle="0" TL.SQTrackShy="0" TL.SQTrackExpandedHeight="25" TL.SQTrackExpanded="0" MZ.TrackTargeted="1" PannerCurrentValue="0.5" PannerStartKeyframe="-91445760000000000,0.5,0,0,0,0,0,0" PannerName="Balance" currentExplodedTrackIndex="0" totalExplodedTrackCount="2" premiereTrackType="Stereo">
					<enabled>TRUE</enabled>
					<locked>FALSE</locked>
					<outputchannelindex>1</outputchannelindex>
				</track>
				<track TL.SQTrackAudioKeyframeStyle="0" TL.SQTrackShy="0" TL.SQTrackExpandedHeight="25" TL.SQTrackExpanded="0" MZ.TrackTargeted="1" PannerCurrentValue="0.5" PannerStartKeyframe="-91445760000000000,0.5,0,0,0,0,0,0" PannerName="Balance" currentExplodedTrackIndex="1" totalExplodedTrackCount="2" premiereTrackType="Stereo">
					<enabled>TRUE</enabled>
					<locked>FALSE</locked>
					<outputchannelindex>2</outputchannelindex>
				</track>
			</audio>
		</media>
		<timecode>
			<rate>
				<timebase>24</timebase>
				<ntsc>TRUE</ntsc>
			</rate>
			<string>00:00:00:00</string>
			<frame>0</frame>
			<displayformat>NDF</displayformat>
		</timecode>
		<labels>
			<label2>Forest</label2>
		</labels>
		<logginginfo>
			<description></description>
			<scene></scene>
			<shottake></shottake>
			<lognote></lognote>
			<good></good>
			<originalvideofilename></originalvideofilename>
			<originalaudiofilename></originalaudiofilename>
		</logginginfo>
	</sequence>
</xmeml>
