<?xml version="1.0" encoding="UTF-8"?>
<!DOCTYPE xmeml>
<xmeml version="4">
	<sequence id="sequence-22" TL.SQAudioVisibleBase="0" TL.SQVideoVisibleBase="0" TL.SQVisibleBaseTime="0" TL.SQAVDividerPosition="0.5" TL.SQHideShyTracks="0" TL.SQHeaderWidth="236" TL.SQDataTrackViewControlState="0" Monitor.ProgramZoomOut="524421313416000" Monitor.ProgramZoomIn="0" TL.SQTimePerPixel="2.2130571359357698" MZ.EditLine="492976588104000" MZ.Sequence.PreviewFrameSizeHeight="1080" MZ.Sequence.PreviewFrameSizeWidth="1920" MZ.Sequence.AudioTimeDisplayFormat="200" MZ.Sequence.PreviewRenderingClassID="1061109567" MZ.Sequence.PreviewRenderingPresetCodec="1634755443" MZ.Sequence.PreviewRenderingPresetPath="EncoderPresets/SequencePreview/35d109db-457b-43c1-9452-9cb7be9f121c/QuickTime.epr" MZ.Sequence.PreviewUseMaxRenderQuality="false" MZ.Sequence.PreviewUseMaxBitDepth="false" MZ.Sequence.EditingModeGUID="35d109db-457b-43c1-9452-9cb7be9f121c" MZ.Sequence.VideoTimeDisplayFormat="110" MZ.WorkOutPoint="15235011792000" MZ.WorkInPoint="0" MZ.ZeroPoint="0" explodedTracks="true">
		<uuid>012a0e62-c338-409b-a231-bb55375f4e12</uuid>
		<duration>49499</duration>
		<rate>
			<timebase>24</timebase>
			<ntsc>TRUE</ntsc>
		</rate>
		<name>pinta abuela - synced</name>
		<media>
			<video>
				<format>
					<samplecharacteristics>
						<rate>
							<timebase>24</timebase>
							<ntsc>TRUE</ntsc>
						</rate>
						<codec>
							<name>Apple ProRes 422</name>
							<appspecificdata>
								<appname>Final Cut Pro</appname>
								<appmanufacturer>Apple Inc.</appmanufacturer>
								<appversion>7.0</appversion>
								<data>
									<qtcodec>
										<codecname>Apple ProRes 422</codecname>
										<codectypename>Apple ProRes 422</codectypename>
										<codectypecode>apcn</codectypecode>
										<codecvendorcode>appl</codecvendorcode>
										<spatialquality>1024</spatialquality>
										<temporalquality>0</temporalquality>
										<keyframerate>0</keyframerate>
										<datarate>0</datarate>
									</qtcodec>
								</data>
							</appspecificdata>
						</codec>
						<width>1920</width>
						<height>1080</height>
						<anamorphic>FALSE</anamorphic>
						<pixelaspectratio>square</pixelaspectratio>
						<fielddominance>none</fielddominance>
						<colordepth>24</colordepth>
					</samplecharacteristics>
				</format>
				<track TL.SQTrackShy="0" TL.SQTrackExpandedHeight="25" TL.SQTrackExpanded="0" MZ.TrackTargeted="1">
					<clipitem id="clipitem-790">
						<masterclipid>masterclip-652</masterclipid>
						<name>julian_1_2021-12-10_1634_C0155.mov</name>
						<enabled>TRUE</enabled>
						<duration>1719</duration>
						<rate>
							<timebase>24</timebase>
							<ntsc>TRUE</ntsc>
						</rate>
						<start>516</start>
						<end>2235</end>
						<in>0</in>
						<out>1719</out>
						<pproTicksIn>0</pproTicksIn>
						<pproTicksOut>18212089896000</pproTicksOut>
						<alphatype>none</alphatype>
						<pixelaspectratio>square</pixelaspectratio>
						<anamorphic>FALSE</anamorphic>
						<file id="file-652">
							<name>julian_1_2021-12-10_1634_C0155.mov</name>
							<pathurl>file://localhost/Volumes/aqua/00_Footage/4)%20Wayuu/rancheria%20and%20manaure/julian_1_2021-12-10_1634_C0155.mov</pathurl>
							<rate>
								<timebase>24</timebase>
								<ntsc>TRUE</ntsc>
							</rate>
							<duration>1719</duration>
							<timecode>
								<rate>
									<timebase>24</timebase>
									<ntsc>TRUE</ntsc>
								</rate>
								<string>16:34:25:00</string>
								<frame>1431960</frame>
								<displayformat>NDF</displayformat>
							</timecode>
							<media>
								<video>
									<samplecharacteristics>
										<rate>
											<timebase>24</timebase>
											<ntsc>TRUE</ntsc>
										</rate>
										<width>1920</width>
										<height>1080</height>
										<anamorphic>FALSE</anamorphic>
										<pixelaspectratio>square</pixelaspectratio>
										<fielddominance>none</fielddominance>
									</samplecharacteristics>
								</video>
								<audio>
									<samplecharacteristics>
										<depth>16</depth>
										<samplerate>48000</samplerate>
									</samplecharacteristics>
									<channelcount>2</channelcount>
								</audio>
							</media>
						</file>
						<logginginfo>
							<description></description>
							<scene></scene>
							<shottake></shottake>
							<lognote></lognote>
							<good></good>
							<originalvideofilename></originalvideofilename>
							<originalaudiofilename></originalaudiofilename>
						</logginginfo>
						<colorinfo>
							<lut></lut>
							<lut1></lut1>
							<asc_sop></asc_sop>
							<asc_sat></asc_sat>
							<lut2></lut2>
						</colorinfo>
						<labels>
							<label2>Iris</label2>
						</labels>
					</clipitem>
					<clipitem id="clipitem-791">
						<masterclipid>masterclip-653</masterclipid>
						<name>julian_1_2021-12-10_1635_C0156.mov</name>
						<enabled>TRUE</enabled>
						<duration>2501</duration>
						<rate>
							<timebase>24</timebase>
							<ntsc>TRUE</ntsc>
						</rate>
						<start>2286</start>
						<end>4787</end>
						<in>0</in>
						<out>2501</out>
						<pproTicksIn>0</pproTicksIn>
						<pproTicksOut>26497054584000</pproTicksOut>
						<alphatype>none</alphatype>
						<pixelaspectratio>square</pixelaspectratio>
						<anamorphic>FALSE</anamorphic>
						<file id="file-653">
							<name>julian_1_2021-12-10_1635_C0156.mov</name>
							<pathurl>file://localhost/Volumes/aqua/00_Footage/4)%20Wayuu/rancheria%20and%20manaure/julian_1_2021-12-10_1635_C0156.mov</pathurl>
							<rate>
								<timebase>24</timebase>
								<ntsc>TRUE</ntsc>
							</rate>
							<duration>2501</duration>
							<timecode>
								<rate>
									<timebase>24</timebase>
									<ntsc>TRUE</ntsc>
								</rate>
								<string>16:35:38:00</string>
								<frame>1433712</frame>
								<displayformat>NDF</displayformat>
							</timecode>
							<media>
								<video>
									<samplecharacteristics>
										<rate>
											<timebase>24</timebase>
											<ntsc>TRUE</ntsc>
										</rate>
										<width>1920</width>
										<height>1080</height>
										<anamorphic>FALSE</anamorphic>
										<pixelaspectratio>square</pixelaspectratio>
										<fielddominance>none</fielddominance>
									</samplecharacteristics>
								</video>
								<audio>
									<samplecharacteristics>
										<depth>16</depth>
										<samplerate>48000</samplerate>
									</samplecharacteristics>
									<channelcount>2</channelcount>
								</audio>
							</media>
						</file>
						<logginginfo>
							<description></description>
							<scene></scene>
							<shottake></shottake>
							<lognote></lognote>
							<good></good>
							<originalvideofilename></originalvideofilename>
							<originalaudiofilename></originalaudiofilename>
						</logginginfo>
						<colorinfo>
							<lut></lut>
							<lut1></lut1>
							<asc_sop></asc_sop>
							<asc_sat></asc_sat>
							<lut2></lut2>
						</colorinfo>
						<labels>
							<label2>Iris</label2>
						</labels>
					</clipitem>
					<clipitem id="clipitem-792">
						<masterclipid>masterclip-654</masterclipid>
						<name>julian_1_2021-12-10_1637_C0157.mov</name>
						<enabled>TRUE</enabled>
						<duration>1017</duration>
						<rate>
							<timebase>24</timebase>
							<ntsc>TRUE</ntsc>
						</rate>
						<start>4846</start>
						<end>5863</end>
						<in>0</in>
						<out>1017</out>
						<pproTicksIn>0</pproTicksIn>
						<pproTicksOut>10774691928000</pproTicksOut>
						<alphatype>none</alphatype>
						<pixelaspectratio>square</pixelaspectratio>
						<anamorphic>FALSE</anamorphic>
						<file id="file-654">
							<name>julian_1_2021-12-10_1637_C0157.mov</name>
							<pathurl>file://localhost/Volumes/aqua/00_Footage/4)%20Wayuu/rancheria%20and%20manaure/julian_1_2021-12-10_1637_C0157.mov</pathurl>
							<rate>
								<timebase>24</timebase>
								<ntsc>TRUE</ntsc>
							</rate>
							<duration>1017</duration>
							<timecode>
								<rate>
									<timebase>24</timebase>
									<ntsc>TRUE</ntsc>
								</rate>
								<string>16:37:25:00</string>
								<frame>1436280</frame>
								<displayformat>NDF</displayformat>
							</timecode>
							<media>
								<video>
									<samplecharacteristics>
										<rate>
											<timebase>24</timebase>
											<ntsc>TRUE</ntsc>
										</rate>
										<width>1920</width>
										<height>1080</height>
										<anamorphic>FALSE</anamorphic>
										<pixelaspectratio>square</pixelaspectratio>
										<fielddominance>none</fielddominance>
									</samplecharacteristics>
								</video>
								<audio>
									<samplecharacteristics>
										<depth>16</depth>
										<samplerate>48000</samplerate>
									</samplecharacteristics>
									<channelcount>2</channelcount>
								</audio>
							</media>
						</file>
						<logginginfo>
							<description></description>
							<scene></scene>
							<shottake></shottake>
							<lognote></lognote>
							<good></good>
							<originalvideofilename></originalvideofilename>
							<originalaudiofilename></originalaudiofilename>
						</logginginfo>
						<colorinfo>
							<lut></lut>
							<lut1></lut1>
							<asc_sop></asc_sop>
							<asc_sat></asc_sat>
							<lut2></lut2>
						</colorinfo>
						<labels>
							<label2>Iris</label2>
						</labels>
					</clipitem>
					<clipitem id="clipitem-793">
						<masterclipid>masterclip-655</masterclipid>
						<name>julian_1_2021-12-10_1638_C0158.mov</name>
						<enabled>TRUE</enabled>
						<duration>180</duration>
						<rate>
							<timebase>24</timebase>
							<ntsc>TRUE</ntsc>
						</rate>
						<start>5911</start>
						<end>6091</end>
						<in>0</in>
						<out>180</out>
						<pproTicksIn>0</pproTicksIn>
						<pproTicksOut>1907025120000</pproTicksOut>
						<alphatype>none</alphatype>
						<pixelaspectratio>square</pixelaspectratio>
						<anamorphic>FALSE</anamorphic>
						<file id="file-655">
							<name>julian_1_2021-12-10_1638_C0158.mov</name>
							<pathurl>file://localhost/Volumes/aqua/00_Footage/4)%20Wayuu/rancheria%20and%20manaure/julian_1_2021-12-10_1638_C0158.mov</pathurl>
							<rate>
								<timebase>24</timebase>
								<ntsc>TRUE</ntsc>
							</rate>
							<duration>180</duration>
							<timecode>
								<rate>
									<timebase>24</timebase>
									<ntsc>TRUE</ntsc>
								</rate>
								<string>16:38:10:00</string>
								<frame>1437360</frame>
								<displayformat>NDF</displayformat>
							</timecode>
							<media>
								<video>
									<samplecharacteristics>
										<rate>
											<timebase>24</timebase>
											<ntsc>TRUE</ntsc>
										</rate>
										<width>1920</width>
										<height>1080</height>
										<anamorphic>FALSE</anamorphic>
										<pixelaspectratio>square</pixelaspectratio>
										<fielddominance>none</fielddominance>
									</samplecharacteristics>
								</video>
								<audio>
									<samplecharacteristics>
										<depth>16</depth>
										<samplerate>48000</samplerate>
									</samplecharacteristics>
									<channelcount>2</channelcount>
								</audio>
							</media>
						</file>
						<logginginfo>
							<description></description>
							<scene></scene>
							<shottake></shottake>
							<lognote></lognote>
							<good></good>
							<originalvideofilename></originalvideofilename>
							<originalaudiofilename></originalaudiofilename>
						</logginginfo>
						<colorinfo>
							<lut></lut>
							<lut1></lut1>
							<asc_sop></asc_sop>
							<asc_sat></asc_sat>
							<lut2></lut2>
						</colorinfo>
						<labels>
							<label2>Iris</label2>
						</labels>
					</clipitem>
					<clipitem id="clipitem-794">
						<masterclipid>masterclip-656</masterclipid>
						<name>julian_1_2021-12-10_1639_C0159.mov</name>
						<enabled>TRUE</enabled>
						<duration>422</duration>
						<rate>
							<timebase>24</timebase>
							<ntsc>TRUE</ntsc>
						</rate>
						<start>7116</start>
						<end>7538</end>
						<in>0</in>
						<out>422</out>
						<pproTicksIn>0</pproTicksIn>
						<pproTicksOut>4470914448000</pproTicksOut>
						<alphatype>none</alphatype>
						<pixelaspectratio>square</pixelaspectratio>
						<anamorphic>FALSE</anamorphic>
						<file id="file-656">
							<name>julian_1_2021-12-10_1639_C0159.mov</name>
							<pathurl>file://localhost/Volumes/aqua/00_Footage/4)%20Wayuu/rancheria%20and%20manaure/julian_1_2021-12-10_1639_C0159.mov</pathurl>
							<rate>
								<timebase>24</timebase>
								<ntsc>TRUE</ntsc>
							</rate>
							<duration>422</duration>
							<timecode>
								<rate>
									<timebase>24</timebase>
									<ntsc>TRUE</ntsc>
								</rate>
								<string>16:39:00:00</string>
								<frame>1438560</frame>
								<displayformat>NDF</displayformat>
							</timecode>
							<media>
								<video>
									<samplecharacteristics>
										<rate>
											<timebase>24</timebase>
											<ntsc>TRUE</ntsc>
										</rate>
										<width>1920</width>
										<height>1080</height>
										<anamorphic>FALSE</anamorphic>
										<pixelaspectratio>square</pixelaspectratio>
										<fielddominance>none</fielddominance>
									</samplecharacteristics>
								</video>
								<audio>
									<samplecharacteristics>
										<depth>16</depth>
										<samplerate>48000</samplerate>
									</samplecharacteristics>
									<channelcount>2</channelcount>
								</audio>
							</media>
						</file>
						<logginginfo>
							<description></description>
							<scene></scene>
							<shottake></shottake>
							<lognote></lognote>
							<good></good>
							<originalvideofilename></originalvideofilename>
							<originalaudiofilename></originalaudiofilename>
						</logginginfo>
						<colorinfo>
							<lut></lut>
							<lut1></lut1>
							<asc_sop></asc_sop>
							<asc_sat></asc_sat>
							<lut2></lut2>
						</colorinfo>
						<labels>
							<label2>Iris</label2>
						</labels>
					</clipitem>
					<clipitem id="clipitem-795">
						<masterclipid>masterclip-657</masterclipid>
						<name>julian_1_2021-12-10_1639_C0160.mov</name>
						<enabled>TRUE</enabled>
						<duration>1270</duration>
						<rate>
							<timebase>24</timebase>
							<ntsc>TRUE</ntsc>
						</rate>
						<start>7708</start>
						<end>8978</end>
						<in>0</in>
						<out>1270</out>
						<pproTicksIn>0</pproTicksIn>
						<pproTicksOut>13455121680000</pproTicksOut>
						<alphatype>none</alphatype>
						<pixelaspectratio>square</pixelaspectratio>
						<anamorphic>FALSE</anamorphic>
						<file id="file-657">
							<name>julian_1_2021-12-10_1639_C0160.mov</name>
							<pathurl>file://localhost/Volumes/aqua/00_Footage/4)%20Wayuu/rancheria%20and%20manaure/julian_1_2021-12-10_1639_C0160.mov</pathurl>
							<rate>
								<timebase>24</timebase>
								<ntsc>TRUE</ntsc>
							</rate>
							<duration>1270</duration>
							<timecode>
								<rate>
									<timebase>24</timebase>
									<ntsc>TRUE</ntsc>
								</rate>
								<string>16:39:25:00</string>
								<frame>1439160</frame>
								<displayformat>NDF</displayformat>
							</timecode>
							<media>
								<video>
									<samplecharacteristics>
										<rate>
											<timebase>24</timebase>
											<ntsc>TRUE</ntsc>
										</rate>
										<width>1920</width>
										<height>1080</height>
										<anamorphic>FALSE</anamorphic>
										<pixelaspectratio>square</pixelaspectratio>
										<fielddominance>none</fielddominance>
									</samplecharacteristics>
								</video>
								<audio>
									<samplecharacteristics>
										<depth>16</depth>
										<samplerate>48000</samplerate>
									</samplecharacteristics>
									<channelcount>2</channelcount>
								</audio>
							</media>
						</file>
						<logginginfo>
							<description></description>
							<scene></scene>
							<shottake></shottake>
							<lognote></lognote>
							<good></good>
							<originalvideofilename></originalvideofilename>
							<originalaudiofilename></originalaudiofilename>
						</logginginfo>
						<colorinfo>
							<lut></lut>
							<lut1></lut1>
							<asc_sop></asc_sop>
							<asc_sat></asc_sat>
							<lut2></lut2>
						</colorinfo>
						<labels>
							<label2>Iris</label2>
						</labels>
					</clipitem>
					<clipitem id="clipitem-796">
						<masterclipid>masterclip-658</masterclipid>
						<name>julian_1_2021-12-10_1640_C0161.mov</name>
						<enabled>TRUE</enabled>
						<duration>731</duration>
						<rate>
							<timebase>24</timebase>
							<ntsc>TRUE</ntsc>
						</rate>
						<start>9026</start>
						<end>9757</end>
						<in>0</in>
						<out>731</out>
						<pproTicksIn>0</pproTicksIn>
						<pproTicksOut>7744640904000</pproTicksOut>
						<alphatype>none</alphatype>
						<pixelaspectratio>square</pixelaspectratio>
						<anamorphic>FALSE</anamorphic>
						<file id="file-658">
							<name>julian_1_2021-12-10_1640_C0161.mov</name>
							<pathurl>file://localhost/Volumes/aqua/00_Footage/4)%20Wayuu/rancheria%20and%20manaure/julian_1_2021-12-10_1640_C0161.mov</pathurl>
							<rate>
								<timebase>24</timebase>
								<ntsc>TRUE</ntsc>
							</rate>
							<duration>731</duration>
							<timecode>
								<rate>
									<timebase>24</timebase>
									<ntsc>TRUE</ntsc>
								</rate>
								<string>16:40:20:00</string>
								<frame>1440480</frame>
								<displayformat>NDF</displayformat>
							</timecode>
							<media>
								<video>
									<samplecharacteristics>
										<rate>
											<timebase>24</timebase>
											<ntsc>TRUE</ntsc>
										</rate>
										<width>1920</width>
										<height>1080</height>
										<anamorphic>FALSE</anamorphic>
										<pixelaspectratio>square</pixelaspectratio>
										<fielddominance>none</fielddominance>
									</samplecharacteristics>
								</video>
								<audio>
									<samplecharacteristics>
										<depth>16</depth>
										<samplerate>48000</samplerate>
									</samplecharacteristics>
									<channelcount>2</channelcount>
								</audio>
							</media>
						</file>
						<logginginfo>
							<description></description>
							<scene></scene>
							<shottake></shottake>
							<lognote></lognote>
							<good></good>
							<originalvideofilename></originalvideofilename>
							<originalaudiofilename></originalaudiofilename>
						</logginginfo>
						<colorinfo>
							<lut></lut>
							<lut1></lut1>
							<asc_sop></asc_sop>
							<asc_sat></asc_sat>
							<lut2></lut2>
						</colorinfo>
						<labels>
							<label2>Iris</label2>
						</labels>
					</clipitem>
					<clipitem id="clipitem-797">
						<masterclipid>masterclip-659</masterclipid>
						<name>julian_1_2021-12-10_1640_C0162.mov</name>
						<enabled>TRUE</enabled>
						<duration>344</duration>
						<rate>
							<timebase>24</timebase>
							<ntsc>TRUE</ntsc>
						</rate>
						<start>9793</start>
						<end>10137</end>
						<in>0</in>
						<out>344</out>
						<pproTicksIn>0</pproTicksIn>
						<pproTicksOut>3644536896000</pproTicksOut>
						<alphatype>none</alphatype>
						<pixelaspectratio>square</pixelaspectratio>
						<anamorphic>FALSE</anamorphic>
						<file id="file-659">
							<name>julian_1_2021-12-10_1640_C0162.mov</name>
							<pathurl>file://localhost/Volumes/aqua/00_Footage/4)%20Wayuu/rancheria%20and%20manaure/julian_1_2021-12-10_1640_C0162.mov</pathurl>
							<rate>
								<timebase>24</timebase>
								<ntsc>TRUE</ntsc>
							</rate>
							<duration>344</duration>
							<timecode>
								<rate>
									<timebase>24</timebase>
									<ntsc>TRUE</ntsc>
								</rate>
								<string>16:40:52:00</string>
								<frame>1441248</frame>
								<displayformat>NDF</displayformat>
							</timecode>
							<media>
								<video>
									<samplecharacteristics>
										<rate>
											<timebase>24</timebase>
											<ntsc>TRUE</ntsc>
										</rate>
										<width>1920</width>
										<height>1080</height>
										<anamorphic>FALSE</anamorphic>
										<pixelaspectratio>square</pixelaspectratio>
										<fielddominance>none</fielddominance>
									</samplecharacteristics>
								</video>
								<audio>
									<samplecharacteristics>
										<depth>16</depth>
										<samplerate>48000</samplerate>
									</samplecharacteristics>
									<channelcount>2</channelcount>
								</audio>
							</media>
						</file>
						<logginginfo>
							<description></description>
							<scene></scene>
							<shottake></shottake>
							<lognote></lognote>
							<good></good>
							<originalvideofilename></originalvideofilename>
							<originalaudiofilename></originalaudiofilename>
						</logginginfo>
						<colorinfo>
							<lut></lut>
							<lut1></lut1>
							<asc_sop></asc_sop>
							<asc_sat></asc_sat>
							<lut2></lut2>
						</colorinfo>
						<labels>
							<label2>Rose</label2>
						</labels>
					</clipitem>
					<clipitem id="clipitem-798">
						<masterclipid>masterclip-660</masterclipid>
						<name>julian_1_2021-12-10_1641_C0163.mov</name>
						<enabled>TRUE</enabled>
						<duration>1194</duration>
						<rate>
							<timebase>24</timebase>
							<ntsc>TRUE</ntsc>
						</rate>
						<start>11131</start>
						<end>12325</end>
						<in>0</in>
						<out>1194</out>
						<pproTicksIn>0</pproTicksIn>
						<pproTicksOut>12649933296000</pproTicksOut>
						<alphatype>none</alphatype>
						<pixelaspectratio>square</pixelaspectratio>
						<anamorphic>FALSE</anamorphic>
						<file id="file-660">
							<name>julian_1_2021-12-10_1641_C0163.mov</name>
							<pathurl>file://localhost/Volumes/aqua/00_Footage/4)%20Wayuu/rancheria%20and%20manaure/julian_1_2021-12-10_1641_C0163.mov</pathurl>
							<rate>
								<timebase>24</timebase>
								<ntsc>TRUE</ntsc>
							</rate>
							<duration>1194</duration>
							<timecode>
								<rate>
									<timebase>24</timebase>
									<ntsc>TRUE</ntsc>
								</rate>
								<string>16:41:47:00</string>
								<frame>1442568</frame>
								<displayformat>NDF</displayformat>
							</timecode>
							<media>
								<video>
									<samplecharacteristics>
										<rate>
											<timebase>24</timebase>
											<ntsc>TRUE</ntsc>
										</rate>
										<width>1920</width>
										<height>1080</height>
										<anamorphic>FALSE</anamorphic>
										<pixelaspectratio>square</pixelaspectratio>
										<fielddominance>none</fielddominance>
									</samplecharacteristics>
								</video>
								<audio>
									<samplecharacteristics>
										<depth>16</depth>
										<samplerate>48000</samplerate>
									</samplecharacteristics>
									<channelcount>2</channelcount>
								</audio>
							</media>
						</file>
						<logginginfo>
							<description></description>
							<scene></scene>
							<shottake></shottake>
							<lognote></lognote>
							<good></good>
							<originalvideofilename></originalvideofilename>
							<originalaudiofilename></originalaudiofilename>
						</logginginfo>
						<colorinfo>
							<lut></lut>
							<lut1></lut1>
							<asc_sop></asc_sop>
							<asc_sat></asc_sat>
							<lut2></lut2>
						</colorinfo>
						<labels>
							<label2>Iris</label2>
						</labels>
					</clipitem>
					<clipitem id="clipitem-799">
						<masterclipid>masterclip-661</masterclipid>
						<name>julian_1_2021-12-10_1643_C0164.mov</name>
						<enabled>TRUE</enabled>
						<duration>560</duration>
						<rate>
							<timebase>24</timebase>
							<ntsc>TRUE</ntsc>
						</rate>
						<start>13039</start>
						<end>13599</end>
						<in>0</in>
						<out>560</out>
						<pproTicksIn>0</pproTicksIn>
						<pproTicksOut>5932967040000</pproTicksOut>
						<alphatype>none</alphatype>
						<pixelaspectratio>square</pixelaspectratio>
						<anamorphic>FALSE</anamorphic>
						<file id="file-661">
							<name>julian_1_2021-12-10_1643_C0164.mov</name>
							<pathurl>file://localhost/Volumes/aqua/00_Footage/4)%20Wayuu/rancheria%20and%20manaure/julian_1_2021-12-10_1643_C0164.mov</pathurl>
							<rate>
								<timebase>24</timebase>
								<ntsc>TRUE</ntsc>
							</rate>
							<duration>560</duration>
							<timecode>
								<rate>
									<timebase>24</timebase>
									<ntsc>TRUE</ntsc>
								</rate>
								<string>16:43:07:00</string>
								<frame>1444488</frame>
								<displayformat>NDF</displayformat>
							</timecode>
							<media>
								<video>
									<samplecharacteristics>
										<rate>
											<timebase>24</timebase>
											<ntsc>TRUE</ntsc>
										</rate>
										<width>1920</width>
										<height>1080</height>
										<anamorphic>FALSE</anamorphic>
										<pixelaspectratio>square</pixelaspectratio>
										<fielddominance>none</fielddominance>
									</samplecharacteristics>
								</video>
								<audio>
									<samplecharacteristics>
										<depth>16</depth>
										<samplerate>48000</samplerate>
									</samplecharacteristics>
									<channelcount>2</channelcount>
								</audio>
							</media>
						</file>
						<logginginfo>
							<description></description>
							<scene></scene>
							<shottake></shottake>
							<lognote></lognote>
							<good></good>
							<originalvideofilename></originalvideofilename>
							<originalaudiofilename></originalaudiofilename>
						</logginginfo>
						<colorinfo>
							<lut></lut>
							<lut1></lut1>
							<asc_sop></asc_sop>
							<asc_sat></asc_sat>
							<lut2></lut2>
						</colorinfo>
						<labels>
							<label2>Iris</label2>
						</labels>
					</clipitem>
					<clipitem id="clipitem-800">
						<masterclipid>masterclip-662</masterclipid>
						<name>julian_1_2021-12-10_1644_C0165.mov</name>
						<enabled>TRUE</enabled>
						<duration>914</duration>
						<rate>
							<timebase>24</timebase>
							<ntsc>TRUE</ntsc>
						</rate>
						<start>15111</start>
						<end>16025</end>
						<in>0</in>
						<out>914</out>
						<pproTicksIn>0</pproTicksIn>
						<pproTicksOut>9683449776000</pproTicksOut>
						<alphatype>none</alphatype>
						<pixelaspectratio>square</pixelaspectratio>
						<anamorphic>FALSE</anamorphic>
						<file id="file-662">
							<name>julian_1_2021-12-10_1644_C0165.mov</name>
							<pathurl>file://localhost/Volumes/aqua/00_Footage/4)%20Wayuu/rancheria%20and%20manaure/julian_1_2021-12-10_1644_C0165.mov</pathurl>
							<rate>
								<timebase>24</timebase>
								<ntsc>TRUE</ntsc>
							</rate>
							<duration>914</duration>
							<timecode>
								<rate>
									<timebase>24</timebase>
									<ntsc>TRUE</ntsc>
								</rate>
								<string>16:44:33:00</string>
								<frame>1446552</frame>
								<displayformat>NDF</displayformat>
							</timecode>
							<media>
								<video>
									<samplecharacteristics>
										<rate>
											<timebase>24</timebase>
											<ntsc>TRUE</ntsc>
										</rate>
										<width>1920</width>
										<height>1080</height>
										<anamorphic>FALSE</anamorphic>
										<pixelaspectratio>square</pixelaspectratio>
										<fielddominance>none</fielddominance>
									</samplecharacteristics>
								</video>
								<audio>
									<samplecharacteristics>
										<depth>16</depth>
										<samplerate>48000</samplerate>
									</samplecharacteristics>
									<channelcount>2</channelcount>
								</audio>
							</media>
						</file>
						<logginginfo>
							<description></description>
							<scene></scene>
							<shottake></shottake>
							<lognote></lognote>
							<good></good>
							<originalvideofilename></originalvideofilename>
							<originalaudiofilename></originalaudiofilename>
						</logginginfo>
						<colorinfo>
							<lut></lut>
							<lut1></lut1>
							<asc_sop></asc_sop>
							<asc_sat></asc_sat>
							<lut2></lut2>
						</colorinfo>
						<labels>
							<label2>Iris</label2>
						</labels>
					</clipitem>
					<clipitem id="clipitem-801">
						<masterclipid>masterclip-663</masterclipid>
						<name>julian_1_2021-12-10_1645_C0166.mov</name>
						<enabled>TRUE</enabled>
						<duration>200</duration>
						<rate>
							<timebase>24</timebase>
							<ntsc>TRUE</ntsc>
						</rate>
						<start>16336</start>
						<end>16536</end>
						<in>0</in>
						<out>200</out>
						<pproTicksIn>0</pproTicksIn>
						<pproTicksOut>2118916800000</pproTicksOut>
						<alphatype>none</alphatype>
						<pixelaspectratio>square</pixelaspectratio>
						<anamorphic>FALSE</anamorphic>
						<file id="file-663">
							<name>julian_1_2021-12-10_1645_C0166.mov</name>
							<pathurl>file://localhost/Volumes/aqua/00_Footage/4)%20Wayuu/rancheria%20and%20manaure/julian_1_2021-12-10_1645_C0166.mov</pathurl>
							<rate>
								<timebase>24</timebase>
								<ntsc>TRUE</ntsc>
							</rate>
							<duration>200</duration>
							<timecode>
								<rate>
									<timebase>24</timebase>
									<ntsc>TRUE</ntsc>
								</rate>
								<string>16:45:25:00</string>
								<frame>1447800</frame>
								<displayformat>NDF</displayformat>
							</timecode>
							<media>
								<video>
									<samplecharacteristics>
										<rate>
											<timebase>24</timebase>
											<ntsc>TRUE</ntsc>
										</rate>
										<width>1920</width>
										<height>1080</height>
										<anamorphic>FALSE</anamorphic>
										<pixelaspectratio>square</pixelaspectratio>
										<fielddominance>none</fielddominance>
									</samplecharacteristics>
								</video>
								<audio>
									<samplecharacteristics>
										<depth>16</depth>
										<samplerate>48000</samplerate>
									</samplecharacteristics>
									<channelcount>2</channelcount>
								</audio>
							</media>
						</file>
						<logginginfo>
							<description></description>
							<scene></scene>
							<shottake></shottake>
							<lognote></lognote>
							<good></good>
							<originalvideofilename></originalvideofilename>
							<originalaudiofilename></originalaudiofilename>
						</logginginfo>
						<colorinfo>
							<lut></lut>
							<lut1></lut1>
							<asc_sop></asc_sop>
							<asc_sat></asc_sat>
							<lut2></lut2>
						</colorinfo>
						<labels>
							<label2>Iris</label2>
						</labels>
					</clipitem>
					<clipitem id="clipitem-802">
						<masterclipid>masterclip-664</masterclipid>
						<name>julian_1_2021-12-10_1645_C0167.mov</name>
						<enabled>TRUE</enabled>
						<duration>346</duration>
						<rate>
							<timebase>24</timebase>
							<ntsc>TRUE</ntsc>
						</rate>
						<start>16683</start>
						<end>17029</end>
						<in>0</in>
						<out>346</out>
						<pproTicksIn>0</pproTicksIn>
						<pproTicksOut>3665726064000</pproTicksOut>
						<alphatype>none</alphatype>
						<pixelaspectratio>square</pixelaspectratio>
						<anamorphic>FALSE</anamorphic>
						<file id="file-664">
							<name>julian_1_2021-12-10_1645_C0167.mov</name>
							<pathurl>file://localhost/Volumes/aqua/00_Footage/4)%20Wayuu/rancheria%20and%20manaure/julian_1_2021-12-10_1645_C0167.mov</pathurl>
							<rate>
								<timebase>24</timebase>
								<ntsc>TRUE</ntsc>
							</rate>
							<duration>346</duration>
							<timecode>
								<rate>
									<timebase>24</timebase>
									<ntsc>TRUE</ntsc>
								</rate>
								<string>16:45:39:00</string>
								<frame>1448136</frame>
								<displayformat>NDF</displayformat>
							</timecode>
							<media>
								<video>
									<samplecharacteristics>
										<rate>
											<timebase>24</timebase>
											<ntsc>TRUE</ntsc>
										</rate>
										<width>1920</width>
										<height>1080</height>
										<anamorphic>FALSE</anamorphic>
										<pixelaspectratio>square</pixelaspectratio>
										<fielddominance>none</fielddominance>
									</samplecharacteristics>
								</video>
								<audio>
									<samplecharacteristics>
										<depth>16</depth>
										<samplerate>48000</samplerate>
									</samplecharacteristics>
									<channelcount>2</channelcount>
								</audio>
							</media>
						</file>
						<logginginfo>
							<description></description>
							<scene></scene>
							<shottake></shottake>
							<lognote></lognote>
							<good></good>
							<originalvideofilename></originalvideofilename>
							<originalaudiofilename></originalaudiofilename>
						</logginginfo>
						<colorinfo>
							<lut></lut>
							<lut1></lut1>
							<asc_sop></asc_sop>
							<asc_sat></asc_sat>
							<lut2></lut2>
						</colorinfo>
						<labels>
							<label2>Iris</label2>
						</labels>
					</clipitem>
					<clipitem id="clipitem-803">
						<masterclipid>masterclip-665</masterclipid>
						<name>julian_1_2021-12-10_1645_C0168.mov</name>
						<enabled>TRUE</enabled>
						<duration>364</duration>
						<rate>
							<timebase>24</timebase>
							<ntsc>TRUE</ntsc>
						</rate>
						<start>17103</start>
						<end>17467</end>
						<in>0</in>
						<out>364</out>
						<pproTicksIn>0</pproTicksIn>
						<pproTicksOut>3856428576000</pproTicksOut>
						<alphatype>none</alphatype>
						<pixelaspectratio>square</pixelaspectratio>
						<anamorphic>FALSE</anamorphic>
						<file id="file-665">
							<name>julian_1_2021-12-10_1645_C0168.mov</name>
							<pathurl>file://localhost/Volumes/aqua/00_Footage/4)%20Wayuu/rancheria%20and%20manaure/julian_1_2021-12-10_1645_C0168.mov</pathurl>
							<rate>
								<timebase>24</timebase>
								<ntsc>TRUE</ntsc>
							</rate>
							<duration>364</duration>
							<timecode>
								<rate>
									<timebase>24</timebase>
									<ntsc>TRUE</ntsc>
								</rate>
								<string>16:45:57:00</string>
								<frame>1448568</frame>
								<displayformat>NDF</displayformat>
							</timecode>
							<media>
								<video>
									<samplecharacteristics>
										<rate>
											<timebase>24</timebase>
											<ntsc>TRUE</ntsc>
										</rate>
										<width>1920</width>
										<height>1080</height>
										<anamorphic>FALSE</anamorphic>
										<pixelaspectratio>square</pixelaspectratio>
										<fielddominance>none</fielddominance>
									</samplecharacteristics>
								</video>
								<audio>
									<samplecharacteristics>
										<depth>16</depth>
										<samplerate>48000</samplerate>
									</samplecharacteristics>
									<channelcount>2</channelcount>
								</audio>
							</media>
						</file>
						<logginginfo>
							<description></description>
							<scene></scene>
							<shottake></shottake>
							<lognote></lognote>
							<good></good>
							<originalvideofilename></originalvideofilename>
							<originalaudiofilename></originalaudiofilename>
						</logginginfo>
						<colorinfo>
							<lut></lut>
							<lut1></lut1>
							<asc_sop></asc_sop>
							<asc_sat></asc_sat>
							<lut2></lut2>
						</colorinfo>
						<labels>
							<label2>Iris</label2>
						</labels>
					</clipitem>
					<clipitem id="clipitem-804">
						<masterclipid>masterclip-666</masterclipid>
						<name>julian_1_2021-12-10_1646_C0169.mov</name>
						<enabled>TRUE</enabled>
						<duration>987</duration>
						<rate>
							<timebase>24</timebase>
							<ntsc>TRUE</ntsc>
						</rate>
						<start>18301</start>
						<end>19288</end>
						<in>0</in>
						<out>987</out>
						<pproTicksIn>0</pproTicksIn>
						<pproTicksOut>10456854408000</pproTicksOut>
						<alphatype>none</alphatype>
						<pixelaspectratio>square</pixelaspectratio>
						<anamorphic>FALSE</anamorphic>
						<file id="file-666">
							<name>julian_1_2021-12-10_1646_C0169.mov</name>
							<pathurl>file://localhost/Volumes/aqua/00_Footage/4)%20Wayuu/rancheria%20and%20manaure/julian_1_2021-12-10_1646_C0169.mov</pathurl>
							<rate>
								<timebase>24</timebase>
								<ntsc>TRUE</ntsc>
							</rate>
							<duration>987</duration>
							<timecode>
								<rate>
									<timebase>24</timebase>
									<ntsc>TRUE</ntsc>
								</rate>
								<string>16:46:47:00</string>
								<frame>1449768</frame>
								<displayformat>NDF</displayformat>
							</timecode>
							<media>
								<video>
									<samplecharacteristics>
										<rate>
											<timebase>24</timebase>
											<ntsc>TRUE</ntsc>
										</rate>
										<width>1920</width>
										<height>1080</height>
										<anamorphic>FALSE</anamorphic>
										<pixelaspectratio>square</pixelaspectratio>
										<fielddominance>none</fielddominance>
									</samplecharacteristics>
								</video>
								<audio>
									<samplecharacteristics>
										<depth>16</depth>
										<samplerate>48000</samplerate>
									</samplecharacteristics>
									<channelcount>2</channelcount>
								</audio>
							</media>
						</file>
						<logginginfo>
							<description></description>
							<scene></scene>
							<shottake></shottake>
							<lognote></lognote>
							<good></good>
							<originalvideofilename></originalvideofilename>
							<originalaudiofilename></originalaudiofilename>
						</logginginfo>
						<colorinfo>
							<lut></lut>
							<lut1></lut1>
							<asc_sop></asc_sop>
							<asc_sat></asc_sat>
							<lut2></lut2>
						</colorinfo>
						<labels>
							<label2>Iris</label2>
						</labels>
					</clipitem>
					<clipitem id="clipitem-805">
						<masterclipid>masterclip-667</masterclipid>
						<name>julian_1_2021-12-10_1647_C0170.mov</name>
						<enabled>TRUE</enabled>
						<duration>404</duration>
						<rate>
							<timebase>24</timebase>
							<ntsc>TRUE</ntsc>
						</rate>
						<start>19588</start>
						<end>19992</end>
						<in>0</in>
						<out>404</out>
						<pproTicksIn>0</pproTicksIn>
						<pproTicksOut>4280211936000</pproTicksOut>
						<alphatype>none</alphatype>
						<pixelaspectratio>square</pixelaspectratio>
						<anamorphic>FALSE</anamorphic>
						<file id="file-667">
							<name>julian_1_2021-12-10_1647_C0170.mov</name>
							<pathurl>file://localhost/Volumes/aqua/00_Footage/4)%20Wayuu/rancheria%20and%20manaure/julian_1_2021-12-10_1647_C0170.mov</pathurl>
							<rate>
								<timebase>24</timebase>
								<ntsc>TRUE</ntsc>
							</rate>
							<duration>404</duration>
							<timecode>
								<rate>
									<timebase>24</timebase>
									<ntsc>TRUE</ntsc>
								</rate>
								<string>16:47:40:00</string>
								<frame>1451040</frame>
								<displayformat>NDF</displayformat>
							</timecode>
							<media>
								<video>
									<samplecharacteristics>
										<rate>
											<timebase>24</timebase>
											<ntsc>TRUE</ntsc>
										</rate>
										<width>1920</width>
										<height>1080</height>
										<anamorphic>FALSE</anamorphic>
										<pixelaspectratio>square</pixelaspectratio>
										<fielddominance>none</fielddominance>
									</samplecharacteristics>
								</video>
								<audio>
									<samplecharacteristics>
										<depth>16</depth>
										<samplerate>48000</samplerate>
									</samplecharacteristics>
									<channelcount>2</channelcount>
								</audio>
							</media>
						</file>
						<logginginfo>
							<description></description>
							<scene></scene>
							<shottake></shottake>
							<lognote></lognote>
							<good></good>
							<originalvideofilename></originalvideofilename>
							<originalaudiofilename></originalaudiofilename>
						</logginginfo>
						<colorinfo>
							<lut></lut>
							<lut1></lut1>
							<asc_sop></asc_sop>
							<asc_sat></asc_sat>
							<lut2></lut2>
						</colorinfo>
						<labels>
							<label2>Iris</label2>
						</labels>
					</clipitem>
					<clipitem id="clipitem-806">
						<masterclipid>masterclip-668</masterclipid>
						<name>julian_1_2021-12-10_1648_C0171.mov</name>
						<enabled>TRUE</enabled>
						<duration>950</duration>
						<rate>
							<timebase>24</timebase>
							<ntsc>TRUE</ntsc>
						</rate>
						<start>20150</start>
						<end>21100</end>
						<in>0</in>
						<out>950</out>
						<pproTicksIn>0</pproTicksIn>
						<pproTicksOut>10064854800000</pproTicksOut>
						<alphatype>none</alphatype>
						<pixelaspectratio>square</pixelaspectratio>
						<anamorphic>FALSE</anamorphic>
						<file id="file-668">
							<name>julian_1_2021-12-10_1648_C0171.mov</name>
							<pathurl>file://localhost/Volumes/aqua/00_Footage/4)%20Wayuu/rancheria%20and%20manaure/julian_1_2021-12-10_1648_C0171.mov</pathurl>
							<rate>
								<timebase>24</timebase>
								<ntsc>TRUE</ntsc>
							</rate>
							<duration>950</duration>
							<timecode>
								<rate>
									<timebase>24</timebase>
									<ntsc>TRUE</ntsc>
								</rate>
								<string>16:48:04:00</string>
								<frame>1451616</frame>
								<displayformat>NDF</displayformat>
							</timecode>
							<media>
								<video>
									<samplecharacteristics>
										<rate>
											<timebase>24</timebase>
											<ntsc>TRUE</ntsc>
										</rate>
										<width>1920</width>
										<height>1080</height>
										<anamorphic>FALSE</anamorphic>
										<pixelaspectratio>square</pixelaspectratio>
										<fielddominance>none</fielddominance>
									</samplecharacteristics>
								</video>
								<audio>
									<samplecharacteristics>
										<depth>16</depth>
										<samplerate>48000</samplerate>
									</samplecharacteristics>
									<channelcount>2</channelcount>
								</audio>
							</media>
						</file>
						<logginginfo>
							<description></description>
							<scene></scene>
							<shottake></shottake>
							<lognote></lognote>
							<good></good>
							<originalvideofilename></originalvideofilename>
							<originalaudiofilename></originalaudiofilename>
						</logginginfo>
						<colorinfo>
							<lut></lut>
							<lut1></lut1>
							<asc_sop></asc_sop>
							<asc_sat></asc_sat>
							<lut2></lut2>
						</colorinfo>
						<labels>
							<label2>Iris</label2>
						</labels>
					</clipitem>
					<clipitem id="clipitem-807">
						<masterclipid>masterclip-669</masterclipid>
						<name>julian_1_2021-12-10_1649_C0172.mov</name>
						<enabled>TRUE</enabled>
						<duration>667</duration>
						<rate>
							<timebase>24</timebase>
							<ntsc>TRUE</ntsc>
						</rate>
						<start>22379</start>
						<end>23046</end>
						<in>0</in>
						<out>667</out>
						<pproTicksIn>0</pproTicksIn>
						<pproTicksOut>7066587528000</pproTicksOut>
						<alphatype>none</alphatype>
						<pixelaspectratio>square</pixelaspectratio>
						<anamorphic>FALSE</anamorphic>
						<file id="file-669">
							<name>julian_1_2021-12-10_1649_C0172.mov</name>
							<pathurl>file://localhost/Volumes/aqua/00_Footage/4)%20Wayuu/rancheria%20and%20manaure/julian_1_2021-12-10_1649_C0172.mov</pathurl>
							<rate>
								<timebase>24</timebase>
								<ntsc>TRUE</ntsc>
							</rate>
							<duration>667</duration>
							<timecode>
								<rate>
									<timebase>24</timebase>
									<ntsc>TRUE</ntsc>
								</rate>
								<string>16:49:37:00</string>
								<frame>1453848</frame>
								<displayformat>NDF</displayformat>
							</timecode>
							<media>
								<video>
									<samplecharacteristics>
										<rate>
											<timebase>24</timebase>
											<ntsc>TRUE</ntsc>
										</rate>
										<width>1920</width>
										<height>1080</height>
										<anamorphic>FALSE</anamorphic>
										<pixelaspectratio>square</pixelaspectratio>
										<fielddominance>none</fielddominance>
									</samplecharacteristics>
								</video>
								<audio>
									<samplecharacteristics>
										<depth>16</depth>
										<samplerate>48000</samplerate>
									</samplecharacteristics>
									<channelcount>2</channelcount>
								</audio>
							</media>
						</file>
						<logginginfo>
							<description></description>
							<scene></scene>
							<shottake></shottake>
							<lognote></lognote>
							<good></good>
							<originalvideofilename></originalvideofilename>
							<originalaudiofilename></originalaudiofilename>
						</logginginfo>
						<colorinfo>
							<lut></lut>
							<lut1></lut1>
							<asc_sop></asc_sop>
							<asc_sat></asc_sat>
							<lut2></lut2>
						</colorinfo>
						<labels>
							<label2>Iris</label2>
						</labels>
					</clipitem>
					<clipitem id="clipitem-808">
						<masterclipid>masterclip-670</masterclipid>
						<name>julian_1_2021-12-10_1650_C0173.mov</name>
						<enabled>TRUE</enabled>
						<duration>916</duration>
						<rate>
							<timebase>24</timebase>
							<ntsc>TRUE</ntsc>
						</rate>
						<start>23197</start>
						<end>24113</end>
						<in>0</in>
						<out>916</out>
						<pproTicksIn>0</pproTicksIn>
						<pproTicksOut>9704638944000</pproTicksOut>
						<alphatype>none</alphatype>
						<pixelaspectratio>square</pixelaspectratio>
						<anamorphic>FALSE</anamorphic>
						<file id="file-670">
							<name>julian_1_2021-12-10_1650_C0173.mov</name>
							<pathurl>file://localhost/Volumes/aqua/00_Footage/4)%20Wayuu/rancheria%20and%20manaure/julian_1_2021-12-10_1650_C0173.mov</pathurl>
							<rate>
								<timebase>24</timebase>
								<ntsc>TRUE</ntsc>
							</rate>
							<duration>916</duration>
							<timecode>
								<rate>
									<timebase>24</timebase>
									<ntsc>TRUE</ntsc>
								</rate>
								<string>16:50:11:00</string>
								<frame>1454664</frame>
								<displayformat>NDF</displayformat>
							</timecode>
							<media>
								<video>
									<samplecharacteristics>
										<rate>
											<timebase>24</timebase>
											<ntsc>TRUE</ntsc>
										</rate>
										<width>1920</width>
										<height>1080</height>
										<anamorphic>FALSE</anamorphic>
										<pixelaspectratio>square</pixelaspectratio>
										<fielddominance>none</fielddominance>
									</samplecharacteristics>
								</video>
								<audio>
									<samplecharacteristics>
										<depth>16</depth>
										<samplerate>48000</samplerate>
									</samplecharacteristics>
									<channelcount>2</channelcount>
								</audio>
							</media>
						</file>
						<logginginfo>
							<description></description>
							<scene></scene>
							<shottake></shottake>
							<lognote></lognote>
							<good></good>
							<originalvideofilename></originalvideofilename>
							<originalaudiofilename></originalaudiofilename>
						</logginginfo>
						<colorinfo>
							<lut></lut>
							<lut1></lut1>
							<asc_sop></asc_sop>
							<asc_sat></asc_sat>
							<lut2></lut2>
						</colorinfo>
						<labels>
							<label2>Iris</label2>
						</labels>
					</clipitem>
					<clipitem id="clipitem-809">
						<masterclipid>masterclip-671</masterclipid>
						<name>julian_1_2021-12-10_1650_C0174.mov</name>
						<enabled>TRUE</enabled>
						<duration>46</duration>
						<rate>
							<timebase>24</timebase>
							<ntsc>TRUE</ntsc>
						</rate>
						<start>24276</start>
						<end>24322</end>
						<in>0</in>
						<out>46</out>
						<pproTicksIn>0</pproTicksIn>
						<pproTicksOut>487350864000</pproTicksOut>
						<alphatype>none</alphatype>
						<pixelaspectratio>square</pixelaspectratio>
						<anamorphic>FALSE</anamorphic>
						<file id="file-671">
							<name>julian_1_2021-12-10_1650_C0174.mov</name>
							<pathurl>file://localhost/Volumes/aqua/00_Footage/4)%20Wayuu/rancheria%20and%20manaure/julian_1_2021-12-10_1650_C0174.mov</pathurl>
							<rate>
								<timebase>24</timebase>
								<ntsc>TRUE</ntsc>
							</rate>
							<duration>46</duration>
							<timecode>
								<rate>
									<timebase>24</timebase>
									<ntsc>TRUE</ntsc>
								</rate>
								<string>16:50:56:00</string>
								<frame>1455744</frame>
								<displayformat>NDF</displayformat>
							</timecode>
							<media>
								<video>
									<samplecharacteristics>
										<rate>
											<timebase>24</timebase>
											<ntsc>TRUE</ntsc>
										</rate>
										<width>1920</width>
										<height>1080</height>
										<anamorphic>FALSE</anamorphic>
										<pixelaspectratio>square</pixelaspectratio>
										<fielddominance>none</fielddominance>
									</samplecharacteristics>
								</video>
								<audio>
									<samplecharacteristics>
										<depth>16</depth>
										<samplerate>48000</samplerate>
									</samplecharacteristics>
									<channelcount>2</channelcount>
								</audio>
							</media>
						</file>
						<logginginfo>
							<description></description>
							<scene></scene>
							<shottake></shottake>
							<lognote></lognote>
							<good></good>
							<originalvideofilename></originalvideofilename>
							<originalaudiofilename></originalaudiofilename>
						</logginginfo>
						<colorinfo>
							<lut></lut>
							<lut1></lut1>
							<asc_sop></asc_sop>
							<asc_sat></asc_sat>
							<lut2></lut2>
						</colorinfo>
						<labels>
							<label2>Rose</label2>
						</labels>
					</clipitem>
					<clipitem id="clipitem-810">
						<masterclipid>masterclip-672</masterclipid>
						<name>julian_1_2021-12-10_1654_C0175.mov</name>
						<enabled>TRUE</enabled>
						<duration>413</duration>
						<rate>
							<timebase>24</timebase>
							<ntsc>TRUE</ntsc>
						</rate>
						<start>29731</start>
						<end>30144</end>
						<in>0</in>
						<out>413</out>
						<pproTicksIn>0</pproTicksIn>
						<pproTicksOut>4375563192000</pproTicksOut>
						<alphatype>none</alphatype>
						<pixelaspectratio>square</pixelaspectratio>
						<anamorphic>FALSE</anamorphic>
						<file id="file-672">
							<name>julian_1_2021-12-10_1654_C0175.mov</name>
							<pathurl>file://localhost/Volumes/aqua/00_Footage/4)%20Wayuu/rancheria%20and%20manaure/julian_1_2021-12-10_1654_C0175.mov</pathurl>
							<rate>
								<timebase>24</timebase>
								<ntsc>TRUE</ntsc>
							</rate>
							<duration>413</duration>
							<timecode>
								<rate>
									<timebase>24</timebase>
									<ntsc>TRUE</ntsc>
								</rate>
								<string>16:54:43:00</string>
								<frame>1461192</frame>
								<displayformat>NDF</displayformat>
							</timecode>
							<media>
								<video>
									<samplecharacteristics>
										<rate>
											<timebase>24</timebase>
											<ntsc>TRUE</ntsc>
										</rate>
										<width>1920</width>
										<height>1080</height>
										<anamorphic>FALSE</anamorphic>
										<pixelaspectratio>square</pixelaspectratio>
										<fielddominance>none</fielddominance>
									</samplecharacteristics>
								</video>
								<audio>
									<samplecharacteristics>
										<depth>16</depth>
										<samplerate>48000</samplerate>
									</samplecharacteristics>
									<channelcount>2</channelcount>
								</audio>
							</media>
						</file>
						<logginginfo>
							<description></description>
							<scene></scene>
							<shottake></shottake>
							<lognote></lognote>
							<good></good>
							<originalvideofilename></originalvideofilename>
							<originalaudiofilename></originalaudiofilename>
						</logginginfo>
						<colorinfo>
							<lut></lut>
							<lut1></lut1>
							<asc_sop></asc_sop>
							<asc_sat></asc_sat>
							<lut2></lut2>
						</colorinfo>
						<labels>
							<label2>Iris</label2>
						</labels>
					</clipitem>
					<clipitem id="clipitem-811">
						<masterclipid>masterclip-673</masterclipid>
						<name>julian_1_2021-12-10_1659_C0176.mov</name>
						<enabled>TRUE</enabled>
						<duration>823</duration>
						<rate>
							<timebase>24</timebase>
							<ntsc>TRUE</ntsc>
						</rate>
						<start>36099</start>
						<end>36922</end>
						<in>0</in>
						<out>823</out>
						<pproTicksIn>0</pproTicksIn>
						<pproTicksOut>8719342632000</pproTicksOut>
						<alphatype>none</alphatype>
						<pixelaspectratio>square</pixelaspectratio>
						<anamorphic>FALSE</anamorphic>
						<file id="file-673">
							<name>julian_1_2021-12-10_1659_C0176.mov</name>
							<pathurl>file://localhost/Volumes/aqua/00_Footage/4)%20Wayuu/rancheria%20and%20manaure/julian_1_2021-12-10_1659_C0176.mov</pathurl>
							<rate>
								<timebase>24</timebase>
								<ntsc>TRUE</ntsc>
							</rate>
							<duration>823</duration>
							<timecode>
								<rate>
									<timebase>24</timebase>
									<ntsc>TRUE</ntsc>
								</rate>
								<string>16:59:09:00</string>
								<frame>1467576</frame>
								<displayformat>NDF</displayformat>
							</timecode>
							<media>
								<video>
									<samplecharacteristics>
										<rate>
											<timebase>24</timebase>
											<ntsc>TRUE</ntsc>
										</rate>
										<width>1920</width>
										<height>1080</height>
										<anamorphic>FALSE</anamorphic>
										<pixelaspectratio>square</pixelaspectratio>
										<fielddominance>none</fielddominance>
									</samplecharacteristics>
								</video>
								<audio>
									<samplecharacteristics>
										<depth>16</depth>
										<samplerate>48000</samplerate>
									</samplecharacteristics>
									<channelcount>2</channelcount>
								</audio>
							</media>
						</file>
						<logginginfo>
							<description></description>
							<scene></scene>
							<shottake></shottake>
							<lognote></lognote>
							<good></good>
							<originalvideofilename></originalvideofilename>
							<originalaudiofilename></originalaudiofilename>
						</logginginfo>
						<colorinfo>
							<lut></lut>
							<lut1></lut1>
							<asc_sop></asc_sop>
							<asc_sat></asc_sat>
							<lut2></lut2>
						</colorinfo>
						<labels>
							<label2>Iris</label2>
						</labels>
					</clipitem>
					<clipitem id="clipitem-812">
						<masterclipid>masterclip-674</masterclipid>
						<name>julian_1_2021-12-10_1659_C0177.mov</name>
						<enabled>TRUE</enabled>
						<duration>261</duration>
						<rate>
							<timebase>24</timebase>
							<ntsc>TRUE</ntsc>
						</rate>
						<start>37255</start>
						<end>37516</end>
						<in>0</in>
						<out>261</out>
						<pproTicksIn>0</pproTicksIn>
						<pproTicksOut>2765186424000</pproTicksOut>
						<alphatype>none</alphatype>
						<pixelaspectratio>square</pixelaspectratio>
						<anamorphic>FALSE</anamorphic>
						<file id="file-674">
							<name>julian_1_2021-12-10_1659_C0177.mov</name>
							<pathurl>file://localhost/Volumes/aqua/00_Footage/4)%20Wayuu/rancheria%20and%20manaure/julian_1_2021-12-10_1659_C0177.mov</pathurl>
							<rate>
								<timebase>24</timebase>
								<ntsc>TRUE</ntsc>
							</rate>
							<duration>261</duration>
							<timecode>
								<rate>
									<timebase>24</timebase>
									<ntsc>TRUE</ntsc>
								</rate>
								<string>16:59:57:00</string>
								<frame>1468728</frame>
								<displayformat>NDF</displayformat>
							</timecode>
							<media>
								<video>
									<samplecharacteristics>
										<rate>
											<timebase>24</timebase>
											<ntsc>TRUE</ntsc>
										</rate>
										<width>1920</width>
										<height>1080</height>
										<anamorphic>FALSE</anamorphic>
										<pixelaspectratio>square</pixelaspectratio>
										<fielddominance>none</fielddominance>
									</samplecharacteristics>
								</video>
								<audio>
									<samplecharacteristics>
										<depth>16</depth>
										<samplerate>48000</samplerate>
									</samplecharacteristics>
									<channelcount>2</channelcount>
								</audio>
							</media>
						</file>
						<logginginfo>
							<description></description>
							<scene></scene>
							<shottake></shottake>
							<lognote></lognote>
							<good></good>
							<originalvideofilename></originalvideofilename>
							<originalaudiofilename></originalaudiofilename>
						</logginginfo>
						<colorinfo>
							<lut></lut>
							<lut1></lut1>
							<asc_sop></asc_sop>
							<asc_sat></asc_sat>
							<lut2></lut2>
						</colorinfo>
						<labels>
							<label2>Iris</label2>
						</labels>
					</clipitem>
					<clipitem id="clipitem-813">
						<masterclipid>masterclip-675</masterclipid>
						<name>julian_1_2021-12-10_1705_C0178.mov</name>
						<enabled>TRUE</enabled>
						<duration>3009</duration>
						<rate>
							<timebase>24</timebase>
							<ntsc>TRUE</ntsc>
						</rate>
						<start>44880</start>
						<end>47889</end>
						<in>0</in>
						<out>3009</out>
						<pproTicksIn>0</pproTicksIn>
						<pproTicksOut>31879103256000</pproTicksOut>
						<alphatype>none</alphatype>
						<pixelaspectratio>square</pixelaspectratio>
						<anamorphic>FALSE</anamorphic>
						<file id="file-675">
							<name>julian_1_2021-12-10_1705_C0178.mov</name>
							<pathurl>file://localhost/Volumes/aqua/00_Footage/4)%20Wayuu/rancheria%20and%20manaure/julian_1_2021-12-10_1705_C0178.mov</pathurl>
							<rate>
								<timebase>24</timebase>
								<ntsc>TRUE</ntsc>
							</rate>
							<duration>3009</duration>
							<timecode>
								<rate>
									<timebase>24</timebase>
									<ntsc>TRUE</ntsc>
								</rate>
								<string>17:05:15:00</string>
								<frame>1476360</frame>
								<displayformat>NDF</displayformat>
							</timecode>
							<media>
								<video>
									<samplecharacteristics>
										<rate>
											<timebase>24</timebase>
											<ntsc>TRUE</ntsc>
										</rate>
										<width>1920</width>
										<height>1080</height>
										<anamorphic>FALSE</anamorphic>
										<pixelaspectratio>square</pixelaspectratio>
										<fielddominance>none</fielddominance>
									</samplecharacteristics>
								</video>
								<audio>
									<samplecharacteristics>
										<depth>16</depth>
										<samplerate>48000</samplerate>
									</samplecharacteristics>
									<channelcount>2</channelcount>
								</audio>
							</media>
						</file>
						<logginginfo>
							<description></description>
							<scene></scene>
							<shottake></shottake>
							<lognote></lognote>
							<good></good>
							<originalvideofilename></originalvideofilename>
							<originalaudiofilename></originalaudiofilename>
						</logginginfo>
						<colorinfo>
							<lut></lut>
							<lut1></lut1>
							<asc_sop></asc_sop>
							<asc_sat></asc_sat>
							<lut2></lut2>
						</colorinfo>
						<labels>
							<label2>Iris</label2>
						</labels>
					</clipitem>
					<clipitem id="clipitem-814">
						<masterclipid>masterclip-676</masterclipid>
						<name>julian_1_2021-12-10_1707_C0179.mov</name>
						<enabled>TRUE</enabled>
						<duration>773</duration>
						<rate>
							<timebase>24</timebase>
							<ntsc>TRUE</ntsc>
						</rate>
						<start>48726</start>
						<end>49499</end>
						<in>0</in>
						<out>773</out>
						<pproTicksIn>0</pproTicksIn>
						<pproTicksOut>8189613432000</pproTicksOut>
						<alphatype>none</alphatype>
						<pixelaspectratio>square</pixelaspectratio>
						<anamorphic>FALSE</anamorphic>
						<file id="file-676">
							<name>julian_1_2021-12-10_1707_C0179.mov</name>
							<pathurl>file://localhost/Volumes/aqua/00_Footage/4)%20Wayuu/rancheria%20and%20manaure/julian_1_2021-12-10_1707_C0179.mov</pathurl>
							<rate>
								<timebase>24</timebase>
								<ntsc>TRUE</ntsc>
							</rate>
							<duration>773</duration>
							<timecode>
								<rate>
									<timebase>24</timebase>
									<ntsc>TRUE</ntsc>
								</rate>
								<string>17:07:55:00</string>
								<frame>1480200</frame>
								<displayformat>NDF</displayformat>
							</timecode>
							<media>
								<video>
									<samplecharacteristics>
										<rate>
											<timebase>24</timebase>
											<ntsc>TRUE</ntsc>
										</rate>
										<width>1920</width>
										<height>1080</height>
										<anamorphic>FALSE</anamorphic>
										<pixelaspectratio>square</pixelaspectratio>
										<fielddominance>none</fielddominance>
									</samplecharacteristics>
								</video>
								<audio>
									<samplecharacteristics>
										<depth>16</depth>
										<samplerate>48000</samplerate>
									</samplecharacteristics>
									<channelcount>2</channelcount>
								</audio>
							</media>
						</file>
						<logginginfo>
							<description></description>
							<scene></scene>
							<shottake></shottake>
							<lognote></lognote>
							<good></good>
							<originalvideofilename></originalvideofilename>
							<originalaudiofilename></originalaudiofilename>
						</logginginfo>
						<colorinfo>
							<lut></lut>
							<lut1></lut1>
							<asc_sop></asc_sop>
							<asc_sat></asc_sat>
							<lut2></lut2>
						</colorinfo>
						<labels>
							<label2>Iris</label2>
						</labels>
					</clipitem>
					<enabled>TRUE</enabled>
					<locked>FALSE</locked>
				</track>
				<track TL.SQTrackShy="0" TL.SQTrackExpandedHeight="25" TL.SQTrackExpanded="0" MZ.TrackTargeted="0">
					<clipitem id="clipitem-815">
						<masterclipid>masterclip-677</masterclipid>
						<name>wiblo_1_2000-01-02_0758_C0151.mov</name>
						<enabled>TRUE</enabled>
						<duration>1778</duration>
						<rate>
							<timebase>24</timebase>
							<ntsc>TRUE</ntsc>
						</rate>
						<start>38481</start>
						<end>40259</end>
						<in>0</in>
						<out>1778</out>
						<pproTicksIn>0</pproTicksIn>
						<pproTicksOut>18837170352000</pproTicksOut>
						<alphatype>none</alphatype>
						<pixelaspectratio>square</pixelaspectratio>
						<anamorphic>FALSE</anamorphic>
						<file id="file-677">
							<name>wiblo_1_2000-01-02_0758_C0151.mov</name>
							<pathurl>file://localhost/Volumes/aqua/00_Footage/4)%20Wayuu/dream%20tour%20and%20neko%20interview/../rancheria%202/wiblo_1_2000-01-02_0758_C0151.mov</pathurl>
							<rate>
								<timebase>24</timebase>
								<ntsc>TRUE</ntsc>
							</rate>
							<duration>1778</duration>
							<timecode>
								<rate>
									<timebase>24</timebase>
									<ntsc>TRUE</ntsc>
								</rate>
								<string>07:58:14:00</string>
								<frame>688656</frame>
								<displayformat>NDF</displayformat>
							</timecode>
							<media>
								<video>
									<samplecharacteristics>
										<rate>
											<timebase>24</timebase>
											<ntsc>TRUE</ntsc>
										</rate>
										<width>1920</width>
										<height>1080</height>
										<anamorphic>FALSE</anamorphic>
										<pixelaspectratio>square</pixelaspectratio>
										<fielddominance>none</fielddominance>
									</samplecharacteristics>
								</video>
								<audio>
									<samplecharacteristics>
										<depth>16</depth>
										<samplerate>48000</samplerate>
									</samplecharacteristics>
									<channelcount>2</channelcount>
								</audio>
							</media>
						</file>
						<logginginfo>
							<description></description>
							<scene></scene>
							<shottake></shottake>
							<lognote></lognote>
							<good></good>
							<originalvideofilename></originalvideofilename>
							<originalaudiofilename></originalaudiofilename>
						</logginginfo>
						<colorinfo>
							<lut></lut>
							<lut1></lut1>
							<asc_sop></asc_sop>
							<asc_sat></asc_sat>
							<lut2></lut2>
						</colorinfo>
						<labels>
							<label2>Iris</label2>
						</labels>
					</clipitem>
					<clipitem id="clipitem-816">
						<masterclipid>masterclip-678</masterclipid>
						<name>wiblo_1_2000-01-02_0801_C0152.mov</name>
						<enabled>TRUE</enabled>
						<duration>1095</duration>
						<rate>
							<timebase>24</timebase>
							<ntsc>TRUE</ntsc>
						</rate>
						<start>42642</start>
						<end>43737</end>
						<in>0</in>
						<out>1095</out>
						<pproTicksIn>0</pproTicksIn>
						<pproTicksOut>11601069480000</pproTicksOut>
						<alphatype>none</alphatype>
						<pixelaspectratio>square</pixelaspectratio>
						<anamorphic>FALSE</anamorphic>
						<file id="file-678">
							<name>wiblo_1_2000-01-02_0801_C0152.mov</name>
							<pathurl>file://localhost/Volumes/aqua/00_Footage/4)%20Wayuu/dream%20tour%20and%20neko%20interview/../rancheria%202/wiblo_1_2000-01-02_0801_C0152.mov</pathurl>
							<rate>
								<timebase>24</timebase>
								<ntsc>TRUE</ntsc>
							</rate>
							<duration>1095</duration>
							<timecode>
								<rate>
									<timebase>24</timebase>
									<ntsc>TRUE</ntsc>
								</rate>
								<string>08:01:07:00</string>
								<frame>692808</frame>
								<displayformat>NDF</displayformat>
							</timecode>
							<media>
								<video>
									<samplecharacteristics>
										<rate>
											<timebase>24</timebase>
											<ntsc>TRUE</ntsc>
										</rate>
										<width>1920</width>
										<height>1080</height>
										<anamorphic>FALSE</anamorphic>
										<pixelaspectratio>square</pixelaspectratio>
										<fielddominance>none</fielddominance>
									</samplecharacteristics>
								</video>
								<audio>
									<samplecharacteristics>
										<depth>16</depth>
										<samplerate>48000</samplerate>
									</samplecharacteristics>
									<channelcount>2</channelcount>
								</audio>
							</media>
						</file>
						<logginginfo>
							<description></description>
							<scene></scene>
							<shottake></shottake>
							<lognote></lognote>
							<good></good>
							<originalvideofilename></originalvideofilename>
							<originalaudiofilename></originalaudiofilename>
						</logginginfo>
						<colorinfo>
							<lut></lut>
							<lut1></lut1>
							<asc_sop></asc_sop>
							<asc_sat></asc_sat>
							<lut2></lut2>
						</colorinfo>
						<labels>
							<label2>Iris</label2>
						</labels>
					</clipitem>
					<clipitem id="clipitem-817">
						<masterclipid>masterclip-679</masterclipid>
						<name>wiblo_1_2000-01-02_0802_C0153.mov</name>
						<enabled>TRUE</enabled>
						<duration>233</duration>
						<rate>
							<timebase>24</timebase>
							<ntsc>TRUE</ntsc>
						</rate>
						<start>44114</start>
						<end>44347</end>
						<in>0</in>
						<out>233</out>
						<pproTicksIn>0</pproTicksIn>
						<pproTicksOut>2468538072000</pproTicksOut>
						<alphatype>none</alphatype>
						<pixelaspectratio>square</pixelaspectratio>
						<anamorphic>FALSE</anamorphic>
						<file id="file-679">
							<name>wiblo_1_2000-01-02_0802_C0153.mov</name>
							<pathurl>file://localhost/Volumes/aqua/00_Footage/4)%20Wayuu/dream%20tour%20and%20neko%20interview/../rancheria%202/wiblo_1_2000-01-02_0802_C0153.mov</pathurl>
							<rate>
								<timebase>24</timebase>
								<ntsc>TRUE</ntsc>
							</rate>
							<duration>233</duration>
							<timecode>
								<rate>
									<timebase>24</timebase>
									<ntsc>TRUE</ntsc>
								</rate>
								<string>08:02:09:00</string>
								<frame>694296</frame>
								<displayformat>NDF</displayformat>
							</timecode>
							<media>
								<video>
									<samplecharacteristics>
										<rate>
											<timebase>24</timebase>
											<ntsc>TRUE</ntsc>
										</rate>
										<width>1920</width>
										<height>1080</height>
										<anamorphic>FALSE</anamorphic>
										<pixelaspectratio>square</pixelaspectratio>
										<fielddominance>none</fielddominance>
									</samplecharacteristics>
								</video>
								<audio>
									<samplecharacteristics>
										<depth>16</depth>
										<samplerate>48000</samplerate>
									</samplecharacteristics>
									<channelcount>2</channelcount>
								</audio>
							</media>
						</file>
						<logginginfo>
							<description></description>
							<scene></scene>
							<shottake></shottake>
							<lognote></lognote>
							<good></good>
							<originalvideofilename></originalvideofilename>
							<originalaudiofilename></originalaudiofilename>
						</logginginfo>
						<colorinfo>
							<lut></lut>
							<lut1></lut1>
							<asc_sop></asc_sop>
							<asc_sat></asc_sat>
							<lut2></lut2>
						</colorinfo>
						<labels>
							<label2>Iris</label2>
						</labels>
					</clipitem>
					<clipitem id="clipitem-818">
						<masterclipid>masterclip-680</masterclipid>
						<name>wiblo_1_2000-01-02_0802_C0154.mov</name>
						<enabled>TRUE</enabled>
						<duration>3672</duration>
						<rate>
							<timebase>24</timebase>
							<ntsc>TRUE</ntsc>
						</rate>
						<start>44416</start>
						<end>48088</end>
						<in>0</in>
						<out>3672</out>
						<pproTicksIn>0</pproTicksIn>
						<pproTicksOut>38903312448000</pproTicksOut>
						<alphatype>none</alphatype>
						<pixelaspectratio>square</pixelaspectratio>
						<anamorphic>FALSE</anamorphic>
						<file id="file-680">
							<name>wiblo_1_2000-01-02_0802_C0154.mov</name>
							<pathurl>file://localhost/Volumes/aqua/00_Footage/4)%20Wayuu/dream%20tour%20and%20neko%20interview/../rancheria%202/wiblo_1_2000-01-02_0802_C0154.mov</pathurl>
							<rate>
								<timebase>24</timebase>
								<ntsc>TRUE</ntsc>
							</rate>
							<duration>3672</duration>
							<timecode>
								<rate>
									<timebase>24</timebase>
									<ntsc>TRUE</ntsc>
								</rate>
								<string>08:02:21:00</string>
								<frame>694584</frame>
								<displayformat>NDF</displayformat>
							</timecode>
							<media>
								<video>
									<samplecharacteristics>
										<rate>
											<timebase>24</timebase>
											<ntsc>TRUE</ntsc>
										</rate>
										<width>1920</width>
										<height>1080</height>
										<anamorphic>FALSE</anamorphic>
										<pixelaspectratio>square</pixelaspectratio>
										<fielddominance>none</fielddominance>
									</samplecharacteristics>
								</video>
								<audio>
									<samplecharacteristics>
										<depth>16</depth>
										<samplerate>48000</samplerate>
									</samplecharacteristics>
									<channelcount>2</channelcount>
								</audio>
							</media>
						</file>
						<logginginfo>
							<description></description>
							<scene></scene>
							<shottake></shottake>
							<lognote></lognote>
							<good></good>
							<originalvideofilename></originalvideofilename>
							<originalaudiofilename></originalaudiofilename>
						</logginginfo>
						<colorinfo>
							<lut></lut>
							<lut1></lut1>
							<asc_sop></asc_sop>
							<asc_sat></asc_sat>
							<lut2></lut2>
						</colorinfo>
						<labels>
							<label2>Iris</label2>
						</labels>
					</clipitem>
					<enabled>TRUE</enabled>
					<locked>FALSE</locked>
				</track>
				<track TL.SQTrackShy="0" TL.SQTrackExpandedHeight="25" TL.SQTrackExpanded="0" MZ.TrackTargeted="0">
					<clipitem id="clipitem-819">
						<masterclipid>masterclip-681</masterclipid>
						<name>C0295.MP4</name>
						<enabled>TRUE</enabled>
						<duration>6996</duration>
						<rate>
							<timebase>24</timebase>
							<ntsc>TRUE</ntsc>
						</rate>
						<start>743</start>
						<end>7739</end>
						<in>0</in>
						<out>6996</out>
						<pproTicksIn>0</pproTicksIn>
						<pproTicksOut>74119709664000</pproTicksOut>
						<alphatype>none</alphatype>
						<pixelaspectratio>square</pixelaspectratio>
						<anamorphic>FALSE</anamorphic>
						<file id="file-681">
							<name>C0295.MP4</name>
							<pathurl>file://localhost/Volumes/aqua/00_Footage/4)%20Wayuu/sony/sony%20backup%201/C0295.MP4</pathurl>
							<rate>
								<timebase>24</timebase>
								<ntsc>TRUE</ntsc>
							</rate>
							<duration>6996</duration>
							<timecode>
								<rate>
									<timebase>24</timebase>
									<ntsc>TRUE</ntsc>
								</rate>
								<string>02:30:22:12</string>
								<frame>216540</frame>
								<displayformat>NDF</displayformat>
							</timecode>
							<media>
								<video>
									<samplecharacteristics>
										<rate>
											<timebase>24</timebase>
											<ntsc>TRUE</ntsc>
										</rate>
										<width>1920</width>
										<height>1080</height>
										<anamorphic>FALSE</anamorphic>
										<pixelaspectratio>square</pixelaspectratio>
										<fielddominance>none</fielddominance>
									</samplecharacteristics>
								</video>
								<audio>
									<samplecharacteristics>
										<depth>16</depth>
										<samplerate>48000</samplerate>
									</samplecharacteristics>
									<channelcount>2</channelcount>
								</audio>
							</media>
						</file>
						<logginginfo>
							<description></description>
							<scene></scene>
							<shottake></shottake>
							<lognote></lognote>
							<good></good>
							<originalvideofilename></originalvideofilename>
							<originalaudiofilename></originalaudiofilename>
						</logginginfo>
						<colorinfo>
							<lut></lut>
							<lut1></lut1>
							<asc_sop></asc_sop>
							<asc_sat></asc_sat>
							<lut2></lut2>
						</colorinfo>
						<labels>
							<label2>Iris</label2>
						</labels>
					</clipitem>
					<clipitem id="clipitem-820">
						<masterclipid>masterclip-682</masterclipid>
						<name>C0296.MP4</name>
						<enabled>TRUE</enabled>
						<duration>72</duration>
						<rate>
							<timebase>24</timebase>
							<ntsc>TRUE</ntsc>
						</rate>
						<start>8948</start>
						<end>9020</end>
						<in>0</in>
						<out>72</out>
						<pproTicksIn>0</pproTicksIn>
						<pproTicksOut>762810048000</pproTicksOut>
						<alphatype>none</alphatype>
						<pixelaspectratio>square</pixelaspectratio>
						<anamorphic>FALSE</anamorphic>
						<file id="file-682">
							<name>C0296.MP4</name>
							<pathurl>file://localhost/Volumes/aqua/00_Footage/4)%20Wayuu/sony/sony%20backup%201/C0296.MP4</pathurl>
							<rate>
								<timebase>24</timebase>
								<ntsc>TRUE</ntsc>
							</rate>
							<duration>72</duration>
							<timecode>
								<rate>
									<timebase>24</timebase>
									<ntsc>TRUE</ntsc>
								</rate>
								<string>02:35:14:00</string>
								<frame>223536</frame>
								<displayformat>NDF</displayformat>
							</timecode>
							<media>
								<video>
									<samplecharacteristics>
										<rate>
											<timebase>24</timebase>
											<ntsc>TRUE</ntsc>
										</rate>
										<width>1920</width>
										<height>1080</height>
										<anamorphic>FALSE</anamorphic>
										<pixelaspectratio>square</pixelaspectratio>
										<fielddominance>none</fielddominance>
									</samplecharacteristics>
								</video>
								<audio>
									<samplecharacteristics>
										<depth>16</depth>
										<samplerate>48000</samplerate>
									</samplecharacteristics>
									<channelcount>2</channelcount>
								</audio>
							</media>
						</file>
						<logginginfo>
							<description></description>
							<scene></scene>
							<shottake></shottake>
							<lognote></lognote>
							<good></good>
							<originalvideofilename></originalvideofilename>
							<originalaudiofilename></originalaudiofilename>
						</logginginfo>
						<colorinfo>
							<lut></lut>
							<lut1></lut1>
							<asc_sop></asc_sop>
							<asc_sat></asc_sat>
							<lut2></lut2>
						</colorinfo>
						<labels>
							<label2>Iris</label2>
						</labels>
					</clipitem>
					<clipitem id="clipitem-821">
						<masterclipid>masterclip-683</masterclipid>
						<name>C0297.MP4</name>
						<enabled>TRUE</enabled>
						<duration>204</duration>
						<rate>
							<timebase>24</timebase>
							<ntsc>TRUE</ntsc>
						</rate>
						<start>11015</start>
						<end>11219</end>
						<in>0</in>
						<out>204</out>
						<pproTicksIn>0</pproTicksIn>
						<pproTicksOut>2161295136000</pproTicksOut>
						<alphatype>none</alphatype>
						<pixelaspectratio>square</pixelaspectratio>
						<anamorphic>FALSE</anamorphic>
						<file id="file-683">
							<name>C0297.MP4</name>
							<pathurl>file://localhost/Volumes/aqua/00_Footage/4)%20Wayuu/sony/sony%20backup%201/C0297.MP4</pathurl>
							<rate>
								<timebase>24</timebase>
								<ntsc>TRUE</ntsc>
							</rate>
							<duration>204</duration>
							<timecode>
								<rate>
									<timebase>24</timebase>
									<ntsc>TRUE</ntsc>
								</rate>
								<string>02:35:17:00</string>
								<frame>223608</frame>
								<displayformat>NDF</displayformat>
							</timecode>
							<media>
								<video>
									<samplecharacteristics>
										<rate>
											<timebase>24</timebase>
											<ntsc>TRUE</ntsc>
										</rate>
										<width>1920</width>
										<height>1080</height>
										<anamorphic>FALSE</anamorphic>
										<pixelaspectratio>square</pixelaspectratio>
										<fielddominance>none</fielddominance>
									</samplecharacteristics>
								</video>
								<audio>
									<samplecharacteristics>
										<depth>16</depth>
										<samplerate>48000</samplerate>
									</samplecharacteristics>
									<channelcount>2</channelcount>
								</audio>
							</media>
						</file>
						<logginginfo>
							<description></description>
							<scene></scene>
							<shottake></shottake>
							<lognote></lognote>
							<good></good>
							<originalvideofilename></originalvideofilename>
							<originalaudiofilename></originalaudiofilename>
						</logginginfo>
						<colorinfo>
							<lut></lut>
							<lut1></lut1>
							<asc_sop></asc_sop>
							<asc_sat></asc_sat>
							<lut2></lut2>
						</colorinfo>
						<labels>
							<label2>Iris</label2>
						</labels>
					</clipitem>
					<clipitem id="clipitem-822">
						<masterclipid>masterclip-684</masterclipid>
						<name>C0298.MP4</name>
						<enabled>TRUE</enabled>
						<duration>828</duration>
						<rate>
							<timebase>24</timebase>
							<ntsc>TRUE</ntsc>
						</rate>
						<start>11348</start>
						<end>12176</end>
						<in>0</in>
						<out>828</out>
						<pproTicksIn>0</pproTicksIn>
						<pproTicksOut>8772315552000</pproTicksOut>
						<alphatype>none</alphatype>
						<pixelaspectratio>square</pixelaspectratio>
						<anamorphic>FALSE</anamorphic>
						<file id="file-684">
							<name>C0298.MP4</name>
							<pathurl>file://localhost/Volumes/aqua/00_Footage/4)%20Wayuu/sony/sony%20backup%201/C0298.MP4</pathurl>
							<rate>
								<timebase>24</timebase>
								<ntsc>TRUE</ntsc>
							</rate>
							<duration>828</duration>
							<timecode>
								<rate>
									<timebase>24</timebase>
									<ntsc>TRUE</ntsc>
								</rate>
								<string>02:35:25:12</string>
								<frame>223812</frame>
								<displayformat>NDF</displayformat>
							</timecode>
							<media>
								<video>
									<samplecharacteristics>
										<rate>
											<timebase>24</timebase>
											<ntsc>TRUE</ntsc>
										</rate>
										<width>1920</width>
										<height>1080</height>
										<anamorphic>FALSE</anamorphic>
										<pixelaspectratio>square</pixelaspectratio>
										<fielddominance>none</fielddominance>
									</samplecharacteristics>
								</video>
								<audio>
									<samplecharacteristics>
										<depth>16</depth>
										<samplerate>48000</samplerate>
									</samplecharacteristics>
									<channelcount>2</channelcount>
								</audio>
							</media>
						</file>
						<logginginfo>
							<description></description>
							<scene></scene>
							<shottake></shottake>
							<lognote></lognote>
							<good></good>
							<originalvideofilename></originalvideofilename>
							<originalaudiofilename></originalaudiofilename>
						</logginginfo>
						<colorinfo>
							<lut></lut>
							<lut1></lut1>
							<asc_sop></asc_sop>
							<asc_sat></asc_sat>
							<lut2></lut2>
						</colorinfo>
						<labels>
							<label2>Iris</label2>
						</labels>
					</clipitem>
					<clipitem id="clipitem-823">
						<masterclipid>masterclip-685</masterclipid>
						<name>C0299.MP4</name>
						<enabled>TRUE</enabled>
						<duration>756</duration>
						<rate>
							<timebase>24</timebase>
							<ntsc>TRUE</ntsc>
						</rate>
						<start>12895</start>
						<end>13651</end>
						<in>0</in>
						<out>756</out>
						<pproTicksIn>0</pproTicksIn>
						<pproTicksOut>8009505504000</pproTicksOut>
						<alphatype>none</alphatype>
						<pixelaspectratio>square</pixelaspectratio>
						<anamorphic>FALSE</anamorphic>
						<file id="file-685">
							<name>C0299.MP4</name>
							<pathurl>file://localhost/Volumes/aqua/00_Footage/4)%20Wayuu/sony/sony%20backup%201/C0299.MP4</pathurl>
							<rate>
								<timebase>24</timebase>
								<ntsc>TRUE</ntsc>
							</rate>
							<duration>756</duration>
							<timecode>
								<rate>
									<timebase>24</timebase>
									<ntsc>TRUE</ntsc>
								</rate>
								<string>02:36:00:00</string>
								<frame>224640</frame>
								<displayformat>NDF</displayformat>
							</timecode>
							<media>
								<video>
									<samplecharacteristics>
										<rate>
											<timebase>24</timebase>
											<ntsc>TRUE</ntsc>
										</rate>
										<width>1920</width>
										<height>1080</height>
										<anamorphic>FALSE</anamorphic>
										<pixelaspectratio>square</pixelaspectratio>
										<fielddominance>none</fielddominance>
									</samplecharacteristics>
								</video>
								<audio>
									<samplecharacteristics>
										<depth>16</depth>
										<samplerate>48000</samplerate>
									</samplecharacteristics>
									<channelcount>2</channelcount>
								</audio>
							</media>
						</file>
						<logginginfo>
							<description></description>
							<scene></scene>
							<shottake></shottake>
							<lognote></lognote>
							<good></good>
							<originalvideofilename></originalvideofilename>
							<originalaudiofilename></originalaudiofilename>
						</logginginfo>
						<colorinfo>
							<lut></lut>
							<lut1></lut1>
							<asc_sop></asc_sop>
							<asc_sat></asc_sat>
							<lut2></lut2>
						</colorinfo>
						<labels>
							<label2>Iris</label2>
						</labels>
					</clipitem>
					<clipitem id="clipitem-824">
						<masterclipid>masterclip-686</masterclipid>
						<name>C0300.MP4</name>
						<enabled>TRUE</enabled>
						<duration>1032</duration>
						<rate>
							<timebase>24</timebase>
							<ntsc>TRUE</ntsc>
						</rate>
						<start>15092</start>
						<end>16124</end>
						<in>0</in>
						<out>1032</out>
						<pproTicksIn>0</pproTicksIn>
						<pproTicksOut>10933610688000</pproTicksOut>
						<alphatype>none</alphatype>
						<pixelaspectratio>square</pixelaspectratio>
						<anamorphic>FALSE</anamorphic>
						<file id="file-686">
							<name>C0300.MP4</name>
							<pathurl>file://localhost/Volumes/aqua/00_Footage/4)%20Wayuu/sony/sony%20backup%201/C0300.MP4</pathurl>
							<rate>
								<timebase>24</timebase>
								<ntsc>TRUE</ntsc>
							</rate>
							<duration>1032</duration>
							<timecode>
								<rate>
									<timebase>24</timebase>
									<ntsc>TRUE</ntsc>
								</rate>
								<string>02:36:31:12</string>
								<frame>225396</frame>
								<displayformat>NDF</displayformat>
							</timecode>
							<media>
								<video>
									<samplecharacteristics>
										<rate>
											<timebase>24</timebase>
											<ntsc>TRUE</ntsc>
										</rate>
										<width>1920</width>
										<height>1080</height>
										<anamorphic>FALSE</anamorphic>
										<pixelaspectratio>square</pixelaspectratio>
										<fielddominance>none</fielddominance>
									</samplecharacteristics>
								</video>
								<audio>
									<samplecharacteristics>
										<depth>16</depth>
										<samplerate>48000</samplerate>
									</samplecharacteristics>
									<channelcount>2</channelcount>
								</audio>
							</media>
						</file>
						<logginginfo>
							<description></description>
							<scene></scene>
							<shottake></shottake>
							<lognote></lognote>
							<good></good>
							<originalvideofilename></originalvideofilename>
							<originalaudiofilename></originalaudiofilename>
						</logginginfo>
						<colorinfo>
							<lut></lut>
							<lut1></lut1>
							<asc_sop></asc_sop>
							<asc_sat></asc_sat>
							<lut2></lut2>
						</colorinfo>
						<labels>
							<label2>Iris</label2>
						</labels>
					</clipitem>
					<clipitem id="clipitem-825">
						<masterclipid>masterclip-687</masterclipid>
						<name>C0301.MP4</name>
						<enabled>TRUE</enabled>
						<duration>456</duration>
						<rate>
							<timebase>24</timebase>
							<ntsc>TRUE</ntsc>
						</rate>
						<start>16787</start>
						<end>17243</end>
						<in>0</in>
						<out>456</out>
						<pproTicksIn>0</pproTicksIn>
						<pproTicksOut>4831130304000</pproTicksOut>
						<alphatype>none</alphatype>
						<pixelaspectratio>square</pixelaspectratio>
						<anamorphic>FALSE</anamorphic>
						<file id="file-687">
							<name>C0301.MP4</name>
							<pathurl>file://localhost/Volumes/aqua/00_Footage/4)%20Wayuu/sony/sony%20backup%201/C0301.MP4</pathurl>
							<rate>
								<timebase>24</timebase>
								<ntsc>TRUE</ntsc>
							</rate>
							<duration>456</duration>
							<timecode>
								<rate>
									<timebase>24</timebase>
									<ntsc>TRUE</ntsc>
								</rate>
								<string>02:37:14:12</string>
								<frame>226428</frame>
								<displayformat>NDF</displayformat>
							</timecode>
							<media>
								<video>
									<samplecharacteristics>
										<rate>
											<timebase>24</timebase>
											<ntsc>TRUE</ntsc>
										</rate>
										<width>1920</width>
										<height>1080</height>
										<anamorphic>FALSE</anamorphic>
										<pixelaspectratio>square</pixelaspectratio>
										<fielddominance>none</fielddominance>
									</samplecharacteristics>
								</video>
								<audio>
									<samplecharacteristics>
										<depth>16</depth>
										<samplerate>48000</samplerate>
									</samplecharacteristics>
									<channelcount>2</channelcount>
								</audio>
							</media>
						</file>
						<logginginfo>
							<description></description>
							<scene></scene>
							<shottake></shottake>
							<lognote></lognote>
							<good></good>
							<originalvideofilename></originalvideofilename>
							<originalaudiofilename></originalaudiofilename>
						</logginginfo>
						<colorinfo>
							<lut></lut>
							<lut1></lut1>
							<asc_sop></asc_sop>
							<asc_sat></asc_sat>
							<lut2></lut2>
						</colorinfo>
						<labels>
							<label2>Iris</label2>
						</labels>
					</clipitem>
					<clipitem id="clipitem-826">
						<masterclipid>masterclip-688</masterclipid>
						<name>C0302.MP4</name>
						<enabled>TRUE</enabled>
						<duration>1176</duration>
						<rate>
							<timebase>24</timebase>
							<ntsc>TRUE</ntsc>
						</rate>
						<start>18331</start>
						<end>19507</end>
						<in>0</in>
						<out>1176</out>
						<pproTicksIn>0</pproTicksIn>
						<pproTicksOut>12459230784000</pproTicksOut>
						<alphatype>none</alphatype>
						<pixelaspectratio>square</pixelaspectratio>
						<anamorphic>FALSE</anamorphic>
						<file id="file-688">
							<name>C0302.MP4</name>
							<pathurl>file://localhost/Volumes/aqua/00_Footage/4)%20Wayuu/sony/sony%20backup%201/C0302.MP4</pathurl>
							<rate>
								<timebase>24</timebase>
								<ntsc>TRUE</ntsc>
							</rate>
							<duration>1176</duration>
							<timecode>
								<rate>
									<timebase>24</timebase>
									<ntsc>TRUE</ntsc>
								</rate>
								<string>02:37:33:12</string>
								<frame>226884</frame>
								<displayformat>NDF</displayformat>
							</timecode>
							<media>
								<video>
									<samplecharacteristics>
										<rate>
											<timebase>24</timebase>
											<ntsc>TRUE</ntsc>
										</rate>
										<width>1920</width>
										<height>1080</height>
										<anamorphic>FALSE</anamorphic>
										<pixelaspectratio>square</pixelaspectratio>
										<fielddominance>none</fielddominance>
									</samplecharacteristics>
								</video>
								<audio>
									<samplecharacteristics>
										<depth>16</depth>
										<samplerate>48000</samplerate>
									</samplecharacteristics>
									<channelcount>2</channelcount>
								</audio>
							</media>
						</file>
						<logginginfo>
							<description></description>
							<scene></scene>
							<shottake></shottake>
							<lognote></lognote>
							<good></good>
							<originalvideofilename></originalvideofilename>
							<originalaudiofilename></originalaudiofilename>
						</logginginfo>
						<colorinfo>
							<lut></lut>
							<lut1></lut1>
							<asc_sop></asc_sop>
							<asc_sat></asc_sat>
							<lut2></lut2>
						</colorinfo>
						<labels>
							<label2>Iris</label2>
						</labels>
					</clipitem>
					<clipitem id="clipitem-827">
						<masterclipid>masterclip-689</masterclipid>
						<name>C0303.MP4</name>
						<enabled>TRUE</enabled>
						<duration>828</duration>
						<rate>
							<timebase>24</timebase>
							<ntsc>TRUE</ntsc>
						</rate>
						<start>20108</start>
						<end>20936</end>
						<in>0</in>
						<out>828</out>
						<pproTicksIn>0</pproTicksIn>
						<pproTicksOut>8772315552000</pproTicksOut>
						<alphatype>none</alphatype>
						<pixelaspectratio>square</pixelaspectratio>
						<anamorphic>FALSE</anamorphic>
						<file id="file-689">
							<name>C0303.MP4</name>
							<pathurl>file://localhost/Volumes/aqua/00_Footage/4)%20Wayuu/sony/sony%20backup%201/C0303.MP4</pathurl>
							<rate>
								<timebase>24</timebase>
								<ntsc>TRUE</ntsc>
							</rate>
							<duration>828</duration>
							<timecode>
								<rate>
									<timebase>24</timebase>
									<ntsc>TRUE</ntsc>
								</rate>
								<string>02:38:22:12</string>
								<frame>228060</frame>
								<displayformat>NDF</displayformat>
							</timecode>
							<media>
								<video>
									<samplecharacteristics>
										<rate>
											<timebase>24</timebase>
											<ntsc>TRUE</ntsc>
										</rate>
										<width>1920</width>
										<height>1080</height>
										<anamorphic>FALSE</anamorphic>
										<pixelaspectratio>square</pixelaspectratio>
										<fielddominance>none</fielddominance>
									</samplecharacteristics>
								</video>
								<audio>
									<samplecharacteristics>
										<depth>16</depth>
										<samplerate>48000</samplerate>
									</samplecharacteristics>
									<channelcount>2</channelcount>
								</audio>
							</media>
						</file>
						<logginginfo>
							<description></description>
							<scene></scene>
							<shottake></shottake>
							<lognote></lognote>
							<good></good>
							<originalvideofilename></originalvideofilename>
							<originalaudiofilename></originalaudiofilename>
						</logginginfo>
						<colorinfo>
							<lut></lut>
							<lut1></lut1>
							<asc_sop></asc_sop>
							<asc_sat></asc_sat>
							<lut2></lut2>
						</colorinfo>
						<labels>
							<label2>Iris</label2>
						</labels>
					</clipitem>
					<clipitem id="clipitem-828">
						<masterclipid>masterclip-690</masterclipid>
						<name>C0304.MP4</name>
						<enabled>TRUE</enabled>
						<duration>1812</duration>
						<rate>
							<timebase>24</timebase>
							<ntsc>TRUE</ntsc>
						</rate>
						<start>22444</start>
						<end>24256</end>
						<in>0</in>
						<out>1812</out>
						<pproTicksIn>0</pproTicksIn>
						<pproTicksOut>19197386208000</pproTicksOut>
						<alphatype>none</alphatype>
						<pixelaspectratio>square</pixelaspectratio>
						<anamorphic>FALSE</anamorphic>
						<file id="file-690">
							<name>C0304.MP4</name>
							<pathurl>file://localhost/Volumes/aqua/00_Footage/4)%20Wayuu/sony/sony%20backup%201/C0304.MP4</pathurl>
							<rate>
								<timebase>24</timebase>
								<ntsc>TRUE</ntsc>
							</rate>
							<duration>1812</duration>
							<timecode>
								<rate>
									<timebase>24</timebase>
									<ntsc>TRUE</ntsc>
								</rate>
								<string>02:38:57:00</string>
								<frame>228888</frame>
								<displayformat>NDF</displayformat>
							</timecode>
							<media>
								<video>
									<samplecharacteristics>
										<rate>
											<timebase>24</timebase>
											<ntsc>TRUE</ntsc>
										</rate>
										<width>1920</width>
										<height>1080</height>
										<anamorphic>FALSE</anamorphic>
										<pixelaspectratio>square</pixelaspectratio>
										<fielddominance>none</fielddominance>
									</samplecharacteristics>
								</video>
								<audio>
									<samplecharacteristics>
										<depth>16</depth>
										<samplerate>48000</samplerate>
									</samplecharacteristics>
									<channelcount>2</channelcount>
								</audio>
							</media>
						</file>
						<logginginfo>
							<description></description>
							<scene></scene>
							<shottake></shottake>
							<lognote></lognote>
							<good></good>
							<originalvideofilename></originalvideofilename>
							<originalaudiofilename></originalaudiofilename>
						</logginginfo>
						<colorinfo>
							<lut></lut>
							<lut1></lut1>
							<asc_sop></asc_sop>
							<asc_sat></asc_sat>
							<lut2></lut2>
						</colorinfo>
						<labels>
							<label2>Iris</label2>
						</labels>
					</clipitem>
					<clipitem id="clipitem-829">
						<masterclipid>masterclip-691</masterclipid>
						<name>C0305.MP4</name>
						<enabled>TRUE</enabled>
						<duration>384</duration>
						<rate>
							<timebase>24</timebase>
							<ntsc>TRUE</ntsc>
						</rate>
						<start>30940</start>
						<end>31324</end>
						<in>0</in>
						<out>384</out>
						<pproTicksIn>0</pproTicksIn>
						<pproTicksOut>4068320256000</pproTicksOut>
						<alphatype>none</alphatype>
						<pixelaspectratio>square</pixelaspectratio>
						<anamorphic>FALSE</anamorphic>
						<file id="file-691">
							<name>C0305.MP4</name>
							<pathurl>file://localhost/Volumes/aqua/00_Footage/4)%20Wayuu/sony/sony%20backup%201/C0305.MP4</pathurl>
							<rate>
								<timebase>24</timebase>
								<ntsc>TRUE</ntsc>
							</rate>
							<duration>384</duration>
							<timecode>
								<rate>
									<timebase>24</timebase>
									<ntsc>TRUE</ntsc>
								</rate>
								<string>02:40:12:12</string>
								<frame>230700</frame>
								<displayformat>NDF</displayformat>
							</timecode>
							<media>
								<video>
									<samplecharacteristics>
										<rate>
											<timebase>24</timebase>
											<ntsc>TRUE</ntsc>
										</rate>
										<width>1920</width>
										<height>1080</height>
										<anamorphic>FALSE</anamorphic>
										<pixelaspectratio>square</pixelaspectratio>
										<fielddominance>none</fielddominance>
									</samplecharacteristics>
								</video>
								<audio>
									<samplecharacteristics>
										<depth>16</depth>
										<samplerate>48000</samplerate>
									</samplecharacteristics>
									<channelcount>2</channelcount>
								</audio>
							</media>
						</file>
						<logginginfo>
							<description></description>
							<scene></scene>
							<shottake></shottake>
							<lognote></lognote>
							<good></good>
							<originalvideofilename></originalvideofilename>
							<originalaudiofilename></originalaudiofilename>
						</logginginfo>
						<colorinfo>
							<lut></lut>
							<lut1></lut1>
							<asc_sop></asc_sop>
							<asc_sat></asc_sat>
							<lut2></lut2>
						</colorinfo>
						<labels>
							<label2>Iris</label2>
						</labels>
					</clipitem>
					<clipitem id="clipitem-830">
						<masterclipid>masterclip-692</masterclipid>
						<name>C0306.MP4</name>
						<enabled>TRUE</enabled>
						<duration>1620</duration>
						<rate>
							<timebase>24</timebase>
							<ntsc>TRUE</ntsc>
						</rate>
						<start>31624</start>
						<end>33244</end>
						<in>0</in>
						<out>1620</out>
						<pproTicksIn>0</pproTicksIn>
						<pproTicksOut>17163226080000</pproTicksOut>
						<alphatype>none</alphatype>
						<pixelaspectratio>square</pixelaspectratio>
						<anamorphic>FALSE</anamorphic>
						<file id="file-692">
							<name>C0306.MP4</name>
							<pathurl>file://localhost/Volumes/aqua/00_Footage/4)%20Wayuu/sony/sony%20backup%201/C0306.MP4</pathurl>
							<rate>
								<timebase>24</timebase>
								<ntsc>TRUE</ntsc>
							</rate>
							<duration>1620</duration>
							<timecode>
								<rate>
									<timebase>24</timebase>
									<ntsc>TRUE</ntsc>
								</rate>
								<string>02:40:28:12</string>
								<frame>231084</frame>
								<displayformat>NDF</displayformat>
							</timecode>
							<media>
								<video>
									<samplecharacteristics>
										<rate>
											<timebase>24</timebase>
											<ntsc>TRUE</ntsc>
										</rate>
										<width>1920</width>
										<height>1080</height>
										<anamorphic>FALSE</anamorphic>
										<pixelaspectratio>square</pixelaspectratio>
										<fielddominance>none</fielddominance>
									</samplecharacteristics>
								</video>
								<audio>
									<samplecharacteristics>
										<depth>16</depth>
										<samplerate>48000</samplerate>
									</samplecharacteristics>
									<channelcount>2</channelcount>
								</audio>
							</media>
						</file>
						<logginginfo>
							<description></description>
							<scene></scene>
							<shottake></shottake>
							<lognote></lognote>
							<good></good>
							<originalvideofilename></originalvideofilename>
							<originalaudiofilename></originalaudiofilename>
						</logginginfo>
						<colorinfo>
							<lut></lut>
							<lut1></lut1>
							<asc_sop></asc_sop>
							<asc_sat></asc_sat>
							<lut2></lut2>
						</colorinfo>
						<labels>
							<label2>Iris</label2>
						</labels>
					</clipitem>
					<clipitem id="clipitem-831">
						<masterclipid>masterclip-693</masterclipid>
						<name>C0307.MP4</name>
						<enabled>TRUE</enabled>
						<duration>1332</duration>
						<rate>
							<timebase>24</timebase>
							<ntsc>TRUE</ntsc>
						</rate>
						<start>34962</start>
						<end>36294</end>
						<in>0</in>
						<out>1332</out>
						<pproTicksIn>0</pproTicksIn>
						<pproTicksOut>14111985888000</pproTicksOut>
						<alphatype>none</alphatype>
						<pixelaspectratio>square</pixelaspectratio>
						<anamorphic>FALSE</anamorphic>
						<file id="file-693">
							<name>C0307.MP4</name>
							<pathurl>file://localhost/Volumes/aqua/00_Footage/4)%20Wayuu/sony/sony%20backup%201/C0307.MP4</pathurl>
							<rate>
								<timebase>24</timebase>
								<ntsc>TRUE</ntsc>
							</rate>
							<duration>1332</duration>
							<timecode>
								<rate>
									<timebase>24</timebase>
									<ntsc>TRUE</ntsc>
								</rate>
								<string>02:41:36:00</string>
								<frame>232704</frame>
								<displayformat>NDF</displayformat>
							</timecode>
							<media>
								<video>
									<samplecharacteristics>
										<rate>
											<timebase>24</timebase>
											<ntsc>TRUE</ntsc>
										</rate>
										<width>1920</width>
										<height>1080</height>
										<anamorphic>FALSE</anamorphic>
										<pixelaspectratio>square</pixelaspectratio>
										<fielddominance>none</fielddominance>
									</samplecharacteristics>
								</video>
								<audio>
									<samplecharacteristics>
										<depth>16</depth>
										<samplerate>48000</samplerate>
									</samplecharacteristics>
									<channelcount>2</channelcount>
								</audio>
							</media>
						</file>
						<logginginfo>
							<description></description>
							<scene></scene>
							<shottake></shottake>
							<lognote></lognote>
							<good></good>
							<originalvideofilename></originalvideofilename>
							<originalaudiofilename></originalaudiofilename>
						</logginginfo>
						<colorinfo>
							<lut></lut>
							<lut1></lut1>
							<asc_sop></asc_sop>
							<asc_sat></asc_sat>
							<lut2></lut2>
						</colorinfo>
						<labels>
							<label2>Iris</label2>
						</labels>
					</clipitem>
					<clipitem id="clipitem-832">
						<masterclipid>masterclip-694</masterclipid>
						<name>C0308.MP4</name>
						<enabled>TRUE</enabled>
						<duration>804</duration>
						<rate>
							<timebase>24</timebase>
							<ntsc>TRUE</ntsc>
						</rate>
						<start>38386</start>
						<end>39190</end>
						<in>0</in>
						<out>804</out>
						<pproTicksIn>0</pproTicksIn>
						<pproTicksOut>8518045536000</pproTicksOut>
						<alphatype>none</alphatype>
						<pixelaspectratio>square</pixelaspectratio>
						<anamorphic>FALSE</anamorphic>
						<file id="file-694">
							<name>C0308.MP4</name>
							<pathurl>file://localhost/Volumes/aqua/00_Footage/4)%20Wayuu/sony/sony%20backup%201/C0308.MP4</pathurl>
							<rate>
								<timebase>24</timebase>
								<ntsc>TRUE</ntsc>
							</rate>
							<duration>804</duration>
							<timecode>
								<rate>
									<timebase>24</timebase>
									<ntsc>TRUE</ntsc>
								</rate>
								<string>02:42:31:12</string>
								<frame>234036</frame>
								<displayformat>NDF</displayformat>
							</timecode>
							<media>
								<video>
									<samplecharacteristics>
										<rate>
											<timebase>24</timebase>
											<ntsc>TRUE</ntsc>
										</rate>
										<width>1920</width>
										<height>1080</height>
										<anamorphic>FALSE</anamorphic>
										<pixelaspectratio>square</pixelaspectratio>
										<fielddominance>none</fielddominance>
									</samplecharacteristics>
								</video>
								<audio>
									<samplecharacteristics>
										<depth>16</depth>
										<samplerate>48000</samplerate>
									</samplecharacteristics>
									<channelcount>2</channelcount>
								</audio>
							</media>
						</file>
						<logginginfo>
							<description></description>
							<scene></scene>
							<shottake></shottake>
							<lognote></lognote>
							<good></good>
							<originalvideofilename></originalvideofilename>
							<originalaudiofilename></originalaudiofilename>
						</logginginfo>
						<colorinfo>
							<lut></lut>
							<lut1></lut1>
							<asc_sop></asc_sop>
							<asc_sat></asc_sat>
							<lut2></lut2>
						</colorinfo>
						<labels>
							<label2>Iris</label2>
						</labels>
					</clipitem>
					<clipitem id="clipitem-833">
						<masterclipid>masterclip-695</masterclipid>
						<name>C0309.MP4</name>
						<enabled>TRUE</enabled>
						<duration>1104</duration>
						<rate>
							<timebase>24</timebase>
							<ntsc>TRUE</ntsc>
						</rate>
						<start>39278</start>
						<end>40382</end>
						<in>0</in>
						<out>1104</out>
						<pproTicksIn>0</pproTicksIn>
						<pproTicksOut>11696420736000</pproTicksOut>
						<alphatype>none</alphatype>
						<pixelaspectratio>square</pixelaspectratio>
						<anamorphic>FALSE</anamorphic>
						<file id="file-695">
							<name>C0309.MP4</name>
							<pathurl>file://localhost/Volumes/aqua/00_Footage/4)%20Wayuu/sony/sony%20backup%201/C0309.MP4</pathurl>
							<rate>
								<timebase>24</timebase>
								<ntsc>TRUE</ntsc>
							</rate>
							<duration>1104</duration>
							<timecode>
								<rate>
									<timebase>24</timebase>
									<ntsc>TRUE</ntsc>
								</rate>
								<string>02:43:05:00</string>
								<frame>234840</frame>
								<displayformat>NDF</displayformat>
							</timecode>
							<media>
								<video>
									<samplecharacteristics>
										<rate>
											<timebase>24</timebase>
											<ntsc>TRUE</ntsc>
										</rate>
										<width>1920</width>
										<height>1080</height>
										<anamorphic>FALSE</anamorphic>
										<pixelaspectratio>square</pixelaspectratio>
										<fielddominance>none</fielddominance>
									</samplecharacteristics>
								</video>
								<audio>
									<samplecharacteristics>
										<depth>16</depth>
										<samplerate>48000</samplerate>
									</samplecharacteristics>
									<channelcount>2</channelcount>
								</audio>
							</media>
						</file>
						<logginginfo>
							<description></description>
							<scene></scene>
							<shottake></shottake>
							<lognote></lognote>
							<good></good>
							<originalvideofilename></originalvideofilename>
							<originalaudiofilename></originalaudiofilename>
						</logginginfo>
						<colorinfo>
							<lut></lut>
							<lut1></lut1>
							<asc_sop></asc_sop>
							<asc_sat></asc_sat>
							<lut2></lut2>
						</colorinfo>
						<labels>
							<label2>Iris</label2>
						</labels>
					</clipitem>
					<clipitem id="clipitem-834">
						<masterclipid>masterclip-696</masterclipid>
						<name>C0310.MP4</name>
						<enabled>TRUE</enabled>
						<duration>1140</duration>
						<rate>
							<timebase>24</timebase>
							<ntsc>TRUE</ntsc>
						</rate>
						<start>42222</start>
						<end>43362</end>
						<in>0</in>
						<out>1140</out>
						<pproTicksIn>0</pproTicksIn>
						<pproTicksOut>12077825760000</pproTicksOut>
						<alphatype>none</alphatype>
						<pixelaspectratio>square</pixelaspectratio>
						<anamorphic>FALSE</anamorphic>
						<file id="file-696">
							<name>C0310.MP4</name>
							<pathurl>file://localhost/Volumes/aqua/00_Footage/4)%20Wayuu/sony/sony%20backup%201/C0310.MP4</pathurl>
							<rate>
								<timebase>24</timebase>
								<ntsc>TRUE</ntsc>
							</rate>
							<duration>1140</duration>
							<timecode>
								<rate>
									<timebase>24</timebase>
									<ntsc>TRUE</ntsc>
								</rate>
								<string>02:43:51:00</string>
								<frame>235944</frame>
								<displayformat>NDF</displayformat>
							</timecode>
							<media>
								<video>
									<samplecharacteristics>
										<rate>
											<timebase>24</timebase>
											<ntsc>TRUE</ntsc>
										</rate>
										<width>1920</width>
										<height>1080</height>
										<anamorphic>FALSE</anamorphic>
										<pixelaspectratio>square</pixelaspectratio>
										<fielddominance>none</fielddominance>
									</samplecharacteristics>
								</video>
								<audio>
									<samplecharacteristics>
										<depth>16</depth>
										<samplerate>48000</samplerate>
									</samplecharacteristics>
									<channelcount>2</channelcount>
								</audio>
							</media>
						</file>
						<logginginfo>
							<description></description>
							<scene></scene>
							<shottake></shottake>
							<lognote></lognote>
							<good></good>
							<originalvideofilename></originalvideofilename>
							<originalaudiofilename></originalaudiofilename>
						</logginginfo>
						<colorinfo>
							<lut></lut>
							<lut1></lut1>
							<asc_sop></asc_sop>
							<asc_sat></asc_sat>
							<lut2></lut2>
						</colorinfo>
						<labels>
							<label2>Iris</label2>
						</labels>
					</clipitem>
					<clipitem id="clipitem-835">
						<masterclipid>masterclip-697</masterclipid>
						<name>C0311.MP4</name>
						<enabled>TRUE</enabled>
						<duration>564</duration>
						<rate>
							<timebase>24</timebase>
							<ntsc>TRUE</ntsc>
						</rate>
						<start>44202</start>
						<end>44766</end>
						<in>0</in>
						<out>564</out>
						<pproTicksIn>0</pproTicksIn>
						<pproTicksOut>5975345376000</pproTicksOut>
						<alphatype>none</alphatype>
						<pixelaspectratio>square</pixelaspectratio>
						<anamorphic>FALSE</anamorphic>
						<file id="file-697">
							<name>C0311.MP4</name>
							<pathurl>file://localhost/Volumes/aqua/00_Footage/4)%20Wayuu/sony/sony%20backup%201/C0311.MP4</pathurl>
							<rate>
								<timebase>24</timebase>
								<ntsc>TRUE</ntsc>
							</rate>
							<duration>564</duration>
							<timecode>
								<rate>
									<timebase>24</timebase>
									<ntsc>TRUE</ntsc>
								</rate>
								<string>02:44:38:12</string>
								<frame>237084</frame>
								<displayformat>NDF</displayformat>
							</timecode>
							<media>
								<video>
									<samplecharacteristics>
										<rate>
											<timebase>24</timebase>
											<ntsc>TRUE</ntsc>
										</rate>
										<width>1920</width>
										<height>1080</height>
										<anamorphic>FALSE</anamorphic>
										<pixelaspectratio>square</pixelaspectratio>
										<fielddominance>none</fielddominance>
									</samplecharacteristics>
								</video>
								<audio>
									<samplecharacteristics>
										<depth>16</depth>
										<samplerate>48000</samplerate>
									</samplecharacteristics>
									<channelcount>2</channelcount>
								</audio>
							</media>
						</file>
						<logginginfo>
							<description></description>
							<scene></scene>
							<shottake></shottake>
							<lognote></lognote>
							<good></good>
							<originalvideofilename></originalvideofilename>
							<originalaudiofilename></originalaudiofilename>
						</logginginfo>
						<colorinfo>
							<lut></lut>
							<lut1></lut1>
							<asc_sop></asc_sop>
							<asc_sat></asc_sat>
							<lut2></lut2>
						</colorinfo>
						<labels>
							<label2>Iris</label2>
						</labels>
					</clipitem>
					<clipitem id="clipitem-836">
						<masterclipid>masterclip-698</masterclipid>
						<name>C0312.MP4</name>
						<enabled>TRUE</enabled>
						<duration>564</duration>
						<rate>
							<timebase>24</timebase>
							<ntsc>TRUE</ntsc>
						</rate>
						<start>44906</start>
						<end>45470</end>
						<in>0</in>
						<out>564</out>
						<pproTicksIn>0</pproTicksIn>
						<pproTicksOut>5975345376000</pproTicksOut>
						<alphatype>none</alphatype>
						<pixelaspectratio>square</pixelaspectratio>
						<anamorphic>FALSE</anamorphic>
						<file id="file-698">
							<name>C0312.MP4</name>
							<pathurl>file://localhost/Volumes/aqua/00_Footage/4)%20Wayuu/sony/sony%20backup%201/C0312.MP4</pathurl>
							<rate>
								<timebase>24</timebase>
								<ntsc>TRUE</ntsc>
							</rate>
							<duration>564</duration>
							<timecode>
								<rate>
									<timebase>24</timebase>
									<ntsc>TRUE</ntsc>
								</rate>
								<string>02:45:02:00</string>
								<frame>237648</frame>
								<displayformat>NDF</displayformat>
							</timecode>
							<media>
								<video>
									<samplecharacteristics>
										<rate>
											<timebase>24</timebase>
											<ntsc>TRUE</ntsc>
										</rate>
										<width>1920</width>
										<height>1080</height>
										<anamorphic>FALSE</anamorphic>
										<pixelaspectratio>square</pixelaspectratio>
										<fielddominance>none</fielddominance>
									</samplecharacteristics>
								</video>
								<audio>
									<samplecharacteristics>
										<depth>16</depth>
										<samplerate>48000</samplerate>
									</samplecharacteristics>
									<channelcount>2</channelcount>
								</audio>
							</media>
						</file>
						<logginginfo>
							<description></description>
							<scene></scene>
							<shottake></shottake>
							<lognote></lognote>
							<good></good>
							<originalvideofilename></originalvideofilename>
							<originalaudiofilename></originalaudiofilename>
						</logginginfo>
						<colorinfo>
							<lut></lut>
							<lut1></lut1>
							<asc_sop></asc_sop>
							<asc_sat></asc_sat>
							<lut2></lut2>
						</colorinfo>
						<labels>
							<label2>Iris</label2>
						</labels>
					</clipitem>
					<clipitem id="clipitem-837">
						<masterclipid>masterclip-699</masterclipid>
						<name>C0313.MP4</name>
						<enabled>TRUE</enabled>
						<duration>1848</duration>
						<rate>
							<timebase>24</timebase>
							<ntsc>TRUE</ntsc>
						</rate>
						<start>45758</start>
						<end>47606</end>
						<in>0</in>
						<out>1848</out>
						<pproTicksIn>0</pproTicksIn>
						<pproTicksOut>19578791232000</pproTicksOut>
						<alphatype>none</alphatype>
						<pixelaspectratio>square</pixelaspectratio>
						<anamorphic>FALSE</anamorphic>
						<file id="file-699">
							<name>C0313.MP4</name>
							<pathurl>file://localhost/Volumes/aqua/00_Footage/4)%20Wayuu/sony/sony%20backup%201/C0313.MP4</pathurl>
							<rate>
								<timebase>24</timebase>
								<ntsc>TRUE</ntsc>
							</rate>
							<duration>1848</duration>
							<timecode>
								<rate>
									<timebase>24</timebase>
									<ntsc>TRUE</ntsc>
								</rate>
								<string>02:45:25:12</string>
								<frame>238212</frame>
								<displayformat>NDF</displayformat>
							</timecode>
							<media>
								<video>
									<samplecharacteristics>
										<rate>
											<timebase>24</timebase>
											<ntsc>TRUE</ntsc>
										</rate>
										<width>1920</width>
										<height>1080</height>
										<anamorphic>FALSE</anamorphic>
										<pixelaspectratio>square</pixelaspectratio>
										<fielddominance>none</fielddominance>
									</samplecharacteristics>
								</video>
								<audio>
									<samplecharacteristics>
										<depth>16</depth>
										<samplerate>48000</samplerate>
									</samplecharacteristics>
									<channelcount>2</channelcount>
								</audio>
							</media>
						</file>
						<logginginfo>
							<description></description>
							<scene></scene>
							<shottake></shottake>
							<lognote></lognote>
							<good></good>
							<originalvideofilename></originalvideofilename>
							<originalaudiofilename></originalaudiofilename>
						</logginginfo>
						<colorinfo>
							<lut></lut>
							<lut1></lut1>
							<asc_sop></asc_sop>
							<asc_sat></asc_sat>
							<lut2></lut2>
						</colorinfo>
						<labels>
							<label2>Iris</label2>
						</labels>
					</clipitem>
					<clipitem id="clipitem-838">
						<masterclipid>masterclip-700</masterclipid>
						<name>C0314.MP4</name>
						<enabled>TRUE</enabled>
						<duration>252</duration>
						<rate>
							<timebase>24</timebase>
							<ntsc>TRUE</ntsc>
						</rate>
						<start>48774</start>
						<end>49026</end>
						<in>0</in>
						<out>252</out>
						<pproTicksIn>0</pproTicksIn>
						<pproTicksOut>2669835168000</pproTicksOut>
						<alphatype>none</alphatype>
						<pixelaspectratio>square</pixelaspectratio>
						<anamorphic>FALSE</anamorphic>
						<file id="file-700">
							<name>C0314.MP4</name>
							<pathurl>file://localhost/Volumes/aqua/00_Footage/4)%20Wayuu/sony/sony%20backup%201/C0314.MP4</pathurl>
							<rate>
								<timebase>24</timebase>
								<ntsc>TRUE</ntsc>
							</rate>
							<duration>252</duration>
							<timecode>
								<rate>
									<timebase>24</timebase>
									<ntsc>TRUE</ntsc>
								</rate>
								<string>02:46:42:12</string>
								<frame>240060</frame>
								<displayformat>NDF</displayformat>
							</timecode>
							<media>
								<video>
									<samplecharacteristics>
										<rate>
											<timebase>24</timebase>
											<ntsc>TRUE</ntsc>
										</rate>
										<width>1920</width>
										<height>1080</height>
										<anamorphic>FALSE</anamorphic>
										<pixelaspectratio>square</pixelaspectratio>
										<fielddominance>none</fielddominance>
									</samplecharacteristics>
								</video>
								<audio>
									<samplecharacteristics>
										<depth>16</depth>
										<samplerate>48000</samplerate>
									</samplecharacteristics>
									<channelcount>2</channelcount>
								</audio>
							</media>
						</file>
						<logginginfo>
							<description></description>
							<scene></scene>
							<shottake></shottake>
							<lognote></lognote>
							<good></good>
							<originalvideofilename></originalvideofilename>
							<originalaudiofilename></originalaudiofilename>
						</logginginfo>
						<colorinfo>
							<lut></lut>
							<lut1></lut1>
							<asc_sop></asc_sop>
							<asc_sat></asc_sat>
							<lut2></lut2>
						</colorinfo>
						<labels>
							<label2>Iris</label2>
						</labels>
					</clipitem>
					<enabled>TRUE</enabled>
					<locked>FALSE</locked>
				</track>
			</video>
			<audio>
				<numOutputChannels>2</numOutputChannels>
				<format>
					<samplecharacteristics>
						<depth>16</depth>
						<samplerate>48000</samplerate>
					</samplecharacteristics>
				</format>
				<outputs>
					<group>
						<index>1</index>
						<numchannels>1</numchannels>
						<downmix>0</downmix>
						<channel>
							<index>1</index>
						</channel>
					</group>
					<group>
						<index>2</index>
						<numchannels>1</numchannels>
						<downmix>0</downmix>
						<channel>
							<index>2</index>
						</channel>
					</group>
				</outputs>
				<track TL.SQTrackAudioKeyframeStyle="0" TL.SQTrackShy="0" TL.SQTrackExpandedHeight="25" TL.SQTrackExpanded="0" MZ.TrackTargeted="1" PannerCurrentValue="0.5" PannerStartKeyframe="-91445760000000000,0.5,0,0,0,0,0,0" PannerName="Balance" currentExplodedTrackIndex="0" totalExplodedTrackCount="2" premiereTrackType="Stereo">
					<clipitem id="clipitem-839" premiereChannelType="stereo">
						<masterclipid>masterclip-701</masterclipid>
						<name>Neko abuela pinta de cara - clip.mp3</name>
						<enabled>TRUE</enabled>
						<duration>61898</duration>
						<rate>
							<timebase>24</timebase>
							<ntsc>TRUE</ntsc>
						</rate>
						<start>0</start>
						<end>49499</end>
						<in>0</in>
						<out>49499</out>
						<pproTicksIn>0</pproTicksIn>
						<pproTicksOut>524421313416000</pproTicksOut>
						<file id="file-701">
							<name>Neko abuela pinta de cara - clip.mp3</name>
							<pathurl>file://localhost/Users/ben/Downloads/Neko%20abuela%20pinta%20de%20cara%20-%20clip.mp3</pathurl>
							<rate>
								<timebase>30</timebase>
								<ntsc>TRUE</ntsc>
							</rate>
							<duration>61898</duration>
							<timecode>
								<rate>
									<timebase>30</timebase>
									<ntsc>TRUE</ntsc>
								</rate>
								<string>00;00;00;00</string>
								<frame>0</frame>
								<displayformat>DF</displayformat>
							</timecode>
							<media>
								<audio>
									<samplecharacteristics>
										<depth>16</depth>
										<samplerate>48000</samplerate>
									</samplecharacteristics>
									<channelcount>2</channelcount>
								</audio>
							</media>
						</file>
						<sourcetrack>
							<mediatype>audio</mediatype>
							<trackindex>1</trackindex>
						</sourcetrack>
						<filter>
							<effect>
								<name>Audio Levels</name>
								<effectid>audiolevels</effectid>
								<effectcategory>audiolevels</effectcategory>
								<effecttype>audiolevels</effecttype>
								<mediatype>audio</mediatype>
								<pproBypass>false</pproBypass>
								<parameter authoringApp="PremierePro">
									<parameterid>level</parameterid>
									<name>Level</name>
									<valuemin>0</valuemin>
									<valuemax>3.98109</valuemax>
									<value>1</value>
								</parameter>
							</effect>
						</filter>
						<link>
							<linkclipref>clipitem-839</linkclipref>
							<mediatype>audio</mediatype>
							<trackindex>1</trackindex>
							<clipindex>1</clipindex>
							<groupindex>1</groupindex>
						</link>
						<link>
							<linkclipref>clipitem-840</linkclipref>
							<mediatype>audio</mediatype>
							<trackindex>2</trackindex>
							<clipindex>1</clipindex>
							<groupindex>1</groupindex>
						</link>
						<logginginfo>
							<description></description>
							<scene></scene>
							<shottake></shottake>
							<lognote></lognote>
							<good></good>
							<originalvideofilename></originalvideofilename>
							<originalaudiofilename></originalaudiofilename>
						</logginginfo>
						<colorinfo>
							<lut></lut>
							<lut1></lut1>
							<asc_sop></asc_sop>
							<asc_sat></asc_sat>
							<lut2></lut2>
						</colorinfo>
						<labels>
							<label2>Caribbean</label2>
						</labels>
					</clipitem>
					<enabled>TRUE</enabled>
					<locked>FALSE</locked>
					<outputchannelindex>1</outputchannelindex>
				</track>
				<track TL.SQTrackAudioKeyframeStyle="0" TL.SQTrackShy="0" TL.SQTrackExpandedHeight="25" TL.SQTrackExpanded="0" MZ.TrackTargeted="1" PannerCurrentValue="0.5" PannerStartKeyframe="-91445760000000000,0.5,0,0,0,0,0,0" PannerName="Balance" currentExplodedTrackIndex="1" totalExplodedTrackCount="2" premiereTrackType="Stereo">
					<clipitem id="clipitem-840" premiereChannelType="stereo">
						<masterclipid>masterclip-701</masterclipid>
						<name>Neko abuela pinta de cara - clip.mp3</name>
						<enabled>TRUE</enabled>
						<duration>61898</duration>
						<rate>
							<timebase>24</timebase>
							<ntsc>TRUE</ntsc>
						</rate>
						<start>0</start>
						<end>49499</end>
						<in>0</in>
						<out>49499</out>
						<pproTicksIn>0</pproTicksIn>
						<pproTicksOut>524421313416000</pproTicksOut>
						<file id="file-701"/>
						<sourcetrack>
							<mediatype>audio</mediatype>
							<trackindex>2</trackindex>
						</sourcetrack>
						<filter>
							<effect>
								<name>Audio Levels</name>
								<effectid>audiolevels</effectid>
								<effectcategory>audiolevels</effectcategory>
								<effecttype>audiolevels</effecttype>
								<mediatype>audio</mediatype>
								<pproBypass>false</pproBypass>
								<parameter authoringApp="PremierePro">
									<parameterid>level</parameterid>
									<name>Level</name>
									<valuemin>0</valuemin>
									<valuemax>3.98109</valuemax>
									<value>1</value>
								</parameter>
							</effect>
						</filter>
						<link>
							<linkclipref>clipitem-839</linkclipref>
							<mediatype>audio</mediatype>
							<trackindex>1</trackindex>
							<clipindex>1</clipindex>
							<groupindex>1</groupindex>
						</link>
						<link>
							<linkclipref>clipitem-840</linkclipref>
							<mediatype>audio</mediatype>
							<trackindex>2</trackindex>
							<clipindex>1</clipindex>
							<groupindex>1</groupindex>
						</link>
						<logginginfo>
							<description></description>
							<scene></scene>
							<shottake></shottake>
							<lognote></lognote>
							<good></good>
							<originalvideofilename></originalvideofilename>
							<originalaudiofilename></originalaudiofilename>
						</logginginfo>
						<colorinfo>
							<lut></lut>
							<lut1></lut1>
							<asc_sop></asc_sop>
							<asc_sat></asc_sat>
							<lut2></lut2>
						</colorinfo>
						<labels>
							<label2>Caribbean</label2>
						</labels>
					</clipitem>
					<enabled>TRUE</enabled>
					<locked>FALSE</locked>
					<outputchannelindex>2</outputchannelindex>
				</track>
			</audio>
		</media>
		<timecode>
			<rate>
				<timebase>24</timebase>
				<ntsc>TRUE</ntsc>
			</rate>
			<string>00:00:00:00</string>
			<frame>0</frame>
			<displayformat>NDF</displayformat>
		</timecode>
		<labels>
			<label2>Forest</label2>
		</labels>
		<logginginfo>
			<description></description>
			<scene></scene>
			<shottake></shottake>
			<lognote></lognote>
			<good></good>
			<originalvideofilename></originalvideofilename>
			<originalaudiofilename></originalaudiofilename>
		</logginginfo>
	</sequence>
</xmeml>
