<xmeml version="4">
	<sequence id="sequence-1" TL.SQAudioVisibleBase="0" TL.SQVideoVisibleBase="0"
		TL.SQVisibleBaseTime="0" TL.SQAVDividerPosition="0.5" TL.SQHideShyTracks="0"
		TL.SQHeaderWidth="236" Monitor.ProgramZoomOut="81366405120000" Monitor.ProgramZoomIn="0"
		TL.SQTimePerPixel="1.360169851380036" AM.TrackVScrollPosition="0" AM.TrackScrollPosition="0"
		MZ.EditLine="16239378355200" MZ.Sequence.PreviewFrameSizeHeight="1080"
		MZ.Sequence.PreviewFrameSizeWidth="1920" MZ.Sequence.AudioTimeDisplayFormat="200"
		MZ.Sequence.PreviewRenderingClassID="1061109567"
		MZ.Sequence.PreviewRenderingPresetCodec="1634755443"
		MZ.Sequence.PreviewRenderingPresetPath="EncoderPresets\SequencePreview\9678af98-a7b7-4bdb-b477-7ac9c8df4a4e\QuickTime.epr"
		MZ.Sequence.PreviewUseMaxRenderQuality="false" MZ.Sequence.PreviewUseMaxBitDepth="false"
		MZ.Sequence.EditingModeGUID="9678af98-a7b7-4bdb-b477-7ac9c8df4a4e"
		MZ.Sequence.VideoTimeDisplayFormat="107" MZ.WorkOutPoint="81366405120000" MZ.WorkInPoint="0"
		explodedTracks="true">
		<uuid>ca3c151a-4ed9-41f7-8af1-f35ed2483592</uuid>
		<duration>19200</duration>
		<rate>
			<timebase>60</timebase>
			<ntsc>TRUE</ntsc>
		</rate>
		<name>Fortnite NA PlayStation Cup PlayStation Esports Game 1</name>
		<media>
			<video>
				<format>
					<samplecharacteristics>
						<rate>
							<timebase>60</timebase>
							<ntsc>TRUE</ntsc>
						</rate>
						<codec>
							<name>Apple ProRes 422</name>
							<appspecificdata>
								<appname>Final Cut Pro</appname>
								<appmanufacturer>Apple Inc.</appmanufacturer>
								<appversion>7.0</appversion>
								<data>
									<qtcodec>
										<codecname>Apple ProRes 422</codecname>
										<codectypename>Apple ProRes 422</codectypename>
										<codectypecode>apcn</codectypecode>
										<codecvendorcode>appl</codecvendorcode>
										<spatialquality>1024</spatialquality>
										<temporalquality>0</temporalquality>
										<keyframerate>0</keyframerate>
										<datarate>0</datarate>
									</qtcodec>
								</data>
							</appspecificdata>
						</codec>
						<width>1920</width>
						<height>1080</height>
						<anamorphic>FALSE</anamorphic>
						<pixelaspectratio>square</pixelaspectratio>
						<fielddominance>none</fielddominance>
						<colordepth>24</colordepth>
					</samplecharacteristics>
				</format>
				<track TL.SQTrackShy="0" TL.SQTrackExpandedHeight="25" TL.SQTrackExpanded="0"
					MZ.TrackTargeted="1">
					<clipitem id="clipitem-8aeeb92fb5004f3db95dca7354753512">
						<masterclipid>masterclip-1</masterclipid>
						<name>Fortnite NA PlayStation Cup PlayStation Esports Game 1.mp4</name>
						<enabled>TRUE</enabled>
						<duration>19200</duration>
						<rate>
							<timebase>60</timebase>
							<ntsc>TRUE</ntsc>
						</rate>
						<start>0</start>
						<end>15654</end>
						<in>0</in>
						<out>15654</out>
						<pproTicksIn>0</pproTicksIn>
						<pproTicksOut>66339047174400</pproTicksOut>
						<alphatype>none</alphatype>
						<pixelaspectratio>square</pixelaspectratio>
						<anamorphic>FALSE</anamorphic>
						<file id="file-1">
							<name>Fortnite NA PlayStation Cup PlayStation Esports Game 1.mp4</name>
							<pathurl>
								file://localhost/C%3a/Users/yahya/OneDrive/Desktop/Generated%20Art/Twitch/Fortnite%20%20NA%20PlayStation%20Cup%20%20PlayStation%20Esports%20Game%201.mp4</pathurl>
							<rate>
								<timebase>60</timebase>
								<ntsc>TRUE</ntsc>
							</rate>
							<duration>19200</duration>
							<timecode>
								<rate>
									<timebase>60</timebase>
									<ntsc>TRUE</ntsc>
								</rate>
								<string>00:54:36:38</string>
								<frame>196598</frame>
								<displayformat>NDF</displayformat>
							</timecode>
							<media>
								<video>
									<samplecharacteristics>
										<rate>
											<timebase>60</timebase>
											<ntsc>TRUE</ntsc>
										</rate>
										<width>1920</width>
										<height>1080</height>
										<anamorphic>FALSE</anamorphic>
										<pixelaspectratio>square</pixelaspectratio>
										<fielddominance>none</fielddominance>
									</samplecharacteristics>
								</video>
								<audio>
									<samplecharacteristics>
										<depth>16</depth>
										<samplerate>48000</samplerate>
									</samplecharacteristics>
									<channelcount>2</channelcount>
								</audio>
							</media>
						</file>
						<link>
							<linkclipref>clipitem-8aeeb92fb5004f3db95dca7354753512</linkclipref>
							<mediatype>video</mediatype>
							<trackindex>1</trackindex>
							<clipindex>1</clipindex>
						</link>
						<link>
							<linkclipref>clipitem-ab88c43a30e34674bd16449465764169</linkclipref>
							<mediatype>audio</mediatype>
							<trackindex>1</trackindex>
							<clipindex>1</clipindex>
							<groupindex>1</groupindex>
						</link>
						<link>
							<linkclipref>clipitem-ef940e9870184a2da66253dddd8cb60d</linkclipref>
							<mediatype>audio</mediatype>
							<trackindex>2</trackindex>
							<clipindex>1</clipindex>
							<groupindex>1</groupindex>
						</link>
						<logginginfo>
							<description />
							<scene />
							<shottake />
							<lognote />
							<good />
							<originalvideofilename />
							<originalaudiofilename />
						</logginginfo>
						<colorinfo>
							<lut />
							<lut1 />
							<asc_sop />
							<asc_sat />
							<lut2 />
						</colorinfo>
						<labels>
							<label2>Iris</label2>
						</labels>
					</clipitem>
					<clipitem id="clipitem-df07655d604743c6bfa6504f4e04d328">
						<masterclipid>masterclip-1</masterclipid>
						<name>Fortnite NA PlayStation Cup PlayStation Esports Game 1.mp4</name>
						<enabled>TRUE</enabled>
						<duration>19200</duration>
						<rate>
							<timebase>60</timebase>
							<ntsc>TRUE</ntsc>
						</rate>
						<start>16632</start>
						<end>19200</end>
						<in>16632</in>
						<out>19200</out>
						<pproTicksIn>70483648435200</pproTicksIn>
						<pproTicksOut>81366405120000</pproTicksOut>
						<alphatype>none</alphatype>
						<file id="file-1" />
						<link>
							<linkclipref>clipitem-df07655d604743c6bfa6504f4e04d328</linkclipref>
							<mediatype>video</mediatype>
							<trackindex>1</trackindex>
							<clipindex>2</clipindex>
						</link>
						<link>
							<linkclipref>clipitem-720a5fda8ce246f79415d3b8803659bd</linkclipref>
							<mediatype>audio</mediatype>
							<trackindex>1</trackindex>
							<clipindex>2</clipindex>
							<groupindex>1</groupindex>
						</link>
						<link>
							<linkclipref>clipitem-687e747d09f84b73a46403abf6b22a45</linkclipref>
							<mediatype>audio</mediatype>
							<trackindex>2</trackindex>
							<clipindex>2</clipindex>
							<groupindex>1</groupindex>
						</link>
						<logginginfo>
							<description />
							<scene />
							<shottake />
							<lognote />
							<good />
							<originalvideofilename />
							<originalaudiofilename />
						</logginginfo>
						<colorinfo>
							<lut />
							<lut1 />
							<asc_sop />
							<asc_sat />
							<lut2 />
						</colorinfo>
						<labels>
							<label2>Iris</label2>
						</labels>
					</clipitem>
					<enabled>TRUE</enabled>
					<locked>FALSE</locked>
				</track>
				<track TL.SQTrackShy="0" TL.SQTrackExpandedHeight="25" TL.SQTrackExpanded="0"
					MZ.TrackTargeted="0">
					<clipitem id="clipitem-d89e363ddad34770856811e1483f070f">
						<masterclipid>masterclip-1</masterclipid>
						<name>Fortnite NA PlayStation Cup PlayStation Esports Game 1.mp4</name>
						<enabled>TRUE</enabled>
						<duration>19200</duration>
						<rate>
							<timebase>60</timebase>
							<ntsc>TRUE</ntsc>
						</rate>
						<start>978</start>
						<end>1956</end>
						<in>15654</in>
						<out>16632</out>
						<pproTicksIn>66339047174400</pproTicksIn>
						<pproTicksOut>70483648435200</pproTicksOut>
						<alphatype>none</alphatype>
						<file id="file-1" />
						<link>
							<linkclipref>clipitem-d89e363ddad34770856811e1483f070f</linkclipref>
							<mediatype>video</mediatype>
							<trackindex>2</trackindex>
							<clipindex>1</clipindex>
						</link>
						<link>
							<linkclipref>clipitem-cf1baee67e704c2691f7814b1fae37cb</linkclipref>
							<mediatype>audio</mediatype>
							<trackindex>3</trackindex>
							<clipindex>1</clipindex>
							<groupindex>1</groupindex>
						</link>
						<link>
							<linkclipref>clipitem-40da29297c3c4e20b510439c9375613f</linkclipref>
							<mediatype>audio</mediatype>
							<trackindex>4</trackindex>
							<clipindex>1</clipindex>
							<groupindex>1</groupindex>
						</link>
						<logginginfo>
							<description />
							<scene />
							<shottake />
							<lognote />
							<good />
							<originalvideofilename />
							<originalaudiofilename />
						</logginginfo>
						<colorinfo>
							<lut />
							<lut1 />
							<asc_sop />
							<asc_sat />
							<lut2 />
						</colorinfo>
						<labels>
							<label2>Iris</label2>
						</labels>
					</clipitem>
					<clipitem id="clipitem-f9f13ae0e5d646dba054838f79276cc0">
						<masterclipid>masterclip-1</masterclipid>
						<name>Fortnite NA PlayStation Cup PlayStation Esports Game 1.mp4</name>
						<enabled>TRUE</enabled>
						<duration>19200</duration>
						<rate>
							<timebase>60</timebase>
							<ntsc>TRUE</ntsc>
						</rate>
						<start>2364</start>
						<end>3342</end>
						<in>15654</in>
						<out>16632</out>
						<pproTicksIn>66339047174400</pproTicksIn>
						<pproTicksOut>70483648435200</pproTicksOut>
						<alphatype>none</alphatype>
						<file id="file-1" />
						<link>
							<linkclipref>clipitem-f9f13ae0e5d646dba054838f79276cc0</linkclipref>
							<mediatype>video</mediatype>
							<trackindex>2</trackindex>
							<clipindex>2</clipindex>
						</link>
						<link>
							<linkclipref>clipitem-b9b79fd3160c42448a2088b08d548aff</linkclipref>
							<mediatype>audio</mediatype>
							<trackindex>3</trackindex>
							<clipindex>2</clipindex>
							<groupindex>1</groupindex>
						</link>
						<link>
							<linkclipref>clipitem-fd3ce25f598242c0bb21ede9d75ee38e</linkclipref>
							<mediatype>audio</mediatype>
							<trackindex>4</trackindex>
							<clipindex>2</clipindex>
							<groupindex>1</groupindex>
						</link>
						<logginginfo>
							<description />
							<scene />
							<shottake />
							<lognote />
							<good />
							<originalvideofilename />
							<originalaudiofilename />
						</logginginfo>
						<colorinfo>
							<lut />
							<lut1 />
							<asc_sop />
							<asc_sat />
							<lut2 />
						</colorinfo>
						<labels>
							<label2>Iris</label2>
						</labels>
					</clipitem>
					<clipitem id="clipitem-939f5d4486f4439294df7a98ea6be17b">
						<masterclipid>masterclip-1</masterclipid>
						<name>Fortnite NA PlayStation Cup PlayStation Esports Game 1.mp4</name>
						<enabled>TRUE</enabled>
						<duration>19200</duration>
						<rate>
							<timebase>60</timebase>
							<ntsc>TRUE</ntsc>
						</rate>
						<start>3832</start>
						<end>4810</end>
						<in>15654</in>
						<out>16632</out>
						<pproTicksIn>66339047174400</pproTicksIn>
						<pproTicksOut>70483648435200</pproTicksOut>
						<alphatype>none</alphatype>
						<file id="file-1" />
						<link>
							<linkclipref>clipitem-939f5d4486f4439294df7a98ea6be17b</linkclipref>
							<mediatype>video</mediatype>
							<trackindex>2</trackindex>
							<clipindex>3</clipindex>
						</link>
						<link>
							<linkclipref>clipitem-8a42e941adf74edc86d2f96e6c1d4d3d</linkclipref>
							<mediatype>audio</mediatype>
							<trackindex>3</trackindex>
							<clipindex>3</clipindex>
							<groupindex>1</groupindex>
						</link>
						<link>
							<linkclipref>clipitem-12567a9669bd48c89914304fe91d6efe</linkclipref>
							<mediatype>audio</mediatype>
							<trackindex>4</trackindex>
							<clipindex>3</clipindex>
							<groupindex>1</groupindex>
						</link>
						<logginginfo>
							<description />
							<scene />
							<shottake />
							<lognote />
							<good />
							<originalvideofilename />
							<originalaudiofilename />
						</logginginfo>
						<colorinfo>
							<lut />
							<lut1 />
							<asc_sop />
							<asc_sat />
							<lut2 />
						</colorinfo>
						<labels>
							<label2>Iris</label2>
						</labels>
					</clipitem>
					<clipitem id="clipitem-af60c853cdef4be7b8ce54969a76cdc1">
						<masterclipid>masterclip-1</masterclipid>
						<name>Fortnite NA PlayStation Cup PlayStation Esports Game 1.mp4</name>
						<enabled>TRUE</enabled>
						<duration>19200</duration>
						<rate>
							<timebase>60</timebase>
							<ntsc>TRUE</ntsc>
						</rate>
						<start>5544</start>
						<end>6522</end>
						<in>15654</in>
						<out>16632</out>
						<pproTicksIn>66339047174400</pproTicksIn>
						<pproTicksOut>70483648435200</pproTicksOut>
						<alphatype>none</alphatype>
						<file id="file-1" />
						<link>
							<linkclipref>clipitem-af60c853cdef4be7b8ce54969a76cdc1</linkclipref>
							<mediatype>video</mediatype>
							<trackindex>2</trackindex>
							<clipindex>4</clipindex>
						</link>
						<link>
							<linkclipref>clipitem-e80215b38b594fd9ab009ba49b44faf7</linkclipref>
							<mediatype>audio</mediatype>
							<trackindex>3</trackindex>
							<clipindex>4</clipindex>
							<groupindex>1</groupindex>
						</link>
						<link>
							<linkclipref>clipitem-4b6b2f544f2843e8b7876f0204894d19</linkclipref>
							<mediatype>audio</mediatype>
							<trackindex>4</trackindex>
							<clipindex>4</clipindex>
							<groupindex>1</groupindex>
						</link>
						<logginginfo>
							<description />
							<scene />
							<shottake />
							<lognote />
							<good />
							<originalvideofilename />
							<originalaudiofilename />
						</logginginfo>
						<colorinfo>
							<lut />
							<lut1 />
							<asc_sop />
							<asc_sat />
							<lut2 />
						</colorinfo>
						<labels>
							<label2>Iris</label2>
						</labels>
					</clipitem>
					<clipitem id="clipitem-bf05a6385b2e4d8e99986eb8bb4283e9">
						<masterclipid>masterclip-1</masterclipid>
						<name>Fortnite NA PlayStation Cup PlayStation Esports Game 1.mp4</name>
						<enabled>TRUE</enabled>
						<duration>19200</duration>
						<rate>
							<timebase>60</timebase>
							<ntsc>TRUE</ntsc>
						</rate>
						<start>7011</start>
						<end>7989</end>
						<in>15654</in>
						<out>16632</out>
						<pproTicksIn>66339047174400</pproTicksIn>
						<pproTicksOut>70483648435200</pproTicksOut>
						<alphatype>none</alphatype>
						<file id="file-1" />
						<link>
							<linkclipref>clipitem-bf05a6385b2e4d8e99986eb8bb4283e9</linkclipref>
							<mediatype>video</mediatype>
							<trackindex>2</trackindex>
							<clipindex>5</clipindex>
						</link>
						<link>
							<linkclipref>clipitem-1237831bae1e44ad94ac9ec9b80004e0</linkclipref>
							<mediatype>audio</mediatype>
							<trackindex>3</trackindex>
							<clipindex>5</clipindex>
							<groupindex>1</groupindex>
						</link>
						<link>
							<linkclipref>clipitem-1fcf116467f747ae965a8eb86d1fdcde</linkclipref>
							<mediatype>audio</mediatype>
							<trackindex>4</trackindex>
							<clipindex>5</clipindex>
							<groupindex>1</groupindex>
						</link>
						<logginginfo>
							<description />
							<scene />
							<shottake />
							<lognote />
							<good />
							<originalvideofilename />
							<originalaudiofilename />
						</logginginfo>
						<colorinfo>
							<lut />
							<lut1 />
							<asc_sop />
							<asc_sat />
							<lut2 />
						</colorinfo>
						<labels>
							<label2>Iris</label2>
						</labels>
					</clipitem>
					<clipitem id="clipitem-9851695951b3493e85a51adc179258d5">
						<masterclipid>masterclip-1</masterclipid>
						<name>Fortnite NA PlayStation Cup PlayStation Esports Game 1.mp4</name>
						<enabled>TRUE</enabled>
						<duration>19200</duration>
						<rate>
							<timebase>60</timebase>
							<ntsc>TRUE</ntsc>
						</rate>
						<start>7989</start>
						<end>8886</end>
						<in>15735</in>
						<out>16632</out>
						<pproTicksIn>66682311696000</pproTicksIn>
						<pproTicksOut>70483648435200</pproTicksOut>
						<alphatype>none</alphatype>
						<file id="file-1" />
						<link>
							<linkclipref>clipitem-9851695951b3493e85a51adc179258d5</linkclipref>
							<mediatype>video</mediatype>
							<trackindex>2</trackindex>
							<clipindex>6</clipindex>
						</link>
						<link>
							<linkclipref>clipitem-1f65bf110b5643fab8f5b1ebaefbcc23</linkclipref>
							<mediatype>audio</mediatype>
							<trackindex>3</trackindex>
							<clipindex>6</clipindex>
							<groupindex>1</groupindex>
						</link>
						<link>
							<linkclipref>clipitem-b078714bc7174040a08f20b573552133</linkclipref>
							<mediatype>audio</mediatype>
							<trackindex>4</trackindex>
							<clipindex>6</clipindex>
							<groupindex>1</groupindex>
						</link>
						<logginginfo>
							<description />
							<scene />
							<shottake />
							<lognote />
							<good />
							<originalvideofilename />
							<originalaudiofilename />
						</logginginfo>
						<colorinfo>
							<lut />
							<lut1 />
							<asc_sop />
							<asc_sat />
							<lut2 />
						</colorinfo>
						<labels>
							<label2>Iris</label2>
						</labels>
					</clipitem>
					<clipitem id="clipitem-4cea711ce7474849ba68bdb2c902d3c9">
						<masterclipid>masterclip-1</masterclipid>
						<name>Fortnite NA PlayStation Cup PlayStation Esports Game 1.mp4</name>
						<enabled>TRUE</enabled>
						<duration>19200</duration>
						<rate>
							<timebase>60</timebase>
							<ntsc>TRUE</ntsc>
						</rate>
						<start>9620</start>
						<end>10598</end>
						<in>15654</in>
						<out>16632</out>
						<pproTicksIn>66339047174400</pproTicksIn>
						<pproTicksOut>70483648435200</pproTicksOut>
						<alphatype>none</alphatype>
						<file id="file-1" />
						<link>
							<linkclipref>clipitem-4cea711ce7474849ba68bdb2c902d3c9</linkclipref>
							<mediatype>video</mediatype>
							<trackindex>2</trackindex>
							<clipindex>7</clipindex>
						</link>
						<link>
							<linkclipref>clipitem-dc424e14ae3345198250edf2fca991c9</linkclipref>
							<mediatype>audio</mediatype>
							<trackindex>3</trackindex>
							<clipindex>7</clipindex>
							<groupindex>1</groupindex>
						</link>
						<link>
							<linkclipref>clipitem-7a072cfbec084eb1a1d49f18508ec520</linkclipref>
							<mediatype>audio</mediatype>
							<trackindex>4</trackindex>
							<clipindex>7</clipindex>
							<groupindex>1</groupindex>
						</link>
						<logginginfo>
							<description />
							<scene />
							<shottake />
							<lognote />
							<good />
							<originalvideofilename />
							<originalaudiofilename />
						</logginginfo>
						<colorinfo>
							<lut />
							<lut1 />
							<asc_sop />
							<asc_sat />
							<lut2 />
						</colorinfo>
						<labels>
							<label2>Iris</label2>
						</labels>
					</clipitem>
					<clipitem id="clipitem-2ecca098cdbd47dd93e2424a17ea4ce2">
						<masterclipid>masterclip-1</masterclipid>
						<name>Fortnite NA PlayStation Cup PlayStation Esports Game 1.mp4</name>
						<enabled>TRUE</enabled>
						<duration>19200</duration>
						<rate>
							<timebase>60</timebase>
							<ntsc>TRUE</ntsc>
						</rate>
						<start>11006</start>
						<end>11984</end>
						<in>15654</in>
						<out>16632</out>
						<pproTicksIn>66339047174400</pproTicksIn>
						<pproTicksOut>70483648435200</pproTicksOut>
						<alphatype>none</alphatype>
						<file id="file-1" />
						<link>
							<linkclipref>clipitem-2ecca098cdbd47dd93e2424a17ea4ce2</linkclipref>
							<mediatype>video</mediatype>
							<trackindex>2</trackindex>
							<clipindex>8</clipindex>
						</link>
						<link>
							<linkclipref>clipitem-4db3167ff26e415bb58ba937660e2eef</linkclipref>
							<mediatype>audio</mediatype>
							<trackindex>3</trackindex>
							<clipindex>8</clipindex>
							<groupindex>1</groupindex>
						</link>
						<link>
							<linkclipref>clipitem-520cf936003640d3a606732af6ea15af</linkclipref>
							<mediatype>audio</mediatype>
							<trackindex>4</trackindex>
							<clipindex>8</clipindex>
							<groupindex>1</groupindex>
						</link>
						<logginginfo>
							<description />
							<scene />
							<shottake />
							<lognote />
							<good />
							<originalvideofilename />
							<originalaudiofilename />
						</logginginfo>
						<colorinfo>
							<lut />
							<lut1 />
							<asc_sop />
							<asc_sat />
							<lut2 />
						</colorinfo>
						<labels>
							<label2>Iris</label2>
						</labels>
					</clipitem>
					<clipitem id="clipitem-690b52523c284a98a71a9c720e747ac7">
						<masterclipid>masterclip-1</masterclipid>
						<name>Fortnite NA PlayStation Cup PlayStation Esports Game 1.mp4</name>
						<enabled>TRUE</enabled>
						<duration>19200</duration>
						<rate>
							<timebase>60</timebase>
							<ntsc>TRUE</ntsc>
						</rate>
						<start>12474</start>
						<end>13452</end>
						<in>15654</in>
						<out>16632</out>
						<pproTicksIn>66339047174400</pproTicksIn>
						<pproTicksOut>70483648435200</pproTicksOut>
						<alphatype>none</alphatype>
						<file id="file-1" />
						<link>
							<linkclipref>clipitem-690b52523c284a98a71a9c720e747ac7</linkclipref>
							<mediatype>video</mediatype>
							<trackindex>2</trackindex>
							<clipindex>9</clipindex>
						</link>
						<link>
							<linkclipref>clipitem-f3856a3186b84a419f5906ab7d2d7c04</linkclipref>
							<mediatype>audio</mediatype>
							<trackindex>3</trackindex>
							<clipindex>9</clipindex>
							<groupindex>1</groupindex>
						</link>
						<link>
							<linkclipref>clipitem-7626ae8e43154fa3871633cd4d07ffb3</linkclipref>
							<mediatype>audio</mediatype>
							<trackindex>4</trackindex>
							<clipindex>9</clipindex>
							<groupindex>1</groupindex>
						</link>
						<logginginfo>
							<description />
							<scene />
							<shottake />
							<lognote />
							<good />
							<originalvideofilename />
							<originalaudiofilename />
						</logginginfo>
						<colorinfo>
							<lut />
							<lut1 />
							<asc_sop />
							<asc_sat />
							<lut2 />
						</colorinfo>
						<labels>
							<label2>Iris</label2>
						</labels>
					</clipitem>
					<clipitem id="clipitem-3cc3e8e21bf64e76a32e93573e7e9f5c">
						<masterclipid>masterclip-1</masterclipid>
						<name>Fortnite NA PlayStation Cup PlayStation Esports Game 1.mp4</name>
						<enabled>TRUE</enabled>
						<duration>19200</duration>
						<rate>
							<timebase>60</timebase>
							<ntsc>TRUE</ntsc>
						</rate>
						<start>14512</start>
						<end>15490</end>
						<in>15654</in>
						<out>16632</out>
						<pproTicksIn>66339047174400</pproTicksIn>
						<pproTicksOut>70483648435200</pproTicksOut>
						<alphatype>none</alphatype>
						<file id="file-1" />
						<link>
							<linkclipref>clipitem-3cc3e8e21bf64e76a32e93573e7e9f5c</linkclipref>
							<mediatype>video</mediatype>
							<trackindex>2</trackindex>
							<clipindex>10</clipindex>
						</link>
						<link>
							<linkclipref>clipitem-e8b44ecce7744179b6b177bb2e1f8309</linkclipref>
							<mediatype>audio</mediatype>
							<trackindex>3</trackindex>
							<clipindex>10</clipindex>
							<groupindex>1</groupindex>
						</link>
						<link>
							<linkclipref>clipitem-acb2088d959546abb1431632a7881b14</linkclipref>
							<mediatype>audio</mediatype>
							<trackindex>4</trackindex>
							<clipindex>10</clipindex>
							<groupindex>1</groupindex>
						</link>
						<logginginfo>
							<description />
							<scene />
							<shottake />
							<lognote />
							<good />
							<originalvideofilename />
							<originalaudiofilename />
						</logginginfo>
						<colorinfo>
							<lut />
							<lut1 />
							<asc_sop />
							<asc_sat />
							<lut2 />
						</colorinfo>
						<labels>
							<label2>Iris</label2>
						</labels>
					</clipitem>
					<enabled>TRUE</enabled>
					<locked>FALSE</locked>
				</track>
				<track TL.SQTrackShy="0" TL.SQTrackExpandedHeight="25" TL.SQTrackExpanded="0"
					MZ.TrackTargeted="0">
					<enabled>TRUE</enabled>
					<locked>FALSE</locked>
				</track>
			</video>
			<audio>
				<numOutputChannels>2</numOutputChannels>
				<format>
					<samplecharacteristics>
						<depth>16</depth>
						<samplerate>48000</samplerate>
					</samplecharacteristics>
				</format>
				<outputs>
					<group>
						<index>1</index>
						<numchannels>1</numchannels>
						<downmix>0</downmix>
						<channel>
							<index>1</index>
						</channel>
					</group>
					<group>
						<index>2</index>
						<numchannels>1</numchannels>
						<downmix>0</downmix>
						<channel>
							<index>2</index>
						</channel>
					</group>
				</outputs>
				<track TL.SQTrackAudioKeyframeStyle="0" TL.SQTrackShy="0"
					TL.SQTrackExpandedHeight="25" TL.SQTrackExpanded="0" MZ.TrackTargeted="1"
					PannerCurrentValue="0.5" PannerIsInverted="true"
					PannerStartKeyframe="-91445760000000000,0.5,0,0,0,0,0,0" PannerName="Balance"
					currentExplodedTrackIndex="0" totalExplodedTrackCount="2"
					premiereTrackType="Stereo">
					<clipitem id="clipitem-ab88c43a30e34674bd16449465764169"
						premiereChannelType="stereo">
						<masterclipid>masterclip-1</masterclipid>
						<name>Fortnite NA PlayStation Cup PlayStation Esports Game 1.mp4</name>
						<enabled>TRUE</enabled>
						<duration>19200</duration>
						<rate>
							<timebase>60</timebase>
							<ntsc>TRUE</ntsc>
						</rate>
						<start>0</start>
						<end>15654</end>
						<in>0</in>
						<out>15654</out>
						<pproTicksIn>0</pproTicksIn>
						<pproTicksOut>66339047174400</pproTicksOut>
						<file id="file-1" />
						<sourcetrack>
							<mediatype>audio</mediatype>
							<trackindex>1</trackindex>
						</sourcetrack>
						<link>
							<linkclipref>clipitem-8aeeb92fb5004f3db95dca7354753512</linkclipref>
							<mediatype>video</mediatype>
							<trackindex>1</trackindex>
							<clipindex>1</clipindex>
						</link>
						<link>
							<linkclipref>clipitem-ab88c43a30e34674bd16449465764169</linkclipref>
							<mediatype>audio</mediatype>
							<trackindex>1</trackindex>
							<clipindex>1</clipindex>
							<groupindex>1</groupindex>
						</link>
						<link>
							<linkclipref>clipitem-ef940e9870184a2da66253dddd8cb60d</linkclipref>
							<mediatype>audio</mediatype>
							<trackindex>2</trackindex>
							<clipindex>1</clipindex>
							<groupindex>1</groupindex>
						</link>
						<logginginfo>
							<description />
							<scene />
							<shottake />
							<lognote />
							<good />
							<originalvideofilename />
							<originalaudiofilename />
						</logginginfo>
						<colorinfo>
							<lut />
							<lut1 />
							<asc_sop />
							<asc_sat />
							<lut2 />
						</colorinfo>
						<labels>
							<label2>Iris</label2>
						</labels>
					</clipitem>
					<clipitem id="clipitem-720a5fda8ce246f79415d3b8803659bd"
						premiereChannelType="stereo">
						<masterclipid>masterclip-1</masterclipid>
						<name>Fortnite NA PlayStation Cup PlayStation Esports Game 1.mp4</name>
						<enabled>TRUE</enabled>
						<duration>19200</duration>
						<rate>
							<timebase>60</timebase>
							<ntsc>TRUE</ntsc>
						</rate>
						<start>16632</start>
						<end>19200</end>
						<in>16632</in>
						<out>19200</out>
						<pproTicksIn>70483648435200</pproTicksIn>
						<pproTicksOut>81366405120000</pproTicksOut>
						<file id="file-1" />
						<sourcetrack>
							<mediatype>audio</mediatype>
							<trackindex>1</trackindex>
						</sourcetrack>
						<link>
							<linkclipref>clipitem-df07655d604743c6bfa6504f4e04d328</linkclipref>
							<mediatype>video</mediatype>
							<trackindex>1</trackindex>
							<clipindex>2</clipindex>
						</link>
						<link>
							<linkclipref>clipitem-720a5fda8ce246f79415d3b8803659bd</linkclipref>
							<mediatype>audio</mediatype>
							<trackindex>1</trackindex>
							<clipindex>2</clipindex>
							<groupindex>1</groupindex>
						</link>
						<link>
							<linkclipref>clipitem-687e747d09f84b73a46403abf6b22a45</linkclipref>
							<mediatype>audio</mediatype>
							<trackindex>2</trackindex>
							<clipindex>2</clipindex>
							<groupindex>1</groupindex>
						</link>
						<logginginfo>
							<description />
							<scene />
							<shottake />
							<lognote />
							<good />
							<originalvideofilename />
							<originalaudiofilename />
						</logginginfo>
						<colorinfo>
							<lut />
							<lut1 />
							<asc_sop />
							<asc_sat />
							<lut2 />
						</colorinfo>
						<labels>
							<label2>Iris</label2>
						</labels>
					</clipitem>
					<enabled>TRUE</enabled>
					<locked>FALSE</locked>
					<outputchannelindex>1</outputchannelindex>
				</track>
				<track TL.SQTrackAudioKeyframeStyle="0" TL.SQTrackShy="0"
					TL.SQTrackExpandedHeight="25" TL.SQTrackExpanded="0" MZ.TrackTargeted="1"
					PannerCurrentValue="0.5" PannerIsInverted="true"
					PannerStartKeyframe="-91445760000000000,0.5,0,0,0,0,0,0" PannerName="Balance"
					currentExplodedTrackIndex="1" totalExplodedTrackCount="2"
					premiereTrackType="Stereo">
					<clipitem id="clipitem-ef940e9870184a2da66253dddd8cb60d"
						premiereChannelType="stereo">
						<masterclipid>masterclip-1</masterclipid>
						<name>Fortnite NA PlayStation Cup PlayStation Esports Game 1.mp4</name>
						<enabled>TRUE</enabled>
						<duration>19200</duration>
						<rate>
							<timebase>60</timebase>
							<ntsc>TRUE</ntsc>
						</rate>
						<start>0</start>
						<end>15654</end>
						<in>0</in>
						<out>15654</out>
						<pproTicksIn>0</pproTicksIn>
						<pproTicksOut>66339047174400</pproTicksOut>
						<file id="file-1" />
						<sourcetrack>
							<mediatype>audio</mediatype>
							<trackindex>2</trackindex>
						</sourcetrack>
						<link>
							<linkclipref>clipitem-8aeeb92fb5004f3db95dca7354753512</linkclipref>
							<mediatype>video</mediatype>
							<trackindex>1</trackindex>
							<clipindex>1</clipindex>
						</link>
						<link>
							<linkclipref>clipitem-ab88c43a30e34674bd16449465764169</linkclipref>
							<mediatype>audio</mediatype>
							<trackindex>1</trackindex>
							<clipindex>1</clipindex>
							<groupindex>1</groupindex>
						</link>
						<link>
							<linkclipref>clipitem-ef940e9870184a2da66253dddd8cb60d</linkclipref>
							<mediatype>audio</mediatype>
							<trackindex>2</trackindex>
							<clipindex>1</clipindex>
							<groupindex>1</groupindex>
						</link>
						<logginginfo>
							<description />
							<scene />
							<shottake />
							<lognote />
							<good />
							<originalvideofilename />
							<originalaudiofilename />
						</logginginfo>
						<colorinfo>
							<lut />
							<lut1 />
							<asc_sop />
							<asc_sat />
							<lut2 />
						</colorinfo>
						<labels>
							<label2>Iris</label2>
						</labels>
					</clipitem>
					<clipitem id="clipitem-687e747d09f84b73a46403abf6b22a45"
						premiereChannelType="stereo">
						<masterclipid>masterclip-1</masterclipid>
						<name>Fortnite NA PlayStation Cup PlayStation Esports Game 1.mp4</name>
						<enabled>TRUE</enabled>
						<duration>19200</duration>
						<rate>
							<timebase>60</timebase>
							<ntsc>TRUE</ntsc>
						</rate>
						<start>16632</start>
						<end>19200</end>
						<in>16632</in>
						<out>19200</out>
						<pproTicksIn>70483648435200</pproTicksIn>
						<pproTicksOut>81366405120000</pproTicksOut>
						<file id="file-1" />
						<sourcetrack>
							<mediatype>audio</mediatype>
							<trackindex>2</trackindex>
						</sourcetrack>
						<link>
							<linkclipref>clipitem-df07655d604743c6bfa6504f4e04d328</linkclipref>
							<mediatype>video</mediatype>
							<trackindex>1</trackindex>
							<clipindex>2</clipindex>
						</link>
						<link>
							<linkclipref>clipitem-720a5fda8ce246f79415d3b8803659bd</linkclipref>
							<mediatype>audio</mediatype>
							<trackindex>1</trackindex>
							<clipindex>2</clipindex>
							<groupindex>1</groupindex>
						</link>
						<link>
							<linkclipref>clipitem-687e747d09f84b73a46403abf6b22a45</linkclipref>
							<mediatype>audio</mediatype>
							<trackindex>2</trackindex>
							<clipindex>2</clipindex>
							<groupindex>1</groupindex>
						</link>
						<logginginfo>
							<description />
							<scene />
							<shottake />
							<lognote />
							<good />
							<originalvideofilename />
							<originalaudiofilename />
						</logginginfo>
						<colorinfo>
							<lut />
							<lut1 />
							<asc_sop />
							<asc_sat />
							<lut2 />
						</colorinfo>
						<labels>
							<label2>Iris</label2>
						</labels>
					</clipitem>
					<enabled>TRUE</enabled>
					<locked>FALSE</locked>
					<outputchannelindex>2</outputchannelindex>
				</track>
				<track TL.SQTrackAudioKeyframeStyle="0" TL.SQTrackShy="0"
					TL.SQTrackExpandedHeight="25" TL.SQTrackExpanded="0" MZ.TrackTargeted="1"
					PannerCurrentValue="0.5" PannerIsInverted="true"
					PannerStartKeyframe="-91445760000000000,0.5,0,0,0,0,0,0" PannerName="Balance"
					currentExplodedTrackIndex="0" totalExplodedTrackCount="2"
					premiereTrackType="Stereo">
					<clipitem id="clipitem-cf1baee67e704c2691f7814b1fae37cb"
						premiereChannelType="stereo">
						<masterclipid>masterclip-1</masterclipid>
						<name>Fortnite NA PlayStation Cup PlayStation Esports Game 1.mp4</name>
						<enabled>TRUE</enabled>
						<duration>19200</duration>
						<rate>
							<timebase>60</timebase>
							<ntsc>TRUE</ntsc>
						</rate>
						<start>978</start>
						<end>1956</end>
						<in>15654</in>
						<out>16632</out>
						<pproTicksIn>66339047174400</pproTicksIn>
						<pproTicksOut>70483648435200</pproTicksOut>
						<file id="file-1" />
						<sourcetrack>
							<mediatype>audio</mediatype>
							<trackindex>1</trackindex>
						</sourcetrack>
						<link>
							<linkclipref>clipitem-d89e363ddad34770856811e1483f070f</linkclipref>
							<mediatype>video</mediatype>
							<trackindex>2</trackindex>
							<clipindex>1</clipindex>
						</link>
						<link>
							<linkclipref>clipitem-cf1baee67e704c2691f7814b1fae37cb</linkclipref>
							<mediatype>audio</mediatype>
							<trackindex>3</trackindex>
							<clipindex>1</clipindex>
							<groupindex>1</groupindex>
						</link>
						<link>
							<linkclipref>clipitem-40da29297c3c4e20b510439c9375613f</linkclipref>
							<mediatype>audio</mediatype>
							<trackindex>4</trackindex>
							<clipindex>1</clipindex>
							<groupindex>1</groupindex>
						</link>
						<logginginfo>
							<description />
							<scene />
							<shottake />
							<lognote />
							<good />
							<originalvideofilename />
							<originalaudiofilename />
						</logginginfo>
						<colorinfo>
							<lut />
							<lut1 />
							<asc_sop />
							<asc_sat />
							<lut2 />
						</colorinfo>
						<labels>
							<label2>Iris</label2>
						</labels>
					</clipitem>
					<clipitem id="clipitem-b9b79fd3160c42448a2088b08d548aff"
						premiereChannelType="stereo">
						<masterclipid>masterclip-1</masterclipid>
						<name>Fortnite NA PlayStation Cup PlayStation Esports Game 1.mp4</name>
						<enabled>TRUE</enabled>
						<duration>19200</duration>
						<rate>
							<timebase>60</timebase>
							<ntsc>TRUE</ntsc>
						</rate>
						<start>2364</start>
						<end>3342</end>
						<in>15654</in>
						<out>16632</out>
						<pproTicksIn>66339047174400</pproTicksIn>
						<pproTicksOut>70483648435200</pproTicksOut>
						<file id="file-1" />
						<sourcetrack>
							<mediatype>audio</mediatype>
							<trackindex>1</trackindex>
						</sourcetrack>
						<link>
							<linkclipref>clipitem-f9f13ae0e5d646dba054838f79276cc0</linkclipref>
							<mediatype>video</mediatype>
							<trackindex>2</trackindex>
							<clipindex>2</clipindex>
						</link>
						<link>
							<linkclipref>clipitem-b9b79fd3160c42448a2088b08d548aff</linkclipref>
							<mediatype>audio</mediatype>
							<trackindex>3</trackindex>
							<clipindex>2</clipindex>
							<groupindex>1</groupindex>
						</link>
						<link>
							<linkclipref>clipitem-fd3ce25f598242c0bb21ede9d75ee38e</linkclipref>
							<mediatype>audio</mediatype>
							<trackindex>4</trackindex>
							<clipindex>2</clipindex>
							<groupindex>1</groupindex>
						</link>
						<logginginfo>
							<description />
							<scene />
							<shottake />
							<lognote />
							<good />
							<originalvideofilename />
							<originalaudiofilename />
						</logginginfo>
						<colorinfo>
							<lut />
							<lut1 />
							<asc_sop />
							<asc_sat />
							<lut2 />
						</colorinfo>
						<labels>
							<label2>Iris</label2>
						</labels>
					</clipitem>
					<clipitem id="clipitem-8a42e941adf74edc86d2f96e6c1d4d3d"
						premiereChannelType="stereo">
						<masterclipid>masterclip-1</masterclipid>
						<name>Fortnite NA PlayStation Cup PlayStation Esports Game 1.mp4</name>
						<enabled>TRUE</enabled>
						<duration>19200</duration>
						<rate>
							<timebase>60</timebase>
							<ntsc>TRUE</ntsc>
						</rate>
						<start>3832</start>
						<end>4810</end>
						<in>15654</in>
						<out>16632</out>
						<pproTicksIn>66339047174400</pproTicksIn>
						<pproTicksOut>70483648435200</pproTicksOut>
						<file id="file-1" />
						<sourcetrack>
							<mediatype>audio</mediatype>
							<trackindex>1</trackindex>
						</sourcetrack>
						<link>
							<linkclipref>clipitem-939f5d4486f4439294df7a98ea6be17b</linkclipref>
							<mediatype>video</mediatype>
							<trackindex>2</trackindex>
							<clipindex>3</clipindex>
						</link>
						<link>
							<linkclipref>clipitem-8a42e941adf74edc86d2f96e6c1d4d3d</linkclipref>
							<mediatype>audio</mediatype>
							<trackindex>3</trackindex>
							<clipindex>3</clipindex>
							<groupindex>1</groupindex>
						</link>
						<link>
							<linkclipref>clipitem-12567a9669bd48c89914304fe91d6efe</linkclipref>
							<mediatype>audio</mediatype>
							<trackindex>4</trackindex>
							<clipindex>3</clipindex>
							<groupindex>1</groupindex>
						</link>
						<logginginfo>
							<description />
							<scene />
							<shottake />
							<lognote />
							<good />
							<originalvideofilename />
							<originalaudiofilename />
						</logginginfo>
						<colorinfo>
							<lut />
							<lut1 />
							<asc_sop />
							<asc_sat />
							<lut2 />
						</colorinfo>
						<labels>
							<label2>Iris</label2>
						</labels>
					</clipitem>
					<clipitem id="clipitem-e80215b38b594fd9ab009ba49b44faf7"
						premiereChannelType="stereo">
						<masterclipid>masterclip-1</masterclipid>
						<name>Fortnite NA PlayStation Cup PlayStation Esports Game 1.mp4</name>
						<enabled>TRUE</enabled>
						<duration>19200</duration>
						<rate>
							<timebase>60</timebase>
							<ntsc>TRUE</ntsc>
						</rate>
						<start>5544</start>
						<end>6522</end>
						<in>15654</in>
						<out>16632</out>
						<pproTicksIn>66339047174400</pproTicksIn>
						<pproTicksOut>70483648435200</pproTicksOut>
						<file id="file-1" />
						<sourcetrack>
							<mediatype>audio</mediatype>
							<trackindex>1</trackindex>
						</sourcetrack>
						<link>
							<linkclipref>clipitem-af60c853cdef4be7b8ce54969a76cdc1</linkclipref>
							<mediatype>video</mediatype>
							<trackindex>2</trackindex>
							<clipindex>4</clipindex>
						</link>
						<link>
							<linkclipref>clipitem-e80215b38b594fd9ab009ba49b44faf7</linkclipref>
							<mediatype>audio</mediatype>
							<trackindex>3</trackindex>
							<clipindex>4</clipindex>
							<groupindex>1</groupindex>
						</link>
						<link>
							<linkclipref>clipitem-4b6b2f544f2843e8b7876f0204894d19</linkclipref>
							<mediatype>audio</mediatype>
							<trackindex>4</trackindex>
							<clipindex>4</clipindex>
							<groupindex>1</groupindex>
						</link>
						<logginginfo>
							<description />
							<scene />
							<shottake />
							<lognote />
							<good />
							<originalvideofilename />
							<originalaudiofilename />
						</logginginfo>
						<colorinfo>
							<lut />
							<lut1 />
							<asc_sop />
							<asc_sat />
							<lut2 />
						</colorinfo>
						<labels>
							<label2>Iris</label2>
						</labels>
					</clipitem>
					<clipitem id="clipitem-1237831bae1e44ad94ac9ec9b80004e0"
						premiereChannelType="stereo">
						<masterclipid>masterclip-1</masterclipid>
						<name>Fortnite NA PlayStation Cup PlayStation Esports Game 1.mp4</name>
						<enabled>TRUE</enabled>
						<duration>19200</duration>
						<rate>
							<timebase>60</timebase>
							<ntsc>TRUE</ntsc>
						</rate>
						<start>7011</start>
						<end>7989</end>
						<in>15654</in>
						<out>16632</out>
						<pproTicksIn>66339047174400</pproTicksIn>
						<pproTicksOut>70483648435200</pproTicksOut>
						<file id="file-1" />
						<sourcetrack>
							<mediatype>audio</mediatype>
							<trackindex>1</trackindex>
						</sourcetrack>
						<link>
							<linkclipref>clipitem-bf05a6385b2e4d8e99986eb8bb4283e9</linkclipref>
							<mediatype>video</mediatype>
							<trackindex>2</trackindex>
							<clipindex>5</clipindex>
						</link>
						<link>
							<linkclipref>clipitem-1237831bae1e44ad94ac9ec9b80004e0</linkclipref>
							<mediatype>audio</mediatype>
							<trackindex>3</trackindex>
							<clipindex>5</clipindex>
							<groupindex>1</groupindex>
						</link>
						<link>
							<linkclipref>clipitem-1fcf116467f747ae965a8eb86d1fdcde</linkclipref>
							<mediatype>audio</mediatype>
							<trackindex>4</trackindex>
							<clipindex>5</clipindex>
							<groupindex>1</groupindex>
						</link>
						<logginginfo>
							<description />
							<scene />
							<shottake />
							<lognote />
							<good />
							<originalvideofilename />
							<originalaudiofilename />
						</logginginfo>
						<colorinfo>
							<lut />
							<lut1 />
							<asc_sop />
							<asc_sat />
							<lut2 />
						</colorinfo>
						<labels>
							<label2>Iris</label2>
						</labels>
					</clipitem>
					<clipitem id="clipitem-1f65bf110b5643fab8f5b1ebaefbcc23"
						premiereChannelType="stereo">
						<masterclipid>masterclip-1</masterclipid>
						<name>Fortnite NA PlayStation Cup PlayStation Esports Game 1.mp4</name>
						<enabled>TRUE</enabled>
						<duration>19200</duration>
						<rate>
							<timebase>60</timebase>
							<ntsc>TRUE</ntsc>
						</rate>
						<start>7989</start>
						<end>8886</end>
						<in>15735</in>
						<out>16632</out>
						<pproTicksIn>66682311696000</pproTicksIn>
						<pproTicksOut>70483648435200</pproTicksOut>
						<file id="file-1" />
						<sourcetrack>
							<mediatype>audio</mediatype>
							<trackindex>1</trackindex>
						</sourcetrack>
						<link>
							<linkclipref>clipitem-9851695951b3493e85a51adc179258d5</linkclipref>
							<mediatype>video</mediatype>
							<trackindex>2</trackindex>
							<clipindex>6</clipindex>
						</link>
						<link>
							<linkclipref>clipitem-1f65bf110b5643fab8f5b1ebaefbcc23</linkclipref>
							<mediatype>audio</mediatype>
							<trackindex>3</trackindex>
							<clipindex>6</clipindex>
							<groupindex>1</groupindex>
						</link>
						<link>
							<linkclipref>clipitem-b078714bc7174040a08f20b573552133</linkclipref>
							<mediatype>audio</mediatype>
							<trackindex>4</trackindex>
							<clipindex>6</clipindex>
							<groupindex>1</groupindex>
						</link>
						<logginginfo>
							<description />
							<scene />
							<shottake />
							<lognote />
							<good />
							<originalvideofilename />
							<originalaudiofilename />
						</logginginfo>
						<colorinfo>
							<lut />
							<lut1 />
							<asc_sop />
							<asc_sat />
							<lut2 />
						</colorinfo>
						<labels>
							<label2>Iris</label2>
						</labels>
					</clipitem>
					<clipitem id="clipitem-dc424e14ae3345198250edf2fca991c9"
						premiereChannelType="stereo">
						<masterclipid>masterclip-1</masterclipid>
						<name>Fortnite NA PlayStation Cup PlayStation Esports Game 1.mp4</name>
						<enabled>TRUE</enabled>
						<duration>19200</duration>
						<rate>
							<timebase>60</timebase>
							<ntsc>TRUE</ntsc>
						</rate>
						<start>9620</start>
						<end>10598</end>
						<in>15654</in>
						<out>16632</out>
						<pproTicksIn>66339047174400</pproTicksIn>
						<pproTicksOut>70483648435200</pproTicksOut>
						<file id="file-1" />
						<sourcetrack>
							<mediatype>audio</mediatype>
							<trackindex>1</trackindex>
						</sourcetrack>
						<link>
							<linkclipref>clipitem-4cea711ce7474849ba68bdb2c902d3c9</linkclipref>
							<mediatype>video</mediatype>
							<trackindex>2</trackindex>
							<clipindex>7</clipindex>
						</link>
						<link>
							<linkclipref>clipitem-dc424e14ae3345198250edf2fca991c9</linkclipref>
							<mediatype>audio</mediatype>
							<trackindex>3</trackindex>
							<clipindex>7</clipindex>
							<groupindex>1</groupindex>
						</link>
						<link>
							<linkclipref>clipitem-7a072cfbec084eb1a1d49f18508ec520</linkclipref>
							<mediatype>audio</mediatype>
							<trackindex>4</trackindex>
							<clipindex>7</clipindex>
							<groupindex>1</groupindex>
						</link>
						<logginginfo>
							<description />
							<scene />
							<shottake />
							<lognote />
							<good />
							<originalvideofilename />
							<originalaudiofilename />
						</logginginfo>
						<colorinfo>
							<lut />
							<lut1 />
							<asc_sop />
							<asc_sat />
							<lut2 />
						</colorinfo>
						<labels>
							<label2>Iris</label2>
						</labels>
					</clipitem>
					<clipitem id="clipitem-4db3167ff26e415bb58ba937660e2eef"
						premiereChannelType="stereo">
						<masterclipid>masterclip-1</masterclipid>
						<name>Fortnite NA PlayStation Cup PlayStation Esports Game 1.mp4</name>
						<enabled>TRUE</enabled>
						<duration>19200</duration>
						<rate>
							<timebase>60</timebase>
							<ntsc>TRUE</ntsc>
						</rate>
						<start>11006</start>
						<end>11984</end>
						<in>15654</in>
						<out>16632</out>
						<pproTicksIn>66339047174400</pproTicksIn>
						<pproTicksOut>70483648435200</pproTicksOut>
						<file id="file-1" />
						<sourcetrack>
							<mediatype>audio</mediatype>
							<trackindex>1</trackindex>
						</sourcetrack>
						<link>
							<linkclipref>clipitem-2ecca098cdbd47dd93e2424a17ea4ce2</linkclipref>
							<mediatype>video</mediatype>
							<trackindex>2</trackindex>
							<clipindex>8</clipindex>
						</link>
						<link>
							<linkclipref>clipitem-4db3167ff26e415bb58ba937660e2eef</linkclipref>
							<mediatype>audio</mediatype>
							<trackindex>3</trackindex>
							<clipindex>8</clipindex>
							<groupindex>1</groupindex>
						</link>
						<link>
							<linkclipref>clipitem-520cf936003640d3a606732af6ea15af</linkclipref>
							<mediatype>audio</mediatype>
							<trackindex>4</trackindex>
							<clipindex>8</clipindex>
							<groupindex>1</groupindex>
						</link>
						<logginginfo>
							<description />
							<scene />
							<shottake />
							<lognote />
							<good />
							<originalvideofilename />
							<originalaudiofilename />
						</logginginfo>
						<colorinfo>
							<lut />
							<lut1 />
							<asc_sop />
							<asc_sat />
							<lut2 />
						</colorinfo>
						<labels>
							<label2>Iris</label2>
						</labels>
					</clipitem>
					<clipitem id="clipitem-f3856a3186b84a419f5906ab7d2d7c04"
						premiereChannelType="stereo">
						<masterclipid>masterclip-1</masterclipid>
						<name>Fortnite NA PlayStation Cup PlayStation Esports Game 1.mp4</name>
						<enabled>TRUE</enabled>
						<duration>19200</duration>
						<rate>
							<timebase>60</timebase>
							<ntsc>TRUE</ntsc>
						</rate>
						<start>12474</start>
						<end>13452</end>
						<in>15654</in>
						<out>16632</out>
						<pproTicksIn>66339047174400</pproTicksIn>
						<pproTicksOut>70483648435200</pproTicksOut>
						<file id="file-1" />
						<sourcetrack>
							<mediatype>audio</mediatype>
							<trackindex>1</trackindex>
						</sourcetrack>
						<link>
							<linkclipref>clipitem-690b52523c284a98a71a9c720e747ac7</linkclipref>
							<mediatype>video</mediatype>
							<trackindex>2</trackindex>
							<clipindex>9</clipindex>
						</link>
						<link>
							<linkclipref>clipitem-f3856a3186b84a419f5906ab7d2d7c04</linkclipref>
							<mediatype>audio</mediatype>
							<trackindex>3</trackindex>
							<clipindex>9</clipindex>
							<groupindex>1</groupindex>
						</link>
						<link>
							<linkclipref>clipitem-7626ae8e43154fa3871633cd4d07ffb3</linkclipref>
							<mediatype>audio</mediatype>
							<trackindex>4</trackindex>
							<clipindex>9</clipindex>
							<groupindex>1</groupindex>
						</link>
						<logginginfo>
							<description />
							<scene />
							<shottake />
							<lognote />
							<good />
							<originalvideofilename />
							<originalaudiofilename />
						</logginginfo>
						<colorinfo>
							<lut />
							<lut1 />
							<asc_sop />
							<asc_sat />
							<lut2 />
						</colorinfo>
						<labels>
							<label2>Iris</label2>
						</labels>
					</clipitem>
					<clipitem id="clipitem-e8b44ecce7744179b6b177bb2e1f8309"
						premiereChannelType="stereo">
						<masterclipid>masterclip-1</masterclipid>
						<name>Fortnite NA PlayStation Cup PlayStation Esports Game 1.mp4</name>
						<enabled>TRUE</enabled>
						<duration>19200</duration>
						<rate>
							<timebase>60</timebase>
							<ntsc>TRUE</ntsc>
						</rate>
						<start>14512</start>
						<end>15490</end>
						<in>15654</in>
						<out>16632</out>
						<pproTicksIn>66339047174400</pproTicksIn>
						<pproTicksOut>70483648435200</pproTicksOut>
						<file id="file-1" />
						<sourcetrack>
							<mediatype>audio</mediatype>
							<trackindex>1</trackindex>
						</sourcetrack>
						<link>
							<linkclipref>clipitem-3cc3e8e21bf64e76a32e93573e7e9f5c</linkclipref>
							<mediatype>video</mediatype>
							<trackindex>2</trackindex>
							<clipindex>10</clipindex>
						</link>
						<link>
							<linkclipref>clipitem-e8b44ecce7744179b6b177bb2e1f8309</linkclipref>
							<mediatype>audio</mediatype>
							<trackindex>3</trackindex>
							<clipindex>10</clipindex>
							<groupindex>1</groupindex>
						</link>
						<link>
							<linkclipref>clipitem-acb2088d959546abb1431632a7881b14</linkclipref>
							<mediatype>audio</mediatype>
							<trackindex>4</trackindex>
							<clipindex>10</clipindex>
							<groupindex>1</groupindex>
						</link>
						<logginginfo>
							<description />
							<scene />
							<shottake />
							<lognote />
							<good />
							<originalvideofilename />
							<originalaudiofilename />
						</logginginfo>
						<colorinfo>
							<lut />
							<lut1 />
							<asc_sop />
							<asc_sat />
							<lut2 />
						</colorinfo>
						<labels>
							<label2>Iris</label2>
						</labels>
					</clipitem>
					<enabled>TRUE</enabled>
					<locked>FALSE</locked>
					<outputchannelindex>1</outputchannelindex>
				</track>
				<track TL.SQTrackAudioKeyframeStyle="0" TL.SQTrackShy="0"
					TL.SQTrackExpandedHeight="25" TL.SQTrackExpanded="0" MZ.TrackTargeted="1"
					PannerCurrentValue="0.5" PannerIsInverted="true"
					PannerStartKeyframe="-91445760000000000,0.5,0,0,0,0,0,0" PannerName="Balance"
					currentExplodedTrackIndex="1" totalExplodedTrackCount="2"
					premiereTrackType="Stereo">
					<clipitem id="clipitem-40da29297c3c4e20b510439c9375613f"
						premiereChannelType="stereo">
						<masterclipid>masterclip-1</masterclipid>
						<name>Fortnite NA PlayStation Cup PlayStation Esports Game 1.mp4</name>
						<enabled>TRUE</enabled>
						<duration>19200</duration>
						<rate>
							<timebase>60</timebase>
							<ntsc>TRUE</ntsc>
						</rate>
						<start>978</start>
						<end>1956</end>
						<in>15654</in>
						<out>16632</out>
						<pproTicksIn>66339047174400</pproTicksIn>
						<pproTicksOut>70483648435200</pproTicksOut>
						<file id="file-1" />
						<sourcetrack>
							<mediatype>audio</mediatype>
							<trackindex>2</trackindex>
						</sourcetrack>
						<link>
							<linkclipref>clipitem-d89e363ddad34770856811e1483f070f</linkclipref>
							<mediatype>video</mediatype>
							<trackindex>2</trackindex>
							<clipindex>1</clipindex>
						</link>
						<link>
							<linkclipref>clipitem-cf1baee67e704c2691f7814b1fae37cb</linkclipref>
							<mediatype>audio</mediatype>
							<trackindex>3</trackindex>
							<clipindex>1</clipindex>
							<groupindex>1</groupindex>
						</link>
						<link>
							<linkclipref>clipitem-40da29297c3c4e20b510439c9375613f</linkclipref>
							<mediatype>audio</mediatype>
							<trackindex>4</trackindex>
							<clipindex>1</clipindex>
							<groupindex>1</groupindex>
						</link>
						<logginginfo>
							<description />
							<scene />
							<shottake />
							<lognote />
							<good />
							<originalvideofilename />
							<originalaudiofilename />
						</logginginfo>
						<colorinfo>
							<lut />
							<lut1 />
							<asc_sop />
							<asc_sat />
							<lut2 />
						</colorinfo>
						<labels>
							<label2>Iris</label2>
						</labels>
					</clipitem>
					<clipitem id="clipitem-fd3ce25f598242c0bb21ede9d75ee38e"
						premiereChannelType="stereo">
						<masterclipid>masterclip-1</masterclipid>
						<name>Fortnite NA PlayStation Cup PlayStation Esports Game 1.mp4</name>
						<enabled>TRUE</enabled>
						<duration>19200</duration>
						<rate>
							<timebase>60</timebase>
							<ntsc>TRUE</ntsc>
						</rate>
						<start>2364</start>
						<end>3342</end>
						<in>15654</in>
						<out>16632</out>
						<pproTicksIn>66339047174400</pproTicksIn>
						<pproTicksOut>70483648435200</pproTicksOut>
						<file id="file-1" />
						<sourcetrack>
							<mediatype>audio</mediatype>
							<trackindex>2</trackindex>
						</sourcetrack>
						<link>
							<linkclipref>clipitem-f9f13ae0e5d646dba054838f79276cc0</linkclipref>
							<mediatype>video</mediatype>
							<trackindex>2</trackindex>
							<clipindex>2</clipindex>
						</link>
						<link>
							<linkclipref>clipitem-b9b79fd3160c42448a2088b08d548aff</linkclipref>
							<mediatype>audio</mediatype>
							<trackindex>3</trackindex>
							<clipindex>2</clipindex>
							<groupindex>1</groupindex>
						</link>
						<link>
							<linkclipref>clipitem-fd3ce25f598242c0bb21ede9d75ee38e</linkclipref>
							<mediatype>audio</mediatype>
							<trackindex>4</trackindex>
							<clipindex>2</clipindex>
							<groupindex>1</groupindex>
						</link>
						<logginginfo>
							<description />
							<scene />
							<shottake />
							<lognote />
							<good />
							<originalvideofilename />
							<originalaudiofilename />
						</logginginfo>
						<colorinfo>
							<lut />
							<lut1 />
							<asc_sop />
							<asc_sat />
							<lut2 />
						</colorinfo>
						<labels>
							<label2>Iris</label2>
						</labels>
					</clipitem>
					<clipitem id="clipitem-12567a9669bd48c89914304fe91d6efe"
						premiereChannelType="stereo">
						<masterclipid>masterclip-1</masterclipid>
						<name>Fortnite NA PlayStation Cup PlayStation Esports Game 1.mp4</name>
						<enabled>TRUE</enabled>
						<duration>19200</duration>
						<rate>
							<timebase>60</timebase>
							<ntsc>TRUE</ntsc>
						</rate>
						<start>3832</start>
						<end>4810</end>
						<in>15654</in>
						<out>16632</out>
						<pproTicksIn>66339047174400</pproTicksIn>
						<pproTicksOut>70483648435200</pproTicksOut>
						<file id="file-1" />
						<sourcetrack>
							<mediatype>audio</mediatype>
							<trackindex>2</trackindex>
						</sourcetrack>
						<link>
							<linkclipref>clipitem-939f5d4486f4439294df7a98ea6be17b</linkclipref>
							<mediatype>video</mediatype>
							<trackindex>2</trackindex>
							<clipindex>3</clipindex>
						</link>
						<link>
							<linkclipref>clipitem-8a42e941adf74edc86d2f96e6c1d4d3d</linkclipref>
							<mediatype>audio</mediatype>
							<trackindex>3</trackindex>
							<clipindex>3</clipindex>
							<groupindex>1</groupindex>
						</link>
						<link>
							<linkclipref>clipitem-12567a9669bd48c89914304fe91d6efe</linkclipref>
							<mediatype>audio</mediatype>
							<trackindex>4</trackindex>
							<clipindex>3</clipindex>
							<groupindex>1</groupindex>
						</link>
						<logginginfo>
							<description />
							<scene />
							<shottake />
							<lognote />
							<good />
							<originalvideofilename />
							<originalaudiofilename />
						</logginginfo>
						<colorinfo>
							<lut />
							<lut1 />
							<asc_sop />
							<asc_sat />
							<lut2 />
						</colorinfo>
						<labels>
							<label2>Iris</label2>
						</labels>
					</clipitem>
					<clipitem id="clipitem-4b6b2f544f2843e8b7876f0204894d19"
						premiereChannelType="stereo">
						<masterclipid>masterclip-1</masterclipid>
						<name>Fortnite NA PlayStation Cup PlayStation Esports Game 1.mp4</name>
						<enabled>TRUE</enabled>
						<duration>19200</duration>
						<rate>
							<timebase>60</timebase>
							<ntsc>TRUE</ntsc>
						</rate>
						<start>5544</start>
						<end>6522</end>
						<in>15654</in>
						<out>16632</out>
						<pproTicksIn>66339047174400</pproTicksIn>
						<pproTicksOut>70483648435200</pproTicksOut>
						<file id="file-1" />
						<sourcetrack>
							<mediatype>audio</mediatype>
							<trackindex>2</trackindex>
						</sourcetrack>
						<link>
							<linkclipref>clipitem-af60c853cdef4be7b8ce54969a76cdc1</linkclipref>
							<mediatype>video</mediatype>
							<trackindex>2</trackindex>
							<clipindex>4</clipindex>
						</link>
						<link>
							<linkclipref>clipitem-e80215b38b594fd9ab009ba49b44faf7</linkclipref>
							<mediatype>audio</mediatype>
							<trackindex>3</trackindex>
							<clipindex>4</clipindex>
							<groupindex>1</groupindex>
						</link>
						<link>
							<linkclipref>clipitem-4b6b2f544f2843e8b7876f0204894d19</linkclipref>
							<mediatype>audio</mediatype>
							<trackindex>4</trackindex>
							<clipindex>4</clipindex>
							<groupindex>1</groupindex>
						</link>
						<logginginfo>
							<description />
							<scene />
							<shottake />
							<lognote />
							<good />
							<originalvideofilename />
							<originalaudiofilename />
						</logginginfo>
						<colorinfo>
							<lut />
							<lut1 />
							<asc_sop />
							<asc_sat />
							<lut2 />
						</colorinfo>
						<labels>
							<label2>Iris</label2>
						</labels>
					</clipitem>
					<clipitem id="clipitem-1fcf116467f747ae965a8eb86d1fdcde"
						premiereChannelType="stereo">
						<masterclipid>masterclip-1</masterclipid>
						<name>Fortnite NA PlayStation Cup PlayStation Esports Game 1.mp4</name>
						<enabled>TRUE</enabled>
						<duration>19200</duration>
						<rate>
							<timebase>60</timebase>
							<ntsc>TRUE</ntsc>
						</rate>
						<start>7011</start>
						<end>7989</end>
						<in>15654</in>
						<out>16632</out>
						<pproTicksIn>66339047174400</pproTicksIn>
						<pproTicksOut>70483648435200</pproTicksOut>
						<file id="file-1" />
						<sourcetrack>
							<mediatype>audio</mediatype>
							<trackindex>2</trackindex>
						</sourcetrack>
						<link>
							<linkclipref>clipitem-bf05a6385b2e4d8e99986eb8bb4283e9</linkclipref>
							<mediatype>video</mediatype>
							<trackindex>2</trackindex>
							<clipindex>5</clipindex>
						</link>
						<link>
							<linkclipref>clipitem-1237831bae1e44ad94ac9ec9b80004e0</linkclipref>
							<mediatype>audio</mediatype>
							<trackindex>3</trackindex>
							<clipindex>5</clipindex>
							<groupindex>1</groupindex>
						</link>
						<link>
							<linkclipref>clipitem-1fcf116467f747ae965a8eb86d1fdcde</linkclipref>
							<mediatype>audio</mediatype>
							<trackindex>4</trackindex>
							<clipindex>5</clipindex>
							<groupindex>1</groupindex>
						</link>
						<logginginfo>
							<description />
							<scene />
							<shottake />
							<lognote />
							<good />
							<originalvideofilename />
							<originalaudiofilename />
						</logginginfo>
						<colorinfo>
							<lut />
							<lut1 />
							<asc_sop />
							<asc_sat />
							<lut2 />
						</colorinfo>
						<labels>
							<label2>Iris</label2>
						</labels>
					</clipitem>
					<clipitem id="clipitem-b078714bc7174040a08f20b573552133"
						premiereChannelType="stereo">
						<masterclipid>masterclip-1</masterclipid>
						<name>Fortnite NA PlayStation Cup PlayStation Esports Game 1.mp4</name>
						<enabled>TRUE</enabled>
						<duration>19200</duration>
						<rate>
							<timebase>60</timebase>
							<ntsc>TRUE</ntsc>
						</rate>
						<start>7989</start>
						<end>8886</end>
						<in>15735</in>
						<out>16632</out>
						<pproTicksIn>66682311696000</pproTicksIn>
						<pproTicksOut>70483648435200</pproTicksOut>
						<file id="file-1" />
						<sourcetrack>
							<mediatype>audio</mediatype>
							<trackindex>2</trackindex>
						</sourcetrack>
						<link>
							<linkclipref>clipitem-9851695951b3493e85a51adc179258d5</linkclipref>
							<mediatype>video</mediatype>
							<trackindex>2</trackindex>
							<clipindex>6</clipindex>
						</link>
						<link>
							<linkclipref>clipitem-1f65bf110b5643fab8f5b1ebaefbcc23</linkclipref>
							<mediatype>audio</mediatype>
							<trackindex>3</trackindex>
							<clipindex>6</clipindex>
							<groupindex>1</groupindex>
						</link>
						<link>
							<linkclipref>clipitem-b078714bc7174040a08f20b573552133</linkclipref>
							<mediatype>audio</mediatype>
							<trackindex>4</trackindex>
							<clipindex>6</clipindex>
							<groupindex>1</groupindex>
						</link>
						<logginginfo>
							<description />
							<scene />
							<shottake />
							<lognote />
							<good />
							<originalvideofilename />
							<originalaudiofilename />
						</logginginfo>
						<colorinfo>
							<lut />
							<lut1 />
							<asc_sop />
							<asc_sat />
							<lut2 />
						</colorinfo>
						<labels>
							<label2>Iris</label2>
						</labels>
					</clipitem>
					<clipitem id="clipitem-7a072cfbec084eb1a1d49f18508ec520"
						premiereChannelType="stereo">
						<masterclipid>masterclip-1</masterclipid>
						<name>Fortnite NA PlayStation Cup PlayStation Esports Game 1.mp4</name>
						<enabled>TRUE</enabled>
						<duration>19200</duration>
						<rate>
							<timebase>60</timebase>
							<ntsc>TRUE</ntsc>
						</rate>
						<start>9620</start>
						<end>10598</end>
						<in>15654</in>
						<out>16632</out>
						<pproTicksIn>66339047174400</pproTicksIn>
						<pproTicksOut>70483648435200</pproTicksOut>
						<file id="file-1" />
						<sourcetrack>
							<mediatype>audio</mediatype>
							<trackindex>2</trackindex>
						</sourcetrack>
						<link>
							<linkclipref>clipitem-4cea711ce7474849ba68bdb2c902d3c9</linkclipref>
							<mediatype>video</mediatype>
							<trackindex>2</trackindex>
							<clipindex>7</clipindex>
						</link>
						<link>
							<linkclipref>clipitem-dc424e14ae3345198250edf2fca991c9</linkclipref>
							<mediatype>audio</mediatype>
							<trackindex>3</trackindex>
							<clipindex>7</clipindex>
							<groupindex>1</groupindex>
						</link>
						<link>
							<linkclipref>clipitem-7a072cfbec084eb1a1d49f18508ec520</linkclipref>
							<mediatype>audio</mediatype>
							<trackindex>4</trackindex>
							<clipindex>7</clipindex>
							<groupindex>1</groupindex>
						</link>
						<logginginfo>
							<description />
							<scene />
							<shottake />
							<lognote />
							<good />
							<originalvideofilename />
							<originalaudiofilename />
						</logginginfo>
						<colorinfo>
							<lut />
							<lut1 />
							<asc_sop />
							<asc_sat />
							<lut2 />
						</colorinfo>
						<labels>
							<label2>Iris</label2>
						</labels>
					</clipitem>
					<clipitem id="clipitem-520cf936003640d3a606732af6ea15af"
						premiereChannelType="stereo">
						<masterclipid>masterclip-1</masterclipid>
						<name>Fortnite NA PlayStation Cup PlayStation Esports Game 1.mp4</name>
						<enabled>TRUE</enabled>
						<duration>19200</duration>
						<rate>
							<timebase>60</timebase>
							<ntsc>TRUE</ntsc>
						</rate>
						<start>11006</start>
						<end>11984</end>
						<in>15654</in>
						<out>16632</out>
						<pproTicksIn>66339047174400</pproTicksIn>
						<pproTicksOut>70483648435200</pproTicksOut>
						<file id="file-1" />
						<sourcetrack>
							<mediatype>audio</mediatype>
							<trackindex>2</trackindex>
						</sourcetrack>
						<link>
							<linkclipref>clipitem-2ecca098cdbd47dd93e2424a17ea4ce2</linkclipref>
							<mediatype>video</mediatype>
							<trackindex>2</trackindex>
							<clipindex>8</clipindex>
						</link>
						<link>
							<linkclipref>clipitem-4db3167ff26e415bb58ba937660e2eef</linkclipref>
							<mediatype>audio</mediatype>
							<trackindex>3</trackindex>
							<clipindex>8</clipindex>
							<groupindex>1</groupindex>
						</link>
						<link>
							<linkclipref>clipitem-520cf936003640d3a606732af6ea15af</linkclipref>
							<mediatype>audio</mediatype>
							<trackindex>4</trackindex>
							<clipindex>8</clipindex>
							<groupindex>1</groupindex>
						</link>
						<logginginfo>
							<description />
							<scene />
							<shottake />
							<lognote />
							<good />
							<originalvideofilename />
							<originalaudiofilename />
						</logginginfo>
						<colorinfo>
							<lut />
							<lut1 />
							<asc_sop />
							<asc_sat />
							<lut2 />
						</colorinfo>
						<labels>
							<label2>Iris</label2>
						</labels>
					</clipitem>
					<clipitem id="clipitem-7626ae8e43154fa3871633cd4d07ffb3"
						premiereChannelType="stereo">
						<masterclipid>masterclip-1</masterclipid>
						<name>Fortnite NA PlayStation Cup PlayStation Esports Game 1.mp4</name>
						<enabled>TRUE</enabled>
						<duration>19200</duration>
						<rate>
							<timebase>60</timebase>
							<ntsc>TRUE</ntsc>
						</rate>
						<start>12474</start>
						<end>13452</end>
						<in>15654</in>
						<out>16632</out>
						<pproTicksIn>66339047174400</pproTicksIn>
						<pproTicksOut>70483648435200</pproTicksOut>
						<file id="file-1" />
						<sourcetrack>
							<mediatype>audio</mediatype>
							<trackindex>2</trackindex>
						</sourcetrack>
						<link>
							<linkclipref>clipitem-690b52523c284a98a71a9c720e747ac7</linkclipref>
							<mediatype>video</mediatype>
							<trackindex>2</trackindex>
							<clipindex>9</clipindex>
						</link>
						<link>
							<linkclipref>clipitem-f3856a3186b84a419f5906ab7d2d7c04</linkclipref>
							<mediatype>audio</mediatype>
							<trackindex>3</trackindex>
							<clipindex>9</clipindex>
							<groupindex>1</groupindex>
						</link>
						<link>
							<linkclipref>clipitem-7626ae8e43154fa3871633cd4d07ffb3</linkclipref>
							<mediatype>audio</mediatype>
							<trackindex>4</trackindex>
							<clipindex>9</clipindex>
							<groupindex>1</groupindex>
						</link>
						<logginginfo>
							<description />
							<scene />
							<shottake />
							<lognote />
							<good />
							<originalvideofilename />
							<originalaudiofilename />
						</logginginfo>
						<colorinfo>
							<lut />
							<lut1 />
							<asc_sop />
							<asc_sat />
							<lut2 />
						</colorinfo>
						<labels>
							<label2>Iris</label2>
						</labels>
					</clipitem>
					<clipitem id="clipitem-acb2088d959546abb1431632a7881b14"
						premiereChannelType="stereo">
						<masterclipid>masterclip-1</masterclipid>
						<name>Fortnite NA PlayStation Cup PlayStation Esports Game 1.mp4</name>
						<enabled>TRUE</enabled>
						<duration>19200</duration>
						<rate>
							<timebase>60</timebase>
							<ntsc>TRUE</ntsc>
						</rate>
						<start>14512</start>
						<end>15490</end>
						<in>15654</in>
						<out>16632</out>
						<pproTicksIn>66339047174400</pproTicksIn>
						<pproTicksOut>70483648435200</pproTicksOut>
						<file id="file-1" />
						<sourcetrack>
							<mediatype>audio</mediatype>
							<trackindex>2</trackindex>
						</sourcetrack>
						<link>
							<linkclipref>clipitem-3cc3e8e21bf64e76a32e93573e7e9f5c</linkclipref>
							<mediatype>video</mediatype>
							<trackindex>2</trackindex>
							<clipindex>10</clipindex>
						</link>
						<link>
							<linkclipref>clipitem-e8b44ecce7744179b6b177bb2e1f8309</linkclipref>
							<mediatype>audio</mediatype>
							<trackindex>3</trackindex>
							<clipindex>10</clipindex>
							<groupindex>1</groupindex>
						</link>
						<link>
							<linkclipref>clipitem-acb2088d959546abb1431632a7881b14</linkclipref>
							<mediatype>audio</mediatype>
							<trackindex>4</trackindex>
							<clipindex>10</clipindex>
							<groupindex>1</groupindex>
						</link>
						<logginginfo>
							<description />
							<scene />
							<shottake />
							<lognote />
							<good />
							<originalvideofilename />
							<originalaudiofilename />
						</logginginfo>
						<colorinfo>
							<lut />
							<lut1 />
							<asc_sop />
							<asc_sat />
							<lut2 />
						</colorinfo>
						<labels>
							<label2>Iris</label2>
						</labels>
					</clipitem>
					<enabled>TRUE</enabled>
					<locked>FALSE</locked>
					<outputchannelindex>2</outputchannelindex>
				</track>
				<track TL.SQTrackAudioKeyframeStyle="0" TL.SQTrackShy="0"
					TL.SQTrackExpandedHeight="25" TL.SQTrackExpanded="0" MZ.TrackTargeted="1"
					PannerCurrentValue="0.5" PannerIsInverted="true"
					PannerStartKeyframe="-91445760000000000,0.5,0,0,0,0,0,0" PannerName="Balance"
					currentExplodedTrackIndex="0" totalExplodedTrackCount="2"
					premiereTrackType="Stereo">
					<enabled>TRUE</enabled>
					<locked>FALSE</locked>
					<outputchannelindex>1</outputchannelindex>
				</track>
				<track TL.SQTrackAudioKeyframeStyle="0" TL.SQTrackShy="0"
					TL.SQTrackExpandedHeight="25" TL.SQTrackExpanded="0" MZ.TrackTargeted="1"
					PannerCurrentValue="0.5" PannerIsInverted="true"
					PannerStartKeyframe="-91445760000000000,0.5,0,0,0,0,0,0" PannerName="Balance"
					currentExplodedTrackIndex="1" totalExplodedTrackCount="2"
					premiereTrackType="Stereo">
					<enabled>TRUE</enabled>
					<locked>FALSE</locked>
					<outputchannelindex>2</outputchannelindex>
				</track>
			</audio>
		</media>
		<timecode>
			<rate>
				<timebase>60</timebase>
				<ntsc>TRUE</ntsc>
			</rate>
			<string>00:00:00:00</string>
			<frame>0</frame>
			<displayformat>NDF</displayformat>
		</timecode>
		<labels>
			<label2>Forest</label2>
		</labels>
		<logginginfo>
			<description />
			<scene />
			<shottake />
			<lognote />
			<good />
			<originalvideofilename />
			<originalaudiofilename />
		</logginginfo>
	</sequence>
</xmeml>