<xmeml version="4"><sequence id="sequence-2" TL_SQAudioVisibleBase="0" TL_SQVideoVisibleBase="0" TL_SQVisibleBaseTime="0" TL_SQAVDividerPosition="0.5" TL_SQHideShyTracks="0" TL_SQHeaderWidth="236" TL_SQDataTrackViewControlState="0" Monitor_ProgramZoomOut="340011984312000" Monitor_ProgramZoomIn="0" TL_SQTimePerPixel="1.6034289012958367" MZ_EditLine="333083126376000" MZ_Sequence_PreviewFrameSizeHeight="1080" MZ_Sequence_PreviewFrameSizeWidth="1920" MZ_Sequence_AudioTimeDisplayFormat="200" MZ_Sequence_PreviewUseMaxRenderQuality="false" MZ_Sequence_PreviewUseMaxBitDepth="false" MZ_Sequence_VideoTimeDisplayFormat="110" MZ_WorkOutPoint="15235011792000" MZ_WorkInPoint="0" MZ_ZeroPoint="0" explodedTracks="true"><uuid>50e61931-251f-4069-8193-a3fbad7f93ff</uuid><duration>31533</duration><rate><timebase>24</timebase><ntsc>TRUE</ntsc></rate><name>testy</name><media><video><format><samplecharacteristics><rate><timebase>24</timebase><ntsc>TRUE</ntsc></rate><codec><name>Apple ProRes 422</name><appspecificdata><appname>Final Cut Pro</appname><appmanufacturer>Apple Inc.</appmanufacturer><appversion>7.0</appversion><data><qtcodec><codecname>Apple ProRes 422</codecname><codectypename>Apple ProRes 422</codectypename><codectypecode>apcn</codectypecode><codecvendorcode>appl</codecvendorcode><spatialquality>1024</spatialquality><temporalquality>0</temporalquality><keyframerate>0</keyframerate><datarate>0</datarate></qtcodec></data></appspecificdata></codec><width>1920</width><height>1080</height><anamorphic>FALSE</anamorphic><pixelaspectratio>square</pixelaspectratio><fielddominance>none</fielddominance><colordepth>24</colordepth></samplecharacteristics></format><track TL_SQTrackShy="0" TL_SQTrackExpandedHeight="25" TL_SQTrackExpanded="0" MZ_TrackTargeted="1"><clipitem id="clipitem-e72742af68224f2db88e654ecbfdf784">
						<masterclipid>masterclip-5</masterclipid>
						<name>Camera_Recording_-_Jul_23 (6).mp4</name>
						<enabled>TRUE</enabled>
						<duration>872</duration>
						<rate>
							<timebase>24</timebase>
							<ntsc>FALSE</ntsc>
						</rate>
						<start>0</start>
						<end>72</end>
						<in>190</in>
						<out>262</out>
						<pproTicksIn>0</pproTicksIn>
						<pproTicksOut>9229248000000</pproTicksOut>
						<alphatype>none</alphatype>
						<pixelaspectratio>square</pixelaspectratio>
						<anamorphic>FALSE</anamorphic>
						<file id="file-5">
							<name>Camera_Recording_-_Jul_23 (6).mp4</name>
							<pathurl>file://localhost/C%3a/Programming/upwork/xml_job/AutoPremiere/Auto%20premiere%20test/Footage/Camera_Recording_-_Jul_23%20(6).mp4</pathurl>
							<rate>
								<timebase>30</timebase>
								<ntsc>FALSE</ntsc>
							</rate>
							<duration>1090</duration>
							<timecode>
								<rate>
									<timebase>30</timebase>
									<ntsc>FALSE</ntsc>
								</rate>
								<string>00:00:00:00</string>
								<frame>0</frame>
								<displayformat>NDF</displayformat>
							</timecode>
							<media>
								<video>
									<samplecharacteristics>
										<rate>
											<timebase>30</timebase>
											<ntsc>FALSE</ntsc>
										</rate>
										<width>1280</width>
										<height>720</height>
										<anamorphic>FALSE</anamorphic>
										<pixelaspectratio>square</pixelaspectratio>
										<fielddominance>none</fielddominance>
									</samplecharacteristics>
								</video>
								<audio>
									<samplecharacteristics>
										<depth>16</depth>
										<samplerate>48000</samplerate>
									</samplecharacteristics>
									<channelcount>2</channelcount>
								</audio>
							</media>
						</file>
						<logginginfo>
							<description />
							<scene />
							<shottake />
							<lognote />
							<good />
							<originalvideofilename />
							<originalaudiofilename />
						</logginginfo>
						<colorinfo>
							<lut />
							<lut1 />
							<asc_sop />
							<asc_sat />
							<lut2 />
						</colorinfo>
						<labels>
							<label2>Iris</label2>
						</labels>
					</clipitem>
					<clipitem id="clipitem-e72742af68224f2db88e654ecbfdf784">
						<masterclipid>masterclip-5</masterclipid>
						<name>Camera_Recording_-_Jul_23 (6).mp4</name>
						<enabled>TRUE</enabled>
						<duration>872</duration>
						<rate>
							<timebase>24</timebase>
							<ntsc>FALSE</ntsc>
						</rate>
						<start>72</start>
						<end>192</end>
						<in>382</in>
						<out>502</out>
						<pproTicksIn>0</pproTicksIn>
						<pproTicksOut>9229248000000</pproTicksOut>
						<alphatype>none</alphatype>
						<pixelaspectratio>square</pixelaspectratio>
						<anamorphic>FALSE</anamorphic>
						<file id="file-5">
							<name>Camera_Recording_-_Jul_23 (6).mp4</name>
							<pathurl>file://localhost/C%3a/Programming/upwork/xml_job/AutoPremiere/Auto%20premiere%20test/Footage/Camera_Recording_-_Jul_23%20(6).mp4</pathurl>
							<rate>
								<timebase>30</timebase>
								<ntsc>FALSE</ntsc>
							</rate>
							<duration>1090</duration>
							<timecode>
								<rate>
									<timebase>30</timebase>
									<ntsc>FALSE</ntsc>
								</rate>
								<string>00:00:00:00</string>
								<frame>0</frame>
								<displayformat>NDF</displayformat>
							</timecode>
							<media>
								<video>
									<samplecharacteristics>
										<rate>
											<timebase>30</timebase>
											<ntsc>FALSE</ntsc>
										</rate>
										<width>1280</width>
										<height>720</height>
										<anamorphic>FALSE</anamorphic>
										<pixelaspectratio>square</pixelaspectratio>
										<fielddominance>none</fielddominance>
									</samplecharacteristics>
								</video>
								<audio>
									<samplecharacteristics>
										<depth>16</depth>
										<samplerate>48000</samplerate>
									</samplecharacteristics>
									<channelcount>2</channelcount>
								</audio>
							</media>
						</file>
						<logginginfo>
							<description />
							<scene />
							<shottake />
							<lognote />
							<good />
							<originalvideofilename />
							<originalaudiofilename />
						</logginginfo>
						<colorinfo>
							<lut />
							<lut1 />
							<asc_sop />
							<asc_sat />
							<lut2 />
						</colorinfo>
						<labels>
							<label2>Iris</label2>
						</labels>
					</clipitem>
					<clipitem id="clipitem-e72742af68224f2db88e654ecbfdf784">
						<masterclipid>masterclip-5</masterclipid>
						<name>Camera_Recording_-_Jul_23 (6).mp4</name>
						<enabled>TRUE</enabled>
						<duration>872</duration>
						<rate>
							<timebase>24</timebase>
							<ntsc>FALSE</ntsc>
						</rate>
						<start>192</start>
						<end>264</end>
						<in>526</in>
						<out>598</out>
						<pproTicksIn>0</pproTicksIn>
						<pproTicksOut>9229248000000</pproTicksOut>
						<alphatype>none</alphatype>
						<pixelaspectratio>square</pixelaspectratio>
						<anamorphic>FALSE</anamorphic>
						<file id="file-5">
							<name>Camera_Recording_-_Jul_23 (6).mp4</name>
							<pathurl>file://localhost/C%3a/Programming/upwork/xml_job/AutoPremiere/Auto%20premiere%20test/Footage/Camera_Recording_-_Jul_23%20(6).mp4</pathurl>
							<rate>
								<timebase>30</timebase>
								<ntsc>FALSE</ntsc>
							</rate>
							<duration>1090</duration>
							<timecode>
								<rate>
									<timebase>30</timebase>
									<ntsc>FALSE</ntsc>
								</rate>
								<string>00:00:00:00</string>
								<frame>0</frame>
								<displayformat>NDF</displayformat>
							</timecode>
							<media>
								<video>
									<samplecharacteristics>
										<rate>
											<timebase>30</timebase>
											<ntsc>FALSE</ntsc>
										</rate>
										<width>1280</width>
										<height>720</height>
										<anamorphic>FALSE</anamorphic>
										<pixelaspectratio>square</pixelaspectratio>
										<fielddominance>none</fielddominance>
									</samplecharacteristics>
								</video>
								<audio>
									<samplecharacteristics>
										<depth>16</depth>
										<samplerate>48000</samplerate>
									</samplecharacteristics>
									<channelcount>2</channelcount>
								</audio>
							</media>
						</file>
						<logginginfo>
							<description />
							<scene />
							<shottake />
							<lognote />
							<good />
							<originalvideofilename />
							<originalaudiofilename />
						</logginginfo>
						<colorinfo>
							<lut />
							<lut1 />
							<asc_sop />
							<asc_sat />
							<lut2 />
						</colorinfo>
						<labels>
							<label2>Iris</label2>
						</labels>
					</clipitem>
					<clipitem id="clipitem-e72742af68224f2db88e654ecbfdf784">
						<masterclipid>masterclip-5</masterclipid>
						<name>Camera_Recording_-_Jul_23 (6).mp4</name>
						<enabled>TRUE</enabled>
						<duration>872</duration>
						<rate>
							<timebase>24</timebase>
							<ntsc>FALSE</ntsc>
						</rate>
						<start>264</start>
						<end>384</end>
						<in>742</in>
						<out>862</out>
						<pproTicksIn>0</pproTicksIn>
						<pproTicksOut>9229248000000</pproTicksOut>
						<alphatype>none</alphatype>
						<pixelaspectratio>square</pixelaspectratio>
						<anamorphic>FALSE</anamorphic>
						<file id="file-5">
							<name>Camera_Recording_-_Jul_23 (6).mp4</name>
							<pathurl>file://localhost/C%3a/Programming/upwork/xml_job/AutoPremiere/Auto%20premiere%20test/Footage/Camera_Recording_-_Jul_23%20(6).mp4</pathurl>
							<rate>
								<timebase>30</timebase>
								<ntsc>FALSE</ntsc>
							</rate>
							<duration>1090</duration>
							<timecode>
								<rate>
									<timebase>30</timebase>
									<ntsc>FALSE</ntsc>
								</rate>
								<string>00:00:00:00</string>
								<frame>0</frame>
								<displayformat>NDF</displayformat>
							</timecode>
							<media>
								<video>
									<samplecharacteristics>
										<rate>
											<timebase>30</timebase>
											<ntsc>FALSE</ntsc>
										</rate>
										<width>1280</width>
										<height>720</height>
										<anamorphic>FALSE</anamorphic>
										<pixelaspectratio>square</pixelaspectratio>
										<fielddominance>none</fielddominance>
									</samplecharacteristics>
								</video>
								<audio>
									<samplecharacteristics>
										<depth>16</depth>
										<samplerate>48000</samplerate>
									</samplecharacteristics>
									<channelcount>2</channelcount>
								</audio>
							</media>
						</file>
						<logginginfo>
							<description />
							<scene />
							<shottake />
							<lognote />
							<good />
							<originalvideofilename />
							<originalaudiofilename />
						</logginginfo>
						<colorinfo>
							<lut />
							<lut1 />
							<asc_sop />
							<asc_sat />
							<lut2 />
						</colorinfo>
						<labels>
							<label2>Iris</label2>
						</labels>
					</clipitem>
					</track><track TL_SQTrackShy="0" TL_SQTrackExpandedHeight="25" TL_SQTrackExpanded="0" MZ_TrackTargeted="1" /><track TL_SQTrackShy="0" TL_SQTrackExpandedHeight="25" TL_SQTrackExpanded="0" MZ_TrackTargeted="0"><clipitem id="clipitem-e0a3741585164b6a8b8cd39838388e44">
						<masterclipid>masterclip-6</masterclipid>
						<name>20230723_123914.mp4</name>
						<enabled>TRUE</enabled>
						<duration>175</duration>
						<rate>
							<timebase>24</timebase>
							<ntsc>FALSE</ntsc>
						</rate>
						<start>72</start>
						<end>129</end>
						<in>118</in>
						<out>175</out>
						<pproTicksIn>0</pproTicksIn>
						<pproTicksOut>1852200000000</pproTicksOut>
						<alphatype>none</alphatype>
						<pixelaspectratio>square</pixelaspectratio>
						<anamorphic>FALSE</anamorphic>
						<file id="file-6">
							<name>20230723_123914.mp4</name>
							<pathurl>file://localhost/C%3a/Programming/upwork/xml_job/AutoPremiere/Auto%20premiere%20test/Footage/20230723_123914.mp4</pathurl>
							<rate>
								<timebase>30</timebase>
								<ntsc>FALSE</ntsc>
							</rate>
							<duration>220</duration>
							<timecode>
								<rate>
									<timebase>30</timebase>
									<ntsc>FALSE</ntsc>
								</rate>
								<string>00:00:00:00</string>
								<frame>0</frame>
								<displayformat>NDF</displayformat>
							</timecode>
							<media>
								<video>
									<samplecharacteristics>
										<rate>
											<timebase>30</timebase>
											<ntsc>FALSE</ntsc>
										</rate>
										<width>1920</width>
										<height>1080</height>
										<anamorphic>FALSE</anamorphic>
										<pixelaspectratio>square</pixelaspectratio>
										<fielddominance>none</fielddominance>
									</samplecharacteristics>
								</video>
								<audio>
									<samplecharacteristics>
										<depth>16</depth>
										<samplerate>48000</samplerate>
									</samplecharacteristics>
									<channelcount>2</channelcount>
								</audio>
							</media>
						</file>
						<logginginfo>
							<description />
							<scene />
							<shottake />
							<lognote />
							<good />
							<originalvideofilename />
							<originalaudiofilename />
						</logginginfo>
						<colorinfo>
							<lut />
							<lut1 />
							<asc_sop />
							<asc_sat />
							<lut2 />
						</colorinfo>
						<labels>
							<label2>Iris</label2>
						</labels>
					</clipitem>
					<clipitem id="clipitem-bf17dd938677419886f52e51e00c52cc">
						<masterclipid>masterclip-7</masterclipid>
						<name>20230723_123929.mp4</name>
						<enabled>TRUE</enabled>
						<duration>158</duration>
						<rate>
							<timebase>24</timebase>
							<ntsc>FALSE</ntsc>
						</rate>
						<start>264</start>
						<end>292</end>
						<in>130</in>
						<out>158</out>
						<pproTicksIn>0</pproTicksIn>
						<pproTicksOut>1672272000000</pproTicksOut>
						<alphatype>none</alphatype>
						<pixelaspectratio>square</pixelaspectratio>
						<anamorphic>FALSE</anamorphic>
						<file id="file-7">
							<name>20230723_123929.mp4</name>
							<pathurl>file://localhost/C%3a/Programming/upwork/xml_job/AutoPremiere/Auto%20premiere%20test/Footage/20230723_123929.mp4</pathurl>
							<rate>
								<timebase>30</timebase>
								<ntsc>FALSE</ntsc>
							</rate>
							<duration>198</duration>
							<timecode>
								<rate>
									<timebase>30</timebase>
									<ntsc>FALSE</ntsc>
								</rate>
								<string>00:00:00:00</string>
								<frame>0</frame>
								<displayformat>NDF</displayformat>
							</timecode>
							<media>
								<video>
									<samplecharacteristics>
										<rate>
											<timebase>30</timebase>
											<ntsc>FALSE</ntsc>
										</rate>
										<width>1920</width>
										<height>1080</height>
										<anamorphic>FALSE</anamorphic>
										<pixelaspectratio>square</pixelaspectratio>
										<fielddominance>none</fielddominance>
									</samplecharacteristics>
								</video>
								<audio>
									<samplecharacteristics>
										<depth>16</depth>
										<samplerate>48000</samplerate>
									</samplecharacteristics>
									<channelcount>2</channelcount>
								</audio>
							</media>
						</file>
						<logginginfo>
							<description />
							<scene />
							<shottake />
							<lognote />
							<good />
							<originalvideofilename />
							<originalaudiofilename />
						</logginginfo>
						<colorinfo>
							<lut />
							<lut1 />
							<asc_sop />
							<asc_sat />
							<lut2 />
						</colorinfo>
						<labels>
							<label2>Iris</label2>
						</labels>
					</clipitem>
					</track><track TL_SQTrackShy="0" TL_SQTrackExpandedHeight="25" TL_SQTrackExpanded="0" MZ_TrackTargeted="1" /><track TL_SQTrackShy="0" TL_SQTrackExpandedHeight="25" TL_SQTrackExpanded="0" MZ_TrackTargeted="1" /><track TL_SQTrackShy="0" TL_SQTrackExpandedHeight="25" TL_SQTrackExpanded="0" MZ_TrackTargeted="0" /></video><audio><numOutputChannels>2</numOutputChannels><format><samplecharacteristics><depth>16</depth><samplerate>48000</samplerate></samplecharacteristics></format><outputs><group><index>1</index><numchannels>1</numchannels><downmix>0</downmix><channel><index>1</index></channel></group><group><index>2</index><numchannels>1</numchannels><downmix>0</downmix><channel><index>2</index></channel></group></outputs><track TL_SQTrackAudioKeyframeStyle="0" TL_SQTrackShy="0" TL_SQTrackExpandedHeight="25" TL_SQTrackExpanded="0" MZ_TrackTargeted="1" PannerCurrentValue="0.5" PannerIsInverted="true" PannerStartKeyframe="-91445760000000000,0.5,0,0,0,0,0,0" PannerName="Balance" currentExplodedTrackIndex="0" totalExplodedTrackCount="2" premiereTrackType="Stereo"><clipitem id="clipitem-784261b7ba1e4388b1fda72cceca2269" premiereChannelType="stereo">
						<masterclipid>masterclip-8</masterclipid>
						<name>ben - clip.mp3</name>
						<enabled>TRUE</enabled>
						<duration>873</duration>
						<rate>
							<timebase>24</timebase>
							<ntsc>FALSE</ntsc>
						</rate>
						<start>0</start>
						<end>72</end>
						<in>192</in>
						<out>264</out>
						<pproTicksIn>2032128000000</pproTicksIn>
						<pproTicksOut>2794176000000</pproTicksOut>
						<file id="file-8">
							<name>ben - clip.mp3</name>
							<pathurl>file://localhost/C%3a/Programming/upwork/xml_job/AutoPremiere/Auto%20premiere%20test/Audio/ben%20-%20clip.mp3</pathurl>
							<rate>
								<timebase>30</timebase>
								<ntsc>TRUE</ntsc>
							</rate>
							<duration>1090</duration>
							<timecode>
								<rate>
									<timebase>30</timebase>
									<ntsc>TRUE</ntsc>
								</rate>
								<string>00;00;00;00</string>
								<frame>0</frame>
								<displayformat>DF</displayformat>
							</timecode>
							<media>
								<audio>
									<samplecharacteristics>
										<depth>16</depth>
										<samplerate>48000</samplerate>
									</samplecharacteristics>
									<channelcount>2</channelcount>
								</audio>
							</media>
						</file>
						<sourcetrack>
							<mediatype>audio</mediatype>
							<trackindex>1</trackindex>
						</sourcetrack>
						<filter>
							<effect>
								<name>Audio Levels</name>
								<effectid>audiolevels</effectid>
								<effectcategory>audiolevels</effectcategory>
								<effecttype>audiolevels</effecttype>
								<mediatype>audio</mediatype>
								<pproBypass>false</pproBypass>
								<parameter authoringApp="PremierePro">
									<parameterid>level</parameterid>
									<name>Level</name>
									<valuemin>0</valuemin>
									<valuemax>3.98109</valuemax>
									<value>1</value>
								</parameter>
							</effect>
						</filter>
						<link>
							<linkclipref>clipitem-784261b7ba1e4388b1fda72cceca2269</linkclipref>
							<mediatype>audio</mediatype>
							<trackindex>1</trackindex>
							<clipindex>1</clipindex>
							<groupindex>1</groupindex>
						</link>
						<link>
							<linkclipref>clipitem-2458ffa0abd641c29b607d510644128f</linkclipref>
							<mediatype>audio</mediatype>
							<trackindex>2</trackindex>
							<clipindex>1</clipindex>
							<groupindex>1</groupindex>
						</link>
						<logginginfo>
							<description />
							<scene />
							<shottake />
							<lognote />
							<good />
							<originalvideofilename />
							<originalaudiofilename />
						</logginginfo>
						<colorinfo>
							<lut />
							<lut1 />
							<asc_sop />
							<asc_sat />
							<lut2 />
						</colorinfo>
						<labels>
							<label2>Caribbean</label2>
						</labels>
					</clipitem>
					<clipitem id="clipitem-784261b7ba1e4388b1fda72cceca2269" premiereChannelType="stereo">
						<masterclipid>masterclip-8</masterclipid>
						<name>ben - clip.mp3</name>
						<enabled>TRUE</enabled>
						<duration>873</duration>
						<rate>
							<timebase>24</timebase>
							<ntsc>FALSE</ntsc>
						</rate>
						<start>72</start>
						<end>192</end>
						<in>384</in>
						<out>504</out>
						<pproTicksIn>4064256000000</pproTicksIn>
						<pproTicksOut>5334336000000</pproTicksOut>
						<file id="file-8">
							<name>ben - clip.mp3</name>
							<pathurl>file://localhost/C%3a/Programming/upwork/xml_job/AutoPremiere/Auto%20premiere%20test/Audio/ben%20-%20clip.mp3</pathurl>
							<rate>
								<timebase>30</timebase>
								<ntsc>TRUE</ntsc>
							</rate>
							<duration>1090</duration>
							<timecode>
								<rate>
									<timebase>30</timebase>
									<ntsc>TRUE</ntsc>
								</rate>
								<string>00;00;00;00</string>
								<frame>0</frame>
								<displayformat>DF</displayformat>
							</timecode>
							<media>
								<audio>
									<samplecharacteristics>
										<depth>16</depth>
										<samplerate>48000</samplerate>
									</samplecharacteristics>
									<channelcount>2</channelcount>
								</audio>
							</media>
						</file>
						<sourcetrack>
							<mediatype>audio</mediatype>
							<trackindex>1</trackindex>
						</sourcetrack>
						<filter>
							<effect>
								<name>Audio Levels</name>
								<effectid>audiolevels</effectid>
								<effectcategory>audiolevels</effectcategory>
								<effecttype>audiolevels</effecttype>
								<mediatype>audio</mediatype>
								<pproBypass>false</pproBypass>
								<parameter authoringApp="PremierePro">
									<parameterid>level</parameterid>
									<name>Level</name>
									<valuemin>0</valuemin>
									<valuemax>3.98109</valuemax>
									<value>1</value>
								</parameter>
							</effect>
						</filter>
						<link>
							<linkclipref>clipitem-784261b7ba1e4388b1fda72cceca2269</linkclipref>
							<mediatype>audio</mediatype>
							<trackindex>1</trackindex>
							<clipindex>1</clipindex>
							<groupindex>1</groupindex>
						</link>
						<link>
							<linkclipref>clipitem-2458ffa0abd641c29b607d510644128f</linkclipref>
							<mediatype>audio</mediatype>
							<trackindex>2</trackindex>
							<clipindex>1</clipindex>
							<groupindex>1</groupindex>
						</link>
						<logginginfo>
							<description />
							<scene />
							<shottake />
							<lognote />
							<good />
							<originalvideofilename />
							<originalaudiofilename />
						</logginginfo>
						<colorinfo>
							<lut />
							<lut1 />
							<asc_sop />
							<asc_sat />
							<lut2 />
						</colorinfo>
						<labels>
							<label2>Caribbean</label2>
						</labels>
					</clipitem>
					<clipitem id="clipitem-784261b7ba1e4388b1fda72cceca2269" premiereChannelType="stereo">
						<masterclipid>masterclip-8</masterclipid>
						<name>ben - clip.mp3</name>
						<enabled>TRUE</enabled>
						<duration>873</duration>
						<rate>
							<timebase>24</timebase>
							<ntsc>FALSE</ntsc>
						</rate>
						<start>192</start>
						<end>264</end>
						<in>528</in>
						<out>600</out>
						<pproTicksIn>5588352000000</pproTicksIn>
						<pproTicksOut>6350400000000</pproTicksOut>
						<file id="file-8">
							<name>ben - clip.mp3</name>
							<pathurl>file://localhost/C%3a/Programming/upwork/xml_job/AutoPremiere/Auto%20premiere%20test/Audio/ben%20-%20clip.mp3</pathurl>
							<rate>
								<timebase>30</timebase>
								<ntsc>TRUE</ntsc>
							</rate>
							<duration>1090</duration>
							<timecode>
								<rate>
									<timebase>30</timebase>
									<ntsc>TRUE</ntsc>
								</rate>
								<string>00;00;00;00</string>
								<frame>0</frame>
								<displayformat>DF</displayformat>
							</timecode>
							<media>
								<audio>
									<samplecharacteristics>
										<depth>16</depth>
										<samplerate>48000</samplerate>
									</samplecharacteristics>
									<channelcount>2</channelcount>
								</audio>
							</media>
						</file>
						<sourcetrack>
							<mediatype>audio</mediatype>
							<trackindex>1</trackindex>
						</sourcetrack>
						<filter>
							<effect>
								<name>Audio Levels</name>
								<effectid>audiolevels</effectid>
								<effectcategory>audiolevels</effectcategory>
								<effecttype>audiolevels</effecttype>
								<mediatype>audio</mediatype>
								<pproBypass>false</pproBypass>
								<parameter authoringApp="PremierePro">
									<parameterid>level</parameterid>
									<name>Level</name>
									<valuemin>0</valuemin>
									<valuemax>3.98109</valuemax>
									<value>1</value>
								</parameter>
							</effect>
						</filter>
						<link>
							<linkclipref>clipitem-784261b7ba1e4388b1fda72cceca2269</linkclipref>
							<mediatype>audio</mediatype>
							<trackindex>1</trackindex>
							<clipindex>1</clipindex>
							<groupindex>1</groupindex>
						</link>
						<link>
							<linkclipref>clipitem-2458ffa0abd641c29b607d510644128f</linkclipref>
							<mediatype>audio</mediatype>
							<trackindex>2</trackindex>
							<clipindex>1</clipindex>
							<groupindex>1</groupindex>
						</link>
						<logginginfo>
							<description />
							<scene />
							<shottake />
							<lognote />
							<good />
							<originalvideofilename />
							<originalaudiofilename />
						</logginginfo>
						<colorinfo>
							<lut />
							<lut1 />
							<asc_sop />
							<asc_sat />
							<lut2 />
						</colorinfo>
						<labels>
							<label2>Caribbean</label2>
						</labels>
					</clipitem>
					<clipitem id="clipitem-784261b7ba1e4388b1fda72cceca2269" premiereChannelType="stereo">
						<masterclipid>masterclip-8</masterclipid>
						<name>ben - clip.mp3</name>
						<enabled>TRUE</enabled>
						<duration>873</duration>
						<rate>
							<timebase>24</timebase>
							<ntsc>FALSE</ntsc>
						</rate>
						<start>264</start>
						<end>384</end>
						<in>744</in>
						<out>864</out>
						<pproTicksIn>7874496000000</pproTicksIn>
						<pproTicksOut>9144576000000</pproTicksOut>
						<file id="file-8">
							<name>ben - clip.mp3</name>
							<pathurl>file://localhost/C%3a/Programming/upwork/xml_job/AutoPremiere/Auto%20premiere%20test/Audio/ben%20-%20clip.mp3</pathurl>
							<rate>
								<timebase>30</timebase>
								<ntsc>TRUE</ntsc>
							</rate>
							<duration>1090</duration>
							<timecode>
								<rate>
									<timebase>30</timebase>
									<ntsc>TRUE</ntsc>
								</rate>
								<string>00;00;00;00</string>
								<frame>0</frame>
								<displayformat>DF</displayformat>
							</timecode>
							<media>
								<audio>
									<samplecharacteristics>
										<depth>16</depth>
										<samplerate>48000</samplerate>
									</samplecharacteristics>
									<channelcount>2</channelcount>
								</audio>
							</media>
						</file>
						<sourcetrack>
							<mediatype>audio</mediatype>
							<trackindex>1</trackindex>
						</sourcetrack>
						<filter>
							<effect>
								<name>Audio Levels</name>
								<effectid>audiolevels</effectid>
								<effectcategory>audiolevels</effectcategory>
								<effecttype>audiolevels</effecttype>
								<mediatype>audio</mediatype>
								<pproBypass>false</pproBypass>
								<parameter authoringApp="PremierePro">
									<parameterid>level</parameterid>
									<name>Level</name>
									<valuemin>0</valuemin>
									<valuemax>3.98109</valuemax>
									<value>1</value>
								</parameter>
							</effect>
						</filter>
						<link>
							<linkclipref>clipitem-784261b7ba1e4388b1fda72cceca2269</linkclipref>
							<mediatype>audio</mediatype>
							<trackindex>1</trackindex>
							<clipindex>1</clipindex>
							<groupindex>1</groupindex>
						</link>
						<link>
							<linkclipref>clipitem-2458ffa0abd641c29b607d510644128f</linkclipref>
							<mediatype>audio</mediatype>
							<trackindex>2</trackindex>
							<clipindex>1</clipindex>
							<groupindex>1</groupindex>
						</link>
						<logginginfo>
							<description />
							<scene />
							<shottake />
							<lognote />
							<good />
							<originalvideofilename />
							<originalaudiofilename />
						</logginginfo>
						<colorinfo>
							<lut />
							<lut1 />
							<asc_sop />
							<asc_sat />
							<lut2 />
						</colorinfo>
						<labels>
							<label2>Caribbean</label2>
						</labels>
					</clipitem>
					</track><track TL_SQTrackAudioKeyframeStyle="0" TL_SQTrackShy="0" TL_SQTrackExpandedHeight="25" TL_SQTrackExpanded="0" MZ_TrackTargeted="1" PannerCurrentValue="0.5" PannerIsInverted="true" PannerStartKeyframe="-91445760000000000,0.5,0,0,0,0,0,0" PannerName="Balance" currentExplodedTrackIndex="1" totalExplodedTrackCount="2" premiereTrackType="Stereo"><clipitem id="clipitem-2458ffa0abd641c29b607d510644128f" premiereChannelType="stereo">
						<masterclipid>masterclip-8</masterclipid>
						<name>ben - clip.mp3</name>
						<enabled>TRUE</enabled>
						<duration>873</duration>
						<rate>
							<timebase>24</timebase>
							<ntsc>FALSE</ntsc>
						</rate>
						<start>0</start>
						<end>72</end>
						<in>192</in>
						<out>264</out>
						<pproTicksIn>2032128000000</pproTicksIn>
						<pproTicksOut>2794176000000</pproTicksOut>
						<file id="file-8" />
						<sourcetrack>
							<mediatype>audio</mediatype>
							<trackindex>2</trackindex>
						</sourcetrack>
						<filter>
							<effect>
								<name>Audio Levels</name>
								<effectid>audiolevels</effectid>
								<effectcategory>audiolevels</effectcategory>
								<effecttype>audiolevels</effecttype>
								<mediatype>audio</mediatype>
								<pproBypass>false</pproBypass>
								<parameter authoringApp="PremierePro">
									<parameterid>level</parameterid>
									<name>Level</name>
									<valuemin>0</valuemin>
									<valuemax>3.98109</valuemax>
									<value>1</value>
								</parameter>
							</effect>
						</filter>
						<link>
							<linkclipref>clipitem-784261b7ba1e4388b1fda72cceca2269</linkclipref>
							<mediatype>audio</mediatype>
							<trackindex>1</trackindex>
							<clipindex>1</clipindex>
							<groupindex>1</groupindex>
						</link>
						<link>
							<linkclipref>clipitem-2458ffa0abd641c29b607d510644128f</linkclipref>
							<mediatype>audio</mediatype>
							<trackindex>2</trackindex>
							<clipindex>1</clipindex>
							<groupindex>1</groupindex>
						</link>
						<logginginfo>
							<description />
							<scene />
							<shottake />
							<lognote />
							<good />
							<originalvideofilename />
							<originalaudiofilename />
						</logginginfo>
						<colorinfo>
							<lut />
							<lut1 />
							<asc_sop />
							<asc_sat />
							<lut2 />
						</colorinfo>
						<labels>
							<label2>Caribbean</label2>
						</labels>
					</clipitem>
					<clipitem id="clipitem-2458ffa0abd641c29b607d510644128f" premiereChannelType="stereo">
						<masterclipid>masterclip-8</masterclipid>
						<name>ben - clip.mp3</name>
						<enabled>TRUE</enabled>
						<duration>873</duration>
						<rate>
							<timebase>24</timebase>
							<ntsc>FALSE</ntsc>
						</rate>
						<start>72</start>
						<end>192</end>
						<in>384</in>
						<out>504</out>
						<pproTicksIn>4064256000000</pproTicksIn>
						<pproTicksOut>5334336000000</pproTicksOut>
						<file id="file-8" />
						<sourcetrack>
							<mediatype>audio</mediatype>
							<trackindex>2</trackindex>
						</sourcetrack>
						<filter>
							<effect>
								<name>Audio Levels</name>
								<effectid>audiolevels</effectid>
								<effectcategory>audiolevels</effectcategory>
								<effecttype>audiolevels</effecttype>
								<mediatype>audio</mediatype>
								<pproBypass>false</pproBypass>
								<parameter authoringApp="PremierePro">
									<parameterid>level</parameterid>
									<name>Level</name>
									<valuemin>0</valuemin>
									<valuemax>3.98109</valuemax>
									<value>1</value>
								</parameter>
							</effect>
						</filter>
						<link>
							<linkclipref>clipitem-784261b7ba1e4388b1fda72cceca2269</linkclipref>
							<mediatype>audio</mediatype>
							<trackindex>1</trackindex>
							<clipindex>1</clipindex>
							<groupindex>1</groupindex>
						</link>
						<link>
							<linkclipref>clipitem-2458ffa0abd641c29b607d510644128f</linkclipref>
							<mediatype>audio</mediatype>
							<trackindex>2</trackindex>
							<clipindex>1</clipindex>
							<groupindex>1</groupindex>
						</link>
						<logginginfo>
							<description />
							<scene />
							<shottake />
							<lognote />
							<good />
							<originalvideofilename />
							<originalaudiofilename />
						</logginginfo>
						<colorinfo>
							<lut />
							<lut1 />
							<asc_sop />
							<asc_sat />
							<lut2 />
						</colorinfo>
						<labels>
							<label2>Caribbean</label2>
						</labels>
					</clipitem>
					<clipitem id="clipitem-2458ffa0abd641c29b607d510644128f" premiereChannelType="stereo">
						<masterclipid>masterclip-8</masterclipid>
						<name>ben - clip.mp3</name>
						<enabled>TRUE</enabled>
						<duration>873</duration>
						<rate>
							<timebase>24</timebase>
							<ntsc>FALSE</ntsc>
						</rate>
						<start>192</start>
						<end>264</end>
						<in>528</in>
						<out>600</out>
						<pproTicksIn>5588352000000</pproTicksIn>
						<pproTicksOut>6350400000000</pproTicksOut>
						<file id="file-8" />
						<sourcetrack>
							<mediatype>audio</mediatype>
							<trackindex>2</trackindex>
						</sourcetrack>
						<filter>
							<effect>
								<name>Audio Levels</name>
								<effectid>audiolevels</effectid>
								<effectcategory>audiolevels</effectcategory>
								<effecttype>audiolevels</effecttype>
								<mediatype>audio</mediatype>
								<pproBypass>false</pproBypass>
								<parameter authoringApp="PremierePro">
									<parameterid>level</parameterid>
									<name>Level</name>
									<valuemin>0</valuemin>
									<valuemax>3.98109</valuemax>
									<value>1</value>
								</parameter>
							</effect>
						</filter>
						<link>
							<linkclipref>clipitem-784261b7ba1e4388b1fda72cceca2269</linkclipref>
							<mediatype>audio</mediatype>
							<trackindex>1</trackindex>
							<clipindex>1</clipindex>
							<groupindex>1</groupindex>
						</link>
						<link>
							<linkclipref>clipitem-2458ffa0abd641c29b607d510644128f</linkclipref>
							<mediatype>audio</mediatype>
							<trackindex>2</trackindex>
							<clipindex>1</clipindex>
							<groupindex>1</groupindex>
						</link>
						<logginginfo>
							<description />
							<scene />
							<shottake />
							<lognote />
							<good />
							<originalvideofilename />
							<originalaudiofilename />
						</logginginfo>
						<colorinfo>
							<lut />
							<lut1 />
							<asc_sop />
							<asc_sat />
							<lut2 />
						</colorinfo>
						<labels>
							<label2>Caribbean</label2>
						</labels>
					</clipitem>
					<clipitem id="clipitem-2458ffa0abd641c29b607d510644128f" premiereChannelType="stereo">
						<masterclipid>masterclip-8</masterclipid>
						<name>ben - clip.mp3</name>
						<enabled>TRUE</enabled>
						<duration>873</duration>
						<rate>
							<timebase>24</timebase>
							<ntsc>FALSE</ntsc>
						</rate>
						<start>264</start>
						<end>384</end>
						<in>744</in>
						<out>864</out>
						<pproTicksIn>7874496000000</pproTicksIn>
						<pproTicksOut>9144576000000</pproTicksOut>
						<file id="file-8" />
						<sourcetrack>
							<mediatype>audio</mediatype>
							<trackindex>2</trackindex>
						</sourcetrack>
						<filter>
							<effect>
								<name>Audio Levels</name>
								<effectid>audiolevels</effectid>
								<effectcategory>audiolevels</effectcategory>
								<effecttype>audiolevels</effecttype>
								<mediatype>audio</mediatype>
								<pproBypass>false</pproBypass>
								<parameter authoringApp="PremierePro">
									<parameterid>level</parameterid>
									<name>Level</name>
									<valuemin>0</valuemin>
									<valuemax>3.98109</valuemax>
									<value>1</value>
								</parameter>
							</effect>
						</filter>
						<link>
							<linkclipref>clipitem-784261b7ba1e4388b1fda72cceca2269</linkclipref>
							<mediatype>audio</mediatype>
							<trackindex>1</trackindex>
							<clipindex>1</clipindex>
							<groupindex>1</groupindex>
						</link>
						<link>
							<linkclipref>clipitem-2458ffa0abd641c29b607d510644128f</linkclipref>
							<mediatype>audio</mediatype>
							<trackindex>2</trackindex>
							<clipindex>1</clipindex>
							<groupindex>1</groupindex>
						</link>
						<logginginfo>
							<description />
							<scene />
							<shottake />
							<lognote />
							<good />
							<originalvideofilename />
							<originalaudiofilename />
						</logginginfo>
						<colorinfo>
							<lut />
							<lut1 />
							<asc_sop />
							<asc_sat />
							<lut2 />
						</colorinfo>
						<labels>
							<label2>Caribbean</label2>
						</labels>
					</clipitem>
					</track></audio></media><timecode><rate><timebase>24</timebase><ntsc>TRUE</ntsc></rate><string>00:00:00:00</string><frame>0</frame><displayformat>NDF</displayformat></timecode><labels><label2>Forest</label2></labels></sequence></xmeml>